<?xml version="1.0" encoding="utf-8" standalone="no"?>
<!DOCTYPE svg PUBLIC "-//W3C//DTD SVG 1.1//EN"
  "http://www.w3.org/Graphics/SVG/1.1/DTD/svg11.dtd">
<svg xmlns:xlink="http://www.w3.org/1999/xlink" width="856.703125pt" height="424.15625pt" viewBox="0 0 856.703125 424.15625" xmlns="http://www.w3.org/2000/svg" version="1.1">
 <metadata>
  <rdf:RDF xmlns:dc="http://purl.org/dc/elements/1.1/" xmlns:cc="http://creativecommons.org/ns#" xmlns:rdf="http://www.w3.org/1999/02/22-rdf-syntax-ns#">
   <cc:Work>
    <dc:type rdf:resource="http://purl.org/dc/dcmitype/StillImage"/>
    <dc:date>2024-10-07T21:57:59.811047</dc:date>
    <dc:format>image/svg+xml</dc:format>
    <dc:creator>
     <cc:Agent>
      <dc:title>Matplotlib v3.5.2, https://matplotlib.org/</dc:title>
     </cc:Agent>
    </dc:creator>
   </cc:Work>
  </rdf:RDF>
 </metadata>
 <defs>
  <style type="text/css">*{stroke-linejoin: round; stroke-linecap: butt}</style>
 </defs>
 <g id="figure_1">
  <g id="patch_1">
   <path d="M -0 424.15625 
L 856.703125 424.15625 
L 856.703125 0 
L -0 0 
z
" style="fill: #ffffff"/>
  </g>
  <g id="axes_1">
   <g id="patch_2">
    <path d="M 30.103125 386.6 
L 412.715625 386.6 
L 412.715625 7.2 
L 30.103125 7.2 
z
" style="fill: #ffffff"/>
   </g>
   <g id="matplotlib.axis_1">
    <g id="xtick_1">
     <g id="line2d_1">
      <defs>
       <path id="mb4b76a2a2d" d="M 0 0 
L 0 3.5 
" style="stroke: #000000; stroke-width: 0.8"/>
      </defs>
      <g>
       <use xlink:href="#mb4b76a2a2d" x="47.494602" y="386.6" style="stroke: #000000; stroke-width: 0.8"/>
      </g>
     </g>
     <g id="text_1">
      <!-- 0 -->
      <g transform="translate(44.313352 401.198438)scale(0.1 -0.1)">
       <defs>
        <path id="DejaVuSans-30" d="M 2034 4250 
Q 1547 4250 1301 3770 
Q 1056 3291 1056 2328 
Q 1056 1369 1301 889 
Q 1547 409 2034 409 
Q 2525 409 2770 889 
Q 3016 1369 3016 2328 
Q 3016 3291 2770 3770 
Q 2525 4250 2034 4250 
z
M 2034 4750 
Q 2819 4750 3233 4129 
Q 3647 3509 3647 2328 
Q 3647 1150 3233 529 
Q 2819 -91 2034 -91 
Q 1250 -91 836 529 
Q 422 1150 422 2328 
Q 422 3509 836 4129 
Q 1250 4750 2034 4750 
z
" transform="scale(0.015625)"/>
       </defs>
       <use xlink:href="#DejaVuSans-30"/>
      </g>
     </g>
    </g>
    <g id="xtick_2">
     <g id="line2d_2">
      <g>
       <use xlink:href="#mb4b76a2a2d" x="117.060511" y="386.6" style="stroke: #000000; stroke-width: 0.8"/>
      </g>
     </g>
     <g id="text_2">
      <!-- 2 -->
      <g transform="translate(113.879261 401.198438)scale(0.1 -0.1)">
       <defs>
        <path id="DejaVuSans-32" d="M 1228 531 
L 3431 531 
L 3431 0 
L 469 0 
L 469 531 
Q 828 903 1448 1529 
Q 2069 2156 2228 2338 
Q 2531 2678 2651 2914 
Q 2772 3150 2772 3378 
Q 2772 3750 2511 3984 
Q 2250 4219 1831 4219 
Q 1534 4219 1204 4116 
Q 875 4013 500 3803 
L 500 4441 
Q 881 4594 1212 4672 
Q 1544 4750 1819 4750 
Q 2544 4750 2975 4387 
Q 3406 4025 3406 3419 
Q 3406 3131 3298 2873 
Q 3191 2616 2906 2266 
Q 2828 2175 2409 1742 
Q 1991 1309 1228 531 
z
" transform="scale(0.015625)"/>
       </defs>
       <use xlink:href="#DejaVuSans-32"/>
      </g>
     </g>
    </g>
    <g id="xtick_3">
     <g id="line2d_3">
      <g>
       <use xlink:href="#mb4b76a2a2d" x="186.62642" y="386.6" style="stroke: #000000; stroke-width: 0.8"/>
      </g>
     </g>
     <g id="text_3">
      <!-- 4 -->
      <g transform="translate(183.44517 401.198438)scale(0.1 -0.1)">
       <defs>
        <path id="DejaVuSans-34" d="M 2419 4116 
L 825 1625 
L 2419 1625 
L 2419 4116 
z
M 2253 4666 
L 3047 4666 
L 3047 1625 
L 3713 1625 
L 3713 1100 
L 3047 1100 
L 3047 0 
L 2419 0 
L 2419 1100 
L 313 1100 
L 313 1709 
L 2253 4666 
z
" transform="scale(0.015625)"/>
       </defs>
       <use xlink:href="#DejaVuSans-34"/>
      </g>
     </g>
    </g>
    <g id="xtick_4">
     <g id="line2d_4">
      <g>
       <use xlink:href="#mb4b76a2a2d" x="256.19233" y="386.6" style="stroke: #000000; stroke-width: 0.8"/>
      </g>
     </g>
     <g id="text_4">
      <!-- 6 -->
      <g transform="translate(253.01108 401.198438)scale(0.1 -0.1)">
       <defs>
        <path id="DejaVuSans-36" d="M 2113 2584 
Q 1688 2584 1439 2293 
Q 1191 2003 1191 1497 
Q 1191 994 1439 701 
Q 1688 409 2113 409 
Q 2538 409 2786 701 
Q 3034 994 3034 1497 
Q 3034 2003 2786 2293 
Q 2538 2584 2113 2584 
z
M 3366 4563 
L 3366 3988 
Q 3128 4100 2886 4159 
Q 2644 4219 2406 4219 
Q 1781 4219 1451 3797 
Q 1122 3375 1075 2522 
Q 1259 2794 1537 2939 
Q 1816 3084 2150 3084 
Q 2853 3084 3261 2657 
Q 3669 2231 3669 1497 
Q 3669 778 3244 343 
Q 2819 -91 2113 -91 
Q 1303 -91 875 529 
Q 447 1150 447 2328 
Q 447 3434 972 4092 
Q 1497 4750 2381 4750 
Q 2619 4750 2861 4703 
Q 3103 4656 3366 4563 
z
" transform="scale(0.015625)"/>
       </defs>
       <use xlink:href="#DejaVuSans-36"/>
      </g>
     </g>
    </g>
    <g id="xtick_5">
     <g id="line2d_5">
      <g>
       <use xlink:href="#mb4b76a2a2d" x="325.758239" y="386.6" style="stroke: #000000; stroke-width: 0.8"/>
      </g>
     </g>
     <g id="text_5">
      <!-- 8 -->
      <g transform="translate(322.576989 401.198438)scale(0.1 -0.1)">
       <defs>
        <path id="DejaVuSans-38" d="M 2034 2216 
Q 1584 2216 1326 1975 
Q 1069 1734 1069 1313 
Q 1069 891 1326 650 
Q 1584 409 2034 409 
Q 2484 409 2743 651 
Q 3003 894 3003 1313 
Q 3003 1734 2745 1975 
Q 2488 2216 2034 2216 
z
M 1403 2484 
Q 997 2584 770 2862 
Q 544 3141 544 3541 
Q 544 4100 942 4425 
Q 1341 4750 2034 4750 
Q 2731 4750 3128 4425 
Q 3525 4100 3525 3541 
Q 3525 3141 3298 2862 
Q 3072 2584 2669 2484 
Q 3125 2378 3379 2068 
Q 3634 1759 3634 1313 
Q 3634 634 3220 271 
Q 2806 -91 2034 -91 
Q 1263 -91 848 271 
Q 434 634 434 1313 
Q 434 1759 690 2068 
Q 947 2378 1403 2484 
z
M 1172 3481 
Q 1172 3119 1398 2916 
Q 1625 2713 2034 2713 
Q 2441 2713 2670 2916 
Q 2900 3119 2900 3481 
Q 2900 3844 2670 4047 
Q 2441 4250 2034 4250 
Q 1625 4250 1398 4047 
Q 1172 3844 1172 3481 
z
" transform="scale(0.015625)"/>
       </defs>
       <use xlink:href="#DejaVuSans-38"/>
      </g>
     </g>
    </g>
    <g id="xtick_6">
     <g id="line2d_6">
      <g>
       <use xlink:href="#mb4b76a2a2d" x="395.324148" y="386.6" style="stroke: #000000; stroke-width: 0.8"/>
      </g>
     </g>
     <g id="text_6">
      <!-- 10 -->
      <g transform="translate(388.961648 401.198438)scale(0.1 -0.1)">
       <defs>
        <path id="DejaVuSans-31" d="M 794 531 
L 1825 531 
L 1825 4091 
L 703 3866 
L 703 4441 
L 1819 4666 
L 2450 4666 
L 2450 531 
L 3481 531 
L 3481 0 
L 794 0 
L 794 531 
z
" transform="scale(0.015625)"/>
       </defs>
       <use xlink:href="#DejaVuSans-31"/>
       <use xlink:href="#DejaVuSans-30" x="63.623047"/>
      </g>
     </g>
    </g>
    <g id="text_7">
     <!-- Time -->
     <g transform="translate(209.175781 414.876563)scale(0.1 -0.1)">
      <defs>
       <path id="DejaVuSans-54" d="M -19 4666 
L 3928 4666 
L 3928 4134 
L 2272 4134 
L 2272 0 
L 1638 0 
L 1638 4134 
L -19 4134 
L -19 4666 
z
" transform="scale(0.015625)"/>
       <path id="DejaVuSans-69" d="M 603 3500 
L 1178 3500 
L 1178 0 
L 603 0 
L 603 3500 
z
M 603 4863 
L 1178 4863 
L 1178 4134 
L 603 4134 
L 603 4863 
z
" transform="scale(0.015625)"/>
       <path id="DejaVuSans-6d" d="M 3328 2828 
Q 3544 3216 3844 3400 
Q 4144 3584 4550 3584 
Q 5097 3584 5394 3201 
Q 5691 2819 5691 2113 
L 5691 0 
L 5113 0 
L 5113 2094 
Q 5113 2597 4934 2840 
Q 4756 3084 4391 3084 
Q 3944 3084 3684 2787 
Q 3425 2491 3425 1978 
L 3425 0 
L 2847 0 
L 2847 2094 
Q 2847 2600 2669 2842 
Q 2491 3084 2119 3084 
Q 1678 3084 1418 2786 
Q 1159 2488 1159 1978 
L 1159 0 
L 581 0 
L 581 3500 
L 1159 3500 
L 1159 2956 
Q 1356 3278 1631 3431 
Q 1906 3584 2284 3584 
Q 2666 3584 2933 3390 
Q 3200 3197 3328 2828 
z
" transform="scale(0.015625)"/>
       <path id="DejaVuSans-65" d="M 3597 1894 
L 3597 1613 
L 953 1613 
Q 991 1019 1311 708 
Q 1631 397 2203 397 
Q 2534 397 2845 478 
Q 3156 559 3463 722 
L 3463 178 
Q 3153 47 2828 -22 
Q 2503 -91 2169 -91 
Q 1331 -91 842 396 
Q 353 884 353 1716 
Q 353 2575 817 3079 
Q 1281 3584 2069 3584 
Q 2775 3584 3186 3129 
Q 3597 2675 3597 1894 
z
M 3022 2063 
Q 3016 2534 2758 2815 
Q 2500 3097 2075 3097 
Q 1594 3097 1305 2825 
Q 1016 2553 972 2059 
L 3022 2063 
z
" transform="scale(0.015625)"/>
      </defs>
      <use xlink:href="#DejaVuSans-54"/>
      <use xlink:href="#DejaVuSans-69" x="57.958984"/>
      <use xlink:href="#DejaVuSans-6d" x="85.742188"/>
      <use xlink:href="#DejaVuSans-65" x="183.154297"/>
     </g>
    </g>
   </g>
   <g id="matplotlib.axis_2">
    <g id="ytick_1">
     <g id="line2d_7">
      <defs>
       <path id="mfd3dd7ae11" d="M 0 0 
L -3.5 0 
" style="stroke: #000000; stroke-width: 0.8"/>
      </defs>
      <g>
       <use xlink:href="#mfd3dd7ae11" x="30.103125" y="380.954955" style="stroke: #000000; stroke-width: 0.8"/>
      </g>
     </g>
     <g id="text_8">
      <!-- 0.5 -->
      <g transform="translate(7.2 384.754173)scale(0.1 -0.1)">
       <defs>
        <path id="DejaVuSans-2e" d="M 684 794 
L 1344 794 
L 1344 0 
L 684 0 
L 684 794 
z
" transform="scale(0.015625)"/>
        <path id="DejaVuSans-35" d="M 691 4666 
L 3169 4666 
L 3169 4134 
L 1269 4134 
L 1269 2991 
Q 1406 3038 1543 3061 
Q 1681 3084 1819 3084 
Q 2600 3084 3056 2656 
Q 3513 2228 3513 1497 
Q 3513 744 3044 326 
Q 2575 -91 1722 -91 
Q 1428 -91 1123 -41 
Q 819 9 494 109 
L 494 744 
Q 775 591 1075 516 
Q 1375 441 1709 441 
Q 2250 441 2565 725 
Q 2881 1009 2881 1497 
Q 2881 1984 2565 2268 
Q 2250 2553 1709 2553 
Q 1456 2553 1204 2497 
Q 953 2441 691 2322 
L 691 4666 
z
" transform="scale(0.015625)"/>
       </defs>
       <use xlink:href="#DejaVuSans-30"/>
       <use xlink:href="#DejaVuSans-2e" x="63.623047"/>
       <use xlink:href="#DejaVuSans-35" x="95.410156"/>
      </g>
     </g>
    </g>
    <g id="ytick_2">
     <g id="line2d_8">
      <g>
       <use xlink:href="#mfd3dd7ae11" x="30.103125" y="337.29681" style="stroke: #000000; stroke-width: 0.8"/>
      </g>
     </g>
     <g id="text_9">
      <!-- 1.0 -->
      <g transform="translate(7.2 341.096028)scale(0.1 -0.1)">
       <use xlink:href="#DejaVuSans-31"/>
       <use xlink:href="#DejaVuSans-2e" x="63.623047"/>
       <use xlink:href="#DejaVuSans-30" x="95.410156"/>
      </g>
     </g>
    </g>
    <g id="ytick_3">
     <g id="line2d_9">
      <g>
       <use xlink:href="#mfd3dd7ae11" x="30.103125" y="293.638665" style="stroke: #000000; stroke-width: 0.8"/>
      </g>
     </g>
     <g id="text_10">
      <!-- 1.5 -->
      <g transform="translate(7.2 297.437883)scale(0.1 -0.1)">
       <use xlink:href="#DejaVuSans-31"/>
       <use xlink:href="#DejaVuSans-2e" x="63.623047"/>
       <use xlink:href="#DejaVuSans-35" x="95.410156"/>
      </g>
     </g>
    </g>
    <g id="ytick_4">
     <g id="line2d_10">
      <g>
       <use xlink:href="#mfd3dd7ae11" x="30.103125" y="249.98052" style="stroke: #000000; stroke-width: 0.8"/>
      </g>
     </g>
     <g id="text_11">
      <!-- 2.0 -->
      <g transform="translate(7.2 253.779738)scale(0.1 -0.1)">
       <use xlink:href="#DejaVuSans-32"/>
       <use xlink:href="#DejaVuSans-2e" x="63.623047"/>
       <use xlink:href="#DejaVuSans-30" x="95.410156"/>
      </g>
     </g>
    </g>
    <g id="ytick_5">
     <g id="line2d_11">
      <g>
       <use xlink:href="#mfd3dd7ae11" x="30.103125" y="206.322375" style="stroke: #000000; stroke-width: 0.8"/>
      </g>
     </g>
     <g id="text_12">
      <!-- 2.5 -->
      <g transform="translate(7.2 210.121594)scale(0.1 -0.1)">
       <use xlink:href="#DejaVuSans-32"/>
       <use xlink:href="#DejaVuSans-2e" x="63.623047"/>
       <use xlink:href="#DejaVuSans-35" x="95.410156"/>
      </g>
     </g>
    </g>
    <g id="ytick_6">
     <g id="line2d_12">
      <g>
       <use xlink:href="#mfd3dd7ae11" x="30.103125" y="162.66423" style="stroke: #000000; stroke-width: 0.8"/>
      </g>
     </g>
     <g id="text_13">
      <!-- 3.0 -->
      <g transform="translate(7.2 166.463449)scale(0.1 -0.1)">
       <defs>
        <path id="DejaVuSans-33" d="M 2597 2516 
Q 3050 2419 3304 2112 
Q 3559 1806 3559 1356 
Q 3559 666 3084 287 
Q 2609 -91 1734 -91 
Q 1441 -91 1130 -33 
Q 819 25 488 141 
L 488 750 
Q 750 597 1062 519 
Q 1375 441 1716 441 
Q 2309 441 2620 675 
Q 2931 909 2931 1356 
Q 2931 1769 2642 2001 
Q 2353 2234 1838 2234 
L 1294 2234 
L 1294 2753 
L 1863 2753 
Q 2328 2753 2575 2939 
Q 2822 3125 2822 3475 
Q 2822 3834 2567 4026 
Q 2313 4219 1838 4219 
Q 1578 4219 1281 4162 
Q 984 4106 628 3988 
L 628 4550 
Q 988 4650 1302 4700 
Q 1616 4750 1894 4750 
Q 2613 4750 3031 4423 
Q 3450 4097 3450 3541 
Q 3450 3153 3228 2886 
Q 3006 2619 2597 2516 
z
" transform="scale(0.015625)"/>
       </defs>
       <use xlink:href="#DejaVuSans-33"/>
       <use xlink:href="#DejaVuSans-2e" x="63.623047"/>
       <use xlink:href="#DejaVuSans-30" x="95.410156"/>
      </g>
     </g>
    </g>
    <g id="ytick_7">
     <g id="line2d_13">
      <g>
       <use xlink:href="#mfd3dd7ae11" x="30.103125" y="119.006085" style="stroke: #000000; stroke-width: 0.8"/>
      </g>
     </g>
     <g id="text_14">
      <!-- 3.5 -->
      <g transform="translate(7.2 122.805304)scale(0.1 -0.1)">
       <use xlink:href="#DejaVuSans-33"/>
       <use xlink:href="#DejaVuSans-2e" x="63.623047"/>
       <use xlink:href="#DejaVuSans-35" x="95.410156"/>
      </g>
     </g>
    </g>
    <g id="ytick_8">
     <g id="line2d_14">
      <g>
       <use xlink:href="#mfd3dd7ae11" x="30.103125" y="75.34794" style="stroke: #000000; stroke-width: 0.8"/>
      </g>
     </g>
     <g id="text_15">
      <!-- 4.0 -->
      <g transform="translate(7.2 79.147159)scale(0.1 -0.1)">
       <use xlink:href="#DejaVuSans-34"/>
       <use xlink:href="#DejaVuSans-2e" x="63.623047"/>
       <use xlink:href="#DejaVuSans-30" x="95.410156"/>
      </g>
     </g>
    </g>
    <g id="ytick_9">
     <g id="line2d_15">
      <g>
       <use xlink:href="#mfd3dd7ae11" x="30.103125" y="31.689795" style="stroke: #000000; stroke-width: 0.8"/>
      </g>
     </g>
     <g id="text_16">
      <!-- 4.5 -->
      <g transform="translate(7.2 35.489014)scale(0.1 -0.1)">
       <use xlink:href="#DejaVuSans-34"/>
       <use xlink:href="#DejaVuSans-2e" x="63.623047"/>
       <use xlink:href="#DejaVuSans-35" x="95.410156"/>
      </g>
     </g>
    </g>
   </g>
   <g id="line2d_16">
    <path d="M 47.494602 75.34794 
L 49.23375 94.007516 
L 51.668557 123.136931 
L 60.364295 230.108735 
L 62.451273 252.109439 
L 64.19042 268.400413 
L 65.929568 282.693546 
L 67.668716 295.35199 
L 69.407864 306.52 
L 71.147011 316.319212 
L 72.886159 324.869878 
L 74.625307 332.290856 
L 76.364455 338.699618 
L 78.103602 344.212247 
L 79.84275 348.938367 
L 81.581898 352.955757 
L 83.321045 356.349257 
L 85.060193 359.196283 
L 86.799341 361.562855 
L 88.538489 363.503595 
L 90.277636 365.061731 
L 92.016784 366.269093 
L 93.408102 366.99654 
L 94.79942 367.517999 
L 96.190739 367.834012 
L 97.582057 367.940454 
L 98.973375 367.842632 
L 100.712523 367.467865 
L 102.45167 366.817029 
L 104.190818 365.891192 
L 105.929966 364.688556 
L 107.669114 363.20446 
L 109.408261 361.431375 
L 111.147409 359.358909 
L 112.886557 356.973802 
L 114.625705 354.259933 
L 116.712682 350.542383 
L 118.799659 346.31011 
L 120.886636 341.524385 
L 122.973614 336.111172 
L 125.060591 330.000472 
L 127.147568 323.12632 
L 129.234545 315.426796 
L 131.321523 306.844013 
L 133.4085 297.324129 
L 135.495477 286.817338 
L 137.582455 275.277874 
L 140.017261 260.454539 
L 142.452068 244.10968 
L 144.886875 226.191469 
L 147.669511 203.847785 
L 150.452148 179.6843 
L 153.930443 147.433952 
L 160.887034 82.316372 
L 162.974011 65.02255 
L 164.713159 52.22162 
L 166.104477 43.369701 
L 167.147966 37.813463 
L 168.191455 33.347376 
L 168.887114 31.035648 
L 169.582773 29.291448 
L 170.278432 28.139361 
L 170.974091 27.599157 
L 171.32192 27.563375 
L 171.66975 27.685797 
L 172.01758 27.967542 
L 172.713239 29.011967 
L 173.408898 30.699579 
L 174.104557 33.028492 
L 174.800216 35.992009 
L 175.843705 41.600674 
L 176.887193 48.551026 
L 178.278511 59.757379 
L 179.66983 72.932353 
L 181.408977 91.638846 
L 183.843784 120.356597 
L 187.32208 164.284669 
L 192.539523 230.237143 
L 194.6265 254.000344 
L 196.365648 271.495599 
L 197.756966 283.479072 
L 199.496114 296.293975 
L 201.235261 307.544691 
L 202.974409 317.396212 
L 204.713557 325.998225 
L 206.452705 333.485343 
L 208.191852 339.977106 
L 209.931 345.577977 
L 211.670148 350.377344 
L 213.409295 354.449523 
L 215.148443 357.859731 
L 216.887591 360.704314 
L 218.626739 363.052791 
L 220.365886 364.959978 
L 222.105034 366.472564 
L 223.844182 367.629109 
L 225.58333 368.460045 
L 227.322477 368.987673 
L 228.713795 369.201194 
L 230.105114 369.233338 
L 231.496432 369.084287 
L 232.88775 368.750896 
L 234.279068 368.227523 
L 236.018216 367.322398 
L 237.757364 366.144653 
L 239.496511 364.689036 
L 241.235659 362.947631 
L 242.974807 360.909854 
L 244.713955 358.562455 
L 246.453102 355.889516 
L 248.54008 352.225923 
L 250.627057 348.029469 
L 252.714034 343.257444 
L 254.801011 337.87765 
L 256.887989 331.944199 
L 258.974966 325.338789 
L 261.061943 317.922594 
L 263.14892 309.578529 
L 265.235898 300.211248 
L 267.322875 289.747145 
L 269.409852 278.134353 
L 271.49683 265.342744 
L 273.931636 248.919325 
L 276.366443 230.904957 
L 279.14908 208.453406 
L 281.931716 184.169753 
L 285.062182 154.948739 
L 287.844818 127.192755 
L 292.366602 81.828031 
L 294.45358 63.350183 
L 296.192727 50.074883 
L 297.584045 41.164638 
L 298.627534 35.61024 
L 299.671023 31.105194 
L 300.714511 27.714818 
L 301.41017 26.102444 
L 302.10583 25.026087 
L 302.801489 24.499144 
L 303.149318 24.445455 
L 303.497148 24.533423 
L 303.844977 24.764278 
L 304.540636 25.659062 
L 305.236295 27.137644 
L 305.931955 29.206275 
L 306.627614 31.869619 
L 307.671102 36.98601 
L 308.714591 43.450726 
L 309.75808 51.259401 
L 311.149398 63.737854 
L 312.888545 82.160146 
L 314.975523 107.181715 
L 318.105989 147.910374 
L 322.279943 201.705193 
L 324.71475 230.0965 
L 326.801727 251.957942 
L 328.888705 271.321269 
L 330.627852 285.551635 
L 332.367 298.147372 
L 334.106148 309.179881 
L 335.845295 318.815596 
L 337.584443 327.218899 
L 339.323591 334.534576 
L 341.062739 340.887821 
L 342.801886 346.38423 
L 344.541034 351.109804 
L 346.280182 355.130949 
L 347.6715 357.872793 
L 349.062818 360.218774 
L 350.801966 362.689359 
L 352.541114 364.703884 
L 354.280261 366.308812 
L 355.67158 367.324587 
L 357.062898 368.12056 
L 358.454216 368.710817 
L 359.845534 369.106566 
L 361.236852 369.316144 
L 362.62817 369.345011 
L 364.367318 369.130631 
L 366.106466 368.636446 
L 367.845614 367.856391 
L 369.584761 366.801421 
L 371.323909 365.471687 
L 373.063057 363.860349 
L 374.802205 361.957927 
L 376.541352 359.752292 
L 378.2805 357.228672 
L 380.019648 354.369651 
L 382.106625 350.467661 
L 384.193602 346.01397 
L 386.28058 340.9634 
L 388.367557 335.265332 
L 390.454534 328.864303 
L 392.541511 321.700247 
L 394.628489 313.709736 
L 395.324148 310.851164 
L 395.324148 310.851164 
" clip-path="url(#p50eabb3097)" style="fill: none; stroke: #1f77b4; stroke-width: 1.5; stroke-linecap: square"/>
   </g>
   <g id="line2d_17">
    <path d="M 47.494602 249.98052 
L 49.929409 238.291822 
L 51.668557 230.826255 
L 53.407705 224.3285 
L 54.799023 219.891446 
L 56.190341 216.169011 
L 57.581659 213.185247 
L 58.625148 211.440777 
L 59.668636 210.12161 
L 60.712125 209.226367 
L 61.407784 208.862878 
L 62.103443 208.683592 
L 62.799102 208.685659 
L 63.494761 208.86558 
L 64.19042 209.219205 
L 65.233909 210.058538 
L 66.277398 211.213716 
L 67.668716 213.187545 
L 69.060034 215.598126 
L 70.799182 219.134324 
L 72.886159 224.003444 
L 75.320966 230.337851 
L 78.451432 239.171753 
L 84.016705 255.720092 
L 89.929807 273.112369 
L 94.103761 284.699334 
L 97.929886 294.667803 
L 101.408182 303.136927 
L 104.538648 310.219924 
L 107.669114 316.778578 
L 110.79958 322.805698 
L 113.582216 327.715569 
L 116.364852 332.206907 
L 119.147489 336.278573 
L 121.930125 339.927845 
L 124.364932 342.778177 
L 126.799739 345.306431 
L 129.234545 347.505372 
L 131.321523 349.118932 
L 133.4085 350.471009 
L 135.495477 351.548269 
L 137.234625 352.224571 
L 138.973773 352.688233 
L 140.71292 352.927242 
L 142.452068 352.928282 
L 144.191216 352.676737 
L 145.930364 352.155908 
L 147.321682 351.5288 
L 148.713 350.700019 
L 150.104318 349.655218 
L 151.495636 348.378826 
L 152.886955 346.854049 
L 154.626102 344.571219 
L 156.36525 341.834161 
L 158.104398 338.602001 
L 159.843545 334.83088 
L 161.582693 330.473947 
L 163.321841 325.481545 
L 165.060989 319.829381 
L 166.800136 313.492336 
L 168.887114 304.971127 
L 170.974091 295.507208 
L 173.408898 283.466702 
L 177.582852 261.429132 
L 181.061148 243.553911 
L 183.148125 234.044975 
L 184.887273 227.10466 
L 186.62642 221.124744 
L 188.017739 217.07151 
L 189.409057 213.698543 
L 190.452545 211.631526 
L 191.496034 209.973261 
L 192.539523 208.734227 
L 193.583011 207.924483 
L 194.27867 207.627926 
L 194.97433 207.529212 
L 195.669989 207.631012 
L 196.365648 207.935914 
L 197.061307 208.446424 
L 198.104795 209.594755 
L 199.496114 211.627779 
L 200.887432 214.109923 
L 202.62658 217.744401 
L 204.713557 222.733352 
L 207.148364 229.19849 
L 210.27883 238.17918 
L 215.496273 253.932447 
L 221.757205 272.685269 
L 225.931159 284.477346 
L 229.409455 293.688161 
L 232.88775 302.291103 
L 236.366045 310.283055 
L 239.496511 316.917801 
L 242.626977 323.018175 
L 245.409614 327.991018 
L 248.19225 332.540661 
L 250.974886 336.668145 
L 253.757523 340.37546 
L 256.19233 343.260098 
L 258.627136 345.799191 
L 261.061943 348.006329 
L 263.49675 349.884939 
L 265.583727 351.22874 
L 267.670705 352.31588 
L 269.757682 353.130397 
L 271.49683 353.585536 
L 273.235977 353.821072 
L 274.975125 353.818895 
L 276.714273 353.558206 
L 278.105591 353.147833 
L 279.496909 352.543766 
L 280.888227 351.731641 
L 282.279545 350.695988 
L 283.670864 349.420241 
L 285.062182 347.886729 
L 286.80133 345.620435 
L 288.540477 342.978475 
L 289.931795 340.506792 
L 291.323114 337.654458 
L 292.714432 334.376599 
L 294.45358 329.631796 
L 296.192727 324.133264 
L 297.931875 317.871873 
L 300.018852 309.381366 
L 302.10583 299.912351 
L 304.540636 287.831974 
L 308.018932 269.324251 
L 312.888545 243.492315 
L 314.975523 233.549637 
L 316.71467 226.208167 
L 318.453818 219.914262 
L 319.845136 215.722776 
L 321.236455 212.332788 
L 322.279943 210.329923 
L 323.323432 208.782549 
L 324.36692 207.679369 
L 325.06258 207.183854 
L 325.758239 206.874706 
L 326.453898 206.746518 
L 327.149557 206.793338 
L 327.845216 207.008665 
L 328.888705 207.63203 
L 329.932193 208.59243 
L 330.975682 209.860977 
L 332.367 211.982014 
L 333.758318 214.543165 
L 335.497466 218.264566 
L 337.584443 223.33919 
L 340.01925 229.877569 
L 343.497545 239.942691 
L 350.106307 259.961437 
L 355.32375 275.423765 
L 359.149875 286.12716 
L 362.62817 295.255276 
L 366.106466 303.763852 
L 369.236932 310.88767 
L 372.367398 317.480976 
L 375.497864 323.539616 
L 378.2805 328.475518 
L 381.063136 332.988321 
L 383.845773 337.078635 
L 386.628409 340.747651 
L 389.063216 343.612873 
L 391.498023 346.150354 
L 393.93283 348.353118 
L 395.324148 349.457927 
L 395.324148 349.457927 
" clip-path="url(#p50eabb3097)" style="fill: none; stroke: #ff7f0e; stroke-width: 1.5; stroke-linecap: square"/>
   </g>
   <g id="patch_3">
    <path d="M 30.103125 386.6 
L 30.103125 7.2 
" style="fill: none; stroke: #000000; stroke-width: 0.8; stroke-linejoin: miter; stroke-linecap: square"/>
   </g>
   <g id="patch_4">
    <path d="M 412.715625 386.6 
L 412.715625 7.2 
" style="fill: none; stroke: #000000; stroke-width: 0.8; stroke-linejoin: miter; stroke-linecap: square"/>
   </g>
   <g id="patch_5">
    <path d="M 30.103125 386.6 
L 412.715625 386.6 
" style="fill: none; stroke: #000000; stroke-width: 0.8; stroke-linejoin: miter; stroke-linecap: square"/>
   </g>
   <g id="patch_6">
    <path d="M 30.103125 7.2 
L 412.715625 7.2 
" style="fill: none; stroke: #000000; stroke-width: 0.8; stroke-linejoin: miter; stroke-linecap: square"/>
   </g>
   <g id="legend_1">
    <g id="patch_7">
     <path d="M 336.259375 44.55625 
L 405.715625 44.55625 
Q 407.715625 44.55625 407.715625 42.55625 
L 407.715625 14.2 
Q 407.715625 12.2 405.715625 12.2 
L 336.259375 12.2 
Q 334.259375 12.2 334.259375 14.2 
L 334.259375 42.55625 
Q 334.259375 44.55625 336.259375 44.55625 
z
" style="fill: #ffffff; opacity: 0.8; stroke: #cccccc; stroke-linejoin: miter"/>
    </g>
    <g id="line2d_18">
     <path d="M 338.259375 20.298438 
L 348.259375 20.298438 
L 358.259375 20.298438 
" style="fill: none; stroke: #1f77b4; stroke-width: 1.5; stroke-linecap: square"/>
    </g>
    <g id="text_17">
     <!-- Rabbits -->
     <g transform="translate(366.259375 23.798438)scale(0.1 -0.1)">
      <defs>
       <path id="DejaVuSans-52" d="M 2841 2188 
Q 3044 2119 3236 1894 
Q 3428 1669 3622 1275 
L 4263 0 
L 3584 0 
L 2988 1197 
Q 2756 1666 2539 1819 
Q 2322 1972 1947 1972 
L 1259 1972 
L 1259 0 
L 628 0 
L 628 4666 
L 2053 4666 
Q 2853 4666 3247 4331 
Q 3641 3997 3641 3322 
Q 3641 2881 3436 2590 
Q 3231 2300 2841 2188 
z
M 1259 4147 
L 1259 2491 
L 2053 2491 
Q 2509 2491 2742 2702 
Q 2975 2913 2975 3322 
Q 2975 3731 2742 3939 
Q 2509 4147 2053 4147 
L 1259 4147 
z
" transform="scale(0.015625)"/>
       <path id="DejaVuSans-61" d="M 2194 1759 
Q 1497 1759 1228 1600 
Q 959 1441 959 1056 
Q 959 750 1161 570 
Q 1363 391 1709 391 
Q 2188 391 2477 730 
Q 2766 1069 2766 1631 
L 2766 1759 
L 2194 1759 
z
M 3341 1997 
L 3341 0 
L 2766 0 
L 2766 531 
Q 2569 213 2275 61 
Q 1981 -91 1556 -91 
Q 1019 -91 701 211 
Q 384 513 384 1019 
Q 384 1609 779 1909 
Q 1175 2209 1959 2209 
L 2766 2209 
L 2766 2266 
Q 2766 2663 2505 2880 
Q 2244 3097 1772 3097 
Q 1472 3097 1187 3025 
Q 903 2953 641 2809 
L 641 3341 
Q 956 3463 1253 3523 
Q 1550 3584 1831 3584 
Q 2591 3584 2966 3190 
Q 3341 2797 3341 1997 
z
" transform="scale(0.015625)"/>
       <path id="DejaVuSans-62" d="M 3116 1747 
Q 3116 2381 2855 2742 
Q 2594 3103 2138 3103 
Q 1681 3103 1420 2742 
Q 1159 2381 1159 1747 
Q 1159 1113 1420 752 
Q 1681 391 2138 391 
Q 2594 391 2855 752 
Q 3116 1113 3116 1747 
z
M 1159 2969 
Q 1341 3281 1617 3432 
Q 1894 3584 2278 3584 
Q 2916 3584 3314 3078 
Q 3713 2572 3713 1747 
Q 3713 922 3314 415 
Q 2916 -91 2278 -91 
Q 1894 -91 1617 61 
Q 1341 213 1159 525 
L 1159 0 
L 581 0 
L 581 4863 
L 1159 4863 
L 1159 2969 
z
" transform="scale(0.015625)"/>
       <path id="DejaVuSans-74" d="M 1172 4494 
L 1172 3500 
L 2356 3500 
L 2356 3053 
L 1172 3053 
L 1172 1153 
Q 1172 725 1289 603 
Q 1406 481 1766 481 
L 2356 481 
L 2356 0 
L 1766 0 
Q 1100 0 847 248 
Q 594 497 594 1153 
L 594 3053 
L 172 3053 
L 172 3500 
L 594 3500 
L 594 4494 
L 1172 4494 
z
" transform="scale(0.015625)"/>
       <path id="DejaVuSans-73" d="M 2834 3397 
L 2834 2853 
Q 2591 2978 2328 3040 
Q 2066 3103 1784 3103 
Q 1356 3103 1142 2972 
Q 928 2841 928 2578 
Q 928 2378 1081 2264 
Q 1234 2150 1697 2047 
L 1894 2003 
Q 2506 1872 2764 1633 
Q 3022 1394 3022 966 
Q 3022 478 2636 193 
Q 2250 -91 1575 -91 
Q 1294 -91 989 -36 
Q 684 19 347 128 
L 347 722 
Q 666 556 975 473 
Q 1284 391 1588 391 
Q 1994 391 2212 530 
Q 2431 669 2431 922 
Q 2431 1156 2273 1281 
Q 2116 1406 1581 1522 
L 1381 1569 
Q 847 1681 609 1914 
Q 372 2147 372 2553 
Q 372 3047 722 3315 
Q 1072 3584 1716 3584 
Q 2034 3584 2315 3537 
Q 2597 3491 2834 3397 
z
" transform="scale(0.015625)"/>
      </defs>
      <use xlink:href="#DejaVuSans-52"/>
      <use xlink:href="#DejaVuSans-61" x="67.232422"/>
      <use xlink:href="#DejaVuSans-62" x="128.511719"/>
      <use xlink:href="#DejaVuSans-62" x="191.988281"/>
      <use xlink:href="#DejaVuSans-69" x="255.464844"/>
      <use xlink:href="#DejaVuSans-74" x="283.248047"/>
      <use xlink:href="#DejaVuSans-73" x="322.457031"/>
     </g>
    </g>
    <g id="line2d_19">
     <path d="M 338.259375 34.976563 
L 348.259375 34.976563 
L 358.259375 34.976563 
" style="fill: none; stroke: #ff7f0e; stroke-width: 1.5; stroke-linecap: square"/>
    </g>
    <g id="text_18">
     <!-- Foxes -->
     <g transform="translate(366.259375 38.476563)scale(0.1 -0.1)">
      <defs>
       <path id="DejaVuSans-46" d="M 628 4666 
L 3309 4666 
L 3309 4134 
L 1259 4134 
L 1259 2759 
L 3109 2759 
L 3109 2228 
L 1259 2228 
L 1259 0 
L 628 0 
L 628 4666 
z
" transform="scale(0.015625)"/>
       <path id="DejaVuSans-6f" d="M 1959 3097 
Q 1497 3097 1228 2736 
Q 959 2375 959 1747 
Q 959 1119 1226 758 
Q 1494 397 1959 397 
Q 2419 397 2687 759 
Q 2956 1122 2956 1747 
Q 2956 2369 2687 2733 
Q 2419 3097 1959 3097 
z
M 1959 3584 
Q 2709 3584 3137 3096 
Q 3566 2609 3566 1747 
Q 3566 888 3137 398 
Q 2709 -91 1959 -91 
Q 1206 -91 779 398 
Q 353 888 353 1747 
Q 353 2609 779 3096 
Q 1206 3584 1959 3584 
z
" transform="scale(0.015625)"/>
       <path id="DejaVuSans-78" d="M 3513 3500 
L 2247 1797 
L 3578 0 
L 2900 0 
L 1881 1375 
L 863 0 
L 184 0 
L 1544 1831 
L 300 3500 
L 978 3500 
L 1906 2253 
L 2834 3500 
L 3513 3500 
z
" transform="scale(0.015625)"/>
      </defs>
      <use xlink:href="#DejaVuSans-46"/>
      <use xlink:href="#DejaVuSans-6f" x="53.894531"/>
      <use xlink:href="#DejaVuSans-78" x="111.951172"/>
      <use xlink:href="#DejaVuSans-65" x="168.005859"/>
      <use xlink:href="#DejaVuSans-73" x="229.529297"/>
     </g>
    </g>
   </g>
  </g>
  <g id="axes_2">
   <g id="patch_8">
    <path d="M 466.890625 386.6 
L 849.503125 386.6 
L 849.503125 7.2 
L 466.890625 7.2 
z
" style="fill: #ffffff"/>
   </g>
   <g id="matplotlib.axis_3">
    <g id="xtick_7">
     <g id="line2d_20">
      <g>
       <use xlink:href="#mb4b76a2a2d" x="472.583469" y="386.6" style="stroke: #000000; stroke-width: 0.8"/>
      </g>
     </g>
     <g id="text_19">
      <!-- 0.5 -->
      <g transform="translate(464.631906 401.198438)scale(0.1 -0.1)">
       <use xlink:href="#DejaVuSans-30"/>
       <use xlink:href="#DejaVuSans-2e" x="63.623047"/>
       <use xlink:href="#DejaVuSans-35" x="95.410156"/>
      </g>
     </g>
    </g>
    <g id="xtick_8">
     <g id="line2d_21">
      <g>
       <use xlink:href="#mb4b76a2a2d" x="516.611281" y="386.6" style="stroke: #000000; stroke-width: 0.8"/>
      </g>
     </g>
     <g id="text_20">
      <!-- 1.0 -->
      <g transform="translate(508.659719 401.198438)scale(0.1 -0.1)">
       <use xlink:href="#DejaVuSans-31"/>
       <use xlink:href="#DejaVuSans-2e" x="63.623047"/>
       <use xlink:href="#DejaVuSans-30" x="95.410156"/>
      </g>
     </g>
    </g>
    <g id="xtick_9">
     <g id="line2d_22">
      <g>
       <use xlink:href="#mb4b76a2a2d" x="560.639093" y="386.6" style="stroke: #000000; stroke-width: 0.8"/>
      </g>
     </g>
     <g id="text_21">
      <!-- 1.5 -->
      <g transform="translate(552.687531 401.198438)scale(0.1 -0.1)">
       <use xlink:href="#DejaVuSans-31"/>
       <use xlink:href="#DejaVuSans-2e" x="63.623047"/>
       <use xlink:href="#DejaVuSans-35" x="95.410156"/>
      </g>
     </g>
    </g>
    <g id="xtick_10">
     <g id="line2d_23">
      <g>
       <use xlink:href="#mb4b76a2a2d" x="604.666906" y="386.6" style="stroke: #000000; stroke-width: 0.8"/>
      </g>
     </g>
     <g id="text_22">
      <!-- 2.0 -->
      <g transform="translate(596.715343 401.198438)scale(0.1 -0.1)">
       <use xlink:href="#DejaVuSans-32"/>
       <use xlink:href="#DejaVuSans-2e" x="63.623047"/>
       <use xlink:href="#DejaVuSans-30" x="95.410156"/>
      </g>
     </g>
    </g>
    <g id="xtick_11">
     <g id="line2d_24">
      <g>
       <use xlink:href="#mb4b76a2a2d" x="648.694718" y="386.6" style="stroke: #000000; stroke-width: 0.8"/>
      </g>
     </g>
     <g id="text_23">
      <!-- 2.5 -->
      <g transform="translate(640.743155 401.198438)scale(0.1 -0.1)">
       <use xlink:href="#DejaVuSans-32"/>
       <use xlink:href="#DejaVuSans-2e" x="63.623047"/>
       <use xlink:href="#DejaVuSans-35" x="95.410156"/>
      </g>
     </g>
    </g>
    <g id="xtick_12">
     <g id="line2d_25">
      <g>
       <use xlink:href="#mb4b76a2a2d" x="692.72253" y="386.6" style="stroke: #000000; stroke-width: 0.8"/>
      </g>
     </g>
     <g id="text_24">
      <!-- 3.0 -->
      <g transform="translate(684.770968 401.198438)scale(0.1 -0.1)">
       <use xlink:href="#DejaVuSans-33"/>
       <use xlink:href="#DejaVuSans-2e" x="63.623047"/>
       <use xlink:href="#DejaVuSans-30" x="95.410156"/>
      </g>
     </g>
    </g>
    <g id="xtick_13">
     <g id="line2d_26">
      <g>
       <use xlink:href="#mb4b76a2a2d" x="736.750343" y="386.6" style="stroke: #000000; stroke-width: 0.8"/>
      </g>
     </g>
     <g id="text_25">
      <!-- 3.5 -->
      <g transform="translate(728.79878 401.198438)scale(0.1 -0.1)">
       <use xlink:href="#DejaVuSans-33"/>
       <use xlink:href="#DejaVuSans-2e" x="63.623047"/>
       <use xlink:href="#DejaVuSans-35" x="95.410156"/>
      </g>
     </g>
    </g>
    <g id="xtick_14">
     <g id="line2d_27">
      <g>
       <use xlink:href="#mb4b76a2a2d" x="780.778155" y="386.6" style="stroke: #000000; stroke-width: 0.8"/>
      </g>
     </g>
     <g id="text_26">
      <!-- 4.0 -->
      <g transform="translate(772.826592 401.198438)scale(0.1 -0.1)">
       <use xlink:href="#DejaVuSans-34"/>
       <use xlink:href="#DejaVuSans-2e" x="63.623047"/>
       <use xlink:href="#DejaVuSans-30" x="95.410156"/>
      </g>
     </g>
    </g>
    <g id="xtick_15">
     <g id="line2d_28">
      <g>
       <use xlink:href="#mb4b76a2a2d" x="824.805967" y="386.6" style="stroke: #000000; stroke-width: 0.8"/>
      </g>
     </g>
     <g id="text_27">
      <!-- 4.5 -->
      <g transform="translate(816.854405 401.198438)scale(0.1 -0.1)">
       <use xlink:href="#DejaVuSans-34"/>
       <use xlink:href="#DejaVuSans-2e" x="63.623047"/>
       <use xlink:href="#DejaVuSans-35" x="95.410156"/>
      </g>
     </g>
    </g>
    <g id="text_28">
     <!-- Rabbit population -->
     <g transform="translate(613.877344 414.876563)scale(0.1 -0.1)">
      <defs>
       <path id="DejaVuSans-20" transform="scale(0.015625)"/>
       <path id="DejaVuSans-70" d="M 1159 525 
L 1159 -1331 
L 581 -1331 
L 581 3500 
L 1159 3500 
L 1159 2969 
Q 1341 3281 1617 3432 
Q 1894 3584 2278 3584 
Q 2916 3584 3314 3078 
Q 3713 2572 3713 1747 
Q 3713 922 3314 415 
Q 2916 -91 2278 -91 
Q 1894 -91 1617 61 
Q 1341 213 1159 525 
z
M 3116 1747 
Q 3116 2381 2855 2742 
Q 2594 3103 2138 3103 
Q 1681 3103 1420 2742 
Q 1159 2381 1159 1747 
Q 1159 1113 1420 752 
Q 1681 391 2138 391 
Q 2594 391 2855 752 
Q 3116 1113 3116 1747 
z
" transform="scale(0.015625)"/>
       <path id="DejaVuSans-75" d="M 544 1381 
L 544 3500 
L 1119 3500 
L 1119 1403 
Q 1119 906 1312 657 
Q 1506 409 1894 409 
Q 2359 409 2629 706 
Q 2900 1003 2900 1516 
L 2900 3500 
L 3475 3500 
L 3475 0 
L 2900 0 
L 2900 538 
Q 2691 219 2414 64 
Q 2138 -91 1772 -91 
Q 1169 -91 856 284 
Q 544 659 544 1381 
z
M 1991 3584 
L 1991 3584 
z
" transform="scale(0.015625)"/>
       <path id="DejaVuSans-6c" d="M 603 4863 
L 1178 4863 
L 1178 0 
L 603 0 
L 603 4863 
z
" transform="scale(0.015625)"/>
       <path id="DejaVuSans-6e" d="M 3513 2113 
L 3513 0 
L 2938 0 
L 2938 2094 
Q 2938 2591 2744 2837 
Q 2550 3084 2163 3084 
Q 1697 3084 1428 2787 
Q 1159 2491 1159 1978 
L 1159 0 
L 581 0 
L 581 3500 
L 1159 3500 
L 1159 2956 
Q 1366 3272 1645 3428 
Q 1925 3584 2291 3584 
Q 2894 3584 3203 3211 
Q 3513 2838 3513 2113 
z
" transform="scale(0.015625)"/>
      </defs>
      <use xlink:href="#DejaVuSans-52"/>
      <use xlink:href="#DejaVuSans-61" x="67.232422"/>
      <use xlink:href="#DejaVuSans-62" x="128.511719"/>
      <use xlink:href="#DejaVuSans-62" x="191.988281"/>
      <use xlink:href="#DejaVuSans-69" x="255.464844"/>
      <use xlink:href="#DejaVuSans-74" x="283.248047"/>
      <use xlink:href="#DejaVuSans-20" x="322.457031"/>
      <use xlink:href="#DejaVuSans-70" x="354.244141"/>
      <use xlink:href="#DejaVuSans-6f" x="417.720703"/>
      <use xlink:href="#DejaVuSans-70" x="478.902344"/>
      <use xlink:href="#DejaVuSans-75" x="542.378906"/>
      <use xlink:href="#DejaVuSans-6c" x="605.757812"/>
      <use xlink:href="#DejaVuSans-61" x="633.541016"/>
      <use xlink:href="#DejaVuSans-74" x="694.820312"/>
      <use xlink:href="#DejaVuSans-69" x="734.029297"/>
      <use xlink:href="#DejaVuSans-6f" x="761.8125"/>
      <use xlink:href="#DejaVuSans-6e" x="822.994141"/>
     </g>
    </g>
   </g>
   <g id="matplotlib.axis_4">
    <g id="ytick_10">
     <g id="line2d_29">
      <g>
       <use xlink:href="#mfd3dd7ae11" x="466.890625" y="381.725157" style="stroke: #000000; stroke-width: 0.8"/>
      </g>
     </g>
     <g id="text_29">
      <!-- 0.75 -->
      <g transform="translate(437.625 385.524376)scale(0.1 -0.1)">
       <defs>
        <path id="DejaVuSans-37" d="M 525 4666 
L 3525 4666 
L 3525 4397 
L 1831 0 
L 1172 0 
L 2766 4134 
L 525 4134 
L 525 4666 
z
" transform="scale(0.015625)"/>
       </defs>
       <use xlink:href="#DejaVuSans-30"/>
       <use xlink:href="#DejaVuSans-2e" x="63.623047"/>
       <use xlink:href="#DejaVuSans-37" x="95.410156"/>
       <use xlink:href="#DejaVuSans-35" x="159.033203"/>
      </g>
     </g>
    </g>
    <g id="ytick_11">
     <g id="line2d_30">
      <g>
       <use xlink:href="#mfd3dd7ae11" x="466.890625" y="330.543132" style="stroke: #000000; stroke-width: 0.8"/>
      </g>
     </g>
     <g id="text_30">
      <!-- 1.00 -->
      <g transform="translate(437.625 334.34235)scale(0.1 -0.1)">
       <use xlink:href="#DejaVuSans-31"/>
       <use xlink:href="#DejaVuSans-2e" x="63.623047"/>
       <use xlink:href="#DejaVuSans-30" x="95.410156"/>
       <use xlink:href="#DejaVuSans-30" x="159.033203"/>
      </g>
     </g>
    </g>
    <g id="ytick_12">
     <g id="line2d_31">
      <g>
       <use xlink:href="#mfd3dd7ae11" x="466.890625" y="279.361106" style="stroke: #000000; stroke-width: 0.8"/>
      </g>
     </g>
     <g id="text_31">
      <!-- 1.25 -->
      <g transform="translate(437.625 283.160325)scale(0.1 -0.1)">
       <use xlink:href="#DejaVuSans-31"/>
       <use xlink:href="#DejaVuSans-2e" x="63.623047"/>
       <use xlink:href="#DejaVuSans-32" x="95.410156"/>
       <use xlink:href="#DejaVuSans-35" x="159.033203"/>
      </g>
     </g>
    </g>
    <g id="ytick_13">
     <g id="line2d_32">
      <g>
       <use xlink:href="#mfd3dd7ae11" x="466.890625" y="228.17908" style="stroke: #000000; stroke-width: 0.8"/>
      </g>
     </g>
     <g id="text_32">
      <!-- 1.50 -->
      <g transform="translate(437.625 231.978299)scale(0.1 -0.1)">
       <use xlink:href="#DejaVuSans-31"/>
       <use xlink:href="#DejaVuSans-2e" x="63.623047"/>
       <use xlink:href="#DejaVuSans-35" x="95.410156"/>
       <use xlink:href="#DejaVuSans-30" x="159.033203"/>
      </g>
     </g>
    </g>
    <g id="ytick_14">
     <g id="line2d_33">
      <g>
       <use xlink:href="#mfd3dd7ae11" x="466.890625" y="176.997055" style="stroke: #000000; stroke-width: 0.8"/>
      </g>
     </g>
     <g id="text_33">
      <!-- 1.75 -->
      <g transform="translate(437.625 180.796273)scale(0.1 -0.1)">
       <use xlink:href="#DejaVuSans-31"/>
       <use xlink:href="#DejaVuSans-2e" x="63.623047"/>
       <use xlink:href="#DejaVuSans-37" x="95.410156"/>
       <use xlink:href="#DejaVuSans-35" x="159.033203"/>
      </g>
     </g>
    </g>
    <g id="ytick_15">
     <g id="line2d_34">
      <g>
       <use xlink:href="#mfd3dd7ae11" x="466.890625" y="125.815029" style="stroke: #000000; stroke-width: 0.8"/>
      </g>
     </g>
     <g id="text_34">
      <!-- 2.00 -->
      <g transform="translate(437.625 129.614248)scale(0.1 -0.1)">
       <use xlink:href="#DejaVuSans-32"/>
       <use xlink:href="#DejaVuSans-2e" x="63.623047"/>
       <use xlink:href="#DejaVuSans-30" x="95.410156"/>
       <use xlink:href="#DejaVuSans-30" x="159.033203"/>
      </g>
     </g>
    </g>
    <g id="ytick_16">
     <g id="line2d_35">
      <g>
       <use xlink:href="#mfd3dd7ae11" x="466.890625" y="74.633003" style="stroke: #000000; stroke-width: 0.8"/>
      </g>
     </g>
     <g id="text_35">
      <!-- 2.25 -->
      <g transform="translate(437.625 78.432222)scale(0.1 -0.1)">
       <use xlink:href="#DejaVuSans-32"/>
       <use xlink:href="#DejaVuSans-2e" x="63.623047"/>
       <use xlink:href="#DejaVuSans-32" x="95.410156"/>
       <use xlink:href="#DejaVuSans-35" x="159.033203"/>
      </g>
     </g>
    </g>
    <g id="ytick_17">
     <g id="line2d_36">
      <g>
       <use xlink:href="#mfd3dd7ae11" x="466.890625" y="23.450978" style="stroke: #000000; stroke-width: 0.8"/>
      </g>
     </g>
     <g id="text_36">
      <!-- 2.50 -->
      <g transform="translate(437.625 27.250196)scale(0.1 -0.1)">
       <use xlink:href="#DejaVuSans-32"/>
       <use xlink:href="#DejaVuSans-2e" x="63.623047"/>
       <use xlink:href="#DejaVuSans-35" x="95.410156"/>
       <use xlink:href="#DejaVuSans-30" x="159.033203"/>
      </g>
     </g>
    </g>
    <g id="text_37">
     <!-- Foxes population -->
     <g transform="translate(431.545313 239.178125)rotate(-90)scale(0.1 -0.1)">
      <use xlink:href="#DejaVuSans-46"/>
      <use xlink:href="#DejaVuSans-6f" x="53.894531"/>
      <use xlink:href="#DejaVuSans-78" x="111.951172"/>
      <use xlink:href="#DejaVuSans-65" x="168.005859"/>
      <use xlink:href="#DejaVuSans-73" x="229.529297"/>
      <use xlink:href="#DejaVuSans-20" x="281.628906"/>
      <use xlink:href="#DejaVuSans-70" x="313.416016"/>
      <use xlink:href="#DejaVuSans-6f" x="376.892578"/>
      <use xlink:href="#DejaVuSans-70" x="438.074219"/>
      <use xlink:href="#DejaVuSans-75" x="501.550781"/>
      <use xlink:href="#DejaVuSans-6c" x="564.929688"/>
      <use xlink:href="#DejaVuSans-61" x="592.712891"/>
      <use xlink:href="#DejaVuSans-74" x="653.992188"/>
      <use xlink:href="#DejaVuSans-69" x="693.201172"/>
      <use xlink:href="#DejaVuSans-6f" x="720.984375"/>
      <use xlink:href="#DejaVuSans-6e" x="782.166016"/>
     </g>
    </g>
   </g>
   <g id="line2d_37">
    <path d="M 780.778155 125.815029 
L 773.529441 117.713718 
L 765.902029 109.811916 
L 757.941769 102.144352 
L 749.695986 94.74429 
L 741.221837 87.650429 
L 732.584519 80.904551 
L 723.82224 74.523907 
L 714.970844 68.523174 
L 706.065043 62.915504 
L 697.138418 57.712523 
L 688.223418 52.924331 
L 679.35136 48.559504 
L 670.55243 44.625091 
L 661.855683 41.126617 
L 653.28904 38.06808 
L 644.879294 35.451953 
L 636.652102 33.279185 
L 628.631994 31.549198 
L 620.842364 30.259887 
L 613.305478 29.407625 
L 606.042467 28.987258 
L 599.073334 28.992105 
L 592.416947 29.413961 
L 586.091046 30.243097 
L 580.109284 31.466603 
L 574.421273 33.036385 
L 568.997583 34.919571 
L 563.830228 37.096355 
L 558.91126 39.547553 
L 554.232766 42.254606 
L 549.786866 45.199577 
L 545.565721 48.36515 
L 541.561523 51.734637 
L 537.766502 55.291968 
L 534.172925 59.021699 
L 530.773093 62.909009 
L 527.559344 66.939698 
L 524.524051 71.100191 
L 521.659622 75.377536 
L 518.958504 79.759403 
L 516.413177 84.234086 
L 514.016157 88.790502 
L 511.759998 93.41819 
L 508.62367 100.47201 
L 505.764613 107.633447 
L 503.169613 114.874071 
L 500.819744 122.168718 
L 498.696157 129.494158 
L 496.781492 136.828916 
L 495.059877 144.153269 
L 493.040052 153.872093 
L 491.308065 163.502956 
L 489.838654 173.013675 
L 488.611265 182.377616 
L 487.610052 191.57369 
L 486.823876 200.586358 
L 486.246304 209.405625 
L 485.875612 218.027048 
L 485.714785 226.451727 
L 485.764936 234.679334 
L 486.000015 242.681148 
L 486.414013 250.449394 
L 487.005637 257.980576 
L 487.774781 265.271722 
L 488.722521 272.320376 
L 489.851115 279.124605 
L 491.164007 285.682994 
L 492.665824 291.994647 
L 494.362375 298.05919 
L 496.260655 303.876768 
L 498.36884 309.448046 
L 500.093316 313.465562 
L 501.945491 317.345882 
L 503.929431 321.089545 
L 506.040747 324.692843 
L 508.285211 328.155701 
L 510.672453 331.479422 
L 513.21185 334.664913 
L 515.912523 337.712685 
L 518.783338 340.622855 
L 521.832907 343.395143 
L 525.069589 346.028873 
L 528.501486 348.522974 
L 532.136446 350.875978 
L 535.982064 353.086023 
L 540.045678 355.150851 
L 544.334373 357.067807 
L 548.854978 358.833842 
L 553.61407 360.445509 
L 558.61797 361.898967 
L 563.872742 363.18998 
L 569.384199 364.313914 
L 575.157899 365.26574 
L 581.199142 366.040035 
L 587.512978 366.630979 
L 594.1042 367.032355 
L 600.977345 367.237553 
L 608.136699 367.239565 
L 615.58629 367.030988 
L 623.329894 366.604023 
L 631.370697 365.950435 
L 639.687982 365.057859 
L 648.270547 363.912489 
L 657.116701 362.501194 
L 666.21782 360.809936 
L 675.558346 358.823767 
L 685.115787 356.52683 
L 694.860717 353.902363 
L 704.756779 350.932693 
L 714.760679 347.59924 
L 721.465339 345.165249 
L 728.179154 342.554935 
L 734.884161 339.76212 
L 741.561027 336.780447 
L 748.189049 333.603378 
L 754.746155 330.224197 
L 761.208905 326.636009 
L 767.552486 322.831739 
L 773.750719 318.804131 
L 779.776052 314.545753 
L 785.599567 310.048991 
L 791.190973 305.306052 
L 796.538519 300.313768 
L 801.6505 295.076804 
L 806.469595 289.587731 
L 808.751515 286.746723 
L 810.939466 283.840672 
L 813.027164 280.86922 
L 815.008628 277.832161 
L 816.878181 274.729438 
L 818.630448 271.561145 
L 820.26036 268.327528 
L 821.763149 265.028982 
L 823.134351 261.666054 
L 824.369804 258.239442 
L 825.465653 254.749992 
L 826.418342 251.198705 
L 827.224621 247.586729 
L 827.881543 243.915364 
L 828.386464 240.186062 
L 828.737042 236.400424 
L 828.931241 232.560202 
L 828.967327 228.6673 
L 828.843868 224.723772 
L 828.559738 220.73182 
L 828.114112 216.693802 
L 827.506469 212.612223 
L 826.736592 208.48974 
L 825.804568 204.32916 
L 824.710785 200.133441 
L 823.455935 195.905692 
L 822.041016 191.649173 
L 820.467325 187.367294 
L 818.736466 183.063615 
L 816.850345 178.74185 
L 814.81117 174.40586 
L 812.621454 170.059658 
L 810.284013 165.707409 
L 807.801967 161.353426 
L 805.178738 157.002176 
L 802.418051 152.658275 
L 799.523936 148.326489 
L 796.500726 144.011735 
L 793.353055 139.719083 
L 786.704396 131.221109 
L 779.621111 122.876127 
L 772.151207 114.730108 
L 764.349309 106.831972 
L 756.309375 99.236336 
L 748.07298 91.963628 
L 739.657478 85.023501 
L 731.081723 78.425414 
L 722.366061 72.178631 
L 713.532338 66.292224 
L 704.603895 60.77507 
L 695.605569 55.635854 
L 686.563694 50.883064 
L 677.506099 46.524998 
L 668.462112 42.569758 
L 659.462555 39.025253 
L 650.539748 35.899198 
L 641.727505 33.199115 
L 633.061138 30.932331 
L 624.577456 29.10598 
L 616.314763 27.727003 
L 608.31286 26.802146 
L 600.613044 26.337962 
L 596.889734 26.280617 
L 593.258109 26.340809 
L 589.723754 26.519304 
L 586.292345 26.816854 
L 582.969652 27.234199 
L 579.761538 27.772068 
L 576.67396 28.431176 
L 573.71297 29.212229 
L 570.884711 30.115917 
L 565.514678 32.207693 
L 560.414176 34.593689 
L 555.571464 37.252888 
L 550.975423 40.165207 
L 546.61532 43.311353 
L 542.480815 46.672819 
L 538.561952 50.231887 
L 534.84917 53.971628 
L 531.333293 57.875898 
L 528.005535 61.929345 
L 524.8575 66.1174 
L 521.881182 70.426287 
L 519.068962 74.843015 
L 516.413611 79.35538 
L 513.90829 83.951969 
L 511.546548 88.622156 
L 508.259995 95.744123 
L 505.264134 102.97985 
L 502.542121 110.303444 
L 500.079081 117.693002 
L 497.86211 125.13061 
L 495.874247 132.593972 
L 494.089637 140.049837 
L 492.493768 147.481083 
L 490.637216 157.324868 
L 489.065323 167.064944 
L 487.753563 176.672212 
L 486.680766 186.121378 
L 485.829122 195.390952 
L 485.184177 204.463249 
L 484.734834 213.32439 
L 484.436752 224.088891 
L 484.404336 232.443889 
L 484.554649 240.5689 
L 484.890863 248.466214 
L 485.418667 256.140929 
L 486.127026 263.578217 
L 487.010817 270.769673 
L 488.072337 277.714554 
L 489.314987 284.412256 
L 490.743266 290.862316 
L 492.362778 297.064409 
L 494.180226 303.018351 
L 496.203416 308.724097 
L 498.441256 314.181742 
L 500.266478 318.112296 
L 502.222677 321.903573 
L 504.31483 325.555767 
L 506.548263 329.069118 
L 508.92865 332.443909 
L 511.462015 335.680467 
L 514.154193 338.778959 
L 516.982346 341.728264 
L 519.946901 344.525091 
L 523.068326 347.17334 
L 526.36572 349.676095 
L 529.856811 352.035622 
L 533.557958 354.25337 
L 537.484148 356.32997 
L 541.648999 358.265238 
L 546.064759 360.058172 
L 550.742305 361.706953 
L 555.691145 363.208945 
L 560.919414 364.560695 
L 566.43388 365.757933 
L 572.239938 366.795572 
L 578.341616 367.667708 
L 584.74157 368.36762 
L 591.441084 368.88777 
L 598.440074 369.219802 
L 605.737086 369.354545 
L 613.329295 369.28201 
L 621.212506 368.991391 
L 629.381152 368.471064 
L 637.8283 367.708589 
L 646.545642 366.69071 
L 655.523503 365.403352 
L 664.750837 363.831624 
L 674.215226 361.959817 
L 683.902885 359.771408 
L 693.798657 357.249053 
L 703.886013 354.374593 
L 717.76671 350.059307 
L 728.494353 346.46825 
L 735.709517 343.864776 
L 742.92297 341.071028 
L 750.09157 338.069488 
L 757.17378 334.844387 
L 764.129661 331.3817 
L 770.920878 327.669147 
L 777.510695 323.696195 
L 783.86398 319.454054 
L 789.947203 314.935681 
L 795.728433 310.13578 
L 798.496261 307.629078 
L 801.177344 305.050798 
L 803.768139 302.400769 
L 806.265207 299.678929 
L 808.665207 296.885324 
L 810.964899 294.020111 
L 813.161143 291.083554 
L 815.250897 288.076029 
L 817.231223 284.998017 
L 819.099279 281.850113 
L 820.852327 278.633016 
L 822.487726 275.347538 
L 824.002936 271.994598 
L 825.395518 268.575226 
L 826.663133 265.090558 
L 827.80354 261.541842 
L 828.814602 257.930434 
L 829.694277 254.257799 
L 830.440628 250.525511 
L 831.051815 246.735254 
L 831.526099 242.888819 
L 831.861842 238.988109 
L 832.057504 235.035134 
L 832.111648 231.032014 
L 832.022934 226.980977 
L 831.790124 222.884362 
L 831.412081 218.744615 
L 830.887764 214.564292 
L 830.216238 210.346059 
L 829.396663 206.09269 
L 828.428301 201.807068 
L 827.310515 197.492186 
L 826.042768 193.151144 
L 824.624621 188.787155 
L 823.055736 184.403536 
L 821.335878 180.003718 
L 819.464907 175.591238 
L 817.442787 171.169744 
L 815.269582 166.74299 
L 812.945453 162.314843 
L 810.470664 157.889276 
L 807.845578 153.470374 
L 805.070659 149.062328 
L 802.146469 144.66944 
L 799.073673 140.296121 
L 795.853034 135.94689 
L 792.486547 131.626253 
L 788.991993 127.337515 
L 785.38033 123.085547 
L 777.83196 114.712908 
L 769.893493 106.548639 
L 761.61616 98.630373 
L 753.05037 90.993077 
L 744.245712 83.669047 
L 735.250947 76.687917 
L 726.114017 70.076649 
L 716.88204 63.859538 
L 707.601312 58.058215 
L 698.317304 52.691639 
L 689.074667 47.776104 
L 679.917227 43.325236 
L 670.887987 39.349994 
L 662.026548 35.858042 
L 653.350995 32.847365 
L 644.88057 30.311478 
L 636.634119 28.242856 
L 628.627916 26.632684 
L 620.875662 25.470865 
L 613.388484 24.746012 
L 606.174935 24.445455 
L 599.240995 24.555233 
L 592.59007 25.060103 
L 586.222995 25.943533 
L 580.138029 27.187704 
L 574.330859 28.773513 
L 568.794598 30.680569 
L 563.519785 32.887195 
L 558.502409 35.375068 
L 553.745714 38.131519 
L 549.237673 41.136487 
L 544.966284 44.370466 
L 540.920054 47.814764 
L 537.087993 51.451504 
L 533.459619 55.263624 
L 530.024953 59.234879 
L 526.774525 63.349837 
L 523.699369 67.593883 
L 520.791025 71.953215 
L 518.041541 76.414849 
L 515.443467 80.966614 
L 512.989863 85.597156 
L 509.566397 92.667842 
L 506.434036 99.86012 
L 503.575756 107.145985 
L 500.97709 114.501559 
L 498.626134 121.907092 
L 496.513546 129.346959 
L 494.632453 136.809568 
L 492.957647 144.265342 
L 491.003725 154.14879 
L 489.344016 163.937305 
L 487.954168 173.6022 
L 486.812728 183.118082 
L 485.90114 192.462846 
L 485.203751 201.617679 
L 484.707806 210.567061 
L 484.403448 219.298761 
L 484.282102 229.893966 
L 484.387804 238.108213 
L 484.67309 246.087758 
L 485.140428 253.83436 
L 485.792942 261.350227 
L 486.622071 268.622348 
L 487.627809 275.647632 
L 488.813277 282.42566 
L 490.182689 288.956101 
L 491.74135 295.238707 
L 493.49566 301.273316 
L 495.453108 307.059852 
L 497.622279 312.598323 
L 499.393879 316.589437 
L 501.294478 320.441136 
L 503.328908 324.153519 
L 505.502344 327.72671 
L 507.820309 331.160861 
L 510.288672 334.456151 
L 512.913644 337.612786 
L 515.701786 340.630998 
L 518.65996 343.510551 
L 521.795263 346.249553 
L 525.115188 348.847009 
L 528.627436 351.301793 
L 532.339905 353.612524 
L 536.260687 355.777567 
L 540.398074 357.795031 
L 543.28085 359.056969 
L 543.28085 359.056969 
" clip-path="url(#p181709d7c3)" style="fill: none; stroke: #000000; stroke-width: 1.5; stroke-linecap: square"/>
   </g>
   <g id="patch_9">
    <path d="M 466.890625 386.6 
L 466.890625 7.2 
" style="fill: none; stroke: #000000; stroke-width: 0.8; stroke-linejoin: miter; stroke-linecap: square"/>
   </g>
   <g id="patch_10">
    <path d="M 849.503125 386.6 
L 849.503125 7.2 
" style="fill: none; stroke: #000000; stroke-width: 0.8; stroke-linejoin: miter; stroke-linecap: square"/>
   </g>
   <g id="patch_11">
    <path d="M 466.890625 386.6 
L 849.503125 386.6 
" style="fill: none; stroke: #000000; stroke-width: 0.8; stroke-linejoin: miter; stroke-linecap: square"/>
   </g>
   <g id="patch_12">
    <path d="M 466.890625 7.2 
L 849.503125 7.2 
" style="fill: none; stroke: #000000; stroke-width: 0.8; stroke-linejoin: miter; stroke-linecap: square"/>
   </g>
  </g>
 </g>
 <defs>
  <clipPath id="p50eabb3097">
   <rect x="30.103125" y="7.2" width="382.6125" height="379.4"/>
  </clipPath>
  <clipPath id="p181709d7c3">
   <rect x="466.890625" y="7.2" width="382.6125" height="379.4"/>
  </clipPath>
 </defs>
</svg>
