<?xml version="1.0" encoding="utf-8" standalone="no"?>
<!DOCTYPE svg PUBLIC "-//W3C//DTD SVG 1.1//EN"
  "http://www.w3.org/Graphics/SVG/1.1/DTD/svg11.dtd">
<svg xmlns:xlink="http://www.w3.org/1999/xlink" width="856.38125pt" height="424.15625pt" viewBox="0 0 856.38125 424.15625" xmlns="http://www.w3.org/2000/svg" version="1.1">
 <metadata>
  <rdf:RDF xmlns:dc="http://purl.org/dc/elements/1.1/" xmlns:cc="http://creativecommons.org/ns#" xmlns:rdf="http://www.w3.org/1999/02/22-rdf-syntax-ns#">
   <cc:Work>
    <dc:type rdf:resource="http://purl.org/dc/dcmitype/StillImage"/>
    <dc:date>2024-10-07T23:29:30.553204</dc:date>
    <dc:format>image/svg+xml</dc:format>
    <dc:creator>
     <cc:Agent>
      <dc:title>Matplotlib v3.5.2, https://matplotlib.org/</dc:title>
     </cc:Agent>
    </dc:creator>
   </cc:Work>
  </rdf:RDF>
 </metadata>
 <defs>
  <style type="text/css">*{stroke-linejoin: round; stroke-linecap: butt}</style>
 </defs>
 <g id="figure_1">
  <g id="patch_1">
   <path d="M 0 424.15625 
L 856.38125 424.15625 
L 856.38125 0 
L 0 0 
z
" style="fill: #ffffff"/>
  </g>
  <g id="axes_1">
   <g id="patch_2">
    <path d="M 43.78125 386.6 
L 419.39375 386.6 
L 419.39375 7.2 
L 43.78125 7.2 
z
" style="fill: #ffffff"/>
   </g>
   <g id="matplotlib.axis_1">
    <g id="xtick_1">
     <g id="line2d_1">
      <defs>
       <path id="ma9784f9eb5" d="M 0 0 
L 0 3.5 
" style="stroke: #000000; stroke-width: 0.8"/>
      </defs>
      <g>
       <use xlink:href="#ma9784f9eb5" x="60.854545" y="386.6" style="stroke: #000000; stroke-width: 0.8"/>
      </g>
     </g>
     <g id="text_1">
      <!-- 0 -->
      <g transform="translate(57.673295 401.198438)scale(0.1 -0.1)">
       <defs>
        <path id="DejaVuSans-30" d="M 2034 4250 
Q 1547 4250 1301 3770 
Q 1056 3291 1056 2328 
Q 1056 1369 1301 889 
Q 1547 409 2034 409 
Q 2525 409 2770 889 
Q 3016 1369 3016 2328 
Q 3016 3291 2770 3770 
Q 2525 4250 2034 4250 
z
M 2034 4750 
Q 2819 4750 3233 4129 
Q 3647 3509 3647 2328 
Q 3647 1150 3233 529 
Q 2819 -91 2034 -91 
Q 1250 -91 836 529 
Q 422 1150 422 2328 
Q 422 3509 836 4129 
Q 1250 4750 2034 4750 
z
" transform="scale(0.015625)"/>
       </defs>
       <use xlink:href="#DejaVuSans-30"/>
      </g>
     </g>
    </g>
    <g id="xtick_2">
     <g id="line2d_2">
      <g>
       <use xlink:href="#ma9784f9eb5" x="129.147727" y="386.6" style="stroke: #000000; stroke-width: 0.8"/>
      </g>
     </g>
     <g id="text_2">
      <!-- 2 -->
      <g transform="translate(125.966477 401.198438)scale(0.1 -0.1)">
       <defs>
        <path id="DejaVuSans-32" d="M 1228 531 
L 3431 531 
L 3431 0 
L 469 0 
L 469 531 
Q 828 903 1448 1529 
Q 2069 2156 2228 2338 
Q 2531 2678 2651 2914 
Q 2772 3150 2772 3378 
Q 2772 3750 2511 3984 
Q 2250 4219 1831 4219 
Q 1534 4219 1204 4116 
Q 875 4013 500 3803 
L 500 4441 
Q 881 4594 1212 4672 
Q 1544 4750 1819 4750 
Q 2544 4750 2975 4387 
Q 3406 4025 3406 3419 
Q 3406 3131 3298 2873 
Q 3191 2616 2906 2266 
Q 2828 2175 2409 1742 
Q 1991 1309 1228 531 
z
" transform="scale(0.015625)"/>
       </defs>
       <use xlink:href="#DejaVuSans-32"/>
      </g>
     </g>
    </g>
    <g id="xtick_3">
     <g id="line2d_3">
      <g>
       <use xlink:href="#ma9784f9eb5" x="197.440909" y="386.6" style="stroke: #000000; stroke-width: 0.8"/>
      </g>
     </g>
     <g id="text_3">
      <!-- 4 -->
      <g transform="translate(194.259659 401.198438)scale(0.1 -0.1)">
       <defs>
        <path id="DejaVuSans-34" d="M 2419 4116 
L 825 1625 
L 2419 1625 
L 2419 4116 
z
M 2253 4666 
L 3047 4666 
L 3047 1625 
L 3713 1625 
L 3713 1100 
L 3047 1100 
L 3047 0 
L 2419 0 
L 2419 1100 
L 313 1100 
L 313 1709 
L 2253 4666 
z
" transform="scale(0.015625)"/>
       </defs>
       <use xlink:href="#DejaVuSans-34"/>
      </g>
     </g>
    </g>
    <g id="xtick_4">
     <g id="line2d_4">
      <g>
       <use xlink:href="#ma9784f9eb5" x="265.734091" y="386.6" style="stroke: #000000; stroke-width: 0.8"/>
      </g>
     </g>
     <g id="text_4">
      <!-- 6 -->
      <g transform="translate(262.552841 401.198438)scale(0.1 -0.1)">
       <defs>
        <path id="DejaVuSans-36" d="M 2113 2584 
Q 1688 2584 1439 2293 
Q 1191 2003 1191 1497 
Q 1191 994 1439 701 
Q 1688 409 2113 409 
Q 2538 409 2786 701 
Q 3034 994 3034 1497 
Q 3034 2003 2786 2293 
Q 2538 2584 2113 2584 
z
M 3366 4563 
L 3366 3988 
Q 3128 4100 2886 4159 
Q 2644 4219 2406 4219 
Q 1781 4219 1451 3797 
Q 1122 3375 1075 2522 
Q 1259 2794 1537 2939 
Q 1816 3084 2150 3084 
Q 2853 3084 3261 2657 
Q 3669 2231 3669 1497 
Q 3669 778 3244 343 
Q 2819 -91 2113 -91 
Q 1303 -91 875 529 
Q 447 1150 447 2328 
Q 447 3434 972 4092 
Q 1497 4750 2381 4750 
Q 2619 4750 2861 4703 
Q 3103 4656 3366 4563 
z
" transform="scale(0.015625)"/>
       </defs>
       <use xlink:href="#DejaVuSans-36"/>
      </g>
     </g>
    </g>
    <g id="xtick_5">
     <g id="line2d_5">
      <g>
       <use xlink:href="#ma9784f9eb5" x="334.027273" y="386.6" style="stroke: #000000; stroke-width: 0.8"/>
      </g>
     </g>
     <g id="text_5">
      <!-- 8 -->
      <g transform="translate(330.846023 401.198438)scale(0.1 -0.1)">
       <defs>
        <path id="DejaVuSans-38" d="M 2034 2216 
Q 1584 2216 1326 1975 
Q 1069 1734 1069 1313 
Q 1069 891 1326 650 
Q 1584 409 2034 409 
Q 2484 409 2743 651 
Q 3003 894 3003 1313 
Q 3003 1734 2745 1975 
Q 2488 2216 2034 2216 
z
M 1403 2484 
Q 997 2584 770 2862 
Q 544 3141 544 3541 
Q 544 4100 942 4425 
Q 1341 4750 2034 4750 
Q 2731 4750 3128 4425 
Q 3525 4100 3525 3541 
Q 3525 3141 3298 2862 
Q 3072 2584 2669 2484 
Q 3125 2378 3379 2068 
Q 3634 1759 3634 1313 
Q 3634 634 3220 271 
Q 2806 -91 2034 -91 
Q 1263 -91 848 271 
Q 434 634 434 1313 
Q 434 1759 690 2068 
Q 947 2378 1403 2484 
z
M 1172 3481 
Q 1172 3119 1398 2916 
Q 1625 2713 2034 2713 
Q 2441 2713 2670 2916 
Q 2900 3119 2900 3481 
Q 2900 3844 2670 4047 
Q 2441 4250 2034 4250 
Q 1625 4250 1398 4047 
Q 1172 3844 1172 3481 
z
" transform="scale(0.015625)"/>
       </defs>
       <use xlink:href="#DejaVuSans-38"/>
      </g>
     </g>
    </g>
    <g id="xtick_6">
     <g id="line2d_6">
      <g>
       <use xlink:href="#ma9784f9eb5" x="402.320455" y="386.6" style="stroke: #000000; stroke-width: 0.8"/>
      </g>
     </g>
     <g id="text_6">
      <!-- 10 -->
      <g transform="translate(395.957955 401.198438)scale(0.1 -0.1)">
       <defs>
        <path id="DejaVuSans-31" d="M 794 531 
L 1825 531 
L 1825 4091 
L 703 3866 
L 703 4441 
L 1819 4666 
L 2450 4666 
L 2450 531 
L 3481 531 
L 3481 0 
L 794 0 
L 794 531 
z
" transform="scale(0.015625)"/>
       </defs>
       <use xlink:href="#DejaVuSans-31"/>
       <use xlink:href="#DejaVuSans-30" x="63.623047"/>
      </g>
     </g>
    </g>
    <g id="text_7">
     <!-- Time -->
     <g transform="translate(219.353906 414.876563)scale(0.1 -0.1)">
      <defs>
       <path id="DejaVuSans-54" d="M -19 4666 
L 3928 4666 
L 3928 4134 
L 2272 4134 
L 2272 0 
L 1638 0 
L 1638 4134 
L -19 4134 
L -19 4666 
z
" transform="scale(0.015625)"/>
       <path id="DejaVuSans-69" d="M 603 3500 
L 1178 3500 
L 1178 0 
L 603 0 
L 603 3500 
z
M 603 4863 
L 1178 4863 
L 1178 4134 
L 603 4134 
L 603 4863 
z
" transform="scale(0.015625)"/>
       <path id="DejaVuSans-6d" d="M 3328 2828 
Q 3544 3216 3844 3400 
Q 4144 3584 4550 3584 
Q 5097 3584 5394 3201 
Q 5691 2819 5691 2113 
L 5691 0 
L 5113 0 
L 5113 2094 
Q 5113 2597 4934 2840 
Q 4756 3084 4391 3084 
Q 3944 3084 3684 2787 
Q 3425 2491 3425 1978 
L 3425 0 
L 2847 0 
L 2847 2094 
Q 2847 2600 2669 2842 
Q 2491 3084 2119 3084 
Q 1678 3084 1418 2786 
Q 1159 2488 1159 1978 
L 1159 0 
L 581 0 
L 581 3500 
L 1159 3500 
L 1159 2956 
Q 1356 3278 1631 3431 
Q 1906 3584 2284 3584 
Q 2666 3584 2933 3390 
Q 3200 3197 3328 2828 
z
" transform="scale(0.015625)"/>
       <path id="DejaVuSans-65" d="M 3597 1894 
L 3597 1613 
L 953 1613 
Q 991 1019 1311 708 
Q 1631 397 2203 397 
Q 2534 397 2845 478 
Q 3156 559 3463 722 
L 3463 178 
Q 3153 47 2828 -22 
Q 2503 -91 2169 -91 
Q 1331 -91 842 396 
Q 353 884 353 1716 
Q 353 2575 817 3079 
Q 1281 3584 2069 3584 
Q 2775 3584 3186 3129 
Q 3597 2675 3597 1894 
z
M 3022 2063 
Q 3016 2534 2758 2815 
Q 2500 3097 2075 3097 
Q 1594 3097 1305 2825 
Q 1016 2553 972 2059 
L 3022 2063 
z
" transform="scale(0.015625)"/>
      </defs>
      <use xlink:href="#DejaVuSans-54"/>
      <use xlink:href="#DejaVuSans-69" x="57.958984"/>
      <use xlink:href="#DejaVuSans-6d" x="85.742188"/>
      <use xlink:href="#DejaVuSans-65" x="183.154297"/>
     </g>
    </g>
   </g>
   <g id="matplotlib.axis_2">
    <g id="ytick_1">
     <g id="line2d_7">
      <defs>
       <path id="medfc5f36c0" d="M 0 0 
L -3.5 0 
" style="stroke: #000000; stroke-width: 0.8"/>
      </defs>
      <g>
       <use xlink:href="#medfc5f36c0" x="43.78125" y="380.954955" style="stroke: #000000; stroke-width: 0.8"/>
      </g>
     </g>
     <g id="text_8">
      <!-- 0.5 -->
      <g transform="translate(20.878125 384.754173)scale(0.1 -0.1)">
       <defs>
        <path id="DejaVuSans-2e" d="M 684 794 
L 1344 794 
L 1344 0 
L 684 0 
L 684 794 
z
" transform="scale(0.015625)"/>
        <path id="DejaVuSans-35" d="M 691 4666 
L 3169 4666 
L 3169 4134 
L 1269 4134 
L 1269 2991 
Q 1406 3038 1543 3061 
Q 1681 3084 1819 3084 
Q 2600 3084 3056 2656 
Q 3513 2228 3513 1497 
Q 3513 744 3044 326 
Q 2575 -91 1722 -91 
Q 1428 -91 1123 -41 
Q 819 9 494 109 
L 494 744 
Q 775 591 1075 516 
Q 1375 441 1709 441 
Q 2250 441 2565 725 
Q 2881 1009 2881 1497 
Q 2881 1984 2565 2268 
Q 2250 2553 1709 2553 
Q 1456 2553 1204 2497 
Q 953 2441 691 2322 
L 691 4666 
z
" transform="scale(0.015625)"/>
       </defs>
       <use xlink:href="#DejaVuSans-30"/>
       <use xlink:href="#DejaVuSans-2e" x="63.623047"/>
       <use xlink:href="#DejaVuSans-35" x="95.410156"/>
      </g>
     </g>
    </g>
    <g id="ytick_2">
     <g id="line2d_8">
      <g>
       <use xlink:href="#medfc5f36c0" x="43.78125" y="337.29681" style="stroke: #000000; stroke-width: 0.8"/>
      </g>
     </g>
     <g id="text_9">
      <!-- 1.0 -->
      <g transform="translate(20.878125 341.096028)scale(0.1 -0.1)">
       <use xlink:href="#DejaVuSans-31"/>
       <use xlink:href="#DejaVuSans-2e" x="63.623047"/>
       <use xlink:href="#DejaVuSans-30" x="95.410156"/>
      </g>
     </g>
    </g>
    <g id="ytick_3">
     <g id="line2d_9">
      <g>
       <use xlink:href="#medfc5f36c0" x="43.78125" y="293.638665" style="stroke: #000000; stroke-width: 0.8"/>
      </g>
     </g>
     <g id="text_10">
      <!-- 1.5 -->
      <g transform="translate(20.878125 297.437883)scale(0.1 -0.1)">
       <use xlink:href="#DejaVuSans-31"/>
       <use xlink:href="#DejaVuSans-2e" x="63.623047"/>
       <use xlink:href="#DejaVuSans-35" x="95.410156"/>
      </g>
     </g>
    </g>
    <g id="ytick_4">
     <g id="line2d_10">
      <g>
       <use xlink:href="#medfc5f36c0" x="43.78125" y="249.98052" style="stroke: #000000; stroke-width: 0.8"/>
      </g>
     </g>
     <g id="text_11">
      <!-- 2.0 -->
      <g transform="translate(20.878125 253.779738)scale(0.1 -0.1)">
       <use xlink:href="#DejaVuSans-32"/>
       <use xlink:href="#DejaVuSans-2e" x="63.623047"/>
       <use xlink:href="#DejaVuSans-30" x="95.410156"/>
      </g>
     </g>
    </g>
    <g id="ytick_5">
     <g id="line2d_11">
      <g>
       <use xlink:href="#medfc5f36c0" x="43.78125" y="206.322375" style="stroke: #000000; stroke-width: 0.8"/>
      </g>
     </g>
     <g id="text_12">
      <!-- 2.5 -->
      <g transform="translate(20.878125 210.121594)scale(0.1 -0.1)">
       <use xlink:href="#DejaVuSans-32"/>
       <use xlink:href="#DejaVuSans-2e" x="63.623047"/>
       <use xlink:href="#DejaVuSans-35" x="95.410156"/>
      </g>
     </g>
    </g>
    <g id="ytick_6">
     <g id="line2d_12">
      <g>
       <use xlink:href="#medfc5f36c0" x="43.78125" y="162.66423" style="stroke: #000000; stroke-width: 0.8"/>
      </g>
     </g>
     <g id="text_13">
      <!-- 3.0 -->
      <g transform="translate(20.878125 166.463449)scale(0.1 -0.1)">
       <defs>
        <path id="DejaVuSans-33" d="M 2597 2516 
Q 3050 2419 3304 2112 
Q 3559 1806 3559 1356 
Q 3559 666 3084 287 
Q 2609 -91 1734 -91 
Q 1441 -91 1130 -33 
Q 819 25 488 141 
L 488 750 
Q 750 597 1062 519 
Q 1375 441 1716 441 
Q 2309 441 2620 675 
Q 2931 909 2931 1356 
Q 2931 1769 2642 2001 
Q 2353 2234 1838 2234 
L 1294 2234 
L 1294 2753 
L 1863 2753 
Q 2328 2753 2575 2939 
Q 2822 3125 2822 3475 
Q 2822 3834 2567 4026 
Q 2313 4219 1838 4219 
Q 1578 4219 1281 4162 
Q 984 4106 628 3988 
L 628 4550 
Q 988 4650 1302 4700 
Q 1616 4750 1894 4750 
Q 2613 4750 3031 4423 
Q 3450 4097 3450 3541 
Q 3450 3153 3228 2886 
Q 3006 2619 2597 2516 
z
" transform="scale(0.015625)"/>
       </defs>
       <use xlink:href="#DejaVuSans-33"/>
       <use xlink:href="#DejaVuSans-2e" x="63.623047"/>
       <use xlink:href="#DejaVuSans-30" x="95.410156"/>
      </g>
     </g>
    </g>
    <g id="ytick_7">
     <g id="line2d_13">
      <g>
       <use xlink:href="#medfc5f36c0" x="43.78125" y="119.006085" style="stroke: #000000; stroke-width: 0.8"/>
      </g>
     </g>
     <g id="text_14">
      <!-- 3.5 -->
      <g transform="translate(20.878125 122.805304)scale(0.1 -0.1)">
       <use xlink:href="#DejaVuSans-33"/>
       <use xlink:href="#DejaVuSans-2e" x="63.623047"/>
       <use xlink:href="#DejaVuSans-35" x="95.410156"/>
      </g>
     </g>
    </g>
    <g id="ytick_8">
     <g id="line2d_14">
      <g>
       <use xlink:href="#medfc5f36c0" x="43.78125" y="75.34794" style="stroke: #000000; stroke-width: 0.8"/>
      </g>
     </g>
     <g id="text_15">
      <!-- 4.0 -->
      <g transform="translate(20.878125 79.147159)scale(0.1 -0.1)">
       <use xlink:href="#DejaVuSans-34"/>
       <use xlink:href="#DejaVuSans-2e" x="63.623047"/>
       <use xlink:href="#DejaVuSans-30" x="95.410156"/>
      </g>
     </g>
    </g>
    <g id="ytick_9">
     <g id="line2d_15">
      <g>
       <use xlink:href="#medfc5f36c0" x="43.78125" y="31.689795" style="stroke: #000000; stroke-width: 0.8"/>
      </g>
     </g>
     <g id="text_16">
      <!-- 4.5 -->
      <g transform="translate(20.878125 35.489014)scale(0.1 -0.1)">
       <use xlink:href="#DejaVuSans-34"/>
       <use xlink:href="#DejaVuSans-2e" x="63.623047"/>
       <use xlink:href="#DejaVuSans-35" x="95.410156"/>
      </g>
     </g>
    </g>
    <g id="text_17">
     <!-- Number -->
     <g transform="translate(14.798438 216.985938)rotate(-90)scale(0.1 -0.1)">
      <defs>
       <path id="DejaVuSans-4e" d="M 628 4666 
L 1478 4666 
L 3547 763 
L 3547 4666 
L 4159 4666 
L 4159 0 
L 3309 0 
L 1241 3903 
L 1241 0 
L 628 0 
L 628 4666 
z
" transform="scale(0.015625)"/>
       <path id="DejaVuSans-75" d="M 544 1381 
L 544 3500 
L 1119 3500 
L 1119 1403 
Q 1119 906 1312 657 
Q 1506 409 1894 409 
Q 2359 409 2629 706 
Q 2900 1003 2900 1516 
L 2900 3500 
L 3475 3500 
L 3475 0 
L 2900 0 
L 2900 538 
Q 2691 219 2414 64 
Q 2138 -91 1772 -91 
Q 1169 -91 856 284 
Q 544 659 544 1381 
z
M 1991 3584 
L 1991 3584 
z
" transform="scale(0.015625)"/>
       <path id="DejaVuSans-62" d="M 3116 1747 
Q 3116 2381 2855 2742 
Q 2594 3103 2138 3103 
Q 1681 3103 1420 2742 
Q 1159 2381 1159 1747 
Q 1159 1113 1420 752 
Q 1681 391 2138 391 
Q 2594 391 2855 752 
Q 3116 1113 3116 1747 
z
M 1159 2969 
Q 1341 3281 1617 3432 
Q 1894 3584 2278 3584 
Q 2916 3584 3314 3078 
Q 3713 2572 3713 1747 
Q 3713 922 3314 415 
Q 2916 -91 2278 -91 
Q 1894 -91 1617 61 
Q 1341 213 1159 525 
L 1159 0 
L 581 0 
L 581 4863 
L 1159 4863 
L 1159 2969 
z
" transform="scale(0.015625)"/>
       <path id="DejaVuSans-72" d="M 2631 2963 
Q 2534 3019 2420 3045 
Q 2306 3072 2169 3072 
Q 1681 3072 1420 2755 
Q 1159 2438 1159 1844 
L 1159 0 
L 581 0 
L 581 3500 
L 1159 3500 
L 1159 2956 
Q 1341 3275 1631 3429 
Q 1922 3584 2338 3584 
Q 2397 3584 2469 3576 
Q 2541 3569 2628 3553 
L 2631 2963 
z
" transform="scale(0.015625)"/>
      </defs>
      <use xlink:href="#DejaVuSans-4e"/>
      <use xlink:href="#DejaVuSans-75" x="74.804688"/>
      <use xlink:href="#DejaVuSans-6d" x="138.183594"/>
      <use xlink:href="#DejaVuSans-62" x="235.595703"/>
      <use xlink:href="#DejaVuSans-65" x="299.072266"/>
      <use xlink:href="#DejaVuSans-72" x="360.595703"/>
     </g>
    </g>
   </g>
   <g id="line2d_16">
    <path d="M 60.854545 75.34794 
L 62.561875 94.007516 
L 64.952136 123.136931 
L 73.488784 230.108735 
L 75.53758 252.109439 
L 77.244909 268.400413 
L 78.952239 282.693546 
L 80.659568 295.35199 
L 82.366898 306.52 
L 84.074227 316.319212 
L 85.781557 324.869878 
L 87.488886 332.290856 
L 89.196216 338.699618 
L 90.903545 344.212247 
L 92.610875 348.938367 
L 94.318205 352.955757 
L 96.025534 356.349257 
L 97.732864 359.196283 
L 99.440193 361.562855 
L 101.147523 363.503595 
L 102.854852 365.061731 
L 104.562182 366.269093 
L 105.928045 366.99654 
L 107.293909 367.517999 
L 108.659773 367.834012 
L 110.025636 367.940454 
L 111.3915 367.842632 
L 113.09883 367.467865 
L 114.806159 366.817029 
L 116.513489 365.891192 
L 118.220818 364.688556 
L 119.928148 363.20446 
L 121.635477 361.431375 
L 123.342807 359.358909 
L 125.050136 356.973802 
L 126.757466 354.259933 
L 128.806261 350.542383 
L 130.855057 346.31011 
L 132.903852 341.524385 
L 134.952648 336.111172 
L 137.001443 330.000472 
L 139.050239 323.12632 
L 141.099034 315.426796 
L 143.14783 306.844013 
L 145.196625 297.324129 
L 147.24542 286.817338 
L 149.294216 275.277874 
L 151.684477 260.454539 
L 154.074739 244.10968 
L 156.465 226.191469 
L 159.196727 203.847785 
L 161.928455 179.6843 
L 165.343114 147.433952 
L 172.172432 82.316372 
L 174.221227 65.02255 
L 175.928557 52.22162 
L 177.29442 43.369701 
L 178.318818 37.813463 
L 179.343216 33.347376 
L 180.026148 31.035648 
L 180.70908 29.291448 
L 181.392011 28.139361 
L 182.074943 27.599157 
L 182.416409 27.563375 
L 182.757875 27.685797 
L 183.099341 27.967542 
L 183.782273 29.011967 
L 184.465205 30.699579 
L 185.148136 33.028492 
L 185.831068 35.992009 
L 186.855466 41.600674 
L 187.879864 48.551026 
L 189.245727 59.757379 
L 190.611591 72.932353 
L 192.31892 91.638846 
L 194.709182 120.356597 
L 198.123841 164.284669 
L 203.24583 230.237143 
L 205.294625 254.000344 
L 207.001955 271.495599 
L 208.367818 283.479072 
L 210.075148 296.293975 
L 211.782477 307.544691 
L 213.489807 317.396212 
L 215.197136 325.998225 
L 216.904466 333.485343 
L 218.611795 339.977106 
L 220.319125 345.577977 
L 222.026455 350.377344 
L 223.733784 354.449523 
L 225.441114 357.859731 
L 227.148443 360.704314 
L 228.855773 363.052791 
L 230.563102 364.959978 
L 232.270432 366.472564 
L 233.977761 367.629109 
L 235.685091 368.460045 
L 237.39242 368.987673 
L 238.758284 369.201194 
L 240.124148 369.233338 
L 241.490011 369.084287 
L 242.855875 368.750896 
L 244.221739 368.227523 
L 245.929068 367.322398 
L 247.636398 366.144653 
L 249.343727 364.689036 
L 251.051057 362.947631 
L 252.758386 360.909854 
L 254.465716 358.562455 
L 256.173045 355.889516 
L 258.221841 352.225923 
L 260.270636 348.029469 
L 262.319432 343.257444 
L 264.368227 337.87765 
L 266.417023 331.944199 
L 268.465818 325.338789 
L 270.514614 317.922594 
L 272.563409 309.578529 
L 274.612205 300.211248 
L 276.661 289.747145 
L 278.709795 278.134353 
L 280.758591 265.342744 
L 283.148852 248.919325 
L 285.539114 230.904957 
L 288.270841 208.453406 
L 291.002568 184.169753 
L 294.075761 154.948739 
L 296.807489 127.192755 
L 301.246545 81.828031 
L 303.295341 63.350183 
L 305.00267 50.074883 
L 306.368534 41.164638 
L 307.392932 35.61024 
L 308.41733 31.105194 
L 309.441727 27.714818 
L 310.124659 26.102444 
L 310.807591 25.026087 
L 311.490523 24.499144 
L 311.831989 24.445455 
L 312.173455 24.533423 
L 312.51492 24.764278 
L 313.197852 25.659062 
L 313.880784 27.137644 
L 314.563716 29.206275 
L 315.246648 31.869619 
L 316.271045 36.98601 
L 317.295443 43.450726 
L 318.319841 51.259401 
L 319.685705 63.737854 
L 321.393034 82.160146 
L 323.44183 107.181715 
L 326.856489 152.515782 
L 330.612614 201.705193 
L 333.002875 230.0965 
L 335.05167 251.957942 
L 337.100466 271.321269 
L 338.807795 285.551635 
L 340.515125 298.147372 
L 342.222455 309.179881 
L 343.929784 318.815596 
L 345.637114 327.218899 
L 347.344443 334.534576 
L 349.051773 340.887821 
L 350.759102 346.38423 
L 352.466432 351.109804 
L 354.173761 355.130949 
L 355.881091 358.494477 
L 357.58842 361.265001 
L 359.29575 363.547137 
L 361.00308 365.392641 
L 362.710409 366.845168 
L 364.076273 367.749101 
L 365.442136 368.440635 
L 366.808 368.932416 
L 368.173864 369.234218 
L 369.539727 369.352938 
L 370.905591 369.292597 
L 372.61292 368.966841 
L 374.32025 368.358806 
L 376.02758 367.467047 
L 377.734909 366.302823 
L 379.442239 364.861416 
L 381.149568 363.134931 
L 382.856898 361.112827 
L 384.564227 358.781919 
L 386.271557 356.126376 
L 388.320352 352.485009 
L 390.369148 348.312473 
L 392.417943 343.566333 
L 394.466739 338.198668 
L 396.515534 332.156353 
L 398.56433 325.381545 
L 400.613125 317.812385 
L 402.320455 310.851164 
L 402.320455 310.851164 
" clip-path="url(#p85bd30f63c)" style="fill: none; stroke: #1f77b4; stroke-width: 1.5; stroke-linecap: square"/>
   </g>
   <g id="line2d_17">
    <path d="M 60.854545 249.98052 
L 63.244807 238.291822 
L 64.952136 230.826255 
L 66.659466 224.3285 
L 68.02533 219.891446 
L 69.391193 216.169011 
L 70.757057 213.185247 
L 71.781455 211.440777 
L 72.805852 210.12161 
L 73.83025 209.226367 
L 74.513182 208.862878 
L 75.196114 208.683592 
L 75.879045 208.685659 
L 76.561977 208.86558 
L 77.244909 209.219205 
L 78.269307 210.058538 
L 79.293705 211.213716 
L 80.659568 213.187545 
L 82.025432 215.598126 
L 83.732761 219.134324 
L 85.781557 224.003444 
L 88.171818 230.337851 
L 91.245011 239.171753 
L 96.708466 255.720092 
L 102.513386 273.112369 
L 106.610977 284.699334 
L 110.367102 294.667803 
L 113.781761 303.136927 
L 116.854955 310.219924 
L 119.928148 316.778578 
L 123.001341 322.805698 
L 125.733068 327.715569 
L 128.464795 332.206907 
L 131.196523 336.278573 
L 133.92825 339.927845 
L 136.318511 342.778177 
L 138.708773 345.306431 
L 141.099034 347.505372 
L 143.14783 349.118932 
L 145.196625 350.471009 
L 147.24542 351.548269 
L 148.95275 352.224571 
L 150.66008 352.688233 
L 152.367409 352.927242 
L 154.074739 352.928282 
L 155.782068 352.676737 
L 157.489398 352.155908 
L 158.855261 351.5288 
L 160.221125 350.700019 
L 161.586989 349.655218 
L 162.952852 348.378826 
L 164.660182 346.43196 
L 166.367511 344.061411 
L 168.074841 341.228697 
L 169.78217 337.89235 
L 171.4895 334.00791 
L 173.19683 329.52793 
L 174.904159 324.404022 
L 176.611489 318.617694 
L 178.318818 312.141063 
L 180.367614 303.456507 
L 182.757875 292.16498 
L 185.489602 278.058703 
L 192.660386 240.247548 
L 194.709182 231.15746 
L 196.416511 224.594115 
L 198.123841 219.014832 
L 199.489705 215.298276 
L 200.855568 212.275644 
L 201.879966 210.479944 
L 202.904364 209.100027 
L 203.928761 208.146095 
L 204.611693 207.751644 
L 205.294625 207.55367 
L 205.977557 207.554885 
L 206.660489 207.757917 
L 207.34342 208.165315 
L 208.026352 208.779541 
L 209.05075 210.057103 
L 210.416614 212.208873 
L 211.782477 214.792801 
L 213.489807 218.532704 
L 215.538602 223.619651 
L 217.928864 230.165535 
L 221.343523 240.241343 
L 228.855773 263.419428 
L 233.636295 277.68792 
L 237.39242 288.233363 
L 240.80708 297.202493 
L 244.221739 305.56436 
L 247.294932 312.553868 
L 250.368125 319.01073 
L 253.441318 324.932611 
L 256.173045 329.746693 
L 258.904773 334.137853 
L 261.6365 338.107489 
L 264.368227 341.655281 
L 266.758489 344.389574 
L 269.14875 346.785318 
L 271.539011 348.851842 
L 273.587807 350.360635 
L 275.636602 351.620312 
L 277.685398 352.618626 
L 279.734193 353.337758 
L 281.441523 353.707056 
L 283.148852 353.849831 
L 284.856182 353.746896 
L 286.563511 353.376376 
L 287.929375 352.870883 
L 289.295239 352.164652 
L 290.661102 351.242765 
L 292.026966 350.089205 
L 293.39283 348.686853 
L 295.100159 346.565503 
L 296.807489 344.088854 
L 298.514818 341.158384 
L 299.880682 338.405885 
L 301.246545 335.237963 
L 302.953875 330.640251 
L 304.661205 325.294126 
L 306.368534 319.184641 
L 308.41733 310.867572 
L 310.466125 301.55285 
L 312.856386 289.614877 
L 316.271045 271.210013 
L 321.393034 243.492315 
L 323.44183 233.549637 
L 325.149159 226.208167 
L 326.856489 219.914262 
L 328.222352 215.722776 
L 329.588216 212.332788 
L 330.612614 210.329923 
L 331.637011 208.782549 
L 332.661409 207.679369 
L 333.685807 207.006309 
L 334.368739 206.788351 
L 335.05167 206.748446 
L 335.734602 206.880366 
L 336.417534 207.177336 
L 337.441932 207.916084 
L 338.46633 208.982547 
L 339.490727 210.34691 
L 340.856591 212.583608 
L 342.222455 215.244512 
L 343.929784 219.068589 
L 345.97858 224.237725 
L 348.710307 231.836274 
L 352.466432 243.061058 
L 364.759205 280.368569 
L 368.51533 290.76725 
L 371.929989 299.58756 
L 375.344648 307.786119 
L 378.417841 314.616543 
L 381.491034 320.912971 
L 384.564227 326.674151 
L 387.295955 331.345576 
L 390.027682 335.594214 
L 392.759409 339.421041 
L 395.14967 342.424656 
L 397.539932 345.103392 
L 399.930193 347.450616 
L 402.320455 349.457927 
L 402.320455 349.457927 
" clip-path="url(#p85bd30f63c)" style="fill: none; stroke: #ff7f0e; stroke-width: 1.5; stroke-linecap: square"/>
   </g>
   <g id="patch_3">
    <path d="M 43.78125 386.6 
L 43.78125 7.2 
" style="fill: none; stroke: #000000; stroke-width: 0.8; stroke-linejoin: miter; stroke-linecap: square"/>
   </g>
   <g id="patch_4">
    <path d="M 419.39375 386.6 
L 419.39375 7.2 
" style="fill: none; stroke: #000000; stroke-width: 0.8; stroke-linejoin: miter; stroke-linecap: square"/>
   </g>
   <g id="patch_5">
    <path d="M 43.78125 386.6 
L 419.39375 386.6 
" style="fill: none; stroke: #000000; stroke-width: 0.8; stroke-linejoin: miter; stroke-linecap: square"/>
   </g>
   <g id="patch_6">
    <path d="M 43.78125 7.2 
L 419.39375 7.2 
" style="fill: none; stroke: #000000; stroke-width: 0.8; stroke-linejoin: miter; stroke-linecap: square"/>
   </g>
   <g id="legend_1">
    <g id="patch_7">
     <path d="M 342.9375 44.55625 
L 412.39375 44.55625 
Q 414.39375 44.55625 414.39375 42.55625 
L 414.39375 14.2 
Q 414.39375 12.2 412.39375 12.2 
L 342.9375 12.2 
Q 340.9375 12.2 340.9375 14.2 
L 340.9375 42.55625 
Q 340.9375 44.55625 342.9375 44.55625 
z
" style="fill: #ffffff; opacity: 0.8; stroke: #cccccc; stroke-linejoin: miter"/>
    </g>
    <g id="line2d_18">
     <path d="M 344.9375 20.298438 
L 354.9375 20.298438 
L 364.9375 20.298438 
" style="fill: none; stroke: #1f77b4; stroke-width: 1.5; stroke-linecap: square"/>
    </g>
    <g id="text_18">
     <!-- Rabbits -->
     <g transform="translate(372.9375 23.798438)scale(0.1 -0.1)">
      <defs>
       <path id="DejaVuSans-52" d="M 2841 2188 
Q 3044 2119 3236 1894 
Q 3428 1669 3622 1275 
L 4263 0 
L 3584 0 
L 2988 1197 
Q 2756 1666 2539 1819 
Q 2322 1972 1947 1972 
L 1259 1972 
L 1259 0 
L 628 0 
L 628 4666 
L 2053 4666 
Q 2853 4666 3247 4331 
Q 3641 3997 3641 3322 
Q 3641 2881 3436 2590 
Q 3231 2300 2841 2188 
z
M 1259 4147 
L 1259 2491 
L 2053 2491 
Q 2509 2491 2742 2702 
Q 2975 2913 2975 3322 
Q 2975 3731 2742 3939 
Q 2509 4147 2053 4147 
L 1259 4147 
z
" transform="scale(0.015625)"/>
       <path id="DejaVuSans-61" d="M 2194 1759 
Q 1497 1759 1228 1600 
Q 959 1441 959 1056 
Q 959 750 1161 570 
Q 1363 391 1709 391 
Q 2188 391 2477 730 
Q 2766 1069 2766 1631 
L 2766 1759 
L 2194 1759 
z
M 3341 1997 
L 3341 0 
L 2766 0 
L 2766 531 
Q 2569 213 2275 61 
Q 1981 -91 1556 -91 
Q 1019 -91 701 211 
Q 384 513 384 1019 
Q 384 1609 779 1909 
Q 1175 2209 1959 2209 
L 2766 2209 
L 2766 2266 
Q 2766 2663 2505 2880 
Q 2244 3097 1772 3097 
Q 1472 3097 1187 3025 
Q 903 2953 641 2809 
L 641 3341 
Q 956 3463 1253 3523 
Q 1550 3584 1831 3584 
Q 2591 3584 2966 3190 
Q 3341 2797 3341 1997 
z
" transform="scale(0.015625)"/>
       <path id="DejaVuSans-74" d="M 1172 4494 
L 1172 3500 
L 2356 3500 
L 2356 3053 
L 1172 3053 
L 1172 1153 
Q 1172 725 1289 603 
Q 1406 481 1766 481 
L 2356 481 
L 2356 0 
L 1766 0 
Q 1100 0 847 248 
Q 594 497 594 1153 
L 594 3053 
L 172 3053 
L 172 3500 
L 594 3500 
L 594 4494 
L 1172 4494 
z
" transform="scale(0.015625)"/>
       <path id="DejaVuSans-73" d="M 2834 3397 
L 2834 2853 
Q 2591 2978 2328 3040 
Q 2066 3103 1784 3103 
Q 1356 3103 1142 2972 
Q 928 2841 928 2578 
Q 928 2378 1081 2264 
Q 1234 2150 1697 2047 
L 1894 2003 
Q 2506 1872 2764 1633 
Q 3022 1394 3022 966 
Q 3022 478 2636 193 
Q 2250 -91 1575 -91 
Q 1294 -91 989 -36 
Q 684 19 347 128 
L 347 722 
Q 666 556 975 473 
Q 1284 391 1588 391 
Q 1994 391 2212 530 
Q 2431 669 2431 922 
Q 2431 1156 2273 1281 
Q 2116 1406 1581 1522 
L 1381 1569 
Q 847 1681 609 1914 
Q 372 2147 372 2553 
Q 372 3047 722 3315 
Q 1072 3584 1716 3584 
Q 2034 3584 2315 3537 
Q 2597 3491 2834 3397 
z
" transform="scale(0.015625)"/>
      </defs>
      <use xlink:href="#DejaVuSans-52"/>
      <use xlink:href="#DejaVuSans-61" x="67.232422"/>
      <use xlink:href="#DejaVuSans-62" x="128.511719"/>
      <use xlink:href="#DejaVuSans-62" x="191.988281"/>
      <use xlink:href="#DejaVuSans-69" x="255.464844"/>
      <use xlink:href="#DejaVuSans-74" x="283.248047"/>
      <use xlink:href="#DejaVuSans-73" x="322.457031"/>
     </g>
    </g>
    <g id="line2d_19">
     <path d="M 344.9375 34.976563 
L 354.9375 34.976563 
L 364.9375 34.976563 
" style="fill: none; stroke: #ff7f0e; stroke-width: 1.5; stroke-linecap: square"/>
    </g>
    <g id="text_19">
     <!-- Foxes -->
     <g transform="translate(372.9375 38.476563)scale(0.1 -0.1)">
      <defs>
       <path id="DejaVuSans-46" d="M 628 4666 
L 3309 4666 
L 3309 4134 
L 1259 4134 
L 1259 2759 
L 3109 2759 
L 3109 2228 
L 1259 2228 
L 1259 0 
L 628 0 
L 628 4666 
z
" transform="scale(0.015625)"/>
       <path id="DejaVuSans-6f" d="M 1959 3097 
Q 1497 3097 1228 2736 
Q 959 2375 959 1747 
Q 959 1119 1226 758 
Q 1494 397 1959 397 
Q 2419 397 2687 759 
Q 2956 1122 2956 1747 
Q 2956 2369 2687 2733 
Q 2419 3097 1959 3097 
z
M 1959 3584 
Q 2709 3584 3137 3096 
Q 3566 2609 3566 1747 
Q 3566 888 3137 398 
Q 2709 -91 1959 -91 
Q 1206 -91 779 398 
Q 353 888 353 1747 
Q 353 2609 779 3096 
Q 1206 3584 1959 3584 
z
" transform="scale(0.015625)"/>
       <path id="DejaVuSans-78" d="M 3513 3500 
L 2247 1797 
L 3578 0 
L 2900 0 
L 1881 1375 
L 863 0 
L 184 0 
L 1544 1831 
L 300 3500 
L 978 3500 
L 1906 2253 
L 2834 3500 
L 3513 3500 
z
" transform="scale(0.015625)"/>
      </defs>
      <use xlink:href="#DejaVuSans-46"/>
      <use xlink:href="#DejaVuSans-6f" x="53.894531"/>
      <use xlink:href="#DejaVuSans-78" x="111.951172"/>
      <use xlink:href="#DejaVuSans-65" x="168.005859"/>
      <use xlink:href="#DejaVuSans-73" x="229.529297"/>
     </g>
    </g>
   </g>
  </g>
  <g id="axes_2">
   <g id="patch_8">
    <path d="M 473.56875 386.6 
L 849.18125 386.6 
L 849.18125 7.2 
L 473.56875 7.2 
z
" style="fill: #ffffff"/>
   </g>
   <g id="matplotlib.axis_3">
    <g id="xtick_7">
     <g id="line2d_20">
      <g>
       <use xlink:href="#ma9784f9eb5" x="479.157442" y="386.6" style="stroke: #000000; stroke-width: 0.8"/>
      </g>
     </g>
     <g id="text_20">
      <!-- 0.5 -->
      <g transform="translate(471.205879 401.198438)scale(0.1 -0.1)">
       <use xlink:href="#DejaVuSans-30"/>
       <use xlink:href="#DejaVuSans-2e" x="63.623047"/>
       <use xlink:href="#DejaVuSans-35" x="95.410156"/>
      </g>
     </g>
    </g>
    <g id="xtick_8">
     <g id="line2d_21">
      <g>
       <use xlink:href="#ma9784f9eb5" x="522.379753" y="386.6" style="stroke: #000000; stroke-width: 0.8"/>
      </g>
     </g>
     <g id="text_21">
      <!-- 1.0 -->
      <g transform="translate(514.428191 401.198438)scale(0.1 -0.1)">
       <use xlink:href="#DejaVuSans-31"/>
       <use xlink:href="#DejaVuSans-2e" x="63.623047"/>
       <use xlink:href="#DejaVuSans-30" x="95.410156"/>
      </g>
     </g>
    </g>
    <g id="xtick_9">
     <g id="line2d_22">
      <g>
       <use xlink:href="#ma9784f9eb5" x="565.602065" y="386.6" style="stroke: #000000; stroke-width: 0.8"/>
      </g>
     </g>
     <g id="text_22">
      <!-- 1.5 -->
      <g transform="translate(557.650502 401.198438)scale(0.1 -0.1)">
       <use xlink:href="#DejaVuSans-31"/>
       <use xlink:href="#DejaVuSans-2e" x="63.623047"/>
       <use xlink:href="#DejaVuSans-35" x="95.410156"/>
      </g>
     </g>
    </g>
    <g id="xtick_10">
     <g id="line2d_23">
      <g>
       <use xlink:href="#ma9784f9eb5" x="608.824376" y="386.6" style="stroke: #000000; stroke-width: 0.8"/>
      </g>
     </g>
     <g id="text_23">
      <!-- 2.0 -->
      <g transform="translate(600.872814 401.198438)scale(0.1 -0.1)">
       <use xlink:href="#DejaVuSans-32"/>
       <use xlink:href="#DejaVuSans-2e" x="63.623047"/>
       <use xlink:href="#DejaVuSans-30" x="95.410156"/>
      </g>
     </g>
    </g>
    <g id="xtick_11">
     <g id="line2d_24">
      <g>
       <use xlink:href="#ma9784f9eb5" x="652.046688" y="386.6" style="stroke: #000000; stroke-width: 0.8"/>
      </g>
     </g>
     <g id="text_24">
      <!-- 2.5 -->
      <g transform="translate(644.095125 401.198438)scale(0.1 -0.1)">
       <use xlink:href="#DejaVuSans-32"/>
       <use xlink:href="#DejaVuSans-2e" x="63.623047"/>
       <use xlink:href="#DejaVuSans-35" x="95.410156"/>
      </g>
     </g>
    </g>
    <g id="xtick_12">
     <g id="line2d_25">
      <g>
       <use xlink:href="#ma9784f9eb5" x="695.268999" y="386.6" style="stroke: #000000; stroke-width: 0.8"/>
      </g>
     </g>
     <g id="text_25">
      <!-- 3.0 -->
      <g transform="translate(687.317437 401.198438)scale(0.1 -0.1)">
       <use xlink:href="#DejaVuSans-33"/>
       <use xlink:href="#DejaVuSans-2e" x="63.623047"/>
       <use xlink:href="#DejaVuSans-30" x="95.410156"/>
      </g>
     </g>
    </g>
    <g id="xtick_13">
     <g id="line2d_26">
      <g>
       <use xlink:href="#ma9784f9eb5" x="738.491311" y="386.6" style="stroke: #000000; stroke-width: 0.8"/>
      </g>
     </g>
     <g id="text_26">
      <!-- 3.5 -->
      <g transform="translate(730.539748 401.198438)scale(0.1 -0.1)">
       <use xlink:href="#DejaVuSans-33"/>
       <use xlink:href="#DejaVuSans-2e" x="63.623047"/>
       <use xlink:href="#DejaVuSans-35" x="95.410156"/>
      </g>
     </g>
    </g>
    <g id="xtick_14">
     <g id="line2d_27">
      <g>
       <use xlink:href="#ma9784f9eb5" x="781.713622" y="386.6" style="stroke: #000000; stroke-width: 0.8"/>
      </g>
     </g>
     <g id="text_27">
      <!-- 4.0 -->
      <g transform="translate(773.762059 401.198438)scale(0.1 -0.1)">
       <use xlink:href="#DejaVuSans-34"/>
       <use xlink:href="#DejaVuSans-2e" x="63.623047"/>
       <use xlink:href="#DejaVuSans-30" x="95.410156"/>
      </g>
     </g>
    </g>
    <g id="xtick_15">
     <g id="line2d_28">
      <g>
       <use xlink:href="#ma9784f9eb5" x="824.935933" y="386.6" style="stroke: #000000; stroke-width: 0.8"/>
      </g>
     </g>
     <g id="text_28">
      <!-- 4.5 -->
      <g transform="translate(816.984371 401.198438)scale(0.1 -0.1)">
       <use xlink:href="#DejaVuSans-34"/>
       <use xlink:href="#DejaVuSans-2e" x="63.623047"/>
       <use xlink:href="#DejaVuSans-35" x="95.410156"/>
      </g>
     </g>
    </g>
    <g id="text_29">
     <!-- Rabbit population -->
     <g transform="translate(617.055469 414.876563)scale(0.1 -0.1)">
      <defs>
       <path id="DejaVuSans-20" transform="scale(0.015625)"/>
       <path id="DejaVuSans-70" d="M 1159 525 
L 1159 -1331 
L 581 -1331 
L 581 3500 
L 1159 3500 
L 1159 2969 
Q 1341 3281 1617 3432 
Q 1894 3584 2278 3584 
Q 2916 3584 3314 3078 
Q 3713 2572 3713 1747 
Q 3713 922 3314 415 
Q 2916 -91 2278 -91 
Q 1894 -91 1617 61 
Q 1341 213 1159 525 
z
M 3116 1747 
Q 3116 2381 2855 2742 
Q 2594 3103 2138 3103 
Q 1681 3103 1420 2742 
Q 1159 2381 1159 1747 
Q 1159 1113 1420 752 
Q 1681 391 2138 391 
Q 2594 391 2855 752 
Q 3116 1113 3116 1747 
z
" transform="scale(0.015625)"/>
       <path id="DejaVuSans-6c" d="M 603 4863 
L 1178 4863 
L 1178 0 
L 603 0 
L 603 4863 
z
" transform="scale(0.015625)"/>
       <path id="DejaVuSans-6e" d="M 3513 2113 
L 3513 0 
L 2938 0 
L 2938 2094 
Q 2938 2591 2744 2837 
Q 2550 3084 2163 3084 
Q 1697 3084 1428 2787 
Q 1159 2491 1159 1978 
L 1159 0 
L 581 0 
L 581 3500 
L 1159 3500 
L 1159 2956 
Q 1366 3272 1645 3428 
Q 1925 3584 2291 3584 
Q 2894 3584 3203 3211 
Q 3513 2838 3513 2113 
z
" transform="scale(0.015625)"/>
      </defs>
      <use xlink:href="#DejaVuSans-52"/>
      <use xlink:href="#DejaVuSans-61" x="67.232422"/>
      <use xlink:href="#DejaVuSans-62" x="128.511719"/>
      <use xlink:href="#DejaVuSans-62" x="191.988281"/>
      <use xlink:href="#DejaVuSans-69" x="255.464844"/>
      <use xlink:href="#DejaVuSans-74" x="283.248047"/>
      <use xlink:href="#DejaVuSans-20" x="322.457031"/>
      <use xlink:href="#DejaVuSans-70" x="354.244141"/>
      <use xlink:href="#DejaVuSans-6f" x="417.720703"/>
      <use xlink:href="#DejaVuSans-70" x="478.902344"/>
      <use xlink:href="#DejaVuSans-75" x="542.378906"/>
      <use xlink:href="#DejaVuSans-6c" x="605.757812"/>
      <use xlink:href="#DejaVuSans-61" x="633.541016"/>
      <use xlink:href="#DejaVuSans-74" x="694.820312"/>
      <use xlink:href="#DejaVuSans-69" x="734.029297"/>
      <use xlink:href="#DejaVuSans-6f" x="761.8125"/>
      <use xlink:href="#DejaVuSans-6e" x="822.994141"/>
     </g>
    </g>
   </g>
   <g id="matplotlib.axis_4">
    <g id="ytick_10">
     <g id="line2d_29">
      <g>
       <use xlink:href="#medfc5f36c0" x="473.56875" y="381.725157" style="stroke: #000000; stroke-width: 0.8"/>
      </g>
     </g>
     <g id="text_30">
      <!-- 0.75 -->
      <g transform="translate(444.303125 385.524376)scale(0.1 -0.1)">
       <defs>
        <path id="DejaVuSans-37" d="M 525 4666 
L 3525 4666 
L 3525 4397 
L 1831 0 
L 1172 0 
L 2766 4134 
L 525 4134 
L 525 4666 
z
" transform="scale(0.015625)"/>
       </defs>
       <use xlink:href="#DejaVuSans-30"/>
       <use xlink:href="#DejaVuSans-2e" x="63.623047"/>
       <use xlink:href="#DejaVuSans-37" x="95.410156"/>
       <use xlink:href="#DejaVuSans-35" x="159.033203"/>
      </g>
     </g>
    </g>
    <g id="ytick_11">
     <g id="line2d_30">
      <g>
       <use xlink:href="#medfc5f36c0" x="473.56875" y="330.543132" style="stroke: #000000; stroke-width: 0.8"/>
      </g>
     </g>
     <g id="text_31">
      <!-- 1.00 -->
      <g transform="translate(444.303125 334.34235)scale(0.1 -0.1)">
       <use xlink:href="#DejaVuSans-31"/>
       <use xlink:href="#DejaVuSans-2e" x="63.623047"/>
       <use xlink:href="#DejaVuSans-30" x="95.410156"/>
       <use xlink:href="#DejaVuSans-30" x="159.033203"/>
      </g>
     </g>
    </g>
    <g id="ytick_12">
     <g id="line2d_31">
      <g>
       <use xlink:href="#medfc5f36c0" x="473.56875" y="279.361106" style="stroke: #000000; stroke-width: 0.8"/>
      </g>
     </g>
     <g id="text_32">
      <!-- 1.25 -->
      <g transform="translate(444.303125 283.160325)scale(0.1 -0.1)">
       <use xlink:href="#DejaVuSans-31"/>
       <use xlink:href="#DejaVuSans-2e" x="63.623047"/>
       <use xlink:href="#DejaVuSans-32" x="95.410156"/>
       <use xlink:href="#DejaVuSans-35" x="159.033203"/>
      </g>
     </g>
    </g>
    <g id="ytick_13">
     <g id="line2d_32">
      <g>
       <use xlink:href="#medfc5f36c0" x="473.56875" y="228.17908" style="stroke: #000000; stroke-width: 0.8"/>
      </g>
     </g>
     <g id="text_33">
      <!-- 1.50 -->
      <g transform="translate(444.303125 231.978299)scale(0.1 -0.1)">
       <use xlink:href="#DejaVuSans-31"/>
       <use xlink:href="#DejaVuSans-2e" x="63.623047"/>
       <use xlink:href="#DejaVuSans-35" x="95.410156"/>
       <use xlink:href="#DejaVuSans-30" x="159.033203"/>
      </g>
     </g>
    </g>
    <g id="ytick_14">
     <g id="line2d_33">
      <g>
       <use xlink:href="#medfc5f36c0" x="473.56875" y="176.997055" style="stroke: #000000; stroke-width: 0.8"/>
      </g>
     </g>
     <g id="text_34">
      <!-- 1.75 -->
      <g transform="translate(444.303125 180.796273)scale(0.1 -0.1)">
       <use xlink:href="#DejaVuSans-31"/>
       <use xlink:href="#DejaVuSans-2e" x="63.623047"/>
       <use xlink:href="#DejaVuSans-37" x="95.410156"/>
       <use xlink:href="#DejaVuSans-35" x="159.033203"/>
      </g>
     </g>
    </g>
    <g id="ytick_15">
     <g id="line2d_34">
      <g>
       <use xlink:href="#medfc5f36c0" x="473.56875" y="125.815029" style="stroke: #000000; stroke-width: 0.8"/>
      </g>
     </g>
     <g id="text_35">
      <!-- 2.00 -->
      <g transform="translate(444.303125 129.614248)scale(0.1 -0.1)">
       <use xlink:href="#DejaVuSans-32"/>
       <use xlink:href="#DejaVuSans-2e" x="63.623047"/>
       <use xlink:href="#DejaVuSans-30" x="95.410156"/>
       <use xlink:href="#DejaVuSans-30" x="159.033203"/>
      </g>
     </g>
    </g>
    <g id="ytick_16">
     <g id="line2d_35">
      <g>
       <use xlink:href="#medfc5f36c0" x="473.56875" y="74.633003" style="stroke: #000000; stroke-width: 0.8"/>
      </g>
     </g>
     <g id="text_36">
      <!-- 2.25 -->
      <g transform="translate(444.303125 78.432222)scale(0.1 -0.1)">
       <use xlink:href="#DejaVuSans-32"/>
       <use xlink:href="#DejaVuSans-2e" x="63.623047"/>
       <use xlink:href="#DejaVuSans-32" x="95.410156"/>
       <use xlink:href="#DejaVuSans-35" x="159.033203"/>
      </g>
     </g>
    </g>
    <g id="ytick_17">
     <g id="line2d_36">
      <g>
       <use xlink:href="#medfc5f36c0" x="473.56875" y="23.450978" style="stroke: #000000; stroke-width: 0.8"/>
      </g>
     </g>
     <g id="text_37">
      <!-- 2.50 -->
      <g transform="translate(444.303125 27.250196)scale(0.1 -0.1)">
       <use xlink:href="#DejaVuSans-32"/>
       <use xlink:href="#DejaVuSans-2e" x="63.623047"/>
       <use xlink:href="#DejaVuSans-35" x="95.410156"/>
       <use xlink:href="#DejaVuSans-30" x="159.033203"/>
      </g>
     </g>
    </g>
    <g id="text_38">
     <!-- Foxes population -->
     <g transform="translate(438.223438 239.178125)rotate(-90)scale(0.1 -0.1)">
      <use xlink:href="#DejaVuSans-46"/>
      <use xlink:href="#DejaVuSans-6f" x="53.894531"/>
      <use xlink:href="#DejaVuSans-78" x="111.951172"/>
      <use xlink:href="#DejaVuSans-65" x="168.005859"/>
      <use xlink:href="#DejaVuSans-73" x="229.529297"/>
      <use xlink:href="#DejaVuSans-20" x="281.628906"/>
      <use xlink:href="#DejaVuSans-70" x="313.416016"/>
      <use xlink:href="#DejaVuSans-6f" x="376.892578"/>
      <use xlink:href="#DejaVuSans-70" x="438.074219"/>
      <use xlink:href="#DejaVuSans-75" x="501.550781"/>
      <use xlink:href="#DejaVuSans-6c" x="564.929688"/>
      <use xlink:href="#DejaVuSans-61" x="592.712891"/>
      <use xlink:href="#DejaVuSans-74" x="653.992188"/>
      <use xlink:href="#DejaVuSans-69" x="693.201172"/>
      <use xlink:href="#DejaVuSans-6f" x="720.984375"/>
      <use xlink:href="#DejaVuSans-6e" x="782.166016"/>
     </g>
    </g>
   </g>
   <g id="line2d_37">
    <path d="M 781.713622 125.815029 
L 774.597525 117.713718 
L 767.109659 109.811916 
L 759.295034 102.144352 
L 751.20011 94.74429 
L 742.880997 87.650429 
L 734.401702 80.904551 
L 725.799731 74.523907 
L 717.110274 68.523174 
L 708.367407 62.915504 
L 699.604097 57.712523 
L 690.852199 52.924331 
L 682.142458 48.559504 
L 673.504507 44.625091 
L 664.966869 41.126617 
L 656.556955 38.06808 
L 648.301067 35.451953 
L 640.224395 33.279185 
L 632.351016 31.549198 
L 624.7039 30.259887 
L 617.304903 29.407625 
L 610.174771 28.987258 
L 603.33314 28.992105 
L 596.798534 29.413961 
L 590.588366 30.243097 
L 584.716043 31.466603 
L 579.132095 33.036385 
L 573.807633 34.919571 
L 568.734817 37.096355 
L 563.905843 39.547553 
L 559.312942 42.254606 
L 554.948382 45.199577 
L 550.804463 48.36515 
L 546.873523 51.734637 
L 543.147934 55.291968 
L 539.620102 59.021699 
L 536.282471 62.909009 
L 533.127518 66.939698 
L 530.147756 71.100191 
L 527.335733 75.377536 
L 524.684033 79.759403 
L 522.185273 84.234086 
L 519.832108 88.790502 
L 517.617226 93.41819 
L 514.538278 100.47201 
L 511.731528 107.633447 
L 509.184004 114.874071 
L 506.877127 122.168718 
L 504.792391 129.494158 
L 502.912755 136.828916 
L 501.222638 144.153269 
L 499.239766 153.872093 
L 497.539466 163.502956 
L 496.096938 173.013675 
L 494.892005 182.377616 
L 493.90911 191.57369 
L 493.137316 200.586358 
L 492.570311 209.405625 
L 492.206402 218.027048 
L 492.048517 226.451727 
L 492.097751 234.679334 
L 492.328529 242.681148 
L 492.734952 250.449394 
L 493.315753 257.980576 
L 494.070825 265.271722 
L 495.001225 272.320376 
L 496.109172 279.124605 
L 497.398044 285.682994 
L 498.872385 291.994647 
L 500.537897 298.05919 
L 502.401447 303.876768 
L 504.471062 309.448046 
L 506.755933 314.774207 
L 508.617029 318.608977 
L 510.606887 322.306346 
L 512.722081 325.862661 
L 514.971166 329.279015 
L 517.363513 332.556578 
L 519.908243 335.696125 
L 522.614228 338.698037 
L 525.490088 341.562297 
L 528.544196 344.288493 
L 531.784671 346.875819 
L 535.219386 349.32307 
L 538.855963 351.628648 
L 542.701771 353.790558 
L 546.763934 355.806409 
L 551.049323 357.673417 
L 555.564559 359.388398 
L 560.316014 360.947775 
L 565.309811 362.347575 
L 570.551821 363.583429 
L 576.047665 364.650572 
L 581.802717 365.543844 
L 587.822098 366.257688 
L 594.11068 366.786153 
L 600.673086 367.12289 
L 607.513688 367.261157 
L 614.636608 367.193815 
L 622.045719 366.913328 
L 629.744643 366.411766 
L 637.732561 365.680224 
L 645.984252 364.704786 
L 654.496573 363.472279 
L 663.265595 361.969268 
L 672.280582 360.181412 
L 681.523992 358.09346 
L 690.971476 355.689254 
L 700.591878 352.951728 
L 710.347235 349.862906 
L 716.903954 347.59924 
L 723.485951 345.165249 
L 730.076934 342.554935 
L 736.659271 339.76212 
L 743.213982 336.780447 
L 749.720742 333.603378 
L 756.157885 330.224197 
L 762.502397 326.636009 
L 768.729921 322.831739 
L 774.814755 318.804131 
L 780.729853 314.545753 
L 786.446825 310.048991 
L 791.935935 305.306052 
L 797.185646 300.313768 
L 802.204101 295.076804 
L 806.93503 289.587731 
L 809.175202 286.746723 
L 811.323123 283.840672 
L 813.372626 280.86922 
L 815.317839 277.832161 
L 817.153188 274.729438 
L 818.873397 271.561145 
L 820.47349 268.327528 
L 821.948784 265.028982 
L 823.2949 261.666054 
L 824.50775 258.239442 
L 825.58355 254.749992 
L 826.51881 251.198705 
L 827.310338 247.586729 
L 827.955241 243.915364 
L 828.450924 240.186062 
L 828.795089 236.400424 
L 828.985735 232.560202 
L 829.02116 228.6673 
L 828.89996 224.723772 
L 828.621028 220.73182 
L 828.183554 216.693802 
L 827.587029 212.612223 
L 826.831237 208.48974 
L 825.916264 204.32916 
L 824.842492 200.133441 
L 823.610601 195.905692 
L 822.221568 191.649173 
L 820.676668 187.367294 
L 818.977476 183.063615 
L 817.125861 178.74185 
L 815.123993 174.40586 
L 812.974339 170.059658 
L 810.679663 165.707409 
L 808.243026 161.353426 
L 805.667789 157.002176 
L 802.95761 152.658275 
L 800.116444 148.326489 
L 797.148544 144.011735 
L 794.058461 139.719083 
L 787.531441 131.221109 
L 780.577747 122.876127 
L 773.244507 114.730108 
L 765.585346 106.831972 
L 757.692505 99.236336 
L 749.606797 91.963628 
L 741.345259 85.023501 
L 732.9264 78.425414 
L 724.370193 72.178631 
L 715.698086 66.292224 
L 706.932991 60.77507 
L 698.099292 55.635854 
L 689.22284 50.883064 
L 680.330957 46.524998 
L 671.452432 42.569758 
L 662.617524 39.025253 
L 653.857962 35.899198 
L 645.206941 33.199115 
L 636.699128 30.932331 
L 628.370657 29.10598 
L 620.259133 27.727003 
L 612.403627 26.802146 
L 604.844681 26.337962 
L 601.18949 26.280617 
L 597.624307 26.340809 
L 594.154614 26.519304 
L 590.785983 26.816854 
L 587.524079 27.234199 
L 584.374659 27.772068 
L 581.343569 28.431176 
L 578.436751 29.212229 
L 575.660236 30.115917 
L 570.388449 32.207693 
L 565.381262 34.593689 
L 560.627149 37.252888 
L 556.115193 40.165207 
L 551.83486 43.311353 
L 547.775996 46.672819 
L 543.928831 50.231887 
L 540.283975 53.971628 
L 536.832421 57.875898 
L 533.565546 61.929345 
L 530.475106 66.1174 
L 527.55324 70.426287 
L 524.79247 74.843015 
L 522.185699 79.35538 
L 519.726214 83.951969 
L 517.407681 88.622156 
L 514.181256 95.744123 
L 511.240205 102.97985 
L 508.567992 110.303444 
L 506.150014 117.693002 
L 503.973604 125.13061 
L 502.022108 132.593972 
L 500.270149 140.049837 
L 498.703477 147.481083 
L 496.880891 157.324868 
L 495.337756 167.064944 
L 494.049995 176.672212 
L 492.996825 186.121378 
L 492.160762 195.390952 
L 491.527617 204.463249 
L 491.005255 215.505417 
L 490.76914 226.199184 
L 490.813284 236.535089 
L 491.051501 244.545727 
L 491.475013 252.33124 
L 492.084087 259.89025 
L 492.865383 267.204724 
L 493.819894 274.272977 
L 494.950417 281.094335 
L 496.260828 287.668265 
L 497.756089 293.994373 
L 499.442239 300.072405 
L 501.3264 305.902246 
L 503.416776 311.483921 
L 505.125431 315.507412 
L 506.959599 319.391521 
L 508.923938 323.136413 
L 511.023448 326.742298 
L 513.263472 330.209429 
L 515.649695 333.538103 
L 518.188144 336.728664 
L 520.879506 339.779277 
L 523.698237 342.677272 
L 526.657721 345.42418 
L 529.777605 348.023629 
L 533.07619 350.47843 
L 536.57043 352.790577 
L 540.275937 354.961245 
L 544.206976 356.990796 
L 548.376467 358.878771 
L 552.795985 360.623896 
L 557.47576 362.224081 
L 562.424677 363.676416 
L 567.650275 364.977177 
L 573.15875 366.121821 
L 578.954949 367.104989 
L 585.042378 367.920504 
L 591.423195 368.561373 
L 598.098214 369.019785 
L 605.066905 369.287114 
L 612.327389 369.353915 
L 619.876447 369.209926 
L 627.70951 368.844069 
L 635.820667 368.244449 
L 644.202661 367.398353 
L 652.84689 366.292251 
L 661.743406 364.911798 
L 670.880917 363.24183 
L 680.246785 361.266365 
L 689.827027 358.968608 
L 699.606315 356.330943 
L 709.573905 353.338364 
L 719.854989 350.059307 
L 730.386366 346.46825 
L 737.469527 343.864776 
L 744.551008 341.071028 
L 751.588457 338.069488 
L 758.541096 334.844387 
L 765.369717 331.3817 
L 772.036686 327.669147 
L 778.505941 323.696195 
L 784.742991 319.454054 
L 790.71492 314.935681 
L 796.390381 310.13578 
L 801.739602 305.050798 
L 804.282998 302.400769 
L 806.734382 299.678929 
L 809.090473 296.885324 
L 811.348092 294.020111 
L 813.504154 291.083554 
L 815.555676 288.076029 
L 817.499771 284.998017 
L 819.333651 281.850113 
L 821.054626 278.633016 
L 822.660105 275.347538 
L 824.147594 271.994598 
L 825.514699 268.575226 
L 826.759122 265.090558 
L 827.878665 261.541842 
L 828.871229 257.930434 
L 829.73481 254.257799 
L 830.467506 250.525511 
L 831.067512 246.735254 
L 831.533119 242.888819 
L 831.862719 238.988109 
L 832.054802 235.035134 
L 832.107955 231.032014 
L 832.020864 226.980977 
L 831.792313 222.884362 
L 831.421186 218.744615 
L 830.906462 214.564292 
L 830.247222 210.346059 
L 829.442641 206.09269 
L 828.491996 201.807068 
L 827.39466 197.492186 
L 826.150106 193.151144 
L 824.757905 188.787155 
L 823.217723 184.403536 
L 821.52933 180.003718 
L 819.692589 175.591238 
L 817.707465 171.169744 
L 815.574019 166.74299 
L 813.29241 162.314843 
L 810.862898 157.889276 
L 808.285839 153.470374 
L 805.561688 149.062328 
L 802.690997 144.66944 
L 799.674419 140.296121 
L 796.512702 135.94689 
L 793.207806 131.626253 
L 789.777186 127.337515 
L 782.577509 118.875638 
L 774.969421 110.602313 
L 767.00362 102.556508 
L 758.729999 94.774523 
L 750.197639 87.289989 
L 741.454816 80.133872 
L 732.548999 73.334469 
L 723.526846 66.917409 
L 714.43421 60.905656 
L 705.316136 55.319502 
L 696.21686 50.176577 
L 687.179811 45.491839 
L 678.247609 41.277581 
L 669.462069 37.543427 
L 660.852276 34.292935 
L 652.433661 31.520513 
L 644.225988 29.21928 
L 636.246496 27.381064 
L 628.509897 25.996412 
L 621.028378 25.05458 
L 613.811599 24.543539 
L 606.866694 24.449974 
L 600.198271 24.759285 
L 593.808411 25.455581 
L 587.696669 26.52169 
L 581.860073 27.939148 
L 576.293126 29.68821 
L 570.987804 31.747841 
L 565.934663 34.096356 
L 561.138367 36.720978 
L 556.592253 39.604176 
L 552.284291 42.726038 
L 548.202948 46.067462 
L 544.337188 49.610164 
L 540.676471 53.336676 
L 537.210754 57.230344 
L 533.930491 61.275328 
L 530.826632 65.456606 
L 527.890625 69.759969 
L 525.114411 74.172024 
L 522.490433 78.680194 
L 520.011626 83.272716 
L 517.671424 87.938642 
L 514.407863 95.053225 
L 511.424231 102.279607 
L 508.704652 109.591158 
L 506.235764 116.965375 
L 504.006717 124.383885 
L 502.009177 131.832439 
L 500.234518 139.297882 
L 498.650833 146.743411 
L 496.807263 156.605995 
L 495.24628 166.366166 
L 493.944689 175.996061 
L 492.88214 185.471106 
L 492.041129 194.770023 
L 491.407001 203.87482 
L 490.887549 214.960757 
L 490.656295 225.699181 
L 490.703376 236.076651 
L 490.939251 244.114835 
L 491.352976 251.919328 
L 491.948588 259.493685 
L 492.719556 266.827441 
L 493.663303 273.914476 
L 494.782627 280.754353 
L 496.081394 287.346717 
L 497.564545 293.6913 
L 499.238095 299.787919 
L 501.109127 305.636476 
L 503.185802 311.236958 
L 505.477348 316.589437 
L 507.343176 320.441136 
L 509.340385 324.153519 
L 511.474057 327.72671 
L 513.749615 331.160861 
L 516.172818 334.456151 
L 518.749765 337.612786 
L 521.486898 340.630998 
L 524.390951 343.510551 
L 527.468893 346.249553 
L 530.728079 348.847009 
L 534.17607 351.301793 
L 537.820617 353.612524 
L 541.669668 355.777567 
L 545.73136 357.795031 
L 548.561395 359.056969 
L 548.561395 359.056969 
" clip-path="url(#p7ee0382264)" style="fill: none; stroke: #000000; stroke-width: 1.5; stroke-linecap: square"/>
   </g>
   <g id="patch_9">
    <path d="M 473.56875 386.6 
L 473.56875 7.2 
" style="fill: none; stroke: #000000; stroke-width: 0.8; stroke-linejoin: miter; stroke-linecap: square"/>
   </g>
   <g id="patch_10">
    <path d="M 849.18125 386.6 
L 849.18125 7.2 
" style="fill: none; stroke: #000000; stroke-width: 0.8; stroke-linejoin: miter; stroke-linecap: square"/>
   </g>
   <g id="patch_11">
    <path d="M 473.56875 386.6 
L 849.18125 386.6 
" style="fill: none; stroke: #000000; stroke-width: 0.8; stroke-linejoin: miter; stroke-linecap: square"/>
   </g>
   <g id="patch_12">
    <path d="M 473.56875 7.2 
L 849.18125 7.2 
" style="fill: none; stroke: #000000; stroke-width: 0.8; stroke-linejoin: miter; stroke-linecap: square"/>
   </g>
  </g>
 </g>
 <defs>
  <clipPath id="p85bd30f63c">
   <rect x="43.78125" y="7.2" width="375.6125" height="379.4"/>
  </clipPath>
  <clipPath id="p7ee0382264">
   <rect x="473.56875" y="7.2" width="375.6125" height="379.4"/>
  </clipPath>
 </defs>
</svg>
