<?xml version="1.0" encoding="utf-8" standalone="no"?>
<!DOCTYPE svg PUBLIC "-//W3C//DTD SVG 1.1//EN"
  "http://www.w3.org/Graphics/SVG/1.1/DTD/svg11.dtd">
<svg xmlns:xlink="http://www.w3.org/1999/xlink" width="856.453125pt" height="424.15625pt" viewBox="0 0 856.453125 424.15625" xmlns="http://www.w3.org/2000/svg" version="1.1">
 <metadata>
  <rdf:RDF xmlns:dc="http://purl.org/dc/elements/1.1/" xmlns:cc="http://creativecommons.org/ns#" xmlns:rdf="http://www.w3.org/1999/02/22-rdf-syntax-ns#">
   <cc:Work>
    <dc:type rdf:resource="http://purl.org/dc/dcmitype/StillImage"/>
    <dc:date>2024-10-07T23:29:31.325609</dc:date>
    <dc:format>image/svg+xml</dc:format>
    <dc:creator>
     <cc:Agent>
      <dc:title>Matplotlib v3.5.2, https://matplotlib.org/</dc:title>
     </cc:Agent>
    </dc:creator>
   </cc:Work>
  </rdf:RDF>
 </metadata>
 <defs>
  <style type="text/css">*{stroke-linejoin: round; stroke-linecap: butt}</style>
 </defs>
 <g id="figure_1">
  <g id="patch_1">
   <path d="M 0 424.15625 
L 856.453125 424.15625 
L 856.453125 0 
L 0 0 
z
" style="fill: #ffffff"/>
  </g>
  <g id="axes_1">
   <g id="patch_2">
    <path d="M 40.603125 386.6 
L 417.840625 386.6 
L 417.840625 7.2 
L 40.603125 7.2 
z
" style="fill: #ffffff"/>
   </g>
   <g id="matplotlib.axis_1">
    <g id="xtick_1">
     <g id="line2d_1">
      <defs>
       <path id="mc376a84457" d="M 0 0 
L 0 3.5 
" style="stroke: #000000; stroke-width: 0.8"/>
      </defs>
      <g>
       <use xlink:href="#mc376a84457" x="57.750284" y="386.6" style="stroke: #000000; stroke-width: 0.8"/>
      </g>
     </g>
     <g id="text_1">
      <!-- 0 -->
      <g transform="translate(54.569034 401.198438)scale(0.1 -0.1)">
       <defs>
        <path id="DejaVuSans-30" d="M 2034 4250 
Q 1547 4250 1301 3770 
Q 1056 3291 1056 2328 
Q 1056 1369 1301 889 
Q 1547 409 2034 409 
Q 2525 409 2770 889 
Q 3016 1369 3016 2328 
Q 3016 3291 2770 3770 
Q 2525 4250 2034 4250 
z
M 2034 4750 
Q 2819 4750 3233 4129 
Q 3647 3509 3647 2328 
Q 3647 1150 3233 529 
Q 2819 -91 2034 -91 
Q 1250 -91 836 529 
Q 422 1150 422 2328 
Q 422 3509 836 4129 
Q 1250 4750 2034 4750 
z
" transform="scale(0.015625)"/>
       </defs>
       <use xlink:href="#DejaVuSans-30"/>
      </g>
     </g>
    </g>
    <g id="xtick_2">
     <g id="line2d_2">
      <g>
       <use xlink:href="#mc376a84457" x="126.33892" y="386.6" style="stroke: #000000; stroke-width: 0.8"/>
      </g>
     </g>
     <g id="text_2">
      <!-- 2 -->
      <g transform="translate(123.15767 401.198438)scale(0.1 -0.1)">
       <defs>
        <path id="DejaVuSans-32" d="M 1228 531 
L 3431 531 
L 3431 0 
L 469 0 
L 469 531 
Q 828 903 1448 1529 
Q 2069 2156 2228 2338 
Q 2531 2678 2651 2914 
Q 2772 3150 2772 3378 
Q 2772 3750 2511 3984 
Q 2250 4219 1831 4219 
Q 1534 4219 1204 4116 
Q 875 4013 500 3803 
L 500 4441 
Q 881 4594 1212 4672 
Q 1544 4750 1819 4750 
Q 2544 4750 2975 4387 
Q 3406 4025 3406 3419 
Q 3406 3131 3298 2873 
Q 3191 2616 2906 2266 
Q 2828 2175 2409 1742 
Q 1991 1309 1228 531 
z
" transform="scale(0.015625)"/>
       </defs>
       <use xlink:href="#DejaVuSans-32"/>
      </g>
     </g>
    </g>
    <g id="xtick_3">
     <g id="line2d_3">
      <g>
       <use xlink:href="#mc376a84457" x="194.927557" y="386.6" style="stroke: #000000; stroke-width: 0.8"/>
      </g>
     </g>
     <g id="text_3">
      <!-- 4 -->
      <g transform="translate(191.746307 401.198438)scale(0.1 -0.1)">
       <defs>
        <path id="DejaVuSans-34" d="M 2419 4116 
L 825 1625 
L 2419 1625 
L 2419 4116 
z
M 2253 4666 
L 3047 4666 
L 3047 1625 
L 3713 1625 
L 3713 1100 
L 3047 1100 
L 3047 0 
L 2419 0 
L 2419 1100 
L 313 1100 
L 313 1709 
L 2253 4666 
z
" transform="scale(0.015625)"/>
       </defs>
       <use xlink:href="#DejaVuSans-34"/>
      </g>
     </g>
    </g>
    <g id="xtick_4">
     <g id="line2d_4">
      <g>
       <use xlink:href="#mc376a84457" x="263.516193" y="386.6" style="stroke: #000000; stroke-width: 0.8"/>
      </g>
     </g>
     <g id="text_4">
      <!-- 6 -->
      <g transform="translate(260.334943 401.198438)scale(0.1 -0.1)">
       <defs>
        <path id="DejaVuSans-36" d="M 2113 2584 
Q 1688 2584 1439 2293 
Q 1191 2003 1191 1497 
Q 1191 994 1439 701 
Q 1688 409 2113 409 
Q 2538 409 2786 701 
Q 3034 994 3034 1497 
Q 3034 2003 2786 2293 
Q 2538 2584 2113 2584 
z
M 3366 4563 
L 3366 3988 
Q 3128 4100 2886 4159 
Q 2644 4219 2406 4219 
Q 1781 4219 1451 3797 
Q 1122 3375 1075 2522 
Q 1259 2794 1537 2939 
Q 1816 3084 2150 3084 
Q 2853 3084 3261 2657 
Q 3669 2231 3669 1497 
Q 3669 778 3244 343 
Q 2819 -91 2113 -91 
Q 1303 -91 875 529 
Q 447 1150 447 2328 
Q 447 3434 972 4092 
Q 1497 4750 2381 4750 
Q 2619 4750 2861 4703 
Q 3103 4656 3366 4563 
z
" transform="scale(0.015625)"/>
       </defs>
       <use xlink:href="#DejaVuSans-36"/>
      </g>
     </g>
    </g>
    <g id="xtick_5">
     <g id="line2d_5">
      <g>
       <use xlink:href="#mc376a84457" x="332.10483" y="386.6" style="stroke: #000000; stroke-width: 0.8"/>
      </g>
     </g>
     <g id="text_5">
      <!-- 8 -->
      <g transform="translate(328.92358 401.198438)scale(0.1 -0.1)">
       <defs>
        <path id="DejaVuSans-38" d="M 2034 2216 
Q 1584 2216 1326 1975 
Q 1069 1734 1069 1313 
Q 1069 891 1326 650 
Q 1584 409 2034 409 
Q 2484 409 2743 651 
Q 3003 894 3003 1313 
Q 3003 1734 2745 1975 
Q 2488 2216 2034 2216 
z
M 1403 2484 
Q 997 2584 770 2862 
Q 544 3141 544 3541 
Q 544 4100 942 4425 
Q 1341 4750 2034 4750 
Q 2731 4750 3128 4425 
Q 3525 4100 3525 3541 
Q 3525 3141 3298 2862 
Q 3072 2584 2669 2484 
Q 3125 2378 3379 2068 
Q 3634 1759 3634 1313 
Q 3634 634 3220 271 
Q 2806 -91 2034 -91 
Q 1263 -91 848 271 
Q 434 634 434 1313 
Q 434 1759 690 2068 
Q 947 2378 1403 2484 
z
M 1172 3481 
Q 1172 3119 1398 2916 
Q 1625 2713 2034 2713 
Q 2441 2713 2670 2916 
Q 2900 3119 2900 3481 
Q 2900 3844 2670 4047 
Q 2441 4250 2034 4250 
Q 1625 4250 1398 4047 
Q 1172 3844 1172 3481 
z
" transform="scale(0.015625)"/>
       </defs>
       <use xlink:href="#DejaVuSans-38"/>
      </g>
     </g>
    </g>
    <g id="xtick_6">
     <g id="line2d_6">
      <g>
       <use xlink:href="#mc376a84457" x="400.693466" y="386.6" style="stroke: #000000; stroke-width: 0.8"/>
      </g>
     </g>
     <g id="text_6">
      <!-- 10 -->
      <g transform="translate(394.330966 401.198438)scale(0.1 -0.1)">
       <defs>
        <path id="DejaVuSans-31" d="M 794 531 
L 1825 531 
L 1825 4091 
L 703 3866 
L 703 4441 
L 1819 4666 
L 2450 4666 
L 2450 531 
L 3481 531 
L 3481 0 
L 794 0 
L 794 531 
z
" transform="scale(0.015625)"/>
       </defs>
       <use xlink:href="#DejaVuSans-31"/>
       <use xlink:href="#DejaVuSans-30" x="63.623047"/>
      </g>
     </g>
    </g>
    <g id="text_7">
     <!-- Time -->
     <g transform="translate(216.988281 414.876562)scale(0.1 -0.1)">
      <defs>
       <path id="DejaVuSans-54" d="M -19 4666 
L 3928 4666 
L 3928 4134 
L 2272 4134 
L 2272 0 
L 1638 0 
L 1638 4134 
L -19 4134 
L -19 4666 
z
" transform="scale(0.015625)"/>
       <path id="DejaVuSans-69" d="M 603 3500 
L 1178 3500 
L 1178 0 
L 603 0 
L 603 3500 
z
M 603 4863 
L 1178 4863 
L 1178 4134 
L 603 4134 
L 603 4863 
z
" transform="scale(0.015625)"/>
       <path id="DejaVuSans-6d" d="M 3328 2828 
Q 3544 3216 3844 3400 
Q 4144 3584 4550 3584 
Q 5097 3584 5394 3201 
Q 5691 2819 5691 2113 
L 5691 0 
L 5113 0 
L 5113 2094 
Q 5113 2597 4934 2840 
Q 4756 3084 4391 3084 
Q 3944 3084 3684 2787 
Q 3425 2491 3425 1978 
L 3425 0 
L 2847 0 
L 2847 2094 
Q 2847 2600 2669 2842 
Q 2491 3084 2119 3084 
Q 1678 3084 1418 2786 
Q 1159 2488 1159 1978 
L 1159 0 
L 581 0 
L 581 3500 
L 1159 3500 
L 1159 2956 
Q 1356 3278 1631 3431 
Q 1906 3584 2284 3584 
Q 2666 3584 2933 3390 
Q 3200 3197 3328 2828 
z
" transform="scale(0.015625)"/>
       <path id="DejaVuSans-65" d="M 3597 1894 
L 3597 1613 
L 953 1613 
Q 991 1019 1311 708 
Q 1631 397 2203 397 
Q 2534 397 2845 478 
Q 3156 559 3463 722 
L 3463 178 
Q 3153 47 2828 -22 
Q 2503 -91 2169 -91 
Q 1331 -91 842 396 
Q 353 884 353 1716 
Q 353 2575 817 3079 
Q 1281 3584 2069 3584 
Q 2775 3584 3186 3129 
Q 3597 2675 3597 1894 
z
M 3022 2063 
Q 3016 2534 2758 2815 
Q 2500 3097 2075 3097 
Q 1594 3097 1305 2825 
Q 1016 2553 972 2059 
L 3022 2063 
z
" transform="scale(0.015625)"/>
      </defs>
      <use xlink:href="#DejaVuSans-54"/>
      <use xlink:href="#DejaVuSans-69" x="57.958984"/>
      <use xlink:href="#DejaVuSans-6d" x="85.742188"/>
      <use xlink:href="#DejaVuSans-65" x="183.154297"/>
     </g>
    </g>
   </g>
   <g id="matplotlib.axis_2">
    <g id="ytick_1">
     <g id="line2d_7">
      <defs>
       <path id="m952127c2c1" d="M 0 0 
L -3.5 0 
" style="stroke: #000000; stroke-width: 0.8"/>
      </defs>
      <g>
       <use xlink:href="#m952127c2c1" x="40.603125" y="371.106549" style="stroke: #000000; stroke-width: 0.8"/>
      </g>
     </g>
     <g id="text_8">
      <!-- 0 -->
      <g transform="translate(27.240625 374.905768)scale(0.1 -0.1)">
       <use xlink:href="#DejaVuSans-30"/>
      </g>
     </g>
    </g>
    <g id="ytick_2">
     <g id="line2d_8">
      <g>
       <use xlink:href="#m952127c2c1" x="40.603125" y="305.79546" style="stroke: #000000; stroke-width: 0.8"/>
      </g>
     </g>
     <g id="text_9">
      <!-- 2 -->
      <g transform="translate(27.240625 309.594679)scale(0.1 -0.1)">
       <use xlink:href="#DejaVuSans-32"/>
      </g>
     </g>
    </g>
    <g id="ytick_3">
     <g id="line2d_9">
      <g>
       <use xlink:href="#m952127c2c1" x="40.603125" y="240.484372" style="stroke: #000000; stroke-width: 0.8"/>
      </g>
     </g>
     <g id="text_10">
      <!-- 4 -->
      <g transform="translate(27.240625 244.283591)scale(0.1 -0.1)">
       <use xlink:href="#DejaVuSans-34"/>
      </g>
     </g>
    </g>
    <g id="ytick_4">
     <g id="line2d_10">
      <g>
       <use xlink:href="#m952127c2c1" x="40.603125" y="175.173283" style="stroke: #000000; stroke-width: 0.8"/>
      </g>
     </g>
     <g id="text_11">
      <!-- 6 -->
      <g transform="translate(27.240625 178.972502)scale(0.1 -0.1)">
       <use xlink:href="#DejaVuSans-36"/>
      </g>
     </g>
    </g>
    <g id="ytick_5">
     <g id="line2d_11">
      <g>
       <use xlink:href="#m952127c2c1" x="40.603125" y="109.862195" style="stroke: #000000; stroke-width: 0.8"/>
      </g>
     </g>
     <g id="text_12">
      <!-- 8 -->
      <g transform="translate(27.240625 113.661414)scale(0.1 -0.1)">
       <use xlink:href="#DejaVuSans-38"/>
      </g>
     </g>
    </g>
    <g id="ytick_6">
     <g id="line2d_12">
      <g>
       <use xlink:href="#m952127c2c1" x="40.603125" y="44.551106" style="stroke: #000000; stroke-width: 0.8"/>
      </g>
     </g>
     <g id="text_13">
      <!-- 10 -->
      <g transform="translate(20.878125 48.350325)scale(0.1 -0.1)">
       <use xlink:href="#DejaVuSans-31"/>
       <use xlink:href="#DejaVuSans-30" x="63.623047"/>
      </g>
     </g>
    </g>
    <g id="text_14">
     <!-- Number -->
     <g transform="translate(14.798438 216.985938)rotate(-90)scale(0.1 -0.1)">
      <defs>
       <path id="DejaVuSans-4e" d="M 628 4666 
L 1478 4666 
L 3547 763 
L 3547 4666 
L 4159 4666 
L 4159 0 
L 3309 0 
L 1241 3903 
L 1241 0 
L 628 0 
L 628 4666 
z
" transform="scale(0.015625)"/>
       <path id="DejaVuSans-75" d="M 544 1381 
L 544 3500 
L 1119 3500 
L 1119 1403 
Q 1119 906 1312 657 
Q 1506 409 1894 409 
Q 2359 409 2629 706 
Q 2900 1003 2900 1516 
L 2900 3500 
L 3475 3500 
L 3475 0 
L 2900 0 
L 2900 538 
Q 2691 219 2414 64 
Q 2138 -91 1772 -91 
Q 1169 -91 856 284 
Q 544 659 544 1381 
z
M 1991 3584 
L 1991 3584 
z
" transform="scale(0.015625)"/>
       <path id="DejaVuSans-62" d="M 3116 1747 
Q 3116 2381 2855 2742 
Q 2594 3103 2138 3103 
Q 1681 3103 1420 2742 
Q 1159 2381 1159 1747 
Q 1159 1113 1420 752 
Q 1681 391 2138 391 
Q 2594 391 2855 752 
Q 3116 1113 3116 1747 
z
M 1159 2969 
Q 1341 3281 1617 3432 
Q 1894 3584 2278 3584 
Q 2916 3584 3314 3078 
Q 3713 2572 3713 1747 
Q 3713 922 3314 415 
Q 2916 -91 2278 -91 
Q 1894 -91 1617 61 
Q 1341 213 1159 525 
L 1159 0 
L 581 0 
L 581 4863 
L 1159 4863 
L 1159 2969 
z
" transform="scale(0.015625)"/>
       <path id="DejaVuSans-72" d="M 2631 2963 
Q 2534 3019 2420 3045 
Q 2306 3072 2169 3072 
Q 1681 3072 1420 2755 
Q 1159 2438 1159 1844 
L 1159 0 
L 581 0 
L 581 3500 
L 1159 3500 
L 1159 2956 
Q 1341 3275 1631 3429 
Q 1922 3584 2338 3584 
Q 2397 3584 2469 3576 
Q 2541 3569 2628 3553 
L 2631 2963 
z
" transform="scale(0.015625)"/>
      </defs>
      <use xlink:href="#DejaVuSans-4e"/>
      <use xlink:href="#DejaVuSans-75" x="74.804688"/>
      <use xlink:href="#DejaVuSans-6d" x="138.183594"/>
      <use xlink:href="#DejaVuSans-62" x="235.595703"/>
      <use xlink:href="#DejaVuSans-65" x="299.072266"/>
      <use xlink:href="#DejaVuSans-72" x="360.595703"/>
     </g>
    </g>
   </g>
   <g id="line2d_13">
    <path d="M 57.750284 240.484372 
L 59.122057 269.05713 
L 60.49383 292.120812 
L 61.522659 306.104163 
L 62.551489 317.611202 
L 63.580318 327.005207 
L 64.609148 334.640854 
L 65.637977 340.832329 
L 66.666807 345.848911 
L 67.695636 349.918634 
L 68.724466 353.230837 
L 69.753295 355.939388 
L 70.782125 358.163012 
L 71.810955 359.985297 
L 73.182727 361.91389 
L 74.5545 363.416995 
L 75.926273 364.598649 
L 77.640989 365.739818 
L 79.355705 366.600762 
L 81.413364 367.369823 
L 83.813966 368.012124 
L 86.557511 368.520457 
L 89.986943 368.93059 
L 94.445205 369.223071 
L 99.932295 369.351797 
L 106.105273 369.278211 
L 112.27825 368.981387 
L 117.422398 368.517107 
L 121.880659 367.900613 
L 125.653034 367.168208 
L 128.739523 366.363065 
L 131.483068 365.434974 
L 133.88367 364.411708 
L 136.284273 363.143696 
L 138.341932 361.822817 
L 140.399591 360.245098 
L 142.45725 358.344604 
L 144.171966 356.474395 
L 145.886682 354.300242 
L 147.601398 351.767712 
L 149.316114 348.809391 
L 151.03083 345.344885 
L 152.745545 341.280819 
L 154.460261 336.510836 
L 156.174977 330.915599 
L 157.889693 324.362792 
L 159.604409 316.707114 
L 161.319125 307.790288 
L 163.033841 297.487625 
L 164.748557 285.569935 
L 166.463273 271.693573 
L 168.177989 255.603994 
L 169.892705 237.138163 
L 171.60742 216.224552 
L 173.66508 187.931724 
L 175.722739 156.356166 
L 178.123341 115.941749 
L 180.866886 70.32401 
L 182.238659 50.863316 
L 183.267489 38.969379 
L 183.953375 32.714675 
L 184.639261 28.055128 
L 185.325148 25.219545 
L 185.668091 24.559627 
L 186.011034 24.445455 
L 186.353977 24.908082 
L 186.69692 25.979109 
L 187.039864 27.690679 
L 187.72575 33.166757 
L 188.411636 41.708515 
L 189.097523 53.90272 
L 190.126352 77.413248 
L 191.841068 123.939777 
L 194.24167 189.022296 
L 195.613443 220.810176 
L 196.985216 247.353783 
L 198.356989 269.385475 
L 200.757591 303.344767 
L 201.78642 315.178806 
L 202.81525 324.888118 
L 203.84408 332.805989 
L 204.872909 339.247098 
L 205.901739 344.482985 
L 206.930568 348.741171 
L 207.959398 352.209711 
L 208.988227 355.043455 
L 210.017057 357.36819 
L 211.38883 359.848336 
L 212.760602 361.776034 
L 214.132375 363.273249 
L 215.504148 364.452985 
L 217.218864 365.593311 
L 218.93358 366.460554 
L 220.991239 367.23722 
L 223.391841 367.886935 
L 226.135386 368.399221 
L 229.564818 368.815475 
L 234.02308 369.112957 
L 239.51017 369.236768 
L 245.683148 369.145746 
L 251.513182 368.841611 
L 256.65733 368.352998 
L 260.772648 367.741818 
L 264.545023 366.965064 
L 267.974455 366.038123 
L 270.718 365.084177 
L 273.118602 364.036155 
L 275.519205 362.72635 
L 277.576864 361.340647 
L 279.634523 359.656667 
L 281.349239 357.982795 
L 283.063955 356.022676 
L 284.77867 353.735192 
L 286.493386 351.076032 
L 288.208102 347.99711 
L 289.922818 344.425909 
L 291.637534 340.259459 
L 293.35225 335.381736 
L 295.066966 329.6639 
L 296.781682 322.964303 
L 298.496398 315.128481 
L 300.211114 305.989161 
L 301.92583 295.366254 
L 303.640545 283.066863 
L 305.355261 268.885275 
L 307.069977 252.602968 
L 308.784693 234.106949 
L 310.499409 213.173353 
L 312.214125 189.650957 
L 314.271784 158.352669 
L 318.387102 90.837861 
L 320.444761 59.431709 
L 321.473591 46.543464 
L 322.50242 36.670471 
L 323.188307 32.148835 
L 323.874193 29.526884 
L 324.217136 28.991715 
L 324.56008 29.006013 
L 324.903023 29.592996 
L 325.245966 30.775099 
L 325.588909 32.573975 
L 326.274795 38.104749 
L 326.960682 46.380678 
L 327.646568 57.31393 
L 328.675398 77.900578 
L 330.04717 111.211715 
L 332.790716 186.478213 
L 334.505432 230.389503 
L 335.877205 260.18643 
L 337.248977 284.773945 
L 338.277807 299.85546 
L 339.306636 312.296909 
L 340.335466 322.474664 
L 341.364295 330.83849 
L 342.393125 337.652812 
L 343.421955 343.205608 
L 344.450784 347.737032 
L 345.479614 351.430552 
L 346.508443 354.42001 
L 347.537273 356.859851 
L 348.566102 358.86414 
L 349.937875 361.00443 
L 351.309648 362.67469 
L 352.68142 363.983654 
L 354.053193 365.01936 
L 355.767909 366.024508 
L 357.825568 366.923381 
L 359.883227 367.579761 
L 362.626773 368.196212 
L 365.713261 368.652912 
L 369.82858 369.01827 
L 374.972727 369.222119 
L 380.802761 369.224859 
L 386.975739 369.00464 
L 392.46283 368.588418 
L 396.921091 368.043389 
L 400.693466 367.383084 
L 400.693466 367.383084 
" clip-path="url(#p7ba1cbd5e0)" style="fill: none; stroke: #1f77b4; stroke-width: 1.5; stroke-linecap: square"/>
   </g>
   <g id="line2d_14">
    <path d="M 57.750284 305.79546 
L 58.779114 304.152964 
L 59.465 303.394258 
L 60.150886 302.882445 
L 60.836773 302.594997 
L 61.522659 302.508457 
L 62.208545 302.599805 
L 63.237375 303.021246 
L 64.266205 303.72188 
L 65.637977 304.987346 
L 67.352693 306.939825 
L 69.753295 310.076227 
L 81.413364 325.906218 
L 84.842795 330.002306 
L 88.272227 333.765528 
L 91.701659 337.205898 
L 95.131091 340.341176 
L 98.560523 343.191802 
L 102.332898 346.02547 
L 106.105273 348.570423 
L 109.877648 350.85329 
L 113.992966 353.073788 
L 118.108284 355.040975 
L 122.566545 356.91618 
L 127.024807 358.552967 
L 131.826011 360.07636 
L 136.627216 361.374777 
L 141.771364 362.535802 
L 146.915511 363.472197 
L 152.059659 364.185563 
L 156.860864 364.622923 
L 160.976182 364.781985 
L 164.405614 364.70742 
L 167.492102 364.432429 
L 170.235648 363.960159 
L 172.293307 363.389097 
L 174.008023 362.70995 
L 175.722739 361.785931 
L 177.437455 360.566554 
L 178.809227 359.293546 
L 180.181 357.637291 
L 181.20983 356.085558 
L 182.581602 353.537128 
L 183.953375 350.376654 
L 185.325148 346.547488 
L 186.69692 342.007141 
L 188.068693 336.727287 
L 189.783409 329.079752 
L 192.184011 318.343874 
L 193.555784 313.205087 
L 194.584614 310.075856 
L 195.613443 307.625978 
L 196.642273 305.842511 
L 197.671102 304.652342 
L 198.699932 303.922194 
L 200.071705 303.3242 
L 200.757591 303.179299 
L 201.443477 303.214603 
L 202.472307 303.558038 
L 203.501136 304.189725 
L 204.872909 305.375772 
L 206.587625 307.249232 
L 208.988227 310.30256 
L 214.132375 317.393604 
L 218.590636 323.362016 
L 222.363011 328.040629 
L 225.792443 331.954547 
L 229.221875 335.543008 
L 232.651307 338.819622 
L 236.080739 341.803384 
L 239.51017 344.515178 
L 243.282545 347.209646 
L 247.05492 349.628632 
L 250.827295 351.797561 
L 254.942614 353.905938 
L 259.057932 355.771685 
L 263.516193 357.545689 
L 268.317398 359.202458 
L 273.118602 360.625111 
L 278.26275 361.91209 
L 283.406898 362.965108 
L 288.551045 363.782784 
L 293.35225 364.320354 
L 297.810511 364.612796 
L 301.582886 364.651509 
L 304.669375 364.478759 
L 307.41292 364.113476 
L 309.813523 363.557858 
L 311.871182 362.850672 
L 313.585898 362.038262 
L 314.95767 361.189027 
L 316.329443 360.107992 
L 317.701216 358.733497 
L 319.072989 356.999094 
L 320.444761 354.819643 
L 321.473591 352.808248 
L 322.845364 349.541982 
L 324.217136 345.558551 
L 325.588909 340.85267 
L 327.303625 334.020816 
L 331.761886 315.354629 
L 333.133659 310.809706 
L 334.162489 308.079156 
L 335.191318 305.988809 
L 336.220148 304.505136 
L 336.906034 303.83017 
L 337.59192 303.387625 
L 338.277807 303.159079 
L 338.963693 303.124141 
L 339.64958 303.260446 
L 340.678409 303.732217 
L 341.707239 304.460771 
L 343.079011 305.742757 
L 344.793727 307.695215 
L 347.19433 310.812202 
L 358.511455 326.021721 
L 361.940886 330.095498 
L 365.370318 333.842159 
L 368.79975 337.26855 
L 372.229182 340.392266 
L 375.658614 343.233728 
L 379.430989 346.058749 
L 383.203364 348.596156 
L 386.975739 350.872613 
L 391.091057 353.086846 
L 395.206375 355.048019 
L 399.664636 356.916823 
L 400.693466 357.31327 
L 400.693466 357.31327 
" clip-path="url(#p7ba1cbd5e0)" style="fill: none; stroke: #ff7f0e; stroke-width: 1.5; stroke-linecap: square"/>
   </g>
   <g id="patch_3">
    <path d="M 40.603125 386.6 
L 40.603125 7.2 
" style="fill: none; stroke: #000000; stroke-width: 0.8; stroke-linejoin: miter; stroke-linecap: square"/>
   </g>
   <g id="patch_4">
    <path d="M 417.840625 386.6 
L 417.840625 7.2 
" style="fill: none; stroke: #000000; stroke-width: 0.8; stroke-linejoin: miter; stroke-linecap: square"/>
   </g>
   <g id="patch_5">
    <path d="M 40.603125 386.6 
L 417.840625 386.6 
" style="fill: none; stroke: #000000; stroke-width: 0.8; stroke-linejoin: miter; stroke-linecap: square"/>
   </g>
   <g id="patch_6">
    <path d="M 40.603125 7.2 
L 417.840625 7.2 
" style="fill: none; stroke: #000000; stroke-width: 0.8; stroke-linejoin: miter; stroke-linecap: square"/>
   </g>
   <g id="legend_1">
    <g id="patch_7">
     <path d="M 341.384375 44.55625 
L 410.840625 44.55625 
Q 412.840625 44.55625 412.840625 42.55625 
L 412.840625 14.2 
Q 412.840625 12.2 410.840625 12.2 
L 341.384375 12.2 
Q 339.384375 12.2 339.384375 14.2 
L 339.384375 42.55625 
Q 339.384375 44.55625 341.384375 44.55625 
z
" style="fill: #ffffff; opacity: 0.8; stroke: #cccccc; stroke-linejoin: miter"/>
    </g>
    <g id="line2d_15">
     <path d="M 343.384375 20.298437 
L 353.384375 20.298437 
L 363.384375 20.298437 
" style="fill: none; stroke: #1f77b4; stroke-width: 1.5; stroke-linecap: square"/>
    </g>
    <g id="text_15">
     <!-- Rabbits -->
     <g transform="translate(371.384375 23.798437)scale(0.1 -0.1)">
      <defs>
       <path id="DejaVuSans-52" d="M 2841 2188 
Q 3044 2119 3236 1894 
Q 3428 1669 3622 1275 
L 4263 0 
L 3584 0 
L 2988 1197 
Q 2756 1666 2539 1819 
Q 2322 1972 1947 1972 
L 1259 1972 
L 1259 0 
L 628 0 
L 628 4666 
L 2053 4666 
Q 2853 4666 3247 4331 
Q 3641 3997 3641 3322 
Q 3641 2881 3436 2590 
Q 3231 2300 2841 2188 
z
M 1259 4147 
L 1259 2491 
L 2053 2491 
Q 2509 2491 2742 2702 
Q 2975 2913 2975 3322 
Q 2975 3731 2742 3939 
Q 2509 4147 2053 4147 
L 1259 4147 
z
" transform="scale(0.015625)"/>
       <path id="DejaVuSans-61" d="M 2194 1759 
Q 1497 1759 1228 1600 
Q 959 1441 959 1056 
Q 959 750 1161 570 
Q 1363 391 1709 391 
Q 2188 391 2477 730 
Q 2766 1069 2766 1631 
L 2766 1759 
L 2194 1759 
z
M 3341 1997 
L 3341 0 
L 2766 0 
L 2766 531 
Q 2569 213 2275 61 
Q 1981 -91 1556 -91 
Q 1019 -91 701 211 
Q 384 513 384 1019 
Q 384 1609 779 1909 
Q 1175 2209 1959 2209 
L 2766 2209 
L 2766 2266 
Q 2766 2663 2505 2880 
Q 2244 3097 1772 3097 
Q 1472 3097 1187 3025 
Q 903 2953 641 2809 
L 641 3341 
Q 956 3463 1253 3523 
Q 1550 3584 1831 3584 
Q 2591 3584 2966 3190 
Q 3341 2797 3341 1997 
z
" transform="scale(0.015625)"/>
       <path id="DejaVuSans-74" d="M 1172 4494 
L 1172 3500 
L 2356 3500 
L 2356 3053 
L 1172 3053 
L 1172 1153 
Q 1172 725 1289 603 
Q 1406 481 1766 481 
L 2356 481 
L 2356 0 
L 1766 0 
Q 1100 0 847 248 
Q 594 497 594 1153 
L 594 3053 
L 172 3053 
L 172 3500 
L 594 3500 
L 594 4494 
L 1172 4494 
z
" transform="scale(0.015625)"/>
       <path id="DejaVuSans-73" d="M 2834 3397 
L 2834 2853 
Q 2591 2978 2328 3040 
Q 2066 3103 1784 3103 
Q 1356 3103 1142 2972 
Q 928 2841 928 2578 
Q 928 2378 1081 2264 
Q 1234 2150 1697 2047 
L 1894 2003 
Q 2506 1872 2764 1633 
Q 3022 1394 3022 966 
Q 3022 478 2636 193 
Q 2250 -91 1575 -91 
Q 1294 -91 989 -36 
Q 684 19 347 128 
L 347 722 
Q 666 556 975 473 
Q 1284 391 1588 391 
Q 1994 391 2212 530 
Q 2431 669 2431 922 
Q 2431 1156 2273 1281 
Q 2116 1406 1581 1522 
L 1381 1569 
Q 847 1681 609 1914 
Q 372 2147 372 2553 
Q 372 3047 722 3315 
Q 1072 3584 1716 3584 
Q 2034 3584 2315 3537 
Q 2597 3491 2834 3397 
z
" transform="scale(0.015625)"/>
      </defs>
      <use xlink:href="#DejaVuSans-52"/>
      <use xlink:href="#DejaVuSans-61" x="67.232422"/>
      <use xlink:href="#DejaVuSans-62" x="128.511719"/>
      <use xlink:href="#DejaVuSans-62" x="191.988281"/>
      <use xlink:href="#DejaVuSans-69" x="255.464844"/>
      <use xlink:href="#DejaVuSans-74" x="283.248047"/>
      <use xlink:href="#DejaVuSans-73" x="322.457031"/>
     </g>
    </g>
    <g id="line2d_16">
     <path d="M 343.384375 34.976562 
L 353.384375 34.976562 
L 363.384375 34.976562 
" style="fill: none; stroke: #ff7f0e; stroke-width: 1.5; stroke-linecap: square"/>
    </g>
    <g id="text_16">
     <!-- Foxes -->
     <g transform="translate(371.384375 38.476562)scale(0.1 -0.1)">
      <defs>
       <path id="DejaVuSans-46" d="M 628 4666 
L 3309 4666 
L 3309 4134 
L 1259 4134 
L 1259 2759 
L 3109 2759 
L 3109 2228 
L 1259 2228 
L 1259 0 
L 628 0 
L 628 4666 
z
" transform="scale(0.015625)"/>
       <path id="DejaVuSans-6f" d="M 1959 3097 
Q 1497 3097 1228 2736 
Q 959 2375 959 1747 
Q 959 1119 1226 758 
Q 1494 397 1959 397 
Q 2419 397 2687 759 
Q 2956 1122 2956 1747 
Q 2956 2369 2687 2733 
Q 2419 3097 1959 3097 
z
M 1959 3584 
Q 2709 3584 3137 3096 
Q 3566 2609 3566 1747 
Q 3566 888 3137 398 
Q 2709 -91 1959 -91 
Q 1206 -91 779 398 
Q 353 888 353 1747 
Q 353 2609 779 3096 
Q 1206 3584 1959 3584 
z
" transform="scale(0.015625)"/>
       <path id="DejaVuSans-78" d="M 3513 3500 
L 2247 1797 
L 3578 0 
L 2900 0 
L 1881 1375 
L 863 0 
L 184 0 
L 1544 1831 
L 300 3500 
L 978 3500 
L 1906 2253 
L 2834 3500 
L 3513 3500 
z
" transform="scale(0.015625)"/>
      </defs>
      <use xlink:href="#DejaVuSans-46"/>
      <use xlink:href="#DejaVuSans-6f" x="53.894531"/>
      <use xlink:href="#DejaVuSans-78" x="111.951172"/>
      <use xlink:href="#DejaVuSans-65" x="168.005859"/>
      <use xlink:href="#DejaVuSans-73" x="229.529297"/>
     </g>
    </g>
   </g>
  </g>
  <g id="axes_2">
   <g id="patch_8">
    <path d="M 472.015625 386.6 
L 849.253125 386.6 
L 849.253125 7.2 
L 472.015625 7.2 
z
" style="fill: #ffffff"/>
   </g>
   <g id="matplotlib.axis_3">
    <g id="xtick_7">
     <g id="line2d_17">
      <g>
       <use xlink:href="#mc376a84457" x="487.420767" y="386.6" style="stroke: #000000; stroke-width: 0.8"/>
      </g>
     </g>
     <g id="text_17">
      <!-- 0 -->
      <g transform="translate(484.239517 401.198438)scale(0.1 -0.1)">
       <use xlink:href="#DejaVuSans-30"/>
      </g>
     </g>
    </g>
    <g id="xtick_8">
     <g id="line2d_18">
      <g>
       <use xlink:href="#mc376a84457" x="552.359596" y="386.6" style="stroke: #000000; stroke-width: 0.8"/>
      </g>
     </g>
     <g id="text_18">
      <!-- 2 -->
      <g transform="translate(549.178346 401.198438)scale(0.1 -0.1)">
       <use xlink:href="#DejaVuSans-32"/>
      </g>
     </g>
    </g>
    <g id="xtick_9">
     <g id="line2d_19">
      <g>
       <use xlink:href="#mc376a84457" x="617.298425" y="386.6" style="stroke: #000000; stroke-width: 0.8"/>
      </g>
     </g>
     <g id="text_19">
      <!-- 4 -->
      <g transform="translate(614.117175 401.198438)scale(0.1 -0.1)">
       <use xlink:href="#DejaVuSans-34"/>
      </g>
     </g>
    </g>
    <g id="xtick_10">
     <g id="line2d_20">
      <g>
       <use xlink:href="#mc376a84457" x="682.237254" y="386.6" style="stroke: #000000; stroke-width: 0.8"/>
      </g>
     </g>
     <g id="text_20">
      <!-- 6 -->
      <g transform="translate(679.056004 401.198438)scale(0.1 -0.1)">
       <use xlink:href="#DejaVuSans-36"/>
      </g>
     </g>
    </g>
    <g id="xtick_11">
     <g id="line2d_21">
      <g>
       <use xlink:href="#mc376a84457" x="747.176083" y="386.6" style="stroke: #000000; stroke-width: 0.8"/>
      </g>
     </g>
     <g id="text_21">
      <!-- 8 -->
      <g transform="translate(743.994833 401.198438)scale(0.1 -0.1)">
       <use xlink:href="#DejaVuSans-38"/>
      </g>
     </g>
    </g>
    <g id="xtick_12">
     <g id="line2d_22">
      <g>
       <use xlink:href="#mc376a84457" x="812.114912" y="386.6" style="stroke: #000000; stroke-width: 0.8"/>
      </g>
     </g>
     <g id="text_22">
      <!-- 10 -->
      <g transform="translate(805.752412 401.198438)scale(0.1 -0.1)">
       <use xlink:href="#DejaVuSans-31"/>
       <use xlink:href="#DejaVuSans-30" x="63.623047"/>
      </g>
     </g>
    </g>
    <g id="text_23">
     <!-- Rabbit population -->
     <g transform="translate(616.314844 414.876562)scale(0.1 -0.1)">
      <defs>
       <path id="DejaVuSans-20" transform="scale(0.015625)"/>
       <path id="DejaVuSans-70" d="M 1159 525 
L 1159 -1331 
L 581 -1331 
L 581 3500 
L 1159 3500 
L 1159 2969 
Q 1341 3281 1617 3432 
Q 1894 3584 2278 3584 
Q 2916 3584 3314 3078 
Q 3713 2572 3713 1747 
Q 3713 922 3314 415 
Q 2916 -91 2278 -91 
Q 1894 -91 1617 61 
Q 1341 213 1159 525 
z
M 3116 1747 
Q 3116 2381 2855 2742 
Q 2594 3103 2138 3103 
Q 1681 3103 1420 2742 
Q 1159 2381 1159 1747 
Q 1159 1113 1420 752 
Q 1681 391 2138 391 
Q 2594 391 2855 752 
Q 3116 1113 3116 1747 
z
" transform="scale(0.015625)"/>
       <path id="DejaVuSans-6c" d="M 603 4863 
L 1178 4863 
L 1178 0 
L 603 0 
L 603 4863 
z
" transform="scale(0.015625)"/>
       <path id="DejaVuSans-6e" d="M 3513 2113 
L 3513 0 
L 2938 0 
L 2938 2094 
Q 2938 2591 2744 2837 
Q 2550 3084 2163 3084 
Q 1697 3084 1428 2787 
Q 1159 2491 1159 1978 
L 1159 0 
L 581 0 
L 581 3500 
L 1159 3500 
L 1159 2956 
Q 1366 3272 1645 3428 
Q 1925 3584 2291 3584 
Q 2894 3584 3203 3211 
Q 3513 2838 3513 2113 
z
" transform="scale(0.015625)"/>
      </defs>
      <use xlink:href="#DejaVuSans-52"/>
      <use xlink:href="#DejaVuSans-61" x="67.232422"/>
      <use xlink:href="#DejaVuSans-62" x="128.511719"/>
      <use xlink:href="#DejaVuSans-62" x="191.988281"/>
      <use xlink:href="#DejaVuSans-69" x="255.464844"/>
      <use xlink:href="#DejaVuSans-74" x="283.248047"/>
      <use xlink:href="#DejaVuSans-20" x="322.457031"/>
      <use xlink:href="#DejaVuSans-70" x="354.244141"/>
      <use xlink:href="#DejaVuSans-6f" x="417.720703"/>
      <use xlink:href="#DejaVuSans-70" x="478.902344"/>
      <use xlink:href="#DejaVuSans-75" x="542.378906"/>
      <use xlink:href="#DejaVuSans-6c" x="605.757812"/>
      <use xlink:href="#DejaVuSans-61" x="633.541016"/>
      <use xlink:href="#DejaVuSans-74" x="694.820312"/>
      <use xlink:href="#DejaVuSans-69" x="734.029297"/>
      <use xlink:href="#DejaVuSans-6f" x="761.8125"/>
      <use xlink:href="#DejaVuSans-6e" x="822.994141"/>
     </g>
    </g>
   </g>
   <g id="matplotlib.axis_4">
    <g id="ytick_7">
     <g id="line2d_23">
      <g>
       <use xlink:href="#m952127c2c1" x="472.015625" y="359.147522" style="stroke: #000000; stroke-width: 0.8"/>
      </g>
     </g>
     <g id="text_24">
      <!-- 0.25 -->
      <g transform="translate(442.75 362.946741)scale(0.1 -0.1)">
       <defs>
        <path id="DejaVuSans-2e" d="M 684 794 
L 1344 794 
L 1344 0 
L 684 0 
L 684 794 
z
" transform="scale(0.015625)"/>
        <path id="DejaVuSans-35" d="M 691 4666 
L 3169 4666 
L 3169 4134 
L 1269 4134 
L 1269 2991 
Q 1406 3038 1543 3061 
Q 1681 3084 1819 3084 
Q 2600 3084 3056 2656 
Q 3513 2228 3513 1497 
Q 3513 744 3044 326 
Q 2575 -91 1722 -91 
Q 1428 -91 1123 -41 
Q 819 9 494 109 
L 494 744 
Q 775 591 1075 516 
Q 1375 441 1709 441 
Q 2250 441 2565 725 
Q 2881 1009 2881 1497 
Q 2881 1984 2565 2268 
Q 2250 2553 1709 2553 
Q 1456 2553 1204 2497 
Q 953 2441 691 2322 
L 691 4666 
z
" transform="scale(0.015625)"/>
       </defs>
       <use xlink:href="#DejaVuSans-30"/>
       <use xlink:href="#DejaVuSans-2e" x="63.623047"/>
       <use xlink:href="#DejaVuSans-32" x="95.410156"/>
       <use xlink:href="#DejaVuSans-35" x="159.033203"/>
      </g>
     </g>
    </g>
    <g id="ytick_8">
     <g id="line2d_24">
      <g>
       <use xlink:href="#m952127c2c1" x="472.015625" y="313.933565" style="stroke: #000000; stroke-width: 0.8"/>
      </g>
     </g>
     <g id="text_25">
      <!-- 0.50 -->
      <g transform="translate(442.75 317.732784)scale(0.1 -0.1)">
       <use xlink:href="#DejaVuSans-30"/>
       <use xlink:href="#DejaVuSans-2e" x="63.623047"/>
       <use xlink:href="#DejaVuSans-35" x="95.410156"/>
       <use xlink:href="#DejaVuSans-30" x="159.033203"/>
      </g>
     </g>
    </g>
    <g id="ytick_9">
     <g id="line2d_25">
      <g>
       <use xlink:href="#m952127c2c1" x="472.015625" y="268.719608" style="stroke: #000000; stroke-width: 0.8"/>
      </g>
     </g>
     <g id="text_26">
      <!-- 0.75 -->
      <g transform="translate(442.75 272.518827)scale(0.1 -0.1)">
       <defs>
        <path id="DejaVuSans-37" d="M 525 4666 
L 3525 4666 
L 3525 4397 
L 1831 0 
L 1172 0 
L 2766 4134 
L 525 4134 
L 525 4666 
z
" transform="scale(0.015625)"/>
       </defs>
       <use xlink:href="#DejaVuSans-30"/>
       <use xlink:href="#DejaVuSans-2e" x="63.623047"/>
       <use xlink:href="#DejaVuSans-37" x="95.410156"/>
       <use xlink:href="#DejaVuSans-35" x="159.033203"/>
      </g>
     </g>
    </g>
    <g id="ytick_10">
     <g id="line2d_26">
      <g>
       <use xlink:href="#m952127c2c1" x="472.015625" y="223.505652" style="stroke: #000000; stroke-width: 0.8"/>
      </g>
     </g>
     <g id="text_27">
      <!-- 1.00 -->
      <g transform="translate(442.75 227.30487)scale(0.1 -0.1)">
       <use xlink:href="#DejaVuSans-31"/>
       <use xlink:href="#DejaVuSans-2e" x="63.623047"/>
       <use xlink:href="#DejaVuSans-30" x="95.410156"/>
       <use xlink:href="#DejaVuSans-30" x="159.033203"/>
      </g>
     </g>
    </g>
    <g id="ytick_11">
     <g id="line2d_27">
      <g>
       <use xlink:href="#m952127c2c1" x="472.015625" y="178.291695" style="stroke: #000000; stroke-width: 0.8"/>
      </g>
     </g>
     <g id="text_28">
      <!-- 1.25 -->
      <g transform="translate(442.75 182.090914)scale(0.1 -0.1)">
       <use xlink:href="#DejaVuSans-31"/>
       <use xlink:href="#DejaVuSans-2e" x="63.623047"/>
       <use xlink:href="#DejaVuSans-32" x="95.410156"/>
       <use xlink:href="#DejaVuSans-35" x="159.033203"/>
      </g>
     </g>
    </g>
    <g id="ytick_12">
     <g id="line2d_28">
      <g>
       <use xlink:href="#m952127c2c1" x="472.015625" y="133.077738" style="stroke: #000000; stroke-width: 0.8"/>
      </g>
     </g>
     <g id="text_29">
      <!-- 1.50 -->
      <g transform="translate(442.75 136.876957)scale(0.1 -0.1)">
       <use xlink:href="#DejaVuSans-31"/>
       <use xlink:href="#DejaVuSans-2e" x="63.623047"/>
       <use xlink:href="#DejaVuSans-35" x="95.410156"/>
       <use xlink:href="#DejaVuSans-30" x="159.033203"/>
      </g>
     </g>
    </g>
    <g id="ytick_13">
     <g id="line2d_29">
      <g>
       <use xlink:href="#m952127c2c1" x="472.015625" y="87.863781" style="stroke: #000000; stroke-width: 0.8"/>
      </g>
     </g>
     <g id="text_30">
      <!-- 1.75 -->
      <g transform="translate(442.75 91.663)scale(0.1 -0.1)">
       <use xlink:href="#DejaVuSans-31"/>
       <use xlink:href="#DejaVuSans-2e" x="63.623047"/>
       <use xlink:href="#DejaVuSans-37" x="95.410156"/>
       <use xlink:href="#DejaVuSans-35" x="159.033203"/>
      </g>
     </g>
    </g>
    <g id="ytick_14">
     <g id="line2d_30">
      <g>
       <use xlink:href="#m952127c2c1" x="472.015625" y="42.649824" style="stroke: #000000; stroke-width: 0.8"/>
      </g>
     </g>
     <g id="text_31">
      <!-- 2.00 -->
      <g transform="translate(442.75 46.449043)scale(0.1 -0.1)">
       <use xlink:href="#DejaVuSans-32"/>
       <use xlink:href="#DejaVuSans-2e" x="63.623047"/>
       <use xlink:href="#DejaVuSans-30" x="95.410156"/>
       <use xlink:href="#DejaVuSans-30" x="159.033203"/>
      </g>
     </g>
    </g>
    <g id="text_32">
     <!-- Foxes population -->
     <g transform="translate(436.670313 239.178125)rotate(-90)scale(0.1 -0.1)">
      <use xlink:href="#DejaVuSans-46"/>
      <use xlink:href="#DejaVuSans-6f" x="53.894531"/>
      <use xlink:href="#DejaVuSans-78" x="111.951172"/>
      <use xlink:href="#DejaVuSans-65" x="168.005859"/>
      <use xlink:href="#DejaVuSans-73" x="229.529297"/>
      <use xlink:href="#DejaVuSans-20" x="281.628906"/>
      <use xlink:href="#DejaVuSans-70" x="313.416016"/>
      <use xlink:href="#DejaVuSans-6f" x="376.892578"/>
      <use xlink:href="#DejaVuSans-70" x="438.074219"/>
      <use xlink:href="#DejaVuSans-75" x="501.550781"/>
      <use xlink:href="#DejaVuSans-6c" x="564.929688"/>
      <use xlink:href="#DejaVuSans-61" x="592.712891"/>
      <use xlink:href="#DejaVuSans-74" x="653.992188"/>
      <use xlink:href="#DejaVuSans-69" x="693.201172"/>
      <use xlink:href="#DejaVuSans-6f" x="720.984375"/>
      <use xlink:href="#DejaVuSans-6e" x="782.166016"/>
     </g>
    </g>
   </g>
   <g id="line2d_31">
    <path d="M 617.298425 42.649824 
L 609.676184 39.230624 
L 602.398663 36.201635 
L 595.469333 33.553205 
L 588.888525 31.274053 
L 582.653432 29.351272 
L 576.758437 27.770498 
L 571.196288 26.516705 
L 565.956302 25.573565 
L 561.027017 24.924737 
L 556.396562 24.554039 
L 552.052653 24.445455 
L 547.982595 24.583127 
L 544.173283 24.951363 
L 540.611202 25.534632 
L 537.282425 26.317564 
L 534.173277 27.285425 
L 531.270741 28.424628 
L 528.562118 29.722189 
L 526.035269 31.165741 
L 523.678614 32.743539 
L 521.481136 34.444457 
L 519.432374 36.257992 
L 517.52243 38.174257 
L 515.741964 40.18399 
L 514.082137 42.278265 
L 512.534441 44.448211 
L 511.091028 46.68684 
L 508.487915 51.344457 
L 506.218839 56.203081 
L 504.236745 61.220024 
L 502.501478 66.357947 
L 500.979787 71.584861 
L 499.64532 76.874126 
L 498.47863 82.20445 
L 496.996134 90.234148 
L 495.767961 98.254527 
L 494.746263 106.225997 
L 493.638144 116.723403 
L 492.756909 127.019263 
L 491.900872 139.549557 
L 491.136194 154.029002 
L 490.423058 172.325235 
L 489.848213 193.533554 
L 489.446551 216.609895 
L 489.204239 243.627916 
L 489.184879 270.757599 
L 489.390449 292.19309 
L 489.750071 307.340187 
L 490.205075 317.907393 
L 490.784694 326.513464 
L 491.415253 332.854049 
L 492.137214 337.999937 
L 492.931805 342.146818 
L 493.764025 345.449906 
L 494.764928 348.530343 
L 495.750228 350.932875 
L 496.894028 353.18998 
L 498.220309 355.304555 
L 499.770473 357.277748 
L 501.192032 358.757404 
L 502.795217 360.150848 
L 504.604434 361.458601 
L 506.649376 362.680194 
L 508.965023 363.814174 
L 511.591642 364.858101 
L 514.574785 365.80855 
L 517.965293 366.661108 
L 521.819292 367.410375 
L 526.198194 368.049966 
L 531.168701 368.57251 
L 536.802797 368.969648 
L 543.177757 369.232035 
L 552.314308 369.354545 
L 560.620078 369.241921 
L 572.46984 368.809032 
L 586.26711 368.042524 
L 598.880267 367.148095 
L 612.991214 365.941366 
L 628.650339 364.339985 
L 641.419969 362.817243 
L 655.060372 360.960304 
L 669.551534 358.708553 
L 679.66973 356.954769 
L 690.139814 354.973465 
L 700.947118 352.741209 
L 712.088995 350.24545 
L 723.564421 347.48838 
L 735.251724 344.392462 
L 747.010144 340.876815 
L 752.869663 338.937659 
L 758.690245 336.865461 
L 764.451855 334.651492 
L 770.133916 332.287324 
L 775.71531 329.764841 
L 781.174375 327.076228 
L 786.488908 324.213981 
L 791.636164 321.1709 
L 796.592854 317.940091 
L 801.335151 314.514967 
L 805.838681 310.889248 
L 810.07853 307.056958 
L 814.029244 303.012432 
L 817.664824 298.750305 
L 820.95873 294.265525 
L 823.883879 289.553341 
L 826.412647 284.60931 
L 828.516867 279.429297 
L 830.167831 274.009473 
L 831.336287 268.346312 
L 831.992444 262.436598 
L 832.105966 256.277421 
L 831.645975 249.866175 
L 830.581053 243.200562 
L 828.879238 236.278592 
L 826.508027 229.098577 
L 823.434373 221.65914 
L 819.62469 213.959207 
L 814.941301 205.95894 
L 809.299053 197.650241 
L 802.816601 189.108098 
L 795.608069 180.403906 
L 787.781745 171.604949 
L 779.440078 162.774393 
L 770.679681 153.971294 
L 761.59133 145.250591 
L 752.259962 136.663111 
L 742.764678 128.255566 
L 733.17874 120.070555 
L 723.569576 112.146562 
L 713.998774 104.517957 
L 704.522085 97.214998 
L 695.189422 90.263828 
L 686.044864 83.686474 
L 677.126648 77.500852 
L 668.467178 71.720762 
L 660.093017 66.355893 
L 652.024894 61.411816 
L 644.277698 56.88999 
L 636.860482 52.787762 
L 629.776461 49.098363 
L 623.023015 45.810908 
L 616.591682 42.910403 
L 610.468168 40.377737 
L 604.632337 38.189684 
L 599.058219 36.318907 
L 593.714006 34.733953 
L 588.562052 33.399256 
L 583.558872 32.275136 
L 573.795721 30.479335 
L 563.982545 28.963275 
L 559.246698 28.429439 
L 554.796321 28.160767 
L 550.618524 28.141495 
L 546.700543 28.356295 
L 543.029734 28.79027 
L 539.593578 29.428959 
L 536.379679 30.258334 
L 533.375763 31.264801 
L 530.56968 32.435198 
L 527.949402 33.756799 
L 525.503021 35.217392 
L 523.219342 36.805864 
L 521.087866 38.511837 
L 519.098625 40.325467 
L 517.242182 42.237444 
L 515.509627 44.238988 
L 513.892582 46.321854 
L 512.383198 48.478329 
L 509.658667 52.983914 
L 507.282486 57.70284 
L 505.207239 62.590632 
L 503.392305 67.611446 
L 501.801815 72.733252 
L 500.404628 77.927801 
L 499.174333 83.170621 
L 497.595678 91.081122 
L 496.291357 99.000519 
L 495.209419 106.883689 
L 494.036406 117.280114 
L 493.104798 127.493507 
L 492.19476 139.938477 
L 491.380638 154.334518 
L 490.700925 170.330505 
L 490.112663 189.594175 
L 489.638381 213.021405 
L 489.351287 238.891363 
L 489.284932 265.428459 
L 489.436015 286.557791 
L 489.75142 302.460475 
L 490.200062 314.426189 
L 490.706495 322.599541 
L 491.381628 329.959144 
L 492.157243 335.950084 
L 492.906655 340.226109 
L 493.827655 344.18592 
L 494.793472 347.339128 
L 495.7532 349.802286 
L 496.882276 352.119127 
L 498.210791 354.291756 
L 499.43945 355.926871 
L 500.835476 357.470695 
L 502.418665 358.923076 
L 504.210112 360.283495 
L 506.232213 361.55107 
L 508.508665 362.724555 
L 511.066417 363.800353 
L 513.949333 364.773389 
L 517.210792 365.647977 
L 520.909208 366.425635 
L 525.108213 367.10416 
L 529.876659 367.677619 
L 535.288612 368.136353 
L 541.42336 368.466978 
L 548.365405 368.652383 
L 556.204472 368.671732 
L 565.035499 368.50046 
L 574.958645 368.110279 
L 586.079286 367.469172 
L 598.508016 366.541398 
L 612.33946 365.278002 
L 623.639498 364.048212 
L 635.819191 362.554651 
L 648.927316 360.767405 
L 662.963917 358.638048 
L 677.880307 356.099643 
L 688.267238 354.138688 
L 698.961995 351.92845 
L 709.914056 349.435383 
L 721.063273 346.622286 
L 732.33987 343.4483 
L 743.664448 339.868912 
L 749.317285 337.912281 
L 754.947979 335.83595 
L 760.5439 333.633326 
L 766.091983 331.297711 
L 771.590868 328.832402 
L 777.018611 326.230321 
L 782.339676 323.475909 
L 787.519306 320.554728 
L 792.523523 317.453457 
L 797.319126 314.159893 
L 801.873691 310.662954 
L 806.155575 306.952674 
L 810.13391 303.020206 
L 813.778608 298.857824 
L 817.060359 294.458917 
L 819.95063 289.817996 
L 822.421667 284.930687 
L 824.446493 279.793739 
L 825.998911 274.405014 
L 827.0535 268.763498 
L 827.585618 262.869293 
L 827.571402 256.723618 
L 826.987765 250.328814 
L 825.8124 243.688339 
L 824.023776 236.806769 
L 821.601143 229.689799 
L 818.524526 222.344243 
L 814.762104 214.767832 
L 810.295769 206.962205 
L 805.168269 198.969991 
L 799.424834 190.833994 
L 793.110981 182.595568 
L 786.272514 174.294619 
L 778.955526 165.96961 
L 771.206395 157.657551 
L 763.071789 149.394009 
L 754.598662 141.213103 
L 745.834255 133.147502 
L 736.826097 125.228431 
L 727.622005 117.485666 
L 718.270082 109.947536 
L 708.81872 102.640923 
L 699.316596 95.591262 
L 689.812679 88.822539 
L 680.35622 82.357295 
L 670.99676 76.216622 
L 661.784128 70.420165 
L 652.76844 64.986123 
L 644.003799 59.940424 
L 635.522321 55.29759 
L 627.335755 51.051428 
L 619.453974 47.19499 
L 611.885022 43.720646 
L 604.635121 40.620083 
L 597.708665 37.884305 
L 591.108222 35.503634 
L 584.834538 33.467707 
L 578.886531 31.765481 
L 573.261293 30.385227 
L 567.954091 29.314535 
L 562.958368 28.540313 
L 558.265739 28.048784 
L 553.865997 27.82549 
L 549.747105 27.855289 
L 545.895204 28.122356 
L 542.294607 28.610183 
L 538.927805 29.301582 
L 535.77546 30.178677 
L 532.816579 31.222989 
L 530.04593 32.423718 
L 527.459306 33.772494 
L 525.044382 35.257933 
L 522.789532 36.869202 
L 520.683824 38.59602 
L 518.717023 40.428658 
L 516.879589 42.357936 
L 515.162678 44.375226 
L 513.558142 46.47245 
L 512.058529 48.642081 
L 509.347741 53.171217 
L 506.984614 57.91344 
L 504.934319 62.828248 
L 503.149455 67.873678 
L 501.586261 73.014791 
L 500.215182 78.225277 
L 499.010127 83.481786 
L 497.465305 91.40904 
L 496.182231 99.338305 
L 495.115317 107.227416 
L 493.958459 117.626316 
L 493.040084 127.838681 
L 492.144096 140.28046 
L 491.33971 154.668695 
L 490.668393 170.652021 
L 490.088144 189.897054 
L 489.621351 213.299316 
L 489.337745 239.136732 
L 489.273934 265.639535 
L 489.441642 287.873985 
L 489.769168 303.596856 
L 490.231964 315.424709 
L 490.798041 324.271994 
L 491.123008 327.970321 
L 491.123008 327.970321 
" clip-path="url(#p7f01fb585a)" style="fill: none; stroke: #000000; stroke-width: 1.5; stroke-linecap: square"/>
   </g>
   <g id="patch_9">
    <path d="M 472.015625 386.6 
L 472.015625 7.2 
" style="fill: none; stroke: #000000; stroke-width: 0.8; stroke-linejoin: miter; stroke-linecap: square"/>
   </g>
   <g id="patch_10">
    <path d="M 849.253125 386.6 
L 849.253125 7.2 
" style="fill: none; stroke: #000000; stroke-width: 0.8; stroke-linejoin: miter; stroke-linecap: square"/>
   </g>
   <g id="patch_11">
    <path d="M 472.015625 386.6 
L 849.253125 386.6 
" style="fill: none; stroke: #000000; stroke-width: 0.8; stroke-linejoin: miter; stroke-linecap: square"/>
   </g>
   <g id="patch_12">
    <path d="M 472.015625 7.2 
L 849.253125 7.2 
" style="fill: none; stroke: #000000; stroke-width: 0.8; stroke-linejoin: miter; stroke-linecap: square"/>
   </g>
  </g>
 </g>
 <defs>
  <clipPath id="p7ba1cbd5e0">
   <rect x="40.603125" y="7.2" width="377.2375" height="379.4"/>
  </clipPath>
  <clipPath id="p7f01fb585a">
   <rect x="472.015625" y="7.2" width="377.2375" height="379.4"/>
  </clipPath>
 </defs>
</svg>
