<?xml version="1.0" encoding="utf-8" standalone="no"?>
<!DOCTYPE svg PUBLIC "-//W3C//DTD SVG 1.1//EN"
  "http://www.w3.org/Graphics/SVG/1.1/DTD/svg11.dtd">
<svg xmlns:xlink="http://www.w3.org/1999/xlink" width="856.775pt" height="424.15625pt" viewBox="0 0 856.775 424.15625" xmlns="http://www.w3.org/2000/svg" version="1.1">
 <metadata>
  <rdf:RDF xmlns:dc="http://purl.org/dc/elements/1.1/" xmlns:cc="http://creativecommons.org/ns#" xmlns:rdf="http://www.w3.org/1999/02/22-rdf-syntax-ns#">
   <cc:Work>
    <dc:type rdf:resource="http://purl.org/dc/dcmitype/StillImage"/>
    <dc:date>2024-10-07T21:58:00.752865</dc:date>
    <dc:format>image/svg+xml</dc:format>
    <dc:creator>
     <cc:Agent>
      <dc:title>Matplotlib v3.5.2, https://matplotlib.org/</dc:title>
     </cc:Agent>
    </dc:creator>
   </cc:Work>
  </rdf:RDF>
 </metadata>
 <defs>
  <style type="text/css">*{stroke-linejoin: round; stroke-linecap: butt}</style>
 </defs>
 <g id="figure_1">
  <g id="patch_1">
   <path d="M 0 424.15625 
L 856.775 424.15625 
L 856.775 0 
L 0 0 
z
" style="fill: #ffffff"/>
  </g>
  <g id="axes_1">
   <g id="patch_2">
    <path d="M 26.925 386.6 
L 411.1625 386.6 
L 411.1625 7.2 
L 26.925 7.2 
z
" style="fill: #ffffff"/>
   </g>
   <g id="matplotlib.axis_1">
    <g id="xtick_1">
     <g id="line2d_1">
      <defs>
       <path id="m3255ee3cef" d="M 0 0 
L 0 3.5 
" style="stroke: #000000; stroke-width: 0.8"/>
      </defs>
      <g>
       <use xlink:href="#m3255ee3cef" x="44.390341" y="386.6" style="stroke: #000000; stroke-width: 0.8"/>
      </g>
     </g>
     <g id="text_1">
      <!-- 0 -->
      <g transform="translate(41.209091 401.198438)scale(0.1 -0.1)">
       <defs>
        <path id="DejaVuSans-30" d="M 2034 4250 
Q 1547 4250 1301 3770 
Q 1056 3291 1056 2328 
Q 1056 1369 1301 889 
Q 1547 409 2034 409 
Q 2525 409 2770 889 
Q 3016 1369 3016 2328 
Q 3016 3291 2770 3770 
Q 2525 4250 2034 4250 
z
M 2034 4750 
Q 2819 4750 3233 4129 
Q 3647 3509 3647 2328 
Q 3647 1150 3233 529 
Q 2819 -91 2034 -91 
Q 1250 -91 836 529 
Q 422 1150 422 2328 
Q 422 3509 836 4129 
Q 1250 4750 2034 4750 
z
" transform="scale(0.015625)"/>
       </defs>
       <use xlink:href="#DejaVuSans-30"/>
      </g>
     </g>
    </g>
    <g id="xtick_2">
     <g id="line2d_2">
      <g>
       <use xlink:href="#m3255ee3cef" x="114.251705" y="386.6" style="stroke: #000000; stroke-width: 0.8"/>
      </g>
     </g>
     <g id="text_2">
      <!-- 2 -->
      <g transform="translate(111.070455 401.198438)scale(0.1 -0.1)">
       <defs>
        <path id="DejaVuSans-32" d="M 1228 531 
L 3431 531 
L 3431 0 
L 469 0 
L 469 531 
Q 828 903 1448 1529 
Q 2069 2156 2228 2338 
Q 2531 2678 2651 2914 
Q 2772 3150 2772 3378 
Q 2772 3750 2511 3984 
Q 2250 4219 1831 4219 
Q 1534 4219 1204 4116 
Q 875 4013 500 3803 
L 500 4441 
Q 881 4594 1212 4672 
Q 1544 4750 1819 4750 
Q 2544 4750 2975 4387 
Q 3406 4025 3406 3419 
Q 3406 3131 3298 2873 
Q 3191 2616 2906 2266 
Q 2828 2175 2409 1742 
Q 1991 1309 1228 531 
z
" transform="scale(0.015625)"/>
       </defs>
       <use xlink:href="#DejaVuSans-32"/>
      </g>
     </g>
    </g>
    <g id="xtick_3">
     <g id="line2d_3">
      <g>
       <use xlink:href="#m3255ee3cef" x="184.113068" y="386.6" style="stroke: #000000; stroke-width: 0.8"/>
      </g>
     </g>
     <g id="text_3">
      <!-- 4 -->
      <g transform="translate(180.931818 401.198438)scale(0.1 -0.1)">
       <defs>
        <path id="DejaVuSans-34" d="M 2419 4116 
L 825 1625 
L 2419 1625 
L 2419 4116 
z
M 2253 4666 
L 3047 4666 
L 3047 1625 
L 3713 1625 
L 3713 1100 
L 3047 1100 
L 3047 0 
L 2419 0 
L 2419 1100 
L 313 1100 
L 313 1709 
L 2253 4666 
z
" transform="scale(0.015625)"/>
       </defs>
       <use xlink:href="#DejaVuSans-34"/>
      </g>
     </g>
    </g>
    <g id="xtick_4">
     <g id="line2d_4">
      <g>
       <use xlink:href="#m3255ee3cef" x="253.974432" y="386.6" style="stroke: #000000; stroke-width: 0.8"/>
      </g>
     </g>
     <g id="text_4">
      <!-- 6 -->
      <g transform="translate(250.793182 401.198438)scale(0.1 -0.1)">
       <defs>
        <path id="DejaVuSans-36" d="M 2113 2584 
Q 1688 2584 1439 2293 
Q 1191 2003 1191 1497 
Q 1191 994 1439 701 
Q 1688 409 2113 409 
Q 2538 409 2786 701 
Q 3034 994 3034 1497 
Q 3034 2003 2786 2293 
Q 2538 2584 2113 2584 
z
M 3366 4563 
L 3366 3988 
Q 3128 4100 2886 4159 
Q 2644 4219 2406 4219 
Q 1781 4219 1451 3797 
Q 1122 3375 1075 2522 
Q 1259 2794 1537 2939 
Q 1816 3084 2150 3084 
Q 2853 3084 3261 2657 
Q 3669 2231 3669 1497 
Q 3669 778 3244 343 
Q 2819 -91 2113 -91 
Q 1303 -91 875 529 
Q 447 1150 447 2328 
Q 447 3434 972 4092 
Q 1497 4750 2381 4750 
Q 2619 4750 2861 4703 
Q 3103 4656 3366 4563 
z
" transform="scale(0.015625)"/>
       </defs>
       <use xlink:href="#DejaVuSans-36"/>
      </g>
     </g>
    </g>
    <g id="xtick_5">
     <g id="line2d_5">
      <g>
       <use xlink:href="#m3255ee3cef" x="323.835795" y="386.6" style="stroke: #000000; stroke-width: 0.8"/>
      </g>
     </g>
     <g id="text_5">
      <!-- 8 -->
      <g transform="translate(320.654545 401.198438)scale(0.1 -0.1)">
       <defs>
        <path id="DejaVuSans-38" d="M 2034 2216 
Q 1584 2216 1326 1975 
Q 1069 1734 1069 1313 
Q 1069 891 1326 650 
Q 1584 409 2034 409 
Q 2484 409 2743 651 
Q 3003 894 3003 1313 
Q 3003 1734 2745 1975 
Q 2488 2216 2034 2216 
z
M 1403 2484 
Q 997 2584 770 2862 
Q 544 3141 544 3541 
Q 544 4100 942 4425 
Q 1341 4750 2034 4750 
Q 2731 4750 3128 4425 
Q 3525 4100 3525 3541 
Q 3525 3141 3298 2862 
Q 3072 2584 2669 2484 
Q 3125 2378 3379 2068 
Q 3634 1759 3634 1313 
Q 3634 634 3220 271 
Q 2806 -91 2034 -91 
Q 1263 -91 848 271 
Q 434 634 434 1313 
Q 434 1759 690 2068 
Q 947 2378 1403 2484 
z
M 1172 3481 
Q 1172 3119 1398 2916 
Q 1625 2713 2034 2713 
Q 2441 2713 2670 2916 
Q 2900 3119 2900 3481 
Q 2900 3844 2670 4047 
Q 2441 4250 2034 4250 
Q 1625 4250 1398 4047 
Q 1172 3844 1172 3481 
z
" transform="scale(0.015625)"/>
       </defs>
       <use xlink:href="#DejaVuSans-38"/>
      </g>
     </g>
    </g>
    <g id="xtick_6">
     <g id="line2d_6">
      <g>
       <use xlink:href="#m3255ee3cef" x="393.697159" y="386.6" style="stroke: #000000; stroke-width: 0.8"/>
      </g>
     </g>
     <g id="text_6">
      <!-- 10 -->
      <g transform="translate(387.334659 401.198438)scale(0.1 -0.1)">
       <defs>
        <path id="DejaVuSans-31" d="M 794 531 
L 1825 531 
L 1825 4091 
L 703 3866 
L 703 4441 
L 1819 4666 
L 2450 4666 
L 2450 531 
L 3481 531 
L 3481 0 
L 794 0 
L 794 531 
z
" transform="scale(0.015625)"/>
       </defs>
       <use xlink:href="#DejaVuSans-31"/>
       <use xlink:href="#DejaVuSans-30" x="63.623047"/>
      </g>
     </g>
    </g>
    <g id="text_7">
     <!-- Time -->
     <g transform="translate(206.810156 414.876562)scale(0.1 -0.1)">
      <defs>
       <path id="DejaVuSans-54" d="M -19 4666 
L 3928 4666 
L 3928 4134 
L 2272 4134 
L 2272 0 
L 1638 0 
L 1638 4134 
L -19 4134 
L -19 4666 
z
" transform="scale(0.015625)"/>
       <path id="DejaVuSans-69" d="M 603 3500 
L 1178 3500 
L 1178 0 
L 603 0 
L 603 3500 
z
M 603 4863 
L 1178 4863 
L 1178 4134 
L 603 4134 
L 603 4863 
z
" transform="scale(0.015625)"/>
       <path id="DejaVuSans-6d" d="M 3328 2828 
Q 3544 3216 3844 3400 
Q 4144 3584 4550 3584 
Q 5097 3584 5394 3201 
Q 5691 2819 5691 2113 
L 5691 0 
L 5113 0 
L 5113 2094 
Q 5113 2597 4934 2840 
Q 4756 3084 4391 3084 
Q 3944 3084 3684 2787 
Q 3425 2491 3425 1978 
L 3425 0 
L 2847 0 
L 2847 2094 
Q 2847 2600 2669 2842 
Q 2491 3084 2119 3084 
Q 1678 3084 1418 2786 
Q 1159 2488 1159 1978 
L 1159 0 
L 581 0 
L 581 3500 
L 1159 3500 
L 1159 2956 
Q 1356 3278 1631 3431 
Q 1906 3584 2284 3584 
Q 2666 3584 2933 3390 
Q 3200 3197 3328 2828 
z
" transform="scale(0.015625)"/>
       <path id="DejaVuSans-65" d="M 3597 1894 
L 3597 1613 
L 953 1613 
Q 991 1019 1311 708 
Q 1631 397 2203 397 
Q 2534 397 2845 478 
Q 3156 559 3463 722 
L 3463 178 
Q 3153 47 2828 -22 
Q 2503 -91 2169 -91 
Q 1331 -91 842 396 
Q 353 884 353 1716 
Q 353 2575 817 3079 
Q 1281 3584 2069 3584 
Q 2775 3584 3186 3129 
Q 3597 2675 3597 1894 
z
M 3022 2063 
Q 3016 2534 2758 2815 
Q 2500 3097 2075 3097 
Q 1594 3097 1305 2825 
Q 1016 2553 972 2059 
L 3022 2063 
z
" transform="scale(0.015625)"/>
      </defs>
      <use xlink:href="#DejaVuSans-54"/>
      <use xlink:href="#DejaVuSans-69" x="57.958984"/>
      <use xlink:href="#DejaVuSans-6d" x="85.742188"/>
      <use xlink:href="#DejaVuSans-65" x="183.154297"/>
     </g>
    </g>
   </g>
   <g id="matplotlib.axis_2">
    <g id="ytick_1">
     <g id="line2d_7">
      <defs>
       <path id="m8cf927042c" d="M 0 0 
L -3.5 0 
" style="stroke: #000000; stroke-width: 0.8"/>
      </defs>
      <g>
       <use xlink:href="#m8cf927042c" x="26.925" y="371.106549" style="stroke: #000000; stroke-width: 0.8"/>
      </g>
     </g>
     <g id="text_8">
      <!-- 0 -->
      <g transform="translate(13.5625 374.905768)scale(0.1 -0.1)">
       <use xlink:href="#DejaVuSans-30"/>
      </g>
     </g>
    </g>
    <g id="ytick_2">
     <g id="line2d_8">
      <g>
       <use xlink:href="#m8cf927042c" x="26.925" y="305.79546" style="stroke: #000000; stroke-width: 0.8"/>
      </g>
     </g>
     <g id="text_9">
      <!-- 2 -->
      <g transform="translate(13.5625 309.594679)scale(0.1 -0.1)">
       <use xlink:href="#DejaVuSans-32"/>
      </g>
     </g>
    </g>
    <g id="ytick_3">
     <g id="line2d_9">
      <g>
       <use xlink:href="#m8cf927042c" x="26.925" y="240.484372" style="stroke: #000000; stroke-width: 0.8"/>
      </g>
     </g>
     <g id="text_10">
      <!-- 4 -->
      <g transform="translate(13.5625 244.283591)scale(0.1 -0.1)">
       <use xlink:href="#DejaVuSans-34"/>
      </g>
     </g>
    </g>
    <g id="ytick_4">
     <g id="line2d_10">
      <g>
       <use xlink:href="#m8cf927042c" x="26.925" y="175.173283" style="stroke: #000000; stroke-width: 0.8"/>
      </g>
     </g>
     <g id="text_11">
      <!-- 6 -->
      <g transform="translate(13.5625 178.972502)scale(0.1 -0.1)">
       <use xlink:href="#DejaVuSans-36"/>
      </g>
     </g>
    </g>
    <g id="ytick_5">
     <g id="line2d_11">
      <g>
       <use xlink:href="#m8cf927042c" x="26.925" y="109.862195" style="stroke: #000000; stroke-width: 0.8"/>
      </g>
     </g>
     <g id="text_12">
      <!-- 8 -->
      <g transform="translate(13.5625 113.661414)scale(0.1 -0.1)">
       <use xlink:href="#DejaVuSans-38"/>
      </g>
     </g>
    </g>
    <g id="ytick_6">
     <g id="line2d_12">
      <g>
       <use xlink:href="#m8cf927042c" x="26.925" y="44.551106" style="stroke: #000000; stroke-width: 0.8"/>
      </g>
     </g>
     <g id="text_13">
      <!-- 10 -->
      <g transform="translate(7.2 48.350325)scale(0.1 -0.1)">
       <use xlink:href="#DejaVuSans-31"/>
       <use xlink:href="#DejaVuSans-30" x="63.623047"/>
      </g>
     </g>
    </g>
   </g>
   <g id="line2d_13">
    <path d="M 44.390341 240.484372 
L 45.787568 269.05713 
L 46.835489 286.850788 
L 47.883409 301.735352 
L 48.93133 314.028701 
L 49.97925 324.086032 
L 51.02717 332.270691 
L 52.075091 338.911436 
L 53.123011 344.292343 
L 54.170932 348.654839 
L 55.218852 352.200717 
L 56.266773 355.095558 
L 57.314693 357.469802 
L 58.362614 359.418748 
L 59.759841 361.476291 
L 61.157068 363.074967 
L 62.554295 364.32867 
L 63.951523 365.321751 
L 65.698057 366.284347 
L 67.793898 367.140083 
L 70.239045 367.850864 
L 73.0335 368.411621 
L 76.526568 368.864061 
L 80.71825 369.173889 
L 86.307159 369.342708 
L 92.594682 369.305375 
L 98.882205 369.047996 
L 104.121807 368.629559 
L 109.012102 368.01071 
L 112.854477 367.319416 
L 116.347545 366.463797 
L 119.142 365.563919 
L 121.587148 364.57174 
L 124.032295 363.341727 
L 126.128136 362.059597 
L 128.223977 360.528723 
L 130.319818 358.686048 
L 132.066352 356.871239 
L 133.812886 354.761814 
L 135.55942 352.305937 
L 137.305955 349.438791 
L 139.052489 346.082576 
L 140.799023 342.146515 
L 142.545557 337.526847 
L 144.292091 332.106831 
L 146.038625 325.756746 
L 147.785159 318.33389 
L 149.531693 309.682578 
L 151.278227 299.664965 
L 153.024761 288.100411 
L 154.771295 274.639075 
L 156.51783 259.008111 
L 158.264364 241.02618 
L 160.010898 220.603455 
L 161.757432 197.741614 
L 163.853273 167.225423 
L 165.949114 133.60921 
L 170.140795 65.147248 
L 171.538023 46.599161 
L 172.585943 35.656592 
L 173.284557 30.171411 
L 173.98317 26.3947 
L 174.332477 25.219545 
L 174.681784 24.559627 
L 175.031091 24.445455 
L 175.380398 24.908082 
L 175.729705 25.979109 
L 176.079011 27.690679 
L 176.777625 33.166757 
L 177.476239 41.708515 
L 178.174852 53.90272 
L 179.222773 77.413248 
L 180.969307 123.939777 
L 183.414455 189.022296 
L 184.811682 220.810176 
L 186.208909 247.353783 
L 187.606136 269.385475 
L 190.051284 303.344767 
L 191.099205 315.178806 
L 192.147125 324.888118 
L 193.195045 332.805989 
L 194.242966 339.247098 
L 195.290886 344.482985 
L 196.338807 348.741171 
L 197.386727 352.209711 
L 198.434648 355.043455 
L 199.482568 357.36819 
L 200.879795 359.848336 
L 202.277023 361.776034 
L 203.67425 363.273249 
L 205.071477 364.452985 
L 206.818011 365.593311 
L 208.564545 366.460554 
L 210.660386 367.23722 
L 213.105534 367.886935 
L 215.899989 368.399221 
L 219.393057 368.815475 
L 223.934045 369.112957 
L 229.522955 369.236768 
L 235.810477 369.145746 
L 241.748693 368.841611 
L 246.988295 368.352998 
L 251.179977 367.741818 
L 255.022352 366.965064 
L 258.51542 366.038123 
L 261.309875 365.084177 
L 263.755023 364.036155 
L 266.20017 362.72635 
L 268.296011 361.340647 
L 270.391852 359.656667 
L 272.138386 357.982795 
L 273.88492 356.022676 
L 275.631455 353.735192 
L 277.377989 351.076032 
L 279.124523 347.99711 
L 280.871057 344.425909 
L 282.617591 340.259459 
L 284.364125 335.381736 
L 286.110659 329.6639 
L 287.507886 324.389993 
L 288.905114 318.409575 
L 290.651648 309.812547 
L 292.398182 299.805506 
L 294.144716 288.200676 
L 295.89125 274.797472 
L 297.637784 259.382496 
L 299.384318 241.776747 
L 301.130852 221.857436 
L 302.877386 199.364534 
L 304.973227 169.108733 
L 307.767682 124.783456 
L 311.26075 69.287706 
L 312.657977 50.544605 
L 313.705898 39.57731 
L 314.404511 34.185269 
L 315.103125 30.587518 
L 315.452432 29.526884 
L 315.801739 28.991715 
L 316.151045 29.006013 
L 316.500352 29.592996 
L 316.849659 30.775099 
L 317.198966 32.573975 
L 317.89758 38.104749 
L 318.596193 46.380678 
L 319.294807 57.31393 
L 320.342727 77.900578 
L 321.739955 111.211715 
L 324.534409 186.478213 
L 326.280943 230.389503 
L 327.67817 260.18643 
L 329.075398 284.773945 
L 330.123318 299.85546 
L 331.171239 312.296909 
L 332.219159 322.474664 
L 333.26708 330.83849 
L 334.315 337.652812 
L 335.36292 343.205608 
L 336.410841 347.737032 
L 337.458761 351.430552 
L 338.506682 354.42001 
L 339.554602 356.859851 
L 340.602523 358.86414 
L 341.99975 361.00443 
L 343.396977 362.67469 
L 344.794205 363.983654 
L 346.191432 365.01936 
L 347.937966 366.024508 
L 350.033807 366.923381 
L 352.129648 367.579761 
L 354.924102 368.196212 
L 358.067864 368.652912 
L 362.259545 369.01827 
L 367.499148 369.222119 
L 373.437364 369.224859 
L 379.724886 369.00464 
L 385.313795 368.588418 
L 389.854784 368.043389 
L 393.697159 367.383084 
L 393.697159 367.383084 
" clip-path="url(#pdf6899a2ea)" style="fill: none; stroke: #1f77b4; stroke-width: 1.5; stroke-linecap: square"/>
   </g>
   <g id="line2d_14">
    <path d="M 44.390341 305.79546 
L 45.438261 304.152964 
L 46.136875 303.394258 
L 46.835489 302.882445 
L 47.534102 302.594997 
L 48.232716 302.508457 
L 48.93133 302.599805 
L 49.97925 303.021246 
L 51.02717 303.72188 
L 52.424398 304.987346 
L 54.170932 306.939825 
L 56.61608 310.076227 
L 68.492511 325.906218 
L 71.98558 330.002306 
L 75.478648 333.765528 
L 78.971716 337.205898 
L 82.464784 340.341176 
L 85.957852 343.191802 
L 89.800227 346.02547 
L 93.642602 348.570423 
L 97.484977 350.85329 
L 101.676659 353.073788 
L 105.868341 355.040975 
L 110.40933 356.91618 
L 114.950318 358.552967 
L 119.840614 360.07636 
L 124.730909 361.374777 
L 129.970511 362.535802 
L 135.210114 363.472197 
L 140.449716 364.185563 
L 145.340011 364.622923 
L 149.531693 364.781985 
L 153.024761 364.70742 
L 156.168523 364.432429 
L 158.962977 363.960159 
L 161.058818 363.389097 
L 162.805352 362.70995 
L 164.551886 361.785931 
L 166.29842 360.566554 
L 167.695648 359.293546 
L 169.092875 357.637291 
L 170.140795 356.085558 
L 171.538023 353.537128 
L 172.93525 350.376654 
L 174.332477 346.547488 
L 175.729705 342.007141 
L 177.126932 336.727287 
L 178.873466 329.079752 
L 181.318614 318.343874 
L 182.715841 313.205087 
L 183.763761 310.075856 
L 184.811682 307.625978 
L 185.859602 305.842511 
L 186.907523 304.652342 
L 187.955443 303.922194 
L 189.35267 303.3242 
L 190.051284 303.179299 
L 190.749898 303.214603 
L 191.797818 303.558038 
L 192.845739 304.189725 
L 194.242966 305.375772 
L 195.9895 307.249232 
L 198.434648 310.30256 
L 203.324943 316.920308 
L 208.215239 323.362016 
L 212.057614 328.040629 
L 215.550682 331.954547 
L 219.04375 335.543008 
L 222.536818 338.819622 
L 226.029886 341.803384 
L 229.522955 344.515178 
L 233.36533 347.209646 
L 237.207705 349.628632 
L 241.05008 351.797561 
L 245.241761 353.905938 
L 249.433443 355.771685 
L 253.974432 357.545689 
L 258.864727 359.202458 
L 263.755023 360.625111 
L 268.994625 361.91209 
L 274.234227 362.965108 
L 279.47383 363.782784 
L 284.364125 364.320354 
L 288.905114 364.612796 
L 292.747489 364.651509 
L 295.89125 364.478759 
L 298.685705 364.113476 
L 301.130852 363.557858 
L 303.226693 362.850672 
L 304.973227 362.038262 
L 306.370455 361.189027 
L 307.767682 360.107992 
L 309.164909 358.733497 
L 310.562136 356.999094 
L 311.959364 354.819643 
L 313.007284 352.808248 
L 314.404511 349.541982 
L 315.801739 345.558551 
L 317.198966 340.85267 
L 318.9455 334.020816 
L 323.486489 315.354629 
L 324.883716 310.809706 
L 325.931636 308.079156 
L 326.979557 305.988809 
L 328.027477 304.505136 
L 328.726091 303.83017 
L 329.424705 303.387625 
L 330.123318 303.159079 
L 330.821932 303.124141 
L 331.520545 303.260446 
L 332.568466 303.732217 
L 333.616386 304.460771 
L 335.013614 305.742757 
L 336.760148 307.695215 
L 339.205295 310.812202 
L 350.73242 326.021721 
L 354.225489 330.095498 
L 357.718557 333.842159 
L 361.211625 337.26855 
L 364.704693 340.392266 
L 368.197761 343.233728 
L 372.040136 346.058749 
L 375.882511 348.596156 
L 379.724886 350.872613 
L 383.916568 353.086846 
L 388.10825 355.048019 
L 392.649239 356.916823 
L 393.697159 357.31327 
L 393.697159 357.31327 
" clip-path="url(#pdf6899a2ea)" style="fill: none; stroke: #ff7f0e; stroke-width: 1.5; stroke-linecap: square"/>
   </g>
   <g id="patch_3">
    <path d="M 26.925 386.6 
L 26.925 7.2 
" style="fill: none; stroke: #000000; stroke-width: 0.8; stroke-linejoin: miter; stroke-linecap: square"/>
   </g>
   <g id="patch_4">
    <path d="M 411.1625 386.6 
L 411.1625 7.2 
" style="fill: none; stroke: #000000; stroke-width: 0.8; stroke-linejoin: miter; stroke-linecap: square"/>
   </g>
   <g id="patch_5">
    <path d="M 26.925 386.6 
L 411.1625 386.6 
" style="fill: none; stroke: #000000; stroke-width: 0.8; stroke-linejoin: miter; stroke-linecap: square"/>
   </g>
   <g id="patch_6">
    <path d="M 26.925 7.2 
L 411.1625 7.2 
" style="fill: none; stroke: #000000; stroke-width: 0.8; stroke-linejoin: miter; stroke-linecap: square"/>
   </g>
   <g id="legend_1">
    <g id="patch_7">
     <path d="M 334.70625 44.55625 
L 404.1625 44.55625 
Q 406.1625 44.55625 406.1625 42.55625 
L 406.1625 14.2 
Q 406.1625 12.2 404.1625 12.2 
L 334.70625 12.2 
Q 332.70625 12.2 332.70625 14.2 
L 332.70625 42.55625 
Q 332.70625 44.55625 334.70625 44.55625 
z
" style="fill: #ffffff; opacity: 0.8; stroke: #cccccc; stroke-linejoin: miter"/>
    </g>
    <g id="line2d_15">
     <path d="M 336.70625 20.298437 
L 346.70625 20.298437 
L 356.70625 20.298437 
" style="fill: none; stroke: #1f77b4; stroke-width: 1.5; stroke-linecap: square"/>
    </g>
    <g id="text_14">
     <!-- Rabbits -->
     <g transform="translate(364.70625 23.798437)scale(0.1 -0.1)">
      <defs>
       <path id="DejaVuSans-52" d="M 2841 2188 
Q 3044 2119 3236 1894 
Q 3428 1669 3622 1275 
L 4263 0 
L 3584 0 
L 2988 1197 
Q 2756 1666 2539 1819 
Q 2322 1972 1947 1972 
L 1259 1972 
L 1259 0 
L 628 0 
L 628 4666 
L 2053 4666 
Q 2853 4666 3247 4331 
Q 3641 3997 3641 3322 
Q 3641 2881 3436 2590 
Q 3231 2300 2841 2188 
z
M 1259 4147 
L 1259 2491 
L 2053 2491 
Q 2509 2491 2742 2702 
Q 2975 2913 2975 3322 
Q 2975 3731 2742 3939 
Q 2509 4147 2053 4147 
L 1259 4147 
z
" transform="scale(0.015625)"/>
       <path id="DejaVuSans-61" d="M 2194 1759 
Q 1497 1759 1228 1600 
Q 959 1441 959 1056 
Q 959 750 1161 570 
Q 1363 391 1709 391 
Q 2188 391 2477 730 
Q 2766 1069 2766 1631 
L 2766 1759 
L 2194 1759 
z
M 3341 1997 
L 3341 0 
L 2766 0 
L 2766 531 
Q 2569 213 2275 61 
Q 1981 -91 1556 -91 
Q 1019 -91 701 211 
Q 384 513 384 1019 
Q 384 1609 779 1909 
Q 1175 2209 1959 2209 
L 2766 2209 
L 2766 2266 
Q 2766 2663 2505 2880 
Q 2244 3097 1772 3097 
Q 1472 3097 1187 3025 
Q 903 2953 641 2809 
L 641 3341 
Q 956 3463 1253 3523 
Q 1550 3584 1831 3584 
Q 2591 3584 2966 3190 
Q 3341 2797 3341 1997 
z
" transform="scale(0.015625)"/>
       <path id="DejaVuSans-62" d="M 3116 1747 
Q 3116 2381 2855 2742 
Q 2594 3103 2138 3103 
Q 1681 3103 1420 2742 
Q 1159 2381 1159 1747 
Q 1159 1113 1420 752 
Q 1681 391 2138 391 
Q 2594 391 2855 752 
Q 3116 1113 3116 1747 
z
M 1159 2969 
Q 1341 3281 1617 3432 
Q 1894 3584 2278 3584 
Q 2916 3584 3314 3078 
Q 3713 2572 3713 1747 
Q 3713 922 3314 415 
Q 2916 -91 2278 -91 
Q 1894 -91 1617 61 
Q 1341 213 1159 525 
L 1159 0 
L 581 0 
L 581 4863 
L 1159 4863 
L 1159 2969 
z
" transform="scale(0.015625)"/>
       <path id="DejaVuSans-74" d="M 1172 4494 
L 1172 3500 
L 2356 3500 
L 2356 3053 
L 1172 3053 
L 1172 1153 
Q 1172 725 1289 603 
Q 1406 481 1766 481 
L 2356 481 
L 2356 0 
L 1766 0 
Q 1100 0 847 248 
Q 594 497 594 1153 
L 594 3053 
L 172 3053 
L 172 3500 
L 594 3500 
L 594 4494 
L 1172 4494 
z
" transform="scale(0.015625)"/>
       <path id="DejaVuSans-73" d="M 2834 3397 
L 2834 2853 
Q 2591 2978 2328 3040 
Q 2066 3103 1784 3103 
Q 1356 3103 1142 2972 
Q 928 2841 928 2578 
Q 928 2378 1081 2264 
Q 1234 2150 1697 2047 
L 1894 2003 
Q 2506 1872 2764 1633 
Q 3022 1394 3022 966 
Q 3022 478 2636 193 
Q 2250 -91 1575 -91 
Q 1294 -91 989 -36 
Q 684 19 347 128 
L 347 722 
Q 666 556 975 473 
Q 1284 391 1588 391 
Q 1994 391 2212 530 
Q 2431 669 2431 922 
Q 2431 1156 2273 1281 
Q 2116 1406 1581 1522 
L 1381 1569 
Q 847 1681 609 1914 
Q 372 2147 372 2553 
Q 372 3047 722 3315 
Q 1072 3584 1716 3584 
Q 2034 3584 2315 3537 
Q 2597 3491 2834 3397 
z
" transform="scale(0.015625)"/>
      </defs>
      <use xlink:href="#DejaVuSans-52"/>
      <use xlink:href="#DejaVuSans-61" x="67.232422"/>
      <use xlink:href="#DejaVuSans-62" x="128.511719"/>
      <use xlink:href="#DejaVuSans-62" x="191.988281"/>
      <use xlink:href="#DejaVuSans-69" x="255.464844"/>
      <use xlink:href="#DejaVuSans-74" x="283.248047"/>
      <use xlink:href="#DejaVuSans-73" x="322.457031"/>
     </g>
    </g>
    <g id="line2d_16">
     <path d="M 336.70625 34.976562 
L 346.70625 34.976562 
L 356.70625 34.976562 
" style="fill: none; stroke: #ff7f0e; stroke-width: 1.5; stroke-linecap: square"/>
    </g>
    <g id="text_15">
     <!-- Foxes -->
     <g transform="translate(364.70625 38.476562)scale(0.1 -0.1)">
      <defs>
       <path id="DejaVuSans-46" d="M 628 4666 
L 3309 4666 
L 3309 4134 
L 1259 4134 
L 1259 2759 
L 3109 2759 
L 3109 2228 
L 1259 2228 
L 1259 0 
L 628 0 
L 628 4666 
z
" transform="scale(0.015625)"/>
       <path id="DejaVuSans-6f" d="M 1959 3097 
Q 1497 3097 1228 2736 
Q 959 2375 959 1747 
Q 959 1119 1226 758 
Q 1494 397 1959 397 
Q 2419 397 2687 759 
Q 2956 1122 2956 1747 
Q 2956 2369 2687 2733 
Q 2419 3097 1959 3097 
z
M 1959 3584 
Q 2709 3584 3137 3096 
Q 3566 2609 3566 1747 
Q 3566 888 3137 398 
Q 2709 -91 1959 -91 
Q 1206 -91 779 398 
Q 353 888 353 1747 
Q 353 2609 779 3096 
Q 1206 3584 1959 3584 
z
" transform="scale(0.015625)"/>
       <path id="DejaVuSans-78" d="M 3513 3500 
L 2247 1797 
L 3578 0 
L 2900 0 
L 1881 1375 
L 863 0 
L 184 0 
L 1544 1831 
L 300 3500 
L 978 3500 
L 1906 2253 
L 2834 3500 
L 3513 3500 
z
" transform="scale(0.015625)"/>
      </defs>
      <use xlink:href="#DejaVuSans-46"/>
      <use xlink:href="#DejaVuSans-6f" x="53.894531"/>
      <use xlink:href="#DejaVuSans-78" x="111.951172"/>
      <use xlink:href="#DejaVuSans-65" x="168.005859"/>
      <use xlink:href="#DejaVuSans-73" x="229.529297"/>
     </g>
    </g>
   </g>
  </g>
  <g id="axes_2">
   <g id="patch_8">
    <path d="M 465.3375 386.6 
L 849.575 386.6 
L 849.575 7.2 
L 465.3375 7.2 
z
" style="fill: #ffffff"/>
   </g>
   <g id="matplotlib.axis_3">
    <g id="xtick_7">
     <g id="line2d_17">
      <g>
       <use xlink:href="#m3255ee3cef" x="481.028499" y="386.6" style="stroke: #000000; stroke-width: 0.8"/>
      </g>
     </g>
     <g id="text_16">
      <!-- 0 -->
      <g transform="translate(477.847249 401.198438)scale(0.1 -0.1)">
       <use xlink:href="#DejaVuSans-30"/>
      </g>
     </g>
    </g>
    <g id="xtick_8">
     <g id="line2d_18">
      <g>
       <use xlink:href="#m3255ee3cef" x="547.17233" y="386.6" style="stroke: #000000; stroke-width: 0.8"/>
      </g>
     </g>
     <g id="text_17">
      <!-- 2 -->
      <g transform="translate(543.99108 401.198438)scale(0.1 -0.1)">
       <use xlink:href="#DejaVuSans-32"/>
      </g>
     </g>
    </g>
    <g id="xtick_9">
     <g id="line2d_19">
      <g>
       <use xlink:href="#m3255ee3cef" x="613.31616" y="386.6" style="stroke: #000000; stroke-width: 0.8"/>
      </g>
     </g>
     <g id="text_18">
      <!-- 4 -->
      <g transform="translate(610.13491 401.198438)scale(0.1 -0.1)">
       <use xlink:href="#DejaVuSans-34"/>
      </g>
     </g>
    </g>
    <g id="xtick_10">
     <g id="line2d_20">
      <g>
       <use xlink:href="#m3255ee3cef" x="679.459991" y="386.6" style="stroke: #000000; stroke-width: 0.8"/>
      </g>
     </g>
     <g id="text_19">
      <!-- 6 -->
      <g transform="translate(676.278741 401.198438)scale(0.1 -0.1)">
       <use xlink:href="#DejaVuSans-36"/>
      </g>
     </g>
    </g>
    <g id="xtick_11">
     <g id="line2d_21">
      <g>
       <use xlink:href="#m3255ee3cef" x="745.603822" y="386.6" style="stroke: #000000; stroke-width: 0.8"/>
      </g>
     </g>
     <g id="text_20">
      <!-- 8 -->
      <g transform="translate(742.422572 401.198438)scale(0.1 -0.1)">
       <use xlink:href="#DejaVuSans-38"/>
      </g>
     </g>
    </g>
    <g id="xtick_12">
     <g id="line2d_22">
      <g>
       <use xlink:href="#m3255ee3cef" x="811.747652" y="386.6" style="stroke: #000000; stroke-width: 0.8"/>
      </g>
     </g>
     <g id="text_21">
      <!-- 10 -->
      <g transform="translate(805.385152 401.198438)scale(0.1 -0.1)">
       <use xlink:href="#DejaVuSans-31"/>
       <use xlink:href="#DejaVuSans-30" x="63.623047"/>
      </g>
     </g>
    </g>
    <g id="text_22">
     <!-- Rabbit population -->
     <g transform="translate(613.136719 414.876562)scale(0.1 -0.1)">
      <defs>
       <path id="DejaVuSans-20" transform="scale(0.015625)"/>
       <path id="DejaVuSans-70" d="M 1159 525 
L 1159 -1331 
L 581 -1331 
L 581 3500 
L 1159 3500 
L 1159 2969 
Q 1341 3281 1617 3432 
Q 1894 3584 2278 3584 
Q 2916 3584 3314 3078 
Q 3713 2572 3713 1747 
Q 3713 922 3314 415 
Q 2916 -91 2278 -91 
Q 1894 -91 1617 61 
Q 1341 213 1159 525 
z
M 3116 1747 
Q 3116 2381 2855 2742 
Q 2594 3103 2138 3103 
Q 1681 3103 1420 2742 
Q 1159 2381 1159 1747 
Q 1159 1113 1420 752 
Q 1681 391 2138 391 
Q 2594 391 2855 752 
Q 3116 1113 3116 1747 
z
" transform="scale(0.015625)"/>
       <path id="DejaVuSans-75" d="M 544 1381 
L 544 3500 
L 1119 3500 
L 1119 1403 
Q 1119 906 1312 657 
Q 1506 409 1894 409 
Q 2359 409 2629 706 
Q 2900 1003 2900 1516 
L 2900 3500 
L 3475 3500 
L 3475 0 
L 2900 0 
L 2900 538 
Q 2691 219 2414 64 
Q 2138 -91 1772 -91 
Q 1169 -91 856 284 
Q 544 659 544 1381 
z
M 1991 3584 
L 1991 3584 
z
" transform="scale(0.015625)"/>
       <path id="DejaVuSans-6c" d="M 603 4863 
L 1178 4863 
L 1178 0 
L 603 0 
L 603 4863 
z
" transform="scale(0.015625)"/>
       <path id="DejaVuSans-6e" d="M 3513 2113 
L 3513 0 
L 2938 0 
L 2938 2094 
Q 2938 2591 2744 2837 
Q 2550 3084 2163 3084 
Q 1697 3084 1428 2787 
Q 1159 2491 1159 1978 
L 1159 0 
L 581 0 
L 581 3500 
L 1159 3500 
L 1159 2956 
Q 1366 3272 1645 3428 
Q 1925 3584 2291 3584 
Q 2894 3584 3203 3211 
Q 3513 2838 3513 2113 
z
" transform="scale(0.015625)"/>
      </defs>
      <use xlink:href="#DejaVuSans-52"/>
      <use xlink:href="#DejaVuSans-61" x="67.232422"/>
      <use xlink:href="#DejaVuSans-62" x="128.511719"/>
      <use xlink:href="#DejaVuSans-62" x="191.988281"/>
      <use xlink:href="#DejaVuSans-69" x="255.464844"/>
      <use xlink:href="#DejaVuSans-74" x="283.248047"/>
      <use xlink:href="#DejaVuSans-20" x="322.457031"/>
      <use xlink:href="#DejaVuSans-70" x="354.244141"/>
      <use xlink:href="#DejaVuSans-6f" x="417.720703"/>
      <use xlink:href="#DejaVuSans-70" x="478.902344"/>
      <use xlink:href="#DejaVuSans-75" x="542.378906"/>
      <use xlink:href="#DejaVuSans-6c" x="605.757812"/>
      <use xlink:href="#DejaVuSans-61" x="633.541016"/>
      <use xlink:href="#DejaVuSans-74" x="694.820312"/>
      <use xlink:href="#DejaVuSans-69" x="734.029297"/>
      <use xlink:href="#DejaVuSans-6f" x="761.8125"/>
      <use xlink:href="#DejaVuSans-6e" x="822.994141"/>
     </g>
    </g>
   </g>
   <g id="matplotlib.axis_4">
    <g id="ytick_7">
     <g id="line2d_23">
      <g>
       <use xlink:href="#m8cf927042c" x="465.3375" y="359.147522" style="stroke: #000000; stroke-width: 0.8"/>
      </g>
     </g>
     <g id="text_23">
      <!-- 0.25 -->
      <g transform="translate(436.071875 362.946741)scale(0.1 -0.1)">
       <defs>
        <path id="DejaVuSans-2e" d="M 684 794 
L 1344 794 
L 1344 0 
L 684 0 
L 684 794 
z
" transform="scale(0.015625)"/>
        <path id="DejaVuSans-35" d="M 691 4666 
L 3169 4666 
L 3169 4134 
L 1269 4134 
L 1269 2991 
Q 1406 3038 1543 3061 
Q 1681 3084 1819 3084 
Q 2600 3084 3056 2656 
Q 3513 2228 3513 1497 
Q 3513 744 3044 326 
Q 2575 -91 1722 -91 
Q 1428 -91 1123 -41 
Q 819 9 494 109 
L 494 744 
Q 775 591 1075 516 
Q 1375 441 1709 441 
Q 2250 441 2565 725 
Q 2881 1009 2881 1497 
Q 2881 1984 2565 2268 
Q 2250 2553 1709 2553 
Q 1456 2553 1204 2497 
Q 953 2441 691 2322 
L 691 4666 
z
" transform="scale(0.015625)"/>
       </defs>
       <use xlink:href="#DejaVuSans-30"/>
       <use xlink:href="#DejaVuSans-2e" x="63.623047"/>
       <use xlink:href="#DejaVuSans-32" x="95.410156"/>
       <use xlink:href="#DejaVuSans-35" x="159.033203"/>
      </g>
     </g>
    </g>
    <g id="ytick_8">
     <g id="line2d_24">
      <g>
       <use xlink:href="#m8cf927042c" x="465.3375" y="313.933565" style="stroke: #000000; stroke-width: 0.8"/>
      </g>
     </g>
     <g id="text_24">
      <!-- 0.50 -->
      <g transform="translate(436.071875 317.732784)scale(0.1 -0.1)">
       <use xlink:href="#DejaVuSans-30"/>
       <use xlink:href="#DejaVuSans-2e" x="63.623047"/>
       <use xlink:href="#DejaVuSans-35" x="95.410156"/>
       <use xlink:href="#DejaVuSans-30" x="159.033203"/>
      </g>
     </g>
    </g>
    <g id="ytick_9">
     <g id="line2d_25">
      <g>
       <use xlink:href="#m8cf927042c" x="465.3375" y="268.719608" style="stroke: #000000; stroke-width: 0.8"/>
      </g>
     </g>
     <g id="text_25">
      <!-- 0.75 -->
      <g transform="translate(436.071875 272.518827)scale(0.1 -0.1)">
       <defs>
        <path id="DejaVuSans-37" d="M 525 4666 
L 3525 4666 
L 3525 4397 
L 1831 0 
L 1172 0 
L 2766 4134 
L 525 4134 
L 525 4666 
z
" transform="scale(0.015625)"/>
       </defs>
       <use xlink:href="#DejaVuSans-30"/>
       <use xlink:href="#DejaVuSans-2e" x="63.623047"/>
       <use xlink:href="#DejaVuSans-37" x="95.410156"/>
       <use xlink:href="#DejaVuSans-35" x="159.033203"/>
      </g>
     </g>
    </g>
    <g id="ytick_10">
     <g id="line2d_26">
      <g>
       <use xlink:href="#m8cf927042c" x="465.3375" y="223.505652" style="stroke: #000000; stroke-width: 0.8"/>
      </g>
     </g>
     <g id="text_26">
      <!-- 1.00 -->
      <g transform="translate(436.071875 227.30487)scale(0.1 -0.1)">
       <use xlink:href="#DejaVuSans-31"/>
       <use xlink:href="#DejaVuSans-2e" x="63.623047"/>
       <use xlink:href="#DejaVuSans-30" x="95.410156"/>
       <use xlink:href="#DejaVuSans-30" x="159.033203"/>
      </g>
     </g>
    </g>
    <g id="ytick_11">
     <g id="line2d_27">
      <g>
       <use xlink:href="#m8cf927042c" x="465.3375" y="178.291695" style="stroke: #000000; stroke-width: 0.8"/>
      </g>
     </g>
     <g id="text_27">
      <!-- 1.25 -->
      <g transform="translate(436.071875 182.090914)scale(0.1 -0.1)">
       <use xlink:href="#DejaVuSans-31"/>
       <use xlink:href="#DejaVuSans-2e" x="63.623047"/>
       <use xlink:href="#DejaVuSans-32" x="95.410156"/>
       <use xlink:href="#DejaVuSans-35" x="159.033203"/>
      </g>
     </g>
    </g>
    <g id="ytick_12">
     <g id="line2d_28">
      <g>
       <use xlink:href="#m8cf927042c" x="465.3375" y="133.077738" style="stroke: #000000; stroke-width: 0.8"/>
      </g>
     </g>
     <g id="text_28">
      <!-- 1.50 -->
      <g transform="translate(436.071875 136.876957)scale(0.1 -0.1)">
       <use xlink:href="#DejaVuSans-31"/>
       <use xlink:href="#DejaVuSans-2e" x="63.623047"/>
       <use xlink:href="#DejaVuSans-35" x="95.410156"/>
       <use xlink:href="#DejaVuSans-30" x="159.033203"/>
      </g>
     </g>
    </g>
    <g id="ytick_13">
     <g id="line2d_29">
      <g>
       <use xlink:href="#m8cf927042c" x="465.3375" y="87.863781" style="stroke: #000000; stroke-width: 0.8"/>
      </g>
     </g>
     <g id="text_29">
      <!-- 1.75 -->
      <g transform="translate(436.071875 91.663)scale(0.1 -0.1)">
       <use xlink:href="#DejaVuSans-31"/>
       <use xlink:href="#DejaVuSans-2e" x="63.623047"/>
       <use xlink:href="#DejaVuSans-37" x="95.410156"/>
       <use xlink:href="#DejaVuSans-35" x="159.033203"/>
      </g>
     </g>
    </g>
    <g id="ytick_14">
     <g id="line2d_30">
      <g>
       <use xlink:href="#m8cf927042c" x="465.3375" y="42.649824" style="stroke: #000000; stroke-width: 0.8"/>
      </g>
     </g>
     <g id="text_30">
      <!-- 2.00 -->
      <g transform="translate(436.071875 46.449043)scale(0.1 -0.1)">
       <use xlink:href="#DejaVuSans-32"/>
       <use xlink:href="#DejaVuSans-2e" x="63.623047"/>
       <use xlink:href="#DejaVuSans-30" x="95.410156"/>
       <use xlink:href="#DejaVuSans-30" x="159.033203"/>
      </g>
     </g>
    </g>
    <g id="text_31">
     <!-- Foxes population -->
     <g transform="translate(429.992188 239.178125)rotate(-90)scale(0.1 -0.1)">
      <use xlink:href="#DejaVuSans-46"/>
      <use xlink:href="#DejaVuSans-6f" x="53.894531"/>
      <use xlink:href="#DejaVuSans-78" x="111.951172"/>
      <use xlink:href="#DejaVuSans-65" x="168.005859"/>
      <use xlink:href="#DejaVuSans-73" x="229.529297"/>
      <use xlink:href="#DejaVuSans-20" x="281.628906"/>
      <use xlink:href="#DejaVuSans-70" x="313.416016"/>
      <use xlink:href="#DejaVuSans-6f" x="376.892578"/>
      <use xlink:href="#DejaVuSans-70" x="438.074219"/>
      <use xlink:href="#DejaVuSans-75" x="501.550781"/>
      <use xlink:href="#DejaVuSans-6c" x="564.929688"/>
      <use xlink:href="#DejaVuSans-61" x="592.712891"/>
      <use xlink:href="#DejaVuSans-74" x="653.992188"/>
      <use xlink:href="#DejaVuSans-69" x="693.201172"/>
      <use xlink:href="#DejaVuSans-6f" x="720.984375"/>
      <use xlink:href="#DejaVuSans-6e" x="782.166016"/>
     </g>
    </g>
   </g>
   <g id="line2d_31">
    <path d="M 613.31616 42.649824 
L 605.552481 39.230624 
L 598.139919 36.201635 
L 591.082009 33.553205 
L 584.379088 31.274053 
L 578.028296 29.351272 
L 572.023914 27.770498 
L 566.358554 26.516705 
L 561.021335 25.573565 
L 556.000583 24.924737 
L 551.284206 24.554039 
L 546.859691 24.445455 
L 542.714109 24.583127 
L 538.834112 24.951363 
L 535.205933 25.534632 
L 531.815387 26.317564 
L 528.648546 27.285425 
L 525.692151 28.424628 
L 522.933266 29.722189 
L 520.359529 31.165741 
L 517.959145 32.743539 
L 515.720891 34.444457 
L 513.634112 36.257992 
L 511.688727 38.174257 
L 509.875223 40.18399 
L 508.184596 42.278265 
L 506.608181 44.448211 
L 505.137985 46.68684 
L 502.486568 51.344457 
L 500.175387 56.203081 
L 498.156513 61.220024 
L 496.389047 66.357947 
L 494.839119 71.584861 
L 493.479891 76.874126 
L 492.291551 82.20445 
L 490.781546 90.234148 
L 489.530583 98.254527 
L 488.489927 106.225997 
L 487.361245 116.723403 
L 486.463658 127.019263 
L 485.591736 139.549557 
L 484.812869 154.029002 
L 484.0865 172.325235 
L 483.500988 193.533554 
L 483.091873 216.609895 
L 482.845065 243.627916 
L 482.820189 269.451421 
L 483.000095 289.995976 
L 483.339688 305.450244 
L 483.819299 317.075435 
L 484.393292 325.771123 
L 485.017055 332.179066 
L 485.730448 337.38089 
L 486.51519 341.574053 
L 487.33706 344.915078 
L 488.32579 348.032058 
L 489.299558 350.464117 
L 490.430602 352.750028 
L 491.741197 354.893054 
L 493.271886 356.894209 
L 494.676828 358.395614 
L 496.261393 359.810524 
L 498.049092 361.139705 
L 500.068826 362.382935 
L 502.354875 363.539009 
L 504.946908 364.605732 
L 507.889977 365.579926 
L 511.234519 366.457424 
L 515.036355 367.233074 
L 519.356693 367.900737 
L 524.262123 368.453287 
L 529.824621 368.882614 
L 536.121548 369.179619 
L 545.152067 369.349341 
L 553.380991 369.290071 
L 562.607393 369.020561 
L 575.831101 368.391973 
L 591.20425 367.398277 
L 605.189349 366.276431 
L 620.742082 364.782711 
L 633.450567 363.359177 
L 647.050108 361.620006 
L 661.524325 359.507051 
L 671.646207 357.858693 
L 682.133083 355.993987 
L 692.971204 353.890228 
L 704.144795 351.523532 
L 715.674249 348.904025 
L 727.487886 345.987947 
L 739.446751 342.691968 
L 745.434804 340.876815 
L 751.403052 338.937659 
L 757.33164 336.865461 
L 763.200162 334.651492 
L 768.987659 332.287324 
L 774.672621 329.764841 
L 780.232984 327.076228 
L 785.646133 324.213981 
L 790.888901 321.1709 
L 795.937568 317.940091 
L 800.767862 314.514967 
L 805.354959 310.889248 
L 809.673484 307.056958 
L 813.697507 303.012432 
L 817.400548 298.750305 
L 820.755575 294.265525 
L 823.735003 289.553341 
L 826.310695 284.60931 
L 828.453961 279.429297 
L 830.13556 274.009473 
L 831.325699 268.346312 
L 831.994031 262.436598 
L 832.109659 256.277421 
L 831.641133 249.866175 
L 830.55645 243.200562 
L 828.823056 236.278592 
L 826.407845 229.098577 
L 823.277157 221.65914 
L 819.396781 213.959207 
L 814.626488 205.95894 
L 808.879542 197.650241 
L 802.276802 189.108098 
L 794.934509 180.403906 
L 786.96296 171.604949 
L 778.466506 162.774393 
L 769.543552 153.971294 
L 760.286557 145.250591 
L 750.782037 136.663111 
L 741.110558 128.255566 
L 731.346745 120.070555 
L 721.559274 112.146562 
L 711.810876 104.517957 
L 702.158338 97.214998 
L 692.652499 90.263828 
L 683.338254 83.686474 
L 674.254553 77.500852 
L 665.434398 71.720762 
L 656.904847 66.355893 
L 648.687012 61.411816 
L 640.796059 56.88999 
L 633.24121 52.787762 
L 626.025739 49.098363 
L 619.146975 45.810908 
L 612.596303 42.910403 
L 606.359161 40.377737 
L 600.415041 38.189684 
L 594.73749 36.318907 
L 589.29411 34.733953 
L 584.046556 33.399256 
L 578.950538 32.275136 
L 569.006223 30.479335 
L 559.010954 28.963275 
L 554.187229 28.429439 
L 549.65427 28.160767 
L 545.398951 28.141495 
L 541.408267 28.356295 
L 537.669343 28.79027 
L 534.169426 29.428959 
L 530.89589 30.258334 
L 527.836233 31.264801 
L 524.978081 32.435198 
L 522.309181 33.756799 
L 519.817406 35.217392 
L 517.491351 36.805864 
L 515.320323 38.511837 
L 513.29417 40.325467 
L 511.403279 42.237444 
L 509.638575 44.238988 
L 507.991524 46.321854 
L 506.454132 48.478329 
L 505.018944 50.701231 
L 502.427813 55.319869 
L 500.166279 60.127959 
L 498.189963 65.086501 
L 496.459921 70.161579 
L 494.942027 75.323052 
L 493.60697 80.544559 
L 491.894944 88.441017 
L 490.477982 96.362345 
L 489.30722 104.262443 
L 488.0399 114.696158 
L 487.035637 124.959931 
L 486.057081 137.480688 
L 485.182581 151.9782 
L 484.454013 168.099287 
L 483.824804 187.526393 
L 483.348784 209.291203 
L 483.032827 234.005222 
L 482.920934 259.924215 
L 483.038813 283.081741 
L 483.348059 300.475738 
L 483.776223 312.686743 
L 484.258354 321.03265 
L 484.910856 328.548474 
L 485.660753 334.66792 
L 486.497541 339.63498 
L 487.40765 343.639022 
L 488.360733 346.82869 
L 489.307166 349.321443 
L 490.420346 351.667351 
L 491.730278 353.868696 
L 492.942112 355.526652 
L 494.319586 357.0933 
L 495.882531 358.568576 
L 497.652102 359.952054 
L 499.650781 361.242943 
L 501.902372 362.440087 
L 504.432592 363.541179 
L 507.281285 364.539501 
L 510.501502 365.438412 
L 514.15141 366.240365 
L 518.294496 366.944083 
L 522.999558 367.544568 
L 528.340709 368.033093 
L 534.39738 368.397204 
L 541.254312 368.620722 
L 549.001565 368.683742 
L 557.734512 368.562632 
L 567.553841 368.230034 
L 578.565554 367.654864 
L 590.880969 366.802312 
L 604.611973 365.631822 
L 615.842654 364.486506 
L 632.180597 362.554651 
L 645.531955 360.767405 
L 659.829018 358.638048 
L 675.022197 356.099643 
L 685.601867 354.138688 
L 696.495075 351.92845 
L 707.650362 349.435383 
L 719.006463 346.622286 
L 730.492309 343.4483 
L 742.027025 339.868912 
L 747.784755 337.912281 
L 753.519933 335.83595 
L 759.219691 333.633326 
L 764.870724 331.297711 
L 770.471646 328.832402 
L 776.000106 326.230321 
L 781.419908 323.475909 
L 786.695651 320.554728 
L 791.792726 317.453457 
L 796.677316 314.159893 
L 801.316396 310.662954 
L 805.677734 306.952674 
L 809.729891 303.020206 
L 813.44222 298.857824 
L 816.784867 294.458917 
L 819.728769 289.817996 
L 822.245659 284.930687 
L 824.308057 279.793739 
L 825.889282 274.405014 
L 826.96344 268.763498 
L 827.505432 262.869293 
L 827.490952 256.723618 
L 826.896485 250.328814 
L 825.69931 243.688339 
L 823.877497 236.806769 
L 821.409909 229.689799 
L 818.276203 222.344243 
L 814.443965 214.767832 
L 809.894753 206.962205 
L 804.672107 198.969991 
L 798.822097 190.833994 
L 792.391085 182.595568 
L 785.425724 174.294619 
L 777.972962 165.96961 
L 770.080039 157.657551 
L 761.794488 149.394009 
L 753.164134 141.213103 
L 744.237095 133.147502 
L 735.061782 125.228431 
L 725.686899 117.485666 
L 716.161442 109.947536 
L 706.534701 102.640923 
L 696.856257 95.591262 
L 687.175985 88.822539 
L 677.544052 82.357295 
L 668.010919 76.216622 
L 658.627338 70.420165 
L 649.444355 64.986123 
L 640.517077 59.940424 
L 631.878218 55.29759 
L 623.539743 51.051428 
L 615.511707 47.19499 
L 607.802307 43.720646 
L 600.417877 40.620083 
L 593.362893 37.884305 
L 586.639974 35.503634 
L 580.249875 33.467707 
L 574.191497 31.765481 
L 568.461877 30.385227 
L 563.056195 29.314535 
L 557.967772 28.540313 
L 553.188067 28.048784 
L 548.706683 27.82549 
L 544.511361 27.855289 
L 540.587984 28.122356 
L 536.920576 28.610183 
L 533.491299 29.301582 
L 530.28046 30.178677 
L 527.266674 31.222989 
L 524.444613 32.423718 
L 521.809991 33.772494 
L 519.350256 35.257933 
L 517.053565 36.869202 
L 514.908784 38.59602 
L 512.905487 40.428658 
L 511.033958 42.357936 
L 509.285188 44.375226 
L 507.650878 46.47245 
L 506.123438 48.642081 
L 503.362349 53.171217 
L 500.955372 57.91344 
L 498.867032 62.828248 
L 497.049048 67.873678 
L 495.456847 73.014791 
L 494.060326 78.225277 
L 492.832911 83.481786 
L 491.259423 91.40904 
L 489.95254 99.338305 
L 488.865829 107.227416 
L 487.687504 117.626316 
L 486.752088 127.838681 
L 485.839474 140.28046 
L 485.020162 154.668695 
L 484.336387 170.652021 
L 483.745371 189.897054 
L 483.269917 213.299316 
L 482.981048 239.136732 
L 482.913269 264.28534 
L 483.056334 285.594008 
L 483.364354 301.634718 
L 483.806054 313.705525 
L 484.349151 322.737535 
L 484.799439 327.970321 
L 484.799439 327.970321 
" clip-path="url(#p2652f6e648)" style="fill: none; stroke: #000000; stroke-width: 1.5; stroke-linecap: square"/>
   </g>
   <g id="patch_9">
    <path d="M 465.3375 386.6 
L 465.3375 7.2 
" style="fill: none; stroke: #000000; stroke-width: 0.8; stroke-linejoin: miter; stroke-linecap: square"/>
   </g>
   <g id="patch_10">
    <path d="M 849.575 386.6 
L 849.575 7.2 
" style="fill: none; stroke: #000000; stroke-width: 0.8; stroke-linejoin: miter; stroke-linecap: square"/>
   </g>
   <g id="patch_11">
    <path d="M 465.3375 386.6 
L 849.575 386.6 
" style="fill: none; stroke: #000000; stroke-width: 0.8; stroke-linejoin: miter; stroke-linecap: square"/>
   </g>
   <g id="patch_12">
    <path d="M 465.3375 7.2 
L 849.575 7.2 
" style="fill: none; stroke: #000000; stroke-width: 0.8; stroke-linejoin: miter; stroke-linecap: square"/>
   </g>
  </g>
 </g>
 <defs>
  <clipPath id="pdf6899a2ea">
   <rect x="26.925" y="7.2" width="384.2375" height="379.4"/>
  </clipPath>
  <clipPath id="p2652f6e648">
   <rect x="465.3375" y="7.2" width="384.2375" height="379.4"/>
  </clipPath>
 </defs>
</svg>
