<?xml version="1.0" encoding="utf-8" standalone="no"?>
<!DOCTYPE svg PUBLIC "-//W3C//DTD SVG 1.1//EN"
  "http://www.w3.org/Graphics/SVG/1.1/DTD/svg11.dtd">
<svg xmlns:xlink="http://www.w3.org/1999/xlink" width="856.703125pt" height="424.15625pt" viewBox="0 0 856.703125 424.15625" xmlns="http://www.w3.org/2000/svg" version="1.1">
 <metadata>
  <rdf:RDF xmlns:dc="http://purl.org/dc/elements/1.1/" xmlns:cc="http://creativecommons.org/ns#" xmlns:rdf="http://www.w3.org/1999/02/22-rdf-syntax-ns#">
   <cc:Work>
    <dc:type rdf:resource="http://purl.org/dc/dcmitype/StillImage"/>
    <dc:date>2024-10-07T21:58:00.342346</dc:date>
    <dc:format>image/svg+xml</dc:format>
    <dc:creator>
     <cc:Agent>
      <dc:title>Matplotlib v3.5.2, https://matplotlib.org/</dc:title>
     </cc:Agent>
    </dc:creator>
   </cc:Work>
  </rdf:RDF>
 </metadata>
 <defs>
  <style type="text/css">*{stroke-linejoin: round; stroke-linecap: butt}</style>
 </defs>
 <g id="figure_1">
  <g id="patch_1">
   <path d="M -0 424.15625 
L 856.703125 424.15625 
L 856.703125 0 
L -0 0 
z
" style="fill: #ffffff"/>
  </g>
  <g id="axes_1">
   <g id="patch_2">
    <path d="M 30.103125 386.6 
L 415.903125 386.6 
L 415.903125 7.2 
L 30.103125 7.2 
z
" style="fill: #ffffff"/>
   </g>
   <g id="matplotlib.axis_1">
    <g id="xtick_1">
     <g id="line2d_1">
      <defs>
       <path id="m661430a8d1" d="M 0 0 
L 0 3.5 
" style="stroke: #000000; stroke-width: 0.8"/>
      </defs>
      <g>
       <use xlink:href="#m661430a8d1" x="47.639489" y="386.6" style="stroke: #000000; stroke-width: 0.8"/>
      </g>
     </g>
     <g id="text_1">
      <!-- 0 -->
      <g transform="translate(44.458239 401.198437)scale(0.1 -0.1)">
       <defs>
        <path id="DejaVuSans-30" d="M 2034 4250 
Q 1547 4250 1301 3770 
Q 1056 3291 1056 2328 
Q 1056 1369 1301 889 
Q 1547 409 2034 409 
Q 2525 409 2770 889 
Q 3016 1369 3016 2328 
Q 3016 3291 2770 3770 
Q 2525 4250 2034 4250 
z
M 2034 4750 
Q 2819 4750 3233 4129 
Q 3647 3509 3647 2328 
Q 3647 1150 3233 529 
Q 2819 -91 2034 -91 
Q 1250 -91 836 529 
Q 422 1150 422 2328 
Q 422 3509 836 4129 
Q 1250 4750 2034 4750 
z
" transform="scale(0.015625)"/>
       </defs>
       <use xlink:href="#DejaVuSans-30"/>
      </g>
     </g>
    </g>
    <g id="xtick_2">
     <g id="line2d_2">
      <g>
       <use xlink:href="#m661430a8d1" x="117.784943" y="386.6" style="stroke: #000000; stroke-width: 0.8"/>
      </g>
     </g>
     <g id="text_2">
      <!-- 2 -->
      <g transform="translate(114.603693 401.198437)scale(0.1 -0.1)">
       <defs>
        <path id="DejaVuSans-32" d="M 1228 531 
L 3431 531 
L 3431 0 
L 469 0 
L 469 531 
Q 828 903 1448 1529 
Q 2069 2156 2228 2338 
Q 2531 2678 2651 2914 
Q 2772 3150 2772 3378 
Q 2772 3750 2511 3984 
Q 2250 4219 1831 4219 
Q 1534 4219 1204 4116 
Q 875 4013 500 3803 
L 500 4441 
Q 881 4594 1212 4672 
Q 1544 4750 1819 4750 
Q 2544 4750 2975 4387 
Q 3406 4025 3406 3419 
Q 3406 3131 3298 2873 
Q 3191 2616 2906 2266 
Q 2828 2175 2409 1742 
Q 1991 1309 1228 531 
z
" transform="scale(0.015625)"/>
       </defs>
       <use xlink:href="#DejaVuSans-32"/>
      </g>
     </g>
    </g>
    <g id="xtick_3">
     <g id="line2d_3">
      <g>
       <use xlink:href="#m661430a8d1" x="187.930398" y="386.6" style="stroke: #000000; stroke-width: 0.8"/>
      </g>
     </g>
     <g id="text_3">
      <!-- 4 -->
      <g transform="translate(184.749148 401.198437)scale(0.1 -0.1)">
       <defs>
        <path id="DejaVuSans-34" d="M 2419 4116 
L 825 1625 
L 2419 1625 
L 2419 4116 
z
M 2253 4666 
L 3047 4666 
L 3047 1625 
L 3713 1625 
L 3713 1100 
L 3047 1100 
L 3047 0 
L 2419 0 
L 2419 1100 
L 313 1100 
L 313 1709 
L 2253 4666 
z
" transform="scale(0.015625)"/>
       </defs>
       <use xlink:href="#DejaVuSans-34"/>
      </g>
     </g>
    </g>
    <g id="xtick_4">
     <g id="line2d_4">
      <g>
       <use xlink:href="#m661430a8d1" x="258.075852" y="386.6" style="stroke: #000000; stroke-width: 0.8"/>
      </g>
     </g>
     <g id="text_4">
      <!-- 6 -->
      <g transform="translate(254.894602 401.198437)scale(0.1 -0.1)">
       <defs>
        <path id="DejaVuSans-36" d="M 2113 2584 
Q 1688 2584 1439 2293 
Q 1191 2003 1191 1497 
Q 1191 994 1439 701 
Q 1688 409 2113 409 
Q 2538 409 2786 701 
Q 3034 994 3034 1497 
Q 3034 2003 2786 2293 
Q 2538 2584 2113 2584 
z
M 3366 4563 
L 3366 3988 
Q 3128 4100 2886 4159 
Q 2644 4219 2406 4219 
Q 1781 4219 1451 3797 
Q 1122 3375 1075 2522 
Q 1259 2794 1537 2939 
Q 1816 3084 2150 3084 
Q 2853 3084 3261 2657 
Q 3669 2231 3669 1497 
Q 3669 778 3244 343 
Q 2819 -91 2113 -91 
Q 1303 -91 875 529 
Q 447 1150 447 2328 
Q 447 3434 972 4092 
Q 1497 4750 2381 4750 
Q 2619 4750 2861 4703 
Q 3103 4656 3366 4563 
z
" transform="scale(0.015625)"/>
       </defs>
       <use xlink:href="#DejaVuSans-36"/>
      </g>
     </g>
    </g>
    <g id="xtick_5">
     <g id="line2d_5">
      <g>
       <use xlink:href="#m661430a8d1" x="328.221307" y="386.6" style="stroke: #000000; stroke-width: 0.8"/>
      </g>
     </g>
     <g id="text_5">
      <!-- 8 -->
      <g transform="translate(325.040057 401.198437)scale(0.1 -0.1)">
       <defs>
        <path id="DejaVuSans-38" d="M 2034 2216 
Q 1584 2216 1326 1975 
Q 1069 1734 1069 1313 
Q 1069 891 1326 650 
Q 1584 409 2034 409 
Q 2484 409 2743 651 
Q 3003 894 3003 1313 
Q 3003 1734 2745 1975 
Q 2488 2216 2034 2216 
z
M 1403 2484 
Q 997 2584 770 2862 
Q 544 3141 544 3541 
Q 544 4100 942 4425 
Q 1341 4750 2034 4750 
Q 2731 4750 3128 4425 
Q 3525 4100 3525 3541 
Q 3525 3141 3298 2862 
Q 3072 2584 2669 2484 
Q 3125 2378 3379 2068 
Q 3634 1759 3634 1313 
Q 3634 634 3220 271 
Q 2806 -91 2034 -91 
Q 1263 -91 848 271 
Q 434 634 434 1313 
Q 434 1759 690 2068 
Q 947 2378 1403 2484 
z
M 1172 3481 
Q 1172 3119 1398 2916 
Q 1625 2713 2034 2713 
Q 2441 2713 2670 2916 
Q 2900 3119 2900 3481 
Q 2900 3844 2670 4047 
Q 2441 4250 2034 4250 
Q 1625 4250 1398 4047 
Q 1172 3844 1172 3481 
z
" transform="scale(0.015625)"/>
       </defs>
       <use xlink:href="#DejaVuSans-38"/>
      </g>
     </g>
    </g>
    <g id="xtick_6">
     <g id="line2d_6">
      <g>
       <use xlink:href="#m661430a8d1" x="398.366761" y="386.6" style="stroke: #000000; stroke-width: 0.8"/>
      </g>
     </g>
     <g id="text_6">
      <!-- 10 -->
      <g transform="translate(392.004261 401.198437)scale(0.1 -0.1)">
       <defs>
        <path id="DejaVuSans-31" d="M 794 531 
L 1825 531 
L 1825 4091 
L 703 3866 
L 703 4441 
L 1819 4666 
L 2450 4666 
L 2450 531 
L 3481 531 
L 3481 0 
L 794 0 
L 794 531 
z
" transform="scale(0.015625)"/>
       </defs>
       <use xlink:href="#DejaVuSans-31"/>
       <use xlink:href="#DejaVuSans-30" x="63.623047"/>
      </g>
     </g>
    </g>
    <g id="text_7">
     <!-- Time -->
     <g transform="translate(210.769531 414.876562)scale(0.1 -0.1)">
      <defs>
       <path id="DejaVuSans-54" d="M -19 4666 
L 3928 4666 
L 3928 4134 
L 2272 4134 
L 2272 0 
L 1638 0 
L 1638 4134 
L -19 4134 
L -19 4666 
z
" transform="scale(0.015625)"/>
       <path id="DejaVuSans-69" d="M 603 3500 
L 1178 3500 
L 1178 0 
L 603 0 
L 603 3500 
z
M 603 4863 
L 1178 4863 
L 1178 4134 
L 603 4134 
L 603 4863 
z
" transform="scale(0.015625)"/>
       <path id="DejaVuSans-6d" d="M 3328 2828 
Q 3544 3216 3844 3400 
Q 4144 3584 4550 3584 
Q 5097 3584 5394 3201 
Q 5691 2819 5691 2113 
L 5691 0 
L 5113 0 
L 5113 2094 
Q 5113 2597 4934 2840 
Q 4756 3084 4391 3084 
Q 3944 3084 3684 2787 
Q 3425 2491 3425 1978 
L 3425 0 
L 2847 0 
L 2847 2094 
Q 2847 2600 2669 2842 
Q 2491 3084 2119 3084 
Q 1678 3084 1418 2786 
Q 1159 2488 1159 1978 
L 1159 0 
L 581 0 
L 581 3500 
L 1159 3500 
L 1159 2956 
Q 1356 3278 1631 3431 
Q 1906 3584 2284 3584 
Q 2666 3584 2933 3390 
Q 3200 3197 3328 2828 
z
" transform="scale(0.015625)"/>
       <path id="DejaVuSans-65" d="M 3597 1894 
L 3597 1613 
L 953 1613 
Q 991 1019 1311 708 
Q 1631 397 2203 397 
Q 2534 397 2845 478 
Q 3156 559 3463 722 
L 3463 178 
Q 3153 47 2828 -22 
Q 2503 -91 2169 -91 
Q 1331 -91 842 396 
Q 353 884 353 1716 
Q 353 2575 817 3079 
Q 1281 3584 2069 3584 
Q 2775 3584 3186 3129 
Q 3597 2675 3597 1894 
z
M 3022 2063 
Q 3016 2534 2758 2815 
Q 2500 3097 2075 3097 
Q 1594 3097 1305 2825 
Q 1016 2553 972 2059 
L 3022 2063 
z
" transform="scale(0.015625)"/>
      </defs>
      <use xlink:href="#DejaVuSans-54"/>
      <use xlink:href="#DejaVuSans-69" x="57.958984"/>
      <use xlink:href="#DejaVuSans-6d" x="85.742188"/>
      <use xlink:href="#DejaVuSans-65" x="183.154297"/>
     </g>
    </g>
   </g>
   <g id="matplotlib.axis_2">
    <g id="ytick_1">
     <g id="line2d_7">
      <defs>
       <path id="mc6efa02d9f" d="M 0 0 
L -3.5 0 
" style="stroke: #000000; stroke-width: 0.8"/>
      </defs>
      <g>
       <use xlink:href="#mc6efa02d9f" x="30.103125" y="349.24803" style="stroke: #000000; stroke-width: 0.8"/>
      </g>
     </g>
     <g id="text_8">
      <!-- 1.0 -->
      <g transform="translate(7.2 353.047249)scale(0.1 -0.1)">
       <defs>
        <path id="DejaVuSans-2e" d="M 684 794 
L 1344 794 
L 1344 0 
L 684 0 
L 684 794 
z
" transform="scale(0.015625)"/>
       </defs>
       <use xlink:href="#DejaVuSans-31"/>
       <use xlink:href="#DejaVuSans-2e" x="63.623047"/>
       <use xlink:href="#DejaVuSans-30" x="95.410156"/>
      </g>
     </g>
    </g>
    <g id="ytick_2">
     <g id="line2d_8">
      <g>
       <use xlink:href="#mc6efa02d9f" x="30.103125" y="295.128892" style="stroke: #000000; stroke-width: 0.8"/>
      </g>
     </g>
     <g id="text_9">
      <!-- 1.5 -->
      <g transform="translate(7.2 298.928111)scale(0.1 -0.1)">
       <defs>
        <path id="DejaVuSans-35" d="M 691 4666 
L 3169 4666 
L 3169 4134 
L 1269 4134 
L 1269 2991 
Q 1406 3038 1543 3061 
Q 1681 3084 1819 3084 
Q 2600 3084 3056 2656 
Q 3513 2228 3513 1497 
Q 3513 744 3044 326 
Q 2575 -91 1722 -91 
Q 1428 -91 1123 -41 
Q 819 9 494 109 
L 494 744 
Q 775 591 1075 516 
Q 1375 441 1709 441 
Q 2250 441 2565 725 
Q 2881 1009 2881 1497 
Q 2881 1984 2565 2268 
Q 2250 2553 1709 2553 
Q 1456 2553 1204 2497 
Q 953 2441 691 2322 
L 691 4666 
z
" transform="scale(0.015625)"/>
       </defs>
       <use xlink:href="#DejaVuSans-31"/>
       <use xlink:href="#DejaVuSans-2e" x="63.623047"/>
       <use xlink:href="#DejaVuSans-35" x="95.410156"/>
      </g>
     </g>
    </g>
    <g id="ytick_3">
     <g id="line2d_9">
      <g>
       <use xlink:href="#mc6efa02d9f" x="30.103125" y="241.009754" style="stroke: #000000; stroke-width: 0.8"/>
      </g>
     </g>
     <g id="text_10">
      <!-- 2.0 -->
      <g transform="translate(7.2 244.808973)scale(0.1 -0.1)">
       <use xlink:href="#DejaVuSans-32"/>
       <use xlink:href="#DejaVuSans-2e" x="63.623047"/>
       <use xlink:href="#DejaVuSans-30" x="95.410156"/>
      </g>
     </g>
    </g>
    <g id="ytick_4">
     <g id="line2d_10">
      <g>
       <use xlink:href="#mc6efa02d9f" x="30.103125" y="186.890617" style="stroke: #000000; stroke-width: 0.8"/>
      </g>
     </g>
     <g id="text_11">
      <!-- 2.5 -->
      <g transform="translate(7.2 190.689835)scale(0.1 -0.1)">
       <use xlink:href="#DejaVuSans-32"/>
       <use xlink:href="#DejaVuSans-2e" x="63.623047"/>
       <use xlink:href="#DejaVuSans-35" x="95.410156"/>
      </g>
     </g>
    </g>
    <g id="ytick_5">
     <g id="line2d_11">
      <g>
       <use xlink:href="#mc6efa02d9f" x="30.103125" y="132.771479" style="stroke: #000000; stroke-width: 0.8"/>
      </g>
     </g>
     <g id="text_12">
      <!-- 3.0 -->
      <g transform="translate(7.2 136.570698)scale(0.1 -0.1)">
       <defs>
        <path id="DejaVuSans-33" d="M 2597 2516 
Q 3050 2419 3304 2112 
Q 3559 1806 3559 1356 
Q 3559 666 3084 287 
Q 2609 -91 1734 -91 
Q 1441 -91 1130 -33 
Q 819 25 488 141 
L 488 750 
Q 750 597 1062 519 
Q 1375 441 1716 441 
Q 2309 441 2620 675 
Q 2931 909 2931 1356 
Q 2931 1769 2642 2001 
Q 2353 2234 1838 2234 
L 1294 2234 
L 1294 2753 
L 1863 2753 
Q 2328 2753 2575 2939 
Q 2822 3125 2822 3475 
Q 2822 3834 2567 4026 
Q 2313 4219 1838 4219 
Q 1578 4219 1281 4162 
Q 984 4106 628 3988 
L 628 4550 
Q 988 4650 1302 4700 
Q 1616 4750 1894 4750 
Q 2613 4750 3031 4423 
Q 3450 4097 3450 3541 
Q 3450 3153 3228 2886 
Q 3006 2619 2597 2516 
z
" transform="scale(0.015625)"/>
       </defs>
       <use xlink:href="#DejaVuSans-33"/>
       <use xlink:href="#DejaVuSans-2e" x="63.623047"/>
       <use xlink:href="#DejaVuSans-30" x="95.410156"/>
      </g>
     </g>
    </g>
    <g id="ytick_6">
     <g id="line2d_12">
      <g>
       <use xlink:href="#mc6efa02d9f" x="30.103125" y="78.652341" style="stroke: #000000; stroke-width: 0.8"/>
      </g>
     </g>
     <g id="text_13">
      <!-- 3.5 -->
      <g transform="translate(7.2 82.45156)scale(0.1 -0.1)">
       <use xlink:href="#DejaVuSans-33"/>
       <use xlink:href="#DejaVuSans-2e" x="63.623047"/>
       <use xlink:href="#DejaVuSans-35" x="95.410156"/>
      </g>
     </g>
    </g>
    <g id="ytick_7">
     <g id="line2d_13">
      <g>
       <use xlink:href="#mc6efa02d9f" x="30.103125" y="24.533203" style="stroke: #000000; stroke-width: 0.8"/>
      </g>
     </g>
     <g id="text_14">
      <!-- 4.0 -->
      <g transform="translate(7.2 28.332422)scale(0.1 -0.1)">
       <use xlink:href="#DejaVuSans-34"/>
       <use xlink:href="#DejaVuSans-2e" x="63.623047"/>
       <use xlink:href="#DejaVuSans-30" x="95.410156"/>
      </g>
     </g>
    </g>
   </g>
   <g id="line2d_14">
    <path d="M 47.639489 24.533203 
L 47.990216 24.620052 
L 48.340943 24.881615 
L 49.042398 25.933476 
L 49.743852 27.694233 
L 50.445307 30.163349 
L 51.146761 33.364147 
L 52.198943 39.524126 
L 53.251125 47.174258 
L 54.654034 59.420995 
L 56.056943 73.667888 
L 57.81058 93.730949 
L 60.26567 124.75852 
L 67.630943 220.620063 
L 69.735307 244.593545 
L 71.83967 266.087737 
L 73.593307 281.981065 
L 75.346943 296.039567 
L 77.10058 308.358965 
L 78.854216 319.125984 
L 80.607852 328.586083 
L 82.361489 336.769605 
L 84.115125 343.774988 
L 85.868761 349.724878 
L 87.27167 353.797812 
L 88.67458 357.312955 
L 90.077489 360.312663 
L 91.480398 362.833236 
L 92.883307 364.90492 
L 94.286216 366.551903 
L 95.689125 367.798448 
L 96.741307 368.486802 
L 97.793489 368.971724 
L 98.84567 369.259265 
L 99.897852 369.354545 
L 100.950034 369.261754 
L 102.002216 368.984147 
L 103.054398 368.524051 
L 104.457307 367.628992 
L 105.860216 366.412608 
L 107.263125 364.872684 
L 108.666034 363.004062 
L 110.068943 360.798639 
L 111.82258 357.551126 
L 113.576216 353.731846 
L 115.329852 349.311077 
L 117.083489 344.292134 
L 118.837125 338.619194 
L 120.590761 332.226784 
L 122.344398 325.056158 
L 124.098034 317.055296 
L 126.202398 306.295057 
L 128.306761 294.20894 
L 130.411125 280.745421 
L 132.515489 265.866925 
L 134.619852 249.549829 
L 137.074943 228.682855 
L 139.530034 205.911774 
L 142.335852 177.889246 
L 146.54458 133.185475 
L 150.753307 88.839602 
L 152.85767 68.636241 
L 154.611307 53.72942 
L 156.014216 43.531253 
L 157.066398 37.125619 
L 158.11858 31.906611 
L 159.170761 27.987129 
L 159.872216 26.149754 
L 160.57367 24.963013 
L 160.924398 24.620115 
L 161.275125 24.447022 
L 161.625852 24.445455 
L 161.97658 24.616815 
L 162.327307 24.962189 
L 163.028761 26.177724 
L 163.730216 28.094385 
L 164.43167 30.709408 
L 165.133125 34.01495 
L 166.185307 40.238311 
L 167.237489 47.91997 
L 168.640398 60.269961 
L 170.043307 74.761589 
L 171.796943 95.274014 
L 174.252034 126.80942 
L 181.968034 228.613673 
L 184.072398 252.438969 
L 185.826034 269.89761 
L 187.930398 288.579109 
L 189.684034 302.267574 
L 191.43767 314.243463 
L 193.191307 324.54086 
L 194.594216 331.616165 
L 195.997125 337.713905 
L 197.400034 342.901331 
L 198.802943 347.260443 
L 200.205852 350.888 
L 201.608761 353.895514 
L 203.01167 356.409251 
L 204.765307 359.07329 
L 207.220398 362.384653 
L 208.623307 363.863304 
L 210.026216 364.953911 
L 211.078398 365.528431 
L 212.13058 365.901755 
L 213.182761 366.079531 
L 214.234943 366.066417 
L 215.287125 365.866089 
L 216.339307 365.481231 
L 217.742216 364.683835 
L 219.145125 363.562592 
L 220.548034 362.115679 
L 221.950943 360.338155 
L 223.353852 358.22196 
L 224.756761 355.755912 
L 226.510398 352.160518 
L 228.264034 347.996983 
L 230.01767 343.231379 
L 231.771307 337.812609 
L 233.524943 331.692966 
L 235.27858 324.828132 
L 237.032216 317.177182 
L 239.13658 306.905758 
L 241.240943 295.390038 
L 243.345307 282.578639 
L 245.44967 268.427207 
L 247.554034 252.898419 
L 250.009125 233.036672 
L 252.464216 211.425627 
L 255.270034 184.735554 
L 259.128034 145.592216 
L 264.038216 95.88147 
L 266.14258 76.60283 
L 267.896216 62.404164 
L 269.299125 52.588412 
L 270.351307 46.350444 
L 271.403489 41.236448 
L 272.45567 37.365471 
L 273.157125 35.523489 
L 273.85858 34.29932 
L 274.560034 33.710755 
L 274.910761 33.65911 
L 275.261489 33.770926 
L 275.612216 34.047117 
L 276.31367 35.094816 
L 277.015125 36.803686 
L 277.71658 39.170543 
L 278.418034 42.187542 
L 279.470216 47.903426 
L 280.522398 54.991027 
L 281.925307 66.423815 
L 283.328216 79.871935 
L 285.081852 98.790518 
L 287.536943 128.08824 
L 291.044216 173.243507 
L 295.252943 226.905851 
L 297.357307 250.981488 
L 299.110943 268.456386 
L 301.215307 286.506348 
L 302.968943 299.749539 
L 304.72258 311.418601 
L 306.476216 321.588516 
L 308.229852 330.351365 
L 309.983489 337.816335 
L 311.386398 342.938129 
L 312.789307 347.382319 
L 314.192216 351.228451 
L 315.945852 355.327621 
L 317.699489 358.784741 
L 319.102398 361.051282 
L 320.505307 362.884007 
L 321.908216 364.309815 
L 323.311125 365.351915 
L 324.363307 365.893561 
L 325.415489 366.237292 
L 326.46767 366.388811 
L 327.519852 366.35265 
L 328.572034 366.132173 
L 329.624216 365.729574 
L 331.027125 364.911082 
L 332.430034 363.769713 
L 333.832943 362.300975 
L 335.235852 360.496683 
L 336.638761 358.344962 
L 338.04167 355.835466 
L 339.795307 352.202036 
L 341.548943 347.984808 
L 343.30258 343.144743 
L 345.056216 337.642986 
L 346.809852 331.440863 
L 348.563489 324.499886 
L 350.667852 315.141503 
L 352.772216 304.598174 
L 354.87658 292.804432 
L 356.980943 279.695192 
L 359.085307 265.211455 
L 361.540398 246.617609 
L 363.995489 226.122363 
L 366.45058 203.770348 
L 369.607125 172.751838 
L 379.076761 77.5873 
L 380.830398 62.662166 
L 382.233307 52.415137 
L 383.285489 45.961357 
L 384.33767 40.705793 
L 385.389852 36.752231 
L 386.091307 34.88083 
L 386.792761 33.643017 
L 387.143489 33.266234 
L 387.494216 33.052722 
L 387.844943 33.003521 
L 388.19567 33.119391 
L 388.546398 33.400813 
L 389.247852 34.46083 
L 389.949307 36.181804 
L 390.650761 38.557482 
L 391.352216 41.577127 
L 392.404398 47.279505 
L 393.45658 54.325206 
L 394.859489 65.645064 
L 396.262398 78.912385 
L 398.016034 97.829332 
L 398.366761 101.868304 
L 398.366761 101.868304 
" clip-path="url(#p6f51cad027)" style="fill: none; stroke: #1f77b4; stroke-width: 1.5; stroke-linecap: square"/>
   </g>
   <g id="line2d_15">
    <path d="M 47.639489 241.009754 
L 50.796034 220.854532 
L 55.706216 189.328713 
L 57.81058 177.26479 
L 59.564216 168.380537 
L 60.967125 162.181188 
L 62.370034 156.870933 
L 63.772943 152.502169 
L 64.825125 149.862639 
L 65.877307 147.779511 
L 66.929489 146.261224 
L 67.630943 145.554777 
L 68.332398 145.086006 
L 69.033852 144.848528 
L 69.735307 144.835562 
L 70.436761 145.039928 
L 71.138216 145.454045 
L 71.83967 146.069931 
L 72.891852 147.35364 
L 73.944034 149.042413 
L 74.996216 151.104259 
L 76.399125 154.374637 
L 78.152761 159.177952 
L 80.257125 165.751239 
L 82.712216 174.280883 
L 85.868761 186.191215 
L 91.831125 209.861599 
L 97.442761 231.811164 
L 101.300761 246.058886 
L 104.808034 258.155482 
L 107.96458 268.227011 
L 110.770398 276.474885 
L 113.576216 284.033792 
L 116.031307 290.071501 
L 118.486398 295.53387 
L 120.590761 299.742725 
L 122.695125 303.498815 
L 124.799489 306.781974 
L 126.553125 309.138799 
L 128.306761 311.132931 
L 130.060398 312.74504 
L 131.463307 313.745199 
L 132.866216 314.474894 
L 134.269125 314.92102 
L 135.321307 315.061102 
L 136.373489 315.027506 
L 137.42567 314.81365 
L 138.477852 314.413665 
L 139.530034 313.820922 
L 140.582216 313.023303 
L 141.985125 311.620548 
L 143.388034 309.805469 
L 144.790943 307.552703 
L 146.193852 304.838456 
L 147.596761 301.640503 
L 148.99967 297.938185 
L 150.753307 292.572091 
L 152.506943 286.354375 
L 154.26058 279.255023 
L 156.014216 271.247852 
L 158.11858 260.426631 
L 160.222943 248.426876 
L 163.028761 231.059899 
L 170.744761 182.224508 
L 172.498398 172.692476 
L 174.252034 164.345333 
L 175.654943 158.623203 
L 177.057852 153.816339 
L 178.110034 150.839161 
L 179.162216 148.41524 
L 180.214398 146.552805 
L 181.26658 145.255227 
L 181.968034 144.70345 
L 182.669489 144.400517 
L 183.370943 144.343827 
L 184.072398 144.52982 
L 184.773852 144.953817 
L 185.475307 145.592089 
L 186.527489 146.907965 
L 187.57967 148.62404 
L 188.98258 151.477843 
L 190.385489 154.908828 
L 192.139125 159.897984 
L 194.243489 166.732056 
L 196.69858 175.59032 
L 200.205852 189.270391 
L 208.27258 221.140295 
L 212.832034 238.127786 
L 216.339307 250.439235 
L 219.495852 260.794406 
L 222.652398 270.374579 
L 225.458216 278.203377 
L 228.264034 285.36209 
L 230.719125 291.034544 
L 233.174216 296.131764 
L 235.27858 300.022489 
L 237.382943 303.449982 
L 239.13658 305.935169 
L 240.890216 308.066464 
L 242.643852 309.826678 
L 244.046761 310.955111 
L 245.44967 311.823731 
L 246.85258 312.421555 
L 248.255489 312.736952 
L 249.30767 312.780656 
L 250.359852 312.651186 
L 251.412034 312.339999 
L 252.464216 311.838482 
L 253.516398 311.137971 
L 254.919307 309.87935 
L 256.322216 308.230689 
L 257.725125 306.171051 
L 259.128034 303.679347 
L 260.530943 300.734334 
L 261.933852 297.314615 
L 263.336761 293.398638 
L 265.090398 287.772727 
L 266.844034 281.294764 
L 268.59767 273.935466 
L 270.702034 263.984248 
L 272.806398 252.903681 
L 275.261489 238.787178 
L 279.119489 215.052307 
L 282.977489 191.606712 
L 285.081852 180.090753 
L 286.835489 171.595857 
L 288.589125 164.247089 
L 289.992034 159.270295 
L 291.394943 155.148864 
L 292.447125 152.643748 
L 293.499307 150.656648 
L 294.551489 149.198892 
L 295.252943 148.525533 
L 295.954398 148.093276 
L 296.655852 147.90352 
L 297.357307 147.957144 
L 298.058761 148.254507 
L 298.760216 148.795442 
L 299.812398 150.028412 
L 300.86458 151.655431 
L 302.267489 154.370738 
L 303.670398 157.64102 
L 305.424034 162.400091 
L 307.528398 168.921452 
L 309.983489 177.380119 
L 313.140034 189.134085 
L 327.169125 242.502653 
L 330.676398 254.54435 
L 333.832943 264.611987 
L 336.989489 273.904117 
L 339.795307 281.48245 
L 342.250398 287.537792 
L 344.705489 293.031759 
L 347.16058 297.93761 
L 349.264943 301.651422 
L 351.369307 304.88915 
L 353.122943 307.206574 
L 354.87658 309.162188 
L 356.630216 310.740173 
L 358.033125 311.719395 
L 359.436034 312.435694 
L 360.838943 312.872897 
L 362.241852 313.016956 
L 363.294034 312.92364 
L 364.346216 312.650147 
L 365.398398 312.189169 
L 366.45058 311.532944 
L 367.853489 310.340013 
L 369.256398 308.764637 
L 370.659307 306.784703 
L 372.062216 304.376675 
L 373.465125 301.515602 
L 374.868034 298.175111 
L 376.270943 294.327413 
L 378.02458 288.773316 
L 379.778216 282.397756 
L 381.531852 275.150838 
L 383.285489 267.018581 
L 385.389852 256.144201 
L 387.844943 242.124759 
L 391.001489 222.668839 
L 395.91167 192.409067 
L 398.016034 180.798497 
L 398.366761 178.988281 
L 398.366761 178.988281 
" clip-path="url(#p6f51cad027)" style="fill: none; stroke: #ff7f0e; stroke-width: 1.5; stroke-linecap: square"/>
   </g>
   <g id="patch_3">
    <path d="M 30.103125 386.6 
L 30.103125 7.2 
" style="fill: none; stroke: #000000; stroke-width: 0.8; stroke-linejoin: miter; stroke-linecap: square"/>
   </g>
   <g id="patch_4">
    <path d="M 415.903125 386.6 
L 415.903125 7.2 
" style="fill: none; stroke: #000000; stroke-width: 0.8; stroke-linejoin: miter; stroke-linecap: square"/>
   </g>
   <g id="patch_5">
    <path d="M 30.103125 386.6 
L 415.903125 386.6 
" style="fill: none; stroke: #000000; stroke-width: 0.8; stroke-linejoin: miter; stroke-linecap: square"/>
   </g>
   <g id="patch_6">
    <path d="M 30.103125 7.2 
L 415.903125 7.2 
" style="fill: none; stroke: #000000; stroke-width: 0.8; stroke-linejoin: miter; stroke-linecap: square"/>
   </g>
   <g id="legend_1">
    <g id="patch_7">
     <path d="M 339.446875 44.55625 
L 408.903125 44.55625 
Q 410.903125 44.55625 410.903125 42.55625 
L 410.903125 14.2 
Q 410.903125 12.2 408.903125 12.2 
L 339.446875 12.2 
Q 337.446875 12.2 337.446875 14.2 
L 337.446875 42.55625 
Q 337.446875 44.55625 339.446875 44.55625 
z
" style="fill: #ffffff; opacity: 0.8; stroke: #cccccc; stroke-linejoin: miter"/>
    </g>
    <g id="line2d_16">
     <path d="M 341.446875 20.298437 
L 351.446875 20.298437 
L 361.446875 20.298437 
" style="fill: none; stroke: #1f77b4; stroke-width: 1.5; stroke-linecap: square"/>
    </g>
    <g id="text_15">
     <!-- Rabbits -->
     <g transform="translate(369.446875 23.798437)scale(0.1 -0.1)">
      <defs>
       <path id="DejaVuSans-52" d="M 2841 2188 
Q 3044 2119 3236 1894 
Q 3428 1669 3622 1275 
L 4263 0 
L 3584 0 
L 2988 1197 
Q 2756 1666 2539 1819 
Q 2322 1972 1947 1972 
L 1259 1972 
L 1259 0 
L 628 0 
L 628 4666 
L 2053 4666 
Q 2853 4666 3247 4331 
Q 3641 3997 3641 3322 
Q 3641 2881 3436 2590 
Q 3231 2300 2841 2188 
z
M 1259 4147 
L 1259 2491 
L 2053 2491 
Q 2509 2491 2742 2702 
Q 2975 2913 2975 3322 
Q 2975 3731 2742 3939 
Q 2509 4147 2053 4147 
L 1259 4147 
z
" transform="scale(0.015625)"/>
       <path id="DejaVuSans-61" d="M 2194 1759 
Q 1497 1759 1228 1600 
Q 959 1441 959 1056 
Q 959 750 1161 570 
Q 1363 391 1709 391 
Q 2188 391 2477 730 
Q 2766 1069 2766 1631 
L 2766 1759 
L 2194 1759 
z
M 3341 1997 
L 3341 0 
L 2766 0 
L 2766 531 
Q 2569 213 2275 61 
Q 1981 -91 1556 -91 
Q 1019 -91 701 211 
Q 384 513 384 1019 
Q 384 1609 779 1909 
Q 1175 2209 1959 2209 
L 2766 2209 
L 2766 2266 
Q 2766 2663 2505 2880 
Q 2244 3097 1772 3097 
Q 1472 3097 1187 3025 
Q 903 2953 641 2809 
L 641 3341 
Q 956 3463 1253 3523 
Q 1550 3584 1831 3584 
Q 2591 3584 2966 3190 
Q 3341 2797 3341 1997 
z
" transform="scale(0.015625)"/>
       <path id="DejaVuSans-62" d="M 3116 1747 
Q 3116 2381 2855 2742 
Q 2594 3103 2138 3103 
Q 1681 3103 1420 2742 
Q 1159 2381 1159 1747 
Q 1159 1113 1420 752 
Q 1681 391 2138 391 
Q 2594 391 2855 752 
Q 3116 1113 3116 1747 
z
M 1159 2969 
Q 1341 3281 1617 3432 
Q 1894 3584 2278 3584 
Q 2916 3584 3314 3078 
Q 3713 2572 3713 1747 
Q 3713 922 3314 415 
Q 2916 -91 2278 -91 
Q 1894 -91 1617 61 
Q 1341 213 1159 525 
L 1159 0 
L 581 0 
L 581 4863 
L 1159 4863 
L 1159 2969 
z
" transform="scale(0.015625)"/>
       <path id="DejaVuSans-74" d="M 1172 4494 
L 1172 3500 
L 2356 3500 
L 2356 3053 
L 1172 3053 
L 1172 1153 
Q 1172 725 1289 603 
Q 1406 481 1766 481 
L 2356 481 
L 2356 0 
L 1766 0 
Q 1100 0 847 248 
Q 594 497 594 1153 
L 594 3053 
L 172 3053 
L 172 3500 
L 594 3500 
L 594 4494 
L 1172 4494 
z
" transform="scale(0.015625)"/>
       <path id="DejaVuSans-73" d="M 2834 3397 
L 2834 2853 
Q 2591 2978 2328 3040 
Q 2066 3103 1784 3103 
Q 1356 3103 1142 2972 
Q 928 2841 928 2578 
Q 928 2378 1081 2264 
Q 1234 2150 1697 2047 
L 1894 2003 
Q 2506 1872 2764 1633 
Q 3022 1394 3022 966 
Q 3022 478 2636 193 
Q 2250 -91 1575 -91 
Q 1294 -91 989 -36 
Q 684 19 347 128 
L 347 722 
Q 666 556 975 473 
Q 1284 391 1588 391 
Q 1994 391 2212 530 
Q 2431 669 2431 922 
Q 2431 1156 2273 1281 
Q 2116 1406 1581 1522 
L 1381 1569 
Q 847 1681 609 1914 
Q 372 2147 372 2553 
Q 372 3047 722 3315 
Q 1072 3584 1716 3584 
Q 2034 3584 2315 3537 
Q 2597 3491 2834 3397 
z
" transform="scale(0.015625)"/>
      </defs>
      <use xlink:href="#DejaVuSans-52"/>
      <use xlink:href="#DejaVuSans-61" x="67.232422"/>
      <use xlink:href="#DejaVuSans-62" x="128.511719"/>
      <use xlink:href="#DejaVuSans-62" x="191.988281"/>
      <use xlink:href="#DejaVuSans-69" x="255.464844"/>
      <use xlink:href="#DejaVuSans-74" x="283.248047"/>
      <use xlink:href="#DejaVuSans-73" x="322.457031"/>
     </g>
    </g>
    <g id="line2d_17">
     <path d="M 341.446875 34.976562 
L 351.446875 34.976562 
L 361.446875 34.976562 
" style="fill: none; stroke: #ff7f0e; stroke-width: 1.5; stroke-linecap: square"/>
    </g>
    <g id="text_16">
     <!-- Foxes -->
     <g transform="translate(369.446875 38.476562)scale(0.1 -0.1)">
      <defs>
       <path id="DejaVuSans-46" d="M 628 4666 
L 3309 4666 
L 3309 4134 
L 1259 4134 
L 1259 2759 
L 3109 2759 
L 3109 2228 
L 1259 2228 
L 1259 0 
L 628 0 
L 628 4666 
z
" transform="scale(0.015625)"/>
       <path id="DejaVuSans-6f" d="M 1959 3097 
Q 1497 3097 1228 2736 
Q 959 2375 959 1747 
Q 959 1119 1226 758 
Q 1494 397 1959 397 
Q 2419 397 2687 759 
Q 2956 1122 2956 1747 
Q 2956 2369 2687 2733 
Q 2419 3097 1959 3097 
z
M 1959 3584 
Q 2709 3584 3137 3096 
Q 3566 2609 3566 1747 
Q 3566 888 3137 398 
Q 2709 -91 1959 -91 
Q 1206 -91 779 398 
Q 353 888 353 1747 
Q 353 2609 779 3096 
Q 1206 3584 1959 3584 
z
" transform="scale(0.015625)"/>
       <path id="DejaVuSans-78" d="M 3513 3500 
L 2247 1797 
L 3578 0 
L 2900 0 
L 1881 1375 
L 863 0 
L 184 0 
L 1544 1831 
L 300 3500 
L 978 3500 
L 1906 2253 
L 2834 3500 
L 3513 3500 
z
" transform="scale(0.015625)"/>
      </defs>
      <use xlink:href="#DejaVuSans-46"/>
      <use xlink:href="#DejaVuSans-6f" x="53.894531"/>
      <use xlink:href="#DejaVuSans-78" x="111.951172"/>
      <use xlink:href="#DejaVuSans-65" x="168.005859"/>
      <use xlink:href="#DejaVuSans-73" x="229.529297"/>
     </g>
    </g>
   </g>
  </g>
  <g id="axes_2">
   <g id="patch_8">
    <path d="M 463.703125 386.6 
L 849.503125 386.6 
L 849.503125 7.2 
L 463.703125 7.2 
z
" style="fill: #ffffff"/>
   </g>
   <g id="matplotlib.axis_3">
    <g id="xtick_7">
     <g id="line2d_18">
      <g>
       <use xlink:href="#m661430a8d1" x="501.685176" y="386.6" style="stroke: #000000; stroke-width: 0.8"/>
      </g>
     </g>
     <g id="text_17">
      <!-- 1.0 -->
      <g transform="translate(493.733613 401.198437)scale(0.1 -0.1)">
       <use xlink:href="#DejaVuSans-31"/>
       <use xlink:href="#DejaVuSans-2e" x="63.623047"/>
       <use xlink:href="#DejaVuSans-30" x="95.410156"/>
      </g>
     </g>
    </g>
    <g id="xtick_8">
     <g id="line2d_19">
      <g>
       <use xlink:href="#m661430a8d1" x="556.717235" y="386.6" style="stroke: #000000; stroke-width: 0.8"/>
      </g>
     </g>
     <g id="text_18">
      <!-- 1.5 -->
      <g transform="translate(548.765673 401.198437)scale(0.1 -0.1)">
       <use xlink:href="#DejaVuSans-31"/>
       <use xlink:href="#DejaVuSans-2e" x="63.623047"/>
       <use xlink:href="#DejaVuSans-35" x="95.410156"/>
      </g>
     </g>
    </g>
    <g id="xtick_9">
     <g id="line2d_20">
      <g>
       <use xlink:href="#m661430a8d1" x="611.749295" y="386.6" style="stroke: #000000; stroke-width: 0.8"/>
      </g>
     </g>
     <g id="text_19">
      <!-- 2.0 -->
      <g transform="translate(603.797732 401.198437)scale(0.1 -0.1)">
       <use xlink:href="#DejaVuSans-32"/>
       <use xlink:href="#DejaVuSans-2e" x="63.623047"/>
       <use xlink:href="#DejaVuSans-30" x="95.410156"/>
      </g>
     </g>
    </g>
    <g id="xtick_10">
     <g id="line2d_21">
      <g>
       <use xlink:href="#m661430a8d1" x="666.781354" y="386.6" style="stroke: #000000; stroke-width: 0.8"/>
      </g>
     </g>
     <g id="text_20">
      <!-- 2.5 -->
      <g transform="translate(658.829792 401.198437)scale(0.1 -0.1)">
       <use xlink:href="#DejaVuSans-32"/>
       <use xlink:href="#DejaVuSans-2e" x="63.623047"/>
       <use xlink:href="#DejaVuSans-35" x="95.410156"/>
      </g>
     </g>
    </g>
    <g id="xtick_11">
     <g id="line2d_22">
      <g>
       <use xlink:href="#m661430a8d1" x="721.813414" y="386.6" style="stroke: #000000; stroke-width: 0.8"/>
      </g>
     </g>
     <g id="text_21">
      <!-- 3.0 -->
      <g transform="translate(713.861851 401.198437)scale(0.1 -0.1)">
       <use xlink:href="#DejaVuSans-33"/>
       <use xlink:href="#DejaVuSans-2e" x="63.623047"/>
       <use xlink:href="#DejaVuSans-30" x="95.410156"/>
      </g>
     </g>
    </g>
    <g id="xtick_12">
     <g id="line2d_23">
      <g>
       <use xlink:href="#m661430a8d1" x="776.845473" y="386.6" style="stroke: #000000; stroke-width: 0.8"/>
      </g>
     </g>
     <g id="text_22">
      <!-- 3.5 -->
      <g transform="translate(768.89391 401.198437)scale(0.1 -0.1)">
       <use xlink:href="#DejaVuSans-33"/>
       <use xlink:href="#DejaVuSans-2e" x="63.623047"/>
       <use xlink:href="#DejaVuSans-35" x="95.410156"/>
      </g>
     </g>
    </g>
    <g id="xtick_13">
     <g id="line2d_24">
      <g>
       <use xlink:href="#m661430a8d1" x="831.877532" y="386.6" style="stroke: #000000; stroke-width: 0.8"/>
      </g>
     </g>
     <g id="text_23">
      <!-- 4.0 -->
      <g transform="translate(823.92597 401.198437)scale(0.1 -0.1)">
       <use xlink:href="#DejaVuSans-34"/>
       <use xlink:href="#DejaVuSans-2e" x="63.623047"/>
       <use xlink:href="#DejaVuSans-30" x="95.410156"/>
      </g>
     </g>
    </g>
    <g id="text_24">
     <!-- Rabbit population -->
     <g transform="translate(612.283594 414.876562)scale(0.1 -0.1)">
      <defs>
       <path id="DejaVuSans-20" transform="scale(0.015625)"/>
       <path id="DejaVuSans-70" d="M 1159 525 
L 1159 -1331 
L 581 -1331 
L 581 3500 
L 1159 3500 
L 1159 2969 
Q 1341 3281 1617 3432 
Q 1894 3584 2278 3584 
Q 2916 3584 3314 3078 
Q 3713 2572 3713 1747 
Q 3713 922 3314 415 
Q 2916 -91 2278 -91 
Q 1894 -91 1617 61 
Q 1341 213 1159 525 
z
M 3116 1747 
Q 3116 2381 2855 2742 
Q 2594 3103 2138 3103 
Q 1681 3103 1420 2742 
Q 1159 2381 1159 1747 
Q 1159 1113 1420 752 
Q 1681 391 2138 391 
Q 2594 391 2855 752 
Q 3116 1113 3116 1747 
z
" transform="scale(0.015625)"/>
       <path id="DejaVuSans-75" d="M 544 1381 
L 544 3500 
L 1119 3500 
L 1119 1403 
Q 1119 906 1312 657 
Q 1506 409 1894 409 
Q 2359 409 2629 706 
Q 2900 1003 2900 1516 
L 2900 3500 
L 3475 3500 
L 3475 0 
L 2900 0 
L 2900 538 
Q 2691 219 2414 64 
Q 2138 -91 1772 -91 
Q 1169 -91 856 284 
Q 544 659 544 1381 
z
M 1991 3584 
L 1991 3584 
z
" transform="scale(0.015625)"/>
       <path id="DejaVuSans-6c" d="M 603 4863 
L 1178 4863 
L 1178 0 
L 603 0 
L 603 4863 
z
" transform="scale(0.015625)"/>
       <path id="DejaVuSans-6e" d="M 3513 2113 
L 3513 0 
L 2938 0 
L 2938 2094 
Q 2938 2591 2744 2837 
Q 2550 3084 2163 3084 
Q 1697 3084 1428 2787 
Q 1159 2491 1159 1978 
L 1159 0 
L 581 0 
L 581 3500 
L 1159 3500 
L 1159 2956 
Q 1366 3272 1645 3428 
Q 1925 3584 2291 3584 
Q 2894 3584 3203 3211 
Q 3513 2838 3513 2113 
z
" transform="scale(0.015625)"/>
      </defs>
      <use xlink:href="#DejaVuSans-52"/>
      <use xlink:href="#DejaVuSans-61" x="67.232422"/>
      <use xlink:href="#DejaVuSans-62" x="128.511719"/>
      <use xlink:href="#DejaVuSans-62" x="191.988281"/>
      <use xlink:href="#DejaVuSans-69" x="255.464844"/>
      <use xlink:href="#DejaVuSans-74" x="283.248047"/>
      <use xlink:href="#DejaVuSans-20" x="322.457031"/>
      <use xlink:href="#DejaVuSans-70" x="354.244141"/>
      <use xlink:href="#DejaVuSans-6f" x="417.720703"/>
      <use xlink:href="#DejaVuSans-70" x="478.902344"/>
      <use xlink:href="#DejaVuSans-75" x="542.378906"/>
      <use xlink:href="#DejaVuSans-6c" x="605.757812"/>
      <use xlink:href="#DejaVuSans-61" x="633.541016"/>
      <use xlink:href="#DejaVuSans-74" x="694.820312"/>
      <use xlink:href="#DejaVuSans-69" x="734.029297"/>
      <use xlink:href="#DejaVuSans-6f" x="761.8125"/>
      <use xlink:href="#DejaVuSans-6e" x="822.994141"/>
     </g>
    </g>
   </g>
   <g id="matplotlib.axis_4">
    <g id="ytick_8">
     <g id="line2d_25">
      <g>
       <use xlink:href="#mc6efa02d9f" x="463.703125" y="350.936545" style="stroke: #000000; stroke-width: 0.8"/>
      </g>
     </g>
     <g id="text_25">
      <!-- 1.4 -->
      <g transform="translate(440.8 354.735764)scale(0.1 -0.1)">
       <use xlink:href="#DejaVuSans-31"/>
       <use xlink:href="#DejaVuSans-2e" x="63.623047"/>
       <use xlink:href="#DejaVuSans-34" x="95.410156"/>
      </g>
     </g>
    </g>
    <g id="ytick_9">
     <g id="line2d_26">
      <g>
       <use xlink:href="#mc6efa02d9f" x="463.703125" y="307.203377" style="stroke: #000000; stroke-width: 0.8"/>
      </g>
     </g>
     <g id="text_26">
      <!-- 1.6 -->
      <g transform="translate(440.8 311.002596)scale(0.1 -0.1)">
       <use xlink:href="#DejaVuSans-31"/>
       <use xlink:href="#DejaVuSans-2e" x="63.623047"/>
       <use xlink:href="#DejaVuSans-36" x="95.410156"/>
      </g>
     </g>
    </g>
    <g id="ytick_10">
     <g id="line2d_27">
      <g>
       <use xlink:href="#mc6efa02d9f" x="463.703125" y="263.47021" style="stroke: #000000; stroke-width: 0.8"/>
      </g>
     </g>
     <g id="text_27">
      <!-- 1.8 -->
      <g transform="translate(440.8 267.269429)scale(0.1 -0.1)">
       <use xlink:href="#DejaVuSans-31"/>
       <use xlink:href="#DejaVuSans-2e" x="63.623047"/>
       <use xlink:href="#DejaVuSans-38" x="95.410156"/>
      </g>
     </g>
    </g>
    <g id="ytick_11">
     <g id="line2d_28">
      <g>
       <use xlink:href="#mc6efa02d9f" x="463.703125" y="219.737043" style="stroke: #000000; stroke-width: 0.8"/>
      </g>
     </g>
     <g id="text_28">
      <!-- 2.0 -->
      <g transform="translate(440.8 223.536261)scale(0.1 -0.1)">
       <use xlink:href="#DejaVuSans-32"/>
       <use xlink:href="#DejaVuSans-2e" x="63.623047"/>
       <use xlink:href="#DejaVuSans-30" x="95.410156"/>
      </g>
     </g>
    </g>
    <g id="ytick_12">
     <g id="line2d_29">
      <g>
       <use xlink:href="#mc6efa02d9f" x="463.703125" y="176.003875" style="stroke: #000000; stroke-width: 0.8"/>
      </g>
     </g>
     <g id="text_29">
      <!-- 2.2 -->
      <g transform="translate(440.8 179.803094)scale(0.1 -0.1)">
       <use xlink:href="#DejaVuSans-32"/>
       <use xlink:href="#DejaVuSans-2e" x="63.623047"/>
       <use xlink:href="#DejaVuSans-32" x="95.410156"/>
      </g>
     </g>
    </g>
    <g id="ytick_13">
     <g id="line2d_30">
      <g>
       <use xlink:href="#mc6efa02d9f" x="463.703125" y="132.270708" style="stroke: #000000; stroke-width: 0.8"/>
      </g>
     </g>
     <g id="text_30">
      <!-- 2.4 -->
      <g transform="translate(440.8 136.069927)scale(0.1 -0.1)">
       <use xlink:href="#DejaVuSans-32"/>
       <use xlink:href="#DejaVuSans-2e" x="63.623047"/>
       <use xlink:href="#DejaVuSans-34" x="95.410156"/>
      </g>
     </g>
    </g>
    <g id="ytick_14">
     <g id="line2d_31">
      <g>
       <use xlink:href="#mc6efa02d9f" x="463.703125" y="88.537541" style="stroke: #000000; stroke-width: 0.8"/>
      </g>
     </g>
     <g id="text_31">
      <!-- 2.6 -->
      <g transform="translate(440.8 92.336759)scale(0.1 -0.1)">
       <use xlink:href="#DejaVuSans-32"/>
       <use xlink:href="#DejaVuSans-2e" x="63.623047"/>
       <use xlink:href="#DejaVuSans-36" x="95.410156"/>
      </g>
     </g>
    </g>
    <g id="ytick_15">
     <g id="line2d_32">
      <g>
       <use xlink:href="#mc6efa02d9f" x="463.703125" y="44.804373" style="stroke: #000000; stroke-width: 0.8"/>
      </g>
     </g>
     <g id="text_32">
      <!-- 2.8 -->
      <g transform="translate(440.8 48.603592)scale(0.1 -0.1)">
       <use xlink:href="#DejaVuSans-32"/>
       <use xlink:href="#DejaVuSans-2e" x="63.623047"/>
       <use xlink:href="#DejaVuSans-38" x="95.410156"/>
      </g>
     </g>
    </g>
    <g id="text_33">
     <!-- Foxes population -->
     <g transform="translate(434.720312 239.178125)rotate(-90)scale(0.1 -0.1)">
      <use xlink:href="#DejaVuSans-46"/>
      <use xlink:href="#DejaVuSans-6f" x="53.894531"/>
      <use xlink:href="#DejaVuSans-78" x="111.951172"/>
      <use xlink:href="#DejaVuSans-65" x="168.005859"/>
      <use xlink:href="#DejaVuSans-73" x="229.529297"/>
      <use xlink:href="#DejaVuSans-20" x="281.628906"/>
      <use xlink:href="#DejaVuSans-70" x="313.416016"/>
      <use xlink:href="#DejaVuSans-6f" x="376.892578"/>
      <use xlink:href="#DejaVuSans-70" x="438.074219"/>
      <use xlink:href="#DejaVuSans-75" x="501.550781"/>
      <use xlink:href="#DejaVuSans-6c" x="564.929688"/>
      <use xlink:href="#DejaVuSans-61" x="592.712891"/>
      <use xlink:href="#DejaVuSans-74" x="653.992188"/>
      <use xlink:href="#DejaVuSans-69" x="693.201172"/>
      <use xlink:href="#DejaVuSans-6f" x="720.984375"/>
      <use xlink:href="#DejaVuSans-6e" x="782.166016"/>
     </g>
    </g>
   </g>
   <g id="line2d_33">
    <path d="M 831.877532 219.737043 
L 831.789218 215.342369 
L 831.523243 210.907121 
L 831.078345 206.434623 
L 830.453639 201.928358 
L 829.648625 197.39196 
L 828.66318 192.829223 
L 827.497563 188.244095 
L 826.152413 183.640679 
L 824.621093 179.018927 
L 822.897622 174.379136 
L 820.987929 169.728195 
L 818.897981 165.072849 
L 816.633732 160.41967 
L 814.201126 155.775059 
L 811.606093 151.145242 
L 808.854551 146.536274 
L 805.952407 141.954037 
L 802.905553 137.404241 
L 799.71987 132.892423 
L 796.401228 128.423948 
L 792.955483 124.004006 
L 789.388479 119.637618 
L 785.706047 115.329631 
L 781.914007 111.084717 
L 778.018167 106.907379 
L 774.024321 102.801946 
L 769.938251 98.772573 
L 765.765727 94.823246 
L 761.512507 90.957775 
L 757.184337 87.179798 
L 752.78695 83.492782 
L 748.326065 79.90002 
L 743.807392 76.404634 
L 734.619452 69.717607 
L 725.26855 63.453218 
L 715.799909 57.63022 
L 706.258552 52.264606 
L 696.689309 47.36961 
L 687.136808 42.9557 
L 677.645483 39.030588 
L 668.259569 35.599221 
L 659.022415 32.665915 
L 649.965833 30.242971 
L 641.112532 28.323546 
L 632.482934 26.896364 
L 624.095093 25.949339 
L 615.964693 25.46958 
L 608.10505 25.443387 
L 600.527109 25.856253 
L 593.239449 26.692862 
L 586.248278 27.937092 
L 579.557434 29.572015 
L 573.168387 31.579892 
L 567.080239 33.942179 
L 561.289722 36.639524 
L 555.791198 39.651767 
L 550.576661 42.957941 
L 545.635736 46.536271 
L 540.955678 50.364175 
L 536.521375 54.418263 
L 532.315343 58.674339 
L 528.31773 63.107398 
L 524.515772 67.697793 
L 520.929018 72.447875 
L 517.551473 77.3441 
L 514.374096 82.371369 
L 511.388233 87.51524 
L 508.585613 92.761939 
L 505.958351 98.098352 
L 503.498947 103.512027 
L 501.200284 108.991175 
L 499.055632 114.524671 
L 496.113647 122.904108 
L 493.484206 131.349919 
L 491.149461 139.832938 
L 489.093515 148.327355 
L 487.302419 156.810712 
L 485.764174 165.263906 
L 484.468726 173.671188 
L 483.406871 182.018404 
L 482.56511 190.284208 
L 481.934841 198.45403 
L 481.50928 206.515459 
L 481.282588 214.456897 
L 481.249875 222.267549 
L 481.407197 229.937433 
L 481.751559 237.457373 
L 482.28091 244.819002 
L 482.99415 252.014761 
L 483.891123 259.037901 
L 484.972621 265.882479 
L 486.240383 272.543363 
L 487.697097 279.016228 
L 489.346395 285.297557 
L 491.192859 291.384641 
L 493.242016 297.275583 
L 495.500342 302.969289 
L 497.975258 308.465479 
L 500.673807 313.763878 
L 503.58725 318.852886 
L 506.724672 323.727098 
L 510.101635 328.384358 
L 512.493307 331.367331 
L 515.002112 334.251699 
L 517.632006 337.036372 
L 520.386767 339.720141 
L 523.27 342.30168 
L 526.285134 344.779538 
L 529.435424 347.152147 
L 532.723947 349.417818 
L 536.153607 351.574743 
L 539.727134 353.620992 
L 543.447081 355.554517 
L 547.315825 357.373147 
L 551.335571 359.074595 
L 555.508347 360.656451 
L 559.836004 362.116185 
L 564.320222 363.451148 
L 568.962502 364.658571 
L 573.764173 365.735564 
L 578.726387 366.679118 
L 583.85012 367.486103 
L 589.136176 368.153268 
L 594.585182 368.677245 
L 600.197588 369.054544 
L 605.973672 369.281554 
L 611.913536 369.354545 
L 618.017106 369.269668 
L 624.284134 369.022952 
L 630.71419 368.610309 
L 637.297285 368.029571 
L 644.023482 367.276023 
L 650.889637 366.342174 
L 657.890757 365.220725 
L 665.019998 363.904582 
L 672.268668 362.386843 
L 679.626225 360.660807 
L 687.080278 358.719971 
L 694.616586 356.558029 
L 702.219059 354.168873 
L 709.869757 351.546594 
L 717.548892 348.68548 
L 725.234825 345.580017 
L 732.904067 342.224889 
L 740.531281 338.61498 
L 748.089281 334.745369 
L 755.549031 330.611334 
L 762.879643 326.208351 
L 770.048384 321.532095 
L 777.020667 316.578437 
L 783.760061 311.343449 
L 790.228279 305.823397 
L 796.385191 300.014748 
L 799.333859 297.00115 
L 802.188813 293.914167 
L 804.944515 290.753413 
L 807.595313 287.518514 
L 810.135439 284.20911 
L 812.559009 280.824851 
L 814.860026 277.3654 
L 817.032372 273.830434 
L 819.072699 270.220472 
L 820.980779 266.538021 
L 822.751455 262.785035 
L 824.379745 258.963532 
L 825.860992 255.075631 
L 827.190862 251.123552 
L 828.365343 247.109613 
L 829.380748 243.036232 
L 830.233712 238.905925 
L 830.921193 234.721309 
L 831.440473 230.485101 
L 831.789155 226.200115 
L 831.965168 221.869267 
L 831.966761 217.495571 
L 831.79251 213.082142 
L 831.44131 208.632192 
L 830.912383 204.149034 
L 830.20527 199.636081 
L 829.319839 195.096845 
L 828.256278 190.534936 
L 827.015101 185.954065 
L 825.597143 181.358043 
L 824.003562 176.750779 
L 822.235841 172.136281 
L 820.295784 167.51866 
L 818.18552 162.902121 
L 815.907499 158.290974 
L 813.464497 153.689625 
L 810.85961 149.102579 
L 808.09626 144.534444 
L 805.178189 139.989924 
L 802.109466 135.473823 
L 798.894478 130.991047 
L 795.537941 126.546599 
L 792.044889 122.145581 
L 788.420683 117.793197 
L 784.671003 113.494748 
L 780.801857 109.255636 
L 776.819573 105.081362 
L 772.730803 100.977527 
L 768.548409 96.951804 
L 764.284104 93.010156 
L 759.943413 89.155743 
L 755.531821 85.391606 
L 751.05478 81.720663 
L 746.517702 78.145713 
L 737.284915 71.294373 
L 727.876045 64.857543 
L 718.333096 58.853241 
L 708.697491 53.297546 
L 699.010073 48.204596 
L 689.3111 43.58659 
L 679.640251 39.45379 
L 670.036623 35.814514 
L 660.538731 32.675146 
L 651.184509 30.040127 
L 646.57297 28.912606 
L 642.01131 27.911959 
L 637.504108 27.038196 
L 633.055905 26.291205 
L 628.671206 25.670754 
L 624.354482 25.17649 
L 620.110164 24.807936 
L 615.94265 24.564497 
L 611.856299 24.445455 
L 607.855435 24.449971 
L 603.944346 24.577086 
L 600.127283 24.825718 
L 596.40846 25.194666 
L 592.791202 25.682289 
L 585.779567 26.971742 
L 579.036376 28.65082 
L 572.565738 30.69922 
L 566.370827 33.096971 
L 560.453881 35.824434 
L 554.816195 38.8623 
L 549.458132 42.191592 
L 544.379114 45.793665 
L 539.577626 49.650205 
L 535.051215 53.743228 
L 530.79649 58.055083 
L 526.809125 62.568451 
L 523.083852 67.266342 
L 519.614468 72.132099 
L 516.393833 77.149397 
L 513.413866 82.30224 
L 510.665552 87.574965 
L 508.138936 92.95224 
L 505.823125 98.419066 
L 503.706291 103.960772 
L 501.775665 109.563021 
L 500.017541 115.211807 
L 498.417278 120.893455 
L 496.278532 129.448443 
L 494.403154 138.003788 
L 492.20572 149.339187 
L 488.767009 168.729727 
L 487.524537 176.889325 
L 486.509904 184.987132 
L 485.714356 193.007903 
L 485.130145 200.93739 
L 484.750523 208.762344 
L 484.569749 216.470511 
L 484.583083 224.050637 
L 484.786791 231.492463 
L 485.178141 238.786729 
L 485.755406 245.925172 
L 486.517861 252.900526 
L 487.465786 259.706522 
L 488.600465 266.337889 
L 489.924185 272.790354 
L 491.440236 279.060641 
L 493.152913 285.14647 
L 495.067514 291.046561 
L 497.190341 296.760629 
L 499.523943 302.285647 
L 502.063318 307.609499 
L 504.81927 312.72885 
L 507.80332 317.640748 
L 511.026543 322.341827 
L 514.499565 326.828305 
L 516.958737 329.698015 
L 519.536372 332.469146 
L 522.235287 335.140274 
L 525.058211 337.709889 
L 528.007788 340.176403 
L 531.086568 342.538143 
L 534.297018 344.793357 
L 537.641514 346.940211 
L 541.122345 348.976787 
L 544.741709 350.901088 
L 548.501719 352.711034 
L 552.404399 354.404464 
L 556.451684 355.979135 
L 560.645421 357.432722 
L 564.987367 358.762819 
L 569.479195 359.966937 
L 574.122486 361.042508 
L 578.918734 361.986879 
L 583.869344 362.797318 
L 588.975634 363.47101 
L 594.238834 364.005059 
L 599.660083 364.396486 
L 605.240435 364.642232 
L 610.978846 364.739123 
L 616.861665 364.683056 
L 622.88823 364.468963 
L 629.059602 364.091714 
L 635.375135 363.546155 
L 641.832469 362.827117 
L 648.427535 361.92941 
L 655.154554 360.847823 
L 662.006032 359.577129 
L 668.97277 358.112079 
L 676.043854 356.447405 
L 683.20666 354.577821 
L 690.446855 352.498019 
L 697.748392 350.202675 
L 705.093516 347.686443 
L 712.462759 344.943958 
L 719.834945 341.969836 
L 727.187184 338.758675 
L 734.494877 335.305051 
L 741.731714 331.603522 
L 748.869673 327.648628 
L 755.879023 323.434886 
L 762.728321 318.956798 
L 769.384413 314.208842 
L 775.812435 309.185481 
L 781.975812 303.881155 
L 787.836257 298.290288 
L 793.367737 292.411721 
L 796.007989 289.36774 
L 798.55595 286.254439 
L 801.005063 283.072223 
L 803.349068 279.821628 
L 805.581999 276.503321 
L 807.698188 273.118097 
L 809.692263 269.66688 
L 811.559147 266.150724 
L 813.294063 262.570815 
L 814.892525 258.928466 
L 816.350346 255.225118 
L 817.663637 251.462347 
L 818.828801 247.641853 
L 819.842541 243.765469 
L 820.701854 239.835155 
L 821.404035 235.853004 
L 821.946674 231.821235 
L 822.327657 227.7422 
L 822.545167 223.618376 
L 822.597683 219.452375 
L 822.483981 215.246934 
L 822.203131 211.004923 
L 821.754503 206.729338 
L 821.137759 202.423309 
L 820.35286 198.090092 
L 819.400062 193.733073 
L 818.279919 189.355769 
L 816.993279 184.961827 
L 815.541288 180.555021 
L 813.925387 176.139256 
L 812.147314 171.718567 
L 810.209102 167.297119 
L 808.113083 162.879205 
L 805.861882 158.469248 
L 803.458423 154.071801 
L 800.905924 149.691548 
L 798.2079 145.333299 
L 795.368164 141.001996 
L 792.390822 136.702711 
L 789.280279 132.440644 
L 786.041234 128.221126 
L 782.678686 124.049617 
L 779.197925 119.931706 
L 775.605306 115.873303 
L 768.149851 107.964378 
L 760.370357 100.353947 
L 752.294151 93.061698 
L 743.949701 86.10627 
L 735.366619 79.505244 
L 726.575652 73.27515 
L 717.608693 67.431462 
L 708.498773 61.988602 
L 699.280065 56.959937 
L 689.98788 52.357781 
L 680.658673 48.193393 
L 671.330039 44.476979 
L 662.040713 41.217692 
L 652.83057 38.42363 
L 643.740627 36.101836 
L 634.813042 34.258302 
L 626.091113 32.897965 
L 621.821111 32.400249 
L 617.619278 32.024706 
L 613.491345 31.771657 
L 609.443117 31.641357 
L 605.48047 31.633993 
L 601.60935 31.74969 
L 597.835776 31.988505 
L 594.165838 32.350429 
L 590.605697 32.835388 
L 587.161584 33.443241 
L 583.839673 34.173717 
L 577.451123 35.93412 
L 571.333823 38.042574 
L 565.48523 40.479126 
L 559.902358 43.224276 
L 554.581773 46.258967 
L 549.519598 49.564593 
L 544.71151 53.122993 
L 540.152739 56.916455 
L 535.838074 60.927715 
L 531.761854 65.139954 
L 527.917976 69.536804 
L 524.299891 74.102341 
L 520.900604 78.821092 
L 517.712675 83.67803 
L 514.72822 88.658574 
L 511.938908 93.748593 
L 509.335965 98.934402 
L 506.910168 104.202764 
L 504.651853 109.540891 
L 502.550909 114.936439 
L 499.671348 123.111532 
L 497.084508 131.350912 
L 494.75063 139.61859 
L 492.636276 147.884528 
L 490.778206 156.150396 
L 489.176684 164.401196 
L 487.819177 172.617025 
L 486.694345 180.7793 
L 485.792033 188.870755 
L 485.103276 196.87544 
L 484.620295 204.778722 
L 484.336502 212.567285 
L 484.246496 220.229131 
L 484.346064 227.753577 
L 484.632181 235.13126 
L 485.103012 242.35413 
L 485.757907 249.415457 
L 486.597409 256.309828 
L 487.623244 263.033144 
L 488.83833 269.582627 
L 490.246772 275.956813 
L 491.853863 282.155556 
L 493.666023 288.179961 
L 495.679983 294.019581 
L 497.896177 299.663673 
L 500.323222 305.109132 
L 502.969707 310.352589 
L 505.844199 315.390409 
L 508.955241 320.218693 
L 512.311351 324.833277 
L 514.689102 327.788768 
L 517.182059 330.64594 
L 519.792727 333.403363 
L 522.523608 336.059556 
L 525.377199 338.612982 
L 528.355991 341.062056 
L 531.462472 343.405137 
L 534.699123 345.640534 
L 538.068421 347.766503 
L 541.572841 349.781247 
L 545.214849 351.682919 
L 548.996909 353.469616 
L 552.921478 355.139385 
L 556.991012 356.690221 
L 561.207958 358.120065 
L 565.574761 359.426808 
L 570.09386 360.608286 
L 574.76769 361.662285 
L 579.59868 362.586536 
L 584.588585 363.378615 
L 589.726325 364.033621 
L 595.012044 364.547489 
L 600.450967 364.916871 
L 606.046843 365.138244 
L 611.80194 365.207902 
L 617.717047 365.121963 
L 623.791477 364.876365 
L 630.023061 364.466866 
L 636.408153 363.889046 
L 642.941628 363.138304 
L 649.616883 362.209863 
L 656.425834 361.098764 
L 663.35892 359.79987 
L 670.405101 358.307866 
L 677.551858 356.617255 
L 684.785193 354.722364 
L 692.089631 352.617339 
L 699.448215 350.296148 
L 706.842512 347.752578 
L 714.25261 344.98024 
L 721.657116 341.972562 
L 729.033161 338.722796 
L 736.356396 335.224014 
L 743.600992 331.469108 
L 750.739644 327.450793 
L 757.743566 323.161601 
L 764.614786 318.604507 
L 771.365342 313.790379 
L 777.92848 308.708537 
L 784.239862 303.350183 
L 790.239714 297.709063 
L 793.105382 294.781205 
L 795.872819 291.781462 
L 798.535833 288.709765 
L 801.088522 285.566208 
L 803.525266 282.35104 
L 805.840731 279.064672 
L 808.029868 275.70767 
L 810.087913 272.280764 
L 812.010387 268.784838 
L 813.793096 265.220938 
L 815.432131 261.590267 
L 816.92387 257.894189 
L 818.264972 254.134224 
L 819.452385 250.312054 
L 820.48334 246.429516 
L 821.355354 242.48861 
L 822.066227 238.491493 
L 822.614048 234.440479 
L 822.997186 230.338045 
L 823.2143 226.186822 
L 823.264331 221.989605 
L 823.146506 217.749343 
L 822.860337 213.469148 
L 822.405621 209.152287 
L 821.782439 204.80219 
L 820.99116 200.422442 
L 820.032435 196.016789 
L 818.907202 191.589136 
L 817.616682 187.143545 
L 816.162384 182.684239 
L 814.546099 178.215599 
L 812.769906 173.742165 
L 810.836167 169.268635 
L 808.747529 164.799867 
L 806.506925 160.340878 
L 804.117573 155.896842 
L 801.582976 151.473093 
L 798.906921 147.075126 
L 796.093482 142.70859 
L 793.147016 138.379299 
L 790.072167 134.093219 
L 786.873862 129.856482 
L 783.557315 125.675372 
L 780.12616 121.552643 
L 776.581043 117.483955 
L 772.92738 113.473275 
L 769.170972 109.524985 
L 765.317733 105.643358 
L 761.373691 101.832563 
L 757.34499 98.096663 
L 753.237886 94.439615 
L 753.237886 94.439615 
" clip-path="url(#p5dbdac3b01)" style="fill: none; stroke: #000000; stroke-width: 1.5; stroke-linecap: square"/>
   </g>
   <g id="patch_9">
    <path d="M 463.703125 386.6 
L 463.703125 7.2 
" style="fill: none; stroke: #000000; stroke-width: 0.8; stroke-linejoin: miter; stroke-linecap: square"/>
   </g>
   <g id="patch_10">
    <path d="M 849.503125 386.6 
L 849.503125 7.2 
" style="fill: none; stroke: #000000; stroke-width: 0.8; stroke-linejoin: miter; stroke-linecap: square"/>
   </g>
   <g id="patch_11">
    <path d="M 463.703125 386.6 
L 849.503125 386.6 
" style="fill: none; stroke: #000000; stroke-width: 0.8; stroke-linejoin: miter; stroke-linecap: square"/>
   </g>
   <g id="patch_12">
    <path d="M 463.703125 7.2 
L 849.503125 7.2 
" style="fill: none; stroke: #000000; stroke-width: 0.8; stroke-linejoin: miter; stroke-linecap: square"/>
   </g>
  </g>
 </g>
 <defs>
  <clipPath id="p6f51cad027">
   <rect x="30.103125" y="7.2" width="385.8" height="379.4"/>
  </clipPath>
  <clipPath id="p5dbdac3b01">
   <rect x="463.703125" y="7.2" width="385.8" height="379.4"/>
  </clipPath>
 </defs>
</svg>
