<?xml version="1.0" encoding="utf-8" standalone="no"?>
<!DOCTYPE svg PUBLIC "-//W3C//DTD SVG 1.1//EN"
  "http://www.w3.org/Graphics/SVG/1.1/DTD/svg11.dtd">
<svg xmlns:xlink="http://www.w3.org/1999/xlink" width="856.703125pt" height="424.15625pt" viewBox="0 0 856.703125 424.15625" xmlns="http://www.w3.org/2000/svg" version="1.1">
 <metadata>
  <rdf:RDF xmlns:dc="http://purl.org/dc/elements/1.1/" xmlns:cc="http://creativecommons.org/ns#" xmlns:rdf="http://www.w3.org/1999/02/22-rdf-syntax-ns#">
   <cc:Work>
    <dc:type rdf:resource="http://purl.org/dc/dcmitype/StillImage"/>
    <dc:date>2024-10-07T21:58:01.119496</dc:date>
    <dc:format>image/svg+xml</dc:format>
    <dc:creator>
     <cc:Agent>
      <dc:title>Matplotlib v3.5.2, https://matplotlib.org/</dc:title>
     </cc:Agent>
    </dc:creator>
   </cc:Work>
  </rdf:RDF>
 </metadata>
 <defs>
  <style type="text/css">*{stroke-linejoin: round; stroke-linecap: butt}</style>
 </defs>
 <g id="figure_1">
  <g id="patch_1">
   <path d="M -0 424.15625 
L 856.703125 424.15625 
L 856.703125 0 
L -0 0 
z
" style="fill: #ffffff"/>
  </g>
  <g id="axes_1">
   <g id="patch_2">
    <path d="M 30.103125 386.6 
L 412.715625 386.6 
L 412.715625 7.2 
L 30.103125 7.2 
z
" style="fill: #ffffff"/>
   </g>
   <g id="matplotlib.axis_1">
    <g id="xtick_1">
     <g id="line2d_1">
      <defs>
       <path id="m1f05315c42" d="M 0 0 
L 0 3.5 
" style="stroke: #000000; stroke-width: 0.8"/>
      </defs>
      <g>
       <use xlink:href="#m1f05315c42" x="47.494602" y="386.6" style="stroke: #000000; stroke-width: 0.8"/>
      </g>
     </g>
     <g id="text_1">
      <!-- 0 -->
      <g transform="translate(44.313352 401.198438)scale(0.1 -0.1)">
       <defs>
        <path id="DejaVuSans-30" d="M 2034 4250 
Q 1547 4250 1301 3770 
Q 1056 3291 1056 2328 
Q 1056 1369 1301 889 
Q 1547 409 2034 409 
Q 2525 409 2770 889 
Q 3016 1369 3016 2328 
Q 3016 3291 2770 3770 
Q 2525 4250 2034 4250 
z
M 2034 4750 
Q 2819 4750 3233 4129 
Q 3647 3509 3647 2328 
Q 3647 1150 3233 529 
Q 2819 -91 2034 -91 
Q 1250 -91 836 529 
Q 422 1150 422 2328 
Q 422 3509 836 4129 
Q 1250 4750 2034 4750 
z
" transform="scale(0.015625)"/>
       </defs>
       <use xlink:href="#DejaVuSans-30"/>
      </g>
     </g>
    </g>
    <g id="xtick_2">
     <g id="line2d_2">
      <g>
       <use xlink:href="#m1f05315c42" x="117.060511" y="386.6" style="stroke: #000000; stroke-width: 0.8"/>
      </g>
     </g>
     <g id="text_2">
      <!-- 2 -->
      <g transform="translate(113.879261 401.198438)scale(0.1 -0.1)">
       <defs>
        <path id="DejaVuSans-32" d="M 1228 531 
L 3431 531 
L 3431 0 
L 469 0 
L 469 531 
Q 828 903 1448 1529 
Q 2069 2156 2228 2338 
Q 2531 2678 2651 2914 
Q 2772 3150 2772 3378 
Q 2772 3750 2511 3984 
Q 2250 4219 1831 4219 
Q 1534 4219 1204 4116 
Q 875 4013 500 3803 
L 500 4441 
Q 881 4594 1212 4672 
Q 1544 4750 1819 4750 
Q 2544 4750 2975 4387 
Q 3406 4025 3406 3419 
Q 3406 3131 3298 2873 
Q 3191 2616 2906 2266 
Q 2828 2175 2409 1742 
Q 1991 1309 1228 531 
z
" transform="scale(0.015625)"/>
       </defs>
       <use xlink:href="#DejaVuSans-32"/>
      </g>
     </g>
    </g>
    <g id="xtick_3">
     <g id="line2d_3">
      <g>
       <use xlink:href="#m1f05315c42" x="186.62642" y="386.6" style="stroke: #000000; stroke-width: 0.8"/>
      </g>
     </g>
     <g id="text_3">
      <!-- 4 -->
      <g transform="translate(183.44517 401.198438)scale(0.1 -0.1)">
       <defs>
        <path id="DejaVuSans-34" d="M 2419 4116 
L 825 1625 
L 2419 1625 
L 2419 4116 
z
M 2253 4666 
L 3047 4666 
L 3047 1625 
L 3713 1625 
L 3713 1100 
L 3047 1100 
L 3047 0 
L 2419 0 
L 2419 1100 
L 313 1100 
L 313 1709 
L 2253 4666 
z
" transform="scale(0.015625)"/>
       </defs>
       <use xlink:href="#DejaVuSans-34"/>
      </g>
     </g>
    </g>
    <g id="xtick_4">
     <g id="line2d_4">
      <g>
       <use xlink:href="#m1f05315c42" x="256.19233" y="386.6" style="stroke: #000000; stroke-width: 0.8"/>
      </g>
     </g>
     <g id="text_4">
      <!-- 6 -->
      <g transform="translate(253.01108 401.198438)scale(0.1 -0.1)">
       <defs>
        <path id="DejaVuSans-36" d="M 2113 2584 
Q 1688 2584 1439 2293 
Q 1191 2003 1191 1497 
Q 1191 994 1439 701 
Q 1688 409 2113 409 
Q 2538 409 2786 701 
Q 3034 994 3034 1497 
Q 3034 2003 2786 2293 
Q 2538 2584 2113 2584 
z
M 3366 4563 
L 3366 3988 
Q 3128 4100 2886 4159 
Q 2644 4219 2406 4219 
Q 1781 4219 1451 3797 
Q 1122 3375 1075 2522 
Q 1259 2794 1537 2939 
Q 1816 3084 2150 3084 
Q 2853 3084 3261 2657 
Q 3669 2231 3669 1497 
Q 3669 778 3244 343 
Q 2819 -91 2113 -91 
Q 1303 -91 875 529 
Q 447 1150 447 2328 
Q 447 3434 972 4092 
Q 1497 4750 2381 4750 
Q 2619 4750 2861 4703 
Q 3103 4656 3366 4563 
z
" transform="scale(0.015625)"/>
       </defs>
       <use xlink:href="#DejaVuSans-36"/>
      </g>
     </g>
    </g>
    <g id="xtick_5">
     <g id="line2d_5">
      <g>
       <use xlink:href="#m1f05315c42" x="325.758239" y="386.6" style="stroke: #000000; stroke-width: 0.8"/>
      </g>
     </g>
     <g id="text_5">
      <!-- 8 -->
      <g transform="translate(322.576989 401.198438)scale(0.1 -0.1)">
       <defs>
        <path id="DejaVuSans-38" d="M 2034 2216 
Q 1584 2216 1326 1975 
Q 1069 1734 1069 1313 
Q 1069 891 1326 650 
Q 1584 409 2034 409 
Q 2484 409 2743 651 
Q 3003 894 3003 1313 
Q 3003 1734 2745 1975 
Q 2488 2216 2034 2216 
z
M 1403 2484 
Q 997 2584 770 2862 
Q 544 3141 544 3541 
Q 544 4100 942 4425 
Q 1341 4750 2034 4750 
Q 2731 4750 3128 4425 
Q 3525 4100 3525 3541 
Q 3525 3141 3298 2862 
Q 3072 2584 2669 2484 
Q 3125 2378 3379 2068 
Q 3634 1759 3634 1313 
Q 3634 634 3220 271 
Q 2806 -91 2034 -91 
Q 1263 -91 848 271 
Q 434 634 434 1313 
Q 434 1759 690 2068 
Q 947 2378 1403 2484 
z
M 1172 3481 
Q 1172 3119 1398 2916 
Q 1625 2713 2034 2713 
Q 2441 2713 2670 2916 
Q 2900 3119 2900 3481 
Q 2900 3844 2670 4047 
Q 2441 4250 2034 4250 
Q 1625 4250 1398 4047 
Q 1172 3844 1172 3481 
z
" transform="scale(0.015625)"/>
       </defs>
       <use xlink:href="#DejaVuSans-38"/>
      </g>
     </g>
    </g>
    <g id="xtick_6">
     <g id="line2d_6">
      <g>
       <use xlink:href="#m1f05315c42" x="395.324148" y="386.6" style="stroke: #000000; stroke-width: 0.8"/>
      </g>
     </g>
     <g id="text_6">
      <!-- 10 -->
      <g transform="translate(388.961648 401.198438)scale(0.1 -0.1)">
       <defs>
        <path id="DejaVuSans-31" d="M 794 531 
L 1825 531 
L 1825 4091 
L 703 3866 
L 703 4441 
L 1819 4666 
L 2450 4666 
L 2450 531 
L 3481 531 
L 3481 0 
L 794 0 
L 794 531 
z
" transform="scale(0.015625)"/>
       </defs>
       <use xlink:href="#DejaVuSans-31"/>
       <use xlink:href="#DejaVuSans-30" x="63.623047"/>
      </g>
     </g>
    </g>
    <g id="text_7">
     <!-- Time -->
     <g transform="translate(209.175781 414.876563)scale(0.1 -0.1)">
      <defs>
       <path id="DejaVuSans-54" d="M -19 4666 
L 3928 4666 
L 3928 4134 
L 2272 4134 
L 2272 0 
L 1638 0 
L 1638 4134 
L -19 4134 
L -19 4666 
z
" transform="scale(0.015625)"/>
       <path id="DejaVuSans-69" d="M 603 3500 
L 1178 3500 
L 1178 0 
L 603 0 
L 603 3500 
z
M 603 4863 
L 1178 4863 
L 1178 4134 
L 603 4134 
L 603 4863 
z
" transform="scale(0.015625)"/>
       <path id="DejaVuSans-6d" d="M 3328 2828 
Q 3544 3216 3844 3400 
Q 4144 3584 4550 3584 
Q 5097 3584 5394 3201 
Q 5691 2819 5691 2113 
L 5691 0 
L 5113 0 
L 5113 2094 
Q 5113 2597 4934 2840 
Q 4756 3084 4391 3084 
Q 3944 3084 3684 2787 
Q 3425 2491 3425 1978 
L 3425 0 
L 2847 0 
L 2847 2094 
Q 2847 2600 2669 2842 
Q 2491 3084 2119 3084 
Q 1678 3084 1418 2786 
Q 1159 2488 1159 1978 
L 1159 0 
L 581 0 
L 581 3500 
L 1159 3500 
L 1159 2956 
Q 1356 3278 1631 3431 
Q 1906 3584 2284 3584 
Q 2666 3584 2933 3390 
Q 3200 3197 3328 2828 
z
" transform="scale(0.015625)"/>
       <path id="DejaVuSans-65" d="M 3597 1894 
L 3597 1613 
L 953 1613 
Q 991 1019 1311 708 
Q 1631 397 2203 397 
Q 2534 397 2845 478 
Q 3156 559 3463 722 
L 3463 178 
Q 3153 47 2828 -22 
Q 2503 -91 2169 -91 
Q 1331 -91 842 396 
Q 353 884 353 1716 
Q 353 2575 817 3079 
Q 1281 3584 2069 3584 
Q 2775 3584 3186 3129 
Q 3597 2675 3597 1894 
z
M 3022 2063 
Q 3016 2534 2758 2815 
Q 2500 3097 2075 3097 
Q 1594 3097 1305 2825 
Q 1016 2553 972 2059 
L 3022 2063 
z
" transform="scale(0.015625)"/>
      </defs>
      <use xlink:href="#DejaVuSans-54"/>
      <use xlink:href="#DejaVuSans-69" x="57.958984"/>
      <use xlink:href="#DejaVuSans-6d" x="85.742188"/>
      <use xlink:href="#DejaVuSans-65" x="183.154297"/>
     </g>
    </g>
   </g>
   <g id="matplotlib.axis_2">
    <g id="ytick_1">
     <g id="line2d_7">
      <defs>
       <path id="m5781255205" d="M 0 0 
L -3.5 0 
" style="stroke: #000000; stroke-width: 0.8"/>
      </defs>
      <g>
       <use xlink:href="#m5781255205" x="30.103125" y="339.430391" style="stroke: #000000; stroke-width: 0.8"/>
      </g>
     </g>
     <g id="text_8">
      <!-- 2.0 -->
      <g transform="translate(7.2 343.22961)scale(0.1 -0.1)">
       <defs>
        <path id="DejaVuSans-2e" d="M 684 794 
L 1344 794 
L 1344 0 
L 684 0 
L 684 794 
z
" transform="scale(0.015625)"/>
       </defs>
       <use xlink:href="#DejaVuSans-32"/>
       <use xlink:href="#DejaVuSans-2e" x="63.623047"/>
       <use xlink:href="#DejaVuSans-30" x="95.410156"/>
      </g>
     </g>
    </g>
    <g id="ytick_2">
     <g id="line2d_8">
      <g>
       <use xlink:href="#m5781255205" x="30.103125" y="262.627358" style="stroke: #000000; stroke-width: 0.8"/>
      </g>
     </g>
     <g id="text_9">
      <!-- 2.5 -->
      <g transform="translate(7.2 266.426576)scale(0.1 -0.1)">
       <defs>
        <path id="DejaVuSans-35" d="M 691 4666 
L 3169 4666 
L 3169 4134 
L 1269 4134 
L 1269 2991 
Q 1406 3038 1543 3061 
Q 1681 3084 1819 3084 
Q 2600 3084 3056 2656 
Q 3513 2228 3513 1497 
Q 3513 744 3044 326 
Q 2575 -91 1722 -91 
Q 1428 -91 1123 -41 
Q 819 9 494 109 
L 494 744 
Q 775 591 1075 516 
Q 1375 441 1709 441 
Q 2250 441 2565 725 
Q 2881 1009 2881 1497 
Q 2881 1984 2565 2268 
Q 2250 2553 1709 2553 
Q 1456 2553 1204 2497 
Q 953 2441 691 2322 
L 691 4666 
z
" transform="scale(0.015625)"/>
       </defs>
       <use xlink:href="#DejaVuSans-32"/>
       <use xlink:href="#DejaVuSans-2e" x="63.623047"/>
       <use xlink:href="#DejaVuSans-35" x="95.410156"/>
      </g>
     </g>
    </g>
    <g id="ytick_3">
     <g id="line2d_9">
      <g>
       <use xlink:href="#m5781255205" x="30.103125" y="185.824325" style="stroke: #000000; stroke-width: 0.8"/>
      </g>
     </g>
     <g id="text_10">
      <!-- 3.0 -->
      <g transform="translate(7.2 189.623543)scale(0.1 -0.1)">
       <defs>
        <path id="DejaVuSans-33" d="M 2597 2516 
Q 3050 2419 3304 2112 
Q 3559 1806 3559 1356 
Q 3559 666 3084 287 
Q 2609 -91 1734 -91 
Q 1441 -91 1130 -33 
Q 819 25 488 141 
L 488 750 
Q 750 597 1062 519 
Q 1375 441 1716 441 
Q 2309 441 2620 675 
Q 2931 909 2931 1356 
Q 2931 1769 2642 2001 
Q 2353 2234 1838 2234 
L 1294 2234 
L 1294 2753 
L 1863 2753 
Q 2328 2753 2575 2939 
Q 2822 3125 2822 3475 
Q 2822 3834 2567 4026 
Q 2313 4219 1838 4219 
Q 1578 4219 1281 4162 
Q 984 4106 628 3988 
L 628 4550 
Q 988 4650 1302 4700 
Q 1616 4750 1894 4750 
Q 2613 4750 3031 4423 
Q 3450 4097 3450 3541 
Q 3450 3153 3228 2886 
Q 3006 2619 2597 2516 
z
" transform="scale(0.015625)"/>
       </defs>
       <use xlink:href="#DejaVuSans-33"/>
       <use xlink:href="#DejaVuSans-2e" x="63.623047"/>
       <use xlink:href="#DejaVuSans-30" x="95.410156"/>
      </g>
     </g>
    </g>
    <g id="ytick_4">
     <g id="line2d_10">
      <g>
       <use xlink:href="#m5781255205" x="30.103125" y="109.021291" style="stroke: #000000; stroke-width: 0.8"/>
      </g>
     </g>
     <g id="text_11">
      <!-- 3.5 -->
      <g transform="translate(7.2 112.82051)scale(0.1 -0.1)">
       <use xlink:href="#DejaVuSans-33"/>
       <use xlink:href="#DejaVuSans-2e" x="63.623047"/>
       <use xlink:href="#DejaVuSans-35" x="95.410156"/>
      </g>
     </g>
    </g>
    <g id="ytick_5">
     <g id="line2d_11">
      <g>
       <use xlink:href="#m5781255205" x="30.103125" y="32.218258" style="stroke: #000000; stroke-width: 0.8"/>
      </g>
     </g>
     <g id="text_12">
      <!-- 4.0 -->
      <g transform="translate(7.2 36.017477)scale(0.1 -0.1)">
       <use xlink:href="#DejaVuSans-34"/>
       <use xlink:href="#DejaVuSans-2e" x="63.623047"/>
       <use xlink:href="#DejaVuSans-30" x="95.410156"/>
      </g>
     </g>
    </g>
   </g>
   <g id="line2d_12">
    <path d="M 47.494602 32.218258 
L 48.190261 32.316669 
L 48.88592 32.61215 
L 49.58158 33.10464 
L 50.625068 34.211196 
L 51.668557 35.755239 
L 52.712045 37.735255 
L 53.755534 40.136424 
L 55.146852 43.959009 
L 56.53817 48.447052 
L 58.277318 54.916624 
L 60.016466 62.246318 
L 62.103443 72.028092 
L 64.53825 84.557571 
L 67.668716 101.941992 
L 78.103602 161.123543 
L 80.886239 175.029167 
L 83.321045 186.073922 
L 85.408023 194.574374 
L 87.495 202.096227 
L 89.234148 207.572506 
L 90.973295 212.302392 
L 92.364614 215.538836 
L 93.755932 218.285247 
L 95.14725 220.542763 
L 96.538568 222.316549 
L 97.582057 223.334817 
L 98.625545 224.091436 
L 99.669034 224.593021 
L 100.712523 224.841953 
L 101.756011 224.833918 
L 102.7995 224.56576 
L 103.842989 224.035168 
L 104.886477 223.240675 
L 105.929966 222.18166 
L 106.973455 220.858347 
L 108.364773 218.684768 
L 109.756091 216.048192 
L 111.147409 212.956159 
L 112.886557 208.46644 
L 114.625705 203.307027 
L 116.364852 197.510248 
L 118.45183 189.767948 
L 120.886636 179.753236 
L 123.321443 168.816084 
L 126.10408 155.26928 
L 129.582375 137.172819 
L 140.365091 80.129851 
L 143.147727 67.108795 
L 145.234705 58.313321 
L 146.973852 51.769661 
L 148.713 46.058975 
L 150.104318 42.166538 
L 151.495636 38.939876 
L 152.539125 37.020616 
L 153.582614 35.553656 
L 154.626102 34.529399 
L 155.321761 34.08765 
L 156.01742 33.835295 
L 156.71308 33.769297 
L 157.408739 33.886565 
L 158.104398 34.183958 
L 158.800057 34.658282 
L 159.843545 35.6944 
L 160.887034 37.110125 
L 161.930523 38.894021 
L 163.321841 41.825003 
L 164.713159 45.361227 
L 166.104477 49.473407 
L 167.843625 55.377607 
L 169.582773 62.073969 
L 171.66975 71.066869 
L 174.104557 82.736251 
L 176.539364 95.497116 
L 179.66983 113.176811 
L 185.235102 144.72082 
L 188.713398 163.311838 
L 191.843864 178.828007 
L 194.27867 189.856477 
L 196.365648 198.436802 
L 198.452625 206.089526 
L 200.191773 211.672658 
L 201.93092 216.458986 
L 203.322239 219.666234 
L 204.713557 222.280342 
L 206.104875 224.304213 
L 207.496193 225.857128 
L 208.539682 226.711971 
L 209.58317 227.295253 
L 210.626659 227.60267 
L 211.670148 227.630916 
L 212.713636 227.377682 
L 213.757125 226.841656 
L 214.800614 226.022523 
L 215.844102 224.920966 
L 216.887591 223.538662 
L 218.278909 221.263645 
L 219.670227 218.503499 
L 221.061545 215.270475 
L 222.800693 210.587978 
L 224.539841 205.22792 
L 226.626818 197.96495 
L 228.713795 189.882938 
L 231.148602 179.534532 
L 233.583409 168.222666 
L 236.366045 154.281737 
L 239.844341 135.712031 
L 251.322716 73.324315 
L 253.757523 61.761326 
L 255.8445 52.888829 
L 257.583648 46.409677 
L 258.974966 41.929898 
L 260.366284 38.117463 
L 261.757602 34.997708 
L 262.801091 33.125022 
L 263.84458 31.660566 
L 264.888068 30.609761 
L 265.583727 30.141024 
L 266.279386 29.858688 
L 266.975045 29.763244 
L 267.670705 29.854884 
L 268.366364 30.133504 
L 269.062023 30.5987 
L 270.105511 31.644713 
L 271.149 33.105263 
L 272.192489 34.975225 
L 273.235977 37.247971 
L 274.627295 40.890573 
L 276.018614 45.21115 
L 277.409932 50.181494 
L 279.14908 57.257481 
L 280.888227 65.22202 
L 282.975205 75.82979 
L 285.410011 89.425343 
L 291.323114 124.286511 
L 297.236216 158.90603 
L 300.366682 176.095075 
L 303.149318 190.131471 
L 305.236295 199.614965 
L 306.975443 206.672326 
L 308.714591 212.82857 
L 310.105909 217.016952 
L 311.845057 221.430474 
L 313.236375 224.441281 
L 314.627693 226.964334 
L 316.019011 228.979416 
L 317.0625 230.147508 
L 318.105989 231.015399 
L 319.149477 231.579073 
L 320.192966 231.835805 
L 321.236455 231.784159 
L 322.279943 231.423989 
L 323.323432 230.756439 
L 324.36692 229.783941 
L 325.410409 228.51022 
L 326.453898 226.940287 
L 327.845216 224.397349 
L 329.236534 221.357671 
L 330.975682 216.894324 
L 332.71483 211.743464 
L 334.801807 204.744338 
L 336.888784 196.963041 
L 338.975761 188.371955 
L 341.410568 177.344331 
L 344.193205 163.545118 
L 347.32367 146.750464 
L 351.497625 122.932139 
L 359.149875 78.970834 
L 361.932511 64.434277 
L 364.367318 52.927084 
L 366.106466 45.609184 
L 367.845614 39.207077 
L 369.236932 34.827483 
L 370.62825 31.165308 
L 371.671739 28.916391 
L 372.715227 27.11152 
L 373.758716 25.763435 
L 374.454375 25.12354 
L 375.150034 24.693464 
L 375.845693 24.474963 
L 376.541352 24.469255 
L 377.237011 24.677022 
L 377.93267 25.098406 
L 378.62833 25.73301 
L 379.671818 27.082516 
L 380.715307 28.904119 
L 381.758795 31.189673 
L 382.802284 33.928306 
L 384.193602 38.260718 
L 385.58492 43.334361 
L 387.324068 50.634871 
L 389.063216 58.873648 
L 391.150193 69.80888 
L 393.93283 85.764721 
L 395.324148 94.159529 
L 395.324148 94.159529 
" clip-path="url(#pb33780dbc7)" style="fill: none; stroke: #1f77b4; stroke-width: 1.5; stroke-linecap: square"/>
   </g>
   <g id="line2d_13">
    <path d="M 47.494602 339.430391 
L 54.799023 326.703487 
L 57.581659 322.289502 
L 60.016466 318.826286 
L 62.103443 316.226159 
L 64.19042 314.01456 
L 65.929568 312.494494 
L 67.668716 311.284867 
L 69.060034 310.54815 
L 70.451352 310.020577 
L 71.84267 309.703635 
L 73.233989 309.59689 
L 74.625307 309.697984 
L 76.016625 310.002639 
L 77.407943 310.50421 
L 79.147091 311.39433 
L 80.886239 312.562645 
L 82.625386 313.992541 
L 84.712364 316.027575 
L 86.799341 318.377176 
L 89.234148 321.463365 
L 92.016784 325.360326 
L 95.842909 331.158045 
L 106.625625 347.772203 
L 110.10392 352.634588 
L 112.886557 356.173088 
L 115.321364 358.95424 
L 117.75617 361.397357 
L 119.843148 363.19329 
L 121.930125 364.69067 
L 124.017102 365.880801 
L 125.75625 366.643191 
L 127.495398 367.176993 
L 129.234545 367.465419 
L 130.973693 367.495373 
L 132.712841 367.257447 
L 134.451989 366.745925 
L 136.191136 365.958782 
L 137.930284 364.89768 
L 139.669432 363.567976 
L 141.40858 361.978715 
L 143.495557 359.747178 
L 145.582534 357.189435 
L 148.017341 353.842466 
L 150.799977 349.627435 
L 153.930443 344.478384 
L 160.191375 333.532638 
L 164.0175 327.1176 
L 166.800136 322.851208 
L 169.234943 319.497181 
L 171.32192 316.954151 
L 173.408898 314.751126 
L 175.148045 313.192983 
L 176.887193 311.898739 
L 178.626341 310.87558 
L 180.365489 310.139692 
L 181.756807 309.782366 
L 183.148125 309.630646 
L 184.539443 309.682157 
L 185.930761 309.933579 
L 187.32208 310.380646 
L 189.061227 311.206576 
L 190.800375 312.317727 
L 192.539523 313.699531 
L 194.6265 315.691028 
L 196.713477 318.014277 
L 199.148284 321.092603 
L 201.93092 325.01036 
L 205.409216 330.33298 
L 218.626739 351.004613 
L 221.757205 355.289366 
L 224.539841 358.705592 
L 226.974648 361.33212 
L 229.061625 363.277219 
L 231.148602 364.921596 
L 233.23558 366.270114 
L 234.974727 367.146486 
L 236.713875 367.781158 
L 238.453023 368.161462 
L 240.19217 368.277657 
L 241.931318 368.122937 
L 243.670466 367.693426 
L 245.409614 366.988177 
L 247.148761 366.009177 
L 248.887909 364.761342 
L 250.627057 363.252521 
L 252.714034 361.112816 
L 254.801011 358.637165 
L 257.235818 355.364712 
L 259.670625 351.698965 
L 262.801091 346.520228 
L 267.322875 338.517624 
L 273.583807 327.45778 
L 276.714273 322.36964 
L 279.14908 318.777876 
L 281.236057 316.024048 
L 283.323034 313.624387 
L 285.062182 311.931411 
L 286.80133 310.552286 
L 288.540477 309.503795 
L 289.931795 308.905402 
L 291.323114 308.521351 
L 292.714432 308.35113 
L 294.10575 308.393173 
L 295.497068 308.644863 
L 296.888386 309.102534 
L 298.279705 309.761465 
L 300.018852 310.859261 
L 301.758 312.248853 
L 303.497148 313.914094 
L 305.584125 316.249711 
L 307.671102 318.917961 
L 310.105909 322.394285 
L 313.584205 327.824439 
L 318.801648 336.467962 
L 325.758239 347.94182 
L 329.236534 353.239214 
L 332.01917 357.097808 
L 334.453977 360.117132 
L 336.540955 362.391041 
L 338.627932 364.378181 
L 340.714909 366.067964 
L 342.454057 367.228132 
L 344.193205 368.147657 
L 345.932352 368.814636 
L 347.6715 369.219407 
L 349.410648 369.354545 
L 351.149795 369.214866 
L 352.888943 368.797421 
L 354.628091 368.101503 
L 356.367239 367.128643 
L 358.106386 365.882609 
L 359.845534 364.36941 
L 361.932511 362.212677 
L 364.019489 359.700828 
L 366.106466 356.855327 
L 368.541273 353.152141 
L 371.323909 348.48602 
L 374.802205 342.163281 
L 385.237091 322.728354 
L 387.671898 318.82021 
L 389.758875 315.832354 
L 391.845852 313.238163 
L 393.585 311.410956 
L 395.324148 309.910979 
L 395.324148 309.910979 
" clip-path="url(#pb33780dbc7)" style="fill: none; stroke: #ff7f0e; stroke-width: 1.5; stroke-linecap: square"/>
   </g>
   <g id="patch_3">
    <path d="M 30.103125 386.6 
L 30.103125 7.2 
" style="fill: none; stroke: #000000; stroke-width: 0.8; stroke-linejoin: miter; stroke-linecap: square"/>
   </g>
   <g id="patch_4">
    <path d="M 412.715625 386.6 
L 412.715625 7.2 
" style="fill: none; stroke: #000000; stroke-width: 0.8; stroke-linejoin: miter; stroke-linecap: square"/>
   </g>
   <g id="patch_5">
    <path d="M 30.103125 386.6 
L 412.715625 386.6 
" style="fill: none; stroke: #000000; stroke-width: 0.8; stroke-linejoin: miter; stroke-linecap: square"/>
   </g>
   <g id="patch_6">
    <path d="M 30.103125 7.2 
L 412.715625 7.2 
" style="fill: none; stroke: #000000; stroke-width: 0.8; stroke-linejoin: miter; stroke-linecap: square"/>
   </g>
   <g id="legend_1">
    <g id="patch_7">
     <path d="M 336.259375 44.55625 
L 405.715625 44.55625 
Q 407.715625 44.55625 407.715625 42.55625 
L 407.715625 14.2 
Q 407.715625 12.2 405.715625 12.2 
L 336.259375 12.2 
Q 334.259375 12.2 334.259375 14.2 
L 334.259375 42.55625 
Q 334.259375 44.55625 336.259375 44.55625 
z
" style="fill: #ffffff; opacity: 0.8; stroke: #cccccc; stroke-linejoin: miter"/>
    </g>
    <g id="line2d_14">
     <path d="M 338.259375 20.298438 
L 348.259375 20.298438 
L 358.259375 20.298438 
" style="fill: none; stroke: #1f77b4; stroke-width: 1.5; stroke-linecap: square"/>
    </g>
    <g id="text_13">
     <!-- Rabbits -->
     <g transform="translate(366.259375 23.798438)scale(0.1 -0.1)">
      <defs>
       <path id="DejaVuSans-52" d="M 2841 2188 
Q 3044 2119 3236 1894 
Q 3428 1669 3622 1275 
L 4263 0 
L 3584 0 
L 2988 1197 
Q 2756 1666 2539 1819 
Q 2322 1972 1947 1972 
L 1259 1972 
L 1259 0 
L 628 0 
L 628 4666 
L 2053 4666 
Q 2853 4666 3247 4331 
Q 3641 3997 3641 3322 
Q 3641 2881 3436 2590 
Q 3231 2300 2841 2188 
z
M 1259 4147 
L 1259 2491 
L 2053 2491 
Q 2509 2491 2742 2702 
Q 2975 2913 2975 3322 
Q 2975 3731 2742 3939 
Q 2509 4147 2053 4147 
L 1259 4147 
z
" transform="scale(0.015625)"/>
       <path id="DejaVuSans-61" d="M 2194 1759 
Q 1497 1759 1228 1600 
Q 959 1441 959 1056 
Q 959 750 1161 570 
Q 1363 391 1709 391 
Q 2188 391 2477 730 
Q 2766 1069 2766 1631 
L 2766 1759 
L 2194 1759 
z
M 3341 1997 
L 3341 0 
L 2766 0 
L 2766 531 
Q 2569 213 2275 61 
Q 1981 -91 1556 -91 
Q 1019 -91 701 211 
Q 384 513 384 1019 
Q 384 1609 779 1909 
Q 1175 2209 1959 2209 
L 2766 2209 
L 2766 2266 
Q 2766 2663 2505 2880 
Q 2244 3097 1772 3097 
Q 1472 3097 1187 3025 
Q 903 2953 641 2809 
L 641 3341 
Q 956 3463 1253 3523 
Q 1550 3584 1831 3584 
Q 2591 3584 2966 3190 
Q 3341 2797 3341 1997 
z
" transform="scale(0.015625)"/>
       <path id="DejaVuSans-62" d="M 3116 1747 
Q 3116 2381 2855 2742 
Q 2594 3103 2138 3103 
Q 1681 3103 1420 2742 
Q 1159 2381 1159 1747 
Q 1159 1113 1420 752 
Q 1681 391 2138 391 
Q 2594 391 2855 752 
Q 3116 1113 3116 1747 
z
M 1159 2969 
Q 1341 3281 1617 3432 
Q 1894 3584 2278 3584 
Q 2916 3584 3314 3078 
Q 3713 2572 3713 1747 
Q 3713 922 3314 415 
Q 2916 -91 2278 -91 
Q 1894 -91 1617 61 
Q 1341 213 1159 525 
L 1159 0 
L 581 0 
L 581 4863 
L 1159 4863 
L 1159 2969 
z
" transform="scale(0.015625)"/>
       <path id="DejaVuSans-74" d="M 1172 4494 
L 1172 3500 
L 2356 3500 
L 2356 3053 
L 1172 3053 
L 1172 1153 
Q 1172 725 1289 603 
Q 1406 481 1766 481 
L 2356 481 
L 2356 0 
L 1766 0 
Q 1100 0 847 248 
Q 594 497 594 1153 
L 594 3053 
L 172 3053 
L 172 3500 
L 594 3500 
L 594 4494 
L 1172 4494 
z
" transform="scale(0.015625)"/>
       <path id="DejaVuSans-73" d="M 2834 3397 
L 2834 2853 
Q 2591 2978 2328 3040 
Q 2066 3103 1784 3103 
Q 1356 3103 1142 2972 
Q 928 2841 928 2578 
Q 928 2378 1081 2264 
Q 1234 2150 1697 2047 
L 1894 2003 
Q 2506 1872 2764 1633 
Q 3022 1394 3022 966 
Q 3022 478 2636 193 
Q 2250 -91 1575 -91 
Q 1294 -91 989 -36 
Q 684 19 347 128 
L 347 722 
Q 666 556 975 473 
Q 1284 391 1588 391 
Q 1994 391 2212 530 
Q 2431 669 2431 922 
Q 2431 1156 2273 1281 
Q 2116 1406 1581 1522 
L 1381 1569 
Q 847 1681 609 1914 
Q 372 2147 372 2553 
Q 372 3047 722 3315 
Q 1072 3584 1716 3584 
Q 2034 3584 2315 3537 
Q 2597 3491 2834 3397 
z
" transform="scale(0.015625)"/>
      </defs>
      <use xlink:href="#DejaVuSans-52"/>
      <use xlink:href="#DejaVuSans-61" x="67.232422"/>
      <use xlink:href="#DejaVuSans-62" x="128.511719"/>
      <use xlink:href="#DejaVuSans-62" x="191.988281"/>
      <use xlink:href="#DejaVuSans-69" x="255.464844"/>
      <use xlink:href="#DejaVuSans-74" x="283.248047"/>
      <use xlink:href="#DejaVuSans-73" x="322.457031"/>
     </g>
    </g>
    <g id="line2d_15">
     <path d="M 338.259375 34.976563 
L 348.259375 34.976563 
L 358.259375 34.976563 
" style="fill: none; stroke: #ff7f0e; stroke-width: 1.5; stroke-linecap: square"/>
    </g>
    <g id="text_14">
     <!-- Foxes -->
     <g transform="translate(366.259375 38.476563)scale(0.1 -0.1)">
      <defs>
       <path id="DejaVuSans-46" d="M 628 4666 
L 3309 4666 
L 3309 4134 
L 1259 4134 
L 1259 2759 
L 3109 2759 
L 3109 2228 
L 1259 2228 
L 1259 0 
L 628 0 
L 628 4666 
z
" transform="scale(0.015625)"/>
       <path id="DejaVuSans-6f" d="M 1959 3097 
Q 1497 3097 1228 2736 
Q 959 2375 959 1747 
Q 959 1119 1226 758 
Q 1494 397 1959 397 
Q 2419 397 2687 759 
Q 2956 1122 2956 1747 
Q 2956 2369 2687 2733 
Q 2419 3097 1959 3097 
z
M 1959 3584 
Q 2709 3584 3137 3096 
Q 3566 2609 3566 1747 
Q 3566 888 3137 398 
Q 2709 -91 1959 -91 
Q 1206 -91 779 398 
Q 353 888 353 1747 
Q 353 2609 779 3096 
Q 1206 3584 1959 3584 
z
" transform="scale(0.015625)"/>
       <path id="DejaVuSans-78" d="M 3513 3500 
L 2247 1797 
L 3578 0 
L 2900 0 
L 1881 1375 
L 863 0 
L 184 0 
L 1544 1831 
L 300 3500 
L 978 3500 
L 1906 2253 
L 2834 3500 
L 3513 3500 
z
" transform="scale(0.015625)"/>
      </defs>
      <use xlink:href="#DejaVuSans-46"/>
      <use xlink:href="#DejaVuSans-6f" x="53.894531"/>
      <use xlink:href="#DejaVuSans-78" x="111.951172"/>
      <use xlink:href="#DejaVuSans-65" x="168.005859"/>
      <use xlink:href="#DejaVuSans-73" x="229.529297"/>
     </g>
    </g>
   </g>
  </g>
  <g id="axes_2">
   <g id="patch_8">
    <path d="M 466.890625 386.6 
L 849.503125 386.6 
L 849.503125 7.2 
L 466.890625 7.2 
z
" style="fill: #ffffff"/>
   </g>
   <g id="matplotlib.axis_3">
    <g id="xtick_7">
     <g id="line2d_16">
      <g>
       <use xlink:href="#m1f05315c42" x="509.953065" y="386.6" style="stroke: #000000; stroke-width: 0.8"/>
      </g>
     </g>
     <g id="text_15">
      <!-- 2.8 -->
      <g transform="translate(502.001503 401.198438)scale(0.1 -0.1)">
       <use xlink:href="#DejaVuSans-32"/>
       <use xlink:href="#DejaVuSans-2e" x="63.623047"/>
       <use xlink:href="#DejaVuSans-38" x="95.410156"/>
      </g>
     </g>
    </g>
    <g id="xtick_8">
     <g id="line2d_17">
      <g>
       <use xlink:href="#m1f05315c42" x="561.473618" y="386.6" style="stroke: #000000; stroke-width: 0.8"/>
      </g>
     </g>
     <g id="text_16">
      <!-- 3.0 -->
      <g transform="translate(553.522056 401.198438)scale(0.1 -0.1)">
       <use xlink:href="#DejaVuSans-33"/>
       <use xlink:href="#DejaVuSans-2e" x="63.623047"/>
       <use xlink:href="#DejaVuSans-30" x="95.410156"/>
      </g>
     </g>
    </g>
    <g id="xtick_9">
     <g id="line2d_18">
      <g>
       <use xlink:href="#m1f05315c42" x="612.994171" y="386.6" style="stroke: #000000; stroke-width: 0.8"/>
      </g>
     </g>
     <g id="text_17">
      <!-- 3.2 -->
      <g transform="translate(605.042609 401.198438)scale(0.1 -0.1)">
       <use xlink:href="#DejaVuSans-33"/>
       <use xlink:href="#DejaVuSans-2e" x="63.623047"/>
       <use xlink:href="#DejaVuSans-32" x="95.410156"/>
      </g>
     </g>
    </g>
    <g id="xtick_10">
     <g id="line2d_19">
      <g>
       <use xlink:href="#m1f05315c42" x="664.514724" y="386.6" style="stroke: #000000; stroke-width: 0.8"/>
      </g>
     </g>
     <g id="text_18">
      <!-- 3.4 -->
      <g transform="translate(656.563162 401.198438)scale(0.1 -0.1)">
       <use xlink:href="#DejaVuSans-33"/>
       <use xlink:href="#DejaVuSans-2e" x="63.623047"/>
       <use xlink:href="#DejaVuSans-34" x="95.410156"/>
      </g>
     </g>
    </g>
    <g id="xtick_11">
     <g id="line2d_20">
      <g>
       <use xlink:href="#m1f05315c42" x="716.035277" y="386.6" style="stroke: #000000; stroke-width: 0.8"/>
      </g>
     </g>
     <g id="text_19">
      <!-- 3.6 -->
      <g transform="translate(708.083714 401.198438)scale(0.1 -0.1)">
       <use xlink:href="#DejaVuSans-33"/>
       <use xlink:href="#DejaVuSans-2e" x="63.623047"/>
       <use xlink:href="#DejaVuSans-36" x="95.410156"/>
      </g>
     </g>
    </g>
    <g id="xtick_12">
     <g id="line2d_21">
      <g>
       <use xlink:href="#m1f05315c42" x="767.55583" y="386.6" style="stroke: #000000; stroke-width: 0.8"/>
      </g>
     </g>
     <g id="text_20">
      <!-- 3.8 -->
      <g transform="translate(759.604267 401.198438)scale(0.1 -0.1)">
       <use xlink:href="#DejaVuSans-33"/>
       <use xlink:href="#DejaVuSans-2e" x="63.623047"/>
       <use xlink:href="#DejaVuSans-38" x="95.410156"/>
      </g>
     </g>
    </g>
    <g id="xtick_13">
     <g id="line2d_22">
      <g>
       <use xlink:href="#m1f05315c42" x="819.076383" y="386.6" style="stroke: #000000; stroke-width: 0.8"/>
      </g>
     </g>
     <g id="text_21">
      <!-- 4.0 -->
      <g transform="translate(811.12482 401.198438)scale(0.1 -0.1)">
       <use xlink:href="#DejaVuSans-34"/>
       <use xlink:href="#DejaVuSans-2e" x="63.623047"/>
       <use xlink:href="#DejaVuSans-30" x="95.410156"/>
      </g>
     </g>
    </g>
    <g id="text_22">
     <!-- Rabbit population -->
     <g transform="translate(613.877344 414.876563)scale(0.1 -0.1)">
      <defs>
       <path id="DejaVuSans-20" transform="scale(0.015625)"/>
       <path id="DejaVuSans-70" d="M 1159 525 
L 1159 -1331 
L 581 -1331 
L 581 3500 
L 1159 3500 
L 1159 2969 
Q 1341 3281 1617 3432 
Q 1894 3584 2278 3584 
Q 2916 3584 3314 3078 
Q 3713 2572 3713 1747 
Q 3713 922 3314 415 
Q 2916 -91 2278 -91 
Q 1894 -91 1617 61 
Q 1341 213 1159 525 
z
M 3116 1747 
Q 3116 2381 2855 2742 
Q 2594 3103 2138 3103 
Q 1681 3103 1420 2742 
Q 1159 2381 1159 1747 
Q 1159 1113 1420 752 
Q 1681 391 2138 391 
Q 2594 391 2855 752 
Q 3116 1113 3116 1747 
z
" transform="scale(0.015625)"/>
       <path id="DejaVuSans-75" d="M 544 1381 
L 544 3500 
L 1119 3500 
L 1119 1403 
Q 1119 906 1312 657 
Q 1506 409 1894 409 
Q 2359 409 2629 706 
Q 2900 1003 2900 1516 
L 2900 3500 
L 3475 3500 
L 3475 0 
L 2900 0 
L 2900 538 
Q 2691 219 2414 64 
Q 2138 -91 1772 -91 
Q 1169 -91 856 284 
Q 544 659 544 1381 
z
M 1991 3584 
L 1991 3584 
z
" transform="scale(0.015625)"/>
       <path id="DejaVuSans-6c" d="M 603 4863 
L 1178 4863 
L 1178 0 
L 603 0 
L 603 4863 
z
" transform="scale(0.015625)"/>
       <path id="DejaVuSans-6e" d="M 3513 2113 
L 3513 0 
L 2938 0 
L 2938 2094 
Q 2938 2591 2744 2837 
Q 2550 3084 2163 3084 
Q 1697 3084 1428 2787 
Q 1159 2491 1159 1978 
L 1159 0 
L 581 0 
L 581 3500 
L 1159 3500 
L 1159 2956 
Q 1366 3272 1645 3428 
Q 1925 3584 2291 3584 
Q 2894 3584 3203 3211 
Q 3513 2838 3513 2113 
z
" transform="scale(0.015625)"/>
      </defs>
      <use xlink:href="#DejaVuSans-52"/>
      <use xlink:href="#DejaVuSans-61" x="67.232422"/>
      <use xlink:href="#DejaVuSans-62" x="128.511719"/>
      <use xlink:href="#DejaVuSans-62" x="191.988281"/>
      <use xlink:href="#DejaVuSans-69" x="255.464844"/>
      <use xlink:href="#DejaVuSans-74" x="283.248047"/>
      <use xlink:href="#DejaVuSans-20" x="322.457031"/>
      <use xlink:href="#DejaVuSans-70" x="354.244141"/>
      <use xlink:href="#DejaVuSans-6f" x="417.720703"/>
      <use xlink:href="#DejaVuSans-70" x="478.902344"/>
      <use xlink:href="#DejaVuSans-75" x="542.378906"/>
      <use xlink:href="#DejaVuSans-6c" x="605.757812"/>
      <use xlink:href="#DejaVuSans-61" x="633.541016"/>
      <use xlink:href="#DejaVuSans-74" x="694.820312"/>
      <use xlink:href="#DejaVuSans-69" x="734.029297"/>
      <use xlink:href="#DejaVuSans-6f" x="761.8125"/>
      <use xlink:href="#DejaVuSans-6e" x="822.994141"/>
     </g>
    </g>
   </g>
   <g id="matplotlib.axis_4">
    <g id="ytick_6">
     <g id="line2d_23">
      <g>
       <use xlink:href="#m5781255205" x="466.890625" y="373.860372" style="stroke: #000000; stroke-width: 0.8"/>
      </g>
     </g>
     <g id="text_23">
      <!-- 1.80 -->
      <g transform="translate(437.625 377.659591)scale(0.1 -0.1)">
       <use xlink:href="#DejaVuSans-31"/>
       <use xlink:href="#DejaVuSans-2e" x="63.623047"/>
       <use xlink:href="#DejaVuSans-38" x="95.410156"/>
       <use xlink:href="#DejaVuSans-30" x="159.033203"/>
      </g>
     </g>
    </g>
    <g id="ytick_7">
     <g id="line2d_24">
      <g>
       <use xlink:href="#m5781255205" x="466.890625" y="330.443091" style="stroke: #000000; stroke-width: 0.8"/>
      </g>
     </g>
     <g id="text_24">
      <!-- 1.85 -->
      <g transform="translate(437.625 334.24231)scale(0.1 -0.1)">
       <use xlink:href="#DejaVuSans-31"/>
       <use xlink:href="#DejaVuSans-2e" x="63.623047"/>
       <use xlink:href="#DejaVuSans-38" x="95.410156"/>
       <use xlink:href="#DejaVuSans-35" x="159.033203"/>
      </g>
     </g>
    </g>
    <g id="ytick_8">
     <g id="line2d_25">
      <g>
       <use xlink:href="#m5781255205" x="466.890625" y="287.02581" style="stroke: #000000; stroke-width: 0.8"/>
      </g>
     </g>
     <g id="text_25">
      <!-- 1.90 -->
      <g transform="translate(437.625 290.825028)scale(0.1 -0.1)">
       <defs>
        <path id="DejaVuSans-39" d="M 703 97 
L 703 672 
Q 941 559 1184 500 
Q 1428 441 1663 441 
Q 2288 441 2617 861 
Q 2947 1281 2994 2138 
Q 2813 1869 2534 1725 
Q 2256 1581 1919 1581 
Q 1219 1581 811 2004 
Q 403 2428 403 3163 
Q 403 3881 828 4315 
Q 1253 4750 1959 4750 
Q 2769 4750 3195 4129 
Q 3622 3509 3622 2328 
Q 3622 1225 3098 567 
Q 2575 -91 1691 -91 
Q 1453 -91 1209 -44 
Q 966 3 703 97 
z
M 1959 2075 
Q 2384 2075 2632 2365 
Q 2881 2656 2881 3163 
Q 2881 3666 2632 3958 
Q 2384 4250 1959 4250 
Q 1534 4250 1286 3958 
Q 1038 3666 1038 3163 
Q 1038 2656 1286 2365 
Q 1534 2075 1959 2075 
z
" transform="scale(0.015625)"/>
       </defs>
       <use xlink:href="#DejaVuSans-31"/>
       <use xlink:href="#DejaVuSans-2e" x="63.623047"/>
       <use xlink:href="#DejaVuSans-39" x="95.410156"/>
       <use xlink:href="#DejaVuSans-30" x="159.033203"/>
      </g>
     </g>
    </g>
    <g id="ytick_9">
     <g id="line2d_26">
      <g>
       <use xlink:href="#m5781255205" x="466.890625" y="243.608528" style="stroke: #000000; stroke-width: 0.8"/>
      </g>
     </g>
     <g id="text_26">
      <!-- 1.95 -->
      <g transform="translate(437.625 247.407747)scale(0.1 -0.1)">
       <use xlink:href="#DejaVuSans-31"/>
       <use xlink:href="#DejaVuSans-2e" x="63.623047"/>
       <use xlink:href="#DejaVuSans-39" x="95.410156"/>
       <use xlink:href="#DejaVuSans-35" x="159.033203"/>
      </g>
     </g>
    </g>
    <g id="ytick_10">
     <g id="line2d_27">
      <g>
       <use xlink:href="#m5781255205" x="466.890625" y="200.191247" style="stroke: #000000; stroke-width: 0.8"/>
      </g>
     </g>
     <g id="text_27">
      <!-- 2.00 -->
      <g transform="translate(437.625 203.990466)scale(0.1 -0.1)">
       <use xlink:href="#DejaVuSans-32"/>
       <use xlink:href="#DejaVuSans-2e" x="63.623047"/>
       <use xlink:href="#DejaVuSans-30" x="95.410156"/>
       <use xlink:href="#DejaVuSans-30" x="159.033203"/>
      </g>
     </g>
    </g>
    <g id="ytick_11">
     <g id="line2d_28">
      <g>
       <use xlink:href="#m5781255205" x="466.890625" y="156.773966" style="stroke: #000000; stroke-width: 0.8"/>
      </g>
     </g>
     <g id="text_28">
      <!-- 2.05 -->
      <g transform="translate(437.625 160.573185)scale(0.1 -0.1)">
       <use xlink:href="#DejaVuSans-32"/>
       <use xlink:href="#DejaVuSans-2e" x="63.623047"/>
       <use xlink:href="#DejaVuSans-30" x="95.410156"/>
       <use xlink:href="#DejaVuSans-35" x="159.033203"/>
      </g>
     </g>
    </g>
    <g id="ytick_12">
     <g id="line2d_29">
      <g>
       <use xlink:href="#m5781255205" x="466.890625" y="113.356685" style="stroke: #000000; stroke-width: 0.8"/>
      </g>
     </g>
     <g id="text_29">
      <!-- 2.10 -->
      <g transform="translate(437.625 117.155903)scale(0.1 -0.1)">
       <use xlink:href="#DejaVuSans-32"/>
       <use xlink:href="#DejaVuSans-2e" x="63.623047"/>
       <use xlink:href="#DejaVuSans-31" x="95.410156"/>
       <use xlink:href="#DejaVuSans-30" x="159.033203"/>
      </g>
     </g>
    </g>
    <g id="ytick_13">
     <g id="line2d_30">
      <g>
       <use xlink:href="#m5781255205" x="466.890625" y="69.939403" style="stroke: #000000; stroke-width: 0.8"/>
      </g>
     </g>
     <g id="text_30">
      <!-- 2.15 -->
      <g transform="translate(437.625 73.738622)scale(0.1 -0.1)">
       <use xlink:href="#DejaVuSans-32"/>
       <use xlink:href="#DejaVuSans-2e" x="63.623047"/>
       <use xlink:href="#DejaVuSans-31" x="95.410156"/>
       <use xlink:href="#DejaVuSans-35" x="159.033203"/>
      </g>
     </g>
    </g>
    <g id="ytick_14">
     <g id="line2d_31">
      <g>
       <use xlink:href="#m5781255205" x="466.890625" y="26.522122" style="stroke: #000000; stroke-width: 0.8"/>
      </g>
     </g>
     <g id="text_31">
      <!-- 2.20 -->
      <g transform="translate(437.625 30.321341)scale(0.1 -0.1)">
       <use xlink:href="#DejaVuSans-32"/>
       <use xlink:href="#DejaVuSans-2e" x="63.623047"/>
       <use xlink:href="#DejaVuSans-32" x="95.410156"/>
       <use xlink:href="#DejaVuSans-30" x="159.033203"/>
      </g>
     </g>
    </g>
    <g id="text_32">
     <!-- Foxes population -->
     <g transform="translate(431.545313 239.178125)rotate(-90)scale(0.1 -0.1)">
      <use xlink:href="#DejaVuSans-46"/>
      <use xlink:href="#DejaVuSans-6f" x="53.894531"/>
      <use xlink:href="#DejaVuSans-78" x="111.951172"/>
      <use xlink:href="#DejaVuSans-65" x="168.005859"/>
      <use xlink:href="#DejaVuSans-73" x="229.529297"/>
      <use xlink:href="#DejaVuSans-20" x="281.628906"/>
      <use xlink:href="#DejaVuSans-70" x="313.416016"/>
      <use xlink:href="#DejaVuSans-6f" x="376.892578"/>
      <use xlink:href="#DejaVuSans-70" x="438.074219"/>
      <use xlink:href="#DejaVuSans-75" x="501.550781"/>
      <use xlink:href="#DejaVuSans-6c" x="564.929688"/>
      <use xlink:href="#DejaVuSans-61" x="592.712891"/>
      <use xlink:href="#DejaVuSans-74" x="653.992188"/>
      <use xlink:href="#DejaVuSans-69" x="693.201172"/>
      <use xlink:href="#DejaVuSans-6f" x="720.984375"/>
      <use xlink:href="#DejaVuSans-6e" x="782.166016"/>
     </g>
    </g>
   </g>
   <g id="line2d_32">
    <path d="M 819.076383 200.191247 
L 818.911345 193.232779 
L 818.415813 186.259904 
L 817.58989 179.286226 
L 816.434659 172.325496 
L 814.952174 165.391609 
L 813.144741 158.497346 
L 811.011117 151.646559 
L 808.558769 144.854436 
L 805.797341 138.138665 
L 802.736658 131.516254 
L 799.386732 125.003532 
L 795.757761 118.616149 
L 791.860126 112.369077 
L 787.704392 106.276607 
L 783.301312 100.352353 
L 778.661821 94.609249 
L 773.79704 89.05955 
L 768.718274 83.714831 
L 763.437013 78.58599 
L 757.964933 73.683245 
L 752.313894 69.016134 
L 746.495941 64.593517 
L 740.523302 60.423576 
L 734.408394 56.513811 
L 728.163814 52.871046 
L 721.802346 49.501424 
L 715.336961 46.41041 
L 708.780811 43.602789 
L 702.147235 41.082669 
L 695.449756 38.853476 
L 688.702082 36.91796 
L 681.918107 35.278189 
L 675.111907 33.935554 
L 668.297747 32.890767 
L 661.490072 32.14386 
L 654.703515 31.694186 
L 647.952893 31.540419 
L 641.253209 31.680556 
L 634.619648 32.111911 
L 628.067582 32.831122 
L 621.612567 33.834148 
L 615.269723 35.116194 
L 609.031655 36.669566 
L 602.897696 38.488034 
L 596.876889 40.566457 
L 590.977854 42.899428 
L 585.20879 45.481269 
L 579.577476 48.306037 
L 574.091266 51.36752 
L 568.757093 54.659238 
L 563.58147 58.174444 
L 558.570486 61.906123 
L 553.729809 65.846992 
L 549.064685 69.989501 
L 544.579937 74.325831 
L 540.279968 78.847896 
L 536.168758 83.547342 
L 532.249865 88.415549 
L 528.526426 93.443626 
L 525.001155 98.622417 
L 521.676345 103.942497 
L 518.553866 109.394174 
L 515.635168 114.967487 
L 512.921277 120.652208 
L 510.412797 126.437841 
L 508.109913 132.313624 
L 506.012386 138.268524 
L 504.119554 144.291244 
L 502.430336 150.370216 
L 500.943226 156.493605 
L 499.656299 162.64931 
L 498.567206 168.824961 
L 497.673176 175.00792 
L 496.971019 181.185282 
L 496.457154 187.34414 
L 496.131261 193.489918 
L 495.996004 199.624415 
L 496.05316 205.73951 
L 496.304228 211.827217 
L 496.750426 217.879684 
L 497.392693 223.889195 
L 498.231686 229.848169 
L 499.267786 235.74916 
L 500.50109 241.584857 
L 501.931418 247.348084 
L 503.558308 253.031802 
L 505.38102 258.629103 
L 507.398532 264.133218 
L 509.609545 269.537511 
L 512.012477 274.835482 
L 514.605469 280.020765 
L 517.386379 285.08713 
L 520.352788 290.028483 
L 523.501996 294.838863 
L 526.831022 299.512445 
L 530.336606 304.04354 
L 534.015209 308.426592 
L 537.863012 312.656183 
L 541.875914 316.727027 
L 546.049536 320.633975 
L 550.379219 324.372013 
L 554.860024 327.936261 
L 559.486731 331.321975 
L 564.253842 334.524547 
L 569.155577 337.539501 
L 574.185878 340.362499 
L 579.338406 342.989338 
L 584.606618 345.416052 
L 589.997034 347.656704 
L 595.511612 349.717232 
L 601.141925 351.589294 
L 606.879436 353.265079 
L 612.7155 354.737312 
L 618.641362 355.999252 
L 624.648159 357.044692 
L 630.726921 357.867958 
L 636.868564 358.463912 
L 643.063901 358.827947 
L 649.303632 358.955995 
L 655.57835 358.844517 
L 661.878538 358.49051 
L 668.194571 357.891506 
L 674.516715 357.045571 
L 680.835126 355.951304 
L 687.139854 354.607837 
L 693.420836 353.01484 
L 699.667904 351.172513 
L 705.870778 349.081592 
L 712.019071 346.743346 
L 718.102287 344.159581 
L 724.10982 341.332634 
L 730.030956 338.265376 
L 735.854872 334.961214 
L 741.570636 331.424087 
L 747.167207 327.658472 
L 752.633435 323.669374 
L 757.958063 319.462338 
L 763.129721 315.043438 
L 768.136934 310.419287 
L 772.968117 305.597028 
L 777.611575 300.584341 
L 782.055505 295.389437 
L 786.287995 290.021064 
L 790.297024 284.488502 
L 794.070463 278.801567 
L 797.596073 272.970608 
L 800.861506 267.006507 
L 803.854306 260.920682 
L 806.561907 254.725085 
L 808.962138 248.417499 
L 811.02266 241.970784 
L 812.746052 235.401317 
L 814.13706 228.727901 
L 815.200519 221.968853 
L 815.941348 215.142003 
L 816.364556 208.26469 
L 816.475237 201.35377 
L 816.278574 194.42561 
L 815.779836 187.496089 
L 814.984377 180.580599 
L 813.897643 173.694045 
L 812.525161 166.850844 
L 810.872551 160.064928 
L 808.945515 153.349738 
L 806.749845 146.718231 
L 804.29142 140.182874 
L 801.576205 133.755648 
L 798.610251 127.448047 
L 795.399699 121.271077 
L 791.950776 115.235256 
L 788.269793 109.350617 
L 784.363153 103.626703 
L 780.237343 98.072571 
L 775.898937 92.696791 
L 771.354597 87.507445 
L 766.611072 82.512128 
L 761.675198 77.717946 
L 756.553897 73.131521 
L 751.25418 68.758984 
L 745.783144 64.605982 
L 740.147972 60.677673 
L 734.355935 56.978726 
L 728.414392 53.513327 
L 722.330788 50.28517 
L 716.112655 47.297465 
L 709.767612 44.552933 
L 703.303366 42.053808 
L 696.727709 39.801837 
L 690.048523 37.798278 
L 683.306049 36.057507 
L 676.57672 34.608919 
L 669.868773 33.453008 
L 663.188124 32.588932 
L 656.540748 32.015514 
L 649.932684 31.731245 
L 643.370029 31.73428 
L 636.85894 32.02244 
L 630.405639 32.593212 
L 624.016403 33.443748 
L 617.697574 34.570866 
L 611.455554 35.971051 
L 605.296804 37.640451 
L 599.227848 39.574882 
L 593.255269 41.769826 
L 587.385711 44.220428 
L 581.625881 46.921501 
L 575.982542 49.867523 
L 570.462523 53.052638 
L 565.07271 56.470655 
L 559.820051 60.115049 
L 554.711556 63.978961 
L 549.754294 68.055198 
L 544.955395 72.336232 
L 540.32205 76.8142 
L 535.861512 81.480907 
L 531.581092 86.327821 
L 527.488164 91.346078 
L 523.590161 96.526478 
L 519.894579 101.859488 
L 516.408974 107.335239 
L 513.14096 112.94353 
L 510.098216 118.673824 
L 507.288479 124.51525 
L 504.719547 130.456603 
L 502.39928 136.486343 
L 500.335598 142.592597 
L 498.533433 148.762963 
L 496.941495 154.982301 
L 495.541626 161.240248 
L 494.337201 167.528287 
L 493.331269 173.837989 
L 492.526545 180.161014 
L 491.925415 186.489109 
L 491.529935 192.814111 
L 491.341831 199.127943 
L 491.362497 205.422616 
L 491.592998 211.690231 
L 492.034069 217.922974 
L 492.686113 224.113121 
L 493.549206 230.253037 
L 494.62309 236.335173 
L 495.907179 242.352068 
L 497.400556 248.296351 
L 499.101973 254.160737 
L 501.009853 259.938029 
L 503.122289 265.62112 
L 505.437041 271.202989 
L 507.951542 276.676704 
L 510.662893 282.035421 
L 513.567864 287.272384 
L 516.662897 292.380924 
L 519.944101 297.354461 
L 523.407258 302.186503 
L 527.047816 306.870646 
L 530.860895 311.400574 
L 534.841284 315.770059 
L 538.983443 319.972959 
L 543.281499 324.003225 
L 547.729251 327.85489 
L 552.320167 331.522079 
L 557.047385 334.999005 
L 561.903713 338.279967 
L 566.893304 341.375673 
L 572.021821 344.29478 
L 577.284354 347.02963 
L 582.675709 349.572988 
L 588.190406 351.918042 
L 593.822681 354.058407 
L 599.566483 355.988119 
L 605.415478 357.701641 
L 611.363045 359.193858 
L 617.402277 360.460081 
L 623.525985 361.496044 
L 629.726692 362.297904 
L 635.996637 362.862246 
L 642.327772 363.186075 
L 648.711767 363.266823 
L 655.140003 363.102345 
L 661.603579 362.69092 
L 668.093306 362.031252 
L 674.599713 361.122469 
L 681.11304 359.964123 
L 687.623246 358.556189 
L 694.12 356.899068 
L 700.592689 354.993584 
L 707.030414 352.840987 
L 713.421991 350.442948 
L 719.755951 347.801566 
L 726.020538 344.919361 
L 732.203712 341.799278 
L 738.293149 338.444688 
L 744.276238 334.859383 
L 750.140083 331.047583 
L 755.871503 327.013928 
L 761.457032 322.763486 
L 766.882919 318.301746 
L 772.135127 313.634625 
L 777.199333 308.768459 
L 782.060932 303.710013 
L 786.70503 298.466473 
L 791.11645 293.045452 
L 795.276876 287.443641 
L 799.170176 281.651015 
L 802.789622 275.680721 
L 806.129153 269.54634 
L 809.18321 263.261359 
L 811.94673 256.839178 
L 814.415149 250.293105 
L 816.584403 243.636355 
L 818.450926 236.882055 
L 820.011652 230.04324 
L 821.264012 223.132854 
L 822.205939 216.163751 
L 822.83586 209.148694 
L 823.152707 202.100354 
L 823.155906 195.031311 
L 822.845383 187.954057 
L 822.221565 180.880991 
L 821.285375 173.824421 
L 820.038238 166.796566 
L 818.482074 159.80955 
L 816.619306 152.875412 
L 814.452852 146.006096 
L 811.986133 139.213456 
L 809.223065 132.509257 
L 806.168064 125.905171 
L 802.826048 119.412779 
L 799.202429 113.043573 
L 795.303121 106.808954 
L 791.134537 100.72023 
L 786.703587 94.788621 
L 782.01768 89.025254 
L 777.084727 83.441167 
L 771.913134 78.047305 
L 766.511808 72.854524 
L 760.890155 67.873588 
L 755.058079 63.115172 
L 749.025982 58.589857 
L 742.804768 54.308137 
L 736.405837 50.280412 
L 729.841089 46.516993 
L 723.138095 43.030242 
L 716.37694 39.837116 
L 709.571943 36.941341 
L 702.728567 34.344783 
L 695.852556 32.048937 
L 688.949933 30.054926 
L 682.027 28.3635 
L 675.090338 26.97504 
L 668.14681 25.889554 
L 661.203555 25.106679 
L 654.267995 24.625682 
L 647.347829 24.445455 
L 640.451038 24.564521 
L 633.585879 24.981032 
L 626.760893 25.692768 
L 619.984896 26.697136 
L 613.266987 27.991174 
L 606.616544 29.571547 
L 600.043222 31.434548 
L 593.556959 33.5761 
L 587.16797 35.991754 
L 580.886751 38.67669 
L 574.724077 41.625716 
L 568.691002 44.833268 
L 562.798861 48.293411 
L 557.059268 51.999839 
L 551.484114 55.945874 
L 546.085575 60.124467 
L 540.8761 64.528198 
L 535.868424 69.149273 
L 531.075556 73.97953 
L 526.510788 79.010433 
L 522.187691 84.233076 
L 518.120114 89.638181 
L 514.322187 95.216099 
L 510.808319 100.956807 
L 507.587325 106.848245 
L 504.579749 112.854212 
L 501.760856 118.957032 
L 499.136379 125.148198 
L 496.711626 131.419212 
L 494.491475 137.761583 
L 492.480378 144.166827 
L 490.682358 150.626466 
L 489.101015 157.132032 
L 487.739516 163.675062 
L 486.600606 170.247103 
L 485.6866 176.839706 
L 484.999386 183.444432 
L 484.540424 190.052849 
L 484.31075 196.656531 
L 484.31097 203.24706 
L 484.541263 209.816026 
L 485.00138 216.355026 
L 485.690648 222.855664 
L 486.607964 229.309552 
L 487.751798 235.708309 
L 489.120194 242.043561 
L 490.710767 248.306942 
L 492.520706 254.490092 
L 494.546773 260.584661 
L 496.785303 266.582304 
L 499.232201 272.474684 
L 501.882949 278.253472 
L 504.732598 283.910345 
L 507.775774 289.436989 
L 511.006676 294.825097 
L 514.419074 300.066367 
L 518.006311 305.152509 
L 521.761305 310.075235 
L 525.676544 314.826269 
L 529.744091 319.397339 
L 533.95558 323.780182 
L 538.302231 327.966559 
L 542.7936 331.970681 
L 547.44217 335.805057 
L 552.2456 339.462546 
L 557.201153 342.936331 
L 562.305703 346.219919 
L 567.555728 349.307142 
L 572.947315 352.192154 
L 578.476159 354.869434 
L 584.137561 357.333786 
L 589.92643 359.580336 
L 595.837282 361.604535 
L 601.864239 363.402159 
L 608.001033 364.969307 
L 614.241003 366.3024 
L 620.577092 367.398187 
L 627.001854 368.253738 
L 633.507448 368.866448 
L 640.085643 369.234036 
L 646.727812 369.354545 
L 653.424937 369.226342 
L 660.167608 368.848117 
L 666.946021 368.218886 
L 673.74998 367.337987 
L 680.568897 366.205083 
L 687.391788 364.82016 
L 694.207281 363.183531 
L 701.003609 361.295828 
L 707.768611 359.158012 
L 714.489736 356.771364 
L 721.154039 354.137492 
L 727.748182 351.258326 
L 734.258434 348.136121 
L 740.670673 344.773456 
L 746.970383 341.173233 
L 753.142656 337.338678 
L 759.17219 333.273344 
L 765.048989 328.981073 
L 770.77869 324.465636 
L 776.344681 319.730947 
L 781.728676 314.781421 
L 786.913287 309.621983 
L 791.882033 304.258065 
L 796.619331 298.695608 
L 801.110503 292.941063 
L 805.341774 287.00139 
L 809.30027 280.884057 
L 812.97402 274.597041 
L 816.351956 268.148827 
L 819.423912 261.548412 
L 822.180623 254.805298 
L 824.61373 247.929499 
L 826.715773 240.931535 
L 828.480197 233.822437 
L 829.901348 226.613745 
L 830.974474 219.317506 
L 831.695727 211.946277 
L 832.062162 204.513125 
L 832.071733 197.031623 
L 831.723301 189.515856 
L 831.016626 181.980416 
L 829.952372 174.440404 
L 828.532105 166.911431 
L 826.758294 159.409615 
L 824.63431 151.951585 
L 822.164428 144.554476 
L 819.353822 137.235936 
L 816.208572 130.014117 
L 812.735659 122.907685 
L 808.942966 115.93581 
L 804.83928 109.118175 
L 800.434288 102.474969 
L 795.739918 96.020211 
L 790.77265 89.75112 
L 785.54654 83.680482 
L 780.07566 77.82173 
L 774.37436 72.187559 
L 768.457265 66.789927 
L 762.339282 61.640054 
L 756.03559 56.748426 
L 749.56165 52.124788 
L 742.933197 47.778149 
L 736.166245 43.716784 
L 729.277086 39.948226 
L 722.282289 36.479274 
L 715.198698 33.315989 
L 715.198698 33.315989 
" clip-path="url(#pddd59b3a74)" style="fill: none; stroke: #000000; stroke-width: 1.5; stroke-linecap: square"/>
   </g>
   <g id="patch_9">
    <path d="M 466.890625 386.6 
L 466.890625 7.2 
" style="fill: none; stroke: #000000; stroke-width: 0.8; stroke-linejoin: miter; stroke-linecap: square"/>
   </g>
   <g id="patch_10">
    <path d="M 849.503125 386.6 
L 849.503125 7.2 
" style="fill: none; stroke: #000000; stroke-width: 0.8; stroke-linejoin: miter; stroke-linecap: square"/>
   </g>
   <g id="patch_11">
    <path d="M 466.890625 386.6 
L 849.503125 386.6 
" style="fill: none; stroke: #000000; stroke-width: 0.8; stroke-linejoin: miter; stroke-linecap: square"/>
   </g>
   <g id="patch_12">
    <path d="M 466.890625 7.2 
L 849.503125 7.2 
" style="fill: none; stroke: #000000; stroke-width: 0.8; stroke-linejoin: miter; stroke-linecap: square"/>
   </g>
  </g>
 </g>
 <defs>
  <clipPath id="pb33780dbc7">
   <rect x="30.103125" y="7.2" width="382.6125" height="379.4"/>
  </clipPath>
  <clipPath id="pddd59b3a74">
   <rect x="466.890625" y="7.2" width="382.6125" height="379.4"/>
  </clipPath>
 </defs>
</svg>
