<?xml version="1.0" encoding="utf-8" standalone="no"?>
<!DOCTYPE svg PUBLIC "-//W3C//DTD SVG 1.1//EN"
  "http://www.w3.org/Graphics/SVG/1.1/DTD/svg11.dtd">
<svg xmlns:xlink="http://www.w3.org/1999/xlink" width="856.38125pt" height="424.15625pt" viewBox="0 0 856.38125 424.15625" xmlns="http://www.w3.org/2000/svg" version="1.1">
 <metadata>
  <rdf:RDF xmlns:dc="http://purl.org/dc/elements/1.1/" xmlns:cc="http://creativecommons.org/ns#" xmlns:rdf="http://www.w3.org/1999/02/22-rdf-syntax-ns#">
   <cc:Work>
    <dc:type rdf:resource="http://purl.org/dc/dcmitype/StillImage"/>
    <dc:date>2024-10-07T23:29:30.930967</dc:date>
    <dc:format>image/svg+xml</dc:format>
    <dc:creator>
     <cc:Agent>
      <dc:title>Matplotlib v3.5.2, https://matplotlib.org/</dc:title>
     </cc:Agent>
    </dc:creator>
   </cc:Work>
  </rdf:RDF>
 </metadata>
 <defs>
  <style type="text/css">*{stroke-linejoin: round; stroke-linecap: butt}</style>
 </defs>
 <g id="figure_1">
  <g id="patch_1">
   <path d="M 0 424.15625 
L 856.38125 424.15625 
L 856.38125 0 
L 0 0 
z
" style="fill: #ffffff"/>
  </g>
  <g id="axes_1">
   <g id="patch_2">
    <path d="M 43.78125 386.6 
L 422.58125 386.6 
L 422.58125 7.2 
L 43.78125 7.2 
z
" style="fill: #ffffff"/>
   </g>
   <g id="matplotlib.axis_1">
    <g id="xtick_1">
     <g id="line2d_1">
      <defs>
       <path id="mdbdcfe1b06" d="M 0 0 
L 0 3.5 
" style="stroke: #000000; stroke-width: 0.8"/>
      </defs>
      <g>
       <use xlink:href="#mdbdcfe1b06" x="60.999432" y="386.6" style="stroke: #000000; stroke-width: 0.8"/>
      </g>
     </g>
     <g id="text_1">
      <!-- 0 -->
      <g transform="translate(57.818182 401.198437)scale(0.1 -0.1)">
       <defs>
        <path id="DejaVuSans-30" d="M 2034 4250 
Q 1547 4250 1301 3770 
Q 1056 3291 1056 2328 
Q 1056 1369 1301 889 
Q 1547 409 2034 409 
Q 2525 409 2770 889 
Q 3016 1369 3016 2328 
Q 3016 3291 2770 3770 
Q 2525 4250 2034 4250 
z
M 2034 4750 
Q 2819 4750 3233 4129 
Q 3647 3509 3647 2328 
Q 3647 1150 3233 529 
Q 2819 -91 2034 -91 
Q 1250 -91 836 529 
Q 422 1150 422 2328 
Q 422 3509 836 4129 
Q 1250 4750 2034 4750 
z
" transform="scale(0.015625)"/>
       </defs>
       <use xlink:href="#DejaVuSans-30"/>
      </g>
     </g>
    </g>
    <g id="xtick_2">
     <g id="line2d_2">
      <g>
       <use xlink:href="#mdbdcfe1b06" x="129.872159" y="386.6" style="stroke: #000000; stroke-width: 0.8"/>
      </g>
     </g>
     <g id="text_2">
      <!-- 2 -->
      <g transform="translate(126.690909 401.198437)scale(0.1 -0.1)">
       <defs>
        <path id="DejaVuSans-32" d="M 1228 531 
L 3431 531 
L 3431 0 
L 469 0 
L 469 531 
Q 828 903 1448 1529 
Q 2069 2156 2228 2338 
Q 2531 2678 2651 2914 
Q 2772 3150 2772 3378 
Q 2772 3750 2511 3984 
Q 2250 4219 1831 4219 
Q 1534 4219 1204 4116 
Q 875 4013 500 3803 
L 500 4441 
Q 881 4594 1212 4672 
Q 1544 4750 1819 4750 
Q 2544 4750 2975 4387 
Q 3406 4025 3406 3419 
Q 3406 3131 3298 2873 
Q 3191 2616 2906 2266 
Q 2828 2175 2409 1742 
Q 1991 1309 1228 531 
z
" transform="scale(0.015625)"/>
       </defs>
       <use xlink:href="#DejaVuSans-32"/>
      </g>
     </g>
    </g>
    <g id="xtick_3">
     <g id="line2d_3">
      <g>
       <use xlink:href="#mdbdcfe1b06" x="198.744886" y="386.6" style="stroke: #000000; stroke-width: 0.8"/>
      </g>
     </g>
     <g id="text_3">
      <!-- 4 -->
      <g transform="translate(195.563636 401.198437)scale(0.1 -0.1)">
       <defs>
        <path id="DejaVuSans-34" d="M 2419 4116 
L 825 1625 
L 2419 1625 
L 2419 4116 
z
M 2253 4666 
L 3047 4666 
L 3047 1625 
L 3713 1625 
L 3713 1100 
L 3047 1100 
L 3047 0 
L 2419 0 
L 2419 1100 
L 313 1100 
L 313 1709 
L 2253 4666 
z
" transform="scale(0.015625)"/>
       </defs>
       <use xlink:href="#DejaVuSans-34"/>
      </g>
     </g>
    </g>
    <g id="xtick_4">
     <g id="line2d_4">
      <g>
       <use xlink:href="#mdbdcfe1b06" x="267.617614" y="386.6" style="stroke: #000000; stroke-width: 0.8"/>
      </g>
     </g>
     <g id="text_4">
      <!-- 6 -->
      <g transform="translate(264.436364 401.198437)scale(0.1 -0.1)">
       <defs>
        <path id="DejaVuSans-36" d="M 2113 2584 
Q 1688 2584 1439 2293 
Q 1191 2003 1191 1497 
Q 1191 994 1439 701 
Q 1688 409 2113 409 
Q 2538 409 2786 701 
Q 3034 994 3034 1497 
Q 3034 2003 2786 2293 
Q 2538 2584 2113 2584 
z
M 3366 4563 
L 3366 3988 
Q 3128 4100 2886 4159 
Q 2644 4219 2406 4219 
Q 1781 4219 1451 3797 
Q 1122 3375 1075 2522 
Q 1259 2794 1537 2939 
Q 1816 3084 2150 3084 
Q 2853 3084 3261 2657 
Q 3669 2231 3669 1497 
Q 3669 778 3244 343 
Q 2819 -91 2113 -91 
Q 1303 -91 875 529 
Q 447 1150 447 2328 
Q 447 3434 972 4092 
Q 1497 4750 2381 4750 
Q 2619 4750 2861 4703 
Q 3103 4656 3366 4563 
z
" transform="scale(0.015625)"/>
       </defs>
       <use xlink:href="#DejaVuSans-36"/>
      </g>
     </g>
    </g>
    <g id="xtick_5">
     <g id="line2d_5">
      <g>
       <use xlink:href="#mdbdcfe1b06" x="336.490341" y="386.6" style="stroke: #000000; stroke-width: 0.8"/>
      </g>
     </g>
     <g id="text_5">
      <!-- 8 -->
      <g transform="translate(333.309091 401.198437)scale(0.1 -0.1)">
       <defs>
        <path id="DejaVuSans-38" d="M 2034 2216 
Q 1584 2216 1326 1975 
Q 1069 1734 1069 1313 
Q 1069 891 1326 650 
Q 1584 409 2034 409 
Q 2484 409 2743 651 
Q 3003 894 3003 1313 
Q 3003 1734 2745 1975 
Q 2488 2216 2034 2216 
z
M 1403 2484 
Q 997 2584 770 2862 
Q 544 3141 544 3541 
Q 544 4100 942 4425 
Q 1341 4750 2034 4750 
Q 2731 4750 3128 4425 
Q 3525 4100 3525 3541 
Q 3525 3141 3298 2862 
Q 3072 2584 2669 2484 
Q 3125 2378 3379 2068 
Q 3634 1759 3634 1313 
Q 3634 634 3220 271 
Q 2806 -91 2034 -91 
Q 1263 -91 848 271 
Q 434 634 434 1313 
Q 434 1759 690 2068 
Q 947 2378 1403 2484 
z
M 1172 3481 
Q 1172 3119 1398 2916 
Q 1625 2713 2034 2713 
Q 2441 2713 2670 2916 
Q 2900 3119 2900 3481 
Q 2900 3844 2670 4047 
Q 2441 4250 2034 4250 
Q 1625 4250 1398 4047 
Q 1172 3844 1172 3481 
z
" transform="scale(0.015625)"/>
       </defs>
       <use xlink:href="#DejaVuSans-38"/>
      </g>
     </g>
    </g>
    <g id="xtick_6">
     <g id="line2d_6">
      <g>
       <use xlink:href="#mdbdcfe1b06" x="405.363068" y="386.6" style="stroke: #000000; stroke-width: 0.8"/>
      </g>
     </g>
     <g id="text_6">
      <!-- 10 -->
      <g transform="translate(399.000568 401.198437)scale(0.1 -0.1)">
       <defs>
        <path id="DejaVuSans-31" d="M 794 531 
L 1825 531 
L 1825 4091 
L 703 3866 
L 703 4441 
L 1819 4666 
L 2450 4666 
L 2450 531 
L 3481 531 
L 3481 0 
L 794 0 
L 794 531 
z
" transform="scale(0.015625)"/>
       </defs>
       <use xlink:href="#DejaVuSans-31"/>
       <use xlink:href="#DejaVuSans-30" x="63.623047"/>
      </g>
     </g>
    </g>
    <g id="text_7">
     <!-- Time -->
     <g transform="translate(220.947656 414.876562)scale(0.1 -0.1)">
      <defs>
       <path id="DejaVuSans-54" d="M -19 4666 
L 3928 4666 
L 3928 4134 
L 2272 4134 
L 2272 0 
L 1638 0 
L 1638 4134 
L -19 4134 
L -19 4666 
z
" transform="scale(0.015625)"/>
       <path id="DejaVuSans-69" d="M 603 3500 
L 1178 3500 
L 1178 0 
L 603 0 
L 603 3500 
z
M 603 4863 
L 1178 4863 
L 1178 4134 
L 603 4134 
L 603 4863 
z
" transform="scale(0.015625)"/>
       <path id="DejaVuSans-6d" d="M 3328 2828 
Q 3544 3216 3844 3400 
Q 4144 3584 4550 3584 
Q 5097 3584 5394 3201 
Q 5691 2819 5691 2113 
L 5691 0 
L 5113 0 
L 5113 2094 
Q 5113 2597 4934 2840 
Q 4756 3084 4391 3084 
Q 3944 3084 3684 2787 
Q 3425 2491 3425 1978 
L 3425 0 
L 2847 0 
L 2847 2094 
Q 2847 2600 2669 2842 
Q 2491 3084 2119 3084 
Q 1678 3084 1418 2786 
Q 1159 2488 1159 1978 
L 1159 0 
L 581 0 
L 581 3500 
L 1159 3500 
L 1159 2956 
Q 1356 3278 1631 3431 
Q 1906 3584 2284 3584 
Q 2666 3584 2933 3390 
Q 3200 3197 3328 2828 
z
" transform="scale(0.015625)"/>
       <path id="DejaVuSans-65" d="M 3597 1894 
L 3597 1613 
L 953 1613 
Q 991 1019 1311 708 
Q 1631 397 2203 397 
Q 2534 397 2845 478 
Q 3156 559 3463 722 
L 3463 178 
Q 3153 47 2828 -22 
Q 2503 -91 2169 -91 
Q 1331 -91 842 396 
Q 353 884 353 1716 
Q 353 2575 817 3079 
Q 1281 3584 2069 3584 
Q 2775 3584 3186 3129 
Q 3597 2675 3597 1894 
z
M 3022 2063 
Q 3016 2534 2758 2815 
Q 2500 3097 2075 3097 
Q 1594 3097 1305 2825 
Q 1016 2553 972 2059 
L 3022 2063 
z
" transform="scale(0.015625)"/>
      </defs>
      <use xlink:href="#DejaVuSans-54"/>
      <use xlink:href="#DejaVuSans-69" x="57.958984"/>
      <use xlink:href="#DejaVuSans-6d" x="85.742188"/>
      <use xlink:href="#DejaVuSans-65" x="183.154297"/>
     </g>
    </g>
   </g>
   <g id="matplotlib.axis_2">
    <g id="ytick_1">
     <g id="line2d_7">
      <defs>
       <path id="m5eb294d4c6" d="M 0 0 
L -3.5 0 
" style="stroke: #000000; stroke-width: 0.8"/>
      </defs>
      <g>
       <use xlink:href="#m5eb294d4c6" x="43.78125" y="349.24803" style="stroke: #000000; stroke-width: 0.8"/>
      </g>
     </g>
     <g id="text_8">
      <!-- 1.0 -->
      <g transform="translate(20.878125 353.047249)scale(0.1 -0.1)">
       <defs>
        <path id="DejaVuSans-2e" d="M 684 794 
L 1344 794 
L 1344 0 
L 684 0 
L 684 794 
z
" transform="scale(0.015625)"/>
       </defs>
       <use xlink:href="#DejaVuSans-31"/>
       <use xlink:href="#DejaVuSans-2e" x="63.623047"/>
       <use xlink:href="#DejaVuSans-30" x="95.410156"/>
      </g>
     </g>
    </g>
    <g id="ytick_2">
     <g id="line2d_8">
      <g>
       <use xlink:href="#m5eb294d4c6" x="43.78125" y="295.128892" style="stroke: #000000; stroke-width: 0.8"/>
      </g>
     </g>
     <g id="text_9">
      <!-- 1.5 -->
      <g transform="translate(20.878125 298.928111)scale(0.1 -0.1)">
       <defs>
        <path id="DejaVuSans-35" d="M 691 4666 
L 3169 4666 
L 3169 4134 
L 1269 4134 
L 1269 2991 
Q 1406 3038 1543 3061 
Q 1681 3084 1819 3084 
Q 2600 3084 3056 2656 
Q 3513 2228 3513 1497 
Q 3513 744 3044 326 
Q 2575 -91 1722 -91 
Q 1428 -91 1123 -41 
Q 819 9 494 109 
L 494 744 
Q 775 591 1075 516 
Q 1375 441 1709 441 
Q 2250 441 2565 725 
Q 2881 1009 2881 1497 
Q 2881 1984 2565 2268 
Q 2250 2553 1709 2553 
Q 1456 2553 1204 2497 
Q 953 2441 691 2322 
L 691 4666 
z
" transform="scale(0.015625)"/>
       </defs>
       <use xlink:href="#DejaVuSans-31"/>
       <use xlink:href="#DejaVuSans-2e" x="63.623047"/>
       <use xlink:href="#DejaVuSans-35" x="95.410156"/>
      </g>
     </g>
    </g>
    <g id="ytick_3">
     <g id="line2d_9">
      <g>
       <use xlink:href="#m5eb294d4c6" x="43.78125" y="241.009754" style="stroke: #000000; stroke-width: 0.8"/>
      </g>
     </g>
     <g id="text_10">
      <!-- 2.0 -->
      <g transform="translate(20.878125 244.808973)scale(0.1 -0.1)">
       <use xlink:href="#DejaVuSans-32"/>
       <use xlink:href="#DejaVuSans-2e" x="63.623047"/>
       <use xlink:href="#DejaVuSans-30" x="95.410156"/>
      </g>
     </g>
    </g>
    <g id="ytick_4">
     <g id="line2d_10">
      <g>
       <use xlink:href="#m5eb294d4c6" x="43.78125" y="186.890617" style="stroke: #000000; stroke-width: 0.8"/>
      </g>
     </g>
     <g id="text_11">
      <!-- 2.5 -->
      <g transform="translate(20.878125 190.689835)scale(0.1 -0.1)">
       <use xlink:href="#DejaVuSans-32"/>
       <use xlink:href="#DejaVuSans-2e" x="63.623047"/>
       <use xlink:href="#DejaVuSans-35" x="95.410156"/>
      </g>
     </g>
    </g>
    <g id="ytick_5">
     <g id="line2d_11">
      <g>
       <use xlink:href="#m5eb294d4c6" x="43.78125" y="132.771479" style="stroke: #000000; stroke-width: 0.8"/>
      </g>
     </g>
     <g id="text_12">
      <!-- 3.0 -->
      <g transform="translate(20.878125 136.570698)scale(0.1 -0.1)">
       <defs>
        <path id="DejaVuSans-33" d="M 2597 2516 
Q 3050 2419 3304 2112 
Q 3559 1806 3559 1356 
Q 3559 666 3084 287 
Q 2609 -91 1734 -91 
Q 1441 -91 1130 -33 
Q 819 25 488 141 
L 488 750 
Q 750 597 1062 519 
Q 1375 441 1716 441 
Q 2309 441 2620 675 
Q 2931 909 2931 1356 
Q 2931 1769 2642 2001 
Q 2353 2234 1838 2234 
L 1294 2234 
L 1294 2753 
L 1863 2753 
Q 2328 2753 2575 2939 
Q 2822 3125 2822 3475 
Q 2822 3834 2567 4026 
Q 2313 4219 1838 4219 
Q 1578 4219 1281 4162 
Q 984 4106 628 3988 
L 628 4550 
Q 988 4650 1302 4700 
Q 1616 4750 1894 4750 
Q 2613 4750 3031 4423 
Q 3450 4097 3450 3541 
Q 3450 3153 3228 2886 
Q 3006 2619 2597 2516 
z
" transform="scale(0.015625)"/>
       </defs>
       <use xlink:href="#DejaVuSans-33"/>
       <use xlink:href="#DejaVuSans-2e" x="63.623047"/>
       <use xlink:href="#DejaVuSans-30" x="95.410156"/>
      </g>
     </g>
    </g>
    <g id="ytick_6">
     <g id="line2d_12">
      <g>
       <use xlink:href="#m5eb294d4c6" x="43.78125" y="78.652341" style="stroke: #000000; stroke-width: 0.8"/>
      </g>
     </g>
     <g id="text_13">
      <!-- 3.5 -->
      <g transform="translate(20.878125 82.45156)scale(0.1 -0.1)">
       <use xlink:href="#DejaVuSans-33"/>
       <use xlink:href="#DejaVuSans-2e" x="63.623047"/>
       <use xlink:href="#DejaVuSans-35" x="95.410156"/>
      </g>
     </g>
    </g>
    <g id="ytick_7">
     <g id="line2d_13">
      <g>
       <use xlink:href="#m5eb294d4c6" x="43.78125" y="24.533203" style="stroke: #000000; stroke-width: 0.8"/>
      </g>
     </g>
     <g id="text_14">
      <!-- 4.0 -->
      <g transform="translate(20.878125 28.332422)scale(0.1 -0.1)">
       <use xlink:href="#DejaVuSans-34"/>
       <use xlink:href="#DejaVuSans-2e" x="63.623047"/>
       <use xlink:href="#DejaVuSans-30" x="95.410156"/>
      </g>
     </g>
    </g>
    <g id="text_15">
     <!-- Number -->
     <g transform="translate(14.798438 216.985937)rotate(-90)scale(0.1 -0.1)">
      <defs>
       <path id="DejaVuSans-4e" d="M 628 4666 
L 1478 4666 
L 3547 763 
L 3547 4666 
L 4159 4666 
L 4159 0 
L 3309 0 
L 1241 3903 
L 1241 0 
L 628 0 
L 628 4666 
z
" transform="scale(0.015625)"/>
       <path id="DejaVuSans-75" d="M 544 1381 
L 544 3500 
L 1119 3500 
L 1119 1403 
Q 1119 906 1312 657 
Q 1506 409 1894 409 
Q 2359 409 2629 706 
Q 2900 1003 2900 1516 
L 2900 3500 
L 3475 3500 
L 3475 0 
L 2900 0 
L 2900 538 
Q 2691 219 2414 64 
Q 2138 -91 1772 -91 
Q 1169 -91 856 284 
Q 544 659 544 1381 
z
M 1991 3584 
L 1991 3584 
z
" transform="scale(0.015625)"/>
       <path id="DejaVuSans-62" d="M 3116 1747 
Q 3116 2381 2855 2742 
Q 2594 3103 2138 3103 
Q 1681 3103 1420 2742 
Q 1159 2381 1159 1747 
Q 1159 1113 1420 752 
Q 1681 391 2138 391 
Q 2594 391 2855 752 
Q 3116 1113 3116 1747 
z
M 1159 2969 
Q 1341 3281 1617 3432 
Q 1894 3584 2278 3584 
Q 2916 3584 3314 3078 
Q 3713 2572 3713 1747 
Q 3713 922 3314 415 
Q 2916 -91 2278 -91 
Q 1894 -91 1617 61 
Q 1341 213 1159 525 
L 1159 0 
L 581 0 
L 581 4863 
L 1159 4863 
L 1159 2969 
z
" transform="scale(0.015625)"/>
       <path id="DejaVuSans-72" d="M 2631 2963 
Q 2534 3019 2420 3045 
Q 2306 3072 2169 3072 
Q 1681 3072 1420 2755 
Q 1159 2438 1159 1844 
L 1159 0 
L 581 0 
L 581 3500 
L 1159 3500 
L 1159 2956 
Q 1341 3275 1631 3429 
Q 1922 3584 2338 3584 
Q 2397 3584 2469 3576 
Q 2541 3569 2628 3553 
L 2631 2963 
z
" transform="scale(0.015625)"/>
      </defs>
      <use xlink:href="#DejaVuSans-4e"/>
      <use xlink:href="#DejaVuSans-75" x="74.804688"/>
      <use xlink:href="#DejaVuSans-6d" x="138.183594"/>
      <use xlink:href="#DejaVuSans-62" x="235.595703"/>
      <use xlink:href="#DejaVuSans-65" x="299.072266"/>
      <use xlink:href="#DejaVuSans-72" x="360.595703"/>
     </g>
    </g>
   </g>
   <g id="line2d_14">
    <path d="M 60.999432 24.533203 
L 61.343795 24.620052 
L 61.688159 24.881615 
L 62.376886 25.933476 
L 63.065614 27.694233 
L 63.754341 30.163349 
L 64.443068 33.364147 
L 65.476159 39.524126 
L 66.50925 47.174258 
L 67.886705 59.420995 
L 69.264159 73.667888 
L 70.985977 93.730949 
L 73.396523 124.75852 
L 80.628159 220.620063 
L 82.694341 244.593545 
L 84.760523 266.087737 
L 86.482341 281.981065 
L 88.204159 296.039567 
L 89.925977 308.358965 
L 91.647795 319.125984 
L 93.369614 328.586083 
L 95.091432 336.769605 
L 96.81325 343.774988 
L 98.535068 349.724878 
L 100.256886 354.727133 
L 101.634341 358.109682 
L 103.011795 360.98644 
L 104.38925 363.392192 
L 105.766705 365.35567 
L 107.144159 366.899679 
L 108.521614 368.050914 
L 109.554705 368.670728 
L 110.587795 369.08923 
L 111.620886 369.312161 
L 112.653977 369.344332 
L 113.687068 369.189619 
L 114.720159 368.85097 
L 116.097614 368.116663 
L 117.475068 367.061035 
L 118.852523 365.683342 
L 120.229977 363.979898 
L 121.607432 361.944072 
L 122.984886 359.56629 
L 124.706705 356.093838 
L 126.428523 352.036389 
L 128.150341 347.377509 
L 129.872159 342.105255 
L 131.593977 336.152007 
L 133.315795 329.454983 
L 135.037614 321.958128 
L 137.103795 311.837146 
L 139.169977 300.42128 
L 141.236159 287.652031 
L 143.302341 273.484848 
L 145.368523 257.889134 
L 147.779068 237.867191 
L 150.189614 215.885577 
L 152.944523 188.622754 
L 156.388159 152.040785 
L 162.586705 85.336674 
L 164.652886 65.491541 
L 166.374705 51.019432 
L 167.752159 41.268408 
L 168.78525 35.249191 
L 169.818341 30.449936 
L 170.507068 27.987129 
L 171.195795 26.149754 
L 171.884523 24.963013 
L 172.228886 24.620115 
L 172.57325 24.447022 
L 172.917614 24.445455 
L 173.261977 24.616815 
L 173.606341 24.962189 
L 174.295068 26.177724 
L 174.983795 28.094385 
L 175.672523 30.709408 
L 176.705614 35.922823 
L 177.738705 42.640787 
L 178.771795 50.789633 
L 180.14925 63.705067 
L 181.526705 78.677811 
L 183.592886 104.015195 
L 186.347795 140.923076 
L 191.857614 215.682185 
L 193.923795 240.904525 
L 195.645614 259.653353 
L 197.711795 279.543299 
L 199.433614 294.260687 
L 201.155432 307.262337 
L 202.87725 318.560722 
L 204.599068 328.204334 
L 205.976523 334.783373 
L 207.353977 340.416628 
L 208.731432 345.178724 
L 210.108886 349.159042 
L 211.486341 352.461717 
L 212.863795 355.205636 
L 214.585614 358.054791 
L 216.996159 361.493191 
L 218.373614 363.173759 
L 219.751068 364.455886 
L 221.128523 365.359587 
L 222.161614 365.7993 
L 223.194705 366.041692 
L 224.227795 366.091751 
L 225.260886 365.953481 
L 226.293977 365.629895 
L 227.327068 365.123022 
L 228.704523 364.163736 
L 230.081977 362.88008 
L 231.459432 361.268674 
L 232.836886 359.323017 
L 234.214341 357.033488 
L 235.936159 353.6683 
L 237.657977 349.73167 
L 239.379795 345.213215 
L 241.101614 340.061626 
L 242.823432 334.22784 
L 244.54525 327.666184 
L 246.267068 320.334374 
L 248.33325 310.465081 
L 250.399432 299.370183 
L 252.465614 286.995952 
L 254.531795 273.295692 
L 256.597977 258.229736 
L 259.008523 238.892346 
L 261.419068 217.775841 
L 264.173977 191.586721 
L 267.617614 156.437288 
L 273.816159 92.535305 
L 275.882341 73.607109 
L 277.604159 59.807711 
L 278.981614 50.392523 
L 280.014705 44.514528 
L 281.047795 39.80281 
L 281.736523 37.365471 
L 282.42525 35.523489 
L 283.113977 34.29932 
L 283.802705 33.710755 
L 284.147068 33.65911 
L 284.491432 33.770926 
L 284.835795 34.047117 
L 285.524523 35.094816 
L 286.21325 36.803686 
L 286.901977 39.170543 
L 287.590705 42.187542 
L 288.623795 47.903426 
L 289.656886 54.991027 
L 291.034341 66.423815 
L 292.411795 79.871935 
L 294.133614 98.790518 
L 296.544159 128.08824 
L 299.987795 173.243507 
L 304.120159 226.905851 
L 306.186341 250.981488 
L 307.908159 268.456386 
L 309.974341 286.506348 
L 311.696159 299.749539 
L 313.417977 311.418601 
L 315.139795 321.588516 
L 316.861614 330.351365 
L 318.583432 337.816335 
L 320.30525 344.109714 
L 321.682705 348.396658 
L 323.404523 352.954019 
L 325.126341 356.784389 
L 326.503795 359.393657 
L 327.88125 361.54902 
L 329.258705 363.277637 
L 330.636159 364.605487 
L 332.013614 365.554854 
L 333.046705 366.029823 
L 334.079795 366.308908 
L 335.112886 366.397421 
L 336.145977 366.299505 
L 337.179068 366.018134 
L 338.212159 365.555114 
L 339.589614 364.656122 
L 340.967068 363.433476 
L 342.344523 361.881761 
L 343.721977 359.99187 
L 345.099432 357.751002 
L 346.82125 354.449643 
L 348.543068 350.587391 
L 350.264886 346.125702 
L 351.986705 341.025613 
L 353.708523 335.24834 
L 355.430341 328.755284 
L 357.152159 321.508029 
L 359.218341 311.761962 
L 361.284523 300.809083 
L 363.350705 288.584055 
L 365.416886 275.021918 
L 367.483068 260.086916 
L 369.893614 240.957983 
L 372.304159 219.918134 
L 375.059068 193.679929 
L 378.502705 158.389477 
L 385.045614 90.680134 
L 387.456159 68.388662 
L 388.833614 57.3218 
L 390.211068 47.985261 
L 391.244159 42.317639 
L 392.27725 37.919946 
L 392.965977 35.738378 
L 393.654705 34.181749 
L 394.343432 33.266234 
L 394.687795 33.052722 
L 395.032159 33.003521 
L 395.376523 33.119391 
L 395.720886 33.400813 
L 396.409614 34.46083 
L 397.098341 36.181804 
L 397.787068 38.557482 
L 398.475795 41.577127 
L 399.508886 47.279505 
L 400.541977 54.325206 
L 401.919432 65.645064 
L 403.296886 78.912385 
L 405.018705 97.829332 
L 405.363068 101.868304 
L 405.363068 101.868304 
" clip-path="url(#pe5c9e01bf2)" style="fill: none; stroke: #1f77b4; stroke-width: 1.5; stroke-linecap: square"/>
   </g>
   <g id="line2d_15">
    <path d="M 60.999432 241.009754 
L 64.443068 218.557863 
L 68.919795 189.328713 
L 70.985977 177.26479 
L 72.707795 168.380537 
L 74.429614 160.767851 
L 75.807068 155.688911 
L 77.184523 151.561145 
L 78.217614 149.105428 
L 79.250705 147.211327 
L 80.283795 145.877908 
L 80.972523 145.291071 
L 81.66125 144.938769 
L 82.349977 144.81442 
L 83.038705 144.911043 
L 83.727432 145.221257 
L 84.416159 145.737281 
L 85.44925 146.879208 
L 86.482341 148.436415 
L 87.515432 150.377583 
L 88.892886 153.505161 
L 90.270341 157.171202 
L 91.992159 162.371691 
L 94.058341 169.305735 
L 96.81325 179.473429 
L 100.60125 194.468672 
L 110.587795 234.46515 
L 114.375795 248.548947 
L 117.819432 260.463443 
L 120.918705 270.352595 
L 123.673614 278.429702 
L 126.428523 285.814964 
L 128.839068 291.691845 
L 131.249614 296.986082 
L 133.315795 301.045959 
L 135.381977 304.646884 
L 137.448159 307.767087 
L 139.169977 309.981006 
L 140.891795 311.824778 
L 142.26925 313.019755 
L 143.646705 313.953474 
L 145.024159 314.613543 
L 146.401614 314.986618 
L 147.434705 315.069519 
L 148.467795 314.976583 
L 149.500886 314.701127 
L 150.533977 314.238091 
L 151.567068 313.578413 
L 152.600159 312.709824 
L 153.977614 311.206451 
L 155.355068 309.284267 
L 156.732523 306.9183 
L 158.109977 304.085149 
L 159.487432 300.76298 
L 160.864886 296.931527 
L 162.586705 291.397694 
L 164.308523 285.005928 
L 166.030341 277.726985 
L 167.752159 269.535445 
L 169.818341 258.502143 
L 172.228886 244.208936 
L 175.328159 224.287384 
L 181.182341 186.322122 
L 183.248523 174.50957 
L 184.970341 165.912201 
L 186.347795 159.970004 
L 187.72525 154.929554 
L 189.102705 150.839161 
L 190.135795 148.41524 
L 191.168886 146.552805 
L 192.201977 145.255227 
L 192.890705 144.70345 
L 193.579432 144.400517 
L 194.268159 144.343827 
L 194.956886 144.52982 
L 195.645614 144.953817 
L 196.334341 145.592089 
L 197.367432 146.907965 
L 198.400523 148.62404 
L 199.777977 151.477843 
L 201.155432 154.908828 
L 202.87725 159.897984 
L 204.943432 166.732056 
L 207.353977 175.59032 
L 210.797614 189.270391 
L 218.717977 221.140295 
L 223.194705 238.127786 
L 226.982705 251.625822 
L 230.081977 261.898288 
L 233.18125 271.388915 
L 235.936159 279.135967 
L 238.691068 286.206791 
L 241.101614 291.798506 
L 243.512159 296.811468 
L 245.578341 300.626514 
L 247.644523 303.974558 
L 249.366341 306.390266 
L 251.088159 308.448772 
L 252.809977 310.132567 
L 254.187432 311.197041 
L 255.564886 311.999018 
L 256.942341 312.527351 
L 258.319795 312.770248 
L 259.352886 312.75716 
L 260.385977 312.568072 
L 261.419068 312.194401 
L 262.452159 311.627518 
L 263.48525 310.858743 
L 264.862705 309.504566 
L 266.240159 307.755129 
L 267.617614 305.589459 
L 268.995068 302.986425 
L 270.372523 299.924747 
L 271.749977 296.38299 
L 273.471795 291.247777 
L 275.193614 285.286194 
L 276.915432 278.455585 
L 278.63725 270.751263 
L 280.703432 260.409273 
L 283.113977 246.991357 
L 285.868886 230.294644 
L 293.100523 185.682957 
L 295.166705 174.863325 
L 296.888523 167.041335 
L 298.265977 161.654623 
L 299.643432 157.099937 
L 301.020886 153.421865 
L 302.053977 151.260704 
L 303.087068 149.625404 
L 303.775795 148.832183 
L 304.464523 148.279167 
L 305.15325 147.968018 
L 305.841977 147.899875 
L 306.530705 148.075356 
L 307.219432 148.494558 
L 307.908159 149.157023 
L 308.94125 150.529335 
L 309.974341 152.278163 
L 311.351795 155.139149 
L 312.72925 158.536801 
L 314.451068 163.430684 
L 316.51725 170.080319 
L 318.927795 178.646229 
L 322.371432 191.827385 
L 334.079795 237.460767 
L 337.867795 251.022051 
L 340.967068 261.341237 
L 344.066341 270.89339 
L 346.82125 278.721256 
L 349.576159 285.863905 
L 351.986705 291.520824 
L 354.39725 296.597663 
L 356.463432 300.465275 
L 358.529614 303.864223 
L 360.251432 306.32217 
L 361.97325 308.424349 
L 363.695068 310.155349 
L 365.072523 311.261896 
L 366.449977 312.11147 
L 367.827432 312.690055 
L 369.204886 312.982475 
L 370.237977 313.005437 
L 371.271068 312.852847 
L 372.304159 312.517694 
L 373.33725 311.992517 
L 374.370341 311.269409 
L 375.747795 309.982862 
L 377.12525 308.308476 
L 378.502705 306.22378 
L 379.880159 303.704886 
L 381.257614 300.726486 
L 382.635068 297.261854 
L 384.012523 293.282846 
L 385.734341 287.565591 
L 387.456159 281.019236 
L 389.177977 273.594796 
L 391.244159 263.524009 
L 393.310341 252.271644 
L 395.720886 237.907184 
L 399.85325 211.60901 
L 402.952523 192.409067 
L 405.018705 180.798497 
L 405.363068 178.988281 
L 405.363068 178.988281 
" clip-path="url(#pe5c9e01bf2)" style="fill: none; stroke: #ff7f0e; stroke-width: 1.5; stroke-linecap: square"/>
   </g>
   <g id="patch_3">
    <path d="M 43.78125 386.6 
L 43.78125 7.2 
" style="fill: none; stroke: #000000; stroke-width: 0.8; stroke-linejoin: miter; stroke-linecap: square"/>
   </g>
   <g id="patch_4">
    <path d="M 422.58125 386.6 
L 422.58125 7.2 
" style="fill: none; stroke: #000000; stroke-width: 0.8; stroke-linejoin: miter; stroke-linecap: square"/>
   </g>
   <g id="patch_5">
    <path d="M 43.78125 386.6 
L 422.58125 386.6 
" style="fill: none; stroke: #000000; stroke-width: 0.8; stroke-linejoin: miter; stroke-linecap: square"/>
   </g>
   <g id="patch_6">
    <path d="M 43.78125 7.2 
L 422.58125 7.2 
" style="fill: none; stroke: #000000; stroke-width: 0.8; stroke-linejoin: miter; stroke-linecap: square"/>
   </g>
   <g id="legend_1">
    <g id="patch_7">
     <path d="M 346.125 44.55625 
L 415.58125 44.55625 
Q 417.58125 44.55625 417.58125 42.55625 
L 417.58125 14.2 
Q 417.58125 12.2 415.58125 12.2 
L 346.125 12.2 
Q 344.125 12.2 344.125 14.2 
L 344.125 42.55625 
Q 344.125 44.55625 346.125 44.55625 
z
" style="fill: #ffffff; opacity: 0.8; stroke: #cccccc; stroke-linejoin: miter"/>
    </g>
    <g id="line2d_16">
     <path d="M 348.125 20.298437 
L 358.125 20.298437 
L 368.125 20.298437 
" style="fill: none; stroke: #1f77b4; stroke-width: 1.5; stroke-linecap: square"/>
    </g>
    <g id="text_16">
     <!-- Rabbits -->
     <g transform="translate(376.125 23.798437)scale(0.1 -0.1)">
      <defs>
       <path id="DejaVuSans-52" d="M 2841 2188 
Q 3044 2119 3236 1894 
Q 3428 1669 3622 1275 
L 4263 0 
L 3584 0 
L 2988 1197 
Q 2756 1666 2539 1819 
Q 2322 1972 1947 1972 
L 1259 1972 
L 1259 0 
L 628 0 
L 628 4666 
L 2053 4666 
Q 2853 4666 3247 4331 
Q 3641 3997 3641 3322 
Q 3641 2881 3436 2590 
Q 3231 2300 2841 2188 
z
M 1259 4147 
L 1259 2491 
L 2053 2491 
Q 2509 2491 2742 2702 
Q 2975 2913 2975 3322 
Q 2975 3731 2742 3939 
Q 2509 4147 2053 4147 
L 1259 4147 
z
" transform="scale(0.015625)"/>
       <path id="DejaVuSans-61" d="M 2194 1759 
Q 1497 1759 1228 1600 
Q 959 1441 959 1056 
Q 959 750 1161 570 
Q 1363 391 1709 391 
Q 2188 391 2477 730 
Q 2766 1069 2766 1631 
L 2766 1759 
L 2194 1759 
z
M 3341 1997 
L 3341 0 
L 2766 0 
L 2766 531 
Q 2569 213 2275 61 
Q 1981 -91 1556 -91 
Q 1019 -91 701 211 
Q 384 513 384 1019 
Q 384 1609 779 1909 
Q 1175 2209 1959 2209 
L 2766 2209 
L 2766 2266 
Q 2766 2663 2505 2880 
Q 2244 3097 1772 3097 
Q 1472 3097 1187 3025 
Q 903 2953 641 2809 
L 641 3341 
Q 956 3463 1253 3523 
Q 1550 3584 1831 3584 
Q 2591 3584 2966 3190 
Q 3341 2797 3341 1997 
z
" transform="scale(0.015625)"/>
       <path id="DejaVuSans-74" d="M 1172 4494 
L 1172 3500 
L 2356 3500 
L 2356 3053 
L 1172 3053 
L 1172 1153 
Q 1172 725 1289 603 
Q 1406 481 1766 481 
L 2356 481 
L 2356 0 
L 1766 0 
Q 1100 0 847 248 
Q 594 497 594 1153 
L 594 3053 
L 172 3053 
L 172 3500 
L 594 3500 
L 594 4494 
L 1172 4494 
z
" transform="scale(0.015625)"/>
       <path id="DejaVuSans-73" d="M 2834 3397 
L 2834 2853 
Q 2591 2978 2328 3040 
Q 2066 3103 1784 3103 
Q 1356 3103 1142 2972 
Q 928 2841 928 2578 
Q 928 2378 1081 2264 
Q 1234 2150 1697 2047 
L 1894 2003 
Q 2506 1872 2764 1633 
Q 3022 1394 3022 966 
Q 3022 478 2636 193 
Q 2250 -91 1575 -91 
Q 1294 -91 989 -36 
Q 684 19 347 128 
L 347 722 
Q 666 556 975 473 
Q 1284 391 1588 391 
Q 1994 391 2212 530 
Q 2431 669 2431 922 
Q 2431 1156 2273 1281 
Q 2116 1406 1581 1522 
L 1381 1569 
Q 847 1681 609 1914 
Q 372 2147 372 2553 
Q 372 3047 722 3315 
Q 1072 3584 1716 3584 
Q 2034 3584 2315 3537 
Q 2597 3491 2834 3397 
z
" transform="scale(0.015625)"/>
      </defs>
      <use xlink:href="#DejaVuSans-52"/>
      <use xlink:href="#DejaVuSans-61" x="67.232422"/>
      <use xlink:href="#DejaVuSans-62" x="128.511719"/>
      <use xlink:href="#DejaVuSans-62" x="191.988281"/>
      <use xlink:href="#DejaVuSans-69" x="255.464844"/>
      <use xlink:href="#DejaVuSans-74" x="283.248047"/>
      <use xlink:href="#DejaVuSans-73" x="322.457031"/>
     </g>
    </g>
    <g id="line2d_17">
     <path d="M 348.125 34.976562 
L 358.125 34.976562 
L 368.125 34.976562 
" style="fill: none; stroke: #ff7f0e; stroke-width: 1.5; stroke-linecap: square"/>
    </g>
    <g id="text_17">
     <!-- Foxes -->
     <g transform="translate(376.125 38.476562)scale(0.1 -0.1)">
      <defs>
       <path id="DejaVuSans-46" d="M 628 4666 
L 3309 4666 
L 3309 4134 
L 1259 4134 
L 1259 2759 
L 3109 2759 
L 3109 2228 
L 1259 2228 
L 1259 0 
L 628 0 
L 628 4666 
z
" transform="scale(0.015625)"/>
       <path id="DejaVuSans-6f" d="M 1959 3097 
Q 1497 3097 1228 2736 
Q 959 2375 959 1747 
Q 959 1119 1226 758 
Q 1494 397 1959 397 
Q 2419 397 2687 759 
Q 2956 1122 2956 1747 
Q 2956 2369 2687 2733 
Q 2419 3097 1959 3097 
z
M 1959 3584 
Q 2709 3584 3137 3096 
Q 3566 2609 3566 1747 
Q 3566 888 3137 398 
Q 2709 -91 1959 -91 
Q 1206 -91 779 398 
Q 353 888 353 1747 
Q 353 2609 779 3096 
Q 1206 3584 1959 3584 
z
" transform="scale(0.015625)"/>
       <path id="DejaVuSans-78" d="M 3513 3500 
L 2247 1797 
L 3578 0 
L 2900 0 
L 1881 1375 
L 863 0 
L 184 0 
L 1544 1831 
L 300 3500 
L 978 3500 
L 1906 2253 
L 2834 3500 
L 3513 3500 
z
" transform="scale(0.015625)"/>
      </defs>
      <use xlink:href="#DejaVuSans-46"/>
      <use xlink:href="#DejaVuSans-6f" x="53.894531"/>
      <use xlink:href="#DejaVuSans-78" x="111.951172"/>
      <use xlink:href="#DejaVuSans-65" x="168.005859"/>
      <use xlink:href="#DejaVuSans-73" x="229.529297"/>
     </g>
    </g>
   </g>
  </g>
  <g id="axes_2">
   <g id="patch_8">
    <path d="M 470.38125 386.6 
L 849.18125 386.6 
L 849.18125 7.2 
L 470.38125 7.2 
z
" style="fill: #ffffff"/>
   </g>
   <g id="matplotlib.axis_3">
    <g id="xtick_7">
     <g id="line2d_18">
      <g>
       <use xlink:href="#mdbdcfe1b06" x="507.67415" y="386.6" style="stroke: #000000; stroke-width: 0.8"/>
      </g>
     </g>
     <g id="text_18">
      <!-- 1.0 -->
      <g transform="translate(499.722588 401.198437)scale(0.1 -0.1)">
       <use xlink:href="#DejaVuSans-31"/>
       <use xlink:href="#DejaVuSans-2e" x="63.623047"/>
       <use xlink:href="#DejaVuSans-30" x="95.410156"/>
      </g>
     </g>
    </g>
    <g id="xtick_8">
     <g id="line2d_19">
      <g>
       <use xlink:href="#mdbdcfe1b06" x="561.707701" y="386.6" style="stroke: #000000; stroke-width: 0.8"/>
      </g>
     </g>
     <g id="text_19">
      <!-- 1.5 -->
      <g transform="translate(553.756139 401.198437)scale(0.1 -0.1)">
       <use xlink:href="#DejaVuSans-31"/>
       <use xlink:href="#DejaVuSans-2e" x="63.623047"/>
       <use xlink:href="#DejaVuSans-35" x="95.410156"/>
      </g>
     </g>
    </g>
    <g id="xtick_9">
     <g id="line2d_20">
      <g>
       <use xlink:href="#mdbdcfe1b06" x="615.741253" y="386.6" style="stroke: #000000; stroke-width: 0.8"/>
      </g>
     </g>
     <g id="text_20">
      <!-- 2.0 -->
      <g transform="translate(607.78969 401.198437)scale(0.1 -0.1)">
       <use xlink:href="#DejaVuSans-32"/>
       <use xlink:href="#DejaVuSans-2e" x="63.623047"/>
       <use xlink:href="#DejaVuSans-30" x="95.410156"/>
      </g>
     </g>
    </g>
    <g id="xtick_10">
     <g id="line2d_21">
      <g>
       <use xlink:href="#mdbdcfe1b06" x="669.774804" y="386.6" style="stroke: #000000; stroke-width: 0.8"/>
      </g>
     </g>
     <g id="text_21">
      <!-- 2.5 -->
      <g transform="translate(661.823242 401.198437)scale(0.1 -0.1)">
       <use xlink:href="#DejaVuSans-32"/>
       <use xlink:href="#DejaVuSans-2e" x="63.623047"/>
       <use xlink:href="#DejaVuSans-35" x="95.410156"/>
      </g>
     </g>
    </g>
    <g id="xtick_11">
     <g id="line2d_22">
      <g>
       <use xlink:href="#mdbdcfe1b06" x="723.808355" y="386.6" style="stroke: #000000; stroke-width: 0.8"/>
      </g>
     </g>
     <g id="text_22">
      <!-- 3.0 -->
      <g transform="translate(715.856793 401.198437)scale(0.1 -0.1)">
       <use xlink:href="#DejaVuSans-33"/>
       <use xlink:href="#DejaVuSans-2e" x="63.623047"/>
       <use xlink:href="#DejaVuSans-30" x="95.410156"/>
      </g>
     </g>
    </g>
    <g id="xtick_12">
     <g id="line2d_23">
      <g>
       <use xlink:href="#mdbdcfe1b06" x="777.841907" y="386.6" style="stroke: #000000; stroke-width: 0.8"/>
      </g>
     </g>
     <g id="text_23">
      <!-- 3.5 -->
      <g transform="translate(769.890344 401.198437)scale(0.1 -0.1)">
       <use xlink:href="#DejaVuSans-33"/>
       <use xlink:href="#DejaVuSans-2e" x="63.623047"/>
       <use xlink:href="#DejaVuSans-35" x="95.410156"/>
      </g>
     </g>
    </g>
    <g id="xtick_13">
     <g id="line2d_24">
      <g>
       <use xlink:href="#mdbdcfe1b06" x="831.875458" y="386.6" style="stroke: #000000; stroke-width: 0.8"/>
      </g>
     </g>
     <g id="text_24">
      <!-- 4.0 -->
      <g transform="translate(823.923896 401.198437)scale(0.1 -0.1)">
       <use xlink:href="#DejaVuSans-34"/>
       <use xlink:href="#DejaVuSans-2e" x="63.623047"/>
       <use xlink:href="#DejaVuSans-30" x="95.410156"/>
      </g>
     </g>
    </g>
    <g id="text_25">
     <!-- Rabbit population -->
     <g transform="translate(615.461719 414.876562)scale(0.1 -0.1)">
      <defs>
       <path id="DejaVuSans-20" transform="scale(0.015625)"/>
       <path id="DejaVuSans-70" d="M 1159 525 
L 1159 -1331 
L 581 -1331 
L 581 3500 
L 1159 3500 
L 1159 2969 
Q 1341 3281 1617 3432 
Q 1894 3584 2278 3584 
Q 2916 3584 3314 3078 
Q 3713 2572 3713 1747 
Q 3713 922 3314 415 
Q 2916 -91 2278 -91 
Q 1894 -91 1617 61 
Q 1341 213 1159 525 
z
M 3116 1747 
Q 3116 2381 2855 2742 
Q 2594 3103 2138 3103 
Q 1681 3103 1420 2742 
Q 1159 2381 1159 1747 
Q 1159 1113 1420 752 
Q 1681 391 2138 391 
Q 2594 391 2855 752 
Q 3116 1113 3116 1747 
z
" transform="scale(0.015625)"/>
       <path id="DejaVuSans-6c" d="M 603 4863 
L 1178 4863 
L 1178 0 
L 603 0 
L 603 4863 
z
" transform="scale(0.015625)"/>
       <path id="DejaVuSans-6e" d="M 3513 2113 
L 3513 0 
L 2938 0 
L 2938 2094 
Q 2938 2591 2744 2837 
Q 2550 3084 2163 3084 
Q 1697 3084 1428 2787 
Q 1159 2491 1159 1978 
L 1159 0 
L 581 0 
L 581 3500 
L 1159 3500 
L 1159 2956 
Q 1366 3272 1645 3428 
Q 1925 3584 2291 3584 
Q 2894 3584 3203 3211 
Q 3513 2838 3513 2113 
z
" transform="scale(0.015625)"/>
      </defs>
      <use xlink:href="#DejaVuSans-52"/>
      <use xlink:href="#DejaVuSans-61" x="67.232422"/>
      <use xlink:href="#DejaVuSans-62" x="128.511719"/>
      <use xlink:href="#DejaVuSans-62" x="191.988281"/>
      <use xlink:href="#DejaVuSans-69" x="255.464844"/>
      <use xlink:href="#DejaVuSans-74" x="283.248047"/>
      <use xlink:href="#DejaVuSans-20" x="322.457031"/>
      <use xlink:href="#DejaVuSans-70" x="354.244141"/>
      <use xlink:href="#DejaVuSans-6f" x="417.720703"/>
      <use xlink:href="#DejaVuSans-70" x="478.902344"/>
      <use xlink:href="#DejaVuSans-75" x="542.378906"/>
      <use xlink:href="#DejaVuSans-6c" x="605.757812"/>
      <use xlink:href="#DejaVuSans-61" x="633.541016"/>
      <use xlink:href="#DejaVuSans-74" x="694.820312"/>
      <use xlink:href="#DejaVuSans-69" x="734.029297"/>
      <use xlink:href="#DejaVuSans-6f" x="761.8125"/>
      <use xlink:href="#DejaVuSans-6e" x="822.994141"/>
     </g>
    </g>
   </g>
   <g id="matplotlib.axis_4">
    <g id="ytick_8">
     <g id="line2d_25">
      <g>
       <use xlink:href="#m5eb294d4c6" x="470.38125" y="350.936545" style="stroke: #000000; stroke-width: 0.8"/>
      </g>
     </g>
     <g id="text_26">
      <!-- 1.4 -->
      <g transform="translate(447.478125 354.735764)scale(0.1 -0.1)">
       <use xlink:href="#DejaVuSans-31"/>
       <use xlink:href="#DejaVuSans-2e" x="63.623047"/>
       <use xlink:href="#DejaVuSans-34" x="95.410156"/>
      </g>
     </g>
    </g>
    <g id="ytick_9">
     <g id="line2d_26">
      <g>
       <use xlink:href="#m5eb294d4c6" x="470.38125" y="307.203377" style="stroke: #000000; stroke-width: 0.8"/>
      </g>
     </g>
     <g id="text_27">
      <!-- 1.6 -->
      <g transform="translate(447.478125 311.002596)scale(0.1 -0.1)">
       <use xlink:href="#DejaVuSans-31"/>
       <use xlink:href="#DejaVuSans-2e" x="63.623047"/>
       <use xlink:href="#DejaVuSans-36" x="95.410156"/>
      </g>
     </g>
    </g>
    <g id="ytick_10">
     <g id="line2d_27">
      <g>
       <use xlink:href="#m5eb294d4c6" x="470.38125" y="263.47021" style="stroke: #000000; stroke-width: 0.8"/>
      </g>
     </g>
     <g id="text_28">
      <!-- 1.8 -->
      <g transform="translate(447.478125 267.269429)scale(0.1 -0.1)">
       <use xlink:href="#DejaVuSans-31"/>
       <use xlink:href="#DejaVuSans-2e" x="63.623047"/>
       <use xlink:href="#DejaVuSans-38" x="95.410156"/>
      </g>
     </g>
    </g>
    <g id="ytick_11">
     <g id="line2d_28">
      <g>
       <use xlink:href="#m5eb294d4c6" x="470.38125" y="219.737043" style="stroke: #000000; stroke-width: 0.8"/>
      </g>
     </g>
     <g id="text_29">
      <!-- 2.0 -->
      <g transform="translate(447.478125 223.536261)scale(0.1 -0.1)">
       <use xlink:href="#DejaVuSans-32"/>
       <use xlink:href="#DejaVuSans-2e" x="63.623047"/>
       <use xlink:href="#DejaVuSans-30" x="95.410156"/>
      </g>
     </g>
    </g>
    <g id="ytick_12">
     <g id="line2d_29">
      <g>
       <use xlink:href="#m5eb294d4c6" x="470.38125" y="176.003875" style="stroke: #000000; stroke-width: 0.8"/>
      </g>
     </g>
     <g id="text_30">
      <!-- 2.2 -->
      <g transform="translate(447.478125 179.803094)scale(0.1 -0.1)">
       <use xlink:href="#DejaVuSans-32"/>
       <use xlink:href="#DejaVuSans-2e" x="63.623047"/>
       <use xlink:href="#DejaVuSans-32" x="95.410156"/>
      </g>
     </g>
    </g>
    <g id="ytick_13">
     <g id="line2d_30">
      <g>
       <use xlink:href="#m5eb294d4c6" x="470.38125" y="132.270708" style="stroke: #000000; stroke-width: 0.8"/>
      </g>
     </g>
     <g id="text_31">
      <!-- 2.4 -->
      <g transform="translate(447.478125 136.069927)scale(0.1 -0.1)">
       <use xlink:href="#DejaVuSans-32"/>
       <use xlink:href="#DejaVuSans-2e" x="63.623047"/>
       <use xlink:href="#DejaVuSans-34" x="95.410156"/>
      </g>
     </g>
    </g>
    <g id="ytick_14">
     <g id="line2d_31">
      <g>
       <use xlink:href="#m5eb294d4c6" x="470.38125" y="88.537541" style="stroke: #000000; stroke-width: 0.8"/>
      </g>
     </g>
     <g id="text_32">
      <!-- 2.6 -->
      <g transform="translate(447.478125 92.336759)scale(0.1 -0.1)">
       <use xlink:href="#DejaVuSans-32"/>
       <use xlink:href="#DejaVuSans-2e" x="63.623047"/>
       <use xlink:href="#DejaVuSans-36" x="95.410156"/>
      </g>
     </g>
    </g>
    <g id="ytick_15">
     <g id="line2d_32">
      <g>
       <use xlink:href="#m5eb294d4c6" x="470.38125" y="44.804373" style="stroke: #000000; stroke-width: 0.8"/>
      </g>
     </g>
     <g id="text_33">
      <!-- 2.8 -->
      <g transform="translate(447.478125 48.603592)scale(0.1 -0.1)">
       <use xlink:href="#DejaVuSans-32"/>
       <use xlink:href="#DejaVuSans-2e" x="63.623047"/>
       <use xlink:href="#DejaVuSans-38" x="95.410156"/>
      </g>
     </g>
    </g>
    <g id="text_34">
     <!-- Foxes population -->
     <g transform="translate(441.398438 239.178125)rotate(-90)scale(0.1 -0.1)">
      <use xlink:href="#DejaVuSans-46"/>
      <use xlink:href="#DejaVuSans-6f" x="53.894531"/>
      <use xlink:href="#DejaVuSans-78" x="111.951172"/>
      <use xlink:href="#DejaVuSans-65" x="168.005859"/>
      <use xlink:href="#DejaVuSans-73" x="229.529297"/>
      <use xlink:href="#DejaVuSans-20" x="281.628906"/>
      <use xlink:href="#DejaVuSans-70" x="313.416016"/>
      <use xlink:href="#DejaVuSans-6f" x="376.892578"/>
      <use xlink:href="#DejaVuSans-70" x="438.074219"/>
      <use xlink:href="#DejaVuSans-75" x="501.550781"/>
      <use xlink:href="#DejaVuSans-6c" x="564.929688"/>
      <use xlink:href="#DejaVuSans-61" x="592.712891"/>
      <use xlink:href="#DejaVuSans-74" x="653.992188"/>
      <use xlink:href="#DejaVuSans-69" x="693.201172"/>
      <use xlink:href="#DejaVuSans-6f" x="720.984375"/>
      <use xlink:href="#DejaVuSans-6e" x="782.166016"/>
     </g>
    </g>
   </g>
   <g id="line2d_33">
    <path d="M 831.875458 219.737043 
L 831.788746 215.342369 
L 831.527597 210.907121 
L 831.090771 206.434623 
L 830.4774 201.928358 
L 829.686992 197.39196 
L 828.719427 192.829223 
L 827.574959 188.244095 
L 826.254216 183.640679 
L 824.75068 179.018927 
L 823.058481 174.379136 
L 821.183437 169.728195 
L 819.131409 165.072849 
L 816.908243 160.41967 
L 814.519775 155.775059 
L 811.971826 151.145242 
L 809.270209 146.536274 
L 806.420721 141.954037 
L 803.429149 137.404241 
L 800.301268 132.892423 
L 797.04284 128.423948 
L 793.659615 124.004006 
L 790.157331 119.637618 
L 786.541714 115.329631 
L 782.818477 111.084717 
L 778.993324 106.907379 
L 775.071942 102.801946 
L 771.06001 98.772573 
L 766.963193 94.823246 
L 762.787144 90.957775 
L 758.537505 87.179798 
L 754.219904 83.492782 
L 749.839959 79.90002 
L 740.91544 73.009571 
L 731.808642 66.531346 
L 722.564064 60.48548 
L 713.226011 54.889348 
L 703.838594 49.757562 
L 694.44573 45.101973 
L 685.091142 40.931671 
L 675.818361 37.252985 
L 666.670723 34.069483 
L 657.68691 31.39083 
L 648.891796 29.221004 
L 640.306591 27.549161 
L 631.950185 26.363619 
L 623.839139 25.651889 
L 615.987691 25.400676 
L 608.407752 25.595876 
L 601.108906 26.222578 
L 594.098412 27.265064 
L 587.381203 28.706807 
L 580.959884 30.530474 
L 574.834736 32.717925 
L 569.003714 35.25021 
L 563.462445 38.107575 
L 558.204232 41.269455 
L 553.220051 44.714479 
L 548.498551 48.420469 
L 544.026057 52.36444 
L 539.786566 56.522597 
L 535.761749 60.87034 
L 531.931249 65.382457 
L 528.303421 70.053596 
L 524.885586 74.878679 
L 521.668677 79.842272 
L 518.644009 84.929605 
L 515.803273 90.126572 
L 513.138536 95.419725 
L 510.642246 100.796284 
L 508.307228 106.244128 
L 506.126683 111.751799 
L 504.094191 117.308503 
L 501.309942 125.713512 
L 498.826512 134.174801 
L 496.627015 142.664322 
L 494.696482 151.157382 
L 493.021853 159.632642 
L 491.591984 168.072116 
L 490.397642 176.461174 
L 489.428471 184.783537 
L 488.671999 193.018776 
L 488.120858 201.153806 
L 487.768695 209.176487 
L 487.610091 217.075489 
L 487.640551 224.840288 
L 487.856515 232.46117 
L 488.255351 239.929229 
L 488.835356 247.236368 
L 489.595759 254.375298 
L 490.536717 261.339537 
L 491.659318 268.123415 
L 492.96558 274.722066 
L 494.458451 281.131436 
L 496.141808 287.348278 
L 498.020459 293.370153 
L 500.100141 299.19543 
L 502.387523 304.823289 
L 504.890201 310.253716 
L 507.611203 315.483972 
L 510.543337 320.501584 
L 513.700577 325.303747 
L 517.097912 329.888107 
L 519.503197 332.821906 
L 522.025453 335.65657 
L 524.668478 338.39095 
L 527.435895 341.023777 
L 530.331158 343.553664 
L 533.357548 345.979101 
L 536.518174 348.29846 
L 539.815972 350.509992 
L 543.253709 352.611827 
L 546.833976 354.601978 
L 550.559196 356.478334 
L 554.431616 358.238667 
L 558.453316 359.880627 
L 562.626199 361.401746 
L 566.952 362.799433 
L 571.432279 364.07098 
L 576.068426 365.213557 
L 580.861659 366.224214 
L 585.813023 367.099882 
L 590.923392 367.837371 
L 596.193468 368.433371 
L 601.623779 368.884452 
L 607.214684 369.187065 
L 612.966369 369.33754 
L 618.878847 369.332086 
L 624.95196 369.166793 
L 631.185378 368.837631 
L 637.576187 368.341065 
L 644.110363 367.674871 
L 650.783728 366.832097 
L 657.592287 365.805348 
L 664.530229 364.587426 
L 671.589927 363.171335 
L 678.761939 361.550273 
L 686.035007 359.717638 
L 693.396055 357.667024 
L 700.830194 355.392226 
L 708.320718 352.887235 
L 715.849104 350.14624 
L 723.395014 347.163629 
L 730.936294 343.933986 
L 738.448975 340.452095 
L 745.907272 336.712937 
L 753.283582 332.711691 
L 760.548488 328.443736 
L 767.670756 323.904645 
L 774.617338 319.090191 
L 781.353369 313.996347 
L 787.842167 308.619281 
L 794.045235 302.955361 
L 797.027094 300.014748 
L 799.922261 297.00115 
L 802.725414 293.914167 
L 805.431116 290.753413 
L 808.033818 287.518514 
L 810.527856 284.20911 
L 812.907453 280.824851 
L 815.166719 277.3654 
L 817.29965 273.830434 
L 819.302957 270.220472 
L 821.176417 266.538021 
L 822.914965 262.785035 
L 824.513711 258.963532 
L 825.968082 255.075631 
L 827.273823 251.123552 
L 828.426994 247.109613 
L 829.423976 243.036232 
L 830.261464 238.905925 
L 830.936471 234.721309 
L 831.446329 230.485101 
L 831.788684 226.200115 
L 831.961503 221.869267 
L 831.963068 217.495571 
L 831.791978 213.082142 
L 831.447151 208.632192 
L 830.92782 204.149034 
L 830.233538 199.636081 
L 829.364172 195.096845 
L 828.319909 190.534936 
L 827.101251 185.954065 
L 825.709021 181.358043 
L 824.144354 176.750779 
L 822.408706 172.136281 
L 820.50385 167.51866 
L 818.431875 162.902121 
L 816.195187 158.290974 
L 813.796511 153.689625 
L 811.238888 149.102579 
L 808.525676 144.534444 
L 805.660551 139.989924 
L 802.647507 135.473823 
L 799.490853 130.991047 
L 796.195216 126.546599 
L 792.765543 122.145581 
L 789.207094 117.793197 
L 785.52545 113.494748 
L 781.726506 109.255636 
L 777.816477 105.081362 
L 773.801893 100.977527 
L 769.695385 96.951804 
L 765.508453 93.010156 
L 761.24652 89.155743 
L 756.914973 85.391606 
L 752.519163 81.720663 
L 743.555984 74.669431 
L 734.399083 68.022973 
L 725.089986 61.800276 
L 715.66965 56.018389 
L 706.178461 50.69242 
L 696.656234 45.835538 
L 687.142213 41.458974 
L 677.675071 37.572017 
L 668.29291 34.182019 
L 659.033261 31.294391 
L 649.933084 28.912606 
L 645.454191 27.911959 
L 641.028768 27.038196 
L 636.661273 26.291205 
L 632.356131 25.670754 
L 628.11773 25.17649 
L 623.950422 24.807936 
L 619.858524 24.564497 
L 615.846316 24.445455 
L 611.918044 24.449971 
L 608.077918 24.577086 
L 604.330112 24.825718 
L 600.678764 25.194666 
L 597.127138 25.682289 
L 590.242723 26.971742 
L 583.621881 28.65082 
L 577.268647 30.69922 
L 571.186138 33.096971 
L 565.376549 35.824434 
L 559.841154 38.8623 
L 554.580309 42.191592 
L 549.593445 45.793665 
L 544.879075 49.650205 
L 540.434792 53.743228 
L 536.257266 58.055083 
L 532.342247 62.568451 
L 528.684566 67.266342 
L 525.278132 72.132099 
L 522.115932 77.149397 
L 519.190034 82.30224 
L 516.491585 87.574965 
L 514.010812 92.95224 
L 511.73702 98.419066 
L 509.658594 103.960772 
L 507.762997 109.563021 
L 506.036773 115.211807 
L 503.733311 123.742419 
L 501.725965 132.302292 
L 499.957668 140.848348 
L 497.864428 152.150282 
L 494.558302 171.455477 
L 493.413957 179.596233 
L 492.490344 187.670006 
L 491.779195 195.661883 
L 491.27323 203.557949 
L 490.966154 211.345286 
L 490.852657 219.011974 
L 490.928414 226.54709 
L 491.190088 233.94071 
L 491.635324 241.183903 
L 492.262755 248.268741 
L 493.071999 255.188289 
L 494.063658 261.936612 
L 495.239322 268.508771 
L 496.601563 274.900825 
L 498.153942 281.10983 
L 499.901004 287.13384 
L 501.84828 292.971905 
L 504.002283 298.624074 
L 506.36032 304.082821 
L 508.923219 309.338809 
L 511.702584 314.389358 
L 514.709582 319.231377 
L 517.954941 323.861363 
L 521.448947 328.275396 
L 523.921305 331.09599 
L 526.51137 333.817303 
L 529.221866 336.437868 
L 532.055429 338.956136 
L 535.01461 341.370477 
L 538.101872 343.679179 
L 541.319592 345.880447 
L 544.67006 347.972406 
L 548.155479 349.9531 
L 551.777967 351.820488 
L 555.539553 353.572452 
L 559.44218 355.206788 
L 563.487707 356.721212 
L 567.677902 358.11336 
L 572.014449 359.380784 
L 576.498945 360.520955 
L 581.1329 361.531262 
L 585.917738 362.409014 
L 590.854796 363.151437 
L 595.945322 363.755674 
L 601.190482 364.218789 
L 606.591352 364.537763 
L 612.148921 364.709496 
L 617.855312 364.730523 
L 623.701726 364.596083 
L 629.690009 364.301055 
L 635.820364 363.840296 
L 642.091316 363.208645 
L 648.499708 362.400922 
L 655.040706 361.411928 
L 661.707794 360.236442 
L 668.492777 358.869228 
L 675.38578 357.305025 
L 682.375249 355.538558 
L 689.447949 353.56453 
L 696.588965 351.377624 
L 703.781705 348.972505 
L 711.007893 346.343818 
L 718.247577 343.486189 
L 725.479122 340.394224 
L 732.679217 337.06251 
L 739.822867 333.485616 
L 746.8834 329.658088 
L 753.832464 325.574456 
L 760.640025 321.22923 
L 767.274372 316.616899 
L 773.702113 311.731934 
L 779.888177 306.568787 
L 785.795811 301.121889 
L 791.388154 295.386103 
L 796.656736 289.36774 
L 799.158466 286.254439 
L 801.563143 283.072223 
L 803.864617 279.821628 
L 806.057034 276.503321 
L 808.134826 273.118097 
L 810.092721 269.66688 
L 811.925732 266.150724 
L 813.629169 262.570815 
L 815.198628 258.928466 
L 816.629999 255.225118 
L 817.919461 251.462347 
L 819.063484 247.641853 
L 820.058831 243.765469 
L 820.902553 239.835155 
L 821.591993 235.853004 
L 822.124786 231.821235 
L 822.498857 227.7422 
L 822.71242 223.618376 
L 822.763984 219.452375 
L 822.652344 215.246934 
L 822.376591 211.004923 
L 821.936102 206.729338 
L 821.330548 202.423309 
L 820.55989 198.090092 
L 819.624381 193.733073 
L 818.524562 189.355769 
L 817.261267 184.961827 
L 815.835621 180.555021 
L 814.249039 176.139256 
L 812.503227 171.718567 
L 810.600183 167.297119 
L 808.542194 162.879205 
L 806.331839 158.469248 
L 803.971988 154.071801 
L 801.465802 149.691548 
L 798.816732 145.333299 
L 796.02852 141.001996 
L 793.105199 136.702711 
L 790.051094 132.440644 
L 786.870819 128.221126 
L 783.569281 124.049617 
L 780.151676 119.931706 
L 776.624242 115.873303 
L 769.304059 107.964378 
L 761.665717 100.353947 
L 753.736046 93.061698 
L 745.543 86.10627 
L 737.11565 79.505244 
L 728.484188 73.27515 
L 719.679926 67.431462 
L 710.735298 61.988602 
L 701.683854 56.959937 
L 692.560268 52.357781 
L 683.400332 48.193393 
L 674.240958 44.476979 
L 665.120178 41.217692 
L 656.077145 38.42363 
L 647.152131 36.101836 
L 638.386529 34.258302 
L 629.822851 32.897965 
L 625.630325 32.400249 
L 621.50473 32.024706 
L 617.451695 31.771657 
L 613.476918 31.641357 
L 609.58617 31.633993 
L 605.785288 31.74969 
L 602.080183 31.988505 
L 598.476833 32.350429 
L 594.981287 32.835388 
L 591.599664 33.443241 
L 588.338026 34.173717 
L 582.065391 35.93412 
L 576.059084 38.042574 
L 570.316609 40.479126 
L 564.835033 43.224276 
L 559.610986 46.258967 
L 554.640659 49.564593 
L 549.919809 53.122993 
L 545.443754 56.916455 
L 541.207374 60.927715 
L 537.205113 65.139954 
L 533.430979 69.536804 
L 529.878541 74.102341 
L 526.540931 78.821092 
L 523.410845 83.67803 
L 520.48054 88.658574 
L 517.741838 93.748593 
L 515.186122 98.934402 
L 512.80434 104.202764 
L 510.587 109.540891 
L 508.524175 114.936439 
L 505.696861 123.111532 
L 503.156957 131.350912 
L 500.865425 139.61859 
L 498.789435 147.884528 
L 496.965078 156.150396 
L 495.392613 164.401196 
L 494.059738 172.617025 
L 492.955315 180.7793 
L 492.069375 188.870755 
L 491.393114 196.87544 
L 490.918897 204.778722 
L 490.640253 212.567285 
L 490.55188 220.229131 
L 490.649641 227.753577 
L 490.930567 235.13126 
L 491.392855 242.35413 
L 492.035868 249.415457 
L 492.860137 256.309828 
L 493.867359 263.033144 
L 495.060399 269.582627 
L 496.443286 275.956813 
L 498.021217 282.155556 
L 499.800498 288.179961 
L 501.777916 294.019581 
L 503.953899 299.663673 
L 506.336907 305.109132 
L 508.935374 310.352589 
L 511.757712 315.390409 
L 514.812306 320.218693 
L 518.107523 324.833277 
L 520.442132 327.788768 
L 522.889856 330.64594 
L 525.453156 333.403363 
L 528.134488 336.059556 
L 530.936303 338.612982 
L 533.861047 341.062056 
L 536.911163 343.405137 
L 540.089088 345.640534 
L 543.397254 347.766503 
L 546.838089 349.781247 
L 550.414016 351.682919 
L 554.127453 353.469616 
L 557.980815 355.139385 
L 561.976511 356.690221 
L 566.116944 358.120065 
L 570.404516 359.426808 
L 574.84162 360.608286 
L 579.430647 361.662285 
L 584.173983 362.586536 
L 589.07335 363.378615 
L 594.11787 364.033621 
L 599.307684 364.547489 
L 604.647924 364.916871 
L 610.142267 365.138244 
L 615.792943 365.207902 
L 621.600726 365.121963 
L 627.56494 364.876365 
L 633.683458 364.466866 
L 639.952698 363.889046 
L 646.367629 363.138304 
L 652.921767 362.209863 
L 659.607175 361.098764 
L 666.414467 359.79987 
L 673.332801 358.307866 
L 680.349886 356.617255 
L 687.451979 354.722364 
L 694.623884 352.617339 
L 701.848954 350.296148 
L 709.109088 347.752578 
L 716.384736 344.98024 
L 723.654894 341.972562 
L 730.897107 338.722796 
L 738.087468 335.224014 
L 745.200618 331.469108 
L 752.209745 327.450793 
L 759.086587 323.161601 
L 765.833135 318.604507 
L 772.461208 313.790379 
L 778.905263 308.708537 
L 785.102132 303.350183 
L 790.993121 297.709063 
L 793.806795 294.781205 
L 796.524018 291.781462 
L 799.138715 288.709765 
L 801.645087 285.566208 
L 804.037619 282.35104 
L 806.311071 279.064672 
L 808.460488 275.70767 
L 810.481192 272.280764 
L 812.368784 268.784838 
L 814.119148 265.220938 
L 815.728444 261.590267 
L 817.193117 257.894189 
L 818.509886 254.134224 
L 819.675755 250.312054 
L 820.688004 246.429516 
L 821.544195 242.48861 
L 822.242171 238.491493 
L 822.780051 234.440479 
L 823.156238 230.338045 
L 823.369413 226.186822 
L 823.418536 221.989605 
L 823.302849 217.749343 
L 823.021872 213.469148 
L 822.575406 209.152287 
L 821.963531 204.80219 
L 821.186609 200.422442 
L 820.24528 196.016789 
L 819.140463 191.589136 
L 817.873358 187.143545 
L 816.445447 182.684239 
L 814.858489 178.215599 
L 813.114523 173.742165 
L 811.21587 169.268635 
L 809.165128 164.799867 
L 806.965178 160.340878 
L 804.619179 155.896842 
L 802.130569 151.473093 
L 799.503069 147.075126 
L 796.740677 142.70859 
L 793.847673 138.379299 
L 790.828614 134.093219 
L 787.68834 129.856482 
L 784.431969 125.675372 
L 781.063068 121.552643 
L 777.582275 117.483955 
L 773.994904 113.473275 
L 770.306653 109.524985 
L 766.523327 105.643358 
L 762.650847 101.832563 
L 754.662658 94.439615 
L 754.662658 94.439615 
" clip-path="url(#pd1e4663d37)" style="fill: none; stroke: #000000; stroke-width: 1.5; stroke-linecap: square"/>
   </g>
   <g id="patch_9">
    <path d="M 470.38125 386.6 
L 470.38125 7.2 
" style="fill: none; stroke: #000000; stroke-width: 0.8; stroke-linejoin: miter; stroke-linecap: square"/>
   </g>
   <g id="patch_10">
    <path d="M 849.18125 386.6 
L 849.18125 7.2 
" style="fill: none; stroke: #000000; stroke-width: 0.8; stroke-linejoin: miter; stroke-linecap: square"/>
   </g>
   <g id="patch_11">
    <path d="M 470.38125 386.6 
L 849.18125 386.6 
" style="fill: none; stroke: #000000; stroke-width: 0.8; stroke-linejoin: miter; stroke-linecap: square"/>
   </g>
   <g id="patch_12">
    <path d="M 470.38125 7.2 
L 849.18125 7.2 
" style="fill: none; stroke: #000000; stroke-width: 0.8; stroke-linejoin: miter; stroke-linecap: square"/>
   </g>
  </g>
 </g>
 <defs>
  <clipPath id="pe5c9e01bf2">
   <rect x="43.78125" y="7.2" width="378.8" height="379.4"/>
  </clipPath>
  <clipPath id="pd1e4663d37">
   <rect x="470.38125" y="7.2" width="378.8" height="379.4"/>
  </clipPath>
 </defs>
</svg>
