<?xml version="1.0" encoding="utf-8" standalone="no"?>
<!DOCTYPE svg PUBLIC "-//W3C//DTD SVG 1.1//EN"
  "http://www.w3.org/Graphics/SVG/1.1/DTD/svg11.dtd">
<svg xmlns:xlink="http://www.w3.org/1999/xlink" width="856.7875pt" height="423.721617pt" viewBox="0 0 856.7875 423.721617" xmlns="http://www.w3.org/2000/svg" version="1.1">
 <metadata>
  <rdf:RDF xmlns:dc="http://purl.org/dc/elements/1.1/" xmlns:cc="http://creativecommons.org/ns#" xmlns:rdf="http://www.w3.org/1999/02/22-rdf-syntax-ns#">
   <cc:Work>
    <dc:type rdf:resource="http://purl.org/dc/dcmitype/StillImage"/>
    <dc:date>2024-10-07T21:58:01.552956</dc:date>
    <dc:format>image/svg+xml</dc:format>
    <dc:creator>
     <cc:Agent>
      <dc:title>Matplotlib v3.5.2, https://matplotlib.org/</dc:title>
     </cc:Agent>
    </dc:creator>
   </cc:Work>
  </rdf:RDF>
 </metadata>
 <defs>
  <style type="text/css">*{stroke-linejoin: round; stroke-linecap: butt}</style>
 </defs>
 <g id="figure_1">
  <g id="patch_1">
   <path d="M 0 423.721617 
L 856.7875 423.721617 
L 856.7875 0 
L 0 0 
z
" style="fill: #ffffff"/>
  </g>
  <g id="axes_1">
   <g id="patch_2">
    <path d="M 20.5625 386.165367 
L 411.175 386.165367 
L 411.175 9.262244 
L 20.5625 9.262244 
z
" style="fill: #ffffff"/>
   </g>
   <g id="matplotlib.axis_1">
    <g id="xtick_1">
     <g id="line2d_1">
      <defs>
       <path id="md6469db508" d="M 0 0 
L 0 3.5 
" style="stroke: #000000; stroke-width: 0.8"/>
      </defs>
      <g>
       <use xlink:href="#md6469db508" x="38.317614" y="386.165367" style="stroke: #000000; stroke-width: 0.8"/>
      </g>
     </g>
     <g id="text_1">
      <!-- 0 -->
      <g transform="translate(35.136364 400.763804)scale(0.1 -0.1)">
       <defs>
        <path id="DejaVuSans-30" d="M 2034 4250 
Q 1547 4250 1301 3770 
Q 1056 3291 1056 2328 
Q 1056 1369 1301 889 
Q 1547 409 2034 409 
Q 2525 409 2770 889 
Q 3016 1369 3016 2328 
Q 3016 3291 2770 3770 
Q 2525 4250 2034 4250 
z
M 2034 4750 
Q 2819 4750 3233 4129 
Q 3647 3509 3647 2328 
Q 3647 1150 3233 529 
Q 2819 -91 2034 -91 
Q 1250 -91 836 529 
Q 422 1150 422 2328 
Q 422 3509 836 4129 
Q 1250 4750 2034 4750 
z
" transform="scale(0.015625)"/>
       </defs>
       <use xlink:href="#DejaVuSans-30"/>
      </g>
     </g>
    </g>
    <g id="xtick_2">
     <g id="line2d_2">
      <g>
       <use xlink:href="#md6469db508" x="109.338068" y="386.165367" style="stroke: #000000; stroke-width: 0.8"/>
      </g>
     </g>
     <g id="text_2">
      <!-- 2 -->
      <g transform="translate(106.156818 400.763804)scale(0.1 -0.1)">
       <defs>
        <path id="DejaVuSans-32" d="M 1228 531 
L 3431 531 
L 3431 0 
L 469 0 
L 469 531 
Q 828 903 1448 1529 
Q 2069 2156 2228 2338 
Q 2531 2678 2651 2914 
Q 2772 3150 2772 3378 
Q 2772 3750 2511 3984 
Q 2250 4219 1831 4219 
Q 1534 4219 1204 4116 
Q 875 4013 500 3803 
L 500 4441 
Q 881 4594 1212 4672 
Q 1544 4750 1819 4750 
Q 2544 4750 2975 4387 
Q 3406 4025 3406 3419 
Q 3406 3131 3298 2873 
Q 3191 2616 2906 2266 
Q 2828 2175 2409 1742 
Q 1991 1309 1228 531 
z
" transform="scale(0.015625)"/>
       </defs>
       <use xlink:href="#DejaVuSans-32"/>
      </g>
     </g>
    </g>
    <g id="xtick_3">
     <g id="line2d_3">
      <g>
       <use xlink:href="#md6469db508" x="180.358523" y="386.165367" style="stroke: #000000; stroke-width: 0.8"/>
      </g>
     </g>
     <g id="text_3">
      <!-- 4 -->
      <g transform="translate(177.177273 400.763804)scale(0.1 -0.1)">
       <defs>
        <path id="DejaVuSans-34" d="M 2419 4116 
L 825 1625 
L 2419 1625 
L 2419 4116 
z
M 2253 4666 
L 3047 4666 
L 3047 1625 
L 3713 1625 
L 3713 1100 
L 3047 1100 
L 3047 0 
L 2419 0 
L 2419 1100 
L 313 1100 
L 313 1709 
L 2253 4666 
z
" transform="scale(0.015625)"/>
       </defs>
       <use xlink:href="#DejaVuSans-34"/>
      </g>
     </g>
    </g>
    <g id="xtick_4">
     <g id="line2d_4">
      <g>
       <use xlink:href="#md6469db508" x="251.378977" y="386.165367" style="stroke: #000000; stroke-width: 0.8"/>
      </g>
     </g>
     <g id="text_4">
      <!-- 6 -->
      <g transform="translate(248.197727 400.763804)scale(0.1 -0.1)">
       <defs>
        <path id="DejaVuSans-36" d="M 2113 2584 
Q 1688 2584 1439 2293 
Q 1191 2003 1191 1497 
Q 1191 994 1439 701 
Q 1688 409 2113 409 
Q 2538 409 2786 701 
Q 3034 994 3034 1497 
Q 3034 2003 2786 2293 
Q 2538 2584 2113 2584 
z
M 3366 4563 
L 3366 3988 
Q 3128 4100 2886 4159 
Q 2644 4219 2406 4219 
Q 1781 4219 1451 3797 
Q 1122 3375 1075 2522 
Q 1259 2794 1537 2939 
Q 1816 3084 2150 3084 
Q 2853 3084 3261 2657 
Q 3669 2231 3669 1497 
Q 3669 778 3244 343 
Q 2819 -91 2113 -91 
Q 1303 -91 875 529 
Q 447 1150 447 2328 
Q 447 3434 972 4092 
Q 1497 4750 2381 4750 
Q 2619 4750 2861 4703 
Q 3103 4656 3366 4563 
z
" transform="scale(0.015625)"/>
       </defs>
       <use xlink:href="#DejaVuSans-36"/>
      </g>
     </g>
    </g>
    <g id="xtick_5">
     <g id="line2d_5">
      <g>
       <use xlink:href="#md6469db508" x="322.399432" y="386.165367" style="stroke: #000000; stroke-width: 0.8"/>
      </g>
     </g>
     <g id="text_5">
      <!-- 8 -->
      <g transform="translate(319.218182 400.763804)scale(0.1 -0.1)">
       <defs>
        <path id="DejaVuSans-38" d="M 2034 2216 
Q 1584 2216 1326 1975 
Q 1069 1734 1069 1313 
Q 1069 891 1326 650 
Q 1584 409 2034 409 
Q 2484 409 2743 651 
Q 3003 894 3003 1313 
Q 3003 1734 2745 1975 
Q 2488 2216 2034 2216 
z
M 1403 2484 
Q 997 2584 770 2862 
Q 544 3141 544 3541 
Q 544 4100 942 4425 
Q 1341 4750 2034 4750 
Q 2731 4750 3128 4425 
Q 3525 4100 3525 3541 
Q 3525 3141 3298 2862 
Q 3072 2584 2669 2484 
Q 3125 2378 3379 2068 
Q 3634 1759 3634 1313 
Q 3634 634 3220 271 
Q 2806 -91 2034 -91 
Q 1263 -91 848 271 
Q 434 634 434 1313 
Q 434 1759 690 2068 
Q 947 2378 1403 2484 
z
M 1172 3481 
Q 1172 3119 1398 2916 
Q 1625 2713 2034 2713 
Q 2441 2713 2670 2916 
Q 2900 3119 2900 3481 
Q 2900 3844 2670 4047 
Q 2441 4250 2034 4250 
Q 1625 4250 1398 4047 
Q 1172 3844 1172 3481 
z
" transform="scale(0.015625)"/>
       </defs>
       <use xlink:href="#DejaVuSans-38"/>
      </g>
     </g>
    </g>
    <g id="xtick_6">
     <g id="line2d_6">
      <g>
       <use xlink:href="#md6469db508" x="393.419886" y="386.165367" style="stroke: #000000; stroke-width: 0.8"/>
      </g>
     </g>
     <g id="text_6">
      <!-- 10 -->
      <g transform="translate(387.057386 400.763804)scale(0.1 -0.1)">
       <defs>
        <path id="DejaVuSans-31" d="M 794 531 
L 1825 531 
L 1825 4091 
L 703 3866 
L 703 4441 
L 1819 4666 
L 2450 4666 
L 2450 531 
L 3481 531 
L 3481 0 
L 794 0 
L 794 531 
z
" transform="scale(0.015625)"/>
       </defs>
       <use xlink:href="#DejaVuSans-31"/>
       <use xlink:href="#DejaVuSans-30" x="63.623047"/>
      </g>
     </g>
    </g>
    <g id="text_7">
     <!-- Time -->
     <g transform="translate(203.635156 414.441929)scale(0.1 -0.1)">
      <defs>
       <path id="DejaVuSans-54" d="M -19 4666 
L 3928 4666 
L 3928 4134 
L 2272 4134 
L 2272 0 
L 1638 0 
L 1638 4134 
L -19 4134 
L -19 4666 
z
" transform="scale(0.015625)"/>
       <path id="DejaVuSans-69" d="M 603 3500 
L 1178 3500 
L 1178 0 
L 603 0 
L 603 3500 
z
M 603 4863 
L 1178 4863 
L 1178 4134 
L 603 4134 
L 603 4863 
z
" transform="scale(0.015625)"/>
       <path id="DejaVuSans-6d" d="M 3328 2828 
Q 3544 3216 3844 3400 
Q 4144 3584 4550 3584 
Q 5097 3584 5394 3201 
Q 5691 2819 5691 2113 
L 5691 0 
L 5113 0 
L 5113 2094 
Q 5113 2597 4934 2840 
Q 4756 3084 4391 3084 
Q 3944 3084 3684 2787 
Q 3425 2491 3425 1978 
L 3425 0 
L 2847 0 
L 2847 2094 
Q 2847 2600 2669 2842 
Q 2491 3084 2119 3084 
Q 1678 3084 1418 2786 
Q 1159 2488 1159 1978 
L 1159 0 
L 581 0 
L 581 3500 
L 1159 3500 
L 1159 2956 
Q 1356 3278 1631 3431 
Q 1906 3584 2284 3584 
Q 2666 3584 2933 3390 
Q 3200 3197 3328 2828 
z
" transform="scale(0.015625)"/>
       <path id="DejaVuSans-65" d="M 3597 1894 
L 3597 1613 
L 953 1613 
Q 991 1019 1311 708 
Q 1631 397 2203 397 
Q 2534 397 2845 478 
Q 3156 559 3463 722 
L 3463 178 
Q 3153 47 2828 -22 
Q 2503 -91 2169 -91 
Q 1331 -91 842 396 
Q 353 884 353 1716 
Q 353 2575 817 3079 
Q 1281 3584 2069 3584 
Q 2775 3584 3186 3129 
Q 3597 2675 3597 1894 
z
M 3022 2063 
Q 3016 2534 2758 2815 
Q 2500 3097 2075 3097 
Q 1594 3097 1305 2825 
Q 1016 2553 972 2059 
L 3022 2063 
z
" transform="scale(0.015625)"/>
      </defs>
      <use xlink:href="#DejaVuSans-54"/>
      <use xlink:href="#DejaVuSans-69" x="57.958984"/>
      <use xlink:href="#DejaVuSans-6d" x="85.742188"/>
      <use xlink:href="#DejaVuSans-65" x="183.154297"/>
     </g>
    </g>
   </g>
   <g id="matplotlib.axis_2">
    <g id="ytick_1">
     <g id="line2d_7">
      <defs>
       <path id="m7bc7fd6be0" d="M 0 0 
L -3.5 0 
" style="stroke: #000000; stroke-width: 0.8"/>
      </defs>
      <g>
       <use xlink:href="#m7bc7fd6be0" x="20.5625" y="340.697201" style="stroke: #000000; stroke-width: 0.8"/>
      </g>
     </g>
     <g id="text_8">
      <!-- 2 -->
      <g transform="translate(7.2 344.49642)scale(0.1 -0.1)">
       <use xlink:href="#DejaVuSans-32"/>
      </g>
     </g>
    </g>
    <g id="ytick_2">
     <g id="line2d_8">
      <g>
       <use xlink:href="#m7bc7fd6be0" x="20.5625" y="293.132173" style="stroke: #000000; stroke-width: 0.8"/>
      </g>
     </g>
     <g id="text_9">
      <!-- 3 -->
      <g transform="translate(7.2 296.931392)scale(0.1 -0.1)">
       <defs>
        <path id="DejaVuSans-33" d="M 2597 2516 
Q 3050 2419 3304 2112 
Q 3559 1806 3559 1356 
Q 3559 666 3084 287 
Q 2609 -91 1734 -91 
Q 1441 -91 1130 -33 
Q 819 25 488 141 
L 488 750 
Q 750 597 1062 519 
Q 1375 441 1716 441 
Q 2309 441 2620 675 
Q 2931 909 2931 1356 
Q 2931 1769 2642 2001 
Q 2353 2234 1838 2234 
L 1294 2234 
L 1294 2753 
L 1863 2753 
Q 2328 2753 2575 2939 
Q 2822 3125 2822 3475 
Q 2822 3834 2567 4026 
Q 2313 4219 1838 4219 
Q 1578 4219 1281 4162 
Q 984 4106 628 3988 
L 628 4550 
Q 988 4650 1302 4700 
Q 1616 4750 1894 4750 
Q 2613 4750 3031 4423 
Q 3450 4097 3450 3541 
Q 3450 3153 3228 2886 
Q 3006 2619 2597 2516 
z
" transform="scale(0.015625)"/>
       </defs>
       <use xlink:href="#DejaVuSans-33"/>
      </g>
     </g>
    </g>
    <g id="ytick_3">
     <g id="line2d_9">
      <g>
       <use xlink:href="#m7bc7fd6be0" x="20.5625" y="245.567146" style="stroke: #000000; stroke-width: 0.8"/>
      </g>
     </g>
     <g id="text_10">
      <!-- 4 -->
      <g transform="translate(7.2 249.366365)scale(0.1 -0.1)">
       <use xlink:href="#DejaVuSans-34"/>
      </g>
     </g>
    </g>
    <g id="ytick_4">
     <g id="line2d_10">
      <g>
       <use xlink:href="#m7bc7fd6be0" x="20.5625" y="198.002118" style="stroke: #000000; stroke-width: 0.8"/>
      </g>
     </g>
     <g id="text_11">
      <!-- 5 -->
      <g transform="translate(7.2 201.801337)scale(0.1 -0.1)">
       <defs>
        <path id="DejaVuSans-35" d="M 691 4666 
L 3169 4666 
L 3169 4134 
L 1269 4134 
L 1269 2991 
Q 1406 3038 1543 3061 
Q 1681 3084 1819 3084 
Q 2600 3084 3056 2656 
Q 3513 2228 3513 1497 
Q 3513 744 3044 326 
Q 2575 -91 1722 -91 
Q 1428 -91 1123 -41 
Q 819 9 494 109 
L 494 744 
Q 775 591 1075 516 
Q 1375 441 1709 441 
Q 2250 441 2565 725 
Q 2881 1009 2881 1497 
Q 2881 1984 2565 2268 
Q 2250 2553 1709 2553 
Q 1456 2553 1204 2497 
Q 953 2441 691 2322 
L 691 4666 
z
" transform="scale(0.015625)"/>
       </defs>
       <use xlink:href="#DejaVuSans-35"/>
      </g>
     </g>
    </g>
    <g id="ytick_5">
     <g id="line2d_11">
      <g>
       <use xlink:href="#m7bc7fd6be0" x="20.5625" y="150.437091" style="stroke: #000000; stroke-width: 0.8"/>
      </g>
     </g>
     <g id="text_12">
      <!-- 6 -->
      <g transform="translate(7.2 154.236309)scale(0.1 -0.1)">
       <use xlink:href="#DejaVuSans-36"/>
      </g>
     </g>
    </g>
    <g id="ytick_6">
     <g id="line2d_12">
      <g>
       <use xlink:href="#m7bc7fd6be0" x="20.5625" y="102.872063" style="stroke: #000000; stroke-width: 0.8"/>
      </g>
     </g>
     <g id="text_13">
      <!-- 7 -->
      <g transform="translate(7.2 106.671282)scale(0.1 -0.1)">
       <defs>
        <path id="DejaVuSans-37" d="M 525 4666 
L 3525 4666 
L 3525 4397 
L 1831 0 
L 1172 0 
L 2766 4134 
L 525 4134 
L 525 4666 
z
" transform="scale(0.015625)"/>
       </defs>
       <use xlink:href="#DejaVuSans-37"/>
      </g>
     </g>
    </g>
    <g id="ytick_7">
     <g id="line2d_13">
      <g>
       <use xlink:href="#m7bc7fd6be0" x="20.5625" y="55.307036" style="stroke: #000000; stroke-width: 0.8"/>
      </g>
     </g>
     <g id="text_14">
      <!-- 8 -->
      <g transform="translate(7.2 59.106254)scale(0.1 -0.1)">
       <use xlink:href="#DejaVuSans-38"/>
      </g>
     </g>
    </g>
   </g>
   <g id="line2d_14">
    <path d="M 38.317614 245.567146 
L 39.027818 245.415929 
L 39.738023 244.966027 
L 40.448227 244.222631 
L 41.158432 243.190359 
L 42.223739 241.122619 
L 43.289045 238.442117 
L 44.354352 235.143925 
L 45.419659 231.226407 
L 46.840068 225.043019 
L 48.260477 217.775066 
L 49.680886 209.446099 
L 51.456398 197.595635 
L 53.231909 184.230596 
L 55.362523 166.356853 
L 57.848239 143.312748 
L 61.399261 107.878028 
L 64.950284 73.058003 
L 66.725795 57.555874 
L 68.146205 46.826168 
L 69.211511 40.073158 
L 70.276818 34.676977 
L 70.987023 31.94182 
L 71.697227 29.945079 
L 72.407432 28.72542 
L 72.762534 28.41667 
L 73.117636 28.312602 
L 73.472739 28.415439 
L 73.827841 28.726805 
L 74.182943 29.247726 
L 74.893148 30.919346 
L 75.603352 33.426534 
L 76.313557 36.75595 
L 77.378864 43.238994 
L 78.44417 51.400478 
L 79.86458 64.599044 
L 81.640091 84.050445 
L 84.836011 122.792706 
L 88.742136 169.807459 
L 90.517648 188.861029 
L 91.938057 202.196133 
L 93.358466 213.404252 
L 94.778875 222.920037 
L 96.199284 230.812003 
L 97.264591 235.642968 
L 98.329898 239.542329 
L 99.395205 242.526347 
L 100.105409 244.021628 
L 100.815614 245.135871 
L 101.525818 245.884413 
L 102.236023 246.285399 
L 102.946227 246.359778 
L 103.656432 246.131303 
L 104.366636 245.626535 
L 105.076841 244.874839 
L 106.142148 243.332885 
L 107.207455 241.19184 
L 108.272761 238.424409 
L 109.338068 235.03374 
L 110.758477 229.551719 
L 112.178886 222.985696 
L 113.599295 215.356018 
L 115.374807 204.362093 
L 117.150318 191.806127 
L 118.92583 177.76768 
L 121.056443 159.189231 
L 123.542159 135.494403 
L 131.354409 59.0909 
L 132.774818 47.946183 
L 134.195227 38.754594 
L 135.260534 33.405797 
L 135.970739 30.70432 
L 136.680943 28.758766 
L 137.391148 27.612169 
L 137.74625 27.348969 
L 138.101352 27.296741 
L 138.456455 27.457821 
L 138.811557 27.833868 
L 139.166659 28.425863 
L 139.876864 30.258244 
L 140.587068 32.949291 
L 141.297273 36.482506 
L 142.36258 43.298667 
L 143.427886 51.80782 
L 144.848295 65.425764 
L 146.623807 85.031998 
L 149.109523 115.538298 
L 153.37075 168.641702 
L 155.146261 187.845083 
L 156.56667 200.903965 
L 157.98708 212.289414 
L 159.407489 221.970939 
L 160.827898 229.926938 
L 161.893205 234.77972 
L 162.958511 238.714269 
L 164.023818 241.782647 
L 165.089125 244.054397 
L 165.79933 245.168582 
L 166.509534 245.997127 
L 167.219739 246.53772 
L 167.929943 246.765732 
L 168.640148 246.686491 
L 169.350352 246.305057 
L 170.060557 245.62618 
L 170.770761 244.654305 
L 171.836068 242.65609 
L 172.901375 240.02054 
L 173.966682 236.758772 
L 175.031989 232.880354 
L 176.452398 226.763521 
L 177.872807 219.582731 
L 179.293216 211.394939 
L 181.068727 199.722137 
L 182.844239 186.446624 
L 184.974852 168.520296 
L 187.460568 145.267409 
L 191.011591 109.324572 
L 194.917716 69.939293 
L 196.693227 54.160324 
L 198.113636 43.50867 
L 199.178943 36.976098 
L 200.24425 31.882246 
L 200.954455 29.360351 
L 201.664659 27.584139 
L 202.374864 26.588956 
L 202.729966 26.394204 
L 203.085068 26.406155 
L 203.44017 26.628103 
L 203.795273 27.063095 
L 204.505477 28.583141 
L 205.215682 30.98643 
L 205.925886 34.334388 
L 206.991193 41.027747 
L 208.0565 49.447845 
L 209.476909 62.845453 
L 211.25242 82.153192 
L 214.093239 116.211452 
L 217.644261 158.724019 
L 219.774875 181.615508 
L 221.550386 198.193116 
L 222.970795 209.583223 
L 224.391205 219.237202 
L 225.811614 227.178159 
L 226.87692 232.071217 
L 227.942227 236.135981 
L 229.007534 239.464187 
L 230.072841 242.032381 
L 230.783045 243.321977 
L 231.49325 244.28194 
L 232.203455 244.919147 
L 232.913659 245.240186 
L 233.623864 245.251357 
L 234.334068 244.958676 
L 235.044273 244.367871 
L 235.754477 243.484386 
L 236.464682 242.313375 
L 237.529989 240.028322 
L 238.595295 237.122452 
L 239.660602 233.613265 
L 241.081011 228.030258 
L 242.50142 221.390913 
L 243.92183 213.681377 
L 245.697341 202.553064 
L 247.472852 189.827799 
L 249.603466 172.613867 
L 251.73408 153.564011 
L 254.574898 126.007842 
L 260.256534 69.793024 
L 262.032045 54.95296 
L 263.452455 44.971371 
L 264.517761 38.852914 
L 265.583068 34.095079 
L 266.293273 31.76242 
L 267.003477 30.159272 
L 267.35858 29.646792 
L 267.713682 29.335303 
L 268.068784 29.230993 
L 268.423886 29.340038 
L 268.778989 29.671053 
L 269.134091 30.23862 
L 269.844295 32.063032 
L 270.5545 34.759311 
L 271.264705 38.270314 
L 272.330011 44.937926 
L 273.395318 53.111085 
L 274.815727 66.003447 
L 276.591239 84.642463 
L 279.076955 113.708686 
L 283.338182 163.976552 
L 285.113693 182.421873 
L 286.889205 198.619418 
L 288.309614 209.777593 
L 289.730023 219.272595 
L 291.150432 227.121392 
L 292.215739 231.977891 
L 293.281045 236.007353 
L 294.346352 239.232669 
L 295.411659 241.677842 
L 296.121864 242.886391 
L 296.832068 243.765848 
L 297.542273 244.323104 
L 298.252477 244.564959 
L 298.962682 244.498123 
L 299.672886 244.129214 
L 300.383091 243.464759 
L 301.093295 242.511194 
L 302.158602 240.552618 
L 303.223909 237.97918 
L 304.289216 234.816681 
L 305.354523 231.06169 
L 306.774932 225.117498 
L 308.195341 218.095635 
L 309.61575 210.005431 
L 311.391261 198.432319 
L 313.166773 185.322046 
L 315.297386 167.748591 
L 317.783102 145.104457 
L 320.979023 113.56728 
L 324.530045 78.719146 
L 326.305557 63.037562 
L 327.725966 52.017624 
L 329.146375 42.800208 
L 330.211682 37.328772 
L 330.921886 34.471821 
L 331.632091 32.314015 
L 332.342295 30.913695 
L 332.697398 30.516164 
L 333.0525 30.334461 
L 333.407602 30.372014 
L 333.762705 30.626323 
L 334.117807 31.094635 
L 334.828011 32.660971 
L 335.538216 35.043874 
L 336.24842 38.212097 
L 337.313727 44.358486 
L 338.379034 52.054834 
L 339.799443 64.452867 
L 341.219852 78.894292 
L 343.350466 103.285701 
L 348.321898 162.063924 
L 350.452511 184.244102 
L 352.228023 200.417693 
L 353.648432 211.586167 
L 355.068841 221.031312 
L 356.134148 226.93091 
L 357.199455 231.924828 
L 358.264761 236.077626 
L 359.330068 239.409529 
L 360.395375 241.942698 
L 361.10558 243.199553 
L 361.815784 244.119698 
L 362.525989 244.711131 
L 363.236193 244.982229 
L 363.946398 244.941755 
L 364.656602 244.598849 
L 365.366807 243.963037 
L 366.077011 243.044224 
L 367.142318 241.157545 
L 368.207625 238.671819 
L 369.272932 235.57879 
L 370.338239 231.872897 
L 371.758648 225.97603 
L 373.179057 218.993886 
L 374.599466 210.945541 
L 376.374977 199.434718 
L 378.150489 186.396125 
L 380.281102 168.901787 
L 382.766818 146.286769 
L 385.962739 114.835038 
L 390.223966 73.12134 
L 391.999477 57.776365 
L 393.419886 47.217032 
L 393.419886 47.217032 
" clip-path="url(#pdd54e2bc46)" style="fill: none; stroke: #1f77b4; stroke-width: 1.5; stroke-linecap: square"/>
   </g>
   <g id="line2d_15">
    <path d="M 38.317614 340.697201 
L 40.80333 347.08867 
L 42.933943 352.060839 
L 45.064557 356.485323 
L 46.840068 359.704555 
L 48.61558 362.463331 
L 50.035989 364.320875 
L 51.456398 365.856074 
L 52.876807 367.060846 
L 54.297216 367.929666 
L 55.362523 368.358929 
L 56.42783 368.597584 
L 57.493136 368.639756 
L 58.558443 368.469036 
L 59.62375 368.070462 
L 60.689057 367.431291 
L 61.754364 366.54099 
L 62.81967 365.391242 
L 63.884977 363.975945 
L 65.305386 361.669402 
L 66.725795 358.881017 
L 68.146205 355.614694 
L 69.921716 350.876961 
L 71.697227 345.442206 
L 74.182943 336.949222 
L 78.799273 320.855025 
L 80.574784 315.482923 
L 81.995193 311.872419 
L 83.0605 309.698588 
L 84.125807 308.012829 
L 85.191114 306.819001 
L 85.901318 306.296638 
L 86.611523 305.992185 
L 87.321727 305.90404 
L 88.031932 306.02987 
L 88.742136 306.366608 
L 89.452341 306.910455 
L 90.517648 308.104449 
L 91.582955 309.735698 
L 92.648261 311.782119 
L 94.06867 315.009758 
L 95.844182 319.558669 
L 98.685 327.576668 
L 104.011534 342.826915 
L 106.142148 348.249908 
L 108.272761 353.121737 
L 110.403375 357.42184 
L 112.178886 360.523052 
L 113.954398 363.155957 
L 115.374807 364.911382 
L 116.795216 366.34739 
L 118.215625 367.460379 
L 119.636034 368.246136 
L 120.701341 368.608854 
L 121.766648 368.76597 
L 122.831955 368.707865 
L 123.897261 368.425497 
L 124.962568 367.910394 
L 126.027875 367.154658 
L 127.093182 366.150964 
L 128.158489 364.89256 
L 129.578898 362.807877 
L 130.999307 360.246398 
L 132.419716 357.196873 
L 133.840125 353.652741 
L 135.615636 348.565173 
L 137.74625 341.637041 
L 140.94217 330.245154 
L 143.782989 320.319515 
L 145.5585 314.95267 
L 146.978909 311.416532 
L 148.044216 309.265959 
L 149.109523 307.578386 
L 150.17483 306.377329 
L 150.885034 305.855894 
L 151.595239 305.56249 
L 152.305443 305.499783 
L 153.015648 305.669291 
L 153.725852 306.071387 
L 154.436057 306.705294 
L 155.146261 307.56909 
L 156.211568 309.264646 
L 157.631977 312.064916 
L 159.052386 315.358098 
L 161.183 320.972606 
L 164.734023 331.214906 
L 168.285045 341.222249 
L 170.770761 347.653512 
L 172.901375 352.632729 
L 175.031989 357.029679 
L 176.8075 360.213281 
L 178.583011 362.945637 
L 180.00342 364.791149 
L 181.42383 366.321571 
L 182.844239 367.524727 
L 184.264648 368.387321 
L 185.329955 368.802146 
L 186.395261 369.010829 
L 187.460568 369.006522 
L 188.525875 368.782026 
L 189.591182 368.329788 
L 190.656489 367.641899 
L 191.721795 366.710098 
L 193.142205 365.085449 
L 194.562614 363.015303 
L 195.983023 360.4423 
L 197.403432 357.335989 
L 198.823841 353.697316 
L 200.599352 348.452601 
L 202.729966 341.322159 
L 206.280989 328.415069 
L 208.766705 319.654177 
L 210.187114 315.297404 
L 211.607523 311.649275 
L 212.67283 309.455097 
L 213.738136 307.762988 
L 214.803443 306.588088 
L 215.513648 306.091839 
L 216.223852 305.820013 
L 216.934057 305.764336 
L 217.644261 305.913126 
L 218.354466 306.254155 
L 219.06467 306.797925 
L 220.129977 307.978495 
L 221.195284 309.559176 
L 222.615693 312.211572 
L 224.036102 315.38309 
L 225.811614 319.89403 
L 229.007534 328.775779 
L 233.978966 342.503935 
L 236.464682 348.714661 
L 238.595295 353.489983 
L 240.725909 357.69552 
L 242.50142 360.728997 
L 244.276932 363.304557 
L 245.697341 365.017596 
L 247.11775 366.407847 
L 248.538159 367.462961 
L 249.603466 368.027228 
L 250.668773 368.39152 
L 251.73408 368.551205 
L 252.799386 368.501817 
L 253.864693 368.239055 
L 254.93 367.768377 
L 255.995307 367.083101 
L 257.060614 366.15531 
L 258.12592 364.96314 
L 259.191227 363.490976 
L 260.611636 361.077259 
L 262.032045 358.144928 
L 263.452455 354.708817 
L 265.227966 349.759808 
L 267.35858 343.014802 
L 269.844295 334.35655 
L 273.395318 321.88222 
L 275.17083 316.522764 
L 276.591239 312.942396 
L 277.656545 310.737491 
L 278.721852 308.974532 
L 279.787159 307.666454 
L 280.852466 306.813893 
L 281.56267 306.517235 
L 282.272875 306.446372 
L 282.98308 306.593831 
L 283.693284 306.951285 
L 284.403489 307.50955 
L 285.468795 308.701267 
L 286.534102 310.284517 
L 287.954511 312.931637 
L 289.37492 316.088795 
L 291.505534 321.504004 
L 295.411659 332.303604 
L 299.317784 342.909285 
L 301.8035 349.034266 
L 303.934114 353.739471 
L 306.064727 357.878584 
L 307.840239 360.854324 
L 309.61575 363.367474 
L 311.036159 365.026847 
L 312.456568 366.360765 
L 313.876977 367.358323 
L 314.942284 367.879934 
L 316.007591 368.203357 
L 317.072898 368.325444 
L 318.138205 368.243557 
L 319.203511 367.962589 
L 320.268818 367.467918 
L 321.334125 366.736795 
L 322.399432 365.751122 
L 323.464739 364.497446 
L 324.885148 362.394441 
L 326.305557 359.791859 
L 327.725966 356.696377 
L 329.501477 352.167834 
L 331.276989 346.977606 
L 333.407602 340.019858 
L 339.444341 319.424074 
L 340.86475 315.450781 
L 342.285159 312.10318 
L 343.350466 310.061503 
L 344.415773 308.457174 
L 345.125977 307.658125 
L 345.836182 307.091152 
L 346.546386 306.75105 
L 347.256591 306.631852 
L 347.966795 306.726829 
L 348.677 307.028491 
L 349.387205 307.528589 
L 350.452511 308.630879 
L 351.517818 310.125564 
L 352.583125 311.975165 
L 354.003534 314.921389 
L 355.779045 319.220831 
L 358.264761 325.928901 
L 364.656602 343.541118 
L 367.142318 349.63381 
L 369.272932 354.302111 
L 371.403545 358.392831 
L 373.179057 361.315942 
L 374.954568 363.765586 
L 376.374977 365.368013 
L 377.795386 366.642028 
L 379.215795 367.580001 
L 380.281102 368.059618 
L 381.346409 368.345665 
L 382.411716 368.435461 
L 383.477023 368.317005 
L 384.54233 367.977536 
L 385.607636 367.40582 
L 386.672943 366.592045 
L 387.73825 365.52783 
L 388.803557 364.206216 
L 390.223966 362.034313 
L 391.644375 359.385978 
L 393.064784 356.256553 
L 393.419886 355.39891 
L 393.419886 355.39891 
" clip-path="url(#pdd54e2bc46)" style="fill: none; stroke: #ff7f0e; stroke-width: 1.5; stroke-linecap: square"/>
   </g>
   <g id="patch_3">
    <path d="M 20.5625 386.165367 
L 20.5625 9.262244 
" style="fill: none; stroke: #000000; stroke-width: 0.8; stroke-linejoin: miter; stroke-linecap: square"/>
   </g>
   <g id="patch_4">
    <path d="M 411.175 386.165367 
L 411.175 9.262244 
" style="fill: none; stroke: #000000; stroke-width: 0.8; stroke-linejoin: miter; stroke-linecap: square"/>
   </g>
   <g id="patch_5">
    <path d="M 20.5625 386.165367 
L 411.175 386.165367 
" style="fill: none; stroke: #000000; stroke-width: 0.8; stroke-linejoin: miter; stroke-linecap: square"/>
   </g>
   <g id="patch_6">
    <path d="M 20.5625 9.262244 
L 411.175 9.262244 
" style="fill: none; stroke: #000000; stroke-width: 0.8; stroke-linejoin: miter; stroke-linecap: square"/>
   </g>
   <g id="legend_1">
    <g id="patch_7">
     <path d="M 334.71875 46.618494 
L 404.175 46.618494 
Q 406.175 46.618494 406.175 44.618494 
L 406.175 16.262244 
Q 406.175 14.262244 404.175 14.262244 
L 334.71875 14.262244 
Q 332.71875 14.262244 332.71875 16.262244 
L 332.71875 44.618494 
Q 332.71875 46.618494 334.71875 46.618494 
z
" style="fill: #ffffff; opacity: 0.8; stroke: #cccccc; stroke-linejoin: miter"/>
    </g>
    <g id="line2d_16">
     <path d="M 336.71875 22.360682 
L 346.71875 22.360682 
L 356.71875 22.360682 
" style="fill: none; stroke: #1f77b4; stroke-width: 1.5; stroke-linecap: square"/>
    </g>
    <g id="text_15">
     <!-- Rabbits -->
     <g transform="translate(364.71875 25.860682)scale(0.1 -0.1)">
      <defs>
       <path id="DejaVuSans-52" d="M 2841 2188 
Q 3044 2119 3236 1894 
Q 3428 1669 3622 1275 
L 4263 0 
L 3584 0 
L 2988 1197 
Q 2756 1666 2539 1819 
Q 2322 1972 1947 1972 
L 1259 1972 
L 1259 0 
L 628 0 
L 628 4666 
L 2053 4666 
Q 2853 4666 3247 4331 
Q 3641 3997 3641 3322 
Q 3641 2881 3436 2590 
Q 3231 2300 2841 2188 
z
M 1259 4147 
L 1259 2491 
L 2053 2491 
Q 2509 2491 2742 2702 
Q 2975 2913 2975 3322 
Q 2975 3731 2742 3939 
Q 2509 4147 2053 4147 
L 1259 4147 
z
" transform="scale(0.015625)"/>
       <path id="DejaVuSans-61" d="M 2194 1759 
Q 1497 1759 1228 1600 
Q 959 1441 959 1056 
Q 959 750 1161 570 
Q 1363 391 1709 391 
Q 2188 391 2477 730 
Q 2766 1069 2766 1631 
L 2766 1759 
L 2194 1759 
z
M 3341 1997 
L 3341 0 
L 2766 0 
L 2766 531 
Q 2569 213 2275 61 
Q 1981 -91 1556 -91 
Q 1019 -91 701 211 
Q 384 513 384 1019 
Q 384 1609 779 1909 
Q 1175 2209 1959 2209 
L 2766 2209 
L 2766 2266 
Q 2766 2663 2505 2880 
Q 2244 3097 1772 3097 
Q 1472 3097 1187 3025 
Q 903 2953 641 2809 
L 641 3341 
Q 956 3463 1253 3523 
Q 1550 3584 1831 3584 
Q 2591 3584 2966 3190 
Q 3341 2797 3341 1997 
z
" transform="scale(0.015625)"/>
       <path id="DejaVuSans-62" d="M 3116 1747 
Q 3116 2381 2855 2742 
Q 2594 3103 2138 3103 
Q 1681 3103 1420 2742 
Q 1159 2381 1159 1747 
Q 1159 1113 1420 752 
Q 1681 391 2138 391 
Q 2594 391 2855 752 
Q 3116 1113 3116 1747 
z
M 1159 2969 
Q 1341 3281 1617 3432 
Q 1894 3584 2278 3584 
Q 2916 3584 3314 3078 
Q 3713 2572 3713 1747 
Q 3713 922 3314 415 
Q 2916 -91 2278 -91 
Q 1894 -91 1617 61 
Q 1341 213 1159 525 
L 1159 0 
L 581 0 
L 581 4863 
L 1159 4863 
L 1159 2969 
z
" transform="scale(0.015625)"/>
       <path id="DejaVuSans-74" d="M 1172 4494 
L 1172 3500 
L 2356 3500 
L 2356 3053 
L 1172 3053 
L 1172 1153 
Q 1172 725 1289 603 
Q 1406 481 1766 481 
L 2356 481 
L 2356 0 
L 1766 0 
Q 1100 0 847 248 
Q 594 497 594 1153 
L 594 3053 
L 172 3053 
L 172 3500 
L 594 3500 
L 594 4494 
L 1172 4494 
z
" transform="scale(0.015625)"/>
       <path id="DejaVuSans-73" d="M 2834 3397 
L 2834 2853 
Q 2591 2978 2328 3040 
Q 2066 3103 1784 3103 
Q 1356 3103 1142 2972 
Q 928 2841 928 2578 
Q 928 2378 1081 2264 
Q 1234 2150 1697 2047 
L 1894 2003 
Q 2506 1872 2764 1633 
Q 3022 1394 3022 966 
Q 3022 478 2636 193 
Q 2250 -91 1575 -91 
Q 1294 -91 989 -36 
Q 684 19 347 128 
L 347 722 
Q 666 556 975 473 
Q 1284 391 1588 391 
Q 1994 391 2212 530 
Q 2431 669 2431 922 
Q 2431 1156 2273 1281 
Q 2116 1406 1581 1522 
L 1381 1569 
Q 847 1681 609 1914 
Q 372 2147 372 2553 
Q 372 3047 722 3315 
Q 1072 3584 1716 3584 
Q 2034 3584 2315 3537 
Q 2597 3491 2834 3397 
z
" transform="scale(0.015625)"/>
      </defs>
      <use xlink:href="#DejaVuSans-52"/>
      <use xlink:href="#DejaVuSans-61" x="67.232422"/>
      <use xlink:href="#DejaVuSans-62" x="128.511719"/>
      <use xlink:href="#DejaVuSans-62" x="191.988281"/>
      <use xlink:href="#DejaVuSans-69" x="255.464844"/>
      <use xlink:href="#DejaVuSans-74" x="283.248047"/>
      <use xlink:href="#DejaVuSans-73" x="322.457031"/>
     </g>
    </g>
    <g id="line2d_17">
     <path d="M 336.71875 37.038807 
L 346.71875 37.038807 
L 356.71875 37.038807 
" style="fill: none; stroke: #ff7f0e; stroke-width: 1.5; stroke-linecap: square"/>
    </g>
    <g id="text_16">
     <!-- Foxes -->
     <g transform="translate(364.71875 40.538807)scale(0.1 -0.1)">
      <defs>
       <path id="DejaVuSans-46" d="M 628 4666 
L 3309 4666 
L 3309 4134 
L 1259 4134 
L 1259 2759 
L 3109 2759 
L 3109 2228 
L 1259 2228 
L 1259 0 
L 628 0 
L 628 4666 
z
" transform="scale(0.015625)"/>
       <path id="DejaVuSans-6f" d="M 1959 3097 
Q 1497 3097 1228 2736 
Q 959 2375 959 1747 
Q 959 1119 1226 758 
Q 1494 397 1959 397 
Q 2419 397 2687 759 
Q 2956 1122 2956 1747 
Q 2956 2369 2687 2733 
Q 2419 3097 1959 3097 
z
M 1959 3584 
Q 2709 3584 3137 3096 
Q 3566 2609 3566 1747 
Q 3566 888 3137 398 
Q 2709 -91 1959 -91 
Q 1206 -91 779 398 
Q 353 888 353 1747 
Q 353 2609 779 3096 
Q 1206 3584 1959 3584 
z
" transform="scale(0.015625)"/>
       <path id="DejaVuSans-78" d="M 3513 3500 
L 2247 1797 
L 3578 0 
L 2900 0 
L 1881 1375 
L 863 0 
L 184 0 
L 1544 1831 
L 300 3500 
L 978 3500 
L 1906 2253 
L 2834 3500 
L 3513 3500 
z
" transform="scale(0.015625)"/>
      </defs>
      <use xlink:href="#DejaVuSans-46"/>
      <use xlink:href="#DejaVuSans-6f" x="53.894531"/>
      <use xlink:href="#DejaVuSans-78" x="111.951172"/>
      <use xlink:href="#DejaVuSans-65" x="168.005859"/>
      <use xlink:href="#DejaVuSans-73" x="229.529297"/>
     </g>
    </g>
   </g>
  </g>
  <g id="axes_2">
   <g id="patch_8">
    <path d="M 458.975 386.165367 
L 849.5875 386.165367 
L 849.5875 9.262244 
L 458.975 9.262244 
z
" style="fill: #ffffff"/>
   </g>
   <g id="matplotlib.axis_3">
    <g id="xtick_7">
     <g id="line2d_18">
      <g>
       <use xlink:href="#md6469db508" x="478.661491" y="386.165367" style="stroke: #000000; stroke-width: 0.8"/>
      </g>
     </g>
     <g id="text_17">
      <!-- 4 -->
      <g transform="translate(475.480241 400.763804)scale(0.1 -0.1)">
       <use xlink:href="#DejaVuSans-34"/>
      </g>
     </g>
    </g>
    <g id="xtick_8">
     <g id="line2d_19">
      <g>
       <use xlink:href="#md6469db508" x="555.306825" y="386.165367" style="stroke: #000000; stroke-width: 0.8"/>
      </g>
     </g>
     <g id="text_18">
      <!-- 5 -->
      <g transform="translate(552.125575 400.763804)scale(0.1 -0.1)">
       <use xlink:href="#DejaVuSans-35"/>
      </g>
     </g>
    </g>
    <g id="xtick_9">
     <g id="line2d_20">
      <g>
       <use xlink:href="#md6469db508" x="631.95216" y="386.165367" style="stroke: #000000; stroke-width: 0.8"/>
      </g>
     </g>
     <g id="text_19">
      <!-- 6 -->
      <g transform="translate(628.77091 400.763804)scale(0.1 -0.1)">
       <use xlink:href="#DejaVuSans-36"/>
      </g>
     </g>
    </g>
    <g id="xtick_10">
     <g id="line2d_21">
      <g>
       <use xlink:href="#md6469db508" x="708.597494" y="386.165367" style="stroke: #000000; stroke-width: 0.8"/>
      </g>
     </g>
     <g id="text_20">
      <!-- 7 -->
      <g transform="translate(705.416244 400.763804)scale(0.1 -0.1)">
       <use xlink:href="#DejaVuSans-37"/>
      </g>
     </g>
    </g>
    <g id="xtick_11">
     <g id="line2d_22">
      <g>
       <use xlink:href="#md6469db508" x="785.242828" y="386.165367" style="stroke: #000000; stroke-width: 0.8"/>
      </g>
     </g>
     <g id="text_21">
      <!-- 8 -->
      <g transform="translate(782.061578 400.763804)scale(0.1 -0.1)">
       <use xlink:href="#DejaVuSans-38"/>
      </g>
     </g>
    </g>
    <g id="text_22">
     <!-- Rabbit population -->
     <g transform="translate(609.961719 414.441929)scale(0.1 -0.1)">
      <defs>
       <path id="DejaVuSans-20" transform="scale(0.015625)"/>
       <path id="DejaVuSans-70" d="M 1159 525 
L 1159 -1331 
L 581 -1331 
L 581 3500 
L 1159 3500 
L 1159 2969 
Q 1341 3281 1617 3432 
Q 1894 3584 2278 3584 
Q 2916 3584 3314 3078 
Q 3713 2572 3713 1747 
Q 3713 922 3314 415 
Q 2916 -91 2278 -91 
Q 1894 -91 1617 61 
Q 1341 213 1159 525 
z
M 3116 1747 
Q 3116 2381 2855 2742 
Q 2594 3103 2138 3103 
Q 1681 3103 1420 2742 
Q 1159 2381 1159 1747 
Q 1159 1113 1420 752 
Q 1681 391 2138 391 
Q 2594 391 2855 752 
Q 3116 1113 3116 1747 
z
" transform="scale(0.015625)"/>
       <path id="DejaVuSans-75" d="M 544 1381 
L 544 3500 
L 1119 3500 
L 1119 1403 
Q 1119 906 1312 657 
Q 1506 409 1894 409 
Q 2359 409 2629 706 
Q 2900 1003 2900 1516 
L 2900 3500 
L 3475 3500 
L 3475 0 
L 2900 0 
L 2900 538 
Q 2691 219 2414 64 
Q 2138 -91 1772 -91 
Q 1169 -91 856 284 
Q 544 659 544 1381 
z
M 1991 3584 
L 1991 3584 
z
" transform="scale(0.015625)"/>
       <path id="DejaVuSans-6c" d="M 603 4863 
L 1178 4863 
L 1178 0 
L 603 0 
L 603 4863 
z
" transform="scale(0.015625)"/>
       <path id="DejaVuSans-6e" d="M 3513 2113 
L 3513 0 
L 2938 0 
L 2938 2094 
Q 2938 2591 2744 2837 
Q 2550 3084 2163 3084 
Q 1697 3084 1428 2787 
Q 1159 2491 1159 1978 
L 1159 0 
L 581 0 
L 581 3500 
L 1159 3500 
L 1159 2956 
Q 1366 3272 1645 3428 
Q 1925 3584 2291 3584 
Q 2894 3584 3203 3211 
Q 3513 2838 3513 2113 
z
" transform="scale(0.015625)"/>
      </defs>
      <use xlink:href="#DejaVuSans-52"/>
      <use xlink:href="#DejaVuSans-61" x="67.232422"/>
      <use xlink:href="#DejaVuSans-62" x="128.511719"/>
      <use xlink:href="#DejaVuSans-62" x="191.988281"/>
      <use xlink:href="#DejaVuSans-69" x="255.464844"/>
      <use xlink:href="#DejaVuSans-74" x="283.248047"/>
      <use xlink:href="#DejaVuSans-20" x="322.457031"/>
      <use xlink:href="#DejaVuSans-70" x="354.244141"/>
      <use xlink:href="#DejaVuSans-6f" x="417.720703"/>
      <use xlink:href="#DejaVuSans-70" x="478.902344"/>
      <use xlink:href="#DejaVuSans-75" x="542.378906"/>
      <use xlink:href="#DejaVuSans-6c" x="605.757812"/>
      <use xlink:href="#DejaVuSans-61" x="633.541016"/>
      <use xlink:href="#DejaVuSans-74" x="694.820312"/>
      <use xlink:href="#DejaVuSans-69" x="734.029297"/>
      <use xlink:href="#DejaVuSans-6f" x="761.8125"/>
      <use xlink:href="#DejaVuSans-6e" x="822.994141"/>
     </g>
    </g>
   </g>
   <g id="matplotlib.axis_4">
    <g id="ytick_8">
     <g id="line2d_23">
      <g>
       <use xlink:href="#m7bc7fd6be0" x="458.975" y="370.127172" style="stroke: #000000; stroke-width: 0.8"/>
      </g>
     </g>
     <g id="text_23">
      <!-- 1.4 -->
      <g transform="translate(436.071875 373.926391)scale(0.1 -0.1)">
       <defs>
        <path id="DejaVuSans-2e" d="M 684 794 
L 1344 794 
L 1344 0 
L 684 0 
L 684 794 
z
" transform="scale(0.015625)"/>
       </defs>
       <use xlink:href="#DejaVuSans-31"/>
       <use xlink:href="#DejaVuSans-2e" x="63.623047"/>
       <use xlink:href="#DejaVuSans-34" x="95.410156"/>
      </g>
     </g>
    </g>
    <g id="ytick_9">
     <g id="line2d_24">
      <g>
       <use xlink:href="#m7bc7fd6be0" x="458.975" y="318.823179" style="stroke: #000000; stroke-width: 0.8"/>
      </g>
     </g>
     <g id="text_24">
      <!-- 1.6 -->
      <g transform="translate(436.071875 322.622398)scale(0.1 -0.1)">
       <use xlink:href="#DejaVuSans-31"/>
       <use xlink:href="#DejaVuSans-2e" x="63.623047"/>
       <use xlink:href="#DejaVuSans-36" x="95.410156"/>
      </g>
     </g>
    </g>
    <g id="ytick_10">
     <g id="line2d_25">
      <g>
       <use xlink:href="#m7bc7fd6be0" x="458.975" y="267.519186" style="stroke: #000000; stroke-width: 0.8"/>
      </g>
     </g>
     <g id="text_25">
      <!-- 1.8 -->
      <g transform="translate(436.071875 271.318404)scale(0.1 -0.1)">
       <use xlink:href="#DejaVuSans-31"/>
       <use xlink:href="#DejaVuSans-2e" x="63.623047"/>
       <use xlink:href="#DejaVuSans-38" x="95.410156"/>
      </g>
     </g>
    </g>
    <g id="ytick_11">
     <g id="line2d_26">
      <g>
       <use xlink:href="#m7bc7fd6be0" x="458.975" y="216.215192" style="stroke: #000000; stroke-width: 0.8"/>
      </g>
     </g>
     <g id="text_26">
      <!-- 2.0 -->
      <g transform="translate(436.071875 220.014411)scale(0.1 -0.1)">
       <use xlink:href="#DejaVuSans-32"/>
       <use xlink:href="#DejaVuSans-2e" x="63.623047"/>
       <use xlink:href="#DejaVuSans-30" x="95.410156"/>
      </g>
     </g>
    </g>
    <g id="ytick_12">
     <g id="line2d_27">
      <g>
       <use xlink:href="#m7bc7fd6be0" x="458.975" y="164.911199" style="stroke: #000000; stroke-width: 0.8"/>
      </g>
     </g>
     <g id="text_27">
      <!-- 2.2 -->
      <g transform="translate(436.071875 168.710418)scale(0.1 -0.1)">
       <use xlink:href="#DejaVuSans-32"/>
       <use xlink:href="#DejaVuSans-2e" x="63.623047"/>
       <use xlink:href="#DejaVuSans-32" x="95.410156"/>
      </g>
     </g>
    </g>
    <g id="ytick_13">
     <g id="line2d_28">
      <g>
       <use xlink:href="#m7bc7fd6be0" x="458.975" y="113.607206" style="stroke: #000000; stroke-width: 0.8"/>
      </g>
     </g>
     <g id="text_28">
      <!-- 2.4 -->
      <g transform="translate(436.071875 117.406424)scale(0.1 -0.1)">
       <use xlink:href="#DejaVuSans-32"/>
       <use xlink:href="#DejaVuSans-2e" x="63.623047"/>
       <use xlink:href="#DejaVuSans-34" x="95.410156"/>
      </g>
     </g>
    </g>
    <g id="ytick_14">
     <g id="line2d_29">
      <g>
       <use xlink:href="#m7bc7fd6be0" x="458.975" y="62.303212" style="stroke: #000000; stroke-width: 0.8"/>
      </g>
     </g>
     <g id="text_29">
      <!-- 2.6 -->
      <g transform="translate(436.071875 66.102431)scale(0.1 -0.1)">
       <use xlink:href="#DejaVuSans-32"/>
       <use xlink:href="#DejaVuSans-2e" x="63.623047"/>
       <use xlink:href="#DejaVuSans-36" x="95.410156"/>
      </g>
     </g>
    </g>
    <g id="ytick_15">
     <g id="line2d_30">
      <g>
       <use xlink:href="#m7bc7fd6be0" x="458.975" y="10.999219" style="stroke: #000000; stroke-width: 0.8"/>
      </g>
     </g>
     <g id="text_30">
      <!-- 2.8 -->
      <g transform="translate(436.071875 14.798437)scale(0.1 -0.1)">
       <use xlink:href="#DejaVuSans-32"/>
       <use xlink:href="#DejaVuSans-2e" x="63.623047"/>
       <use xlink:href="#DejaVuSans-38" x="95.410156"/>
      </g>
     </g>
    </g>
    <g id="text_31">
     <!-- Foxes population -->
     <g transform="translate(429.992188 239.99193)rotate(-90)scale(0.1 -0.1)">
      <use xlink:href="#DejaVuSans-46"/>
      <use xlink:href="#DejaVuSans-6f" x="53.894531"/>
      <use xlink:href="#DejaVuSans-78" x="111.951172"/>
      <use xlink:href="#DejaVuSans-65" x="168.005859"/>
      <use xlink:href="#DejaVuSans-73" x="229.529297"/>
      <use xlink:href="#DejaVuSans-20" x="281.628906"/>
      <use xlink:href="#DejaVuSans-70" x="313.416016"/>
      <use xlink:href="#DejaVuSans-6f" x="376.892578"/>
      <use xlink:href="#DejaVuSans-70" x="438.074219"/>
      <use xlink:href="#DejaVuSans-75" x="501.550781"/>
      <use xlink:href="#DejaVuSans-6c" x="564.929688"/>
      <use xlink:href="#DejaVuSans-61" x="592.712891"/>
      <use xlink:href="#DejaVuSans-74" x="653.992188"/>
      <use xlink:href="#DejaVuSans-69" x="693.201172"/>
      <use xlink:href="#DejaVuSans-6f" x="720.984375"/>
      <use xlink:href="#DejaVuSans-6e" x="782.166016"/>
     </g>
    </g>
   </g>
   <g id="line2d_31">
    <path d="M 478.661491 216.215192 
L 478.722604 221.319346 
L 478.905158 226.368725 
L 479.208022 231.360034 
L 479.630121 236.290148 
L 480.170439 241.156112 
L 480.828015 245.955141 
L 481.601949 250.684621 
L 482.491397 255.34211 
L 483.493027 259.926242 
L 484.603507 264.436092 
L 485.823313 268.869612 
L 487.152871 273.224802 
L 488.592542 277.499714 
L 490.14262 281.692456 
L 491.803335 285.801188 
L 493.574849 289.824125 
L 495.457261 293.759537 
L 497.450603 297.605744 
L 499.554839 301.361125 
L 501.769872 305.024108 
L 504.095534 308.593179 
L 506.531595 312.066874 
L 509.077757 315.443787 
L 511.733658 318.722562 
L 514.49887 321.901899 
L 517.372897 324.980551 
L 520.35518 327.957326 
L 523.445093 330.831085 
L 526.641944 333.600743 
L 529.944976 336.265268 
L 533.353365 338.823684 
L 536.866223 341.275067 
L 540.482595 343.618546 
L 544.201461 345.853308 
L 548.021733 347.978589 
L 551.94226 349.993682 
L 555.961825 351.897933 
L 560.079143 353.69074 
L 564.292866 355.371559 
L 568.601578 356.939897 
L 573.003799 358.395313 
L 577.497981 359.737425 
L 582.082512 360.965901 
L 586.755715 362.080463 
L 591.515845 363.08089 
L 596.361093 363.96701 
L 601.289582 364.738709 
L 606.299373 365.395925 
L 611.388457 365.93865 
L 616.554817 366.367708 
L 621.795839 366.682999 
L 627.108023 366.880911 
L 632.487574 366.957866 
L 637.930413 366.910436 
L 643.432183 366.735336 
L 648.988243 366.429431 
L 654.593673 365.989733 
L 660.243268 365.413401 
L 665.931546 364.697743 
L 671.65274 363.840212 
L 677.400805 362.838409 
L 683.169411 361.690085 
L 688.95195 360.393136 
L 694.741531 358.945604 
L 700.530982 357.345682 
L 706.312848 355.591709 
L 712.079396 353.68217 
L 717.822608 351.615699 
L 723.534188 349.391077 
L 729.205557 347.007232 
L 734.827854 344.46324 
L 740.391938 341.758325 
L 745.888386 338.891857 
L 751.307493 335.863354 
L 756.639274 332.672482 
L 761.873462 329.319053 
L 766.999508 325.803028 
L 772.006583 322.124514 
L 776.883577 318.283768 
L 781.619095 314.28119 
L 786.201465 310.117332 
L 790.618732 305.792891 
L 794.858659 301.308712 
L 798.908729 296.665786 
L 802.756142 291.865254 
L 806.387817 286.908403 
L 809.790394 281.796667 
L 812.950229 276.531628 
L 815.853396 271.115016 
L 818.485691 265.548707 
L 820.833953 259.833139 
L 822.893069 253.964414 
L 824.654746 247.951451 
L 826.110579 241.805182 
L 827.253126 235.536706 
L 828.075912 229.15729 
L 828.573425 222.678369 
L 828.741119 216.111545 
L 828.57541 209.468589 
L 828.073681 202.761439 
L 827.234279 196.002201 
L 826.056514 189.203148 
L 824.540664 182.376722 
L 822.687967 175.535532 
L 820.50063 168.692355 
L 817.981822 161.860136 
L 815.135677 155.051987 
L 811.967293 148.281189 
L 808.482735 141.561189 
L 804.689029 134.905604 
L 800.594169 128.328217 
L 796.20711 121.842979 
L 791.537776 115.46401 
L 786.597052 109.205597 
L 781.396789 103.082194 
L 775.949802 97.108424 
L 770.269871 91.299077 
L 764.371741 85.669111 
L 758.271119 80.233652 
L 751.984681 75.007994 
L 745.530065 70.007597 
L 738.926273 65.248372 
L 732.217561 60.762066 
L 725.430567 56.563858 
L 718.574226 52.655504 
L 711.65761 49.038516 
L 704.689934 45.714158 
L 697.68055 42.683448 
L 690.63895 39.947155 
L 683.574766 37.505805 
L 676.497768 35.359675 
L 669.417867 33.508795 
L 662.345113 31.952948 
L 655.289694 30.691672 
L 648.26194 29.724257 
L 641.272318 29.049747 
L 634.331436 28.666937 
L 627.45004 28.574379 
L 620.639017 28.770376 
L 613.909392 29.252983 
L 607.27233 30.020011 
L 600.739136 31.069022 
L 594.321253 32.397333 
L 588.030265 34.002014 
L 581.877895 35.879887 
L 575.876004 38.027527 
L 570.036594 40.441265 
L 564.371806 43.117182 
L 558.893921 46.051115 
L 553.615357 49.238651 
L 548.548674 52.675135 
L 543.706571 56.35566 
L 539.101885 60.275076 
L 534.716984 64.406273 
L 530.488136 68.691299 
L 526.415193 73.119372 
L 522.500577 77.681857 
L 518.746424 82.370203 
L 515.154589 87.17595 
L 511.726644 92.090725 
L 508.463879 97.106241 
L 505.3673 102.214302 
L 502.437634 107.406798 
L 499.675321 112.675707 
L 497.080522 118.013094 
L 494.653113 123.411115 
L 492.392689 128.862009 
L 490.298562 134.358107 
L 488.369761 139.891826 
L 486.605034 145.455672 
L 485.002844 151.042236 
L 483.561374 156.644201 
L 482.278523 162.254334 
L 481.151908 167.865493 
L 480.178863 173.470622 
L 479.35644 179.062753 
L 478.681408 184.635005 
L 478.150253 190.180588 
L 477.759181 195.692796 
L 477.504112 201.165014 
L 477.380687 206.590713 
L 477.38426 211.963451 
L 477.509907 217.276877 
L 477.75242 222.524725 
L 478.565793 232.799066 
L 479.777061 242.738113 
L 481.336538 252.29683 
L 482.261734 256.947221 
L 483.299387 261.52349 
L 484.449431 266.023519 
L 485.711772 270.445256 
L 487.086282 274.786714 
L 488.572806 279.045974 
L 490.171155 283.221181 
L 491.88111 287.310547 
L 493.702423 291.312349 
L 495.634811 295.224933 
L 497.677963 299.046707 
L 499.831538 302.776148 
L 502.095162 306.411797 
L 504.468431 309.952262 
L 506.950909 313.396216 
L 509.542131 316.7424 
L 512.2416 319.989618 
L 515.048788 323.136744 
L 517.963137 326.182714 
L 520.984057 329.126532 
L 524.110929 331.967269 
L 527.343099 334.704058 
L 530.679887 337.336103 
L 534.12058 339.862671 
L 537.664433 342.283094 
L 541.310671 344.596774 
L 545.05849 346.803176 
L 548.907052 348.90183 
L 552.85549 350.892335 
L 556.902906 352.774355 
L 561.04837 354.547618 
L 565.290922 356.21192 
L 569.629572 357.767123 
L 574.063297 359.213154 
L 578.591044 360.550007 
L 583.209326 361.777604 
L 587.912195 362.894522 
L 592.698945 363.898579 
L 597.568725 364.787625 
L 602.52034 365.55955 
L 607.552255 366.21228 
L 612.662593 366.743779 
L 617.849135 367.15205 
L 623.109321 367.435133 
L 628.440249 367.591109 
L 633.838674 367.618094 
L 639.301011 367.514243 
L 644.823332 367.27775 
L 650.401368 366.906847 
L 656.030508 366.399803 
L 661.7058 365.754927 
L 667.421949 364.970565 
L 673.173319 364.0451 
L 678.953932 362.976956 
L 684.757469 361.764593 
L 690.577268 360.406509 
L 696.406326 358.901242 
L 702.2373 357.247367 
L 708.062501 355.443497 
L 713.873902 353.488283 
L 719.663133 351.380416 
L 725.421483 349.118621 
L 731.139897 346.701667 
L 736.808981 344.128355 
L 742.418999 341.39753 
L 747.95987 338.50807 
L 753.421176 335.458895 
L 758.792154 332.24896 
L 764.0617 328.877262 
L 769.218369 325.342832 
L 774.250374 321.644743 
L 779.145585 317.782102 
L 783.891533 313.754058 
L 788.475404 309.559796 
L 792.884044 305.19854 
L 797.103958 300.669552 
L 801.121326 295.972135 
L 804.934643 291.109192 
L 808.538183 286.084901 
L 811.915102 280.901626 
L 815.049646 275.562346 
L 817.927152 270.070653 
L 820.534046 264.430751 
L 822.857843 258.647461 
L 824.887152 252.726216 
L 826.611669 246.673062 
L 828.02218 240.49466 
L 829.110562 234.198285 
L 829.869782 227.791826 
L 830.293898 221.283785 
L 830.378057 214.683277 
L 830.118495 208.000033 
L 829.512541 201.244396 
L 828.558612 194.427324 
L 827.256216 187.560388 
L 825.60595 180.655773 
L 823.609502 173.726278 
L 821.269651 166.785316 
L 818.590264 159.846914 
L 815.576299 152.925711 
L 812.233805 146.036962 
L 808.56992 139.196535 
L 804.592873 132.420911 
L 800.311983 125.727187 
L 795.737657 119.133071 
L 790.881395 112.656887 
L 785.755786 106.317571 
L 780.374508 100.134676 
L 774.755193 94.129297 
L 768.937712 88.326787 
L 762.938913 82.738827 
L 756.769289 77.37398 
L 750.439614 72.240422 
L 743.960945 67.345944 
L 737.344618 62.697948 
L 730.602252 58.303453 
L 723.745748 54.169087 
L 716.787288 50.301094 
L 709.739334 46.705331 
L 702.614633 43.387268 
L 695.426211 40.351988 
L 688.187376 37.604189 
L 680.911718 35.14818 
L 673.613107 32.987886 
L 666.305697 31.126842 
L 659.003922 29.5682 
L 651.722498 28.314723 
L 644.476422 27.368788 
L 637.280974 26.732385 
L 630.151713 26.407118 
L 623.104483 26.394204 
L 616.155405 26.694474 
L 609.320887 27.308371 
L 602.617613 28.235952 
L 596.062553 29.476888 
L 589.672957 31.030463 
L 583.466355 32.895573 
L 577.460561 35.07073 
L 571.673669 37.554057 
L 566.124055 40.343292 
L 560.798399 43.411895 
L 555.633875 46.69825 
L 550.630848 50.190202 
L 545.792121 53.877778 
L 541.120149 57.751065 
L 536.617043 61.800211 
L 532.284562 66.015424 
L 528.124121 70.386975 
L 524.136784 74.905191 
L 520.323269 79.560463 
L 516.683946 84.343242 
L 513.218838 89.244037 
L 509.92762 94.25342 
L 506.809617 99.362023 
L 503.863809 104.560537 
L 501.088828 109.839716 
L 498.482957 115.190372 
L 496.044133 120.603378 
L 493.769943 126.06967 
L 491.657628 131.58024 
L 489.704081 137.126144 
L 487.905846 142.698497 
L 486.259122 148.288475 
L 484.759758 153.887313 
L 483.403255 159.486309 
L 482.184768 165.07682 
L 481.099104 170.650263 
L 480.14072 176.198116 
L 478.581893 187.183265 
L 477.469579 197.976913 
L 477.097527 203.311748 
L 476.851404 208.604282 
L 476.730114 213.850565 
L 476.73259 219.046796 
L 476.8578 224.189321 
L 477.104739 229.274636 
L 477.472436 234.299386 
L 477.959948 239.260365 
L 478.566365 244.154515 
L 479.290806 248.978925 
L 480.132424 253.730835 
L 481.0904 258.407634 
L 482.163947 263.006858 
L 483.352308 267.526192 
L 484.654759 271.963471 
L 486.070605 276.316677 
L 487.599182 280.583941 
L 489.239857 284.763544 
L 490.99203 288.853915 
L 492.855128 292.853631 
L 494.828612 296.761418 
L 496.911974 300.576151 
L 499.104733 304.296853 
L 501.406445 307.922698 
L 503.816691 311.453004 
L 506.335086 314.887244 
L 508.961277 318.225033 
L 511.694938 321.46614 
L 514.535778 324.61048 
L 517.483482 327.658101 
L 520.532258 330.607023 
L 523.679481 333.455219 
L 526.926675 336.201839 
L 530.27513 338.846011 
L 533.725902 341.386838 
L 537.279816 343.8234 
L 540.937463 346.154752 
L 544.699202 348.379929 
L 548.565157 350.497938 
L 552.535222 352.507766 
L 556.609055 354.408376 
L 560.786084 356.198704 
L 565.065502 357.877667 
L 569.446271 359.444156 
L 573.927117 360.897039 
L 578.506536 362.23516 
L 583.182791 363.45734 
L 587.953909 364.562377 
L 592.817687 365.549044 
L 597.771689 366.416091 
L 602.813245 367.162245 
L 607.939452 367.78621 
L 613.147175 368.286664 
L 618.433046 368.662264 
L 623.793462 368.911642 
L 629.224591 369.033407 
L 634.722364 369.026144 
L 640.282482 368.888416 
L 645.900411 368.618761 
L 651.571386 368.215692 
L 657.290407 367.677703 
L 663.052244 367.003259 
L 668.851431 366.190806 
L 674.68227 365.238763 
L 680.538832 364.145528 
L 686.414953 362.909474 
L 692.304235 361.528952 
L 698.200051 360.002287 
L 704.095537 358.327782 
L 709.983599 356.503716 
L 715.856909 354.528346 
L 721.714401 352.404759 
L 727.565795 350.144647 
L 733.396067 347.741925 
L 739.188647 345.189727 
L 744.927365 342.48185 
L 750.596455 339.612751 
L 756.180555 336.57755 
L 761.6647 333.372027 
L 767.034333 329.992623 
L 772.275295 326.436442 
L 777.373832 322.70125 
L 782.316589 318.78547 
L 787.090616 314.688193 
L 791.683364 310.409166 
L 796.082687 305.948799 
L 800.276839 301.308166 
L 804.254479 296.488998 
L 808.004667 291.49369 
L 811.516864 286.3253 
L 814.780935 280.987543 
L 817.787146 275.484799 
L 820.526166 269.822109 
L 822.989066 264.005174 
L 825.167317 258.040356 
L 827.052797 251.934682 
L 828.637781 245.695837 
L 829.914949 239.332168 
L 830.877383 232.852683 
L 831.518567 226.267055 
L 831.832386 219.585613 
L 831.813129 212.819352 
L 831.455486 205.979925 
L 830.75455 199.079648 
L 829.705815 192.1315 
L 828.305177 185.149119 
L 826.548937 178.146804 
L 824.432565 171.137827 
L 821.927554 164.097978 
L 819.037733 157.035397 
L 815.782536 149.977199 
L 812.181085 142.949353 
L 808.252189 135.976681 
L 804.014341 129.082857 
L 799.485725 122.290408 
L 794.68421 115.620715 
L 789.627351 109.094009 
L 784.332391 102.729377 
L 778.81626 96.544757 
L 773.095574 90.556939 
L 767.186635 84.781568 
L 761.105435 79.23314 
L 754.86765 73.925005 
L 748.488645 68.869365 
L 741.983468 64.077275 
L 735.366859 59.558643 
L 728.653242 55.322229 
L 721.856727 51.375647 
L 714.991114 47.725363 
L 708.069886 44.376696 
L 701.106216 41.333818 
L 694.112962 38.599753 
L 687.10267 36.176379 
L 680.087572 34.064426 
L 673.079588 32.263476 
L 666.090323 30.771965 
L 659.131071 29.587183 
L 652.212811 28.70527 
L 645.34621 28.121219 
L 638.541622 27.82888 
L 631.809086 27.820949 
L 625.15833 28.088982 
L 618.598769 28.623381 
L 612.139502 29.413406 
L 605.79167 30.462563 
L 599.568047 31.79217 
L 593.475902 33.395131 
L 587.521827 35.263311 
L 581.711882 37.388415 
L 576.051598 39.761991 
L 570.545973 42.37543 
L 565.199472 45.219963 
L 560.016032 48.286665 
L 554.999055 51.566453 
L 550.151415 55.050086 
L 545.475452 58.728166 
L 540.972976 62.591134 
L 536.645265 66.629278 
L 532.493066 70.832724 
L 528.516594 75.191442 
L 524.715533 79.695246 
L 521.089036 84.333789 
L 517.635724 89.096567 
L 514.353686 93.97292 
L 511.240482 98.952029 
L 508.293137 104.022916 
L 505.508148 109.174447 
L 502.881479 114.39533 
L 500.408562 119.674114 
L 498.084298 124.999191 
L 495.903059 130.358796 
L 493.858681 135.741005 
L 491.944473 141.133736 
L 490.153497 146.52508 
L 488.495677 151.922521 
L 486.978068 157.329655 
L 485.599127 162.740261 
L 484.35734 168.148329 
L 483.251221 173.548057 
L 482.279312 178.93385 
L 481.440187 184.300323 
L 480.732446 189.642299 
L 480.154718 194.954807 
L 479.705663 200.233086 
L 479.383968 205.472583 
L 479.188348 210.668953 
L 479.11755 215.818059 
L 479.170348 220.915974 
L 479.345543 225.958976 
L 479.641968 230.943553 
L 480.058483 235.866402 
L 480.593978 240.724426 
L 481.247371 245.514739 
L 482.017609 250.234661 
L 482.903668 254.88172 
L 483.904552 259.453655 
L 485.019296 263.948409 
L 486.246962 268.364138 
L 487.586641 272.699201 
L 489.037453 276.95217 
L 490.598548 281.121822 
L 492.269102 285.207144 
L 494.048324 289.20733 
L 495.93471 293.121605 
L 497.923735 296.948124 
L 500.015762 300.685485 
L 502.211881 304.332441 
L 504.513047 307.887761 
L 506.920081 311.350222 
L 509.433669 314.718612 
L 512.054361 317.991733 
L 514.782574 321.168394 
L 517.618589 324.247417 
L 520.562553 327.227636 
L 523.614478 330.107894 
L 526.77424 332.887046 
L 530.041582 335.563957 
L 533.41611 338.137506 
L 536.897298 340.606579 
L 540.484484 342.970075 
L 544.176869 345.226904 
L 547.973523 347.375987 
L 551.873378 349.416257 
L 555.875233 351.346655 
L 559.977752 353.166135 
L 564.179463 354.873663 
L 568.478761 356.468215 
L 572.873904 357.948776 
L 577.363018 359.314346 
L 581.944091 360.563932 
L 586.61498 361.696556 
L 591.373403 362.711246 
L 596.216945 363.607046 
L 601.143058 364.383009 
L 606.149057 365.038197 
L 611.232122 365.571687 
L 616.3893 365.982564 
L 621.617501 366.269924 
L 626.913503 366.432876 
L 632.273946 366.470538 
L 637.695337 366.382041 
L 643.174048 366.166524 
L 648.706316 365.823141 
L 654.288244 365.351054 
L 659.915799 364.749437 
L 671.316963 363.177556 
L 677.088762 362.211057 
L 682.894455 361.115805 
L 688.72358 359.88577 
L 694.565692 358.515335 
L 700.410356 356.999302 
L 706.247154 355.332887 
L 712.065681 353.511723 
L 717.855547 351.531859 
L 723.606373 349.38976 
L 729.307799 347.082306 
L 734.949475 344.606796 
L 740.521067 341.960941 
L 746.012255 339.142873 
L 751.412731 336.151135 
L 756.712204 332.98469 
L 761.900396 329.642915 
L 766.967042 326.125603 
L 771.901893 322.432966 
L 776.694711 318.565627 
L 781.335276 314.52463 
L 785.813379 310.311433 
L 790.118827 305.927909 
L 794.24144 301.376349 
L 798.171052 296.659459 
L 801.897511 291.780361 
L 805.410681 286.742594 
L 808.700437 281.550113 
L 811.756671 276.207288 
L 814.569286 270.718906 
L 817.128202 265.09017 
L 819.423351 259.326699 
L 821.444681 253.434527 
L 823.182151 247.420107 
L 824.625738 241.290304 
L 825.765431 235.052403 
L 826.591232 228.714102 
L 827.093159 222.283518 
L 827.261242 215.769182 
L 827.085529 209.18004 
L 826.552138 202.517943 
L 825.637572 195.757281 
L 824.348991 188.91642 
L 822.697751 182.019826 
L 820.695268 175.091091 
L 818.353021 168.152929 
L 815.682551 161.227181 
L 812.69546 154.334812 
L 809.403411 147.495911 
L 805.81813 140.729693 
L 801.951403 134.054497 
L 797.815079 127.487786 
L 793.421067 121.046149 
L 788.781338 114.745299 
L 783.907926 108.600075 
L 778.812926 102.624438 
L 773.508493 96.831476 
L 768.006844 91.233402 
L 762.32026 85.841552 
L 756.461082 80.666388 
L 750.44171 75.717496 
L 744.27461 71.003586 
L 737.972307 66.532495 
L 731.547388 62.311184 
L 725.012502 58.345736 
L 718.380359 54.641362 
L 711.663731 51.202397 
L 704.875451 48.0323 
L 698.028414 45.133655 
L 691.135577 42.508171 
L 684.209957 40.15668 
L 677.264635 38.079142 
L 670.312752 36.274639 
L 663.36751 34.741379 
L 656.444769 33.481248 
L 649.577214 32.526751 
L 642.779066 31.881361 
L 636.0595 31.540472 
L 629.427246 31.499193 
L 622.890585 31.752341 
L 616.457355 32.294447 
L 610.134943 33.119753 
L 603.930292 34.222211 
L 597.849899 35.595485 
L 591.899812 37.232952 
L 586.085634 39.127697 
L 580.412521 41.27252 
L 574.885182 43.65993 
L 569.50788 46.282149 
L 564.284431 49.13111 
L 559.218204 52.198455 
L 554.312122 55.475541 
L 549.56866 58.953435 
L 544.989849 62.622915 
L 540.577271 66.474471 
L 536.332061 70.498303 
L 532.254911 74.684324 
L 528.346061 79.022159 
L 524.605309 83.501141 
L 521.032004 88.110319 
L 517.625049 92.83845 
L 514.382899 97.674003 
L 511.303565 102.60516 
L 508.38461 107.619813 
L 505.62315 112.705565 
L 503.015854 117.849732 
L 500.558945 123.03934 
L 498.248547 128.262774 
L 496.084489 133.524619 
L 494.06595 138.821251 
L 492.191455 144.145547 
L 490.459538 149.490604 
L 488.86874 154.849745 
L 487.417615 160.216513 
L 486.104724 165.584673 
L 484.928638 170.948213 
L 483.887935 176.301342 
L 482.981205 181.638493 
L 482.207047 186.954319 
L 481.564066 192.243697 
L 481.050881 197.501726 
L 480.666116 202.723724 
L 480.408406 207.905236 
L 480.276395 213.042026 
L 480.268737 218.130081 
L 480.384093 223.16561 
L 480.621136 228.145043 
L 480.978546 233.065036 
L 481.455012 237.922462 
L 482.049235 242.71442 
L 482.759922 247.43823 
L 483.585791 252.091433 
L 484.525568 256.671793 
L 485.57799 261.177297 
L 486.741801 265.606154 
L 488.015756 269.956793 
L 489.398617 274.227867 
L 490.888588 278.418292 
L 492.482489 282.527055 
L 494.180851 286.552639 
L 495.984576 290.493504 
L 497.894453 294.348135 
L 499.911167 298.115048 
L 502.035293 301.792784 
L 504.267299 305.379912 
L 506.607543 308.875031 
L 509.056277 312.276764 
L 511.613645 315.583765 
L 514.279682 318.794713 
L 517.054314 321.908316 
L 519.937361 324.923311 
L 522.928534 327.838459 
L 526.027437 330.652552 
L 529.233563 333.364408 
L 532.5463 335.972873 
L 535.964927 338.476821 
L 539.488615 340.875153 
L 543.116426 343.166798 
L 546.847316 345.350713 
L 550.68013 347.425882 
L 554.613608 349.391316 
L 558.64638 351.246057 
L 562.776969 352.98917 
L 567.003789 354.619751 
L 571.325146 356.136922 
L 575.73924 357.539833 
L 580.24416 358.827663 
L 584.837888 359.999616 
L 589.5183 361.054925 
L 594.283161 361.992852 
L 599.130129 362.812685 
L 604.056754 363.51374 
L 609.060479 364.09536 
L 614.138637 364.556917 
L 619.288455 364.89781 
L 624.50705 365.117466 
L 629.791433 365.215338 
L 635.138504 365.190909 
L 640.545059 365.043688 
L 646.008289 364.773717 
L 651.53273 364.38808 
L 657.114427 363.884814 
L 662.745599 363.258447 
L 668.418354 362.503818 
L 674.124688 361.616072 
L 679.856483 360.590666 
L 685.605512 359.423366 
L 691.363435 358.110247 
L 697.121799 356.647694 
L 702.872041 355.032402 
L 708.605485 353.261373 
L 714.313344 351.331921 
L 719.986719 349.24167 
L 725.616598 346.98855 
L 731.193858 344.570803 
L 736.709265 341.986982 
L 742.153472 339.235945 
L 747.517021 336.316863 
L 752.790341 333.229216 
L 757.96375 329.972793 
L 763.027454 326.547691 
L 767.971548 322.954319 
L 772.786013 319.193394 
L 777.46072 315.265943 
L 781.985427 311.173303 
L 786.349783 306.917118 
L 790.54332 302.499345 
L 794.555464 297.922248 
L 798.375524 293.1884 
L 801.9927 288.300686 
L 805.39608 283.2623 
L 808.57464 278.076742 
L 811.517244 272.747826 
L 814.212643 267.279673 
L 816.649478 261.676714 
L 818.816277 255.943689 
L 820.701457 250.085648 
L 822.293322 244.107952 
L 823.580066 238.016267 
L 824.54977 231.816574 
L 825.190343 225.51501 
L 825.483135 219.096537 
L 825.422624 212.562255 
L 825.012835 205.932562 
L 824.258207 199.227327 
L 823.163589 192.465896 
L 821.734243 185.667089 
L 819.975845 178.8492 
L 817.894482 172.03 
L 815.496653 165.226732 
L 812.78927 158.456115 
L 809.779657 151.734342 
L 806.475551 145.077082 
L 802.885101 138.499478 
L 799.016868 132.016146 
L 794.879826 125.64118 
L 790.48336 119.388146 
L 785.83727 113.270085 
L 780.951765 107.299515 
L 775.837469 101.488425 
L 770.505418 95.848281 
L 764.967058 90.390025 
L 759.234251 85.12407 
L 753.319268 80.060306 
L 747.234795 75.208098 
L 740.993929 70.576284 
L 734.610179 66.173179 
L 728.097467 62.006571 
L 721.470128 58.083722 
L 714.742908 54.411371 
L 707.930966 50.99573 
L 701.049874 47.842486 
L 694.115614 44.956801 
L 687.144763 42.343524 
L 680.173934 40.03083 
L 673.227988 38.034224 
L 666.31579 36.350581 
L 659.445962 34.97652 
L 652.626882 33.908404 
L 645.86669 33.142338 
L 639.173281 32.674171 
L 632.554308 32.499496 
L 626.017183 32.613649 
L 619.569076 33.011709 
L 613.216914 33.6885 
L 606.967382 34.638587 
L 600.826923 35.85628 
L 594.80174 37.335632 
L 588.89779 39.070439 
L 583.120791 41.054241 
L 577.476218 43.280322 
L 571.969303 45.741707 
L 566.605038 48.431168 
L 561.388171 51.341217 
L 556.323209 54.464112 
L 551.414417 57.791851 
L 546.665816 61.31618 
L 542.081188 65.028585 
L 537.664071 68.920296 
L 533.417761 72.982288 
L 529.345312 77.205278 
L 525.449536 81.579725 
L 521.733004 86.095835 
L 518.198043 90.743555 
L 514.84674 95.512575 
L 511.680937 100.39233 
L 508.691548 105.368003 
L 505.856702 110.421696 
L 503.174699 115.544713 
L 500.644449 120.728846 
L 498.26482 125.966109 
L 496.034644 131.248738 
L 493.952714 136.569198 
L 492.017784 141.920173 
L 490.228571 147.294572 
L 488.583751 152.68553 
L 487.081965 158.086404 
L 485.721812 163.490774 
L 484.501854 168.892446 
L 483.420616 174.285449 
L 482.476583 179.664034 
L 481.668201 185.022679 
L 480.993879 190.356083 
L 480.451987 195.65917 
L 480.040857 200.92709 
L 479.758781 206.155212 
L 479.604014 211.339133 
L 479.574773 216.474671 
L 479.669234 221.557871 
L 479.885538 226.584999 
L 480.221785 231.552546 
L 480.676038 236.457226 
L 481.24632 241.295978 
L 481.930617 246.065965 
L 482.726877 250.764572 
L 483.633007 255.389409 
L 484.646878 259.938311 
L 485.767033 264.410659 
L 486.994261 268.807155 
L 488.329223 273.125938 
L 489.772483 277.365126 
L 491.324527 281.52288 
L 492.985765 285.597412 
L 494.756528 289.586979 
L 496.637071 293.489883 
L 498.627572 297.304477 
L 500.72813 301.029156 
L 502.938768 304.662366 
L 505.25943 308.202597 
L 507.689986 311.648387 
L 510.230224 314.998322 
L 512.879859 318.251031 
L 515.638526 321.405195 
L 518.505783 324.459537 
L 521.481111 327.412831 
L 524.563915 330.263893 
L 527.75352 333.011591 
L 531.049175 335.654837 
L 534.450053 338.192589 
L 537.955247 340.623854 
L 541.563774 342.947685 
L 545.274574 345.163181 
L 549.086509 347.269489 
L 552.998363 349.265802 
L 557.008845 351.15136 
L 561.116585 352.925451 
L 565.320135 354.587407 
L 569.617971 356.13661 
L 574.008491 357.572486 
L 578.490015 358.894511 
L 583.060787 360.102204 
L 587.718974 361.195135 
L 592.462663 362.172917 
L 597.289866 363.035212 
L 602.198517 363.781729 
L 607.186473 364.412222 
L 612.251513 364.926493 
L 617.391338 365.324391 
L 622.603559 365.605774 
L 627.88486 365.768314 
L 633.23155 365.808661 
L 638.639906 365.724095 
L 644.10589 365.511992 
L 649.625153 365.169824 
L 655.19303 364.695156 
L 660.804546 364.085649 
L 666.45441 363.339058 
L 672.13702 362.453235 
L 677.84646 361.426125 
L 683.576499 360.255769 
L 689.320596 358.940302 
L 695.071894 357.477955 
L 700.823225 355.867053 
L 706.567106 354.106017 
L 712.295743 352.193363 
L 718.001026 350.1277 
L 723.674533 347.907733 
L 729.307531 345.532264 
L 734.890969 343.000188 
L 740.415488 340.310494 
L 745.871413 337.462267 
L 751.248755 334.454689 
L 756.537214 331.287034 
L 761.726175 327.958671 
L 766.804712 324.469067 
L 771.761583 320.81778 
L 776.585235 317.004466 
L 781.2638 313.028875 
L 785.785099 308.89085 
L 790.136638 304.590334 
L 794.305611 300.127358 
L 798.278898 295.502055 
L 798.278898 295.502055 
" clip-path="url(#pca5ab03608)" style="fill: none; stroke: #000000; stroke-width: 1.5; stroke-linecap: square"/>
   </g>
   <g id="patch_9">
    <path d="M 458.975 386.165367 
L 458.975 9.262244 
" style="fill: none; stroke: #000000; stroke-width: 0.8; stroke-linejoin: miter; stroke-linecap: square"/>
   </g>
   <g id="patch_10">
    <path d="M 849.5875 386.165367 
L 849.5875 9.262244 
" style="fill: none; stroke: #000000; stroke-width: 0.8; stroke-linejoin: miter; stroke-linecap: square"/>
   </g>
   <g id="patch_11">
    <path d="M 458.975 386.165367 
L 849.5875 386.165367 
" style="fill: none; stroke: #000000; stroke-width: 0.8; stroke-linejoin: miter; stroke-linecap: square"/>
   </g>
   <g id="patch_12">
    <path d="M 458.975 9.262244 
L 849.5875 9.262244 
" style="fill: none; stroke: #000000; stroke-width: 0.8; stroke-linejoin: miter; stroke-linecap: square"/>
   </g>
  </g>
 </g>
 <defs>
  <clipPath id="pdd54e2bc46">
   <rect x="20.5625" y="9.262244" width="390.6125" height="376.903123"/>
  </clipPath>
  <clipPath id="pca5ab03608">
   <rect x="458.975" y="9.262244" width="390.6125" height="376.903123"/>
  </clipPath>
 </defs>
</svg>
