<?xml version="1.0" encoding="utf-8" standalone="no"?>
<!DOCTYPE svg PUBLIC "-//W3C//DTD SVG 1.1//EN"
  "http://www.w3.org/Graphics/SVG/1.1/DTD/svg11.dtd">
<svg xmlns:xlink="http://www.w3.org/1999/xlink" width="856.465625pt" height="423.721617pt" viewBox="0 0 856.465625 423.721617" xmlns="http://www.w3.org/2000/svg" version="1.1">
 <metadata>
  <rdf:RDF xmlns:dc="http://purl.org/dc/elements/1.1/" xmlns:cc="http://creativecommons.org/ns#" xmlns:rdf="http://www.w3.org/1999/02/22-rdf-syntax-ns#">
   <cc:Work>
    <dc:type rdf:resource="http://purl.org/dc/dcmitype/StillImage"/>
    <dc:date>2024-10-07T23:29:32.128778</dc:date>
    <dc:format>image/svg+xml</dc:format>
    <dc:creator>
     <cc:Agent>
      <dc:title>Matplotlib v3.5.2, https://matplotlib.org/</dc:title>
     </cc:Agent>
    </dc:creator>
   </cc:Work>
  </rdf:RDF>
 </metadata>
 <defs>
  <style type="text/css">*{stroke-linejoin: round; stroke-linecap: butt}</style>
 </defs>
 <g id="figure_1">
  <g id="patch_1">
   <path d="M 0 423.721617 
L 856.465625 423.721617 
L 856.465625 0 
L 0 0 
z
" style="fill: #ffffff"/>
  </g>
  <g id="axes_1">
   <g id="patch_2">
    <path d="M 34.240625 386.165367 
L 417.853125 386.165367 
L 417.853125 9.262244 
L 34.240625 9.262244 
z
" style="fill: #ffffff"/>
   </g>
   <g id="matplotlib.axis_1">
    <g id="xtick_1">
     <g id="line2d_1">
      <defs>
       <path id="mdfb66e8667" d="M 0 0 
L 0 3.5 
" style="stroke: #000000; stroke-width: 0.8"/>
      </defs>
      <g>
       <use xlink:href="#mdfb66e8667" x="51.677557" y="386.165367" style="stroke: #000000; stroke-width: 0.8"/>
      </g>
     </g>
     <g id="text_1">
      <!-- 0 -->
      <g transform="translate(48.496307 400.763804)scale(0.1 -0.1)">
       <defs>
        <path id="DejaVuSans-30" d="M 2034 4250 
Q 1547 4250 1301 3770 
Q 1056 3291 1056 2328 
Q 1056 1369 1301 889 
Q 1547 409 2034 409 
Q 2525 409 2770 889 
Q 3016 1369 3016 2328 
Q 3016 3291 2770 3770 
Q 2525 4250 2034 4250 
z
M 2034 4750 
Q 2819 4750 3233 4129 
Q 3647 3509 3647 2328 
Q 3647 1150 3233 529 
Q 2819 -91 2034 -91 
Q 1250 -91 836 529 
Q 422 1150 422 2328 
Q 422 3509 836 4129 
Q 1250 4750 2034 4750 
z
" transform="scale(0.015625)"/>
       </defs>
       <use xlink:href="#DejaVuSans-30"/>
      </g>
     </g>
    </g>
    <g id="xtick_2">
     <g id="line2d_2">
      <g>
       <use xlink:href="#mdfb66e8667" x="121.425284" y="386.165367" style="stroke: #000000; stroke-width: 0.8"/>
      </g>
     </g>
     <g id="text_2">
      <!-- 2 -->
      <g transform="translate(118.244034 400.763804)scale(0.1 -0.1)">
       <defs>
        <path id="DejaVuSans-32" d="M 1228 531 
L 3431 531 
L 3431 0 
L 469 0 
L 469 531 
Q 828 903 1448 1529 
Q 2069 2156 2228 2338 
Q 2531 2678 2651 2914 
Q 2772 3150 2772 3378 
Q 2772 3750 2511 3984 
Q 2250 4219 1831 4219 
Q 1534 4219 1204 4116 
Q 875 4013 500 3803 
L 500 4441 
Q 881 4594 1212 4672 
Q 1544 4750 1819 4750 
Q 2544 4750 2975 4387 
Q 3406 4025 3406 3419 
Q 3406 3131 3298 2873 
Q 3191 2616 2906 2266 
Q 2828 2175 2409 1742 
Q 1991 1309 1228 531 
z
" transform="scale(0.015625)"/>
       </defs>
       <use xlink:href="#DejaVuSans-32"/>
      </g>
     </g>
    </g>
    <g id="xtick_3">
     <g id="line2d_3">
      <g>
       <use xlink:href="#mdfb66e8667" x="191.173011" y="386.165367" style="stroke: #000000; stroke-width: 0.8"/>
      </g>
     </g>
     <g id="text_3">
      <!-- 4 -->
      <g transform="translate(187.991761 400.763804)scale(0.1 -0.1)">
       <defs>
        <path id="DejaVuSans-34" d="M 2419 4116 
L 825 1625 
L 2419 1625 
L 2419 4116 
z
M 2253 4666 
L 3047 4666 
L 3047 1625 
L 3713 1625 
L 3713 1100 
L 3047 1100 
L 3047 0 
L 2419 0 
L 2419 1100 
L 313 1100 
L 313 1709 
L 2253 4666 
z
" transform="scale(0.015625)"/>
       </defs>
       <use xlink:href="#DejaVuSans-34"/>
      </g>
     </g>
    </g>
    <g id="xtick_4">
     <g id="line2d_4">
      <g>
       <use xlink:href="#mdfb66e8667" x="260.920739" y="386.165367" style="stroke: #000000; stroke-width: 0.8"/>
      </g>
     </g>
     <g id="text_4">
      <!-- 6 -->
      <g transform="translate(257.739489 400.763804)scale(0.1 -0.1)">
       <defs>
        <path id="DejaVuSans-36" d="M 2113 2584 
Q 1688 2584 1439 2293 
Q 1191 2003 1191 1497 
Q 1191 994 1439 701 
Q 1688 409 2113 409 
Q 2538 409 2786 701 
Q 3034 994 3034 1497 
Q 3034 2003 2786 2293 
Q 2538 2584 2113 2584 
z
M 3366 4563 
L 3366 3988 
Q 3128 4100 2886 4159 
Q 2644 4219 2406 4219 
Q 1781 4219 1451 3797 
Q 1122 3375 1075 2522 
Q 1259 2794 1537 2939 
Q 1816 3084 2150 3084 
Q 2853 3084 3261 2657 
Q 3669 2231 3669 1497 
Q 3669 778 3244 343 
Q 2819 -91 2113 -91 
Q 1303 -91 875 529 
Q 447 1150 447 2328 
Q 447 3434 972 4092 
Q 1497 4750 2381 4750 
Q 2619 4750 2861 4703 
Q 3103 4656 3366 4563 
z
" transform="scale(0.015625)"/>
       </defs>
       <use xlink:href="#DejaVuSans-36"/>
      </g>
     </g>
    </g>
    <g id="xtick_5">
     <g id="line2d_5">
      <g>
       <use xlink:href="#mdfb66e8667" x="330.668466" y="386.165367" style="stroke: #000000; stroke-width: 0.8"/>
      </g>
     </g>
     <g id="text_5">
      <!-- 8 -->
      <g transform="translate(327.487216 400.763804)scale(0.1 -0.1)">
       <defs>
        <path id="DejaVuSans-38" d="M 2034 2216 
Q 1584 2216 1326 1975 
Q 1069 1734 1069 1313 
Q 1069 891 1326 650 
Q 1584 409 2034 409 
Q 2484 409 2743 651 
Q 3003 894 3003 1313 
Q 3003 1734 2745 1975 
Q 2488 2216 2034 2216 
z
M 1403 2484 
Q 997 2584 770 2862 
Q 544 3141 544 3541 
Q 544 4100 942 4425 
Q 1341 4750 2034 4750 
Q 2731 4750 3128 4425 
Q 3525 4100 3525 3541 
Q 3525 3141 3298 2862 
Q 3072 2584 2669 2484 
Q 3125 2378 3379 2068 
Q 3634 1759 3634 1313 
Q 3634 634 3220 271 
Q 2806 -91 2034 -91 
Q 1263 -91 848 271 
Q 434 634 434 1313 
Q 434 1759 690 2068 
Q 947 2378 1403 2484 
z
M 1172 3481 
Q 1172 3119 1398 2916 
Q 1625 2713 2034 2713 
Q 2441 2713 2670 2916 
Q 2900 3119 2900 3481 
Q 2900 3844 2670 4047 
Q 2441 4250 2034 4250 
Q 1625 4250 1398 4047 
Q 1172 3844 1172 3481 
z
" transform="scale(0.015625)"/>
       </defs>
       <use xlink:href="#DejaVuSans-38"/>
      </g>
     </g>
    </g>
    <g id="xtick_6">
     <g id="line2d_6">
      <g>
       <use xlink:href="#mdfb66e8667" x="400.416193" y="386.165367" style="stroke: #000000; stroke-width: 0.8"/>
      </g>
     </g>
     <g id="text_6">
      <!-- 10 -->
      <g transform="translate(394.053693 400.763804)scale(0.1 -0.1)">
       <defs>
        <path id="DejaVuSans-31" d="M 794 531 
L 1825 531 
L 1825 4091 
L 703 3866 
L 703 4441 
L 1819 4666 
L 2450 4666 
L 2450 531 
L 3481 531 
L 3481 0 
L 794 0 
L 794 531 
z
" transform="scale(0.015625)"/>
       </defs>
       <use xlink:href="#DejaVuSans-31"/>
       <use xlink:href="#DejaVuSans-30" x="63.623047"/>
      </g>
     </g>
    </g>
    <g id="text_7">
     <!-- Time -->
     <g transform="translate(213.813281 414.441929)scale(0.1 -0.1)">
      <defs>
       <path id="DejaVuSans-54" d="M -19 4666 
L 3928 4666 
L 3928 4134 
L 2272 4134 
L 2272 0 
L 1638 0 
L 1638 4134 
L -19 4134 
L -19 4666 
z
" transform="scale(0.015625)"/>
       <path id="DejaVuSans-69" d="M 603 3500 
L 1178 3500 
L 1178 0 
L 603 0 
L 603 3500 
z
M 603 4863 
L 1178 4863 
L 1178 4134 
L 603 4134 
L 603 4863 
z
" transform="scale(0.015625)"/>
       <path id="DejaVuSans-6d" d="M 3328 2828 
Q 3544 3216 3844 3400 
Q 4144 3584 4550 3584 
Q 5097 3584 5394 3201 
Q 5691 2819 5691 2113 
L 5691 0 
L 5113 0 
L 5113 2094 
Q 5113 2597 4934 2840 
Q 4756 3084 4391 3084 
Q 3944 3084 3684 2787 
Q 3425 2491 3425 1978 
L 3425 0 
L 2847 0 
L 2847 2094 
Q 2847 2600 2669 2842 
Q 2491 3084 2119 3084 
Q 1678 3084 1418 2786 
Q 1159 2488 1159 1978 
L 1159 0 
L 581 0 
L 581 3500 
L 1159 3500 
L 1159 2956 
Q 1356 3278 1631 3431 
Q 1906 3584 2284 3584 
Q 2666 3584 2933 3390 
Q 3200 3197 3328 2828 
z
" transform="scale(0.015625)"/>
       <path id="DejaVuSans-65" d="M 3597 1894 
L 3597 1613 
L 953 1613 
Q 991 1019 1311 708 
Q 1631 397 2203 397 
Q 2534 397 2845 478 
Q 3156 559 3463 722 
L 3463 178 
Q 3153 47 2828 -22 
Q 2503 -91 2169 -91 
Q 1331 -91 842 396 
Q 353 884 353 1716 
Q 353 2575 817 3079 
Q 1281 3584 2069 3584 
Q 2775 3584 3186 3129 
Q 3597 2675 3597 1894 
z
M 3022 2063 
Q 3016 2534 2758 2815 
Q 2500 3097 2075 3097 
Q 1594 3097 1305 2825 
Q 1016 2553 972 2059 
L 3022 2063 
z
" transform="scale(0.015625)"/>
      </defs>
      <use xlink:href="#DejaVuSans-54"/>
      <use xlink:href="#DejaVuSans-69" x="57.958984"/>
      <use xlink:href="#DejaVuSans-6d" x="85.742188"/>
      <use xlink:href="#DejaVuSans-65" x="183.154297"/>
     </g>
    </g>
   </g>
   <g id="matplotlib.axis_2">
    <g id="ytick_1">
     <g id="line2d_7">
      <defs>
       <path id="m11361fed71" d="M 0 0 
L -3.5 0 
" style="stroke: #000000; stroke-width: 0.8"/>
      </defs>
      <g>
       <use xlink:href="#m11361fed71" x="34.240625" y="340.697201" style="stroke: #000000; stroke-width: 0.8"/>
      </g>
     </g>
     <g id="text_8">
      <!-- 2 -->
      <g transform="translate(20.878125 344.49642)scale(0.1 -0.1)">
       <use xlink:href="#DejaVuSans-32"/>
      </g>
     </g>
    </g>
    <g id="ytick_2">
     <g id="line2d_8">
      <g>
       <use xlink:href="#m11361fed71" x="34.240625" y="293.132173" style="stroke: #000000; stroke-width: 0.8"/>
      </g>
     </g>
     <g id="text_9">
      <!-- 3 -->
      <g transform="translate(20.878125 296.931392)scale(0.1 -0.1)">
       <defs>
        <path id="DejaVuSans-33" d="M 2597 2516 
Q 3050 2419 3304 2112 
Q 3559 1806 3559 1356 
Q 3559 666 3084 287 
Q 2609 -91 1734 -91 
Q 1441 -91 1130 -33 
Q 819 25 488 141 
L 488 750 
Q 750 597 1062 519 
Q 1375 441 1716 441 
Q 2309 441 2620 675 
Q 2931 909 2931 1356 
Q 2931 1769 2642 2001 
Q 2353 2234 1838 2234 
L 1294 2234 
L 1294 2753 
L 1863 2753 
Q 2328 2753 2575 2939 
Q 2822 3125 2822 3475 
Q 2822 3834 2567 4026 
Q 2313 4219 1838 4219 
Q 1578 4219 1281 4162 
Q 984 4106 628 3988 
L 628 4550 
Q 988 4650 1302 4700 
Q 1616 4750 1894 4750 
Q 2613 4750 3031 4423 
Q 3450 4097 3450 3541 
Q 3450 3153 3228 2886 
Q 3006 2619 2597 2516 
z
" transform="scale(0.015625)"/>
       </defs>
       <use xlink:href="#DejaVuSans-33"/>
      </g>
     </g>
    </g>
    <g id="ytick_3">
     <g id="line2d_9">
      <g>
       <use xlink:href="#m11361fed71" x="34.240625" y="245.567146" style="stroke: #000000; stroke-width: 0.8"/>
      </g>
     </g>
     <g id="text_10">
      <!-- 4 -->
      <g transform="translate(20.878125 249.366365)scale(0.1 -0.1)">
       <use xlink:href="#DejaVuSans-34"/>
      </g>
     </g>
    </g>
    <g id="ytick_4">
     <g id="line2d_10">
      <g>
       <use xlink:href="#m11361fed71" x="34.240625" y="198.002118" style="stroke: #000000; stroke-width: 0.8"/>
      </g>
     </g>
     <g id="text_11">
      <!-- 5 -->
      <g transform="translate(20.878125 201.801337)scale(0.1 -0.1)">
       <defs>
        <path id="DejaVuSans-35" d="M 691 4666 
L 3169 4666 
L 3169 4134 
L 1269 4134 
L 1269 2991 
Q 1406 3038 1543 3061 
Q 1681 3084 1819 3084 
Q 2600 3084 3056 2656 
Q 3513 2228 3513 1497 
Q 3513 744 3044 326 
Q 2575 -91 1722 -91 
Q 1428 -91 1123 -41 
Q 819 9 494 109 
L 494 744 
Q 775 591 1075 516 
Q 1375 441 1709 441 
Q 2250 441 2565 725 
Q 2881 1009 2881 1497 
Q 2881 1984 2565 2268 
Q 2250 2553 1709 2553 
Q 1456 2553 1204 2497 
Q 953 2441 691 2322 
L 691 4666 
z
" transform="scale(0.015625)"/>
       </defs>
       <use xlink:href="#DejaVuSans-35"/>
      </g>
     </g>
    </g>
    <g id="ytick_5">
     <g id="line2d_11">
      <g>
       <use xlink:href="#m11361fed71" x="34.240625" y="150.437091" style="stroke: #000000; stroke-width: 0.8"/>
      </g>
     </g>
     <g id="text_12">
      <!-- 6 -->
      <g transform="translate(20.878125 154.236309)scale(0.1 -0.1)">
       <use xlink:href="#DejaVuSans-36"/>
      </g>
     </g>
    </g>
    <g id="ytick_6">
     <g id="line2d_12">
      <g>
       <use xlink:href="#m11361fed71" x="34.240625" y="102.872063" style="stroke: #000000; stroke-width: 0.8"/>
      </g>
     </g>
     <g id="text_13">
      <!-- 7 -->
      <g transform="translate(20.878125 106.671282)scale(0.1 -0.1)">
       <defs>
        <path id="DejaVuSans-37" d="M 525 4666 
L 3525 4666 
L 3525 4397 
L 1831 0 
L 1172 0 
L 2766 4134 
L 525 4134 
L 525 4666 
z
" transform="scale(0.015625)"/>
       </defs>
       <use xlink:href="#DejaVuSans-37"/>
      </g>
     </g>
    </g>
    <g id="ytick_7">
     <g id="line2d_13">
      <g>
       <use xlink:href="#m11361fed71" x="34.240625" y="55.307036" style="stroke: #000000; stroke-width: 0.8"/>
      </g>
     </g>
     <g id="text_14">
      <!-- 8 -->
      <g transform="translate(20.878125 59.106254)scale(0.1 -0.1)">
       <use xlink:href="#DejaVuSans-38"/>
      </g>
     </g>
    </g>
    <g id="text_15">
     <!-- Number -->
     <g transform="translate(14.798438 217.799743)rotate(-90)scale(0.1 -0.1)">
      <defs>
       <path id="DejaVuSans-4e" d="M 628 4666 
L 1478 4666 
L 3547 763 
L 3547 4666 
L 4159 4666 
L 4159 0 
L 3309 0 
L 1241 3903 
L 1241 0 
L 628 0 
L 628 4666 
z
" transform="scale(0.015625)"/>
       <path id="DejaVuSans-75" d="M 544 1381 
L 544 3500 
L 1119 3500 
L 1119 1403 
Q 1119 906 1312 657 
Q 1506 409 1894 409 
Q 2359 409 2629 706 
Q 2900 1003 2900 1516 
L 2900 3500 
L 3475 3500 
L 3475 0 
L 2900 0 
L 2900 538 
Q 2691 219 2414 64 
Q 2138 -91 1772 -91 
Q 1169 -91 856 284 
Q 544 659 544 1381 
z
M 1991 3584 
L 1991 3584 
z
" transform="scale(0.015625)"/>
       <path id="DejaVuSans-62" d="M 3116 1747 
Q 3116 2381 2855 2742 
Q 2594 3103 2138 3103 
Q 1681 3103 1420 2742 
Q 1159 2381 1159 1747 
Q 1159 1113 1420 752 
Q 1681 391 2138 391 
Q 2594 391 2855 752 
Q 3116 1113 3116 1747 
z
M 1159 2969 
Q 1341 3281 1617 3432 
Q 1894 3584 2278 3584 
Q 2916 3584 3314 3078 
Q 3713 2572 3713 1747 
Q 3713 922 3314 415 
Q 2916 -91 2278 -91 
Q 1894 -91 1617 61 
Q 1341 213 1159 525 
L 1159 0 
L 581 0 
L 581 4863 
L 1159 4863 
L 1159 2969 
z
" transform="scale(0.015625)"/>
       <path id="DejaVuSans-72" d="M 2631 2963 
Q 2534 3019 2420 3045 
Q 2306 3072 2169 3072 
Q 1681 3072 1420 2755 
Q 1159 2438 1159 1844 
L 1159 0 
L 581 0 
L 581 3500 
L 1159 3500 
L 1159 2956 
Q 1341 3275 1631 3429 
Q 1922 3584 2338 3584 
Q 2397 3584 2469 3576 
Q 2541 3569 2628 3553 
L 2631 2963 
z
" transform="scale(0.015625)"/>
      </defs>
      <use xlink:href="#DejaVuSans-4e"/>
      <use xlink:href="#DejaVuSans-75" x="74.804688"/>
      <use xlink:href="#DejaVuSans-6d" x="138.183594"/>
      <use xlink:href="#DejaVuSans-62" x="235.595703"/>
      <use xlink:href="#DejaVuSans-65" x="299.072266"/>
      <use xlink:href="#DejaVuSans-72" x="360.595703"/>
     </g>
    </g>
   </g>
   <g id="line2d_14">
    <path d="M 51.677557 245.567146 
L 52.375034 245.415929 
L 53.072511 244.966027 
L 53.769989 244.222631 
L 54.467466 243.190359 
L 55.513682 241.122619 
L 56.559898 238.442117 
L 57.606114 235.143925 
L 58.65233 231.226407 
L 60.047284 225.043019 
L 61.442239 217.775066 
L 62.837193 209.446099 
L 64.580886 197.595635 
L 66.32458 184.230596 
L 68.417011 166.356853 
L 70.858182 143.312748 
L 74.694307 104.289883 
L 77.832955 73.058003 
L 79.576648 57.555874 
L 80.971602 46.826168 
L 82.017818 40.073158 
L 83.064034 34.676977 
L 83.761511 31.94182 
L 84.458989 29.945079 
L 85.156466 28.72542 
L 85.505205 28.41667 
L 85.853943 28.312602 
L 86.202682 28.415439 
L 86.55142 28.726805 
L 86.900159 29.247726 
L 87.597636 30.919346 
L 88.295114 33.426534 
L 88.992591 36.75595 
L 90.038807 43.238994 
L 91.085023 51.400478 
L 92.479977 64.599044 
L 94.22367 84.050445 
L 97.362318 122.792706 
L 101.198443 169.807459 
L 102.942136 188.861029 
L 104.337091 202.196133 
L 105.732045 213.404252 
L 107.127 222.920037 
L 108.521955 230.812003 
L 109.56817 235.642968 
L 110.614386 239.542329 
L 111.660602 242.526347 
L 112.35808 244.021628 
L 113.055557 245.135871 
L 113.753034 245.884413 
L 114.450511 246.285399 
L 115.147989 246.359778 
L 115.845466 246.131303 
L 116.542943 245.626535 
L 117.24042 244.874839 
L 118.286636 243.332885 
L 119.332852 241.19184 
L 120.379068 238.424409 
L 121.425284 235.03374 
L 122.820239 229.551719 
L 124.215193 222.985696 
L 125.610148 215.356018 
L 127.353841 204.362093 
L 129.097534 191.806127 
L 131.189966 174.797089 
L 133.282398 155.924833 
L 136.072307 128.425033 
L 142.349602 65.251592 
L 144.093295 50.565003 
L 145.48825 40.850263 
L 146.534466 35.023599 
L 147.231943 31.963681 
L 147.92942 29.634109 
L 148.626898 28.083331 
L 148.975636 27.612169 
L 149.324375 27.348969 
L 149.673114 27.296741 
L 150.021852 27.457821 
L 150.370591 27.833868 
L 151.068068 29.234112 
L 151.765545 31.497212 
L 152.463023 34.612081 
L 153.1605 38.556811 
L 154.206716 45.955328 
L 155.252932 54.988701 
L 156.647886 69.148535 
L 158.39158 89.216217 
L 161.181489 124.582887 
L 164.668875 168.641702 
L 166.412568 187.845083 
L 167.807523 200.903965 
L 169.202477 212.289414 
L 170.597432 221.970939 
L 171.992386 229.926938 
L 173.038602 234.77972 
L 174.084818 238.714269 
L 175.131034 241.782647 
L 176.17725 244.054397 
L 176.874727 245.168582 
L 177.572205 245.997127 
L 178.269682 246.53772 
L 178.967159 246.765732 
L 179.664636 246.686491 
L 180.362114 246.305057 
L 181.059591 245.62618 
L 181.757068 244.654305 
L 182.803284 242.65609 
L 183.8495 240.02054 
L 184.895716 236.758772 
L 185.941932 232.880354 
L 187.336886 226.763521 
L 188.731841 219.582731 
L 190.475534 209.189429 
L 192.219227 197.193973 
L 193.96292 183.604701 
L 196.055352 165.339043 
L 198.496523 141.781 
L 202.332648 102.011866 
L 205.820034 66.606974 
L 207.563727 51.310129 
L 208.958682 41.181355 
L 210.004898 35.110485 
L 211.051114 30.530453 
L 211.748591 28.376732 
L 212.446068 26.986866 
L 212.794807 26.588956 
L 213.143545 26.394204 
L 213.492284 26.406155 
L 213.841023 26.628103 
L 214.189761 27.063095 
L 214.887239 28.583141 
L 215.584716 30.98643 
L 216.282193 34.334388 
L 217.328409 41.027747 
L 218.374625 49.447845 
L 219.76958 62.845453 
L 221.513273 82.153192 
L 224.303182 116.211452 
L 228.139307 162.73255 
L 230.231739 185.128201 
L 231.975432 201.201494 
L 233.370386 212.16002 
L 234.765341 221.38028 
L 236.160295 228.906484 
L 237.206511 233.513622 
L 238.252727 237.323912 
L 239.298943 240.405994 
L 240.345159 242.718824 
L 241.042636 243.842726 
L 241.740114 244.64047 
L 242.437591 245.118787 
L 243.135068 245.284122 
L 243.832545 245.142633 
L 244.530023 244.700192 
L 245.2275 243.962385 
L 245.924977 242.93451 
L 246.971193 240.859708 
L 248.017409 238.159175 
L 249.063625 234.847627 
L 250.45858 229.52403 
L 251.853534 223.150905 
L 253.248489 215.709044 
L 254.643443 207.200657 
L 256.387136 195.103407 
L 258.13083 181.471402 
L 260.223261 163.295658 
L 262.664432 140.039694 
L 266.151818 104.330651 
L 268.941727 76.301523 
L 270.68542 60.611878 
L 272.080375 49.722622 
L 273.47533 40.74957 
L 274.521545 35.519417 
L 275.219023 32.84067 
L 275.9165 30.86655 
L 276.613977 29.646792 
L 276.962716 29.335303 
L 277.311455 29.230993 
L 277.660193 29.340038 
L 278.008932 29.671053 
L 278.35767 30.23862 
L 279.055148 32.063032 
L 279.752625 34.759311 
L 280.450102 38.270314 
L 281.496318 44.937926 
L 282.542534 53.111085 
L 283.937489 66.003447 
L 285.681182 84.642463 
L 288.122352 113.708686 
L 292.307216 163.976552 
L 294.399648 185.852062 
L 296.143341 201.563144 
L 297.538295 212.307816 
L 298.93325 221.386905 
L 300.328205 228.835116 
L 301.37442 233.411692 
L 302.420636 237.170638 
L 303.466852 240.133217 
L 304.513068 242.323688 
L 305.210545 243.366823 
L 305.908023 244.084324 
L 306.6055 244.483035 
L 307.302977 244.569712 
L 308.000455 244.351018 
L 308.697932 243.833526 
L 309.395409 243.023717 
L 310.092886 241.927981 
L 311.139102 239.76202 
L 312.185318 236.990027 
L 313.231534 233.631437 
L 314.626489 228.224215 
L 316.021443 221.741094 
L 317.416398 214.182822 
L 319.160091 203.251972 
L 320.903784 190.743146 
L 322.996216 173.813947 
L 325.088648 155.057422 
L 327.878557 127.806678 
L 333.458375 72.236052 
L 335.202068 57.328533 
L 336.597023 47.157068 
L 337.643239 40.827638 
L 338.689455 35.816506 
L 339.386932 33.301904 
L 340.084409 31.515479 
L 340.781886 30.516164 
L 341.130625 30.334461 
L 341.479364 30.372014 
L 341.828102 30.626323 
L 342.176841 31.094635 
L 342.874318 32.660971 
L 343.571795 35.043874 
L 344.269273 38.212097 
L 345.315489 44.358486 
L 346.361705 52.054834 
L 347.756659 64.452867 
L 349.151614 78.894292 
L 351.244045 103.285701 
L 356.126386 162.063924 
L 358.218818 184.244102 
L 359.962511 200.417693 
L 361.357466 211.586167 
L 362.75242 221.031312 
L 364.147375 228.690177 
L 365.193591 233.401593 
L 366.239807 237.278416 
L 367.286023 240.341517 
L 368.332239 242.613699 
L 369.029716 243.701224 
L 369.727193 244.455989 
L 370.42467 244.886183 
L 371.122148 245.000376 
L 371.819625 244.807519 
L 372.517102 244.316946 
L 373.21458 243.538372 
L 373.912057 242.481893 
L 374.958273 240.395945 
L 376.004489 237.708642 
L 377.050705 234.411751 
L 378.09692 230.501006 
L 379.491875 224.331703 
L 380.88683 217.080741 
L 382.281784 208.770267 
L 384.025477 196.945868 
L 385.76917 183.614953 
L 387.861602 165.806331 
L 390.302773 142.894655 
L 394.138898 104.132094 
L 397.277545 73.12134 
L 399.021239 57.776365 
L 400.416193 47.217032 
L 400.416193 47.217032 
" clip-path="url(#pa1466f012f)" style="fill: none; stroke: #1f77b4; stroke-width: 1.5; stroke-linecap: square"/>
   </g>
   <g id="line2d_15">
    <path d="M 51.677557 340.697201 
L 54.467466 347.952281 
L 56.559898 352.838275 
L 58.65233 357.164529 
L 60.396023 360.294081 
L 62.139716 362.957399 
L 63.53467 364.735254 
L 64.929625 366.188504 
L 66.32458 367.309706 
L 67.719534 368.093974 
L 68.76575 368.459564 
L 69.811966 368.634282 
L 70.858182 368.607289 
L 71.904398 368.36217 
L 72.950614 367.884704 
L 73.99683 367.162883 
L 75.043045 366.186915 
L 76.089261 364.949219 
L 77.484216 362.882874 
L 78.87917 360.33536 
L 80.274125 357.30708 
L 81.66908 353.805438 
L 83.412773 348.785027 
L 85.505205 341.895631 
L 89.34133 328.100588 
L 91.7825 319.719597 
L 93.526193 314.513959 
L 94.921148 311.093969 
L 95.967364 309.082171 
L 97.01358 307.560143 
L 98.059795 306.530509 
L 98.757273 306.117255 
L 99.45475 305.921203 
L 100.152227 305.940383 
L 100.849705 306.172095 
L 101.547182 306.612909 
L 102.244659 307.258659 
L 103.290875 308.600629 
L 104.337091 310.372905 
L 105.732045 313.342691 
L 107.475739 317.681512 
L 109.916909 324.499801 
L 117.24042 345.615194 
L 119.332852 350.752771 
L 121.425284 355.347524 
L 123.168977 358.716921 
L 124.91267 361.633704 
L 126.656364 364.07325 
L 128.051318 365.669612 
L 129.446273 366.944364 
L 130.841227 367.895108 
L 131.887443 368.389269 
L 132.933659 368.684557 
L 133.979875 368.770973 
L 135.026091 368.639091 
L 136.072307 368.280057 
L 137.118523 367.685592 
L 138.164739 366.847989 
L 139.210955 365.760114 
L 140.605909 363.909044 
L 142.000864 361.587483 
L 143.395818 358.783274 
L 144.790773 355.486074 
L 146.534466 350.68331 
L 148.278159 345.199203 
L 150.71933 336.657201 
L 155.60167 319.173056 
L 156.996625 314.95267 
L 158.39158 311.416532 
L 159.437795 309.265959 
L 160.484011 307.578386 
L 161.530227 306.377329 
L 162.227705 305.855894 
L 162.925182 305.56249 
L 163.622659 305.499783 
L 164.320136 305.669291 
L 165.017614 306.071387 
L 165.715091 306.705294 
L 166.412568 307.56909 
L 167.458784 309.264646 
L 168.853739 312.064916 
L 170.597432 316.244941 
L 172.689864 321.964747 
L 181.40833 346.772392 
L 183.500761 351.841475 
L 185.593193 356.33977 
L 187.336886 359.612301 
L 189.08058 362.436347 
L 190.824273 364.791149 
L 192.219227 366.321571 
L 193.614182 367.524727 
L 195.009136 368.387321 
L 196.055352 368.802146 
L 197.101568 369.010829 
L 198.147784 369.006522 
L 199.194 368.782026 
L 200.240216 368.329788 
L 201.286432 367.641899 
L 202.332648 366.710098 
L 203.727602 365.085449 
L 205.122557 363.015303 
L 206.517511 360.4423 
L 207.912466 357.335989 
L 209.30742 353.697316 
L 211.051114 348.452601 
L 213.143545 341.322159 
L 216.97967 327.111936 
L 219.072102 319.654177 
L 220.467057 315.297404 
L 221.862011 311.649275 
L 222.908227 309.455097 
L 223.954443 307.762988 
L 225.000659 306.588088 
L 225.698136 306.091839 
L 226.395614 305.820013 
L 227.093091 305.764336 
L 227.790568 305.913126 
L 228.488045 306.254155 
L 229.185523 306.797925 
L 230.231739 307.978495 
L 231.277955 309.559176 
L 232.672909 312.211572 
L 234.067864 315.38309 
L 235.811557 319.89403 
L 238.950205 328.775779 
L 243.832545 342.503935 
L 246.273716 348.714661 
L 248.366148 353.489983 
L 250.45858 357.69552 
L 252.202273 360.728997 
L 253.945966 363.304557 
L 255.34092 365.017596 
L 256.735875 366.407847 
L 258.13083 367.462961 
L 259.177045 368.027228 
L 260.223261 368.39152 
L 261.269477 368.551205 
L 262.315693 368.501817 
L 263.361909 368.239055 
L 264.408125 367.768377 
L 265.454341 367.083101 
L 266.500557 366.15531 
L 267.546773 364.96314 
L 268.592989 363.490976 
L 269.987943 361.077259 
L 271.382898 358.144928 
L 272.777852 354.708817 
L 274.521545 349.759808 
L 276.613977 343.014802 
L 279.055148 334.35655 
L 282.542534 321.88222 
L 284.286227 316.522764 
L 285.681182 312.942396 
L 286.727398 310.737491 
L 287.773614 308.974532 
L 288.81983 307.666454 
L 289.866045 306.813893 
L 290.563523 306.517235 
L 291.261 306.446372 
L 291.958477 306.593831 
L 292.655955 306.951285 
L 293.353432 307.50955 
L 294.399648 308.701267 
L 295.445864 310.284517 
L 296.840818 312.931637 
L 298.235773 316.088795 
L 300.328205 321.504004 
L 304.16433 332.303604 
L 308.000455 342.909285 
L 310.441625 349.034266 
L 312.534057 353.739471 
L 314.626489 357.878584 
L 316.370182 360.854324 
L 318.113875 363.367474 
L 319.50883 365.026847 
L 320.903784 366.360765 
L 322.298739 367.358323 
L 323.344955 367.879934 
L 324.39117 368.203357 
L 325.437386 368.325444 
L 326.483602 368.243557 
L 327.529818 367.962589 
L 328.576034 367.467918 
L 329.62225 366.736795 
L 330.668466 365.751122 
L 331.714682 364.497446 
L 333.109636 362.394441 
L 334.504591 359.791859 
L 335.899545 356.696377 
L 337.643239 352.167834 
L 339.386932 346.977606 
L 341.479364 340.019858 
L 347.40792 319.424074 
L 348.802875 315.450781 
L 350.19783 312.10318 
L 351.244045 310.061503 
L 352.290261 308.457174 
L 353.336477 307.345937 
L 354.033955 306.893098 
L 354.731432 306.664241 
L 355.428909 306.653019 
L 356.126386 306.852322 
L 356.823864 307.254281 
L 357.87008 308.218109 
L 358.916295 309.585971 
L 359.962511 311.321669 
L 361.357466 314.138344 
L 363.101159 318.316006 
L 365.54233 324.942358 
L 372.865841 345.347787 
L 375.307011 351.249834 
L 377.399443 355.733122 
L 379.143136 359.013991 
L 380.88683 361.844598 
L 382.630523 364.196481 
L 384.025477 365.717641 
L 385.420432 366.908274 
L 386.815386 367.761305 
L 387.861602 368.176527 
L 388.907818 368.39784 
L 389.954034 368.41978 
L 391.00025 368.22899 
L 392.046466 367.813283 
L 393.092682 367.1619 
L 394.138898 366.265506 
L 395.185114 365.116194 
L 396.580068 363.179351 
L 397.975023 360.770096 
L 399.369977 357.881517 
L 400.416193 355.39891 
L 400.416193 355.39891 
" clip-path="url(#pa1466f012f)" style="fill: none; stroke: #ff7f0e; stroke-width: 1.5; stroke-linecap: square"/>
   </g>
   <g id="patch_3">
    <path d="M 34.240625 386.165367 
L 34.240625 9.262244 
" style="fill: none; stroke: #000000; stroke-width: 0.8; stroke-linejoin: miter; stroke-linecap: square"/>
   </g>
   <g id="patch_4">
    <path d="M 417.853125 386.165367 
L 417.853125 9.262244 
" style="fill: none; stroke: #000000; stroke-width: 0.8; stroke-linejoin: miter; stroke-linecap: square"/>
   </g>
   <g id="patch_5">
    <path d="M 34.240625 386.165367 
L 417.853125 386.165367 
" style="fill: none; stroke: #000000; stroke-width: 0.8; stroke-linejoin: miter; stroke-linecap: square"/>
   </g>
   <g id="patch_6">
    <path d="M 34.240625 9.262244 
L 417.853125 9.262244 
" style="fill: none; stroke: #000000; stroke-width: 0.8; stroke-linejoin: miter; stroke-linecap: square"/>
   </g>
   <g id="legend_1">
    <g id="patch_7">
     <path d="M 341.396875 46.618494 
L 410.853125 46.618494 
Q 412.853125 46.618494 412.853125 44.618494 
L 412.853125 16.262244 
Q 412.853125 14.262244 410.853125 14.262244 
L 341.396875 14.262244 
Q 339.396875 14.262244 339.396875 16.262244 
L 339.396875 44.618494 
Q 339.396875 46.618494 341.396875 46.618494 
z
" style="fill: #ffffff; opacity: 0.8; stroke: #cccccc; stroke-linejoin: miter"/>
    </g>
    <g id="line2d_16">
     <path d="M 343.396875 22.360682 
L 353.396875 22.360682 
L 363.396875 22.360682 
" style="fill: none; stroke: #1f77b4; stroke-width: 1.5; stroke-linecap: square"/>
    </g>
    <g id="text_16">
     <!-- Rabbits -->
     <g transform="translate(371.396875 25.860682)scale(0.1 -0.1)">
      <defs>
       <path id="DejaVuSans-52" d="M 2841 2188 
Q 3044 2119 3236 1894 
Q 3428 1669 3622 1275 
L 4263 0 
L 3584 0 
L 2988 1197 
Q 2756 1666 2539 1819 
Q 2322 1972 1947 1972 
L 1259 1972 
L 1259 0 
L 628 0 
L 628 4666 
L 2053 4666 
Q 2853 4666 3247 4331 
Q 3641 3997 3641 3322 
Q 3641 2881 3436 2590 
Q 3231 2300 2841 2188 
z
M 1259 4147 
L 1259 2491 
L 2053 2491 
Q 2509 2491 2742 2702 
Q 2975 2913 2975 3322 
Q 2975 3731 2742 3939 
Q 2509 4147 2053 4147 
L 1259 4147 
z
" transform="scale(0.015625)"/>
       <path id="DejaVuSans-61" d="M 2194 1759 
Q 1497 1759 1228 1600 
Q 959 1441 959 1056 
Q 959 750 1161 570 
Q 1363 391 1709 391 
Q 2188 391 2477 730 
Q 2766 1069 2766 1631 
L 2766 1759 
L 2194 1759 
z
M 3341 1997 
L 3341 0 
L 2766 0 
L 2766 531 
Q 2569 213 2275 61 
Q 1981 -91 1556 -91 
Q 1019 -91 701 211 
Q 384 513 384 1019 
Q 384 1609 779 1909 
Q 1175 2209 1959 2209 
L 2766 2209 
L 2766 2266 
Q 2766 2663 2505 2880 
Q 2244 3097 1772 3097 
Q 1472 3097 1187 3025 
Q 903 2953 641 2809 
L 641 3341 
Q 956 3463 1253 3523 
Q 1550 3584 1831 3584 
Q 2591 3584 2966 3190 
Q 3341 2797 3341 1997 
z
" transform="scale(0.015625)"/>
       <path id="DejaVuSans-74" d="M 1172 4494 
L 1172 3500 
L 2356 3500 
L 2356 3053 
L 1172 3053 
L 1172 1153 
Q 1172 725 1289 603 
Q 1406 481 1766 481 
L 2356 481 
L 2356 0 
L 1766 0 
Q 1100 0 847 248 
Q 594 497 594 1153 
L 594 3053 
L 172 3053 
L 172 3500 
L 594 3500 
L 594 4494 
L 1172 4494 
z
" transform="scale(0.015625)"/>
       <path id="DejaVuSans-73" d="M 2834 3397 
L 2834 2853 
Q 2591 2978 2328 3040 
Q 2066 3103 1784 3103 
Q 1356 3103 1142 2972 
Q 928 2841 928 2578 
Q 928 2378 1081 2264 
Q 1234 2150 1697 2047 
L 1894 2003 
Q 2506 1872 2764 1633 
Q 3022 1394 3022 966 
Q 3022 478 2636 193 
Q 2250 -91 1575 -91 
Q 1294 -91 989 -36 
Q 684 19 347 128 
L 347 722 
Q 666 556 975 473 
Q 1284 391 1588 391 
Q 1994 391 2212 530 
Q 2431 669 2431 922 
Q 2431 1156 2273 1281 
Q 2116 1406 1581 1522 
L 1381 1569 
Q 847 1681 609 1914 
Q 372 2147 372 2553 
Q 372 3047 722 3315 
Q 1072 3584 1716 3584 
Q 2034 3584 2315 3537 
Q 2597 3491 2834 3397 
z
" transform="scale(0.015625)"/>
      </defs>
      <use xlink:href="#DejaVuSans-52"/>
      <use xlink:href="#DejaVuSans-61" x="67.232422"/>
      <use xlink:href="#DejaVuSans-62" x="128.511719"/>
      <use xlink:href="#DejaVuSans-62" x="191.988281"/>
      <use xlink:href="#DejaVuSans-69" x="255.464844"/>
      <use xlink:href="#DejaVuSans-74" x="283.248047"/>
      <use xlink:href="#DejaVuSans-73" x="322.457031"/>
     </g>
    </g>
    <g id="line2d_17">
     <path d="M 343.396875 37.038807 
L 353.396875 37.038807 
L 363.396875 37.038807 
" style="fill: none; stroke: #ff7f0e; stroke-width: 1.5; stroke-linecap: square"/>
    </g>
    <g id="text_17">
     <!-- Foxes -->
     <g transform="translate(371.396875 40.538807)scale(0.1 -0.1)">
      <defs>
       <path id="DejaVuSans-46" d="M 628 4666 
L 3309 4666 
L 3309 4134 
L 1259 4134 
L 1259 2759 
L 3109 2759 
L 3109 2228 
L 1259 2228 
L 1259 0 
L 628 0 
L 628 4666 
z
" transform="scale(0.015625)"/>
       <path id="DejaVuSans-6f" d="M 1959 3097 
Q 1497 3097 1228 2736 
Q 959 2375 959 1747 
Q 959 1119 1226 758 
Q 1494 397 1959 397 
Q 2419 397 2687 759 
Q 2956 1122 2956 1747 
Q 2956 2369 2687 2733 
Q 2419 3097 1959 3097 
z
M 1959 3584 
Q 2709 3584 3137 3096 
Q 3566 2609 3566 1747 
Q 3566 888 3137 398 
Q 2709 -91 1959 -91 
Q 1206 -91 779 398 
Q 353 888 353 1747 
Q 353 2609 779 3096 
Q 1206 3584 1959 3584 
z
" transform="scale(0.015625)"/>
       <path id="DejaVuSans-78" d="M 3513 3500 
L 2247 1797 
L 3578 0 
L 2900 0 
L 1881 1375 
L 863 0 
L 184 0 
L 1544 1831 
L 300 3500 
L 978 3500 
L 1906 2253 
L 2834 3500 
L 3513 3500 
z
" transform="scale(0.015625)"/>
      </defs>
      <use xlink:href="#DejaVuSans-46"/>
      <use xlink:href="#DejaVuSans-6f" x="53.894531"/>
      <use xlink:href="#DejaVuSans-78" x="111.951172"/>
      <use xlink:href="#DejaVuSans-65" x="168.005859"/>
      <use xlink:href="#DejaVuSans-73" x="229.529297"/>
     </g>
    </g>
   </g>
  </g>
  <g id="axes_2">
   <g id="patch_8">
    <path d="M 465.653125 386.165367 
L 849.265625 386.165367 
L 849.265625 9.262244 
L 465.653125 9.262244 
z
" style="fill: #ffffff"/>
   </g>
   <g id="matplotlib.axis_3">
    <g id="xtick_7">
     <g id="line2d_18">
      <g>
       <use xlink:href="#mdfb66e8667" x="484.986823" y="386.165367" style="stroke: #000000; stroke-width: 0.8"/>
      </g>
     </g>
     <g id="text_18">
      <!-- 4 -->
      <g transform="translate(481.805573 400.763804)scale(0.1 -0.1)">
       <use xlink:href="#DejaVuSans-34"/>
      </g>
     </g>
    </g>
    <g id="xtick_8">
     <g id="line2d_19">
      <g>
       <use xlink:href="#mdfb66e8667" x="560.258629" y="386.165367" style="stroke: #000000; stroke-width: 0.8"/>
      </g>
     </g>
     <g id="text_19">
      <!-- 5 -->
      <g transform="translate(557.077379 400.763804)scale(0.1 -0.1)">
       <use xlink:href="#DejaVuSans-35"/>
      </g>
     </g>
    </g>
    <g id="xtick_9">
     <g id="line2d_20">
      <g>
       <use xlink:href="#mdfb66e8667" x="635.530435" y="386.165367" style="stroke: #000000; stroke-width: 0.8"/>
      </g>
     </g>
     <g id="text_20">
      <!-- 6 -->
      <g transform="translate(632.349185 400.763804)scale(0.1 -0.1)">
       <use xlink:href="#DejaVuSans-36"/>
      </g>
     </g>
    </g>
    <g id="xtick_10">
     <g id="line2d_21">
      <g>
       <use xlink:href="#mdfb66e8667" x="710.802241" y="386.165367" style="stroke: #000000; stroke-width: 0.8"/>
      </g>
     </g>
     <g id="text_21">
      <!-- 7 -->
      <g transform="translate(707.620991 400.763804)scale(0.1 -0.1)">
       <use xlink:href="#DejaVuSans-37"/>
      </g>
     </g>
    </g>
    <g id="xtick_11">
     <g id="line2d_22">
      <g>
       <use xlink:href="#mdfb66e8667" x="786.074047" y="386.165367" style="stroke: #000000; stroke-width: 0.8"/>
      </g>
     </g>
     <g id="text_22">
      <!-- 8 -->
      <g transform="translate(782.892797 400.763804)scale(0.1 -0.1)">
       <use xlink:href="#DejaVuSans-38"/>
      </g>
     </g>
    </g>
    <g id="text_23">
     <!-- Rabbit population -->
     <g transform="translate(613.139844 414.441929)scale(0.1 -0.1)">
      <defs>
       <path id="DejaVuSans-20" transform="scale(0.015625)"/>
       <path id="DejaVuSans-70" d="M 1159 525 
L 1159 -1331 
L 581 -1331 
L 581 3500 
L 1159 3500 
L 1159 2969 
Q 1341 3281 1617 3432 
Q 1894 3584 2278 3584 
Q 2916 3584 3314 3078 
Q 3713 2572 3713 1747 
Q 3713 922 3314 415 
Q 2916 -91 2278 -91 
Q 1894 -91 1617 61 
Q 1341 213 1159 525 
z
M 3116 1747 
Q 3116 2381 2855 2742 
Q 2594 3103 2138 3103 
Q 1681 3103 1420 2742 
Q 1159 2381 1159 1747 
Q 1159 1113 1420 752 
Q 1681 391 2138 391 
Q 2594 391 2855 752 
Q 3116 1113 3116 1747 
z
" transform="scale(0.015625)"/>
       <path id="DejaVuSans-6c" d="M 603 4863 
L 1178 4863 
L 1178 0 
L 603 0 
L 603 4863 
z
" transform="scale(0.015625)"/>
       <path id="DejaVuSans-6e" d="M 3513 2113 
L 3513 0 
L 2938 0 
L 2938 2094 
Q 2938 2591 2744 2837 
Q 2550 3084 2163 3084 
Q 1697 3084 1428 2787 
Q 1159 2491 1159 1978 
L 1159 0 
L 581 0 
L 581 3500 
L 1159 3500 
L 1159 2956 
Q 1366 3272 1645 3428 
Q 1925 3584 2291 3584 
Q 2894 3584 3203 3211 
Q 3513 2838 3513 2113 
z
" transform="scale(0.015625)"/>
      </defs>
      <use xlink:href="#DejaVuSans-52"/>
      <use xlink:href="#DejaVuSans-61" x="67.232422"/>
      <use xlink:href="#DejaVuSans-62" x="128.511719"/>
      <use xlink:href="#DejaVuSans-62" x="191.988281"/>
      <use xlink:href="#DejaVuSans-69" x="255.464844"/>
      <use xlink:href="#DejaVuSans-74" x="283.248047"/>
      <use xlink:href="#DejaVuSans-20" x="322.457031"/>
      <use xlink:href="#DejaVuSans-70" x="354.244141"/>
      <use xlink:href="#DejaVuSans-6f" x="417.720703"/>
      <use xlink:href="#DejaVuSans-70" x="478.902344"/>
      <use xlink:href="#DejaVuSans-75" x="542.378906"/>
      <use xlink:href="#DejaVuSans-6c" x="605.757812"/>
      <use xlink:href="#DejaVuSans-61" x="633.541016"/>
      <use xlink:href="#DejaVuSans-74" x="694.820312"/>
      <use xlink:href="#DejaVuSans-69" x="734.029297"/>
      <use xlink:href="#DejaVuSans-6f" x="761.8125"/>
      <use xlink:href="#DejaVuSans-6e" x="822.994141"/>
     </g>
    </g>
   </g>
   <g id="matplotlib.axis_4">
    <g id="ytick_8">
     <g id="line2d_23">
      <g>
       <use xlink:href="#m11361fed71" x="465.653125" y="370.127172" style="stroke: #000000; stroke-width: 0.8"/>
      </g>
     </g>
     <g id="text_24">
      <!-- 1.4 -->
      <g transform="translate(442.75 373.926391)scale(0.1 -0.1)">
       <defs>
        <path id="DejaVuSans-2e" d="M 684 794 
L 1344 794 
L 1344 0 
L 684 0 
L 684 794 
z
" transform="scale(0.015625)"/>
       </defs>
       <use xlink:href="#DejaVuSans-31"/>
       <use xlink:href="#DejaVuSans-2e" x="63.623047"/>
       <use xlink:href="#DejaVuSans-34" x="95.410156"/>
      </g>
     </g>
    </g>
    <g id="ytick_9">
     <g id="line2d_24">
      <g>
       <use xlink:href="#m11361fed71" x="465.653125" y="318.823179" style="stroke: #000000; stroke-width: 0.8"/>
      </g>
     </g>
     <g id="text_25">
      <!-- 1.6 -->
      <g transform="translate(442.75 322.622398)scale(0.1 -0.1)">
       <use xlink:href="#DejaVuSans-31"/>
       <use xlink:href="#DejaVuSans-2e" x="63.623047"/>
       <use xlink:href="#DejaVuSans-36" x="95.410156"/>
      </g>
     </g>
    </g>
    <g id="ytick_10">
     <g id="line2d_25">
      <g>
       <use xlink:href="#m11361fed71" x="465.653125" y="267.519186" style="stroke: #000000; stroke-width: 0.8"/>
      </g>
     </g>
     <g id="text_26">
      <!-- 1.8 -->
      <g transform="translate(442.75 271.318404)scale(0.1 -0.1)">
       <use xlink:href="#DejaVuSans-31"/>
       <use xlink:href="#DejaVuSans-2e" x="63.623047"/>
       <use xlink:href="#DejaVuSans-38" x="95.410156"/>
      </g>
     </g>
    </g>
    <g id="ytick_11">
     <g id="line2d_26">
      <g>
       <use xlink:href="#m11361fed71" x="465.653125" y="216.215192" style="stroke: #000000; stroke-width: 0.8"/>
      </g>
     </g>
     <g id="text_27">
      <!-- 2.0 -->
      <g transform="translate(442.75 220.014411)scale(0.1 -0.1)">
       <use xlink:href="#DejaVuSans-32"/>
       <use xlink:href="#DejaVuSans-2e" x="63.623047"/>
       <use xlink:href="#DejaVuSans-30" x="95.410156"/>
      </g>
     </g>
    </g>
    <g id="ytick_12">
     <g id="line2d_27">
      <g>
       <use xlink:href="#m11361fed71" x="465.653125" y="164.911199" style="stroke: #000000; stroke-width: 0.8"/>
      </g>
     </g>
     <g id="text_28">
      <!-- 2.2 -->
      <g transform="translate(442.75 168.710418)scale(0.1 -0.1)">
       <use xlink:href="#DejaVuSans-32"/>
       <use xlink:href="#DejaVuSans-2e" x="63.623047"/>
       <use xlink:href="#DejaVuSans-32" x="95.410156"/>
      </g>
     </g>
    </g>
    <g id="ytick_13">
     <g id="line2d_28">
      <g>
       <use xlink:href="#m11361fed71" x="465.653125" y="113.607206" style="stroke: #000000; stroke-width: 0.8"/>
      </g>
     </g>
     <g id="text_29">
      <!-- 2.4 -->
      <g transform="translate(442.75 117.406424)scale(0.1 -0.1)">
       <use xlink:href="#DejaVuSans-32"/>
       <use xlink:href="#DejaVuSans-2e" x="63.623047"/>
       <use xlink:href="#DejaVuSans-34" x="95.410156"/>
      </g>
     </g>
    </g>
    <g id="ytick_14">
     <g id="line2d_29">
      <g>
       <use xlink:href="#m11361fed71" x="465.653125" y="62.303212" style="stroke: #000000; stroke-width: 0.8"/>
      </g>
     </g>
     <g id="text_30">
      <!-- 2.6 -->
      <g transform="translate(442.75 66.102431)scale(0.1 -0.1)">
       <use xlink:href="#DejaVuSans-32"/>
       <use xlink:href="#DejaVuSans-2e" x="63.623047"/>
       <use xlink:href="#DejaVuSans-36" x="95.410156"/>
      </g>
     </g>
    </g>
    <g id="ytick_15">
     <g id="line2d_30">
      <g>
       <use xlink:href="#m11361fed71" x="465.653125" y="10.999219" style="stroke: #000000; stroke-width: 0.8"/>
      </g>
     </g>
     <g id="text_31">
      <!-- 2.8 -->
      <g transform="translate(442.75 14.798437)scale(0.1 -0.1)">
       <use xlink:href="#DejaVuSans-32"/>
       <use xlink:href="#DejaVuSans-2e" x="63.623047"/>
       <use xlink:href="#DejaVuSans-38" x="95.410156"/>
      </g>
     </g>
    </g>
    <g id="text_32">
     <!-- Foxes population -->
     <g transform="translate(436.670313 239.99193)rotate(-90)scale(0.1 -0.1)">
      <use xlink:href="#DejaVuSans-46"/>
      <use xlink:href="#DejaVuSans-6f" x="53.894531"/>
      <use xlink:href="#DejaVuSans-78" x="111.951172"/>
      <use xlink:href="#DejaVuSans-65" x="168.005859"/>
      <use xlink:href="#DejaVuSans-73" x="229.529297"/>
      <use xlink:href="#DejaVuSans-20" x="281.628906"/>
      <use xlink:href="#DejaVuSans-70" x="313.416016"/>
      <use xlink:href="#DejaVuSans-6f" x="376.892578"/>
      <use xlink:href="#DejaVuSans-70" x="438.074219"/>
      <use xlink:href="#DejaVuSans-75" x="501.550781"/>
      <use xlink:href="#DejaVuSans-6c" x="564.929688"/>
      <use xlink:href="#DejaVuSans-61" x="592.712891"/>
      <use xlink:href="#DejaVuSans-74" x="653.992188"/>
      <use xlink:href="#DejaVuSans-69" x="693.201172"/>
      <use xlink:href="#DejaVuSans-6f" x="720.984375"/>
      <use xlink:href="#DejaVuSans-6e" x="782.166016"/>
     </g>
    </g>
   </g>
   <g id="line2d_31">
    <path d="M 484.986823 216.215192 
L 485.046841 221.319346 
L 485.226124 226.368725 
L 485.52356 231.360034 
L 485.938095 236.290148 
L 486.468729 241.156112 
L 487.114522 245.955141 
L 487.874586 250.684621 
L 488.748095 255.34211 
L 489.731775 259.926242 
L 490.822355 264.436092 
L 492.020301 268.869612 
L 493.326032 273.224802 
L 494.739903 277.499714 
L 496.262203 281.692456 
L 497.893157 285.801188 
L 499.632925 289.824125 
L 501.481603 293.759537 
L 503.439223 297.605744 
L 505.50575 301.361125 
L 507.681088 305.024108 
L 509.965073 308.593179 
L 512.357478 312.066874 
L 514.858012 315.443787 
L 517.466318 318.722562 
L 520.181975 321.901899 
L 523.004498 324.980551 
L 525.933337 327.957326 
L 528.967877 330.831085 
L 532.107439 333.600743 
L 535.351278 336.265268 
L 538.698587 338.823684 
L 542.148493 341.275067 
L 545.700057 343.618546 
L 549.352279 345.853308 
L 553.104089 347.978589 
L 556.954359 349.993682 
L 560.90189 351.897933 
L 564.945424 353.69074 
L 569.083635 355.371559 
L 573.315132 356.939897 
L 577.638462 358.395313 
L 582.052106 359.737425 
L 586.55448 360.965901 
L 591.143936 362.080463 
L 595.818762 363.08089 
L 600.57718 363.96701 
L 605.417348 364.738709 
L 610.33736 365.395925 
L 615.335245 365.93865 
L 620.409022 366.367708 
L 625.556121 366.682999 
L 630.773108 366.880911 
L 636.056254 366.957866 
L 641.401555 366.910436 
L 646.80473 366.735336 
L 652.261222 366.429431 
L 657.766199 365.989733 
L 663.31455 365.413401 
L 668.900891 364.697743 
L 674.519558 363.840212 
L 680.164614 362.838409 
L 685.829844 361.690085 
L 691.508757 360.393136 
L 697.194585 358.945604 
L 702.880285 357.345682 
L 708.558537 355.591709 
L 714.221745 353.68217 
L 719.862036 351.615699 
L 725.471261 349.391077 
L 731.040996 347.007232 
L 736.562538 344.46324 
L 742.02691 341.758325 
L 747.424858 338.891857 
L 752.746852 335.863354 
L 757.983084 332.672482 
L 763.123473 329.319053 
L 768.157657 325.803028 
L 773.075003 322.124514 
L 777.864598 318.283768 
L 782.515253 314.28119 
L 787.015505 310.117332 
L 791.353612 305.792891 
L 795.517557 301.308712 
L 799.495047 296.665786 
L 803.273512 291.865254 
L 806.840106 286.908403 
L 810.181706 281.796667 
L 813.284914 276.531628 
L 816.136056 271.115016 
L 818.721179 265.548707 
L 821.027358 259.833139 
L 823.049574 253.964414 
L 824.77968 247.951451 
L 826.209423 241.805182 
L 827.331496 235.536706 
L 828.139537 229.15729 
L 828.628135 222.678369 
L 828.792823 216.111545 
L 828.630084 209.468589 
L 828.137346 202.761439 
L 827.312986 196.002201 
L 826.156328 189.203148 
L 824.667642 182.376722 
L 822.848147 175.535532 
L 820.700009 168.692355 
L 818.226339 161.860136 
L 815.431198 155.051987 
L 812.319594 148.281189 
L 808.897481 141.561189 
L 805.17176 134.905604 
L 801.150282 128.328217 
L 796.841843 121.842979 
L 792.256186 115.46401 
L 787.404002 109.205597 
L 782.296931 103.082194 
L 776.947557 97.108424 
L 771.369414 91.299077 
L 765.576981 85.669111 
L 759.585686 80.233652 
L 753.411905 75.007994 
L 747.072958 70.007597 
L 740.587511 65.248372 
L 733.999023 60.762066 
L 727.333656 56.563858 
L 720.600184 52.655504 
L 713.807518 49.038516 
L 706.964706 45.714158 
L 700.080934 42.683448 
L 693.165524 39.947155 
L 686.227934 37.505805 
L 679.27776 35.359675 
L 672.324735 33.508795 
L 665.378729 31.952948 
L 658.449747 30.691672 
L 651.547935 29.724257 
L 644.683571 29.049747 
L 637.867073 28.666937 
L 631.108996 28.574379 
L 624.42003 28.770376 
L 617.811004 29.252983 
L 611.292882 30.020011 
L 604.876766 31.069022 
L 598.573896 32.397333 
L 592.395646 34.002014 
L 586.35353 35.879887 
L 580.459196 38.027527 
L 574.724432 40.441265 
L 569.16116 43.117182 
L 563.781441 46.051115 
L 558.597472 49.238651 
L 553.621587 52.675135 
L 548.866257 56.35566 
L 544.34409 60.275076 
L 540.037769 64.406273 
L 535.884704 68.691299 
L 531.884752 73.119372 
L 528.040287 77.681857 
L 524.353411 82.370203 
L 520.825943 87.17595 
L 517.459429 92.090725 
L 514.255135 97.106241 
L 511.214049 102.214302 
L 508.336884 107.406798 
L 505.624073 112.675707 
L 503.075774 118.013094 
L 500.691866 123.411115 
L 498.47195 128.862009 
L 496.415351 134.358107 
L 494.521115 139.891826 
L 492.788013 145.455672 
L 491.214535 151.042236 
L 489.798897 156.644201 
L 488.539036 162.254334 
L 487.43261 167.865493 
L 486.477003 173.470622 
L 485.669318 179.062753 
L 485.006382 184.635005 
L 484.484747 190.180588 
L 484.100683 195.692796 
L 483.850185 201.165014 
L 483.728971 206.590713 
L 483.732481 211.963451 
L 483.855876 217.276877 
L 484.094042 222.524725 
L 484.892839 232.799066 
L 486.082401 242.738113 
L 487.613931 252.29683 
L 488.522548 256.947221 
L 489.541605 261.52349 
L 490.67104 266.023519 
L 491.910758 270.445256 
L 493.260637 274.786714 
L 494.720521 279.045974 
L 496.290227 283.221181 
L 497.969539 287.310547 
L 499.758212 291.312349 
L 501.655971 295.224933 
L 503.662509 299.046707 
L 505.777491 302.776148 
L 508.000549 306.411797 
L 510.331287 309.952262 
L 512.769278 313.396216 
L 515.314064 316.7424 
L 517.965157 319.989618 
L 520.722039 323.136744 
L 523.584161 326.182714 
L 526.550945 329.126532 
L 529.62178 331.967269 
L 532.796029 334.704058 
L 536.07302 337.336103 
L 539.452053 339.862671 
L 542.932398 342.283094 
L 546.513294 344.596774 
L 550.19395 346.803176 
L 553.973543 348.90183 
L 557.851223 350.892335 
L 561.826107 352.774355 
L 565.897282 354.547618 
L 570.063805 356.21192 
L 574.324703 357.767123 
L 578.678973 359.213154 
L 583.125581 360.550007 
L 587.661101 361.777604 
L 592.279692 362.894522 
L 596.980661 363.898579 
L 601.763171 364.787625 
L 606.62605 365.55955 
L 611.56779 366.21228 
L 616.586548 366.743779 
L 621.680145 367.15205 
L 626.846065 367.435133 
L 632.081459 367.591109 
L 637.383142 367.618094 
L 642.74759 367.514243 
L 648.170948 367.27775 
L 653.649023 366.906847 
L 659.177285 366.399803 
L 664.750873 365.754927 
L 670.364585 364.970565 
L 676.012887 364.0451 
L 681.689908 362.976956 
L 687.389442 361.764593 
L 693.104948 360.406509 
L 698.829546 358.901242 
L 704.556025 357.247367 
L 710.276835 355.443497 
L 715.984093 353.488283 
L 721.669577 351.380416 
L 727.324734 349.118621 
L 732.940671 346.701667 
L 738.508162 344.128355 
L 744.017645 341.39753 
L 749.459221 338.50807 
L 754.822657 335.458895 
L 760.097384 332.24896 
L 765.272497 328.877262 
L 770.336755 325.342832 
L 775.278583 321.644743 
L 780.08607 317.782102 
L 784.746967 313.754058 
L 789.248692 309.559796 
L 793.578328 305.19854 
L 797.722618 300.669552 
L 801.667993 295.972135 
L 805.412973 291.109192 
L 808.951935 286.084901 
L 812.268338 280.901626 
L 815.346709 275.562346 
L 818.172649 270.070653 
L 820.732825 264.430751 
L 823.014979 258.647461 
L 825.007922 252.726216 
L 826.701534 246.673062 
L 828.086767 240.49466 
L 829.155645 234.198285 
L 829.90126 227.791826 
L 830.317776 221.283785 
L 830.400426 214.683277 
L 830.145516 208.000033 
L 829.550421 201.244396 
L 828.613587 194.427324 
L 827.334531 187.560388 
L 825.713838 180.655773 
L 823.753168 173.726278 
L 821.455248 166.785316 
L 818.823877 159.846914 
L 815.863924 152.925711 
L 812.58133 146.036962 
L 808.983104 139.196535 
L 805.077328 132.420911 
L 800.873153 125.727187 
L 796.380802 119.133071 
L 791.611567 112.656887 
L 786.577812 106.317571 
L 781.29297 100.134676 
L 775.774356 94.129297 
L 770.061127 88.326787 
L 764.16983 82.738827 
L 758.110769 77.37398 
L 751.894526 72.240422 
L 745.531958 67.345944 
L 739.0342 62.697948 
L 732.412661 58.303453 
L 725.679029 54.169087 
L 718.845269 50.301094 
L 711.923619 46.705331 
L 704.926596 43.387268 
L 697.866995 40.351988 
L 690.757884 37.604189 
L 683.612609 35.14818 
L 676.444794 32.987886 
L 669.268337 31.126842 
L 662.097414 29.5682 
L 654.946477 28.314723 
L 647.830255 27.368788 
L 640.763754 26.732385 
L 633.762253 26.407118 
L 626.841313 26.394204 
L 620.016767 26.694474 
L 613.304727 27.308371 
L 606.72158 28.235952 
L 600.283991 29.476888 
L 594.0089 31.030463 
L 587.913524 32.895573 
L 582.015357 35.07073 
L 576.332169 37.554057 
L 570.882007 40.343292 
L 565.65179 43.411895 
L 560.579818 46.69825 
L 555.666448 50.190202 
L 550.914433 53.877778 
L 546.326186 57.751065 
L 541.903778 61.800211 
L 537.648938 66.015424 
L 533.563054 70.386975 
L 529.647172 74.905191 
L 525.901998 79.560463 
L 522.327894 84.343242 
L 518.924883 89.244037 
L 515.692644 94.25342 
L 512.630518 99.362023 
L 509.737501 104.560537 
L 507.012249 109.839716 
L 504.453077 115.190372 
L 502.057958 120.603378 
L 499.824523 126.06967 
L 497.750061 131.58024 
L 495.831523 137.126144 
L 494.065514 142.698497 
L 492.4483 148.288475 
L 490.975805 153.887313 
L 489.643612 159.486309 
L 488.446961 165.07682 
L 487.380752 170.650263 
L 486.439543 176.198116 
L 484.908651 187.183265 
L 483.81627 197.976913 
L 483.450886 203.311748 
L 483.209174 208.604282 
L 483.090057 213.850565 
L 483.092489 219.046796 
L 483.215455 224.189321 
L 483.457969 229.274636 
L 483.819076 234.299386 
L 484.297852 239.260365 
L 484.893401 244.154515 
L 485.604861 248.978925 
L 486.431396 253.730835 
L 487.372205 258.407634 
L 488.426513 263.006858 
L 489.593578 267.526192 
L 490.872688 271.963471 
L 492.263161 276.316677 
L 493.764345 280.583941 
L 495.375619 284.763544 
L 497.096391 288.853915 
L 498.926102 292.853631 
L 500.86422 296.761418 
L 502.910246 300.576151 
L 505.063711 304.296853 
L 507.324174 307.922698 
L 509.691227 311.453004 
L 512.164491 314.887244 
L 514.743619 318.225033 
L 517.428292 321.46614 
L 520.218222 324.61048 
L 523.113102 327.658101 
L 526.107242 330.607023 
L 529.198065 333.455219 
L 532.387067 336.201839 
L 535.675516 338.846011 
L 539.064448 341.386838 
L 542.554674 343.8234 
L 546.146774 346.154752 
L 549.8411 348.379929 
L 553.637775 350.497938 
L 557.536694 352.507766 
L 561.537522 354.408376 
L 565.639696 356.198704 
L 569.842425 357.877667 
L 574.144687 359.444156 
L 578.545234 360.897039 
L 583.042588 362.23516 
L 587.635041 363.45734 
L 592.320658 364.562377 
L 597.097275 365.549044 
L 601.962498 366.416091 
L 606.913706 367.162245 
L 611.948049 367.78621 
L 617.062447 368.286664 
L 622.253591 368.662264 
L 627.517946 368.911642 
L 632.851746 369.033407 
L 638.250995 369.026144 
L 643.711473 368.888416 
L 649.228725 368.618761 
L 654.798073 368.215692 
L 660.414607 367.677703 
L 666.073188 367.003259 
L 671.76845 366.190806 
L 677.494798 365.238763 
L 683.246406 364.145528 
L 689.017223 362.909474 
L 694.800967 361.528952 
L 700.591126 360.002287 
L 706.380962 358.327782 
L 712.163506 356.503716 
L 717.931563 354.528346 
L 723.684085 352.404759 
L 729.430619 350.144647 
L 735.156409 347.741925 
L 740.845182 345.189727 
L 746.481059 342.48185 
L 752.048557 339.612751 
L 757.532586 336.57755 
L 762.918452 333.372027 
L 768.191858 329.992623 
L 773.338899 326.436442 
L 778.346067 322.70125 
L 783.200247 318.78547 
L 787.888721 314.688193 
L 792.399164 310.409166 
L 796.719649 305.948799 
L 800.838639 301.308166 
L 804.744998 296.488998 
L 808.42798 291.49369 
L 811.877237 286.3253 
L 815.082814 280.987543 
L 818.035152 275.484799 
L 820.725087 269.822109 
L 823.14385 264.005174 
L 825.283066 258.040356 
L 827.134757 251.934682 
L 828.691337 245.695837 
L 829.945618 239.332168 
L 830.890804 232.852683 
L 831.520498 226.267055 
L 831.828693 219.585613 
L 831.809781 212.819352 
L 831.458548 205.979925 
L 830.770172 199.079648 
L 829.740231 192.1315 
L 828.364694 185.149119 
L 826.639926 178.146804 
L 824.561481 171.137827 
L 822.101362 164.097978 
L 819.263328 157.035397 
L 816.066466 149.977199 
L 812.529555 142.949353 
L 808.671066 135.976681 
L 804.509163 129.082857 
L 800.061703 122.290408 
L 795.346234 115.620715 
L 790.379997 109.094009 
L 785.179925 102.729377 
L 779.762646 96.544757 
L 774.144478 90.556939 
L 768.341431 84.781568 
L 762.36921 79.23314 
L 756.243209 73.925005 
L 749.978519 68.869365 
L 743.589919 64.077275 
L 737.091884 59.558643 
L 730.498578 55.322229 
L 723.823861 51.375647 
L 717.081283 47.725363 
L 710.284088 44.376696 
L 703.445211 41.333818 
L 696.57728 38.599753 
L 689.692617 36.176379 
L 682.803233 34.064426 
L 675.920836 32.263476 
L 669.056823 30.771965 
L 662.222285 29.587183 
L 655.428004 28.70527 
L 648.684456 28.121219 
L 642.00181 27.82888 
L 635.389925 27.820949 
L 628.858355 28.088982 
L 622.416344 28.623381 
L 616.072832 29.413406 
L 609.838756 30.462563 
L 603.726664 31.79217 
L 597.743693 33.395131 
L 591.896319 35.263311 
L 586.190492 37.388415 
L 580.631644 39.761991 
L 575.224682 42.37543 
L 569.973994 45.219963 
L 564.883444 48.286665 
L 559.956374 51.566453 
L 555.195606 55.050086 
L 550.603439 58.728166 
L 546.18165 62.591134 
L 541.931494 66.629278 
L 537.853705 70.832724 
L 533.948493 75.191442 
L 530.21555 79.695246 
L 526.654042 84.333789 
L 523.262615 89.096567 
L 520.039393 93.97292 
L 516.981979 98.952029 
L 514.087453 104.022916 
L 511.352372 109.174447 
L 508.772774 114.39533 
L 506.344174 119.674114 
L 504.061562 124.999191 
L 501.919412 130.358796 
L 499.911671 135.741005 
L 498.031766 141.133736 
L 496.272886 146.52508 
L 494.644774 151.922521 
L 493.154362 157.329655 
L 491.800133 162.740261 
L 490.580599 168.148329 
L 489.494302 173.548057 
L 488.539811 178.93385 
L 487.715723 184.300323 
L 487.020665 189.642299 
L 486.453291 194.954807 
L 486.012283 200.233086 
L 485.696352 205.472583 
L 485.504239 210.668953 
L 485.434709 215.818059 
L 485.48656 220.915974 
L 485.658616 225.958976 
L 485.949729 230.943553 
L 486.35878 235.866402 
L 486.884679 240.724426 
L 487.526362 245.514739 
L 488.282797 250.234661 
L 489.152977 254.88172 
L 490.135926 259.453655 
L 491.230693 263.948409 
L 492.436358 268.364138 
L 493.752029 272.699201 
L 495.176842 276.95217 
L 496.709961 281.121822 
L 498.350578 285.207144 
L 500.097915 289.20733 
L 501.950496 293.121605 
L 503.903877 296.948124 
L 505.958413 300.685485 
L 508.115177 304.332441 
L 510.375105 307.887761 
L 512.739003 311.350222 
L 515.207546 314.718612 
L 517.781274 317.991733 
L 520.460595 321.168394 
L 523.245788 324.247417 
L 526.136994 327.227636 
L 529.134226 330.107894 
L 532.237364 332.887046 
L 535.446153 335.563957 
L 538.760208 338.137506 
L 542.179011 340.606579 
L 545.701912 342.970075 
L 549.328128 345.226904 
L 553.056743 347.375987 
L 556.886711 349.416257 
L 560.81685 351.346655 
L 564.845849 353.166135 
L 568.972264 354.873663 
L 573.194515 356.468215 
L 577.510895 357.948776 
L 581.919562 359.314346 
L 586.41854 360.563932 
L 591.005723 361.696556 
L 595.678872 362.711246 
L 600.435616 363.607046 
L 605.27345 364.383009 
L 610.189738 365.038197 
L 615.181712 365.571687 
L 620.24647 365.982564 
L 625.380979 366.269924 
L 630.582073 366.432876 
L 635.846454 366.470538 
L 641.170691 366.382041 
L 646.55122 366.166524 
L 651.984347 365.823141 
L 657.466244 365.351054 
L 662.99295 364.749437 
L 674.189798 363.177556 
L 679.858163 362.211057 
L 685.559815 361.115805 
L 691.284479 359.88577 
L 697.021896 358.515335 
L 702.761821 356.999302 
L 708.49402 355.332887 
L 714.208276 353.511723 
L 719.894384 351.531859 
L 725.542152 349.38976 
L 731.141406 347.082306 
L 736.68198 344.606796 
L 742.153725 341.960941 
L 747.546508 339.142873 
L 752.850204 336.151135 
L 758.054708 332.98469 
L 763.149924 329.642915 
L 768.125773 326.125603 
L 772.972188 322.432966 
L 777.679117 318.565627 
L 782.23652 314.52463 
L 786.634373 310.311433 
L 790.862665 305.927909 
L 794.911398 301.376349 
L 798.770589 296.659459 
L 802.430268 291.780361 
L 805.88048 286.742594 
L 809.111282 281.550113 
L 812.112746 276.207288 
L 814.874957 270.718906 
L 817.388016 265.09017 
L 819.642035 259.326699 
L 821.627141 253.434527 
L 823.333475 247.420107 
L 824.751193 241.290304 
L 825.870461 235.052403 
L 826.681463 228.714102 
L 827.174395 222.283518 
L 827.339467 215.769182 
L 827.166902 209.18004 
L 826.64307 202.517943 
L 825.744894 195.757281 
L 824.479405 188.91642 
L 822.857755 182.019826 
L 820.891158 175.091091 
L 818.590886 168.152929 
L 815.968272 161.227181 
L 813.034712 154.334812 
L 809.801658 147.495911 
L 806.280627 140.729693 
L 802.483195 134.054497 
L 798.420995 127.487786 
L 794.105726 121.046149 
L 789.549145 114.745299 
L 784.763067 108.600075 
L 779.759372 102.624438 
L 774.549997 96.831476 
L 769.146942 91.233402 
L 763.562264 85.841552 
L 757.808085 80.666388 
L 751.896585 75.717496 
L 745.840003 71.003586 
L 739.650641 66.532495 
L 733.34086 62.311184 
L 726.923083 58.345736 
L 720.409791 54.641362 
L 713.813529 51.202397 
L 707.146899 48.0323 
L 700.422565 45.133655 
L 693.653251 42.508171 
L 686.851743 40.15668 
L 680.030885 38.079142 
L 673.203583 36.274639 
L 666.382804 34.741379 
L 659.584123 33.481248 
L 652.839638 32.526751 
L 646.163317 31.881361 
L 639.564169 31.540472 
L 633.050769 31.499193 
L 626.631249 31.752341 
L 620.313306 32.294447 
L 614.104195 33.119753 
L 608.010735 34.222211 
L 602.039306 35.595485 
L 596.195848 37.232952 
L 590.485864 39.127697 
L 584.914416 41.27252 
L 579.48613 43.65993 
L 574.205193 46.282149 
L 569.075351 49.13111 
L 564.099913 52.198455 
L 559.281751 55.475541 
L 554.623295 58.953435 
L 550.126539 62.622915 
L 545.793036 66.474471 
L 541.623903 70.498303 
L 537.619818 74.684324 
L 533.781017 79.022159 
L 530.107301 83.501141 
L 526.598032 88.110319 
L 523.252131 92.83845 
L 520.068083 97.674003 
L 517.043933 102.60516 
L 514.177287 107.619813 
L 511.465313 112.705565 
L 508.904741 117.849732 
L 506.491862 123.03934 
L 504.222867 128.262774 
L 502.097591 133.524619 
L 500.115225 138.821251 
L 498.274322 144.145547 
L 496.573442 149.490604 
L 495.011152 154.849745 
L 493.586032 160.216513 
L 492.296669 165.584673 
L 491.141659 170.948213 
L 490.119606 176.301342 
L 489.229125 181.638493 
L 488.46884 186.954319 
L 487.837382 192.243697 
L 487.333394 197.501726 
L 486.955524 202.723724 
L 486.702432 207.905236 
L 486.572787 213.042026 
L 486.565266 218.130081 
L 486.678555 223.16561 
L 486.91135 228.145043 
L 487.262354 233.065036 
L 487.730283 237.922462 
L 488.313857 242.71442 
L 489.011808 247.43823 
L 489.822877 252.091433 
L 490.745813 256.671793 
L 491.779374 261.177297 
L 492.922329 265.606154 
L 494.173454 269.956793 
L 495.531533 274.227867 
L 496.994803 278.418292 
L 498.56014 282.527055 
L 500.228067 286.552639 
L 501.999468 290.493504 
L 503.875119 294.348135 
L 505.855693 298.115048 
L 507.941753 301.792784 
L 510.13376 305.379912 
L 512.432065 308.875031 
L 514.836917 312.276764 
L 517.348455 315.583765 
L 519.966715 318.794713 
L 522.691624 321.908316 
L 525.523006 324.923311 
L 528.460575 327.838459 
L 531.503944 330.652552 
L 534.652614 333.364408 
L 537.905985 335.972873 
L 541.263349 338.476821 
L 544.72389 340.875153 
L 548.286689 343.166798 
L 551.950719 345.350713 
L 555.714847 347.425882 
L 559.577834 349.391316 
L 563.538337 351.246057 
L 567.594903 352.98917 
L 571.745976 354.619751 
L 575.989892 356.136922 
L 580.324883 357.539833 
L 584.749072 358.827663 
L 589.260478 359.999616 
L 593.857014 361.054925 
L 598.536486 361.992852 
L 603.296593 362.812685 
L 608.134931 363.51374 
L 613.048986 364.09536 
L 618.036141 364.556917 
L 623.093671 364.89781 
L 628.218746 365.117466 
L 633.408429 365.215338 
L 638.659678 365.190909 
L 643.969344 365.043688 
L 649.33467 364.773717 
L 654.76011 364.38808 
L 660.241779 363.884814 
L 665.772038 363.258447 
L 671.343134 362.503818 
L 676.947207 361.616072 
L 682.576285 360.590666 
L 688.222289 359.423366 
L 693.877026 358.110247 
L 699.532197 356.647694 
L 705.179391 355.032402 
L 710.810089 353.261373 
L 716.415659 351.331921 
L 721.987364 349.24167 
L 727.516352 346.98855 
L 732.993665 344.570803 
L 738.410233 341.986982 
L 743.756877 339.235945 
L 749.024308 336.316863 
L 754.203127 333.229216 
L 759.283825 329.972793 
L 764.256785 326.547691 
L 769.112277 322.954319 
L 773.840464 319.193394 
L 778.431398 315.265943 
L 782.87502 311.173303 
L 787.161164 306.917118 
L 791.279551 302.499345 
L 795.219794 297.922248 
L 798.971397 293.1884 
L 802.523751 288.300686 
L 805.866141 283.2623 
L 808.987739 278.076742 
L 811.877609 272.747826 
L 814.524705 267.279673 
L 816.917871 261.676714 
L 819.04584 255.943689 
L 820.897236 250.085648 
L 822.460575 244.107952 
L 823.724259 238.016267 
L 824.676585 231.816574 
L 825.305679 225.51501 
L 825.593224 219.096537 
L 825.533797 212.562255 
L 825.131352 205.932562 
L 824.390247 199.227327 
L 823.315245 192.465896 
L 821.911514 185.667089 
L 820.184628 178.8492 
L 818.140564 172.03 
L 815.785706 165.226732 
L 813.12684 158.456115 
L 810.171162 151.734342 
L 806.926267 145.077082 
L 803.40016 138.499478 
L 799.601248 132.016146 
L 795.538344 125.64118 
L 791.220666 119.388146 
L 786.657836 113.270085 
L 781.859882 107.299515 
L 776.837237 101.488425 
L 771.600739 95.848281 
L 766.16163 90.390025 
L 760.531558 85.12407 
L 754.722575 80.060306 
L 748.747139 75.208098 
L 742.618113 70.576284 
L 736.348763 66.173179 
L 729.952763 62.006571 
L 723.44419 58.083722 
L 716.837525 54.411371 
L 710.147657 50.99573 
L 703.389878 47.842486 
L 696.579885 44.956801 
L 689.733955 42.343524 
L 682.888047 40.03083 
L 676.066577 38.034224 
L 669.278249 36.350581 
L 662.531532 34.97652 
L 655.834654 33.908404 
L 649.195609 33.142338 
L 642.622149 32.674171 
L 636.121792 32.499496 
L 629.701817 32.613649 
L 623.369263 33.011709 
L 617.130935 33.6885 
L 610.993399 34.638587 
L 604.962981 35.85628 
L 599.045772 37.335632 
L 593.247624 39.070439 
L 587.574152 41.054241 
L 582.030733 43.280322 
L 576.622505 45.741707 
L 571.354371 48.431168 
L 566.230993 51.341217 
L 561.256799 54.464112 
L 556.435974 57.791851 
L 551.772472 61.31618 
L 547.270003 65.028585 
L 542.932043 68.920296 
L 538.761829 72.982288 
L 534.76236 77.205278 
L 530.936399 81.579725 
L 527.286469 86.095835 
L 523.814857 90.743555 
L 520.523611 95.512575 
L 517.414541 100.39233 
L 514.478724 105.368003 
L 511.69468 110.421696 
L 509.06074 115.544713 
L 506.575833 120.728846 
L 504.238849 125.966109 
L 502.048639 131.248738 
L 500.004018 136.569198 
L 498.103764 141.920173 
L 496.346614 147.294572 
L 494.731271 152.68553 
L 493.256397 158.086404 
L 491.920618 163.490774 
L 490.722523 168.892446 
L 489.660662 174.285449 
L 488.733546 179.664034 
L 487.939651 185.022679 
L 487.277413 190.356083 
L 486.745232 195.65917 
L 486.34147 200.92709 
L 486.064449 206.155212 
L 485.912455 211.339133 
L 485.883738 216.474671 
L 485.976507 221.557871 
L 486.188934 226.584999 
L 486.519156 231.552546 
L 486.965268 236.457226 
L 487.52533 241.295978 
L 488.197365 246.065965 
L 488.979355 250.764572 
L 489.869246 255.389409 
L 490.864948 259.938311 
L 491.96503 264.410659 
L 493.170265 268.807155 
L 494.481304 273.125938 
L 495.898699 277.365126 
L 497.42293 281.52288 
L 499.054397 285.597412 
L 500.793427 289.586979 
L 502.64027 293.489883 
L 504.5951 297.304477 
L 506.658015 301.029156 
L 508.829037 304.662366 
L 511.108112 308.202597 
L 513.49511 311.648387 
L 515.989826 314.998322 
L 518.591978 318.251031 
L 521.301208 321.405195 
L 524.117082 324.459537 
L 527.039091 327.412831 
L 530.066649 330.263893 
L 533.199094 333.011591 
L 536.43569 335.654837 
L 539.775622 338.192589 
L 543.218 340.623854 
L 546.761861 342.947685 
L 550.406161 345.163181 
L 554.149784 347.269489 
L 557.991536 349.265802 
L 561.930148 351.15136 
L 565.964274 352.925451 
L 570.092494 354.587407 
L 574.313311 356.13661 
L 578.62515 357.572486 
L 583.026363 358.894511 
L 587.515224 360.102204 
L 592.089933 361.195135 
L 596.748613 362.172917 
L 601.489309 363.035212 
L 606.309995 363.781729 
L 611.208564 364.412222 
L 616.182835 364.926493 
L 621.230552 365.324391 
L 626.349366 365.605774 
L 631.536023 365.768314 
L 636.786898 365.808661 
L 642.098333 365.724095 
L 647.466363 365.511992 
L 652.886718 365.169824 
L 658.354816 364.695156 
L 663.86577 364.085649 
L 669.414385 363.339058 
L 674.99516 362.453235 
L 680.602282 361.426125 
L 686.229636 360.255769 
L 691.870795 358.940302 
L 697.519027 357.477955 
L 703.167291 355.867053 
L 708.808239 354.106017 
L 714.434215 352.193363 
L 720.037256 350.1277 
L 725.609091 347.907733 
L 731.141142 345.532264 
L 736.624522 343.000188 
L 742.050038 340.310494 
L 747.40819 337.462267 
L 752.689167 334.454689 
L 757.882853 331.287034 
L 762.978826 327.958671 
L 767.966352 324.469067 
L 772.834393 320.81778 
L 777.571602 317.004466 
L 782.166325 313.028875 
L 786.6066 308.89085 
L 790.880157 304.590334 
L 794.974419 300.127358 
L 798.876502 295.502055 
L 798.876502 295.502055 
" clip-path="url(#pfbbfb99c66)" style="fill: none; stroke: #000000; stroke-width: 1.5; stroke-linecap: square"/>
   </g>
   <g id="patch_9">
    <path d="M 465.653125 386.165367 
L 465.653125 9.262244 
" style="fill: none; stroke: #000000; stroke-width: 0.8; stroke-linejoin: miter; stroke-linecap: square"/>
   </g>
   <g id="patch_10">
    <path d="M 849.265625 386.165367 
L 849.265625 9.262244 
" style="fill: none; stroke: #000000; stroke-width: 0.8; stroke-linejoin: miter; stroke-linecap: square"/>
   </g>
   <g id="patch_11">
    <path d="M 465.653125 386.165367 
L 849.265625 386.165367 
" style="fill: none; stroke: #000000; stroke-width: 0.8; stroke-linejoin: miter; stroke-linecap: square"/>
   </g>
   <g id="patch_12">
    <path d="M 465.653125 9.262244 
L 849.265625 9.262244 
" style="fill: none; stroke: #000000; stroke-width: 0.8; stroke-linejoin: miter; stroke-linecap: square"/>
   </g>
  </g>
 </g>
 <defs>
  <clipPath id="pa1466f012f">
   <rect x="34.240625" y="9.262244" width="383.6125" height="376.903123"/>
  </clipPath>
  <clipPath id="pfbbfb99c66">
   <rect x="465.653125" y="9.262244" width="383.6125" height="376.903123"/>
  </clipPath>
 </defs>
</svg>
