<?xml version="1.0" encoding="utf-8" standalone="no"?>
<!DOCTYPE svg PUBLIC "-//W3C//DTD SVG 1.1//EN"
  "http://www.w3.org/Graphics/SVG/1.1/DTD/svg11.dtd">
<svg xmlns:xlink="http://www.w3.org/1999/xlink" width="856.38125pt" height="424.15625pt" viewBox="0 0 856.38125 424.15625" xmlns="http://www.w3.org/2000/svg" version="1.1">
 <metadata>
  <rdf:RDF xmlns:dc="http://purl.org/dc/elements/1.1/" xmlns:cc="http://creativecommons.org/ns#" xmlns:rdf="http://www.w3.org/1999/02/22-rdf-syntax-ns#">
   <cc:Work>
    <dc:type rdf:resource="http://purl.org/dc/dcmitype/StillImage"/>
    <dc:date>2024-10-07T23:29:31.686405</dc:date>
    <dc:format>image/svg+xml</dc:format>
    <dc:creator>
     <cc:Agent>
      <dc:title>Matplotlib v3.5.2, https://matplotlib.org/</dc:title>
     </cc:Agent>
    </dc:creator>
   </cc:Work>
  </rdf:RDF>
 </metadata>
 <defs>
  <style type="text/css">*{stroke-linejoin: round; stroke-linecap: butt}</style>
 </defs>
 <g id="figure_1">
  <g id="patch_1">
   <path d="M 0 424.15625 
L 856.38125 424.15625 
L 856.38125 0 
L 0 0 
z
" style="fill: #ffffff"/>
  </g>
  <g id="axes_1">
   <g id="patch_2">
    <path d="M 43.78125 386.6 
L 419.39375 386.6 
L 419.39375 7.2 
L 43.78125 7.2 
z
" style="fill: #ffffff"/>
   </g>
   <g id="matplotlib.axis_1">
    <g id="xtick_1">
     <g id="line2d_1">
      <defs>
       <path id="m570a8de481" d="M 0 0 
L 0 3.5 
" style="stroke: #000000; stroke-width: 0.8"/>
      </defs>
      <g>
       <use xlink:href="#m570a8de481" x="60.854545" y="386.6" style="stroke: #000000; stroke-width: 0.8"/>
      </g>
     </g>
     <g id="text_1">
      <!-- 0 -->
      <g transform="translate(57.673295 401.198438)scale(0.1 -0.1)">
       <defs>
        <path id="DejaVuSans-30" d="M 2034 4250 
Q 1547 4250 1301 3770 
Q 1056 3291 1056 2328 
Q 1056 1369 1301 889 
Q 1547 409 2034 409 
Q 2525 409 2770 889 
Q 3016 1369 3016 2328 
Q 3016 3291 2770 3770 
Q 2525 4250 2034 4250 
z
M 2034 4750 
Q 2819 4750 3233 4129 
Q 3647 3509 3647 2328 
Q 3647 1150 3233 529 
Q 2819 -91 2034 -91 
Q 1250 -91 836 529 
Q 422 1150 422 2328 
Q 422 3509 836 4129 
Q 1250 4750 2034 4750 
z
" transform="scale(0.015625)"/>
       </defs>
       <use xlink:href="#DejaVuSans-30"/>
      </g>
     </g>
    </g>
    <g id="xtick_2">
     <g id="line2d_2">
      <g>
       <use xlink:href="#m570a8de481" x="129.147727" y="386.6" style="stroke: #000000; stroke-width: 0.8"/>
      </g>
     </g>
     <g id="text_2">
      <!-- 2 -->
      <g transform="translate(125.966477 401.198438)scale(0.1 -0.1)">
       <defs>
        <path id="DejaVuSans-32" d="M 1228 531 
L 3431 531 
L 3431 0 
L 469 0 
L 469 531 
Q 828 903 1448 1529 
Q 2069 2156 2228 2338 
Q 2531 2678 2651 2914 
Q 2772 3150 2772 3378 
Q 2772 3750 2511 3984 
Q 2250 4219 1831 4219 
Q 1534 4219 1204 4116 
Q 875 4013 500 3803 
L 500 4441 
Q 881 4594 1212 4672 
Q 1544 4750 1819 4750 
Q 2544 4750 2975 4387 
Q 3406 4025 3406 3419 
Q 3406 3131 3298 2873 
Q 3191 2616 2906 2266 
Q 2828 2175 2409 1742 
Q 1991 1309 1228 531 
z
" transform="scale(0.015625)"/>
       </defs>
       <use xlink:href="#DejaVuSans-32"/>
      </g>
     </g>
    </g>
    <g id="xtick_3">
     <g id="line2d_3">
      <g>
       <use xlink:href="#m570a8de481" x="197.440909" y="386.6" style="stroke: #000000; stroke-width: 0.8"/>
      </g>
     </g>
     <g id="text_3">
      <!-- 4 -->
      <g transform="translate(194.259659 401.198438)scale(0.1 -0.1)">
       <defs>
        <path id="DejaVuSans-34" d="M 2419 4116 
L 825 1625 
L 2419 1625 
L 2419 4116 
z
M 2253 4666 
L 3047 4666 
L 3047 1625 
L 3713 1625 
L 3713 1100 
L 3047 1100 
L 3047 0 
L 2419 0 
L 2419 1100 
L 313 1100 
L 313 1709 
L 2253 4666 
z
" transform="scale(0.015625)"/>
       </defs>
       <use xlink:href="#DejaVuSans-34"/>
      </g>
     </g>
    </g>
    <g id="xtick_4">
     <g id="line2d_4">
      <g>
       <use xlink:href="#m570a8de481" x="265.734091" y="386.6" style="stroke: #000000; stroke-width: 0.8"/>
      </g>
     </g>
     <g id="text_4">
      <!-- 6 -->
      <g transform="translate(262.552841 401.198438)scale(0.1 -0.1)">
       <defs>
        <path id="DejaVuSans-36" d="M 2113 2584 
Q 1688 2584 1439 2293 
Q 1191 2003 1191 1497 
Q 1191 994 1439 701 
Q 1688 409 2113 409 
Q 2538 409 2786 701 
Q 3034 994 3034 1497 
Q 3034 2003 2786 2293 
Q 2538 2584 2113 2584 
z
M 3366 4563 
L 3366 3988 
Q 3128 4100 2886 4159 
Q 2644 4219 2406 4219 
Q 1781 4219 1451 3797 
Q 1122 3375 1075 2522 
Q 1259 2794 1537 2939 
Q 1816 3084 2150 3084 
Q 2853 3084 3261 2657 
Q 3669 2231 3669 1497 
Q 3669 778 3244 343 
Q 2819 -91 2113 -91 
Q 1303 -91 875 529 
Q 447 1150 447 2328 
Q 447 3434 972 4092 
Q 1497 4750 2381 4750 
Q 2619 4750 2861 4703 
Q 3103 4656 3366 4563 
z
" transform="scale(0.015625)"/>
       </defs>
       <use xlink:href="#DejaVuSans-36"/>
      </g>
     </g>
    </g>
    <g id="xtick_5">
     <g id="line2d_5">
      <g>
       <use xlink:href="#m570a8de481" x="334.027273" y="386.6" style="stroke: #000000; stroke-width: 0.8"/>
      </g>
     </g>
     <g id="text_5">
      <!-- 8 -->
      <g transform="translate(330.846023 401.198438)scale(0.1 -0.1)">
       <defs>
        <path id="DejaVuSans-38" d="M 2034 2216 
Q 1584 2216 1326 1975 
Q 1069 1734 1069 1313 
Q 1069 891 1326 650 
Q 1584 409 2034 409 
Q 2484 409 2743 651 
Q 3003 894 3003 1313 
Q 3003 1734 2745 1975 
Q 2488 2216 2034 2216 
z
M 1403 2484 
Q 997 2584 770 2862 
Q 544 3141 544 3541 
Q 544 4100 942 4425 
Q 1341 4750 2034 4750 
Q 2731 4750 3128 4425 
Q 3525 4100 3525 3541 
Q 3525 3141 3298 2862 
Q 3072 2584 2669 2484 
Q 3125 2378 3379 2068 
Q 3634 1759 3634 1313 
Q 3634 634 3220 271 
Q 2806 -91 2034 -91 
Q 1263 -91 848 271 
Q 434 634 434 1313 
Q 434 1759 690 2068 
Q 947 2378 1403 2484 
z
M 1172 3481 
Q 1172 3119 1398 2916 
Q 1625 2713 2034 2713 
Q 2441 2713 2670 2916 
Q 2900 3119 2900 3481 
Q 2900 3844 2670 4047 
Q 2441 4250 2034 4250 
Q 1625 4250 1398 4047 
Q 1172 3844 1172 3481 
z
" transform="scale(0.015625)"/>
       </defs>
       <use xlink:href="#DejaVuSans-38"/>
      </g>
     </g>
    </g>
    <g id="xtick_6">
     <g id="line2d_6">
      <g>
       <use xlink:href="#m570a8de481" x="402.320455" y="386.6" style="stroke: #000000; stroke-width: 0.8"/>
      </g>
     </g>
     <g id="text_6">
      <!-- 10 -->
      <g transform="translate(395.957955 401.198438)scale(0.1 -0.1)">
       <defs>
        <path id="DejaVuSans-31" d="M 794 531 
L 1825 531 
L 1825 4091 
L 703 3866 
L 703 4441 
L 1819 4666 
L 2450 4666 
L 2450 531 
L 3481 531 
L 3481 0 
L 794 0 
L 794 531 
z
" transform="scale(0.015625)"/>
       </defs>
       <use xlink:href="#DejaVuSans-31"/>
       <use xlink:href="#DejaVuSans-30" x="63.623047"/>
      </g>
     </g>
    </g>
    <g id="text_7">
     <!-- Time -->
     <g transform="translate(219.353906 414.876563)scale(0.1 -0.1)">
      <defs>
       <path id="DejaVuSans-54" d="M -19 4666 
L 3928 4666 
L 3928 4134 
L 2272 4134 
L 2272 0 
L 1638 0 
L 1638 4134 
L -19 4134 
L -19 4666 
z
" transform="scale(0.015625)"/>
       <path id="DejaVuSans-69" d="M 603 3500 
L 1178 3500 
L 1178 0 
L 603 0 
L 603 3500 
z
M 603 4863 
L 1178 4863 
L 1178 4134 
L 603 4134 
L 603 4863 
z
" transform="scale(0.015625)"/>
       <path id="DejaVuSans-6d" d="M 3328 2828 
Q 3544 3216 3844 3400 
Q 4144 3584 4550 3584 
Q 5097 3584 5394 3201 
Q 5691 2819 5691 2113 
L 5691 0 
L 5113 0 
L 5113 2094 
Q 5113 2597 4934 2840 
Q 4756 3084 4391 3084 
Q 3944 3084 3684 2787 
Q 3425 2491 3425 1978 
L 3425 0 
L 2847 0 
L 2847 2094 
Q 2847 2600 2669 2842 
Q 2491 3084 2119 3084 
Q 1678 3084 1418 2786 
Q 1159 2488 1159 1978 
L 1159 0 
L 581 0 
L 581 3500 
L 1159 3500 
L 1159 2956 
Q 1356 3278 1631 3431 
Q 1906 3584 2284 3584 
Q 2666 3584 2933 3390 
Q 3200 3197 3328 2828 
z
" transform="scale(0.015625)"/>
       <path id="DejaVuSans-65" d="M 3597 1894 
L 3597 1613 
L 953 1613 
Q 991 1019 1311 708 
Q 1631 397 2203 397 
Q 2534 397 2845 478 
Q 3156 559 3463 722 
L 3463 178 
Q 3153 47 2828 -22 
Q 2503 -91 2169 -91 
Q 1331 -91 842 396 
Q 353 884 353 1716 
Q 353 2575 817 3079 
Q 1281 3584 2069 3584 
Q 2775 3584 3186 3129 
Q 3597 2675 3597 1894 
z
M 3022 2063 
Q 3016 2534 2758 2815 
Q 2500 3097 2075 3097 
Q 1594 3097 1305 2825 
Q 1016 2553 972 2059 
L 3022 2063 
z
" transform="scale(0.015625)"/>
      </defs>
      <use xlink:href="#DejaVuSans-54"/>
      <use xlink:href="#DejaVuSans-69" x="57.958984"/>
      <use xlink:href="#DejaVuSans-6d" x="85.742188"/>
      <use xlink:href="#DejaVuSans-65" x="183.154297"/>
     </g>
    </g>
   </g>
   <g id="matplotlib.axis_2">
    <g id="ytick_1">
     <g id="line2d_7">
      <defs>
       <path id="m95bf682294" d="M 0 0 
L -3.5 0 
" style="stroke: #000000; stroke-width: 0.8"/>
      </defs>
      <g>
       <use xlink:href="#m95bf682294" x="43.78125" y="339.430391" style="stroke: #000000; stroke-width: 0.8"/>
      </g>
     </g>
     <g id="text_8">
      <!-- 2.0 -->
      <g transform="translate(20.878125 343.22961)scale(0.1 -0.1)">
       <defs>
        <path id="DejaVuSans-2e" d="M 684 794 
L 1344 794 
L 1344 0 
L 684 0 
L 684 794 
z
" transform="scale(0.015625)"/>
       </defs>
       <use xlink:href="#DejaVuSans-32"/>
       <use xlink:href="#DejaVuSans-2e" x="63.623047"/>
       <use xlink:href="#DejaVuSans-30" x="95.410156"/>
      </g>
     </g>
    </g>
    <g id="ytick_2">
     <g id="line2d_8">
      <g>
       <use xlink:href="#m95bf682294" x="43.78125" y="262.627358" style="stroke: #000000; stroke-width: 0.8"/>
      </g>
     </g>
     <g id="text_9">
      <!-- 2.5 -->
      <g transform="translate(20.878125 266.426576)scale(0.1 -0.1)">
       <defs>
        <path id="DejaVuSans-35" d="M 691 4666 
L 3169 4666 
L 3169 4134 
L 1269 4134 
L 1269 2991 
Q 1406 3038 1543 3061 
Q 1681 3084 1819 3084 
Q 2600 3084 3056 2656 
Q 3513 2228 3513 1497 
Q 3513 744 3044 326 
Q 2575 -91 1722 -91 
Q 1428 -91 1123 -41 
Q 819 9 494 109 
L 494 744 
Q 775 591 1075 516 
Q 1375 441 1709 441 
Q 2250 441 2565 725 
Q 2881 1009 2881 1497 
Q 2881 1984 2565 2268 
Q 2250 2553 1709 2553 
Q 1456 2553 1204 2497 
Q 953 2441 691 2322 
L 691 4666 
z
" transform="scale(0.015625)"/>
       </defs>
       <use xlink:href="#DejaVuSans-32"/>
       <use xlink:href="#DejaVuSans-2e" x="63.623047"/>
       <use xlink:href="#DejaVuSans-35" x="95.410156"/>
      </g>
     </g>
    </g>
    <g id="ytick_3">
     <g id="line2d_9">
      <g>
       <use xlink:href="#m95bf682294" x="43.78125" y="185.824325" style="stroke: #000000; stroke-width: 0.8"/>
      </g>
     </g>
     <g id="text_10">
      <!-- 3.0 -->
      <g transform="translate(20.878125 189.623543)scale(0.1 -0.1)">
       <defs>
        <path id="DejaVuSans-33" d="M 2597 2516 
Q 3050 2419 3304 2112 
Q 3559 1806 3559 1356 
Q 3559 666 3084 287 
Q 2609 -91 1734 -91 
Q 1441 -91 1130 -33 
Q 819 25 488 141 
L 488 750 
Q 750 597 1062 519 
Q 1375 441 1716 441 
Q 2309 441 2620 675 
Q 2931 909 2931 1356 
Q 2931 1769 2642 2001 
Q 2353 2234 1838 2234 
L 1294 2234 
L 1294 2753 
L 1863 2753 
Q 2328 2753 2575 2939 
Q 2822 3125 2822 3475 
Q 2822 3834 2567 4026 
Q 2313 4219 1838 4219 
Q 1578 4219 1281 4162 
Q 984 4106 628 3988 
L 628 4550 
Q 988 4650 1302 4700 
Q 1616 4750 1894 4750 
Q 2613 4750 3031 4423 
Q 3450 4097 3450 3541 
Q 3450 3153 3228 2886 
Q 3006 2619 2597 2516 
z
" transform="scale(0.015625)"/>
       </defs>
       <use xlink:href="#DejaVuSans-33"/>
       <use xlink:href="#DejaVuSans-2e" x="63.623047"/>
       <use xlink:href="#DejaVuSans-30" x="95.410156"/>
      </g>
     </g>
    </g>
    <g id="ytick_4">
     <g id="line2d_10">
      <g>
       <use xlink:href="#m95bf682294" x="43.78125" y="109.021291" style="stroke: #000000; stroke-width: 0.8"/>
      </g>
     </g>
     <g id="text_11">
      <!-- 3.5 -->
      <g transform="translate(20.878125 112.82051)scale(0.1 -0.1)">
       <use xlink:href="#DejaVuSans-33"/>
       <use xlink:href="#DejaVuSans-2e" x="63.623047"/>
       <use xlink:href="#DejaVuSans-35" x="95.410156"/>
      </g>
     </g>
    </g>
    <g id="ytick_5">
     <g id="line2d_11">
      <g>
       <use xlink:href="#m95bf682294" x="43.78125" y="32.218258" style="stroke: #000000; stroke-width: 0.8"/>
      </g>
     </g>
     <g id="text_12">
      <!-- 4.0 -->
      <g transform="translate(20.878125 36.017477)scale(0.1 -0.1)">
       <use xlink:href="#DejaVuSans-34"/>
       <use xlink:href="#DejaVuSans-2e" x="63.623047"/>
       <use xlink:href="#DejaVuSans-30" x="95.410156"/>
      </g>
     </g>
    </g>
    <g id="text_13">
     <!-- Number -->
     <g transform="translate(14.798438 216.985938)rotate(-90)scale(0.1 -0.1)">
      <defs>
       <path id="DejaVuSans-4e" d="M 628 4666 
L 1478 4666 
L 3547 763 
L 3547 4666 
L 4159 4666 
L 4159 0 
L 3309 0 
L 1241 3903 
L 1241 0 
L 628 0 
L 628 4666 
z
" transform="scale(0.015625)"/>
       <path id="DejaVuSans-75" d="M 544 1381 
L 544 3500 
L 1119 3500 
L 1119 1403 
Q 1119 906 1312 657 
Q 1506 409 1894 409 
Q 2359 409 2629 706 
Q 2900 1003 2900 1516 
L 2900 3500 
L 3475 3500 
L 3475 0 
L 2900 0 
L 2900 538 
Q 2691 219 2414 64 
Q 2138 -91 1772 -91 
Q 1169 -91 856 284 
Q 544 659 544 1381 
z
M 1991 3584 
L 1991 3584 
z
" transform="scale(0.015625)"/>
       <path id="DejaVuSans-62" d="M 3116 1747 
Q 3116 2381 2855 2742 
Q 2594 3103 2138 3103 
Q 1681 3103 1420 2742 
Q 1159 2381 1159 1747 
Q 1159 1113 1420 752 
Q 1681 391 2138 391 
Q 2594 391 2855 752 
Q 3116 1113 3116 1747 
z
M 1159 2969 
Q 1341 3281 1617 3432 
Q 1894 3584 2278 3584 
Q 2916 3584 3314 3078 
Q 3713 2572 3713 1747 
Q 3713 922 3314 415 
Q 2916 -91 2278 -91 
Q 1894 -91 1617 61 
Q 1341 213 1159 525 
L 1159 0 
L 581 0 
L 581 4863 
L 1159 4863 
L 1159 2969 
z
" transform="scale(0.015625)"/>
       <path id="DejaVuSans-72" d="M 2631 2963 
Q 2534 3019 2420 3045 
Q 2306 3072 2169 3072 
Q 1681 3072 1420 2755 
Q 1159 2438 1159 1844 
L 1159 0 
L 581 0 
L 581 3500 
L 1159 3500 
L 1159 2956 
Q 1341 3275 1631 3429 
Q 1922 3584 2338 3584 
Q 2397 3584 2469 3576 
Q 2541 3569 2628 3553 
L 2631 2963 
z
" transform="scale(0.015625)"/>
      </defs>
      <use xlink:href="#DejaVuSans-4e"/>
      <use xlink:href="#DejaVuSans-75" x="74.804688"/>
      <use xlink:href="#DejaVuSans-6d" x="138.183594"/>
      <use xlink:href="#DejaVuSans-62" x="235.595703"/>
      <use xlink:href="#DejaVuSans-65" x="299.072266"/>
      <use xlink:href="#DejaVuSans-72" x="360.595703"/>
     </g>
    </g>
   </g>
   <g id="line2d_12">
    <path d="M 60.854545 32.218258 
L 61.537477 32.316669 
L 62.220409 32.61215 
L 62.903341 33.10464 
L 63.927739 34.211196 
L 64.952136 35.755239 
L 65.976534 37.735255 
L 67.000932 40.136424 
L 68.366795 43.959009 
L 69.732659 48.447052 
L 71.439989 54.916624 
L 73.147318 62.246318 
L 75.196114 72.028092 
L 77.586375 84.557571 
L 80.659568 101.941992 
L 90.903545 161.123543 
L 93.635273 175.029167 
L 96.025534 186.073922 
L 98.07433 194.574374 
L 100.123125 202.096227 
L 101.830455 207.572506 
L 103.537784 212.302392 
L 104.903648 215.538836 
L 106.269511 218.285247 
L 107.635375 220.542763 
L 109.001239 222.316549 
L 110.025636 223.334817 
L 111.050034 224.091436 
L 112.074432 224.593021 
L 113.09883 224.841953 
L 114.123227 224.833918 
L 115.147625 224.56576 
L 116.172023 224.035168 
L 117.19642 223.240675 
L 118.220818 222.18166 
L 119.245216 220.858347 
L 120.61108 218.684768 
L 121.976943 216.048192 
L 123.342807 212.956159 
L 125.050136 208.46644 
L 126.757466 203.307027 
L 128.806261 196.277712 
L 130.855057 188.399191 
L 133.245318 178.244126 
L 135.977045 165.527794 
L 139.050239 149.950547 
L 143.14783 127.833743 
L 150.66008 87.073712 
L 153.391807 73.457149 
L 155.782068 62.592965 
L 157.830864 54.293454 
L 159.538193 48.236067 
L 160.904057 44.033333 
L 162.26992 40.46605 
L 163.294318 38.249286 
L 164.318716 36.481842 
L 165.343114 35.163529 
L 166.367511 34.284662 
L 167.050443 33.937987 
L 167.733375 33.779193 
L 168.416307 33.805217 
L 169.099239 34.012944 
L 169.78217 34.399205 
L 170.806568 35.306292 
L 171.830966 36.596739 
L 172.855364 38.259198 
L 173.879761 40.282059 
L 175.245625 43.519271 
L 176.611489 47.347185 
L 178.318818 52.917425 
L 180.026148 59.304331 
L 182.074943 67.959367 
L 184.123739 77.590452 
L 186.514 89.906732 
L 189.245727 105.173603 
L 197.782375 154.165511 
L 200.855568 170.373191 
L 203.587295 183.678221 
L 205.977557 194.255285 
L 208.026352 202.386465 
L 209.733682 208.413868 
L 211.441011 213.686788 
L 212.806875 217.314353 
L 214.172739 220.37684 
L 215.538602 222.836758 
L 216.904466 224.736024 
L 217.928864 225.857128 
L 218.953261 226.711971 
L 219.977659 227.295253 
L 221.002057 227.60267 
L 222.026455 227.630916 
L 223.050852 227.377682 
L 224.07525 226.841656 
L 225.099648 226.022523 
L 226.124045 224.920966 
L 227.148443 223.538662 
L 228.514307 221.263645 
L 229.88017 218.503499 
L 231.246034 215.270475 
L 232.953364 210.587978 
L 234.660693 205.22792 
L 236.709489 197.96495 
L 238.758284 189.882938 
L 241.148545 179.534532 
L 243.538807 168.222666 
L 246.612 152.4746 
L 250.368125 131.891472 
L 260.270636 76.82087 
L 263.002364 63.340722 
L 265.051159 54.290218 
L 266.758489 47.630471 
L 268.465818 41.929898 
L 269.831682 38.117463 
L 271.197545 34.997708 
L 272.221943 33.125022 
L 273.246341 31.660566 
L 274.270739 30.609761 
L 274.95367 30.141024 
L 275.636602 29.858688 
L 276.319534 29.763244 
L 277.002466 29.854884 
L 277.685398 30.133504 
L 278.36833 30.5987 
L 279.392727 31.644713 
L 280.417125 33.105263 
L 281.441523 34.975225 
L 282.46592 37.247971 
L 283.831784 40.890573 
L 285.197648 45.21115 
L 286.904977 51.521847 
L 288.612307 58.781905 
L 290.661102 68.637652 
L 292.709898 79.593294 
L 295.441625 95.482764 
L 309.100261 176.095075 
L 311.831989 190.131471 
L 313.880784 199.614965 
L 315.588114 206.672326 
L 317.295443 212.82857 
L 318.661307 217.016952 
L 320.368636 221.430474 
L 321.7345 224.441281 
L 323.100364 226.964334 
L 324.466227 228.979416 
L 325.490625 230.147508 
L 326.515023 231.015399 
L 327.53942 231.579073 
L 328.563818 231.835805 
L 329.588216 231.784159 
L 330.612614 231.423989 
L 331.637011 230.756439 
L 332.661409 229.783941 
L 333.685807 228.51022 
L 334.710205 226.940287 
L 336.076068 224.397349 
L 337.441932 221.357671 
L 339.149261 216.894324 
L 340.856591 211.743464 
L 342.905386 204.744338 
L 344.954182 196.963041 
L 347.002977 188.371955 
L 349.393239 177.344331 
L 352.124966 163.545118 
L 355.198159 146.750464 
L 359.29575 122.932139 
L 366.808 78.970834 
L 369.539727 64.434277 
L 371.929989 52.927084 
L 373.978784 44.251291 
L 375.686114 38.047661 
L 377.051977 33.842808 
L 378.417841 30.367229 
L 379.442239 28.264744 
L 380.466636 26.610854 
L 381.491034 25.417391 
L 382.173966 24.882152 
L 382.856898 24.557678 
L 383.53983 24.445455 
L 384.222761 24.546433 
L 384.905693 24.861024 
L 385.588625 25.389101 
L 386.271557 26.13 
L 387.295955 27.637608 
L 388.320352 29.614901 
L 389.34475 32.052824 
L 390.710614 35.999171 
L 392.076477 40.707707 
L 393.783807 47.594725 
L 395.491136 55.474017 
L 397.539932 66.050049 
L 399.930193 79.629527 
L 402.320455 94.159529 
L 402.320455 94.159529 
" clip-path="url(#p098b5b567a)" style="fill: none; stroke: #1f77b4; stroke-width: 1.5; stroke-linecap: square"/>
   </g>
   <g id="line2d_13">
    <path d="M 60.854545 339.430391 
L 68.02533 326.703487 
L 70.757057 322.289502 
L 73.147318 318.826286 
L 75.196114 316.226159 
L 77.244909 314.01456 
L 78.952239 312.494494 
L 80.659568 311.284867 
L 82.025432 310.54815 
L 83.391295 310.020577 
L 84.757159 309.703635 
L 86.123023 309.59689 
L 87.488886 309.697984 
L 88.85475 310.002639 
L 90.220614 310.50421 
L 91.927943 311.39433 
L 93.635273 312.562645 
L 95.342602 313.992541 
L 97.391398 316.027575 
L 99.440193 318.377176 
L 101.830455 321.463365 
L 104.562182 325.360326 
L 108.318307 331.158045 
L 118.90375 347.772203 
L 122.318409 352.634588 
L 125.050136 356.173088 
L 127.440398 358.95424 
L 129.830659 361.397357 
L 131.879455 363.19329 
L 133.92825 364.69067 
L 135.977045 365.880801 
L 137.684375 366.643191 
L 139.391705 367.176993 
L 141.099034 367.465419 
L 142.806364 367.495373 
L 144.513693 367.257447 
L 146.221023 366.745925 
L 147.928352 365.958782 
L 149.635682 364.89768 
L 151.343011 363.567976 
L 153.050341 361.978715 
L 155.099136 359.747178 
L 157.147932 357.189435 
L 159.538193 353.842466 
L 162.26992 349.627435 
L 165.343114 344.478384 
L 171.830966 332.931023 
L 175.587091 326.562477 
L 178.318818 322.348598 
L 180.70908 319.050986 
L 182.757875 316.562617 
L 184.80667 314.418844 
L 186.514 312.912744 
L 188.22133 311.67225 
L 189.928659 310.703874 
L 191.294523 310.139692 
L 192.660386 309.782366 
L 194.02625 309.630646 
L 195.392114 309.682157 
L 196.757977 309.933579 
L 198.123841 310.380646 
L 199.83117 311.206576 
L 201.5385 312.317727 
L 203.24583 313.699531 
L 205.294625 315.691028 
L 207.34342 318.014277 
L 209.733682 321.092603 
L 212.465409 325.01036 
L 215.880068 330.33298 
L 228.855773 351.004613 
L 231.928966 355.289366 
L 234.660693 358.705592 
L 237.050955 361.33212 
L 239.09975 363.277219 
L 241.148545 364.921596 
L 243.197341 366.270114 
L 244.90467 367.146486 
L 246.612 367.781158 
L 248.31933 368.161462 
L 250.026659 368.277657 
L 251.733989 368.122937 
L 253.441318 367.693426 
L 255.148648 366.988177 
L 256.855977 366.009177 
L 258.563307 364.761342 
L 260.270636 363.252521 
L 262.319432 361.112816 
L 264.368227 358.637165 
L 266.758489 355.364712 
L 269.14875 351.698965 
L 272.221943 346.520228 
L 276.661 338.517624 
L 282.807386 327.45778 
L 285.88058 322.36964 
L 288.270841 318.777876 
L 290.661102 315.59814 
L 292.709898 313.262414 
L 294.417227 311.629383 
L 296.124557 310.315993 
L 297.49042 309.503795 
L 298.856284 308.905402 
L 300.222148 308.521351 
L 301.588011 308.35113 
L 302.953875 308.393173 
L 304.319739 308.644863 
L 305.685602 309.102534 
L 307.051466 309.761465 
L 308.758795 310.859261 
L 310.466125 312.248853 
L 312.173455 313.914094 
L 314.22225 316.249711 
L 316.271045 318.917961 
L 318.661307 322.394285 
L 322.075966 327.824439 
L 327.197955 336.467962 
L 334.027273 347.94182 
L 337.441932 353.239214 
L 340.173659 357.097808 
L 342.56392 360.117132 
L 344.612716 362.391041 
L 346.661511 364.378181 
L 348.710307 366.067964 
L 350.417636 367.228132 
L 352.124966 368.147657 
L 353.832295 368.814636 
L 355.539625 369.219407 
L 357.246955 369.354545 
L 358.954284 369.214866 
L 360.661614 368.797421 
L 362.368943 368.101503 
L 364.076273 367.128643 
L 365.783602 365.882609 
L 367.490932 364.36941 
L 369.539727 362.212677 
L 371.588523 359.700828 
L 373.637318 356.855327 
L 376.02758 353.152141 
L 378.759307 348.48602 
L 382.173966 342.163281 
L 392.759409 322.144862 
L 395.14967 318.297189 
L 397.198466 315.371263 
L 399.247261 312.847494 
L 400.954591 311.084189 
L 402.320455 309.910979 
L 402.320455 309.910979 
" clip-path="url(#p098b5b567a)" style="fill: none; stroke: #ff7f0e; stroke-width: 1.5; stroke-linecap: square"/>
   </g>
   <g id="patch_3">
    <path d="M 43.78125 386.6 
L 43.78125 7.2 
" style="fill: none; stroke: #000000; stroke-width: 0.8; stroke-linejoin: miter; stroke-linecap: square"/>
   </g>
   <g id="patch_4">
    <path d="M 419.39375 386.6 
L 419.39375 7.2 
" style="fill: none; stroke: #000000; stroke-width: 0.8; stroke-linejoin: miter; stroke-linecap: square"/>
   </g>
   <g id="patch_5">
    <path d="M 43.78125 386.6 
L 419.39375 386.6 
" style="fill: none; stroke: #000000; stroke-width: 0.8; stroke-linejoin: miter; stroke-linecap: square"/>
   </g>
   <g id="patch_6">
    <path d="M 43.78125 7.2 
L 419.39375 7.2 
" style="fill: none; stroke: #000000; stroke-width: 0.8; stroke-linejoin: miter; stroke-linecap: square"/>
   </g>
   <g id="legend_1">
    <g id="patch_7">
     <path d="M 342.9375 44.55625 
L 412.39375 44.55625 
Q 414.39375 44.55625 414.39375 42.55625 
L 414.39375 14.2 
Q 414.39375 12.2 412.39375 12.2 
L 342.9375 12.2 
Q 340.9375 12.2 340.9375 14.2 
L 340.9375 42.55625 
Q 340.9375 44.55625 342.9375 44.55625 
z
" style="fill: #ffffff; opacity: 0.8; stroke: #cccccc; stroke-linejoin: miter"/>
    </g>
    <g id="line2d_14">
     <path d="M 344.9375 20.298438 
L 354.9375 20.298438 
L 364.9375 20.298438 
" style="fill: none; stroke: #1f77b4; stroke-width: 1.5; stroke-linecap: square"/>
    </g>
    <g id="text_14">
     <!-- Rabbits -->
     <g transform="translate(372.9375 23.798438)scale(0.1 -0.1)">
      <defs>
       <path id="DejaVuSans-52" d="M 2841 2188 
Q 3044 2119 3236 1894 
Q 3428 1669 3622 1275 
L 4263 0 
L 3584 0 
L 2988 1197 
Q 2756 1666 2539 1819 
Q 2322 1972 1947 1972 
L 1259 1972 
L 1259 0 
L 628 0 
L 628 4666 
L 2053 4666 
Q 2853 4666 3247 4331 
Q 3641 3997 3641 3322 
Q 3641 2881 3436 2590 
Q 3231 2300 2841 2188 
z
M 1259 4147 
L 1259 2491 
L 2053 2491 
Q 2509 2491 2742 2702 
Q 2975 2913 2975 3322 
Q 2975 3731 2742 3939 
Q 2509 4147 2053 4147 
L 1259 4147 
z
" transform="scale(0.015625)"/>
       <path id="DejaVuSans-61" d="M 2194 1759 
Q 1497 1759 1228 1600 
Q 959 1441 959 1056 
Q 959 750 1161 570 
Q 1363 391 1709 391 
Q 2188 391 2477 730 
Q 2766 1069 2766 1631 
L 2766 1759 
L 2194 1759 
z
M 3341 1997 
L 3341 0 
L 2766 0 
L 2766 531 
Q 2569 213 2275 61 
Q 1981 -91 1556 -91 
Q 1019 -91 701 211 
Q 384 513 384 1019 
Q 384 1609 779 1909 
Q 1175 2209 1959 2209 
L 2766 2209 
L 2766 2266 
Q 2766 2663 2505 2880 
Q 2244 3097 1772 3097 
Q 1472 3097 1187 3025 
Q 903 2953 641 2809 
L 641 3341 
Q 956 3463 1253 3523 
Q 1550 3584 1831 3584 
Q 2591 3584 2966 3190 
Q 3341 2797 3341 1997 
z
" transform="scale(0.015625)"/>
       <path id="DejaVuSans-74" d="M 1172 4494 
L 1172 3500 
L 2356 3500 
L 2356 3053 
L 1172 3053 
L 1172 1153 
Q 1172 725 1289 603 
Q 1406 481 1766 481 
L 2356 481 
L 2356 0 
L 1766 0 
Q 1100 0 847 248 
Q 594 497 594 1153 
L 594 3053 
L 172 3053 
L 172 3500 
L 594 3500 
L 594 4494 
L 1172 4494 
z
" transform="scale(0.015625)"/>
       <path id="DejaVuSans-73" d="M 2834 3397 
L 2834 2853 
Q 2591 2978 2328 3040 
Q 2066 3103 1784 3103 
Q 1356 3103 1142 2972 
Q 928 2841 928 2578 
Q 928 2378 1081 2264 
Q 1234 2150 1697 2047 
L 1894 2003 
Q 2506 1872 2764 1633 
Q 3022 1394 3022 966 
Q 3022 478 2636 193 
Q 2250 -91 1575 -91 
Q 1294 -91 989 -36 
Q 684 19 347 128 
L 347 722 
Q 666 556 975 473 
Q 1284 391 1588 391 
Q 1994 391 2212 530 
Q 2431 669 2431 922 
Q 2431 1156 2273 1281 
Q 2116 1406 1581 1522 
L 1381 1569 
Q 847 1681 609 1914 
Q 372 2147 372 2553 
Q 372 3047 722 3315 
Q 1072 3584 1716 3584 
Q 2034 3584 2315 3537 
Q 2597 3491 2834 3397 
z
" transform="scale(0.015625)"/>
      </defs>
      <use xlink:href="#DejaVuSans-52"/>
      <use xlink:href="#DejaVuSans-61" x="67.232422"/>
      <use xlink:href="#DejaVuSans-62" x="128.511719"/>
      <use xlink:href="#DejaVuSans-62" x="191.988281"/>
      <use xlink:href="#DejaVuSans-69" x="255.464844"/>
      <use xlink:href="#DejaVuSans-74" x="283.248047"/>
      <use xlink:href="#DejaVuSans-73" x="322.457031"/>
     </g>
    </g>
    <g id="line2d_15">
     <path d="M 344.9375 34.976563 
L 354.9375 34.976563 
L 364.9375 34.976563 
" style="fill: none; stroke: #ff7f0e; stroke-width: 1.5; stroke-linecap: square"/>
    </g>
    <g id="text_15">
     <!-- Foxes -->
     <g transform="translate(372.9375 38.476563)scale(0.1 -0.1)">
      <defs>
       <path id="DejaVuSans-46" d="M 628 4666 
L 3309 4666 
L 3309 4134 
L 1259 4134 
L 1259 2759 
L 3109 2759 
L 3109 2228 
L 1259 2228 
L 1259 0 
L 628 0 
L 628 4666 
z
" transform="scale(0.015625)"/>
       <path id="DejaVuSans-6f" d="M 1959 3097 
Q 1497 3097 1228 2736 
Q 959 2375 959 1747 
Q 959 1119 1226 758 
Q 1494 397 1959 397 
Q 2419 397 2687 759 
Q 2956 1122 2956 1747 
Q 2956 2369 2687 2733 
Q 2419 3097 1959 3097 
z
M 1959 3584 
Q 2709 3584 3137 3096 
Q 3566 2609 3566 1747 
Q 3566 888 3137 398 
Q 2709 -91 1959 -91 
Q 1206 -91 779 398 
Q 353 888 353 1747 
Q 353 2609 779 3096 
Q 1206 3584 1959 3584 
z
" transform="scale(0.015625)"/>
       <path id="DejaVuSans-78" d="M 3513 3500 
L 2247 1797 
L 3578 0 
L 2900 0 
L 1881 1375 
L 863 0 
L 184 0 
L 1544 1831 
L 300 3500 
L 978 3500 
L 1906 2253 
L 2834 3500 
L 3513 3500 
z
" transform="scale(0.015625)"/>
      </defs>
      <use xlink:href="#DejaVuSans-46"/>
      <use xlink:href="#DejaVuSans-6f" x="53.894531"/>
      <use xlink:href="#DejaVuSans-78" x="111.951172"/>
      <use xlink:href="#DejaVuSans-65" x="168.005859"/>
      <use xlink:href="#DejaVuSans-73" x="229.529297"/>
     </g>
    </g>
   </g>
  </g>
  <g id="axes_2">
   <g id="patch_8">
    <path d="M 473.56875 386.6 
L 849.18125 386.6 
L 849.18125 7.2 
L 473.56875 7.2 
z
" style="fill: #ffffff"/>
   </g>
   <g id="matplotlib.axis_3">
    <g id="xtick_7">
     <g id="line2d_16">
      <g>
       <use xlink:href="#m570a8de481" x="515.843351" y="386.6" style="stroke: #000000; stroke-width: 0.8"/>
      </g>
     </g>
     <g id="text_16">
      <!-- 2.8 -->
      <g transform="translate(507.891789 401.198438)scale(0.1 -0.1)">
       <use xlink:href="#DejaVuSans-32"/>
       <use xlink:href="#DejaVuSans-2e" x="63.623047"/>
       <use xlink:href="#DejaVuSans-38" x="95.410156"/>
      </g>
     </g>
    </g>
    <g id="xtick_8">
     <g id="line2d_17">
      <g>
       <use xlink:href="#m570a8de481" x="566.421322" y="386.6" style="stroke: #000000; stroke-width: 0.8"/>
      </g>
     </g>
     <g id="text_17">
      <!-- 3.0 -->
      <g transform="translate(558.469759 401.198438)scale(0.1 -0.1)">
       <use xlink:href="#DejaVuSans-33"/>
       <use xlink:href="#DejaVuSans-2e" x="63.623047"/>
       <use xlink:href="#DejaVuSans-30" x="95.410156"/>
      </g>
     </g>
    </g>
    <g id="xtick_9">
     <g id="line2d_18">
      <g>
       <use xlink:href="#m570a8de481" x="616.999292" y="386.6" style="stroke: #000000; stroke-width: 0.8"/>
      </g>
     </g>
     <g id="text_18">
      <!-- 3.2 -->
      <g transform="translate(609.047729 401.198438)scale(0.1 -0.1)">
       <use xlink:href="#DejaVuSans-33"/>
       <use xlink:href="#DejaVuSans-2e" x="63.623047"/>
       <use xlink:href="#DejaVuSans-32" x="95.410156"/>
      </g>
     </g>
    </g>
    <g id="xtick_10">
     <g id="line2d_19">
      <g>
       <use xlink:href="#m570a8de481" x="667.577262" y="386.6" style="stroke: #000000; stroke-width: 0.8"/>
      </g>
     </g>
     <g id="text_19">
      <!-- 3.4 -->
      <g transform="translate(659.6257 401.198438)scale(0.1 -0.1)">
       <use xlink:href="#DejaVuSans-33"/>
       <use xlink:href="#DejaVuSans-2e" x="63.623047"/>
       <use xlink:href="#DejaVuSans-34" x="95.410156"/>
      </g>
     </g>
    </g>
    <g id="xtick_11">
     <g id="line2d_20">
      <g>
       <use xlink:href="#m570a8de481" x="718.155233" y="386.6" style="stroke: #000000; stroke-width: 0.8"/>
      </g>
     </g>
     <g id="text_20">
      <!-- 3.6 -->
      <g transform="translate(710.20367 401.198438)scale(0.1 -0.1)">
       <use xlink:href="#DejaVuSans-33"/>
       <use xlink:href="#DejaVuSans-2e" x="63.623047"/>
       <use xlink:href="#DejaVuSans-36" x="95.410156"/>
      </g>
     </g>
    </g>
    <g id="xtick_12">
     <g id="line2d_21">
      <g>
       <use xlink:href="#m570a8de481" x="768.733203" y="386.6" style="stroke: #000000; stroke-width: 0.8"/>
      </g>
     </g>
     <g id="text_21">
      <!-- 3.8 -->
      <g transform="translate(760.781641 401.198438)scale(0.1 -0.1)">
       <use xlink:href="#DejaVuSans-33"/>
       <use xlink:href="#DejaVuSans-2e" x="63.623047"/>
       <use xlink:href="#DejaVuSans-38" x="95.410156"/>
      </g>
     </g>
    </g>
    <g id="xtick_13">
     <g id="line2d_22">
      <g>
       <use xlink:href="#m570a8de481" x="819.311173" y="386.6" style="stroke: #000000; stroke-width: 0.8"/>
      </g>
     </g>
     <g id="text_22">
      <!-- 4.0 -->
      <g transform="translate(811.359611 401.198438)scale(0.1 -0.1)">
       <use xlink:href="#DejaVuSans-34"/>
       <use xlink:href="#DejaVuSans-2e" x="63.623047"/>
       <use xlink:href="#DejaVuSans-30" x="95.410156"/>
      </g>
     </g>
    </g>
    <g id="text_23">
     <!-- Rabbit population -->
     <g transform="translate(617.055469 414.876563)scale(0.1 -0.1)">
      <defs>
       <path id="DejaVuSans-20" transform="scale(0.015625)"/>
       <path id="DejaVuSans-70" d="M 1159 525 
L 1159 -1331 
L 581 -1331 
L 581 3500 
L 1159 3500 
L 1159 2969 
Q 1341 3281 1617 3432 
Q 1894 3584 2278 3584 
Q 2916 3584 3314 3078 
Q 3713 2572 3713 1747 
Q 3713 922 3314 415 
Q 2916 -91 2278 -91 
Q 1894 -91 1617 61 
Q 1341 213 1159 525 
z
M 3116 1747 
Q 3116 2381 2855 2742 
Q 2594 3103 2138 3103 
Q 1681 3103 1420 2742 
Q 1159 2381 1159 1747 
Q 1159 1113 1420 752 
Q 1681 391 2138 391 
Q 2594 391 2855 752 
Q 3116 1113 3116 1747 
z
" transform="scale(0.015625)"/>
       <path id="DejaVuSans-6c" d="M 603 4863 
L 1178 4863 
L 1178 0 
L 603 0 
L 603 4863 
z
" transform="scale(0.015625)"/>
       <path id="DejaVuSans-6e" d="M 3513 2113 
L 3513 0 
L 2938 0 
L 2938 2094 
Q 2938 2591 2744 2837 
Q 2550 3084 2163 3084 
Q 1697 3084 1428 2787 
Q 1159 2491 1159 1978 
L 1159 0 
L 581 0 
L 581 3500 
L 1159 3500 
L 1159 2956 
Q 1366 3272 1645 3428 
Q 1925 3584 2291 3584 
Q 2894 3584 3203 3211 
Q 3513 2838 3513 2113 
z
" transform="scale(0.015625)"/>
      </defs>
      <use xlink:href="#DejaVuSans-52"/>
      <use xlink:href="#DejaVuSans-61" x="67.232422"/>
      <use xlink:href="#DejaVuSans-62" x="128.511719"/>
      <use xlink:href="#DejaVuSans-62" x="191.988281"/>
      <use xlink:href="#DejaVuSans-69" x="255.464844"/>
      <use xlink:href="#DejaVuSans-74" x="283.248047"/>
      <use xlink:href="#DejaVuSans-20" x="322.457031"/>
      <use xlink:href="#DejaVuSans-70" x="354.244141"/>
      <use xlink:href="#DejaVuSans-6f" x="417.720703"/>
      <use xlink:href="#DejaVuSans-70" x="478.902344"/>
      <use xlink:href="#DejaVuSans-75" x="542.378906"/>
      <use xlink:href="#DejaVuSans-6c" x="605.757812"/>
      <use xlink:href="#DejaVuSans-61" x="633.541016"/>
      <use xlink:href="#DejaVuSans-74" x="694.820312"/>
      <use xlink:href="#DejaVuSans-69" x="734.029297"/>
      <use xlink:href="#DejaVuSans-6f" x="761.8125"/>
      <use xlink:href="#DejaVuSans-6e" x="822.994141"/>
     </g>
    </g>
   </g>
   <g id="matplotlib.axis_4">
    <g id="ytick_6">
     <g id="line2d_23">
      <g>
       <use xlink:href="#m95bf682294" x="473.56875" y="373.860372" style="stroke: #000000; stroke-width: 0.8"/>
      </g>
     </g>
     <g id="text_24">
      <!-- 1.80 -->
      <g transform="translate(444.303125 377.659591)scale(0.1 -0.1)">
       <use xlink:href="#DejaVuSans-31"/>
       <use xlink:href="#DejaVuSans-2e" x="63.623047"/>
       <use xlink:href="#DejaVuSans-38" x="95.410156"/>
       <use xlink:href="#DejaVuSans-30" x="159.033203"/>
      </g>
     </g>
    </g>
    <g id="ytick_7">
     <g id="line2d_24">
      <g>
       <use xlink:href="#m95bf682294" x="473.56875" y="330.443091" style="stroke: #000000; stroke-width: 0.8"/>
      </g>
     </g>
     <g id="text_25">
      <!-- 1.85 -->
      <g transform="translate(444.303125 334.24231)scale(0.1 -0.1)">
       <use xlink:href="#DejaVuSans-31"/>
       <use xlink:href="#DejaVuSans-2e" x="63.623047"/>
       <use xlink:href="#DejaVuSans-38" x="95.410156"/>
       <use xlink:href="#DejaVuSans-35" x="159.033203"/>
      </g>
     </g>
    </g>
    <g id="ytick_8">
     <g id="line2d_25">
      <g>
       <use xlink:href="#m95bf682294" x="473.56875" y="287.02581" style="stroke: #000000; stroke-width: 0.8"/>
      </g>
     </g>
     <g id="text_26">
      <!-- 1.90 -->
      <g transform="translate(444.303125 290.825028)scale(0.1 -0.1)">
       <defs>
        <path id="DejaVuSans-39" d="M 703 97 
L 703 672 
Q 941 559 1184 500 
Q 1428 441 1663 441 
Q 2288 441 2617 861 
Q 2947 1281 2994 2138 
Q 2813 1869 2534 1725 
Q 2256 1581 1919 1581 
Q 1219 1581 811 2004 
Q 403 2428 403 3163 
Q 403 3881 828 4315 
Q 1253 4750 1959 4750 
Q 2769 4750 3195 4129 
Q 3622 3509 3622 2328 
Q 3622 1225 3098 567 
Q 2575 -91 1691 -91 
Q 1453 -91 1209 -44 
Q 966 3 703 97 
z
M 1959 2075 
Q 2384 2075 2632 2365 
Q 2881 2656 2881 3163 
Q 2881 3666 2632 3958 
Q 2384 4250 1959 4250 
Q 1534 4250 1286 3958 
Q 1038 3666 1038 3163 
Q 1038 2656 1286 2365 
Q 1534 2075 1959 2075 
z
" transform="scale(0.015625)"/>
       </defs>
       <use xlink:href="#DejaVuSans-31"/>
       <use xlink:href="#DejaVuSans-2e" x="63.623047"/>
       <use xlink:href="#DejaVuSans-39" x="95.410156"/>
       <use xlink:href="#DejaVuSans-30" x="159.033203"/>
      </g>
     </g>
    </g>
    <g id="ytick_9">
     <g id="line2d_26">
      <g>
       <use xlink:href="#m95bf682294" x="473.56875" y="243.608528" style="stroke: #000000; stroke-width: 0.8"/>
      </g>
     </g>
     <g id="text_27">
      <!-- 1.95 -->
      <g transform="translate(444.303125 247.407747)scale(0.1 -0.1)">
       <use xlink:href="#DejaVuSans-31"/>
       <use xlink:href="#DejaVuSans-2e" x="63.623047"/>
       <use xlink:href="#DejaVuSans-39" x="95.410156"/>
       <use xlink:href="#DejaVuSans-35" x="159.033203"/>
      </g>
     </g>
    </g>
    <g id="ytick_10">
     <g id="line2d_27">
      <g>
       <use xlink:href="#m95bf682294" x="473.56875" y="200.191247" style="stroke: #000000; stroke-width: 0.8"/>
      </g>
     </g>
     <g id="text_28">
      <!-- 2.00 -->
      <g transform="translate(444.303125 203.990466)scale(0.1 -0.1)">
       <use xlink:href="#DejaVuSans-32"/>
       <use xlink:href="#DejaVuSans-2e" x="63.623047"/>
       <use xlink:href="#DejaVuSans-30" x="95.410156"/>
       <use xlink:href="#DejaVuSans-30" x="159.033203"/>
      </g>
     </g>
    </g>
    <g id="ytick_11">
     <g id="line2d_28">
      <g>
       <use xlink:href="#m95bf682294" x="473.56875" y="156.773966" style="stroke: #000000; stroke-width: 0.8"/>
      </g>
     </g>
     <g id="text_29">
      <!-- 2.05 -->
      <g transform="translate(444.303125 160.573185)scale(0.1 -0.1)">
       <use xlink:href="#DejaVuSans-32"/>
       <use xlink:href="#DejaVuSans-2e" x="63.623047"/>
       <use xlink:href="#DejaVuSans-30" x="95.410156"/>
       <use xlink:href="#DejaVuSans-35" x="159.033203"/>
      </g>
     </g>
    </g>
    <g id="ytick_12">
     <g id="line2d_29">
      <g>
       <use xlink:href="#m95bf682294" x="473.56875" y="113.356685" style="stroke: #000000; stroke-width: 0.8"/>
      </g>
     </g>
     <g id="text_30">
      <!-- 2.10 -->
      <g transform="translate(444.303125 117.155903)scale(0.1 -0.1)">
       <use xlink:href="#DejaVuSans-32"/>
       <use xlink:href="#DejaVuSans-2e" x="63.623047"/>
       <use xlink:href="#DejaVuSans-31" x="95.410156"/>
       <use xlink:href="#DejaVuSans-30" x="159.033203"/>
      </g>
     </g>
    </g>
    <g id="ytick_13">
     <g id="line2d_30">
      <g>
       <use xlink:href="#m95bf682294" x="473.56875" y="69.939403" style="stroke: #000000; stroke-width: 0.8"/>
      </g>
     </g>
     <g id="text_31">
      <!-- 2.15 -->
      <g transform="translate(444.303125 73.738622)scale(0.1 -0.1)">
       <use xlink:href="#DejaVuSans-32"/>
       <use xlink:href="#DejaVuSans-2e" x="63.623047"/>
       <use xlink:href="#DejaVuSans-31" x="95.410156"/>
       <use xlink:href="#DejaVuSans-35" x="159.033203"/>
      </g>
     </g>
    </g>
    <g id="ytick_14">
     <g id="line2d_31">
      <g>
       <use xlink:href="#m95bf682294" x="473.56875" y="26.522122" style="stroke: #000000; stroke-width: 0.8"/>
      </g>
     </g>
     <g id="text_32">
      <!-- 2.20 -->
      <g transform="translate(444.303125 30.321341)scale(0.1 -0.1)">
       <use xlink:href="#DejaVuSans-32"/>
       <use xlink:href="#DejaVuSans-2e" x="63.623047"/>
       <use xlink:href="#DejaVuSans-32" x="95.410156"/>
       <use xlink:href="#DejaVuSans-30" x="159.033203"/>
      </g>
     </g>
    </g>
    <g id="text_33">
     <!-- Foxes population -->
     <g transform="translate(438.223438 239.178125)rotate(-90)scale(0.1 -0.1)">
      <use xlink:href="#DejaVuSans-46"/>
      <use xlink:href="#DejaVuSans-6f" x="53.894531"/>
      <use xlink:href="#DejaVuSans-78" x="111.951172"/>
      <use xlink:href="#DejaVuSans-65" x="168.005859"/>
      <use xlink:href="#DejaVuSans-73" x="229.529297"/>
      <use xlink:href="#DejaVuSans-20" x="281.628906"/>
      <use xlink:href="#DejaVuSans-70" x="313.416016"/>
      <use xlink:href="#DejaVuSans-6f" x="376.892578"/>
      <use xlink:href="#DejaVuSans-70" x="438.074219"/>
      <use xlink:href="#DejaVuSans-75" x="501.550781"/>
      <use xlink:href="#DejaVuSans-6c" x="564.929688"/>
      <use xlink:href="#DejaVuSans-61" x="592.712891"/>
      <use xlink:href="#DejaVuSans-74" x="653.992188"/>
      <use xlink:href="#DejaVuSans-69" x="693.201172"/>
      <use xlink:href="#DejaVuSans-6f" x="720.984375"/>
      <use xlink:href="#DejaVuSans-6e" x="782.166016"/>
     </g>
    </g>
   </g>
   <g id="line2d_32">
    <path d="M 819.311173 200.191247 
L 819.149155 193.232779 
L 818.662688 186.259904 
L 817.851877 179.286226 
L 816.71778 172.325496 
L 815.262418 165.391609 
L 813.488053 158.497346 
L 811.393464 151.646559 
L 808.985983 144.854436 
L 806.275075 138.138665 
L 803.270388 131.516254 
L 799.98175 125.003532 
L 796.419172 118.616149 
L 792.592845 112.369077 
L 788.513142 106.276607 
L 784.190618 100.352353 
L 779.636007 94.609249 
L 774.860228 89.05955 
L 769.874379 83.714831 
L 764.689741 78.58599 
L 759.317774 73.683245 
L 753.770123 69.016134 
L 748.05861 64.593517 
L 742.195243 60.423576 
L 736.192208 56.513811 
L 730.061874 52.871046 
L 723.816792 49.501424 
L 717.469693 46.41041 
L 711.033489 43.602789 
L 704.521276 41.082669 
L 697.946329 38.853476 
L 691.322106 36.91796 
L 684.662245 35.278189 
L 677.980567 33.935554 
L 671.291073 32.890767 
L 664.607947 32.14386 
L 657.945552 31.694186 
L 651.318435 31.540419 
L 644.741323 31.680556 
L 638.229125 32.111911 
L 631.796931 32.831122 
L 625.460012 33.834148 
L 619.233212 35.116194 
L 613.109271 36.669566 
L 607.087535 38.488034 
L 601.17688 40.566457 
L 595.385769 42.899428 
L 589.722252 45.481269 
L 584.193964 48.306037 
L 578.808126 51.36752 
L 573.571543 54.659238 
L 568.49061 58.174444 
L 563.571303 61.906123 
L 558.819188 65.846992 
L 554.239413 69.989501 
L 549.836715 74.325831 
L 545.615415 78.847896 
L 541.579421 83.547342 
L 537.732225 88.415549 
L 534.076907 93.443626 
L 530.616132 98.622417 
L 527.35215 103.942497 
L 524.286798 109.394174 
L 521.421498 114.967487 
L 518.757258 120.652208 
L 516.294672 126.437841 
L 514.03392 132.313624 
L 511.974768 138.268524 
L 510.116566 144.291244 
L 508.458252 150.370216 
L 506.99835 156.493605 
L 505.734967 162.64931 
L 504.665799 168.824961 
L 503.788126 175.00792 
L 503.098815 181.185282 
L 502.594352 187.34414 
L 502.274421 193.489918 
L 502.141638 199.624415 
L 502.197748 205.73951 
L 502.444223 211.827217 
L 502.882258 217.879684 
L 503.512774 223.889195 
L 504.336418 229.848169 
L 505.353562 235.74916 
L 506.564302 241.584857 
L 507.968462 247.348084 
L 509.565588 253.031802 
L 511.354952 258.629103 
L 513.335554 264.133218 
L 515.506116 269.537511 
L 517.865086 274.835482 
L 520.410638 280.020765 
L 523.140671 285.08713 
L 526.052808 290.028483 
L 529.1444 294.838863 
L 532.412521 299.512445 
L 535.85397 304.04354 
L 539.465272 308.426592 
L 543.242678 312.656183 
L 547.182163 316.727027 
L 551.279427 320.633975 
L 555.529898 324.372013 
L 559.928725 327.936261 
L 564.470785 331.321975 
L 569.15068 334.524547 
L 573.962737 337.539501 
L 578.901007 340.362499 
L 583.959268 342.989338 
L 589.131096 345.416052 
L 594.422894 347.656704 
L 599.836581 349.717232 
L 605.363886 351.589294 
L 610.996428 353.265079 
L 616.725719 354.737312 
L 622.543166 355.999252 
L 628.440067 357.044692 
L 634.407616 357.867958 
L 640.436897 358.463912 
L 646.518888 358.827947 
L 652.644461 358.955995 
L 658.804381 358.844517 
L 664.989306 358.49051 
L 671.189785 357.891506 
L 677.396264 357.045571 
L 683.599078 355.951304 
L 689.788459 354.607837 
L 695.954529 353.01484 
L 702.087305 351.172513 
L 708.176696 349.081592 
L 714.212504 346.743346 
L 720.184426 344.159581 
L 726.082049 341.332634 
L 731.894857 338.265376 
L 737.612222 334.961214 
L 743.223415 331.424087 
L 748.717595 327.658472 
L 754.083818 323.669374 
L 759.31103 319.462338 
L 764.388071 315.043438 
L 769.303676 310.419287 
L 774.046471 305.597028 
L 778.604975 300.584341 
L 782.967603 295.389437 
L 787.122658 290.021064 
L 791.058341 284.488502 
L 794.762744 278.801567 
L 798.223852 272.970608 
L 801.429543 267.006507 
L 804.367589 260.920682 
L 807.025654 254.725085 
L 809.381972 248.417499 
L 811.404796 241.970784 
L 813.096658 235.401317 
L 814.462217 228.727901 
L 815.506219 221.968853 
L 816.233495 215.142003 
L 816.64896 208.26469 
L 816.757617 201.35377 
L 816.564552 194.42561 
L 816.074938 187.496089 
L 815.294032 180.580599 
L 814.22718 173.694045 
L 812.879808 166.850844 
L 811.257433 160.064928 
L 809.365652 153.349738 
L 807.210153 146.718231 
L 804.796706 140.182874 
L 802.131166 133.755648 
L 799.219475 127.448047 
L 796.067661 121.271077 
L 792.681836 115.235256 
L 789.068199 109.350617 
L 785.233032 103.626703 
L 781.182704 98.072571 
L 776.923671 92.696791 
L 772.462471 87.507445 
L 767.80573 82.512128 
L 762.960159 77.717946 
L 757.932554 73.131521 
L 752.729797 68.758984 
L 747.358854 64.605982 
L 741.826779 60.677673 
L 736.140709 56.978726 
L 730.307869 53.513327 
L 724.335566 50.28517 
L 718.231195 47.297465 
L 712.002237 44.552933 
L 705.656255 42.053808 
L 699.200902 39.801837 
L 692.643914 37.798278 
L 686.024795 36.057507 
L 679.41858 34.608919 
L 672.833357 33.453008 
L 666.274932 32.588932 
L 659.749173 32.015514 
L 653.262005 31.731245 
L 646.819415 31.73428 
L 640.427449 32.02244 
L 634.092212 32.593212 
L 627.819869 33.443748 
L 621.616645 34.570866 
L 615.488824 35.971051 
L 609.442751 37.640451 
L 603.484828 39.574882 
L 597.621518 41.769826 
L 591.859346 44.220428 
L 586.204893 46.921501 
L 580.664801 49.867523 
L 575.245772 53.052638 
L 569.954567 56.470655 
L 564.798007 60.115049 
L 559.782973 63.978961 
L 554.916406 68.055198 
L 550.205304 72.336232 
L 545.656727 76.8142 
L 541.277796 81.480907 
L 537.075687 86.327821 
L 533.05764 91.346078 
L 529.230953 96.526478 
L 525.602983 101.859488 
L 522.181147 107.335239 
L 518.972923 112.94353 
L 515.985847 118.673824 
L 513.227514 124.51525 
L 510.705582 130.456603 
L 508.427765 136.486343 
L 506.401838 142.592597 
L 504.632644 148.762963 
L 503.069831 154.982301 
L 501.695573 161.240248 
L 500.513184 167.528287 
L 499.525655 173.837989 
L 498.735654 180.161014 
L 498.145522 186.489109 
L 497.757277 192.814111 
L 497.572614 199.127943 
L 497.592902 205.422616 
L 497.819186 211.690231 
L 498.252187 217.922974 
L 498.892303 224.113121 
L 499.739605 230.253037 
L 500.793842 236.335173 
L 502.054438 242.352068 
L 503.520493 248.296351 
L 505.190782 254.160737 
L 507.063758 259.938029 
L 509.137545 265.62112 
L 511.409949 271.202989 
L 513.878446 276.676704 
L 516.540192 282.035421 
L 519.392016 287.272384 
L 522.430425 292.380924 
L 525.651599 297.354461 
L 529.051396 302.186503 
L 532.625349 306.870646 
L 536.368666 311.400574 
L 540.276233 315.770059 
L 544.34261 319.972959 
L 548.562032 324.003225 
L 552.928411 327.85489 
L 557.435336 331.522079 
L 562.076068 334.999005 
L 566.843548 338.279967 
L 571.741853 341.375673 
L 576.776542 344.29478 
L 581.942796 347.02963 
L 587.235514 349.572988 
L 592.649318 351.918042 
L 598.178549 354.058407 
L 603.817267 355.988119 
L 609.559253 357.701641 
L 615.398007 359.193858 
L 621.326751 360.460081 
L 627.338424 361.496044 
L 633.425687 362.297904 
L 639.580921 362.862246 
L 645.796227 363.186075 
L 652.063424 363.266823 
L 658.374054 363.102345 
L 664.719377 362.69092 
L 671.090374 362.031252 
L 677.477744 361.122469 
L 683.871908 359.964123 
L 690.263007 358.556189 
L 696.640901 356.899068 
L 702.995171 354.993584 
L 709.315116 352.840987 
L 715.589758 350.442948 
L 721.807836 347.801566 
L 727.95781 344.919361 
L 734.027862 341.799278 
L 740.005891 338.444688 
L 745.879518 334.859383 
L 751.636082 331.047583 
L 757.262644 327.013928 
L 762.745985 322.763486 
L 768.072603 318.301746 
L 773.22872 313.634625 
L 778.200276 308.768459 
L 782.97293 303.710013 
L 787.532063 298.466473 
L 791.862775 293.045452 
L 795.947085 287.443641 
L 799.769156 281.651015 
L 803.322383 275.680721 
L 806.600817 269.54634 
L 809.598999 263.261359 
L 812.311959 256.839178 
L 814.735218 250.293105 
L 816.864785 243.636355 
L 818.697159 236.882055 
L 820.229331 230.04324 
L 821.45878 223.132854 
L 822.383473 216.163751 
L 823.00187 209.148694 
L 823.31292 202.100354 
L 823.31606 195.031311 
L 823.011219 187.954057 
L 822.398814 180.880991 
L 821.479752 173.824421 
L 820.255431 166.796566 
L 818.727738 159.80955 
L 816.899049 152.875412 
L 814.772232 146.006096 
L 812.350641 139.213456 
L 809.638124 132.509257 
L 806.639016 125.905171 
L 803.358143 119.412779 
L 799.800819 113.043573 
L 795.97285 106.808954 
L 791.880531 100.72023 
L 787.530646 94.788621 
L 782.93047 89.025254 
L 778.087766 83.441167 
L 773.010789 78.047305 
L 767.708282 72.854524 
L 762.189479 67.873588 
L 756.464102 63.115172 
L 750.542364 58.589857 
L 744.434969 54.308137 
L 738.153108 50.280412 
L 731.708463 46.516993 
L 725.128102 43.030242 
L 718.490645 39.837116 
L 711.810147 36.941341 
L 705.091973 34.344783 
L 698.34176 32.048937 
L 691.565423 30.054926 
L 684.769146 28.3635 
L 677.959393 26.97504 
L 671.142898 25.889554 
L 664.326672 25.106679 
L 657.518 24.625682 
L 650.724441 24.445455 
L 643.953828 24.564521 
L 637.214269 24.981032 
L 630.514148 25.692768 
L 623.86212 26.697136 
L 617.267117 27.991174 
L 610.738345 29.571547 
L 604.285284 31.434548 
L 597.917689 33.5761 
L 591.645588 35.991754 
L 585.479286 38.67669 
L 579.42936 41.625716 
L 573.506662 44.833268 
L 567.722319 48.293411 
L 562.087733 51.999839 
L 556.614578 55.945874 
L 551.314806 60.124467 
L 546.200641 64.528198 
L 541.284581 69.149273 
L 536.5794 73.97953 
L 532.098146 79.010433 
L 527.854141 84.233076 
L 523.860981 89.638181 
L 520.132539 95.216099 
L 516.682958 100.956807 
L 513.520893 106.848245 
L 510.568341 112.854212 
L 507.80102 118.957032 
L 505.224559 125.148198 
L 502.844168 131.419212 
L 500.664635 137.761583 
L 498.690331 144.166827 
L 496.925207 150.626466 
L 495.372795 157.132032 
L 494.036205 163.675062 
L 492.918132 170.247103 
L 492.020847 176.839706 
L 491.346206 183.444432 
L 490.895642 190.052849 
L 490.670169 196.656531 
L 490.670385 203.24706 
L 490.896464 209.816026 
L 491.348164 216.355026 
L 492.024822 222.855664 
L 492.925355 229.309552 
L 494.048262 235.708309 
L 495.391623 242.043561 
L 496.953096 248.306942 
L 498.729922 254.490092 
L 500.718921 260.584661 
L 502.916496 266.582304 
L 505.318628 272.474684 
L 507.92088 278.253472 
L 510.718394 283.910345 
L 513.705894 289.436989 
L 516.877686 294.825097 
L 520.227653 300.066367 
L 523.749261 305.152509 
L 527.435556 310.075235 
L 531.279165 314.826269 
L 535.272295 319.397339 
L 539.406733 323.780182 
L 543.673862 327.966559 
L 548.083059 331.970681 
L 552.646583 335.805057 
L 557.362132 339.462546 
L 562.227022 342.936331 
L 567.238183 346.219919 
L 572.392157 349.307142 
L 577.685104 352.192154 
L 583.112797 354.869434 
L 588.670622 357.333786 
L 594.353582 359.580336 
L 600.156292 361.604535 
L 606.072985 363.402159 
L 612.097505 364.969307 
L 618.223312 366.3024 
L 624.443481 367.398187 
L 630.7507 368.253738 
L 637.137273 368.866448 
L 643.595118 369.234036 
L 650.115766 369.354545 
L 656.690366 369.226342 
L 663.309678 368.848117 
L 669.964078 368.218886 
L 676.643557 367.337987 
L 683.337719 366.205083 
L 690.035784 364.82016 
L 696.726586 363.183531 
L 703.398573 361.295828 
L 710.039808 359.158012 
L 716.637968 356.771364 
L 723.180346 354.137492 
L 729.653847 351.258326 
L 736.044992 348.136121 
L 742.339917 344.773456 
L 748.524373 341.173233 
L 754.583722 337.338678 
L 760.502944 333.273344 
L 766.272226 328.981073 
L 771.8971 324.465636 
L 777.36126 319.730947 
L 782.646753 314.781421 
L 787.736511 309.621983 
L 792.614351 304.258065 
L 797.264979 298.695608 
L 801.673984 292.941063 
L 805.827843 287.00139 
L 809.713917 280.884057 
L 813.320455 274.597041 
L 816.636591 268.148827 
L 819.652344 261.548412 
L 822.358621 254.805298 
L 824.747213 247.929499 
L 826.810799 240.931535 
L 828.542942 233.822437 
L 829.938093 226.613745 
L 830.991586 219.317506 
L 831.699644 211.946277 
L 832.059374 204.513125 
L 832.06877 197.031623 
L 831.726712 189.515856 
L 831.032966 181.980416 
L 829.988183 174.440404 
L 828.5939 166.911431 
L 826.852542 159.409615 
L 824.767417 151.951585 
L 822.342722 144.554476 
L 819.583537 137.235936 
L 816.49583 130.014117 
L 813.086455 122.907685 
L 809.36315 115.93581 
L 805.334542 109.118175 
L 801.010141 102.474969 
L 796.401656 96.020211 
L 791.525265 89.75112 
L 786.394768 83.680482 
L 781.023979 77.82173 
L 775.426986 72.187559 
L 769.618146 66.789927 
L 763.612093 61.640054 
L 757.423729 56.748426 
L 751.068231 52.124788 
L 744.561048 47.778149 
L 737.917899 43.716784 
L 731.154779 39.948226 
L 724.287953 36.479274 
L 717.333959 33.315989 
L 717.333959 33.315989 
" clip-path="url(#p2e92d3f49f)" style="fill: none; stroke: #000000; stroke-width: 1.5; stroke-linecap: square"/>
   </g>
   <g id="patch_9">
    <path d="M 473.56875 386.6 
L 473.56875 7.2 
" style="fill: none; stroke: #000000; stroke-width: 0.8; stroke-linejoin: miter; stroke-linecap: square"/>
   </g>
   <g id="patch_10">
    <path d="M 849.18125 386.6 
L 849.18125 7.2 
" style="fill: none; stroke: #000000; stroke-width: 0.8; stroke-linejoin: miter; stroke-linecap: square"/>
   </g>
   <g id="patch_11">
    <path d="M 473.56875 386.6 
L 849.18125 386.6 
" style="fill: none; stroke: #000000; stroke-width: 0.8; stroke-linejoin: miter; stroke-linecap: square"/>
   </g>
   <g id="patch_12">
    <path d="M 473.56875 7.2 
L 849.18125 7.2 
" style="fill: none; stroke: #000000; stroke-width: 0.8; stroke-linejoin: miter; stroke-linecap: square"/>
   </g>
  </g>
 </g>
 <defs>
  <clipPath id="p098b5b567a">
   <rect x="43.78125" y="7.2" width="375.6125" height="379.4"/>
  </clipPath>
  <clipPath id="p2e92d3f49f">
   <rect x="473.56875" y="7.2" width="375.6125" height="379.4"/>
  </clipPath>
 </defs>
</svg>
