<?xml version="1.0" encoding="utf-8" standalone="no"?>
<!DOCTYPE svg PUBLIC "-//W3C//DTD SVG 1.1//EN"
  "http://www.w3.org/Graphics/SVG/1.1/DTD/svg11.dtd">
<svg xmlns:xlink="http://www.w3.org/1999/xlink" width="392.698937pt" height="350.238125pt" viewBox="0 0 392.698937 350.238125" xmlns="http://www.w3.org/2000/svg" version="1.1">
 <metadata>
  <rdf:RDF xmlns:dc="http://purl.org/dc/elements/1.1/" xmlns:cc="http://creativecommons.org/ns#" xmlns:rdf="http://www.w3.org/1999/02/22-rdf-syntax-ns#">
   <cc:Work>
    <dc:type rdf:resource="http://purl.org/dc/dcmitype/StillImage"/>
    <dc:date>2024-10-07T20:48:52.215199</dc:date>
    <dc:format>image/svg+xml</dc:format>
    <dc:creator>
     <cc:Agent>
      <dc:title>Matplotlib v3.5.2, https://matplotlib.org/</dc:title>
     </cc:Agent>
    </dc:creator>
   </cc:Work>
  </rdf:RDF>
 </metadata>
 <defs>
  <style type="text/css">*{stroke-linejoin: round; stroke-linecap: butt}</style>
 </defs>
 <g id="figure_1">
  <g id="patch_1">
   <path d="M 0 350.238125 
L 392.698937 350.238125 
L 392.698937 0 
L 0 0 
z
" style="fill: #ffffff"/>
  </g>
  <g id="axes_1">
   <g id="patch_2">
    <path d="M 52.160938 307.999219 
L 320.000938 307.999219 
L 320.000938 40.159219 
L 52.160938 40.159219 
z
" style="fill: #ffffff"/>
   </g>
   <g id="PathCollection_1">
    <path d="M 54.839337 307.999219 
L 57.517737 307.999219 
L 60.196137 307.999219 
L 62.874537 307.999219 
L 65.552937 307.999219 
L 68.231337 307.999219 
L 70.909737 307.999219 
L 73.588138 307.999219 
L 76.266537 307.999219 
L 78.944937 307.999219 
L 81.623337 307.999219 
L 84.301737 307.999219 
L 86.980137 307.999219 
L 89.658537 307.999219 
L 92.336938 307.999219 
L 95.015338 307.999219 
L 97.693738 307.999219 
L 100.372137 307.999219 
L 103.050537 307.999219 
L 105.728938 307.999219 
L 108.407337 307.999219 
L 111.085737 307.999219 
L 113.764137 307.999219 
L 116.442538 307.999219 
L 119.120937 307.999219 
L 121.799337 307.999219 
L 124.477738 307.999219 
L 127.156137 307.999219 
L 129.834537 307.999219 
L 132.512937 307.999219 
L 135.191338 307.999219 
L 137.869737 307.999219 
L 140.548137 307.999219 
L 143.226538 307.999219 
L 145.904938 307.999219 
L 148.583337 307.999219 
L 151.261738 307.999219 
L 153.940137 307.999219 
L 156.618538 307.999219 
L 159.296938 307.999219 
L 161.975338 307.999219 
L 164.653738 307.999219 
L 167.332137 307.999219 
L 170.010537 307.999219 
L 172.688938 307.999219 
L 175.367338 307.999219 
L 178.045738 307.999219 
L 180.724138 307.999219 
L 183.402537 307.999219 
L 186.080938 307.999219 
L 188.759338 307.999219 
L 191.437737 307.999219 
L 194.116138 307.999219 
L 196.794538 307.999219 
L 199.472938 307.999219 
L 202.151338 307.999219 
L 204.829738 307.999219 
L 207.508138 307.999219 
L 210.186537 307.999219 
L 212.864937 307.999219 
L 215.543338 307.999219 
L 218.221738 307.999219 
L 220.900137 307.999219 
L 223.578538 307.999219 
L 226.256938 307.999219 
L 228.935338 307.999219 
L 231.613738 307.999219 
L 234.292138 307.999219 
L 236.970538 307.999219 
L 239.648938 307.999219 
L 242.327337 307.999219 
L 245.005738 307.999219 
L 247.684138 307.999219 
L 250.362538 307.999219 
L 253.040938 307.999219 
L 255.719337 307.999219 
L 258.397738 307.999219 
L 261.076138 307.999219 
L 263.754538 307.999219 
L 266.432938 307.999219 
L 269.111338 307.999219 
L 271.789738 307.999219 
L 274.468138 307.999219 
L 277.146538 307.999219 
L 279.824938 307.999219 
L 282.503338 307.999219 
L 285.181737 307.999219 
L 287.860138 307.999219 
L 290.538538 307.999219 
L 293.216938 307.999219 
L 295.895338 307.999219 
L 298.573738 307.999219 
L 301.252138 307.999219 
L 303.930538 307.999219 
L 306.608938 307.999219 
L 309.287338 307.999219 
L 311.965738 307.999219 
L 314.644138 307.999219 
L 317.322538 307.999219 
L 320.000938 307.999219 
L 320.000938 305.320819 
L 320.000938 302.642419 
L 320.000938 299.964019 
L 320.000938 297.285619 
L 320.000938 294.607219 
L 320.000938 291.928819 
L 320.000938 289.250419 
L 320.000938 286.572019 
L 320.000938 283.893619 
L 320.000938 281.215219 
L 320.000938 278.536819 
L 320.000938 275.858419 
L 320.000938 273.180019 
L 320.000938 270.501619 
L 320.000938 267.823219 
L 320.000938 265.144819 
L 320.000938 262.466419 
L 320.000938 259.788019 
L 320.000938 257.109619 
L 320.000938 254.431219 
L 320.000938 251.752819 
L 320.000938 249.074419 
L 320.000938 246.396019 
L 320.000938 243.717619 
L 320.000938 241.039219 
L 320.000938 238.360819 
L 320.000938 235.682419 
L 320.000938 233.004019 
L 320.000938 230.325619 
L 320.000938 227.647219 
L 320.000938 224.968819 
L 320.000938 222.290419 
L 320.000938 219.612019 
L 320.000938 216.933619 
L 320.000938 214.255219 
L 320.000938 211.576819 
L 320.000938 208.898419 
L 320.000938 206.220019 
L 320.000938 203.541619 
L 320.000938 200.863219 
L 320.000938 198.184819 
L 320.000938 195.506419 
L 320.000938 192.828019 
L 320.000938 190.149619 
L 320.000938 187.471219 
L 320.000938 184.792819 
L 320.000938 182.114419 
L 320.000938 179.436019 
L 320.000938 176.757619 
L 320.000938 174.079219 
L 320.000938 171.400819 
L 320.000938 168.722419 
L 320.000938 166.044019 
L 320.000938 163.365619 
L 320.000938 160.687219 
L 320.000938 158.008819 
L 320.000938 155.330419 
L 320.000938 152.652019 
L 320.000938 149.973619 
L 320.000938 147.295219 
L 320.000938 144.616819 
L 320.000938 141.938419 
L 320.000938 139.260019 
L 320.000938 136.581619 
L 320.000938 133.903219 
L 320.000938 131.224819 
L 320.000938 128.546419 
L 320.000938 125.868019 
L 320.000938 123.189619 
L 320.000938 120.511219 
L 320.000938 117.832819 
L 320.000938 115.154419 
L 320.000938 112.476019 
L 320.000938 109.797619 
L 320.000938 107.119219 
L 320.000938 104.440819 
L 320.000938 101.762419 
L 320.000938 99.084019 
L 320.000938 96.405619 
L 320.000938 93.727219 
L 320.000938 91.048819 
L 320.000938 88.370419 
L 320.000938 85.692019 
L 320.000938 83.013619 
L 320.000938 80.335219 
L 320.000938 77.656819 
L 320.000938 74.978419 
L 320.000938 72.300019 
L 320.000938 69.621619 
L 320.000938 66.943219 
L 320.000938 64.264819 
L 320.000938 61.586419 
L 320.000938 58.908019 
L 320.000938 56.229619 
L 320.000938 53.551219 
L 320.000938 50.872819 
L 320.000938 48.194419 
L 320.000938 45.516019 
L 320.000938 42.837619 
L 320.000938 40.159219 
L 317.322538 40.159219 
L 314.644138 40.159219 
L 311.965738 40.159219 
L 309.287338 40.159219 
L 306.608938 40.159219 
L 303.930538 40.159219 
L 301.252138 40.159219 
L 298.573738 40.159219 
L 295.895338 40.159219 
L 293.216938 40.159219 
L 290.538538 40.159219 
L 287.860138 40.159219 
L 285.181737 40.159219 
L 282.503338 40.159219 
L 279.824938 40.159219 
L 277.146538 40.159219 
L 274.468138 40.159219 
L 271.789738 40.159219 
L 269.111338 40.159219 
L 266.432938 40.159219 
L 263.754538 40.159219 
L 261.076138 40.159219 
L 258.397738 40.159219 
L 255.719337 40.159219 
L 253.040938 40.159219 
L 250.362538 40.159219 
L 247.684138 40.159219 
L 245.005738 40.159219 
L 242.327337 40.159219 
L 239.648938 40.159219 
L 236.970538 40.159219 
L 234.292138 40.159219 
L 231.613738 40.159219 
L 228.935338 40.159219 
L 226.256938 40.159219 
L 223.578538 40.159219 
L 220.900137 40.159219 
L 218.221738 40.159219 
L 215.543338 40.159219 
L 212.864937 40.159219 
L 210.186537 40.159219 
L 207.508138 40.159219 
L 204.829738 40.159219 
L 202.151338 40.159219 
L 199.472938 40.159219 
L 196.794538 40.159219 
L 194.116138 40.159219 
L 191.437737 40.159219 
L 188.759338 40.159219 
L 186.080938 40.159219 
L 183.402537 40.159219 
L 180.724138 40.159219 
L 178.045738 40.159219 
L 175.367338 40.159219 
L 172.688938 40.159219 
L 170.010537 40.159219 
L 167.332137 40.159219 
L 164.653738 40.159219 
L 161.975338 40.159219 
L 159.296938 40.159219 
L 156.618538 40.159219 
L 153.940137 40.159219 
L 151.261738 40.159219 
L 148.583337 40.159219 
L 145.904938 40.159219 
L 143.226538 40.159219 
L 140.548137 40.159219 
L 137.869737 40.159219 
L 135.191338 40.159219 
L 132.512937 40.159219 
L 129.834537 40.159219 
L 127.156137 40.159219 
L 124.477738 40.159219 
L 121.799337 40.159219 
L 119.120937 40.159219 
L 116.442538 40.159219 
L 113.764137 40.159219 
L 111.085737 40.159219 
L 108.407337 40.159219 
L 105.728938 40.159219 
L 103.050537 40.159219 
L 100.372137 40.159219 
L 97.693738 40.159219 
L 95.015338 40.159219 
L 92.336938 40.159219 
L 89.658537 40.159219 
L 86.980137 40.159219 
L 84.301737 40.159219 
L 81.623337 40.159219 
L 78.944937 40.159219 
L 76.266537 40.159219 
L 73.588138 40.159219 
L 70.909737 40.159219 
L 68.231337 40.159219 
L 65.552937 40.159219 
L 62.874537 40.159219 
L 60.196137 40.159219 
L 57.517737 40.159219 
L 54.839337 40.159219 
L 52.160937 40.159219 
L 52.160937 42.837619 
L 52.160937 45.516019 
L 52.160937 48.194419 
L 52.160937 50.872819 
L 52.160937 53.551219 
L 52.160937 56.229619 
L 52.160937 58.908019 
L 52.160937 61.586419 
L 52.160937 64.264819 
L 52.160937 66.943219 
L 52.160937 69.621619 
L 52.160937 72.300019 
L 52.160937 74.978419 
L 52.160937 77.656819 
L 52.160937 80.335219 
L 52.160937 83.013619 
L 52.160937 85.692019 
L 52.160937 88.370419 
L 52.160937 91.048819 
L 52.160937 93.727219 
L 52.160937 96.405619 
L 52.160937 99.084019 
L 52.160937 101.762419 
L 52.160937 104.440819 
L 52.160937 107.119219 
L 52.160937 109.797619 
L 52.160937 112.476019 
L 52.160937 115.154419 
L 52.160937 117.832819 
L 52.160937 120.511219 
L 52.160937 123.189619 
L 52.160937 125.868019 
L 52.160937 128.546419 
L 52.160937 131.224819 
L 52.160937 133.903219 
L 52.160937 136.581619 
L 52.160937 139.260019 
L 52.160937 141.938419 
L 52.160937 144.616819 
L 52.160937 147.295219 
L 52.160937 149.973619 
L 52.160937 152.652019 
L 52.160937 155.330419 
L 52.160937 158.008819 
L 52.160937 160.687219 
L 52.160937 163.365619 
L 52.160937 166.044019 
L 52.160937 168.722419 
L 52.160937 171.400819 
L 52.160937 174.079219 
L 52.160937 176.757619 
L 52.160937 179.436019 
L 52.160937 182.114419 
L 52.160937 184.792819 
L 52.160937 187.471219 
L 52.160937 190.149619 
L 52.160937 192.828019 
L 52.160937 195.506419 
L 52.160937 198.184819 
L 52.160937 200.863219 
L 52.160937 203.541619 
L 52.160937 206.220019 
L 52.160937 208.898419 
L 52.160937 211.576819 
L 52.160937 214.255219 
L 52.160937 216.933619 
L 52.160937 219.612019 
L 52.160937 222.290419 
L 52.160937 224.968819 
L 52.160937 227.647219 
L 52.160937 230.325619 
L 52.160937 233.004019 
L 52.160937 235.682419 
L 52.160937 238.360819 
L 52.160937 241.039219 
L 52.160937 243.717619 
L 52.160937 246.396019 
L 52.160937 249.074419 
L 52.160937 251.752819 
L 52.160937 254.431219 
L 52.160937 257.109619 
L 52.160937 259.788019 
L 52.160937 262.466419 
L 52.160937 265.144819 
L 52.160937 267.823219 
L 52.160937 270.501619 
L 52.160937 273.180019 
L 52.160937 275.858419 
L 52.160937 278.536819 
L 52.160937 281.215219 
L 52.160937 283.893619 
L 52.160937 286.572019 
L 52.160937 289.250419 
L 52.160937 291.928819 
L 52.160937 294.607219 
L 52.160937 297.285619 
L 52.160937 299.964019 
L 52.160937 302.642419 
L 52.160937 305.320819 
L 52.160937 307.999219 
z
M 180.188457 184.792819 
L 178.045738 183.415356 
L 176.7448 182.114419 
L 175.367338 179.971699 
L 175.022121 179.436019 
L 173.943619 176.757619 
L 173.641257 174.079219 
L 173.943619 171.400819 
L 175.022121 168.722419 
L 175.367338 168.186739 
L 176.7448 166.044019 
L 178.045738 164.743082 
L 180.188458 163.365619 
L 180.724138 163.020403 
L 183.402537 161.9419 
L 186.080938 161.639539 
L 188.759338 161.9419 
L 191.437737 163.020403 
L 191.973417 163.365619 
L 194.116138 164.743082 
L 195.417075 166.044019 
L 196.794538 168.186739 
L 197.139754 168.722419 
L 198.218256 171.400819 
L 198.520618 174.079219 
L 198.218256 176.757619 
L 197.139754 179.436019 
L 196.794538 179.971699 
L 195.417075 182.114419 
L 194.116138 183.415356 
L 191.973418 184.792819 
L 191.437737 185.138035 
L 188.759338 186.216537 
L 186.080938 186.518899 
L 183.402537 186.216537 
L 180.724138 185.138035 
z
" clip-path="url(#p2bd22e9d2e)" style="fill: #4257c9"/>
   </g>
   <g id="PathCollection_2">
    <path d="M 180.724138 185.138035 
L 183.402537 186.216537 
L 186.080938 186.518899 
L 188.759338 186.216537 
L 191.437737 185.138035 
L 191.973418 184.792819 
L 194.116138 183.415356 
L 195.417075 182.114419 
L 196.794538 179.971699 
L 197.139754 179.436019 
L 198.218256 176.757619 
L 198.520618 174.079219 
L 198.218256 171.400819 
L 197.139754 168.722419 
L 196.794538 168.186739 
L 195.417075 166.044019 
L 194.116138 164.743082 
L 191.973417 163.365619 
L 191.437737 163.020403 
L 188.759338 161.9419 
L 186.080938 161.639539 
L 183.402537 161.9419 
L 180.724138 163.020403 
L 180.188458 163.365619 
L 178.045738 164.743082 
L 176.7448 166.044019 
L 175.367338 168.186739 
L 175.022121 168.722419 
L 173.943619 171.400819 
L 173.641257 174.079219 
L 173.943619 176.757619 
L 175.022121 179.436019 
L 175.367338 179.971699 
L 176.7448 182.114419 
L 178.045738 183.415356 
L 180.188457 184.792819 
z
M 182.938281 182.114419 
L 180.724138 181.05163 
L 179.108527 179.436019 
L 178.045738 177.221875 
L 177.78555 176.757619 
L 177.213138 174.079219 
L 177.78555 171.400819 
L 178.045738 170.936563 
L 179.108527 168.722419 
L 180.724138 167.106808 
L 182.938282 166.044019 
L 183.402537 165.783831 
L 186.080938 165.211419 
L 188.759338 165.783831 
L 189.223593 166.044019 
L 191.437737 167.106808 
L 193.053348 168.722419 
L 194.116138 170.936563 
L 194.376325 171.400819 
L 194.948737 174.079219 
L 194.376325 176.757619 
L 194.116138 177.221875 
L 193.053348 179.436019 
L 191.437737 181.05163 
L 189.223594 182.114419 
L 188.759338 182.374606 
L 186.080938 182.947019 
L 183.402537 182.374606 
z
" clip-path="url(#p2bd22e9d2e)" style="fill: #506bda"/>
   </g>
   <g id="PathCollection_3">
    <path d="M 183.402537 182.374606 
L 186.080938 182.947019 
L 188.759338 182.374606 
L 189.223594 182.114419 
L 191.437737 181.05163 
L 193.053348 179.436019 
L 194.116138 177.221875 
L 194.376325 176.757619 
L 194.948737 174.079219 
L 194.376325 171.400819 
L 194.116138 170.936563 
L 193.053348 168.722419 
L 191.437737 167.106808 
L 189.223593 166.044019 
L 188.759338 165.783831 
L 186.080938 165.211419 
L 183.402537 165.783831 
L 182.938282 166.044019 
L 180.724138 167.106808 
L 179.108527 168.722419 
L 178.045738 170.936563 
L 177.78555 171.400819 
L 177.213138 174.079219 
L 177.78555 176.757619 
L 178.045738 177.221875 
L 179.108527 179.436019 
L 180.724138 181.05163 
L 182.938281 182.114419 
z
M 181.402666 179.436019 
L 180.724138 178.757491 
L 179.224233 176.757619 
L 178.679983 174.079219 
L 179.224233 171.400819 
L 180.724138 169.400947 
L 181.402666 168.722419 
L 183.402537 167.222515 
L 186.080938 166.678264 
L 188.759338 167.222515 
L 190.759209 168.722419 
L 191.437737 169.400947 
L 192.937642 171.400819 
L 193.481892 174.079219 
L 192.937642 176.757619 
L 191.437737 178.757491 
L 190.759209 179.436019 
L 188.759338 180.935923 
L 186.080938 181.480174 
L 183.402537 180.935923 
z
" clip-path="url(#p2bd22e9d2e)" style="fill: #5f7fe8"/>
   </g>
   <g id="PathCollection_4">
    <path d="M 183.402537 180.935923 
L 186.080938 181.480174 
L 188.759338 180.935923 
L 190.759209 179.436019 
L 191.437737 178.757491 
L 192.937642 176.757619 
L 193.481892 174.079219 
L 192.937642 171.400819 
L 191.437737 169.400947 
L 190.759209 168.722419 
L 188.759338 167.222515 
L 186.080938 166.678264 
L 183.402537 167.222515 
L 181.402666 168.722419 
L 180.724138 169.400947 
L 179.224233 171.400819 
L 178.679983 174.079219 
L 179.224233 176.757619 
L 180.724138 178.757491 
L 181.402666 179.436019 
z
M 183.116842 179.436019 
L 180.724138 177.043315 
L 180.509866 176.757619 
L 179.605638 174.079219 
L 180.509866 171.400819 
L 180.724138 171.115123 
L 183.116842 168.722419 
L 183.402537 168.508147 
L 186.080938 167.603919 
L 188.759338 168.508147 
L 189.045033 168.722419 
L 191.437737 171.115123 
L 191.652009 171.400819 
L 192.556237 174.079219 
L 191.652009 176.757619 
L 191.437737 177.043315 
L 189.045033 179.436019 
L 188.759338 179.650291 
L 186.080938 180.554519 
L 183.402537 179.650291 
z
" clip-path="url(#p2bd22e9d2e)" style="fill: #6f92f3"/>
   </g>
   <g id="PathCollection_5">
    <path d="M 183.402537 179.650291 
L 186.080938 180.554519 
L 188.759338 179.650291 
L 189.045033 179.436019 
L 191.437737 177.043315 
L 191.652009 176.757619 
L 192.556237 174.079219 
L 191.652009 171.400819 
L 191.437737 171.115123 
L 189.045033 168.722419 
L 188.759338 168.508147 
L 186.080938 167.603919 
L 183.402537 168.508147 
L 183.116842 168.722419 
L 180.724138 171.115123 
L 180.509866 171.400819 
L 179.605638 174.079219 
L 180.509866 176.757619 
L 180.724138 177.043315 
L 183.116842 179.436019 
z
M 185.545258 179.436019 
L 183.402537 179.078899 
L 181.081257 176.757619 
L 180.724138 174.614899 
L 180.531293 174.079219 
L 180.724138 173.543539 
L 181.081257 171.400819 
L 183.402537 169.079539 
L 185.545258 168.722419 
L 186.080938 168.529574 
L 186.616617 168.722419 
L 188.759338 169.079539 
L 191.080618 171.400819 
L 191.437737 173.543539 
L 191.630582 174.079219 
L 191.437737 174.614899 
L 191.080618 176.757619 
L 188.759338 179.078899 
L 186.616617 179.436019 
L 186.080938 179.628864 
z
" clip-path="url(#p2bd22e9d2e)" style="fill: #80a3fa"/>
   </g>
   <g id="PathCollection_6">
    <path d="M 186.080938 179.628864 
L 186.616617 179.436019 
L 188.759338 179.078899 
L 191.080618 176.757619 
L 191.437737 174.614899 
L 191.630582 174.079219 
L 191.437737 173.543539 
L 191.080618 171.400819 
L 188.759338 169.079539 
L 186.616617 168.722419 
L 186.080938 168.529574 
L 185.545258 168.722419 
L 183.402537 169.079539 
L 181.081257 171.400819 
L 180.724138 173.543539 
L 180.531293 174.079219 
L 180.724138 174.614899 
L 181.081257 176.757619 
L 183.402537 179.078899 
L 185.545258 179.436019 
z
M 181.509802 176.757619 
L 180.859843 174.079219 
L 181.509802 171.400819 
L 183.402537 169.508083 
L 186.080938 168.858124 
L 188.759338 169.508083 
L 190.652074 171.400819 
L 191.302032 174.079219 
L 190.652074 176.757619 
L 188.759338 178.650355 
L 186.080938 179.300313 
L 183.402537 178.650355 
z
" clip-path="url(#p2bd22e9d2e)" style="fill: #92b4fe"/>
   </g>
   <g id="PathCollection_7">
    <path d="M 183.402537 178.650355 
L 186.080938 179.300313 
L 188.759338 178.650355 
L 190.652074 176.757619 
L 191.302032 174.079219 
L 190.652074 171.400819 
L 188.759338 169.508083 
L 186.080938 168.858124 
L 183.402537 169.508083 
L 181.509802 171.400819 
L 180.859843 174.079219 
L 181.509802 176.757619 
z
M 181.938345 176.757619 
L 181.031261 174.079219 
L 181.938345 171.400819 
L 183.402537 169.936627 
L 186.080938 169.029542 
L 188.759338 169.936627 
L 190.22353 171.400819 
L 191.130614 174.079219 
L 190.22353 176.757619 
L 188.759338 178.221811 
L 186.080938 179.128896 
L 183.402537 178.221811 
z
" clip-path="url(#p2bd22e9d2e)" style="fill: #a2c1ff"/>
   </g>
   <g id="PathCollection_8">
    <path d="M 183.402537 178.221811 
L 186.080938 179.128896 
L 188.759338 178.221811 
L 190.22353 176.757619 
L 191.130614 174.079219 
L 190.22353 171.400819 
L 188.759338 169.936627 
L 186.080938 169.029542 
L 183.402537 169.936627 
L 181.938345 171.400819 
L 181.031261 174.079219 
L 181.938345 176.757619 
z
M 182.36689 176.757619 
L 181.202678 174.079219 
L 182.36689 171.400819 
L 183.402537 170.365171 
L 186.080938 169.20096 
L 188.759338 170.365171 
L 189.794985 171.400819 
L 190.959197 174.079219 
L 189.794985 176.757619 
L 188.759338 177.793267 
L 186.080938 178.957478 
L 183.402537 177.793267 
z
" clip-path="url(#p2bd22e9d2e)" style="fill: #b2ccfb"/>
   </g>
   <g id="PathCollection_9">
    <path d="M 183.402537 177.793267 
L 186.080938 178.957478 
L 188.759338 177.793267 
L 189.794985 176.757619 
L 190.959197 174.079219 
L 189.794985 171.400819 
L 188.759338 170.365171 
L 186.080938 169.20096 
L 183.402537 170.365171 
L 182.36689 171.400819 
L 181.202678 174.079219 
L 182.36689 176.757619 
z
M 182.795434 176.757619 
L 181.374096 174.079219 
L 182.795434 171.400819 
L 183.402537 170.793715 
L 186.080938 169.372377 
L 188.759338 170.793715 
L 189.366442 171.400819 
L 190.787779 174.079219 
L 189.366442 176.757619 
L 188.759338 177.364723 
L 186.080938 178.78606 
L 183.402537 177.364723 
z
" clip-path="url(#p2bd22e9d2e)" style="fill: #c1d4f4"/>
   </g>
   <g id="PathCollection_10">
    <path d="M 183.402537 177.364723 
L 186.080938 178.78606 
L 188.759338 177.364723 
L 189.366442 176.757619 
L 190.787779 174.079219 
L 189.366442 171.400819 
L 188.759338 170.793715 
L 186.080938 169.372377 
L 183.402537 170.793715 
L 182.795434 171.400819 
L 181.374096 174.079219 
L 182.795434 176.757619 
z
M 183.223978 176.757619 
L 181.545513 174.079219 
L 183.223978 171.400819 
L 183.402537 171.222259 
L 186.080938 169.543795 
L 188.759338 171.222259 
L 188.937897 171.400819 
L 190.616362 174.079219 
L 188.937897 176.757619 
L 188.759338 176.936179 
L 186.080938 178.614643 
L 183.402537 176.936179 
z
" clip-path="url(#p2bd22e9d2e)" style="fill: #cfdaea"/>
   </g>
   <g id="PathCollection_11">
    <path d="M 183.402537 176.936179 
L 186.080938 178.614643 
L 188.759338 176.936179 
L 188.937897 176.757619 
L 190.616362 174.079219 
L 188.937897 171.400819 
L 188.759338 171.222259 
L 186.080938 169.543795 
L 183.402537 171.222259 
L 183.223978 171.400819 
L 181.545513 174.079219 
L 183.223978 176.757619 
z
M 183.552528 176.757619 
L 183.402537 176.607628 
L 181.716931 174.079219 
L 183.402537 171.550809 
L 183.552528 171.400819 
L 186.080938 169.715212 
L 188.609347 171.400819 
L 188.759338 171.550809 
L 190.444944 174.079219 
L 188.759338 176.607628 
L 188.609347 176.757619 
L 186.080938 178.443225 
z
" clip-path="url(#p2bd22e9d2e)" style="fill: #dddcdc"/>
   </g>
   <g id="PathCollection_12">
    <path d="M 186.080938 178.443225 
L 188.609347 176.757619 
L 188.759338 176.607628 
L 190.444944 174.079219 
L 188.759338 171.550809 
L 188.609347 171.400819 
L 186.080938 169.715212 
L 183.552528 171.400819 
L 183.402537 171.550809 
L 181.716931 174.079219 
L 183.402537 176.607628 
L 183.552528 176.757619 
z
M 183.809654 176.757619 
L 183.402537 176.350502 
L 181.888349 174.079219 
L 183.402537 171.807936 
L 183.809654 171.400819 
L 186.080938 169.88663 
L 188.352221 171.400819 
L 188.759338 171.807936 
L 190.273526 174.079219 
L 188.759338 176.350502 
L 188.352221 176.757619 
L 186.080938 178.271808 
z
" clip-path="url(#p2bd22e9d2e)" style="fill: #e9d5cb"/>
   </g>
   <g id="PathCollection_13">
    <path d="M 186.080938 178.271808 
L 188.352221 176.757619 
L 188.759338 176.350502 
L 190.273526 174.079219 
L 188.759338 171.807936 
L 188.352221 171.400819 
L 186.080938 169.88663 
L 183.809654 171.400819 
L 183.402537 171.807936 
L 181.888349 174.079219 
L 183.402537 176.350502 
L 183.809654 176.757619 
z
M 184.066781 176.757619 
L 183.402537 176.093376 
L 182.059766 174.079219 
L 183.402537 172.065062 
L 184.066781 171.400819 
L 186.080938 170.058048 
L 188.095094 171.400819 
L 188.759338 172.065062 
L 190.102109 174.079219 
L 188.759338 176.093376 
L 188.095094 176.757619 
L 186.080938 178.10039 
z
" clip-path="url(#p2bd22e9d2e)" style="fill: #f1ccb8"/>
   </g>
   <g id="PathCollection_14">
    <path d="M 186.080938 178.10039 
L 188.095094 176.757619 
L 188.759338 176.093376 
L 190.102109 174.079219 
L 188.759338 172.065062 
L 188.095094 171.400819 
L 186.080938 170.058048 
L 184.066781 171.400819 
L 183.402537 172.065062 
L 182.059766 174.079219 
L 183.402537 176.093376 
L 184.066781 176.757619 
z
M 184.323907 176.757619 
L 183.402537 175.836249 
L 182.231184 174.079219 
L 183.402537 172.322188 
L 184.323907 171.400819 
L 186.080938 170.229465 
L 187.837968 171.400819 
L 188.759338 172.322188 
L 189.930691 174.079219 
L 188.759338 175.836249 
L 187.837968 176.757619 
L 186.080938 177.928972 
z
" clip-path="url(#p2bd22e9d2e)" style="fill: #f6bfa6"/>
   </g>
   <g id="PathCollection_15">
    <path d="M 186.080938 177.928972 
L 187.837968 176.757619 
L 188.759338 175.836249 
L 189.930691 174.079219 
L 188.759338 172.322188 
L 187.837968 171.400819 
L 186.080938 170.229465 
L 184.323907 171.400819 
L 183.402537 172.322188 
L 182.231184 174.079219 
L 183.402537 175.836249 
L 184.323907 176.757619 
z
M 184.581034 176.757619 
L 183.402537 175.579123 
L 182.402602 174.079219 
L 183.402537 172.579315 
L 184.581034 171.400819 
L 186.080938 170.400883 
L 187.580841 171.400819 
L 188.759338 172.579315 
L 189.759274 174.079219 
L 188.759338 175.579123 
L 187.580841 176.757619 
L 186.080938 177.757555 
z
" clip-path="url(#p2bd22e9d2e)" style="fill: #f7b093"/>
   </g>
   <g id="PathCollection_16">
    <path d="M 186.080938 177.757555 
L 187.580841 176.757619 
L 188.759338 175.579123 
L 189.759274 174.079219 
L 188.759338 172.579315 
L 187.580841 171.400819 
L 186.080938 170.400883 
L 184.581034 171.400819 
L 183.402537 172.579315 
L 182.402602 174.079219 
L 183.402537 175.579123 
L 184.581034 176.757619 
z
M 184.83816 176.757619 
L 183.402537 175.321996 
L 182.574019 174.079219 
L 183.402537 172.836441 
L 184.83816 171.400819 
L 186.080938 170.5723 
L 187.323715 171.400819 
L 188.759338 172.836441 
L 189.587856 174.079219 
L 188.759338 175.321996 
L 187.323715 176.757619 
L 186.080938 177.586137 
z
" clip-path="url(#p2bd22e9d2e)" style="fill: #f59f80"/>
   </g>
   <g id="PathCollection_17">
    <path d="M 186.080938 177.586137 
L 187.323715 176.757619 
L 188.759338 175.321996 
L 189.587856 174.079219 
L 188.759338 172.836441 
L 187.323715 171.400819 
L 186.080938 170.5723 
L 184.83816 171.400819 
L 183.402537 172.836441 
L 182.574019 174.079219 
L 183.402537 175.321996 
L 184.83816 176.757619 
z
M 185.095286 176.757619 
L 183.402537 175.06487 
L 182.745437 174.079219 
L 183.402537 173.093568 
L 185.095286 171.400819 
L 186.080938 170.743718 
L 187.066589 171.400819 
L 188.759338 173.093568 
L 189.416438 174.079219 
L 188.759338 175.06487 
L 187.066589 176.757619 
L 186.080938 177.41472 
z
" clip-path="url(#p2bd22e9d2e)" style="fill: #f08a6c"/>
   </g>
   <g id="PathCollection_18">
    <path d="M 186.080938 177.41472 
L 187.066589 176.757619 
L 188.759338 175.06487 
L 189.416438 174.079219 
L 188.759338 173.093568 
L 187.066589 171.400819 
L 186.080938 170.743718 
L 185.095286 171.400819 
L 183.402537 173.093568 
L 182.745437 174.079219 
L 183.402537 175.06487 
L 185.095286 176.757619 
z
M 185.352413 176.757619 
L 183.402537 174.807744 
L 182.916854 174.079219 
L 183.402537 173.350694 
L 185.352413 171.400819 
L 186.080938 170.915136 
L 186.809462 171.400819 
L 188.759338 173.350694 
L 189.245021 174.079219 
L 188.759338 174.807744 
L 186.809462 176.757619 
L 186.080938 177.243302 
z
" clip-path="url(#p2bd22e9d2e)" style="fill: #e7745b"/>
   </g>
   <g id="PathCollection_19">
    <path d="M 186.080938 177.243302 
L 186.809462 176.757619 
L 188.759338 174.807744 
L 189.245021 174.079219 
L 188.759338 173.350694 
L 186.809462 171.400819 
L 186.080938 170.915136 
L 185.352413 171.400819 
L 183.402537 173.350694 
L 182.916854 174.079219 
L 183.402537 174.807744 
L 185.352413 176.757619 
z
M 185.609539 176.757619 
L 183.402537 174.550617 
L 183.088272 174.079219 
L 183.402537 173.60782 
L 185.609539 171.400819 
L 186.080938 171.086553 
L 186.552336 171.400819 
L 188.759338 173.60782 
L 189.073603 174.079219 
L 188.759338 174.550617 
L 186.552336 176.757619 
L 186.080938 177.071884 
z
" clip-path="url(#p2bd22e9d2e)" style="fill: #dc5d4a"/>
   </g>
   <g id="PathCollection_20">
    <path d="M 186.080938 177.071884 
L 186.552336 176.757619 
L 188.759338 174.550617 
L 189.073603 174.079219 
L 188.759338 173.60782 
L 186.552336 171.400819 
L 186.080938 171.086553 
L 185.609539 171.400819 
L 183.402537 173.60782 
L 183.088272 174.079219 
L 183.402537 174.550617 
L 185.609539 176.757619 
z
M 185.866666 176.757619 
L 183.402537 174.293491 
L 183.25969 174.079219 
L 183.402537 173.864947 
L 185.866666 171.400819 
L 186.080938 171.257971 
L 186.295209 171.400819 
L 188.759338 173.864947 
L 188.902186 174.079219 
L 188.759338 174.293491 
L 186.295209 176.757619 
L 186.080938 176.900467 
z
" clip-path="url(#p2bd22e9d2e)" style="fill: #cd423b"/>
   </g>
   <g id="PathCollection_21">
    <path d="M 186.080938 176.900467 
L 186.295209 176.757619 
L 188.759338 174.293491 
L 188.902186 174.079219 
L 188.759338 173.864947 
L 186.295209 171.400819 
L 186.080938 171.257971 
L 185.866666 171.400819 
L 183.402537 173.864947 
L 183.25969 174.079219 
L 183.402537 174.293491 
L 185.866666 176.757619 
z
M 183.402537 174.079219 
L 186.080938 171.400819 
L 188.759338 174.079219 
L 186.080938 176.757619 
z
" clip-path="url(#p2bd22e9d2e)" style="fill: #bd1f2d"/>
   </g>
   <g id="Quiver_1">
    <path d="M 51.644415 307.482697 
L 55.449398 303.677714 
L 53.899832 303.161191 
L 60.61462 299.545536 
L 56.998965 306.260325 
L 56.482443 304.710758 
L 52.67746 308.515741 
L 51.644415 307.482697 
" clip-path="url(#p2bd22e9d2e)"/>
    <path d="M 78.371326 307.546935 
L 84.258066 300.08104 
L 82.65856 299.750085 
L 88.902229 295.370821 
L 86.100228 302.463786 
L 85.405289 300.985607 
L 79.518549 308.451502 
L 78.371326 307.546935 
" clip-path="url(#p2bd22e9d2e)"/>
    <path d="M 105.099322 307.628847 
L 112.623698 294.837742 
L 110.994096 294.726614 
L 116.586658 289.541577 
L 114.771788 296.948843 
L 113.882929 295.578485 
L 106.358553 308.36959 
L 105.099322 307.628847 
" clip-path="url(#p2bd22e9d2e)"/>
    <path d="M 131.832401 307.733774 
L 139.390867 288.3557 
L 137.76435 288.505347 
L 142.460406 282.49632 
L 141.847567 290.098016 
L 140.751939 288.88659 
L 133.193474 308.264664 
L 131.832401 307.733774 
" clip-path="url(#p2bd22e9d2e)"/>
    <path d="M 158.57986 307.859969 
L 163.513052 282.456025 
L 161.939647 282.894604 
L 165.483372 276.141577 
L 166.242112 283.730099 
L 164.947206 282.734523 
L 160.014015 308.138468 
L 158.57986 307.859969 
" clip-path="url(#p2bd22e9d2e)"/>
    <path d="M 185.350465 307.999219 
L 185.350465 280.061603 
L 183.889519 280.792076 
L 186.080938 273.487349 
L 188.272356 280.792076 
L 186.81141 280.061603 
L 186.81141 307.999219 
L 185.350465 307.999219 
" clip-path="url(#p2bd22e9d2e)"/>
    <path d="M 212.14786 308.138468 
L 207.214669 282.734523 
L 205.919763 283.730099 
L 206.678503 276.141577 
L 210.222228 282.894604 
L 208.648823 282.456025 
L 213.582015 307.859969 
L 212.14786 308.138468 
" clip-path="url(#p2bd22e9d2e)"/>
    <path d="M 238.968401 308.264664 
L 231.409936 288.88659 
L 230.314308 290.098016 
L 229.701469 282.49632 
L 234.397525 288.505347 
L 232.771008 288.3557 
L 240.329474 307.733774 
L 238.968401 308.264664 
" clip-path="url(#p2bd22e9d2e)"/>
    <path d="M 265.803322 308.36959 
L 258.278946 295.578485 
L 257.390087 296.948843 
L 255.575217 289.541577 
L 261.167779 294.726614 
L 259.538177 294.837742 
L 267.062553 307.628847 
L 265.803322 308.36959 
" clip-path="url(#p2bd22e9d2e)"/>
    <path d="M 292.643326 308.451502 
L 286.756586 300.985607 
L 286.061647 302.463786 
L 283.259646 295.370821 
L 289.503315 299.750085 
L 287.903809 300.08104 
L 293.790549 307.546935 
L 292.643326 308.451502 
" clip-path="url(#p2bd22e9d2e)"/>
    <path d="M 319.484415 308.515741 
L 315.679432 304.710758 
L 315.16291 306.260325 
L 311.547255 299.545536 
L 318.262043 303.161191 
L 316.712477 303.677714 
L 320.51746 307.482697 
L 319.484415 308.515741 
" clip-path="url(#p2bd22e9d2e)"/>
    <path d="M 51.708654 280.641607 
L 59.174549 274.754867 
L 57.696371 274.059928 
L 64.789335 271.257927 
L 60.410072 277.501597 
L 60.079116 275.90209 
L 52.613221 281.78883 
L 51.708654 280.641607 
" clip-path="url(#p2bd22e9d2e)"/>
    <path d="M 78.428415 280.698697 
L 90.12737 268.999742 
L 88.577803 268.48322 
L 95.292592 264.867564 
L 91.676937 271.582353 
L 91.160414 270.032786 
L 79.46146 281.731741 
L 78.428415 280.698697 
" clip-path="url(#p2bd22e9d2e)"/>
    <path d="M 105.144465 280.777061 
L 121.284541 259.247316 
L 119.677439 258.955472 
L 125.812436 254.425222 
L 123.184273 261.58442 
L 122.453486 260.123632 
L 106.31341 281.653377 
L 105.144465 280.777061 
" clip-path="url(#p2bd22e9d2e)"/>
    <path d="M 131.859426 280.888855 
L 149.834599 244.895342 
L 148.201213 244.896126 
L 153.425385 239.340104 
L 152.122281 246.854309 
L 151.141622 245.54807 
L 133.166449 281.541583 
L 131.859426 280.888855 
" clip-path="url(#p2bd22e9d2e)"/>
    <path d="M 158.588188 281.038399 
L 171.462758 229.433094 
L 169.86844 229.788203 
L 173.762885 223.231172 
L 174.120934 230.849122 
L 172.880256 229.786733 
L 160.005687 281.392039 
L 158.588188 281.038399 
" clip-path="url(#p2bd22e9d2e)"/>
    <path d="M 185.350465 281.215219 
L 185.350465 222.317033 
L 183.889519 223.047506 
L 186.080938 215.742779 
L 188.272356 223.047506 
L 186.81141 222.317033 
L 186.81141 281.215219 
L 185.350465 281.215219 
" clip-path="url(#p2bd22e9d2e)"/>
    <path d="M 212.156188 281.392039 
L 199.281619 229.786733 
L 198.040941 230.849122 
L 198.39899 223.231172 
L 202.293435 229.788203 
L 200.699117 229.433094 
L 213.573687 281.038399 
L 212.156188 281.392039 
" clip-path="url(#p2bd22e9d2e)"/>
    <path d="M 238.995426 281.541583 
L 221.020253 245.54807 
L 220.039594 246.854309 
L 218.73649 239.340104 
L 223.960662 244.896126 
L 222.327276 244.895342 
L 240.302449 280.888855 
L 238.995426 281.541583 
" clip-path="url(#p2bd22e9d2e)"/>
    <path d="M 265.848465 281.653377 
L 249.708389 260.123632 
L 248.977602 261.58442 
L 246.349439 254.425222 
L 252.484436 258.955472 
L 250.877334 259.247316 
L 267.01741 280.777061 
L 265.848465 281.653377 
" clip-path="url(#p2bd22e9d2e)"/>
    <path d="M 292.700415 281.731741 
L 281.001461 270.032786 
L 280.484938 271.582353 
L 276.869283 264.867564 
L 283.584072 268.48322 
L 282.034505 268.999742 
L 293.73346 280.698697 
L 292.700415 281.731741 
" clip-path="url(#p2bd22e9d2e)"/>
    <path d="M 319.548654 281.78883 
L 312.082759 275.90209 
L 311.751803 277.501597 
L 307.37254 271.257927 
L 314.465504 274.059928 
L 312.987326 274.754867 
L 320.453221 280.641607 
L 319.548654 281.78883 
" clip-path="url(#p2bd22e9d2e)"/>
    <path d="M 51.790566 253.801604 
L 64.581671 246.277227 
L 63.211313 245.388369 
L 70.61858 243.573499 
L 65.433542 249.16606 
L 65.322414 247.536458 
L 52.531309 255.060834 
L 51.790566 253.801604 
" clip-path="url(#p2bd22e9d2e)"/>
    <path d="M 78.50678 253.846746 
L 100.036525 237.70667 
L 98.575736 236.975883 
L 105.734934 234.347721 
L 101.204684 240.482718 
L 100.91284 238.875615 
L 79.383095 255.015691 
L 78.50678 253.846746 
" clip-path="url(#p2bd22e9d2e)"/>
    <path d="M 105.212415 253.914697 
L 139.313703 219.813408 
L 137.764137 219.296886 
L 144.478926 215.681231 
L 140.86327 222.39602 
L 140.346748 220.846453 
L 106.24546 254.947741 
L 105.212415 253.914697 
" clip-path="url(#p2bd22e9d2e)"/>
    <path d="M 131.904926 254.026357 
L 177.758483 185.164577 
L 176.137599 184.962865 
L 182.010247 180.097337 
L 179.785667 187.392034 
L 178.974506 185.9743 
L 133.120949 254.83608 
L 131.904926 254.026357 
" clip-path="url(#p2bd22e9d2e)"/>
    <path d="M 158.603729 254.200888 
L 198.313853 134.688687 
L 196.697105 134.921233 
L 201.080043 128.680143 
L 200.856356 136.303221 
L 199.70027 135.14935 
L 159.990146 254.66155 
L 158.603729 254.200888 
" clip-path="url(#p2bd22e9d2e)"/>
    <path d="M 185.350465 254.431219 
L 185.350465 105.660454 
L 183.889519 106.390927 
L 186.080938 99.086199 
L 188.272356 106.390927 
L 186.81141 105.660454 
L 186.81141 254.431219 
L 185.350465 254.431219 
" clip-path="url(#p2bd22e9d2e)"/>
    <path d="M 212.171729 254.66155 
L 172.461605 135.14935 
L 171.305519 136.303221 
L 171.081832 128.680143 
L 175.46477 134.921233 
L 173.848022 134.688687 
L 213.558146 254.200888 
L 212.171729 254.66155 
" clip-path="url(#p2bd22e9d2e)"/>
    <path d="M 239.040926 254.83608 
L 193.187369 185.9743 
L 192.376208 187.392034 
L 190.151628 180.097337 
L 196.024276 184.962865 
L 194.403392 185.164577 
L 240.256949 254.026357 
L 239.040926 254.83608 
" clip-path="url(#p2bd22e9d2e)"/>
    <path d="M 265.916415 254.947741 
L 231.815127 220.846453 
L 231.298605 222.39602 
L 227.682949 215.681231 
L 234.397738 219.296886 
L 232.848172 219.813408 
L 266.94946 253.914697 
L 265.916415 254.947741 
" clip-path="url(#p2bd22e9d2e)"/>
    <path d="M 292.77878 255.015691 
L 271.249035 238.875615 
L 270.957191 240.482718 
L 266.426941 234.347721 
L 273.586139 236.975883 
L 272.12535 237.70667 
L 293.655095 253.846746 
L 292.77878 255.015691 
" clip-path="url(#p2bd22e9d2e)"/>
    <path d="M 319.630566 255.060834 
L 306.839461 247.536458 
L 306.728333 249.16606 
L 301.543295 243.573499 
L 308.950562 245.388369 
L 307.580204 246.277227 
L 320.371309 253.801604 
L 319.630566 255.060834 
" clip-path="url(#p2bd22e9d2e)"/>
    <path d="M 51.895493 226.966683 
L 71.273566 219.408217 
L 70.062141 218.31259 
L 77.663837 217.69975 
L 71.65481 222.395807 
L 71.804456 220.76929 
L 52.426382 228.327755 
L 51.895493 226.966683 
" clip-path="url(#p2bd22e9d2e)"/>
    <path d="M 78.618574 226.993707 
L 114.612086 209.018534 
L 113.305847 208.037875 
L 120.820052 206.734771 
L 115.26403 211.958943 
L 115.264814 210.325557 
L 79.271301 228.30073 
L 78.618574 226.993707 
" clip-path="url(#p2bd22e9d2e)"/>
    <path d="M 105.324076 227.039208 
L 174.185856 181.185651 
L 172.768122 180.37449 
L 180.062819 178.149909 
L 175.197291 184.022557 
L 174.995579 182.401673 
L 106.133799 228.25523 
L 105.324076 227.039208 
" clip-path="url(#p2bd22e9d2e)"/>
    <path d="M 131.996415 227.130697 
L 258.128761 100.998351 
L 256.579194 100.481829 
L 263.293983 96.866173 
L 259.678328 103.580962 
L 259.161805 102.031395 
L 133.02946 228.163741 
L 131.996415 227.130697 
" clip-path="url(#p2bd22e9d2e)"/>
    <path d="M 158.642958 227.321795 
L 322.712676 -102.396495 
L 321.079293 -102.393363 
L 326.295473 -107.956889 
L 325.003171 -100.440819 
L 324.020636 -101.745647 
L 159.950917 227.972643 
L 158.642958 227.321795 
" clip-path="url(#p2bd22e9d2e)"/>
    <path d="M 185.350465 227.647219 
L 185.350465 -291.528993 
L 183.889519 -290.79852 
L 186.080938 -298.103248 
L 188.272356 -290.79852 
L 186.81141 -291.528993 
L 186.81141 227.647219 
L 185.350465 227.647219 
" clip-path="url(#p2bd22e9d2e)"/>
    <path d="M 212.210958 227.972643 
L 48.141239 -101.745647 
L 47.158704 -100.440819 
L 45.866402 -107.956889 
L 51.082582 -102.393363 
L 49.449199 -102.396495 
L 213.518917 227.321795 
L 212.210958 227.972643 
" clip-path="url(#p2bd22e9d2e)"/>
    <path d="M 239.132415 228.163741 
L 113.00007 102.031395 
L 112.483547 103.580962 
L 108.867892 96.866173 
L 115.582681 100.481829 
L 114.033114 100.998351 
L 240.16546 227.130697 
L 239.132415 228.163741 
" clip-path="url(#p2bd22e9d2e)"/>
    <path d="M 266.028076 228.25523 
L 197.166296 182.401673 
L 196.964584 184.022557 
L 192.099056 178.149909 
L 199.393753 180.37449 
L 197.976019 181.185651 
L 266.837799 227.039208 
L 266.028076 228.25523 
" clip-path="url(#p2bd22e9d2e)"/>
    <path d="M 292.890574 228.30073 
L 256.897061 210.325557 
L 256.897845 211.958943 
L 251.341823 206.734771 
L 258.856028 208.037875 
L 257.549789 209.018534 
L 293.543301 226.993707 
L 292.890574 228.30073 
" clip-path="url(#p2bd22e9d2e)"/>
    <path d="M 319.735493 228.327755 
L 300.357419 220.76929 
L 300.507065 222.395807 
L 294.498038 217.69975 
L 302.099734 218.31259 
L 300.888309 219.408217 
L 320.266382 226.966683 
L 319.735493 228.327755 
" clip-path="url(#p2bd22e9d2e)"/>
    <path d="M 52.021688 200.146141 
L 77.425633 195.21295 
L 76.430057 193.918044 
L 84.018579 194.676784 
L 77.265552 198.220509 
L 77.704131 196.647105 
L 52.300187 201.580296 
L 52.021688 200.146141 
" clip-path="url(#p2bd22e9d2e)"/>
    <path d="M 78.768118 200.15447 
L 130.373423 187.2799 
L 129.311034 186.039222 
L 136.928984 186.397271 
L 130.371953 190.291716 
L 130.727063 188.697398 
L 79.121757 201.571968 
L 78.768118 200.15447 
" clip-path="url(#p2bd22e9d2e)"/>
    <path d="M 105.498606 200.17001 
L 225.010806 160.459886 
L 223.856935 159.303801 
L 231.480013 159.080114 
L 225.238923 163.463051 
L 225.471469 161.846303 
L 105.959269 201.556427 
L 105.498606 200.17001 
" clip-path="url(#p2bd22e9d2e)"/>
    <path d="M 132.187513 200.209239 
L 461.905803 36.13952 
L 460.600975 35.156985 
L 468.117045 33.864683 
L 462.553519 39.080864 
L 462.556651 37.44748 
L 132.838362 201.517199 
L 132.187513 200.209239 
" clip-path="url(#p2bd22e9d2e)"/>
    <path d="M 158.780415 200.346697 
L 1200.35556 -841.228448 
L 1198.805993 -841.74497 
L 1205.520782 -845.360626 
L 1201.905126 -838.645837 
L 1201.388604 -840.195403 
L 159.81346 201.379741 
L 158.780415 200.346697 
" clip-path="url(#p2bd22e9d2e)"/>
    <path d="M 185.350465 200.863219 
L 185.350465 -4062.534978 
L 183.889519 -4061.804506 
L 186.080938 -4069.109233 
L 188.272356 -4061.804506 
L 186.81141 -4062.534978 
L 186.81141 200.863219 
L 185.350465 200.863219 
" clip-path="url(#p2bd22e9d2e)"/>
    <path d="M 212.348415 201.379741 
L -829.226729 -840.195403 
L -829.743251 -838.645837 
L -833.358907 -845.360626 
L -826.644118 -841.74497 
L -828.193685 -841.228448 
L 213.38146 200.346697 
L 212.348415 201.379741 
" clip-path="url(#p2bd22e9d2e)"/>
    <path d="M 239.323513 201.517199 
L -90.394776 37.44748 
L -90.391644 39.080864 
L -95.95517 33.864683 
L -88.4391 35.156985 
L -89.743928 36.13952 
L 239.974362 200.209239 
L 239.323513 201.517199 
" clip-path="url(#p2bd22e9d2e)"/>
    <path d="M 266.202606 201.556427 
L 146.690406 161.846303 
L 146.922952 163.463051 
L 140.681862 159.080114 
L 148.30494 159.303801 
L 147.151069 160.459886 
L 266.663269 200.17001 
L 266.202606 201.556427 
" clip-path="url(#p2bd22e9d2e)"/>
    <path d="M 293.040118 201.571968 
L 241.434812 188.697398 
L 241.789922 190.291716 
L 235.232891 186.397271 
L 242.850841 186.039222 
L 241.788452 187.2799 
L 293.393757 200.15447 
L 293.040118 201.571968 
" clip-path="url(#p2bd22e9d2e)"/>
    <path d="M 319.861688 201.580296 
L 294.457744 196.647105 
L 294.896323 198.220509 
L 288.143296 194.676784 
L 295.731818 193.918044 
L 294.736242 195.21295 
L 320.140187 200.146141 
L 319.861688 201.580296 
" clip-path="url(#p2bd22e9d2e)"/>
    <path d="M 52.160937 173.348746 
L 80.098553 173.348746 
L 79.36808 171.887801 
L 86.672808 174.079219 
L 79.36808 176.270637 
L 80.098553 174.809691 
L 52.160937 174.809691 
L 52.160937 173.348746 
" clip-path="url(#p2bd22e9d2e)"/>
    <path d="M 78.944937 173.348746 
L 137.843123 173.348746 
L 137.11265 171.887801 
L 144.417377 174.079219 
L 137.11265 176.270637 
L 137.843123 174.809691 
L 78.944937 174.809691 
L 78.944937 173.348746 
" clip-path="url(#p2bd22e9d2e)"/>
    <path d="M 105.728938 173.348746 
L 254.499702 173.348746 
L 253.76923 171.887801 
L 261.073957 174.079219 
L 253.76923 176.270637 
L 254.499702 174.809691 
L 105.728938 174.809691 
L 105.728938 173.348746 
" clip-path="url(#p2bd22e9d2e)"/>
    <path d="M 132.512937 173.348746 
L 651.689149 173.348746 
L 650.958677 171.887801 
L 658.263404 174.079219 
L 650.958677 176.270637 
L 651.689149 174.809691 
L 132.512937 174.809691 
L 132.512937 173.348746 
" clip-path="url(#p2bd22e9d2e)"/>
    <path d="M 159.296938 173.348746 
L 4422.695135 173.348746 
L 4421.964662 171.887801 
L 4429.269389 174.079219 
L 4421.964662 176.270637 
L 4422.695135 174.809691 
L 159.296938 174.809691 
L 159.296938 173.348746 
" clip-path="url(#p2bd22e9d2e)"/>
    <path d="M 186.81141 174.079219 
L 186.446174 173.446611 
L 185.715701 173.446611 
L 185.350465 174.079219 
L 185.715701 174.711827 
L 186.446174 174.711827 
L 186.81141 174.079219 
L 186.446174 173.446611 
" clip-path="url(#p2bd22e9d2e)"/>
    <path d="M 212.864937 174.809691 
L -4050.53326 174.809691 
L -4049.802787 176.270637 
L -4057.107514 174.079219 
L -4049.802787 171.887801 
L -4050.53326 173.348746 
L 212.864937 173.348746 
L 212.864937 174.809691 
" clip-path="url(#p2bd22e9d2e)"/>
    <path d="M 239.648938 174.809691 
L -279.527274 174.809691 
L -278.796802 176.270637 
L -286.101529 174.079219 
L -278.796802 171.887801 
L -279.527274 173.348746 
L 239.648938 173.348746 
L 239.648938 174.809691 
" clip-path="url(#p2bd22e9d2e)"/>
    <path d="M 266.432938 174.809691 
L 117.662173 174.809691 
L 118.392645 176.270637 
L 111.087918 174.079219 
L 118.392645 171.887801 
L 117.662173 173.348746 
L 266.432938 173.348746 
L 266.432938 174.809691 
" clip-path="url(#p2bd22e9d2e)"/>
    <path d="M 293.216938 174.809691 
L 234.318752 174.809691 
L 235.049225 176.270637 
L 227.744498 174.079219 
L 235.049225 171.887801 
L 234.318752 173.348746 
L 293.216938 173.348746 
L 293.216938 174.809691 
" clip-path="url(#p2bd22e9d2e)"/>
    <path d="M 320.000938 174.809691 
L 292.063322 174.809691 
L 292.793795 176.270637 
L 285.489067 174.079219 
L 292.793795 171.887801 
L 292.063322 173.348746 
L 320.000938 173.348746 
L 320.000938 174.809691 
" clip-path="url(#p2bd22e9d2e)"/>
    <path d="M 52.300187 146.578141 
L 77.704131 151.511333 
L 77.265552 149.937929 
L 84.018579 153.481654 
L 76.430057 154.240393 
L 77.425633 152.945488 
L 52.021688 148.012296 
L 52.300187 146.578141 
" clip-path="url(#p2bd22e9d2e)"/>
    <path d="M 79.121757 146.58647 
L 130.727063 159.461039 
L 130.371953 157.866721 
L 136.928984 161.761166 
L 129.311034 162.119215 
L 130.373423 160.878537 
L 78.768118 148.003968 
L 79.121757 146.58647 
" clip-path="url(#p2bd22e9d2e)"/>
    <path d="M 105.959269 146.60201 
L 225.471469 186.312134 
L 225.238923 184.695386 
L 231.480013 189.078324 
L 223.856935 188.854637 
L 225.010806 187.698551 
L 105.498606 147.988427 
L 105.959269 146.60201 
" clip-path="url(#p2bd22e9d2e)"/>
    <path d="M 132.838362 146.641239 
L 462.556651 310.710958 
L 462.553519 309.077574 
L 468.117045 314.293754 
L 460.600975 313.001453 
L 461.905803 312.018917 
L 132.187513 147.949199 
L 132.838362 146.641239 
" clip-path="url(#p2bd22e9d2e)"/>
    <path d="M 159.81346 146.778697 
L 1201.388604 1188.353841 
L 1201.905126 1186.804274 
L 1205.520782 1193.519063 
L 1198.805993 1189.903408 
L 1200.35556 1189.386885 
L 158.780415 147.811741 
L 159.81346 146.778697 
" clip-path="url(#p2bd22e9d2e)"/>
    <path d="M 186.81141 147.295219 
L 186.81141 4410.693416 
L 188.272356 4409.962943 
L 186.080938 4417.267671 
L 183.889519 4409.962943 
L 185.350465 4410.693416 
L 185.350465 147.295219 
L 186.81141 147.295219 
" clip-path="url(#p2bd22e9d2e)"/>
    <path d="M 213.38146 147.811741 
L -828.193685 1189.386885 
L -826.644118 1189.903408 
L -833.358907 1193.519063 
L -829.743251 1186.804274 
L -829.226729 1188.353841 
L 212.348415 146.778697 
L 213.38146 147.811741 
" clip-path="url(#p2bd22e9d2e)"/>
    <path d="M 239.974362 147.949199 
L -89.743928 312.018917 
L -88.4391 313.001453 
L -95.95517 314.293754 
L -90.391644 309.077574 
L -90.394776 310.710958 
L 239.323513 146.641239 
L 239.974362 147.949199 
" clip-path="url(#p2bd22e9d2e)"/>
    <path d="M 266.663269 147.988427 
L 147.151069 187.698551 
L 148.30494 188.854637 
L 140.681862 189.078324 
L 146.922952 184.695386 
L 146.690406 186.312134 
L 266.202606 146.60201 
L 266.663269 147.988427 
" clip-path="url(#p2bd22e9d2e)"/>
    <path d="M 293.393757 148.003968 
L 241.788452 160.878537 
L 242.850841 162.119215 
L 235.232891 161.761166 
L 241.789922 157.866721 
L 241.434812 159.461039 
L 293.040118 146.58647 
L 293.393757 148.003968 
" clip-path="url(#p2bd22e9d2e)"/>
    <path d="M 320.140187 148.012296 
L 294.736242 152.945488 
L 295.731818 154.240393 
L 288.143296 153.481654 
L 294.896323 149.937929 
L 294.457744 151.511333 
L 319.861688 146.578141 
L 320.140187 148.012296 
" clip-path="url(#p2bd22e9d2e)"/>
    <path d="M 52.426382 119.830683 
L 71.804456 127.389148 
L 71.65481 125.762631 
L 77.663837 130.458687 
L 70.062141 129.845848 
L 71.273566 128.75022 
L 51.895493 121.191755 
L 52.426382 119.830683 
" clip-path="url(#p2bd22e9d2e)"/>
    <path d="M 79.271301 119.857707 
L 115.264814 137.832881 
L 115.26403 136.199494 
L 120.820052 141.423666 
L 113.305847 140.120562 
L 114.612086 139.139903 
L 78.618574 121.16473 
L 79.271301 119.857707 
" clip-path="url(#p2bd22e9d2e)"/>
    <path d="M 106.133799 119.903208 
L 174.995579 165.756764 
L 175.197291 164.135881 
L 180.062819 170.008528 
L 172.768122 167.783948 
L 174.185856 166.972787 
L 105.324076 121.11923 
L 106.133799 119.903208 
" clip-path="url(#p2bd22e9d2e)"/>
    <path d="M 133.02946 119.994697 
L 259.161805 246.127042 
L 259.678328 244.577476 
L 263.293983 251.292264 
L 256.579194 247.676609 
L 258.128761 247.160087 
L 131.996415 121.027741 
L 133.02946 119.994697 
" clip-path="url(#p2bd22e9d2e)"/>
    <path d="M 159.950917 120.185795 
L 324.020636 449.904084 
L 325.003171 448.599256 
L 326.295473 456.115326 
L 321.079293 450.551801 
L 322.712676 450.554932 
L 158.642958 120.836643 
L 159.950917 120.185795 
" clip-path="url(#p2bd22e9d2e)"/>
    <path d="M 186.81141 120.511219 
L 186.81141 639.687431 
L 188.272356 638.956958 
L 186.080938 646.261685 
L 183.889519 638.956958 
L 185.350465 639.687431 
L 185.350465 120.511219 
L 186.81141 120.511219 
" clip-path="url(#p2bd22e9d2e)"/>
    <path d="M 213.518917 120.836643 
L 49.449199 450.554932 
L 51.082582 450.551801 
L 45.866402 456.115326 
L 47.158704 448.599256 
L 48.141239 449.904084 
L 212.210958 120.185795 
L 213.518917 120.836643 
" clip-path="url(#p2bd22e9d2e)"/>
    <path d="M 240.16546 121.027741 
L 114.033114 247.160087 
L 115.582681 247.676609 
L 108.867892 251.292264 
L 112.483547 244.577476 
L 113.00007 246.127042 
L 239.132415 119.994697 
L 240.16546 121.027741 
" clip-path="url(#p2bd22e9d2e)"/>
    <path d="M 266.837799 121.11923 
L 197.976019 166.972787 
L 199.393753 167.783948 
L 192.099056 170.008528 
L 196.964584 164.135881 
L 197.166296 165.756764 
L 266.028076 119.903208 
L 266.837799 121.11923 
" clip-path="url(#p2bd22e9d2e)"/>
    <path d="M 293.543301 121.16473 
L 257.549789 139.139903 
L 258.856028 140.120562 
L 251.341823 141.423666 
L 256.897845 136.199494 
L 256.897061 137.832881 
L 292.890574 119.857707 
L 293.543301 121.16473 
" clip-path="url(#p2bd22e9d2e)"/>
    <path d="M 320.266382 121.191755 
L 300.888309 128.75022 
L 302.099734 129.845848 
L 294.498038 130.458687 
L 300.507065 125.762631 
L 300.357419 127.389148 
L 319.735493 119.830683 
L 320.266382 121.191755 
" clip-path="url(#p2bd22e9d2e)"/>
    <path d="M 52.531309 93.097604 
L 65.322414 100.62198 
L 65.433542 98.992378 
L 70.61858 104.584939 
L 63.211313 102.770069 
L 64.581671 101.88121 
L 51.790566 94.356834 
L 52.531309 93.097604 
" clip-path="url(#p2bd22e9d2e)"/>
    <path d="M 79.383095 93.142746 
L 100.91284 109.282823 
L 101.204684 107.67572 
L 105.734934 113.810717 
L 98.575736 111.182554 
L 100.036525 110.451768 
L 78.50678 94.311691 
L 79.383095 93.142746 
" clip-path="url(#p2bd22e9d2e)"/>
    <path d="M 106.24546 93.210697 
L 140.346748 127.311985 
L 140.86327 125.762418 
L 144.478926 132.477207 
L 137.764137 128.861551 
L 139.313703 128.345029 
L 105.212415 94.243741 
L 106.24546 93.210697 
" clip-path="url(#p2bd22e9d2e)"/>
    <path d="M 133.120949 93.322357 
L 178.974506 162.184138 
L 179.785667 160.766404 
L 182.010247 168.0611 
L 176.137599 163.195572 
L 177.758483 162.993861 
L 131.904926 94.13208 
L 133.120949 93.322357 
" clip-path="url(#p2bd22e9d2e)"/>
    <path d="M 159.990146 93.496888 
L 199.70027 213.009088 
L 200.856356 211.855217 
L 201.080043 219.478295 
L 196.697105 213.237204 
L 198.313853 213.46975 
L 158.603729 93.95755 
L 159.990146 93.496888 
" clip-path="url(#p2bd22e9d2e)"/>
    <path d="M 186.81141 93.727219 
L 186.81141 242.497984 
L 188.272356 241.767511 
L 186.080938 249.072238 
L 183.889519 241.767511 
L 185.350465 242.497984 
L 185.350465 93.727219 
L 186.81141 93.727219 
" clip-path="url(#p2bd22e9d2e)"/>
    <path d="M 213.558146 93.95755 
L 173.848022 213.46975 
L 175.46477 213.237204 
L 171.081832 219.478295 
L 171.305519 211.855217 
L 172.461605 213.009088 
L 212.171729 93.496888 
L 213.558146 93.95755 
" clip-path="url(#p2bd22e9d2e)"/>
    <path d="M 240.256949 94.13208 
L 194.403392 162.993861 
L 196.024276 163.195572 
L 190.151628 168.0611 
L 192.376208 160.766404 
L 193.187369 162.184138 
L 239.040926 93.322357 
L 240.256949 94.13208 
" clip-path="url(#p2bd22e9d2e)"/>
    <path d="M 266.94946 94.243741 
L 232.848172 128.345029 
L 234.397738 128.861551 
L 227.682949 132.477207 
L 231.298605 125.762418 
L 231.815127 127.311985 
L 265.916415 93.210697 
L 266.94946 94.243741 
" clip-path="url(#p2bd22e9d2e)"/>
    <path d="M 293.655095 94.311691 
L 272.12535 110.451768 
L 273.586139 111.182554 
L 266.426941 113.810717 
L 270.957191 107.67572 
L 271.249035 109.282823 
L 292.77878 93.142746 
L 293.655095 94.311691 
" clip-path="url(#p2bd22e9d2e)"/>
    <path d="M 320.371309 94.356834 
L 307.580204 101.88121 
L 308.950562 102.770069 
L 301.543295 104.584939 
L 306.728333 98.992378 
L 306.839461 100.62198 
L 319.630566 93.097604 
L 320.371309 94.356834 
" clip-path="url(#p2bd22e9d2e)"/>
    <path d="M 52.613221 66.369607 
L 60.079116 72.256347 
L 60.410072 70.656841 
L 64.789335 76.90051 
L 57.696371 74.098509 
L 59.174549 73.40357 
L 51.708654 67.51683 
L 52.613221 66.369607 
" clip-path="url(#p2bd22e9d2e)"/>
    <path d="M 79.46146 66.426697 
L 91.160414 78.125651 
L 91.676937 76.576085 
L 95.292592 83.290873 
L 88.577803 79.675218 
L 90.12737 79.158696 
L 78.428415 67.459741 
L 79.46146 66.426697 
" clip-path="url(#p2bd22e9d2e)"/>
    <path d="M 106.31341 66.505061 
L 122.453486 88.034806 
L 123.184273 86.574017 
L 125.812436 93.733215 
L 119.677439 89.202965 
L 121.284541 88.911122 
L 105.144465 67.381377 
L 106.31341 66.505061 
" clip-path="url(#p2bd22e9d2e)"/>
    <path d="M 133.166449 66.616855 
L 151.141622 102.610367 
L 152.122281 101.304129 
L 153.425385 108.818333 
L 148.201213 103.262311 
L 149.834599 103.263095 
L 131.859426 67.269583 
L 133.166449 66.616855 
" clip-path="url(#p2bd22e9d2e)"/>
    <path d="M 160.005687 66.766399 
L 172.880256 118.371704 
L 174.120934 117.309316 
L 173.762885 124.927265 
L 169.86844 118.370234 
L 171.462758 118.725344 
L 158.588188 67.120039 
L 160.005687 66.766399 
" clip-path="url(#p2bd22e9d2e)"/>
    <path d="M 186.81141 66.943219 
L 186.81141 125.841404 
L 188.272356 125.110931 
L 186.080938 132.415659 
L 183.889519 125.110931 
L 185.350465 125.841404 
L 185.350465 66.943219 
L 186.81141 66.943219 
" clip-path="url(#p2bd22e9d2e)"/>
    <path d="M 213.573687 67.120039 
L 200.699117 118.725344 
L 202.293435 118.370234 
L 198.39899 124.927265 
L 198.040941 117.309316 
L 199.281619 118.371704 
L 212.156188 66.766399 
L 213.573687 67.120039 
" clip-path="url(#p2bd22e9d2e)"/>
    <path d="M 240.302449 67.269583 
L 222.327276 103.263095 
L 223.960662 103.262311 
L 218.73649 108.818333 
L 220.039594 101.304129 
L 221.020253 102.610367 
L 238.995426 66.616855 
L 240.302449 67.269583 
" clip-path="url(#p2bd22e9d2e)"/>
    <path d="M 267.01741 67.381377 
L 250.877334 88.911122 
L 252.484436 89.202965 
L 246.349439 93.733215 
L 248.977602 86.574017 
L 249.708389 88.034806 
L 265.848465 66.505061 
L 267.01741 67.381377 
" clip-path="url(#p2bd22e9d2e)"/>
    <path d="M 293.73346 67.459741 
L 282.034505 79.158696 
L 283.584072 79.675218 
L 276.869283 83.290873 
L 280.484938 76.576085 
L 281.001461 78.125651 
L 292.700415 66.426697 
L 293.73346 67.459741 
" clip-path="url(#p2bd22e9d2e)"/>
    <path d="M 320.453221 67.51683 
L 312.987326 73.40357 
L 314.465504 74.098509 
L 307.37254 76.90051 
L 311.751803 70.656841 
L 312.082759 72.256347 
L 319.548654 66.369607 
L 320.453221 67.51683 
" clip-path="url(#p2bd22e9d2e)"/>
    <path d="M 52.67746 39.642697 
L 56.482443 43.447679 
L 56.998965 41.898113 
L 60.61462 48.612902 
L 53.899832 44.997246 
L 55.449398 44.480724 
L 51.644415 40.675741 
L 52.67746 39.642697 
" clip-path="url(#p2bd22e9d2e)"/>
    <path d="M 79.518549 39.706935 
L 85.405289 47.17283 
L 86.100228 45.694652 
L 88.902229 52.787617 
L 82.65856 48.408353 
L 84.258066 48.077397 
L 78.371326 40.611502 
L 79.518549 39.706935 
" clip-path="url(#p2bd22e9d2e)"/>
    <path d="M 106.358553 39.788847 
L 113.882929 52.579952 
L 114.771788 51.209594 
L 116.586658 58.616861 
L 110.994096 53.431823 
L 112.623698 53.320695 
L 105.099322 40.52959 
L 106.358553 39.788847 
" clip-path="url(#p2bd22e9d2e)"/>
    <path d="M 133.193474 39.893774 
L 140.751939 59.271848 
L 141.847567 58.060422 
L 142.460406 65.662118 
L 137.76435 59.653091 
L 139.390867 59.802737 
L 131.832401 40.424664 
L 133.193474 39.893774 
" clip-path="url(#p2bd22e9d2e)"/>
    <path d="M 160.014015 40.019969 
L 164.947206 65.423914 
L 166.242112 64.428338 
L 165.483372 72.01686 
L 161.939647 65.263834 
L 163.513052 65.702413 
L 158.57986 40.298468 
L 160.014015 40.019969 
" clip-path="url(#p2bd22e9d2e)"/>
    <path d="M 186.81141 40.159219 
L 186.81141 68.096834 
L 188.272356 67.366362 
L 186.080938 74.671089 
L 183.889519 67.366362 
L 185.350465 68.096834 
L 185.350465 40.159219 
L 186.81141 40.159219 
" clip-path="url(#p2bd22e9d2e)"/>
    <path d="M 213.582015 40.298468 
L 208.648823 65.702413 
L 210.222228 65.263834 
L 206.678503 72.01686 
L 205.919763 64.428338 
L 207.214669 65.423914 
L 212.14786 40.019969 
L 213.582015 40.298468 
" clip-path="url(#p2bd22e9d2e)"/>
    <path d="M 240.329474 40.424664 
L 232.771008 59.802737 
L 234.397525 59.653091 
L 229.701469 65.662118 
L 230.314308 58.060422 
L 231.409936 59.271848 
L 238.968401 39.893774 
L 240.329474 40.424664 
" clip-path="url(#p2bd22e9d2e)"/>
    <path d="M 267.062553 40.52959 
L 259.538177 53.320695 
L 261.167779 53.431823 
L 255.575217 58.616861 
L 257.390087 51.209594 
L 258.278946 52.579952 
L 265.803322 39.788847 
L 267.062553 40.52959 
" clip-path="url(#p2bd22e9d2e)"/>
    <path d="M 293.790549 40.611502 
L 287.903809 48.077397 
L 289.503315 48.408353 
L 283.259646 52.787617 
L 286.061647 45.694652 
L 286.756586 47.17283 
L 292.643326 39.706935 
L 293.790549 40.611502 
" clip-path="url(#p2bd22e9d2e)"/>
    <path d="M 320.51746 40.675741 
L 316.712477 44.480724 
L 318.262043 44.997246 
L 311.547255 48.612902 
L 315.16291 41.898113 
L 315.679432 43.447679 
L 319.484415 39.642697 
L 320.51746 40.675741 
" clip-path="url(#p2bd22e9d2e)"/>
   </g>
   <g id="matplotlib.axis_1">
    <g id="xtick_1">
     <g id="line2d_1">
      <defs>
       <path id="m8d1706d9e5" d="M 0 0 
L 0 3.5 
" style="stroke: #000000; stroke-width: 0.8"/>
      </defs>
      <g>
       <use xlink:href="#m8d1706d9e5" x="52.160937" y="307.999219" style="stroke: #000000; stroke-width: 0.8"/>
      </g>
     </g>
     <g id="text_1">
      <!-- 2.0 -->
      <g transform="translate(40.019531 322.597656)scale(0.1 -0.1)">
       <defs>
        <path id="DejaVuSans-2212" d="M 678 2272 
L 4684 2272 
L 4684 1741 
L 678 1741 
L 678 2272 
z
" transform="scale(0.015625)"/>
        <path id="DejaVuSans-32" d="M 1228 531 
L 3431 531 
L 3431 0 
L 469 0 
L 469 531 
Q 828 903 1448 1529 
Q 2069 2156 2228 2338 
Q 2531 2678 2651 2914 
Q 2772 3150 2772 3378 
Q 2772 3750 2511 3984 
Q 2250 4219 1831 4219 
Q 1534 4219 1204 4116 
Q 875 4013 500 3803 
L 500 4441 
Q 881 4594 1212 4672 
Q 1544 4750 1819 4750 
Q 2544 4750 2975 4387 
Q 3406 4025 3406 3419 
Q 3406 3131 3298 2873 
Q 3191 2616 2906 2266 
Q 2828 2175 2409 1742 
Q 1991 1309 1228 531 
z
" transform="scale(0.015625)"/>
        <path id="DejaVuSans-2e" d="M 684 794 
L 1344 794 
L 1344 0 
L 684 0 
L 684 794 
z
" transform="scale(0.015625)"/>
        <path id="DejaVuSans-30" d="M 2034 4250 
Q 1547 4250 1301 3770 
Q 1056 3291 1056 2328 
Q 1056 1369 1301 889 
Q 1547 409 2034 409 
Q 2525 409 2770 889 
Q 3016 1369 3016 2328 
Q 3016 3291 2770 3770 
Q 2525 4250 2034 4250 
z
M 2034 4750 
Q 2819 4750 3233 4129 
Q 3647 3509 3647 2328 
Q 3647 1150 3233 529 
Q 2819 -91 2034 -91 
Q 1250 -91 836 529 
Q 422 1150 422 2328 
Q 422 3509 836 4129 
Q 1250 4750 2034 4750 
z
" transform="scale(0.015625)"/>
       </defs>
       <use xlink:href="#DejaVuSans-2212"/>
       <use xlink:href="#DejaVuSans-32" x="83.789062"/>
       <use xlink:href="#DejaVuSans-2e" x="147.412109"/>
       <use xlink:href="#DejaVuSans-30" x="179.199219"/>
      </g>
     </g>
    </g>
    <g id="xtick_2">
     <g id="line2d_2">
      <g>
       <use xlink:href="#m8d1706d9e5" x="85.640937" y="307.999219" style="stroke: #000000; stroke-width: 0.8"/>
      </g>
     </g>
     <g id="text_2">
      <!-- 1.5 -->
      <g transform="translate(73.499531 322.597656)scale(0.1 -0.1)">
       <defs>
        <path id="DejaVuSans-31" d="M 794 531 
L 1825 531 
L 1825 4091 
L 703 3866 
L 703 4441 
L 1819 4666 
L 2450 4666 
L 2450 531 
L 3481 531 
L 3481 0 
L 794 0 
L 794 531 
z
" transform="scale(0.015625)"/>
        <path id="DejaVuSans-35" d="M 691 4666 
L 3169 4666 
L 3169 4134 
L 1269 4134 
L 1269 2991 
Q 1406 3038 1543 3061 
Q 1681 3084 1819 3084 
Q 2600 3084 3056 2656 
Q 3513 2228 3513 1497 
Q 3513 744 3044 326 
Q 2575 -91 1722 -91 
Q 1428 -91 1123 -41 
Q 819 9 494 109 
L 494 744 
Q 775 591 1075 516 
Q 1375 441 1709 441 
Q 2250 441 2565 725 
Q 2881 1009 2881 1497 
Q 2881 1984 2565 2268 
Q 2250 2553 1709 2553 
Q 1456 2553 1204 2497 
Q 953 2441 691 2322 
L 691 4666 
z
" transform="scale(0.015625)"/>
       </defs>
       <use xlink:href="#DejaVuSans-2212"/>
       <use xlink:href="#DejaVuSans-31" x="83.789062"/>
       <use xlink:href="#DejaVuSans-2e" x="147.412109"/>
       <use xlink:href="#DejaVuSans-35" x="179.199219"/>
      </g>
     </g>
    </g>
    <g id="xtick_3">
     <g id="line2d_3">
      <g>
       <use xlink:href="#m8d1706d9e5" x="119.120937" y="307.999219" style="stroke: #000000; stroke-width: 0.8"/>
      </g>
     </g>
     <g id="text_3">
      <!-- 1.0 -->
      <g transform="translate(106.979531 322.597656)scale(0.1 -0.1)">
       <use xlink:href="#DejaVuSans-2212"/>
       <use xlink:href="#DejaVuSans-31" x="83.789062"/>
       <use xlink:href="#DejaVuSans-2e" x="147.412109"/>
       <use xlink:href="#DejaVuSans-30" x="179.199219"/>
      </g>
     </g>
    </g>
    <g id="xtick_4">
     <g id="line2d_4">
      <g>
       <use xlink:href="#m8d1706d9e5" x="152.600937" y="307.999219" style="stroke: #000000; stroke-width: 0.8"/>
      </g>
     </g>
     <g id="text_4">
      <!-- 0.5 -->
      <g transform="translate(140.459531 322.597656)scale(0.1 -0.1)">
       <use xlink:href="#DejaVuSans-2212"/>
       <use xlink:href="#DejaVuSans-30" x="83.789062"/>
       <use xlink:href="#DejaVuSans-2e" x="147.412109"/>
       <use xlink:href="#DejaVuSans-35" x="179.199219"/>
      </g>
     </g>
    </g>
    <g id="xtick_5">
     <g id="line2d_5">
      <g>
       <use xlink:href="#m8d1706d9e5" x="186.080938" y="307.999219" style="stroke: #000000; stroke-width: 0.8"/>
      </g>
     </g>
     <g id="text_5">
      <!-- 0.0 -->
      <g transform="translate(178.129375 322.597656)scale(0.1 -0.1)">
       <use xlink:href="#DejaVuSans-30"/>
       <use xlink:href="#DejaVuSans-2e" x="63.623047"/>
       <use xlink:href="#DejaVuSans-30" x="95.410156"/>
      </g>
     </g>
    </g>
    <g id="xtick_6">
     <g id="line2d_6">
      <g>
       <use xlink:href="#m8d1706d9e5" x="219.560938" y="307.999219" style="stroke: #000000; stroke-width: 0.8"/>
      </g>
     </g>
     <g id="text_6">
      <!-- 0.5 -->
      <g transform="translate(211.609375 322.597656)scale(0.1 -0.1)">
       <use xlink:href="#DejaVuSans-30"/>
       <use xlink:href="#DejaVuSans-2e" x="63.623047"/>
       <use xlink:href="#DejaVuSans-35" x="95.410156"/>
      </g>
     </g>
    </g>
    <g id="xtick_7">
     <g id="line2d_7">
      <g>
       <use xlink:href="#m8d1706d9e5" x="253.040938" y="307.999219" style="stroke: #000000; stroke-width: 0.8"/>
      </g>
     </g>
     <g id="text_7">
      <!-- 1.0 -->
      <g transform="translate(245.089375 322.597656)scale(0.1 -0.1)">
       <use xlink:href="#DejaVuSans-31"/>
       <use xlink:href="#DejaVuSans-2e" x="63.623047"/>
       <use xlink:href="#DejaVuSans-30" x="95.410156"/>
      </g>
     </g>
    </g>
    <g id="xtick_8">
     <g id="line2d_8">
      <g>
       <use xlink:href="#m8d1706d9e5" x="286.520938" y="307.999219" style="stroke: #000000; stroke-width: 0.8"/>
      </g>
     </g>
     <g id="text_8">
      <!-- 1.5 -->
      <g transform="translate(278.569375 322.597656)scale(0.1 -0.1)">
       <use xlink:href="#DejaVuSans-31"/>
       <use xlink:href="#DejaVuSans-2e" x="63.623047"/>
       <use xlink:href="#DejaVuSans-35" x="95.410156"/>
      </g>
     </g>
    </g>
    <g id="xtick_9">
     <g id="line2d_9">
      <g>
       <use xlink:href="#m8d1706d9e5" x="320.000938" y="307.999219" style="stroke: #000000; stroke-width: 0.8"/>
      </g>
     </g>
     <g id="text_9">
      <!-- 2.0 -->
      <g transform="translate(312.049375 322.597656)scale(0.1 -0.1)">
       <use xlink:href="#DejaVuSans-32"/>
       <use xlink:href="#DejaVuSans-2e" x="63.623047"/>
       <use xlink:href="#DejaVuSans-30" x="95.410156"/>
      </g>
     </g>
    </g>
    <g id="text_10">
     <!-- x -->
     <g transform="translate(183.121563 336.275781)scale(0.1 -0.1)">
      <defs>
       <path id="DejaVuSans-78" d="M 3513 3500 
L 2247 1797 
L 3578 0 
L 2900 0 
L 1881 1375 
L 863 0 
L 184 0 
L 1544 1831 
L 300 3500 
L 978 3500 
L 1906 2253 
L 2834 3500 
L 3513 3500 
z
" transform="scale(0.015625)"/>
      </defs>
      <use xlink:href="#DejaVuSans-78"/>
     </g>
    </g>
   </g>
   <g id="matplotlib.axis_2">
    <g id="ytick_1">
     <g id="line2d_10">
      <defs>
       <path id="mf5c02a1ba5" d="M 0 0 
L -3.5 0 
" style="stroke: #000000; stroke-width: 0.8"/>
      </defs>
      <g>
       <use xlink:href="#mf5c02a1ba5" x="52.160938" y="307.999219" style="stroke: #000000; stroke-width: 0.8"/>
      </g>
     </g>
     <g id="text_11">
      <!-- 2.0 -->
      <g transform="translate(20.878125 311.798438)scale(0.1 -0.1)">
       <use xlink:href="#DejaVuSans-2212"/>
       <use xlink:href="#DejaVuSans-32" x="83.789062"/>
       <use xlink:href="#DejaVuSans-2e" x="147.412109"/>
       <use xlink:href="#DejaVuSans-30" x="179.199219"/>
      </g>
     </g>
    </g>
    <g id="ytick_2">
     <g id="line2d_11">
      <g>
       <use xlink:href="#mf5c02a1ba5" x="52.160938" y="274.519219" style="stroke: #000000; stroke-width: 0.8"/>
      </g>
     </g>
     <g id="text_12">
      <!-- 1.5 -->
      <g transform="translate(20.878125 278.318438)scale(0.1 -0.1)">
       <use xlink:href="#DejaVuSans-2212"/>
       <use xlink:href="#DejaVuSans-31" x="83.789062"/>
       <use xlink:href="#DejaVuSans-2e" x="147.412109"/>
       <use xlink:href="#DejaVuSans-35" x="179.199219"/>
      </g>
     </g>
    </g>
    <g id="ytick_3">
     <g id="line2d_12">
      <g>
       <use xlink:href="#mf5c02a1ba5" x="52.160938" y="241.039219" style="stroke: #000000; stroke-width: 0.8"/>
      </g>
     </g>
     <g id="text_13">
      <!-- 1.0 -->
      <g transform="translate(20.878125 244.838438)scale(0.1 -0.1)">
       <use xlink:href="#DejaVuSans-2212"/>
       <use xlink:href="#DejaVuSans-31" x="83.789062"/>
       <use xlink:href="#DejaVuSans-2e" x="147.412109"/>
       <use xlink:href="#DejaVuSans-30" x="179.199219"/>
      </g>
     </g>
    </g>
    <g id="ytick_4">
     <g id="line2d_13">
      <g>
       <use xlink:href="#mf5c02a1ba5" x="52.160938" y="207.559219" style="stroke: #000000; stroke-width: 0.8"/>
      </g>
     </g>
     <g id="text_14">
      <!-- 0.5 -->
      <g transform="translate(20.878125 211.358438)scale(0.1 -0.1)">
       <use xlink:href="#DejaVuSans-2212"/>
       <use xlink:href="#DejaVuSans-30" x="83.789062"/>
       <use xlink:href="#DejaVuSans-2e" x="147.412109"/>
       <use xlink:href="#DejaVuSans-35" x="179.199219"/>
      </g>
     </g>
    </g>
    <g id="ytick_5">
     <g id="line2d_14">
      <g>
       <use xlink:href="#mf5c02a1ba5" x="52.160938" y="174.079219" style="stroke: #000000; stroke-width: 0.8"/>
      </g>
     </g>
     <g id="text_15">
      <!-- 0.0 -->
      <g transform="translate(29.257812 177.878438)scale(0.1 -0.1)">
       <use xlink:href="#DejaVuSans-30"/>
       <use xlink:href="#DejaVuSans-2e" x="63.623047"/>
       <use xlink:href="#DejaVuSans-30" x="95.410156"/>
      </g>
     </g>
    </g>
    <g id="ytick_6">
     <g id="line2d_15">
      <g>
       <use xlink:href="#mf5c02a1ba5" x="52.160938" y="140.599219" style="stroke: #000000; stroke-width: 0.8"/>
      </g>
     </g>
     <g id="text_16">
      <!-- 0.5 -->
      <g transform="translate(29.257812 144.398438)scale(0.1 -0.1)">
       <use xlink:href="#DejaVuSans-30"/>
       <use xlink:href="#DejaVuSans-2e" x="63.623047"/>
       <use xlink:href="#DejaVuSans-35" x="95.410156"/>
      </g>
     </g>
    </g>
    <g id="ytick_7">
     <g id="line2d_16">
      <g>
       <use xlink:href="#mf5c02a1ba5" x="52.160938" y="107.119219" style="stroke: #000000; stroke-width: 0.8"/>
      </g>
     </g>
     <g id="text_17">
      <!-- 1.0 -->
      <g transform="translate(29.257812 110.918438)scale(0.1 -0.1)">
       <use xlink:href="#DejaVuSans-31"/>
       <use xlink:href="#DejaVuSans-2e" x="63.623047"/>
       <use xlink:href="#DejaVuSans-30" x="95.410156"/>
      </g>
     </g>
    </g>
    <g id="ytick_8">
     <g id="line2d_17">
      <g>
       <use xlink:href="#mf5c02a1ba5" x="52.160938" y="73.639219" style="stroke: #000000; stroke-width: 0.8"/>
      </g>
     </g>
     <g id="text_18">
      <!-- 1.5 -->
      <g transform="translate(29.257812 77.438438)scale(0.1 -0.1)">
       <use xlink:href="#DejaVuSans-31"/>
       <use xlink:href="#DejaVuSans-2e" x="63.623047"/>
       <use xlink:href="#DejaVuSans-35" x="95.410156"/>
      </g>
     </g>
    </g>
    <g id="ytick_9">
     <g id="line2d_18">
      <g>
       <use xlink:href="#mf5c02a1ba5" x="52.160938" y="40.159219" style="stroke: #000000; stroke-width: 0.8"/>
      </g>
     </g>
     <g id="text_19">
      <!-- 2.0 -->
      <g transform="translate(29.257812 43.958438)scale(0.1 -0.1)">
       <use xlink:href="#DejaVuSans-32"/>
       <use xlink:href="#DejaVuSans-2e" x="63.623047"/>
       <use xlink:href="#DejaVuSans-30" x="95.410156"/>
      </g>
     </g>
    </g>
    <g id="text_20">
     <!-- y -->
     <g transform="translate(14.798438 177.038594)rotate(-90)scale(0.1 -0.1)">
      <defs>
       <path id="DejaVuSans-79" d="M 2059 -325 
Q 1816 -950 1584 -1140 
Q 1353 -1331 966 -1331 
L 506 -1331 
L 506 -850 
L 844 -850 
Q 1081 -850 1212 -737 
Q 1344 -625 1503 -206 
L 1606 56 
L 191 3500 
L 800 3500 
L 1894 763 
L 2988 3500 
L 3597 3500 
L 2059 -325 
z
" transform="scale(0.015625)"/>
      </defs>
      <use xlink:href="#DejaVuSans-79"/>
     </g>
    </g>
   </g>
   <g id="PathCollection_22"/>
   <g id="PathCollection_23">
    <path d="M 183.402537 182.374606 
L 186.080938 182.947019 
L 188.759338 182.374606 
L 189.223594 182.114419 
L 191.437737 181.05163 
L 193.053348 179.436019 
L 194.116138 177.221875 
L 194.376325 176.757619 
L 194.948737 174.079219 
L 194.376325 171.400819 
L 194.116138 170.936563 
L 193.053348 168.722419 
L 191.437737 167.106808 
L 189.223593 166.044019 
L 188.759338 165.783831 
L 186.080938 165.211419 
L 183.402537 165.783831 
L 182.938282 166.044019 
L 180.724138 167.106808 
L 179.108527 168.722419 
L 178.045738 170.936563 
L 177.78555 171.400819 
L 177.213138 174.079219 
L 177.78555 176.757619 
L 178.045738 177.221875 
L 179.108527 179.436019 
L 180.724138 181.05163 
L 182.938281 182.114419 
L 183.402537 182.374606 
z
" clip-path="url(#p2bd22e9d2e)" style="fill: none; stroke: #000000; stroke-width: 1.5"/>
   </g>
   <g id="PathCollection_24">
    <path d="M 183.402537 179.650291 
L 186.080938 180.554519 
L 188.759338 179.650291 
L 189.045033 179.436019 
L 191.437737 177.043315 
L 191.652009 176.757619 
L 192.556237 174.079219 
L 191.652009 171.400819 
L 191.437737 171.115123 
L 189.045033 168.722419 
L 188.759338 168.508147 
L 186.080938 167.603919 
L 183.402537 168.508147 
L 183.116842 168.722419 
L 180.724138 171.115123 
L 180.509866 171.400819 
L 179.605638 174.079219 
L 180.509866 176.757619 
L 180.724138 177.043315 
L 183.116842 179.436019 
L 183.402537 179.650291 
z
" clip-path="url(#p2bd22e9d2e)" style="fill: none; stroke: #000000; stroke-width: 1.5"/>
   </g>
   <g id="PathCollection_25">
    <path d="M 183.402537 178.650355 
L 186.080938 179.300313 
L 188.759338 178.650355 
L 190.652074 176.757619 
L 191.302032 174.079219 
L 190.652074 171.400819 
L 188.759338 169.508083 
L 186.080938 168.858124 
L 183.402537 169.508083 
L 181.509802 171.400819 
L 180.859843 174.079219 
L 181.509802 176.757619 
L 183.402537 178.650355 
z
" clip-path="url(#p2bd22e9d2e)" style="fill: none; stroke: #000000; stroke-width: 1.5"/>
   </g>
   <g id="PathCollection_26">
    <path d="M 183.402537 177.793267 
L 186.080938 178.957478 
L 188.759338 177.793267 
L 189.794985 176.757619 
L 190.959197 174.079219 
L 189.794985 171.400819 
L 188.759338 170.365171 
L 186.080938 169.20096 
L 183.402537 170.365171 
L 182.36689 171.400819 
L 181.202678 174.079219 
L 182.36689 176.757619 
L 183.402537 177.793267 
z
" clip-path="url(#p2bd22e9d2e)" style="fill: none; stroke: #000000; stroke-width: 1.5"/>
   </g>
   <g id="PathCollection_27">
    <path d="M 183.402537 176.936179 
L 186.080938 178.614643 
L 188.759338 176.936179 
L 188.937897 176.757619 
L 190.616362 174.079219 
L 188.937897 171.400819 
L 188.759338 171.222259 
L 186.080938 169.543795 
L 183.402537 171.222259 
L 183.223978 171.400819 
L 181.545513 174.079219 
L 183.223978 176.757619 
L 183.402537 176.936179 
z
" clip-path="url(#p2bd22e9d2e)" style="fill: none; stroke: #000000; stroke-width: 1.5"/>
   </g>
   <g id="PathCollection_28">
    <path d="M 186.080938 178.271808 
L 188.352221 176.757619 
L 188.759338 176.350502 
L 190.273526 174.079219 
L 188.759338 171.807936 
L 188.352221 171.400819 
L 186.080938 169.88663 
L 183.809654 171.400819 
L 183.402537 171.807936 
L 181.888349 174.079219 
L 183.402537 176.350502 
L 183.809654 176.757619 
L 186.080938 178.271808 
z
" clip-path="url(#p2bd22e9d2e)" style="fill: none; stroke: #000000; stroke-width: 1.5"/>
   </g>
   <g id="PathCollection_29">
    <path d="M 186.080938 177.928972 
L 187.837968 176.757619 
L 188.759338 175.836249 
L 189.930691 174.079219 
L 188.759338 172.322188 
L 187.837968 171.400819 
L 186.080938 170.229465 
L 184.323907 171.400819 
L 183.402537 172.322188 
L 182.231184 174.079219 
L 183.402537 175.836249 
L 184.323907 176.757619 
L 186.080938 177.928972 
z
" clip-path="url(#p2bd22e9d2e)" style="fill: none; stroke: #000000; stroke-width: 1.5"/>
   </g>
   <g id="PathCollection_30">
    <path d="M 186.080938 177.586137 
L 187.323715 176.757619 
L 188.759338 175.321996 
L 189.587856 174.079219 
L 188.759338 172.836441 
L 187.323715 171.400819 
L 186.080938 170.5723 
L 184.83816 171.400819 
L 183.402537 172.836441 
L 182.574019 174.079219 
L 183.402537 175.321996 
L 184.83816 176.757619 
L 186.080938 177.586137 
z
" clip-path="url(#p2bd22e9d2e)" style="fill: none; stroke: #000000; stroke-width: 1.5"/>
   </g>
   <g id="PathCollection_31">
    <path d="M 186.080938 177.243302 
L 186.809462 176.757619 
L 188.759338 174.807744 
L 189.245021 174.079219 
L 188.759338 173.350694 
L 186.809462 171.400819 
L 186.080938 170.915136 
L 185.352413 171.400819 
L 183.402537 173.350694 
L 182.916854 174.079219 
L 183.402537 174.807744 
L 185.352413 176.757619 
L 186.080938 177.243302 
z
" clip-path="url(#p2bd22e9d2e)" style="fill: none; stroke: #000000; stroke-width: 1.5"/>
   </g>
   <g id="PathCollection_32">
    <path d="M 186.080938 176.900467 
L 186.295209 176.757619 
L 188.759338 174.293491 
L 188.902186 174.079219 
L 188.759338 173.864947 
L 186.295209 171.400819 
L 186.080938 171.257971 
L 185.866666 171.400819 
L 183.402537 173.864947 
L 183.25969 174.079219 
L 183.402537 174.293491 
L 185.866666 176.757619 
L 186.080938 176.900467 
z
" clip-path="url(#p2bd22e9d2e)" style="fill: none; stroke: #000000; stroke-width: 1.5"/>
   </g>
   <g id="PathCollection_33"/>
   <g id="patch_3">
    <path d="M 52.160938 307.999219 
L 52.160938 40.159219 
" style="fill: none; stroke: #000000; stroke-width: 0.8; stroke-linejoin: miter; stroke-linecap: square"/>
   </g>
   <g id="patch_4">
    <path d="M 320.000938 307.999219 
L 320.000938 40.159219 
" style="fill: none; stroke: #000000; stroke-width: 0.8; stroke-linejoin: miter; stroke-linecap: square"/>
   </g>
   <g id="patch_5">
    <path d="M 52.160937 307.999219 
L 320.000938 307.999219 
" style="fill: none; stroke: #000000; stroke-width: 0.8; stroke-linejoin: miter; stroke-linecap: square"/>
   </g>
   <g id="patch_6">
    <path d="M 52.160937 40.159219 
L 320.000938 40.159219 
" style="fill: none; stroke: #000000; stroke-width: 0.8; stroke-linejoin: miter; stroke-linecap: square"/>
   </g>
  </g>
  <g id="axes_2">
   <g id="patch_7">
    <path d="M 336.740938 337.159219 
L 353.048938 337.159219 
L 353.048938 10.999219 
L 336.740938 10.999219 
z
" style="fill: #ffffff"/>
   </g>
   <g id="patch_8">
    <path clip-path="url(#p4407ee8b2d)" style="fill: #ffffff; stroke: #ffffff; stroke-width: 0.01; stroke-linejoin: miter"/>
   </g>
   <g id="QuadMesh_1">
    <path d="M 336.740938 337.159219 
L 353.048938 337.159219 
L 353.048938 321.62779 
L 336.740938 321.62779 
L 336.740938 337.159219 
" clip-path="url(#p4407ee8b2d)" style="fill: #4257c9"/>
    <path d="M 336.740938 321.62779 
L 353.048938 321.62779 
L 353.048938 306.096362 
L 336.740938 306.096362 
L 336.740938 321.62779 
" clip-path="url(#p4407ee8b2d)" style="fill: #506bda"/>
    <path d="M 336.740938 306.096362 
L 353.048938 306.096362 
L 353.048938 290.564933 
L 336.740938 290.564933 
L 336.740938 306.096362 
" clip-path="url(#p4407ee8b2d)" style="fill: #5f7fe8"/>
    <path d="M 336.740938 290.564933 
L 353.048938 290.564933 
L 353.048938 275.033504 
L 336.740938 275.033504 
L 336.740938 290.564933 
" clip-path="url(#p4407ee8b2d)" style="fill: #6f92f3"/>
    <path d="M 336.740938 275.033504 
L 353.048938 275.033504 
L 353.048938 259.502076 
L 336.740938 259.502076 
L 336.740938 275.033504 
" clip-path="url(#p4407ee8b2d)" style="fill: #80a3fa"/>
    <path d="M 336.740938 259.502076 
L 353.048938 259.502076 
L 353.048938 243.970647 
L 336.740938 243.970647 
L 336.740938 259.502076 
" clip-path="url(#p4407ee8b2d)" style="fill: #92b4fe"/>
    <path d="M 336.740938 243.970647 
L 353.048938 243.970647 
L 353.048938 228.439219 
L 336.740938 228.439219 
L 336.740938 243.970647 
" clip-path="url(#p4407ee8b2d)" style="fill: #a2c1ff"/>
    <path d="M 336.740938 228.439219 
L 353.048938 228.439219 
L 353.048938 212.90779 
L 336.740938 212.90779 
L 336.740938 228.439219 
" clip-path="url(#p4407ee8b2d)" style="fill: #b2ccfb"/>
    <path d="M 336.740938 212.90779 
L 353.048938 212.90779 
L 353.048938 197.376362 
L 336.740938 197.376362 
L 336.740938 212.90779 
" clip-path="url(#p4407ee8b2d)" style="fill: #c1d4f4"/>
    <path d="M 336.740938 197.376362 
L 353.048938 197.376362 
L 353.048938 181.844933 
L 336.740938 181.844933 
L 336.740938 197.376362 
" clip-path="url(#p4407ee8b2d)" style="fill: #cfdaea"/>
    <path d="M 336.740938 181.844933 
L 353.048938 181.844933 
L 353.048938 166.313504 
L 336.740938 166.313504 
L 336.740938 181.844933 
" clip-path="url(#p4407ee8b2d)" style="fill: #dddcdc"/>
    <path d="M 336.740938 166.313504 
L 353.048938 166.313504 
L 353.048938 150.782076 
L 336.740938 150.782076 
L 336.740938 166.313504 
" clip-path="url(#p4407ee8b2d)" style="fill: #e9d5cb"/>
    <path d="M 336.740938 150.782076 
L 353.048938 150.782076 
L 353.048938 135.250647 
L 336.740938 135.250647 
L 336.740938 150.782076 
" clip-path="url(#p4407ee8b2d)" style="fill: #f1ccb8"/>
    <path d="M 336.740938 135.250647 
L 353.048938 135.250647 
L 353.048938 119.719219 
L 336.740938 119.719219 
L 336.740938 135.250647 
" clip-path="url(#p4407ee8b2d)" style="fill: #f6bfa6"/>
    <path d="M 336.740938 119.719219 
L 353.048938 119.719219 
L 353.048938 104.18779 
L 336.740938 104.18779 
L 336.740938 119.719219 
" clip-path="url(#p4407ee8b2d)" style="fill: #f7b093"/>
    <path d="M 336.740938 104.18779 
L 353.048938 104.18779 
L 353.048938 88.656362 
L 336.740938 88.656362 
L 336.740938 104.18779 
" clip-path="url(#p4407ee8b2d)" style="fill: #f59f80"/>
    <path d="M 336.740938 88.656362 
L 353.048938 88.656362 
L 353.048938 73.124933 
L 336.740938 73.124933 
L 336.740938 88.656362 
" clip-path="url(#p4407ee8b2d)" style="fill: #f08a6c"/>
    <path d="M 336.740938 73.124933 
L 353.048938 73.124933 
L 353.048938 57.593504 
L 336.740938 57.593504 
L 336.740938 73.124933 
" clip-path="url(#p4407ee8b2d)" style="fill: #e7745b"/>
    <path d="M 336.740938 57.593504 
L 353.048938 57.593504 
L 353.048938 42.062076 
L 336.740938 42.062076 
L 336.740938 57.593504 
" clip-path="url(#p4407ee8b2d)" style="fill: #dc5d4a"/>
    <path d="M 336.740938 42.062076 
L 353.048938 42.062076 
L 353.048938 26.530647 
L 336.740938 26.530647 
L 336.740938 42.062076 
" clip-path="url(#p4407ee8b2d)" style="fill: #cd423b"/>
    <path d="M 336.740938 26.530647 
L 353.048938 26.530647 
L 353.048938 10.999219 
L 336.740938 10.999219 
L 336.740938 26.530647 
" clip-path="url(#p4407ee8b2d)" style="fill: #bd1f2d"/>
   </g>
   <g id="matplotlib.axis_3">
    <g id="ytick_10">
     <g id="line2d_19">
      <defs>
       <path id="m7c60104320" d="M 0 0 
L 3.5 0 
" style="stroke: #000000; stroke-width: 0.8"/>
      </defs>
      <g>
       <use xlink:href="#m7c60104320" x="353.048938" y="337.159219" style="stroke: #000000; stroke-width: 0.8"/>
      </g>
     </g>
     <g id="text_21">
      <!-- 0 -->
      <g transform="translate(360.048938 340.958437)scale(0.1 -0.1)">
       <use xlink:href="#DejaVuSans-30"/>
      </g>
     </g>
    </g>
    <g id="ytick_11">
     <g id="line2d_20">
      <g>
       <use xlink:href="#m7c60104320" x="353.048938" y="290.564933" style="stroke: #000000; stroke-width: 0.8"/>
      </g>
     </g>
     <g id="text_22">
      <!-- 900 -->
      <g transform="translate(360.048938 294.364152)scale(0.1 -0.1)">
       <defs>
        <path id="DejaVuSans-39" d="M 703 97 
L 703 672 
Q 941 559 1184 500 
Q 1428 441 1663 441 
Q 2288 441 2617 861 
Q 2947 1281 2994 2138 
Q 2813 1869 2534 1725 
Q 2256 1581 1919 1581 
Q 1219 1581 811 2004 
Q 403 2428 403 3163 
Q 403 3881 828 4315 
Q 1253 4750 1959 4750 
Q 2769 4750 3195 4129 
Q 3622 3509 3622 2328 
Q 3622 1225 3098 567 
Q 2575 -91 1691 -91 
Q 1453 -91 1209 -44 
Q 966 3 703 97 
z
M 1959 2075 
Q 2384 2075 2632 2365 
Q 2881 2656 2881 3163 
Q 2881 3666 2632 3958 
Q 2384 4250 1959 4250 
Q 1534 4250 1286 3958 
Q 1038 3666 1038 3163 
Q 1038 2656 1286 2365 
Q 1534 2075 1959 2075 
z
" transform="scale(0.015625)"/>
       </defs>
       <use xlink:href="#DejaVuSans-39"/>
       <use xlink:href="#DejaVuSans-30" x="63.623047"/>
       <use xlink:href="#DejaVuSans-30" x="127.246094"/>
      </g>
     </g>
    </g>
    <g id="ytick_12">
     <g id="line2d_21">
      <g>
       <use xlink:href="#m7c60104320" x="353.048938" y="243.970647" style="stroke: #000000; stroke-width: 0.8"/>
      </g>
     </g>
     <g id="text_23">
      <!-- 1800 -->
      <g transform="translate(360.048938 247.769866)scale(0.1 -0.1)">
       <defs>
        <path id="DejaVuSans-38" d="M 2034 2216 
Q 1584 2216 1326 1975 
Q 1069 1734 1069 1313 
Q 1069 891 1326 650 
Q 1584 409 2034 409 
Q 2484 409 2743 651 
Q 3003 894 3003 1313 
Q 3003 1734 2745 1975 
Q 2488 2216 2034 2216 
z
M 1403 2484 
Q 997 2584 770 2862 
Q 544 3141 544 3541 
Q 544 4100 942 4425 
Q 1341 4750 2034 4750 
Q 2731 4750 3128 4425 
Q 3525 4100 3525 3541 
Q 3525 3141 3298 2862 
Q 3072 2584 2669 2484 
Q 3125 2378 3379 2068 
Q 3634 1759 3634 1313 
Q 3634 634 3220 271 
Q 2806 -91 2034 -91 
Q 1263 -91 848 271 
Q 434 634 434 1313 
Q 434 1759 690 2068 
Q 947 2378 1403 2484 
z
M 1172 3481 
Q 1172 3119 1398 2916 
Q 1625 2713 2034 2713 
Q 2441 2713 2670 2916 
Q 2900 3119 2900 3481 
Q 2900 3844 2670 4047 
Q 2441 4250 2034 4250 
Q 1625 4250 1398 4047 
Q 1172 3844 1172 3481 
z
" transform="scale(0.015625)"/>
       </defs>
       <use xlink:href="#DejaVuSans-31"/>
       <use xlink:href="#DejaVuSans-38" x="63.623047"/>
       <use xlink:href="#DejaVuSans-30" x="127.246094"/>
       <use xlink:href="#DejaVuSans-30" x="190.869141"/>
      </g>
     </g>
    </g>
    <g id="ytick_13">
     <g id="line2d_22">
      <g>
       <use xlink:href="#m7c60104320" x="353.048938" y="197.376362" style="stroke: #000000; stroke-width: 0.8"/>
      </g>
     </g>
     <g id="text_24">
      <!-- 2700 -->
      <g transform="translate(360.048938 201.17558)scale(0.1 -0.1)">
       <defs>
        <path id="DejaVuSans-37" d="M 525 4666 
L 3525 4666 
L 3525 4397 
L 1831 0 
L 1172 0 
L 2766 4134 
L 525 4134 
L 525 4666 
z
" transform="scale(0.015625)"/>
       </defs>
       <use xlink:href="#DejaVuSans-32"/>
       <use xlink:href="#DejaVuSans-37" x="63.623047"/>
       <use xlink:href="#DejaVuSans-30" x="127.246094"/>
       <use xlink:href="#DejaVuSans-30" x="190.869141"/>
      </g>
     </g>
    </g>
    <g id="ytick_14">
     <g id="line2d_23">
      <g>
       <use xlink:href="#m7c60104320" x="353.048938" y="150.782076" style="stroke: #000000; stroke-width: 0.8"/>
      </g>
     </g>
     <g id="text_25">
      <!-- 3600 -->
      <g transform="translate(360.048938 154.581295)scale(0.1 -0.1)">
       <defs>
        <path id="DejaVuSans-33" d="M 2597 2516 
Q 3050 2419 3304 2112 
Q 3559 1806 3559 1356 
Q 3559 666 3084 287 
Q 2609 -91 1734 -91 
Q 1441 -91 1130 -33 
Q 819 25 488 141 
L 488 750 
Q 750 597 1062 519 
Q 1375 441 1716 441 
Q 2309 441 2620 675 
Q 2931 909 2931 1356 
Q 2931 1769 2642 2001 
Q 2353 2234 1838 2234 
L 1294 2234 
L 1294 2753 
L 1863 2753 
Q 2328 2753 2575 2939 
Q 2822 3125 2822 3475 
Q 2822 3834 2567 4026 
Q 2313 4219 1838 4219 
Q 1578 4219 1281 4162 
Q 984 4106 628 3988 
L 628 4550 
Q 988 4650 1302 4700 
Q 1616 4750 1894 4750 
Q 2613 4750 3031 4423 
Q 3450 4097 3450 3541 
Q 3450 3153 3228 2886 
Q 3006 2619 2597 2516 
z
" transform="scale(0.015625)"/>
        <path id="DejaVuSans-36" d="M 2113 2584 
Q 1688 2584 1439 2293 
Q 1191 2003 1191 1497 
Q 1191 994 1439 701 
Q 1688 409 2113 409 
Q 2538 409 2786 701 
Q 3034 994 3034 1497 
Q 3034 2003 2786 2293 
Q 2538 2584 2113 2584 
z
M 3366 4563 
L 3366 3988 
Q 3128 4100 2886 4159 
Q 2644 4219 2406 4219 
Q 1781 4219 1451 3797 
Q 1122 3375 1075 2522 
Q 1259 2794 1537 2939 
Q 1816 3084 2150 3084 
Q 2853 3084 3261 2657 
Q 3669 2231 3669 1497 
Q 3669 778 3244 343 
Q 2819 -91 2113 -91 
Q 1303 -91 875 529 
Q 447 1150 447 2328 
Q 447 3434 972 4092 
Q 1497 4750 2381 4750 
Q 2619 4750 2861 4703 
Q 3103 4656 3366 4563 
z
" transform="scale(0.015625)"/>
       </defs>
       <use xlink:href="#DejaVuSans-33"/>
       <use xlink:href="#DejaVuSans-36" x="63.623047"/>
       <use xlink:href="#DejaVuSans-30" x="127.246094"/>
       <use xlink:href="#DejaVuSans-30" x="190.869141"/>
      </g>
     </g>
    </g>
    <g id="ytick_15">
     <g id="line2d_24">
      <g>
       <use xlink:href="#m7c60104320" x="353.048938" y="104.18779" style="stroke: #000000; stroke-width: 0.8"/>
      </g>
     </g>
     <g id="text_26">
      <!-- 4500 -->
      <g transform="translate(360.048938 107.987009)scale(0.1 -0.1)">
       <defs>
        <path id="DejaVuSans-34" d="M 2419 4116 
L 825 1625 
L 2419 1625 
L 2419 4116 
z
M 2253 4666 
L 3047 4666 
L 3047 1625 
L 3713 1625 
L 3713 1100 
L 3047 1100 
L 3047 0 
L 2419 0 
L 2419 1100 
L 313 1100 
L 313 1709 
L 2253 4666 
z
" transform="scale(0.015625)"/>
       </defs>
       <use xlink:href="#DejaVuSans-34"/>
       <use xlink:href="#DejaVuSans-35" x="63.623047"/>
       <use xlink:href="#DejaVuSans-30" x="127.246094"/>
       <use xlink:href="#DejaVuSans-30" x="190.869141"/>
      </g>
     </g>
    </g>
    <g id="ytick_16">
     <g id="line2d_25">
      <g>
       <use xlink:href="#m7c60104320" x="353.048938" y="57.593504" style="stroke: #000000; stroke-width: 0.8"/>
      </g>
     </g>
     <g id="text_27">
      <!-- 5400 -->
      <g transform="translate(360.048938 61.392723)scale(0.1 -0.1)">
       <use xlink:href="#DejaVuSans-35"/>
       <use xlink:href="#DejaVuSans-34" x="63.623047"/>
       <use xlink:href="#DejaVuSans-30" x="127.246094"/>
       <use xlink:href="#DejaVuSans-30" x="190.869141"/>
      </g>
     </g>
    </g>
    <g id="ytick_17">
     <g id="line2d_26">
      <g>
       <use xlink:href="#m7c60104320" x="353.048938" y="10.999219" style="stroke: #000000; stroke-width: 0.8"/>
      </g>
     </g>
     <g id="text_28">
      <!-- 6300 -->
      <g transform="translate(360.048938 14.798438)scale(0.1 -0.1)">
       <use xlink:href="#DejaVuSans-36"/>
       <use xlink:href="#DejaVuSans-33" x="63.623047"/>
       <use xlink:href="#DejaVuSans-30" x="127.246094"/>
       <use xlink:href="#DejaVuSans-30" x="190.869141"/>
      </g>
     </g>
    </g>
   </g>
   <g id="LineCollection_1"/>
   <g id="patch_9">
    <path d="M 336.740938 337.159219 
L 344.894938 337.159219 
L 353.048938 337.159219 
L 353.048938 10.999219 
L 344.894938 10.999219 
L 336.740938 10.999219 
L 336.740938 337.159219 
z
" style="fill: none; stroke: #000000; stroke-width: 0.8; stroke-linejoin: miter; stroke-linecap: square"/>
   </g>
  </g>
 </g>
 <defs>
  <clipPath id="p2bd22e9d2e">
   <rect x="52.160938" y="40.159219" width="267.84" height="267.84"/>
  </clipPath>
  <clipPath id="p4407ee8b2d">
   <rect x="336.740938" y="10.999219" width="16.308" height="326.16"/>
  </clipPath>
 </defs>
</svg>
