<?xml version="1.0" encoding="utf-8" standalone="no"?>
<!DOCTYPE svg PUBLIC "-//W3C//DTD SVG 1.1//EN"
  "http://www.w3.org/Graphics/SVG/1.1/DTD/svg11.dtd">
<svg xmlns:xlink="http://www.w3.org/1999/xlink" width="377.95675pt" height="350.238125pt" viewBox="0 0 377.95675 350.238125" xmlns="http://www.w3.org/2000/svg" version="1.1">
 <metadata>
  <rdf:RDF xmlns:dc="http://purl.org/dc/elements/1.1/" xmlns:cc="http://creativecommons.org/ns#" xmlns:rdf="http://www.w3.org/1999/02/22-rdf-syntax-ns#">
   <cc:Work>
    <dc:type rdf:resource="http://purl.org/dc/dcmitype/StillImage"/>
    <dc:date>2024-10-07T20:48:44.140528</dc:date>
    <dc:format>image/svg+xml</dc:format>
    <dc:creator>
     <cc:Agent>
      <dc:title>Matplotlib v3.5.2, https://matplotlib.org/</dc:title>
     </cc:Agent>
    </dc:creator>
   </cc:Work>
  </rdf:RDF>
 </metadata>
 <defs>
  <style type="text/css">*{stroke-linejoin: round; stroke-linecap: butt}</style>
 </defs>
 <g id="figure_1">
  <g id="patch_1">
   <path d="M 0 350.238125 
L 377.95675 350.238125 
L 377.95675 0 
L 0 0 
z
" style="fill: #ffffff"/>
  </g>
  <g id="axes_1">
   <g id="patch_2">
    <path d="M 43.78125 307.999219 
L 311.62125 307.999219 
L 311.62125 40.159219 
L 43.78125 40.159219 
z
" style="fill: #ffffff"/>
   </g>
   <g id="PathCollection_1">
    <path d="M 204.48525 307.999219 
L 207.16365 307.999219 
L 209.84205 307.999219 
L 212.52045 307.999219 
L 215.19885 307.999219 
L 217.87725 307.999219 
L 220.55565 307.999219 
L 223.23405 307.999219 
L 225.91245 307.999219 
L 228.59085 307.999219 
L 231.26925 307.999219 
L 233.94765 307.999219 
L 236.62605 307.999219 
L 239.30445 307.999219 
L 241.98285 307.999219 
L 244.66125 307.999219 
L 247.33965 307.999219 
L 250.01805 307.999219 
L 252.69645 307.999219 
L 255.37485 307.999219 
L 258.05325 307.999219 
L 260.73165 307.999219 
L 263.41005 307.999219 
L 266.08845 307.999219 
L 268.76685 307.999219 
L 271.44525 307.999219 
L 274.12365 307.999219 
L 276.80205 307.999219 
L 279.48045 307.999219 
L 282.15885 307.999219 
L 284.83725 307.999219 
L 287.51565 307.999219 
L 290.19405 307.999219 
L 292.87245 307.999219 
L 295.55085 307.999219 
L 298.22925 307.999219 
L 300.90765 307.999219 
L 303.58605 307.999219 
L 306.26445 307.999219 
L 308.94285 307.999219 
L 311.62125 307.999219 
L 311.62125 305.320819 
L 311.62125 302.642419 
L 311.62125 299.964019 
L 311.62125 297.285619 
L 311.62125 294.607219 
L 311.62125 291.928819 
L 311.62125 289.250419 
L 311.62125 286.572019 
L 311.62125 283.893619 
L 311.62125 281.215219 
L 311.62125 278.536819 
L 311.62125 275.858419 
L 311.62125 273.180019 
L 311.62125 270.501619 
L 311.62125 267.823219 
L 311.62125 265.144819 
L 311.62125 262.466419 
L 311.62125 259.788019 
L 311.62125 257.109619 
L 311.62125 254.431219 
L 311.62125 251.752819 
L 311.62125 249.074419 
L 311.62125 246.396019 
L 311.62125 243.717619 
L 311.62125 241.039219 
L 311.62125 238.360819 
L 311.62125 235.682419 
L 311.62125 233.004019 
L 311.62125 230.325619 
L 311.62125 227.647219 
L 311.62125 224.968819 
L 311.62125 222.290419 
L 311.62125 219.612019 
L 311.62125 216.933619 
L 311.62125 214.255219 
L 311.62125 211.576819 
L 311.62125 208.898419 
L 311.62125 206.220019 
L 311.62125 203.541619 
L 311.62125 200.863219 
L 311.62125 198.184819 
L 311.62125 195.506419 
L 311.62125 192.828019 
L 311.62125 190.149619 
L 311.62125 187.471219 
L 311.62125 184.792819 
L 311.62125 182.114419 
L 311.62125 179.436019 
L 311.62125 176.757619 
L 311.62125 174.079219 
L 311.62125 171.400819 
L 311.62125 168.722419 
L 311.62125 166.044019 
L 311.62125 163.365619 
L 311.62125 160.687219 
L 311.62125 158.008819 
L 311.62125 155.330419 
L 311.62125 152.652019 
L 311.62125 149.973619 
L 311.62125 147.295219 
L 311.62125 144.616819 
L 311.62125 141.938419 
L 311.62125 139.260019 
L 311.62125 136.581619 
L 311.62125 133.903219 
L 311.62125 131.224819 
L 311.62125 128.546419 
L 311.62125 125.868019 
L 311.62125 123.189619 
L 311.62125 120.511219 
L 311.62125 117.832819 
L 311.62125 115.154419 
L 311.62125 112.476019 
L 311.62125 109.797619 
L 311.62125 107.119219 
L 311.62125 104.440819 
L 311.62125 101.762419 
L 311.62125 99.084019 
L 311.62125 96.405619 
L 311.62125 93.727219 
L 311.62125 91.048819 
L 311.62125 88.370419 
L 311.62125 85.692019 
L 311.62125 83.013619 
L 311.62125 80.335219 
L 311.62125 77.656819 
L 311.62125 74.978419 
L 311.62125 72.300019 
L 311.62125 69.621619 
L 311.62125 66.943219 
L 311.62125 64.264819 
L 311.62125 61.586419 
L 311.62125 58.908019 
L 311.62125 56.229619 
L 311.62125 53.551219 
L 311.62125 50.872819 
L 311.62125 48.194419 
L 311.62125 45.516019 
L 311.62125 42.837619 
L 311.62125 40.159219 
L 308.94285 40.159219 
L 306.26445 40.159219 
L 303.58605 40.159219 
L 300.90765 40.159219 
L 298.22925 40.159219 
L 295.55085 40.159219 
L 292.87245 40.159219 
L 290.19405 40.159219 
L 287.51565 40.159219 
L 284.83725 40.159219 
L 282.15885 40.159219 
L 279.48045 40.159219 
L 276.80205 40.159219 
L 274.12365 40.159219 
L 271.44525 40.159219 
L 268.76685 40.159219 
L 266.08845 40.159219 
L 263.41005 40.159219 
L 260.73165 40.159219 
L 258.05325 40.159219 
L 255.37485 40.159219 
L 252.69645 40.159219 
L 250.01805 40.159219 
L 247.33965 40.159219 
L 244.66125 40.159219 
L 241.98285 40.159219 
L 239.30445 40.159219 
L 236.62605 40.159219 
L 233.94765 40.159219 
L 231.26925 40.159219 
L 228.59085 40.159219 
L 225.91245 40.159219 
L 223.23405 40.159219 
L 220.55565 40.159219 
L 217.87725 40.159219 
L 215.19885 40.159219 
L 212.52045 40.159219 
L 209.84205 40.159219 
L 207.16365 40.159219 
L 204.48525 40.159219 
L 201.80685 40.159219 
L 199.12845 40.159219 
L 196.45005 40.159219 
L 193.77165 40.159219 
L 191.09325 40.159219 
L 188.41485 40.159219 
L 185.73645 40.159219 
L 183.05805 40.159219 
L 180.37965 40.159219 
L 177.70125 40.159219 
L 175.02285 40.159219 
L 172.34445 40.159219 
L 169.66605 40.159219 
L 166.98765 40.159219 
L 164.30925 40.159219 
L 161.63085 40.159219 
L 158.95245 40.159219 
L 156.27405 40.159219 
L 153.59565 40.159219 
L 150.91725 40.159219 
L 148.23885 40.159219 
L 145.56045 40.159219 
L 142.88205 40.159219 
L 140.20365 40.159219 
L 137.52525 40.159219 
L 134.84685 40.159219 
L 132.16845 40.159219 
L 129.49005 40.159219 
L 126.81165 40.159219 
L 124.13325 40.159219 
L 121.45485 40.159219 
L 118.77645 40.159219 
L 116.09805 40.159219 
L 113.41965 40.159219 
L 110.74125 40.159219 
L 108.06285 40.159219 
L 105.38445 40.159219 
L 102.70605 40.159219 
L 100.02765 40.159219 
L 97.34925 40.159219 
L 94.67085 40.159219 
L 91.99245 40.159219 
L 89.31405 40.159219 
L 86.63565 40.159219 
L 83.95725 40.159219 
L 81.27885 40.159219 
L 78.60045 40.159219 
L 75.92205 40.159219 
L 73.24365 40.159219 
L 70.56525 40.159219 
L 67.88685 40.159219 
L 65.20845 40.159219 
L 62.53005 40.159219 
L 59.85165 40.159219 
L 57.17325 40.159219 
L 54.49485 40.159219 
L 51.81645 40.159219 
L 49.13805 40.159219 
L 46.45965 40.159219 
L 43.78125 40.159219 
L 43.78125 42.837619 
L 43.78125 45.516019 
L 43.78125 48.194419 
L 43.78125 50.872819 
L 43.78125 53.551219 
L 43.78125 56.229619 
L 43.78125 58.908019 
L 43.78125 61.586419 
L 43.78125 64.264819 
L 43.78125 66.943219 
L 43.78125 69.621619 
L 43.78125 72.300019 
L 43.78125 74.978419 
L 43.78125 77.656819 
L 43.78125 80.335219 
L 43.78125 83.013619 
L 43.78125 85.692019 
L 43.78125 88.370419 
L 43.78125 91.048819 
L 43.78125 93.727219 
L 43.78125 96.405619 
L 43.78125 99.084019 
L 43.78125 101.762419 
L 43.78125 104.440819 
L 43.78125 107.119219 
L 43.78125 109.797619 
L 43.78125 112.476019 
L 43.78125 115.154419 
L 43.78125 117.832819 
L 43.78125 120.511219 
L 43.78125 123.189619 
L 43.78125 125.868019 
L 43.78125 128.546419 
L 43.78125 131.224819 
L 43.78125 133.903219 
L 43.78125 136.581619 
L 43.78125 139.260019 
L 43.78125 141.938419 
L 43.78125 144.616819 
L 43.78125 147.295219 
L 43.78125 147.968027 
L 46.45965 148.404555 
L 49.13805 148.883183 
L 51.81645 149.405028 
L 54.49485 149.971293 
L 54.50515 149.973619 
L 57.17325 150.559409 
L 59.85165 151.193107 
L 62.53005 151.87397 
L 65.20845 152.603579 
L 65.377135 152.652019 
L 67.88685 153.355698 
L 70.56525 154.156789 
L 73.24365 155.010596 
L 74.197162 155.330419 
L 75.92205 155.897147 
L 78.60045 156.827119 
L 81.27885 157.814758 
L 81.782988 158.008819 
L 83.95725 158.831443 
L 86.63565 159.902153 
L 88.501403 160.687219 
L 89.31405 161.024114 
L 91.99245 162.182951 
L 94.576801 163.365619 
L 94.67085 163.408128 
L 97.34925 164.661349 
L 100.02765 165.987212 
L 100.138832 166.044019 
L 102.70605 167.344267 
L 105.284231 168.722419 
L 105.38445 168.775605 
L 108.06285 170.241559 
L 110.079948 171.400819 
L 110.74125 171.779146 
L 113.41965 173.366254 
L 114.576855 174.079219 
L 116.09805 175.014674 
L 118.77645 176.734821 
L 118.811055 176.757619 
L 121.45485 178.500736 
L 122.817717 179.436019 
L 124.13325 180.341109 
L 126.614655 182.114419 
L 126.81165 182.255805 
L 129.49005 184.230072 
L 130.229473 184.792819 
L 132.16845 186.27895 
L 133.674455 187.471219 
L 134.84685 188.40765 
L 136.962542 190.149619 
L 137.52525 190.617924 
L 140.106646 192.828019 
L 140.20365 192.912123 
L 142.88205 195.288393 
L 143.122042 195.506419 
L 145.56045 197.755926 
L 146.014757 198.184819 
L 148.23885 200.321058 
L 148.791512 200.863219 
L 150.91725 202.988957 
L 151.459411 203.541619 
L 153.59565 205.765712 
L 154.024543 206.220019 
L 156.27405 208.658427 
L 156.492075 208.898419 
L 158.868346 211.576819 
L 158.95245 211.673823 
L 161.162545 214.255219 
L 161.63085 214.817927 
L 163.372819 216.933619 
L 164.30925 218.106014 
L 165.501518 219.612019 
L 166.98765 221.550996 
L 167.550396 222.290419 
L 169.524664 224.968819 
L 169.66605 225.165814 
L 171.43936 227.647219 
L 172.34445 228.962752 
L 173.279733 230.325619 
L 175.02285 232.969414 
L 175.045647 233.004019 
L 176.765795 235.682419 
L 177.70125 237.203614 
L 178.414214 238.360819 
L 180.001323 241.039219 
L 180.37965 241.700521 
L 181.53891 243.717619 
L 183.004864 246.396019 
L 183.05805 246.496238 
L 184.436202 249.074419 
L 185.73645 251.641636 
L 185.793257 251.752819 
L 187.119119 254.431219 
L 188.372341 257.109619 
L 188.41485 257.203668 
L 189.597518 259.788019 
L 190.756355 262.466419 
L 191.09325 263.279065 
L 191.878316 265.144819 
L 192.949025 267.823219 
L 193.77165 269.99748 
L 193.965711 270.501619 
L 194.95335 273.180019 
L 195.883322 275.858419 
L 196.45005 277.583306 
L 196.769873 278.536819 
L 197.62368 281.215219 
L 198.424771 283.893619 
L 199.12845 286.403334 
L 199.17689 286.572019 
L 199.906499 289.250419 
L 200.587362 291.928819 
L 201.22106 294.607219 
L 201.80685 297.275319 
L 201.809176 297.285619 
L 202.375441 299.964019 
L 202.897286 302.642419 
L 203.375914 305.320819 
L 203.812441 307.999219 
z
" clip-path="url(#pfa1d037f41)" style="fill: #4257c9"/>
   </g>
   <g id="PathCollection_2">
    <path d="M 148.23885 307.999219 
L 150.91725 307.999219 
L 153.59565 307.999219 
L 156.27405 307.999219 
L 158.95245 307.999219 
L 161.63085 307.999219 
L 164.30925 307.999219 
L 166.98765 307.999219 
L 169.66605 307.999219 
L 172.34445 307.999219 
L 175.02285 307.999219 
L 177.70125 307.999219 
L 180.37965 307.999219 
L 183.05805 307.999219 
L 185.73645 307.999219 
L 188.41485 307.999219 
L 191.09325 307.999219 
L 193.77165 307.999219 
L 196.45005 307.999219 
L 199.12845 307.999219 
L 201.80685 307.999219 
L 203.812441 307.999219 
L 203.375914 305.320819 
L 202.897286 302.642419 
L 202.375441 299.964019 
L 201.809176 297.285619 
L 201.80685 297.275319 
L 201.22106 294.607219 
L 200.587362 291.928819 
L 199.906499 289.250419 
L 199.17689 286.572019 
L 199.12845 286.403334 
L 198.424771 283.893619 
L 197.62368 281.215219 
L 196.769873 278.536819 
L 196.45005 277.583306 
L 195.883322 275.858419 
L 194.95335 273.180019 
L 193.965711 270.501619 
L 193.77165 269.99748 
L 192.949025 267.823219 
L 191.878316 265.144819 
L 191.09325 263.279065 
L 190.756355 262.466419 
L 189.597518 259.788019 
L 188.41485 257.203668 
L 188.372341 257.109619 
L 187.119119 254.431219 
L 185.793257 251.752819 
L 185.73645 251.641636 
L 184.436202 249.074419 
L 183.05805 246.496238 
L 183.004864 246.396019 
L 181.53891 243.717619 
L 180.37965 241.700521 
L 180.001323 241.039219 
L 178.414214 238.360819 
L 177.70125 237.203614 
L 176.765795 235.682419 
L 175.045647 233.004019 
L 175.02285 232.969414 
L 173.279733 230.325619 
L 172.34445 228.962752 
L 171.43936 227.647219 
L 169.66605 225.165814 
L 169.524664 224.968819 
L 167.550396 222.290419 
L 166.98765 221.550996 
L 165.501518 219.612019 
L 164.30925 218.106014 
L 163.372819 216.933619 
L 161.63085 214.817927 
L 161.162545 214.255219 
L 158.95245 211.673823 
L 158.868346 211.576819 
L 156.492075 208.898419 
L 156.27405 208.658427 
L 154.024543 206.220019 
L 153.59565 205.765712 
L 151.459411 203.541619 
L 150.91725 202.988957 
L 148.791512 200.863219 
L 148.23885 200.321058 
L 146.014757 198.184819 
L 145.56045 197.755926 
L 143.122042 195.506419 
L 142.88205 195.288393 
L 140.20365 192.912123 
L 140.106646 192.828019 
L 137.52525 190.617924 
L 136.962542 190.149619 
L 134.84685 188.40765 
L 133.674455 187.471219 
L 132.16845 186.27895 
L 130.229473 184.792819 
L 129.49005 184.230072 
L 126.81165 182.255805 
L 126.614655 182.114419 
L 124.13325 180.341109 
L 122.817717 179.436019 
L 121.45485 178.500736 
L 118.811055 176.757619 
L 118.77645 176.734821 
L 116.09805 175.014674 
L 114.576855 174.079219 
L 113.41965 173.366254 
L 110.74125 171.779146 
L 110.079948 171.400819 
L 108.06285 170.241559 
L 105.38445 168.775605 
L 105.284231 168.722419 
L 102.70605 167.344267 
L 100.138832 166.044019 
L 100.02765 165.987212 
L 97.34925 164.661349 
L 94.67085 163.408128 
L 94.576801 163.365619 
L 91.99245 162.182951 
L 89.31405 161.024114 
L 88.501403 160.687219 
L 86.63565 159.902153 
L 83.95725 158.831443 
L 81.782988 158.008819 
L 81.27885 157.814758 
L 78.60045 156.827119 
L 75.92205 155.897147 
L 74.197162 155.330419 
L 73.24365 155.010596 
L 70.56525 154.156789 
L 67.88685 153.355698 
L 65.377135 152.652019 
L 65.20845 152.603579 
L 62.53005 151.87397 
L 59.85165 151.193107 
L 57.17325 150.559409 
L 54.50515 149.973619 
L 54.49485 149.971293 
L 51.81645 149.405028 
L 49.13805 148.883183 
L 46.45965 148.404555 
L 43.78125 147.968027 
L 43.78125 149.973619 
L 43.78125 152.652019 
L 43.78125 155.330419 
L 43.78125 158.008819 
L 43.78125 160.687219 
L 43.78125 163.365619 
L 43.78125 166.044019 
L 43.78125 168.722419 
L 43.78125 171.400819 
L 43.78125 174.079219 
L 43.78125 176.757619 
L 43.78125 179.436019 
L 43.78125 182.114419 
L 43.78125 184.792819 
L 43.78125 187.471219 
L 43.78125 190.149619 
L 43.78125 192.828019 
L 43.78125 195.506419 
L 43.78125 198.184819 
L 43.78125 200.863219 
L 43.78125 203.541619 
L 43.78125 205.206392 
L 46.45965 205.845225 
L 47.893008 206.220019 
L 49.13805 206.533929 
L 51.81645 207.270343 
L 54.49485 208.078529 
L 56.984067 208.898419 
L 57.17325 208.958888 
L 59.85165 209.872454 
L 62.53005 210.867381 
L 64.305107 211.576819 
L 65.20845 211.929581 
L 67.88685 213.043935 
L 70.56525 214.252156 
L 70.571732 214.255219 
L 73.24365 215.497579 
L 75.92205 216.846134 
L 76.088255 216.933619 
L 78.60045 218.2415 
L 81.046729 219.612019 
L 81.27885 219.741042 
L 83.95725 221.297257 
L 85.563813 222.290419 
L 86.63565 222.951361 
L 89.31405 224.695766 
L 89.716414 224.968819 
L 91.99245 226.517912 
L 93.56488 227.647219 
L 94.67085 228.446632 
L 97.144462 230.325619 
L 97.34925 230.482745 
L 100.02765 232.614863 
L 100.497831 233.004019 
L 102.70605 234.86035 
L 103.646814 235.682419 
L 105.38445 237.230381 
L 106.610054 238.360819 
L 108.06285 239.732089 
L 109.405656 241.039219 
L 110.74125 242.374813 
L 112.04838 243.717619 
L 113.41965 245.170415 
L 114.550088 246.396019 
L 116.09805 248.133655 
L 116.920119 249.074419 
L 118.77645 251.282638 
L 119.165605 251.752819 
L 121.297724 254.431219 
L 121.45485 254.636007 
L 123.333836 257.109619 
L 124.13325 258.215589 
L 125.262557 259.788019 
L 126.81165 262.064055 
L 127.084702 262.466419 
L 128.829108 265.144819 
L 129.49005 266.216655 
L 130.483212 267.823219 
L 132.039426 270.501619 
L 132.16845 270.73374 
L 133.538969 273.180019 
L 134.84685 275.692214 
L 134.934335 275.858419 
L 136.282889 278.536819 
L 137.52525 281.208737 
L 137.528313 281.215219 
L 138.736533 283.893619 
L 139.850888 286.572019 
L 140.20365 287.475362 
L 140.913087 289.250419 
L 141.908015 291.928819 
L 142.82158 294.607219 
L 142.88205 294.796401 
L 143.70194 297.285619 
L 144.510125 299.964019 
L 145.24654 302.642419 
L 145.56045 303.887461 
L 145.935244 305.320819 
L 146.574077 307.999219 
z
" clip-path="url(#pfa1d037f41)" style="fill: #506bda"/>
   </g>
   <g id="PathCollection_3">
    <path d="M 121.45485 307.999219 
L 124.13325 307.999219 
L 126.81165 307.999219 
L 129.49005 307.999219 
L 132.16845 307.999219 
L 134.84685 307.999219 
L 137.52525 307.999219 
L 140.20365 307.999219 
L 142.88205 307.999219 
L 145.56045 307.999219 
L 146.574077 307.999219 
L 145.935244 305.320819 
L 145.56045 303.887461 
L 145.24654 302.642419 
L 144.510125 299.964019 
L 143.70194 297.285619 
L 142.88205 294.796401 
L 142.82158 294.607219 
L 141.908015 291.928819 
L 140.913087 289.250419 
L 140.20365 287.475362 
L 139.850888 286.572019 
L 138.736533 283.893619 
L 137.528313 281.215219 
L 137.52525 281.208737 
L 136.282889 278.536819 
L 134.934335 275.858419 
L 134.84685 275.692214 
L 133.538969 273.180019 
L 132.16845 270.73374 
L 132.039426 270.501619 
L 130.483212 267.823219 
L 129.49005 266.216655 
L 128.829108 265.144819 
L 127.084702 262.466419 
L 126.81165 262.064055 
L 125.262557 259.788019 
L 124.13325 258.215589 
L 123.333836 257.109619 
L 121.45485 254.636007 
L 121.297724 254.431219 
L 119.165605 251.752819 
L 118.77645 251.282638 
L 116.920119 249.074419 
L 116.09805 248.133655 
L 114.550088 246.396019 
L 113.41965 245.170415 
L 112.04838 243.717619 
L 110.74125 242.374813 
L 109.405656 241.039219 
L 108.06285 239.732089 
L 106.610054 238.360819 
L 105.38445 237.230381 
L 103.646814 235.682419 
L 102.70605 234.86035 
L 100.497831 233.004019 
L 100.02765 232.614863 
L 97.34925 230.482745 
L 97.144462 230.325619 
L 94.67085 228.446632 
L 93.56488 227.647219 
L 91.99245 226.517912 
L 89.716414 224.968819 
L 89.31405 224.695766 
L 86.63565 222.951361 
L 85.563813 222.290419 
L 83.95725 221.297257 
L 81.27885 219.741042 
L 81.046729 219.612019 
L 78.60045 218.2415 
L 76.088255 216.933619 
L 75.92205 216.846134 
L 73.24365 215.497579 
L 70.571732 214.255219 
L 70.56525 214.252156 
L 67.88685 213.043935 
L 65.20845 211.929581 
L 64.305107 211.576819 
L 62.53005 210.867381 
L 59.85165 209.872454 
L 57.17325 208.958888 
L 56.984067 208.898419 
L 54.49485 208.078529 
L 51.81645 207.270343 
L 49.13805 206.533929 
L 47.893008 206.220019 
L 46.45965 205.845225 
L 43.78125 205.206392 
L 43.78125 206.220019 
L 43.78125 208.898419 
L 43.78125 211.576819 
L 43.78125 214.255219 
L 43.78125 216.933619 
L 43.78125 219.612019 
L 43.78125 222.290419 
L 43.78125 224.968819 
L 43.78125 227.647219 
L 43.78125 230.325619 
L 43.78125 230.901915 
L 46.45965 231.677578 
L 49.13805 232.544137 
L 50.437321 233.004019 
L 51.81645 233.475901 
L 54.49485 234.477779 
L 57.17325 235.586401 
L 57.390946 235.682419 
L 59.85165 236.742538 
L 62.53005 238.012139 
L 63.219656 238.360819 
L 65.20845 239.350471 
L 67.88685 240.803242 
L 68.298483 241.039219 
L 70.56525 242.328148 
L 72.818201 243.717619 
L 73.24365 243.979153 
L 75.92205 245.71875 
L 76.902485 246.396019 
L 78.60045 247.574752 
L 80.6274 249.074419 
L 81.27885 249.56137 
L 83.95725 251.677695 
L 84.04869 251.752819 
L 86.63565 253.917879 
L 87.220694 254.431219 
L 89.31405 256.312765 
L 90.164666 257.109619 
L 91.99245 258.873595 
L 92.906874 259.788019 
L 94.67085 261.615802 
L 95.467704 262.466419 
L 97.34925 264.559774 
L 97.862589 265.144819 
L 100.02765 267.731778 
L 100.102773 267.823219 
L 102.219099 270.501619 
L 102.70605 271.153069 
L 104.205717 273.180019 
L 105.38445 274.877984 
L 106.061719 275.858419 
L 107.801315 278.536819 
L 108.06285 278.962268 
L 109.452321 281.215219 
L 110.74125 283.481986 
L 110.977227 283.893619 
L 112.429998 286.572019 
L 113.41965 288.560813 
L 113.76833 289.250419 
L 115.037931 291.928819 
L 116.09805 294.389523 
L 116.194067 294.607219 
L 117.30269 297.285619 
L 118.304568 299.964019 
L 118.77645 301.343148 
L 119.236332 302.642419 
L 120.10289 305.320819 
L 120.878553 307.999219 
z
" clip-path="url(#pfa1d037f41)" style="fill: #5f7fe8"/>
   </g>
   <g id="PathCollection_4">
    <path d="M 105.38445 307.999219 
L 108.06285 307.999219 
L 110.74125 307.999219 
L 113.41965 307.999219 
L 116.09805 307.999219 
L 118.77645 307.999219 
L 120.878553 307.999219 
L 120.10289 305.320819 
L 119.236332 302.642419 
L 118.77645 301.343148 
L 118.304568 299.964019 
L 117.30269 297.285619 
L 116.194067 294.607219 
L 116.09805 294.389523 
L 115.037931 291.928819 
L 113.76833 289.250419 
L 113.41965 288.560813 
L 112.429998 286.572019 
L 110.977227 283.893619 
L 110.74125 283.481986 
L 109.452321 281.215219 
L 108.06285 278.962268 
L 107.801315 278.536819 
L 106.061719 275.858419 
L 105.38445 274.877984 
L 104.205717 273.180019 
L 102.70605 271.153069 
L 102.219099 270.501619 
L 100.102773 267.823219 
L 100.02765 267.731778 
L 97.862589 265.144819 
L 97.34925 264.559774 
L 95.467704 262.466419 
L 94.67085 261.615802 
L 92.906874 259.788019 
L 91.99245 258.873595 
L 90.164666 257.109619 
L 89.31405 256.312765 
L 87.220694 254.431219 
L 86.63565 253.917879 
L 84.04869 251.752819 
L 83.95725 251.677695 
L 81.27885 249.56137 
L 80.6274 249.074419 
L 78.60045 247.574752 
L 76.902485 246.396019 
L 75.92205 245.71875 
L 73.24365 243.979153 
L 72.818201 243.717619 
L 70.56525 242.328148 
L 68.298483 241.039219 
L 67.88685 240.803242 
L 65.20845 239.350471 
L 63.219656 238.360819 
L 62.53005 238.012139 
L 59.85165 236.742538 
L 57.390946 235.682419 
L 57.17325 235.586401 
L 54.49485 234.477779 
L 51.81645 233.475901 
L 50.437321 233.004019 
L 49.13805 232.544137 
L 46.45965 231.677578 
L 43.78125 230.901915 
L 43.78125 233.004019 
L 43.78125 235.682419 
L 43.78125 238.360819 
L 43.78125 241.039219 
L 43.78125 243.717619 
L 43.78125 246.396019 
L 43.78125 246.434434 
L 46.45965 247.329504 
L 49.13805 248.339519 
L 50.898446 249.074419 
L 51.81645 249.446092 
L 54.49485 250.630188 
L 56.779798 251.752819 
L 57.17325 251.942188 
L 59.85165 253.32706 
L 61.791647 254.431219 
L 62.53005 254.847274 
L 65.20845 256.470397 
L 66.189749 257.109619 
L 67.88685 258.215916 
L 70.114416 259.788019 
L 70.56525 260.108643 
L 73.24365 262.132147 
L 73.662825 262.466419 
L 75.92205 264.302065 
L 76.901623 265.144819 
L 78.60045 266.645003 
L 79.870542 267.823219 
L 81.27885 269.174396 
L 82.606073 270.501619 
L 83.95725 271.909927 
L 85.135466 273.180019 
L 86.63565 274.878846 
L 87.478404 275.858419 
L 89.31405 278.117644 
L 89.648322 278.536819 
L 91.671826 281.215219 
L 91.99245 281.666052 
L 93.564553 283.893619 
L 94.67085 285.590719 
L 95.310071 286.572019 
L 96.933195 289.250419 
L 97.34925 289.988822 
L 98.453409 291.928819 
L 99.838281 294.607219 
L 100.02765 295.00067 
L 101.150281 297.285619 
L 102.334377 299.964019 
L 102.70605 300.882023 
L 103.440949 302.642419 
L 104.450964 305.320819 
L 105.346035 307.999219 
z
" clip-path="url(#pfa1d037f41)" style="fill: #6f92f3"/>
   </g>
   <g id="PathCollection_5">
    <path d="M 94.67085 307.999219 
L 97.34925 307.999219 
L 100.02765 307.999219 
L 102.70605 307.999219 
L 105.346035 307.999219 
L 104.450964 305.320819 
L 103.440949 302.642419 
L 102.70605 300.882023 
L 102.334377 299.964019 
L 101.150281 297.285619 
L 100.02765 295.00067 
L 99.838281 294.607219 
L 98.453409 291.928819 
L 97.34925 289.988822 
L 96.933195 289.250419 
L 95.310071 286.572019 
L 94.67085 285.590719 
L 93.564553 283.893619 
L 91.99245 281.666052 
L 91.671826 281.215219 
L 89.648322 278.536819 
L 89.31405 278.117644 
L 87.478404 275.858419 
L 86.63565 274.878846 
L 85.135466 273.180019 
L 83.95725 271.909927 
L 82.606073 270.501619 
L 81.27885 269.174396 
L 79.870542 267.823219 
L 78.60045 266.645003 
L 76.901623 265.144819 
L 75.92205 264.302065 
L 73.662825 262.466419 
L 73.24365 262.132147 
L 70.56525 260.108643 
L 70.114416 259.788019 
L 67.88685 258.215916 
L 66.189749 257.109619 
L 65.20845 256.470397 
L 62.53005 254.847274 
L 61.791647 254.431219 
L 59.85165 253.32706 
L 57.17325 251.942188 
L 56.779798 251.752819 
L 54.49485 250.630188 
L 51.81645 249.446092 
L 50.898446 249.074419 
L 49.13805 248.339519 
L 46.45965 247.329504 
L 43.78125 246.434434 
L 43.78125 249.074419 
L 43.78125 251.752819 
L 43.78125 254.431219 
L 43.78125 257.109619 
L 43.78125 257.166351 
L 46.45965 258.182569 
L 49.13805 259.340022 
L 50.083756 259.788019 
L 51.81645 260.588051 
L 54.49485 261.965889 
L 55.39002 262.466419 
L 57.17325 263.450887 
L 59.85165 265.09355 
L 59.930545 265.144819 
L 62.53005 266.83503 
L 63.921745 267.823219 
L 65.20845 268.74528 
L 67.475851 270.501619 
L 67.88685 270.82583 
L 70.56525 273.078587 
L 70.680118 273.180019 
L 73.24365 275.517266 
L 73.599225 275.858419 
L 75.92205 278.181244 
L 76.263203 278.536819 
L 78.60045 281.10035 
L 78.701882 281.215219 
L 80.954638 283.893619 
L 81.27885 284.304618 
L 83.035189 286.572019 
L 83.95725 287.858724 
L 84.945438 289.250419 
L 86.63565 291.849923 
L 86.686918 291.928819 
L 88.329581 294.607219 
L 89.31405 296.390449 
L 89.814579 297.285619 
L 91.192418 299.964019 
L 91.99245 301.696712 
L 92.440447 302.642419 
L 93.597899 305.320819 
L 94.614117 307.999219 
z
" clip-path="url(#pfa1d037f41)" style="fill: #80a3fa"/>
   </g>
   <g id="PathCollection_6">
    <path d="M 86.63565 307.999219 
L 89.31405 307.999219 
L 91.99245 307.999219 
L 94.614117 307.999219 
L 93.597899 305.320819 
L 92.440447 302.642419 
L 91.99245 301.696712 
L 91.192418 299.964019 
L 89.814579 297.285619 
L 89.31405 296.390449 
L 88.329581 294.607219 
L 86.686918 291.928819 
L 86.63565 291.849923 
L 84.945438 289.250419 
L 83.95725 287.858724 
L 83.035189 286.572019 
L 81.27885 284.304618 
L 80.954638 283.893619 
L 78.701882 281.215219 
L 78.60045 281.10035 
L 76.263203 278.536819 
L 75.92205 278.181244 
L 73.599225 275.858419 
L 73.24365 275.517266 
L 70.680118 273.180019 
L 70.56525 273.078587 
L 67.88685 270.82583 
L 67.475851 270.501619 
L 65.20845 268.74528 
L 63.921745 267.823219 
L 62.53005 266.83503 
L 59.930545 265.144819 
L 59.85165 265.09355 
L 57.17325 263.450887 
L 55.39002 262.466419 
L 54.49485 261.965889 
L 51.81645 260.588051 
L 50.083756 259.788019 
L 49.13805 259.340022 
L 46.45965 258.182569 
L 43.78125 257.166351 
L 43.78125 259.788019 
L 43.78125 262.466419 
L 43.78125 265.144819 
L 43.78125 265.198245 
L 46.45965 266.329088 
L 49.13805 267.629047 
L 49.506793 267.823219 
L 51.81645 269.016186 
L 54.355168 270.501619 
L 54.49485 270.582546 
L 57.17325 272.252058 
L 58.523409 273.180019 
L 59.85165 274.098918 
L 62.178219 275.858419 
L 62.53005 276.129136 
L 65.20845 278.337814 
L 65.436366 278.536819 
L 67.88685 280.750109 
L 68.373434 281.215219 
L 70.56525 283.407034 
L 71.03036 283.893619 
L 73.24365 286.344102 
L 73.442655 286.572019 
L 75.651333 289.250419 
L 75.92205 289.60225 
L 77.681551 291.928819 
L 78.60045 293.25706 
L 79.528411 294.607219 
L 81.197923 297.285619 
L 81.27885 297.425301 
L 82.764283 299.964019 
L 83.95725 302.273676 
L 84.151422 302.642419 
L 85.451381 305.320819 
L 86.582223 307.999219 
z
" clip-path="url(#pfa1d037f41)" style="fill: #92b4fe"/>
   </g>
   <g id="PathCollection_7">
    <path d="M 81.27885 307.999219 
L 83.95725 307.999219 
L 86.582223 307.999219 
L 85.451381 305.320819 
L 84.151422 302.642419 
L 83.95725 302.273676 
L 82.764283 299.964019 
L 81.27885 297.425301 
L 81.197923 297.285619 
L 79.528411 294.607219 
L 78.60045 293.25706 
L 77.681551 291.928819 
L 75.92205 289.60225 
L 75.651333 289.250419 
L 73.442655 286.572019 
L 73.24365 286.344102 
L 71.03036 283.893619 
L 70.56525 283.407034 
L 68.373434 281.215219 
L 67.88685 280.750109 
L 65.436366 278.536819 
L 65.20845 278.337814 
L 62.53005 276.129136 
L 62.178219 275.858419 
L 59.85165 274.098918 
L 58.523409 273.180019 
L 57.17325 272.252058 
L 54.49485 270.582546 
L 54.355168 270.501619 
L 51.81645 269.016186 
L 49.506793 267.823219 
L 49.13805 267.629047 
L 46.45965 266.329088 
L 43.78125 265.198245 
L 43.78125 267.823219 
L 43.78125 270.501619 
L 43.78125 271.501701 
L 46.45965 272.78652 
L 47.203866 273.180019 
L 49.13805 274.181882 
L 51.81645 275.761137 
L 51.970029 275.858419 
L 54.49485 277.454336 
L 56.033929 278.536819 
L 57.17325 279.346055 
L 59.572548 281.215219 
L 59.85165 281.437604 
L 62.53005 283.729939 
L 62.710383 283.893619 
L 65.20845 286.257833 
L 65.522636 286.572019 
L 67.88685 289.070086 
L 68.05053 289.250419 
L 70.342865 291.928819 
L 70.56525 292.207921 
L 72.434413 294.607219 
L 73.24365 295.74654 
L 74.326133 297.285619 
L 75.92205 299.810439 
L 76.019332 299.964019 
L 77.598587 302.642419 
L 78.60045 304.576602 
L 78.993948 305.320819 
L 80.278767 307.999219 
z
" clip-path="url(#pfa1d037f41)" style="fill: #a2c1ff"/>
   </g>
   <g id="PathCollection_8">
    <path d="M 75.92205 307.999219 
L 78.60045 307.999219 
L 80.278767 307.999219 
L 78.993948 305.320819 
L 78.60045 304.576602 
L 77.598587 302.642419 
L 76.019332 299.964019 
L 75.92205 299.810439 
L 74.326133 297.285619 
L 73.24365 295.74654 
L 72.434413 294.607219 
L 70.56525 292.207921 
L 70.342865 291.928819 
L 68.05053 289.250419 
L 67.88685 289.070086 
L 65.522636 286.572019 
L 65.20845 286.257833 
L 62.710383 283.893619 
L 62.53005 283.729939 
L 59.85165 281.437604 
L 59.572548 281.215219 
L 57.17325 279.346055 
L 56.033929 278.536819 
L 54.49485 277.454336 
L 51.970029 275.858419 
L 51.81645 275.761137 
L 49.13805 274.181882 
L 47.203866 273.180019 
L 46.45965 272.78652 
L 43.78125 271.501701 
L 43.78125 273.180019 
L 43.78125 275.858419 
L 43.78125 276.680581 
L 46.45965 278.071274 
L 47.269828 278.536819 
L 49.13805 279.59614 
L 51.646506 281.215219 
L 51.81645 281.324902 
L 54.49485 283.198792 
L 55.398608 283.893619 
L 57.17325 285.288434 
L 58.674959 286.572019 
L 59.85165 287.615535 
L 61.574115 289.250419 
L 62.53005 290.206354 
L 64.164933 291.928819 
L 65.20845 293.105509 
L 66.492034 294.607219 
L 67.88685 296.38186 
L 68.581676 297.285619 
L 70.455567 299.964019 
L 70.56525 300.133963 
L 72.184328 302.642419 
L 73.24365 304.510641 
L 73.709194 305.320819 
L 75.099888 307.999219 
z
" clip-path="url(#pfa1d037f41)" style="fill: #b2ccfb"/>
   </g>
   <g id="PathCollection_9">
    <path d="M 70.56525 307.709537 
L 70.726144 307.999219 
L 73.24365 307.999219 
L 75.099888 307.999219 
L 73.709194 305.320819 
L 73.24365 304.510641 
L 72.184328 302.642419 
L 70.56525 300.133963 
L 70.455567 299.964019 
L 68.581676 297.285619 
L 67.88685 296.38186 
L 66.492034 294.607219 
L 65.20845 293.105509 
L 64.164933 291.928819 
L 62.53005 290.206354 
L 61.574115 289.250419 
L 59.85165 287.615535 
L 58.674959 286.572019 
L 57.17325 285.288434 
L 55.398608 283.893619 
L 54.49485 283.198792 
L 51.81645 281.324902 
L 51.646506 281.215219 
L 49.13805 279.59614 
L 47.269828 278.536819 
L 46.45965 278.071274 
L 43.78125 276.680581 
L 43.78125 278.536819 
L 43.78125 281.054325 
L 44.070932 281.215219 
L 46.45965 282.518325 
L 48.646664 283.893619 
L 49.13805 284.201583 
L 51.81645 286.052715 
L 52.501914 286.572019 
L 54.49485 288.114443 
L 55.835437 289.250419 
L 57.17325 290.427777 
L 58.759239 291.928819 
L 59.85165 293.02123 
L 61.352692 294.607219 
L 62.53005 295.945031 
L 63.666025 297.285619 
L 65.20845 299.278555 
L 65.727753 299.964019 
L 67.578886 302.642419 
L 67.88685 303.133805 
L 69.262143 305.320819 
z
" clip-path="url(#pfa1d037f41)" style="fill: #c1d4f4"/>
   </g>
   <g id="PathCollection_10">
    <path d="M 67.88685 307.999219 
L 70.56525 307.999219 
L 70.726144 307.999219 
L 70.56525 307.709537 
L 69.262143 305.320819 
L 67.88685 303.133805 
L 67.578886 302.642419 
L 65.727753 299.964019 
L 65.20845 299.278555 
L 63.666025 297.285619 
L 62.53005 295.945031 
L 61.352692 294.607219 
L 59.85165 293.02123 
L 58.759239 291.928819 
L 57.17325 290.427777 
L 55.835437 289.250419 
L 54.49485 288.114443 
L 52.501914 286.572019 
L 51.81645 286.052715 
L 49.13805 284.201583 
L 48.646664 283.893619 
L 46.45965 282.518325 
L 44.070932 281.215219 
L 43.78125 281.054325 
L 43.78125 281.215219 
L 43.78125 283.893619 
L 43.78125 284.770092 
L 46.45965 286.389861 
L 46.735721 286.572019 
L 49.13805 288.161706 
L 50.598983 289.250419 
L 51.81645 290.176305 
L 53.904752 291.928819 
L 54.49485 292.443648 
L 56.788178 294.607219 
L 57.17325 294.992291 
L 59.336821 297.285619 
L 59.85165 297.875717 
L 61.604163 299.964019 
L 62.53005 301.181485 
L 63.618763 302.642419 
L 65.20845 305.044747 
L 65.390608 305.320819 
L 67.010377 307.999219 
z
" clip-path="url(#pfa1d037f41)" style="fill: #cfdaea"/>
   </g>
   <g id="PathCollection_11">
    <path d="M 62.53005 306.106056 
L 63.745992 307.999219 
L 65.20845 307.999219 
L 67.010377 307.999219 
L 65.390608 305.320819 
L 65.20845 305.044747 
L 63.618763 302.642419 
L 62.53005 301.181485 
L 61.604163 299.964019 
L 59.85165 297.875717 
L 59.336821 297.285619 
L 57.17325 294.992291 
L 56.788178 294.607219 
L 54.49485 292.443648 
L 53.904752 291.928819 
L 51.81645 290.176305 
L 50.598983 289.250419 
L 49.13805 288.161706 
L 46.735721 286.572019 
L 46.45965 286.389861 
L 43.78125 284.770092 
L 43.78125 286.572019 
L 43.78125 288.034477 
L 45.674412 289.250419 
L 46.45965 289.75437 
L 49.13805 291.689173 
L 49.44316 291.928819 
L 51.81645 293.848378 
L 52.672147 294.607219 
L 54.49485 296.305727 
L 55.474742 297.285619 
L 57.17325 299.108322 
L 57.93209 299.964019 
L 59.85165 302.337308 
L 60.091296 302.642419 
L 62.026099 305.320819 
z
" clip-path="url(#pfa1d037f41)" style="fill: #dddcdc"/>
   </g>
   <g id="PathCollection_12">
    <path d="M 59.85165 306.530338 
L 60.846536 307.999219 
L 62.53005 307.999219 
L 63.745992 307.999219 
L 62.53005 306.106056 
L 62.026099 305.320819 
L 60.091296 302.642419 
L 59.85165 302.337308 
L 57.93209 299.964019 
L 57.17325 299.108322 
L 55.474742 297.285619 
L 54.49485 296.305727 
L 52.672147 294.607219 
L 51.81645 293.848378 
L 49.44316 291.928819 
L 49.13805 291.689173 
L 46.45965 289.75437 
L 45.674412 289.250419 
L 43.78125 288.034477 
L 43.78125 289.250419 
L 43.78125 290.933933 
L 45.25013 291.928819 
L 46.45965 292.753958 
L 48.856293 294.607219 
L 49.13805 294.831469 
L 51.81645 297.175442 
L 51.933654 297.285619 
L 54.49485 299.846815 
L 54.605027 299.964019 
L 56.949 302.642419 
L 57.17325 302.924176 
L 59.026511 305.320819 
z
" clip-path="url(#pfa1d037f41)" style="fill: #e9d5cb"/>
   </g>
   <g id="PathCollection_13">
    <path d="M 57.17325 306.498902 
L 58.247781 307.999219 
L 59.85165 307.999219 
L 60.846536 307.999219 
L 59.85165 306.530338 
L 59.026511 305.320819 
L 57.17325 302.924176 
L 56.949 302.642419 
L 54.605027 299.964019 
L 54.49485 299.846815 
L 51.933654 297.285619 
L 51.81645 297.175442 
L 49.13805 294.831469 
L 48.856293 294.607219 
L 46.45965 292.753958 
L 45.25013 291.928819 
L 43.78125 290.933933 
L 43.78125 291.928819 
L 43.78125 293.532687 
L 45.281567 294.607219 
L 46.45965 295.465143 
L 48.679907 297.285619 
L 49.13805 297.676832 
L 51.581006 299.964019 
L 51.81645 300.199463 
L 54.103636 302.642419 
L 54.49485 303.100562 
L 56.315326 305.320819 
z
" clip-path="url(#pfa1d037f41)" style="fill: #f1ccb8"/>
   </g>
   <g id="PathCollection_14">
    <path d="M 54.49485 306.159414 
L 55.892437 307.999219 
L 57.17325 307.999219 
L 58.247781 307.999219 
L 57.17325 306.498902 
L 56.315326 305.320819 
L 54.49485 303.100562 
L 54.103636 302.642419 
L 51.81645 300.199463 
L 51.581006 299.964019 
L 49.13805 297.676832 
L 48.679907 297.285619 
L 46.45965 295.465143 
L 45.281567 294.607219 
L 43.78125 293.532687 
L 43.78125 294.607219 
L 43.78125 295.888032 
L 45.621055 297.285619 
L 46.45965 297.940665 
L 48.778885 299.964019 
L 49.13805 300.294872 
L 51.485597 302.642419 
L 51.81645 303.001584 
L 53.839804 305.320819 
z
" clip-path="url(#pfa1d037f41)" style="fill: #f6bfa6"/>
   </g>
   <g id="PathCollection_15">
    <path d="M 51.81645 305.631858 
L 53.730378 307.999219 
L 54.49485 307.999219 
L 55.892437 307.999219 
L 54.49485 306.159414 
L 53.839804 305.320819 
L 51.81645 303.001584 
L 51.485597 302.642419 
L 49.13805 300.294872 
L 48.778885 299.964019 
L 46.45965 297.940665 
L 45.621055 297.285619 
L 43.78125 295.888032 
L 43.78125 297.285619 
L 43.78125 298.05009 
L 46.14861 299.964019 
L 46.45965 300.226064 
L 49.052526 302.642419 
L 49.13805 302.727943 
L 51.554404 305.320819 
z
" clip-path="url(#pfa1d037f41)" style="fill: #f7b093"/>
   </g>
   <g id="PathCollection_16">
    <path d="M 51.81645 307.999219 
L 53.730378 307.999219 
L 51.81645 305.631858 
L 51.554404 305.320819 
L 49.13805 302.727943 
L 49.052526 302.642419 
L 46.45965 300.226064 
L 46.14861 299.964019 
L 43.78125 298.05009 
L 43.78125 299.964019 
L 43.78125 300.061475 
L 46.45965 302.333212 
L 46.791445 302.642419 
L 49.13805 304.989024 
L 49.447256 305.320819 
L 51.718993 307.999219 
z
" clip-path="url(#pfa1d037f41)" style="fill: #f59f80"/>
   </g>
   <g id="PathCollection_17">
    <path d="M 49.13805 307.121 
L 49.896631 307.999219 
L 51.718993 307.999219 
L 49.447256 305.320819 
L 49.13805 304.989024 
L 46.791445 302.642419 
L 46.45965 302.333212 
L 43.78125 300.061475 
L 43.78125 301.883838 
L 44.659469 302.642419 
L 46.45965 304.288631 
L 47.491838 305.320819 
z
" clip-path="url(#pfa1d037f41)" style="fill: #f08a6c"/>
   </g>
   <g id="PathCollection_18">
    <path d="M 46.45965 306.147049 
L 48.176578 307.999219 
L 49.13805 307.999219 
L 49.896631 307.999219 
L 49.13805 307.121 
L 47.491838 305.320819 
L 46.45965 304.288631 
L 44.659469 302.642419 
L 43.78125 301.883838 
L 43.78125 302.642419 
L 43.78125 303.603891 
L 45.63342 305.320819 
z
" clip-path="url(#pfa1d037f41)" style="fill: #e7745b"/>
   </g>
   <g id="PathCollection_19">
    <path d="M 46.45965 307.923888 
L 46.52948 307.999219 
L 48.176578 307.999219 
L 46.45965 306.147049 
L 45.63342 305.320819 
L 43.78125 303.603891 
L 43.78125 305.250988 
L 43.856581 305.320819 
z
" clip-path="url(#pfa1d037f41)" style="fill: #dc5d4a"/>
   </g>
   <g id="PathCollection_20">
    <path d="M 46.45965 307.999219 
L 46.52948 307.999219 
L 46.45965 307.923888 
L 43.856581 305.320819 
L 43.78125 305.250988 
L 43.78125 305.320819 
L 43.78125 306.752944 
L 45.027525 307.999219 
z
" clip-path="url(#pfa1d037f41)" style="fill: #cd423b"/>
   </g>
   <g id="PathCollection_21">
    <path d="M 43.78125 306.752944 
L 43.78125 307.999219 
L 45.027525 307.999219 
z
" clip-path="url(#pfa1d037f41)" style="fill: #bd1f2d"/>
   </g>
   <g id="Quiver_1">
    <path d="M 44.297772 308.515741 
L -3548.688462 3901.501975 
L -3547.138896 3902.018498 
L -3553.853684 3905.634153 
L -3550.238029 3898.919364 
L -3549.721507 3900.468931 
L 43.264728 307.482697 
L 44.297772 308.515741 
" clip-path="url(#pfa1d037f41)"/>
    <path d="M 70.906008 308.645341 
L -1272.904399 1017.355657 
L -1271.57676 1018.307145 
L -1279.060261 1019.776354 
L -1273.621307 1014.430409 
L -1273.585914 1016.063412 
L 70.224492 307.353096 
L 70.906008 308.645341 
" clip-path="url(#pfa1d037f41)"/>
    <path d="M 97.599662 308.685429 
L -436.813632 503.703802 
L -435.626598 504.825809 
L -443.239934 505.271301 
L -437.12907 500.708549 
L -437.314456 502.331382 
L 97.098838 307.313009 
L 97.599662 308.685429 
" clip-path="url(#pfa1d037f41)"/>
    <path d="M 124.329291 308.702894 
L -127.902727 378.97376 
L -126.80697 380.185069 
L -134.431841 380.034455 
L -127.983216 375.963019 
L -128.294809 377.56641 
L 123.937209 307.295544 
L 124.329291 308.702894 
" clip-path="url(#pfa1d037f41)"/>
    <path d="M 151.077674 308.711858 
L 16.268517 339.059023 
L 17.302003 340.323878 
L 9.69434 339.790197 
L 16.339461 336.048043 
L 15.947669 337.633745 
L 150.756826 307.28658 
L 151.077674 308.711858 
" clip-path="url(#pfa1d037f41)"/>
    <path d="M 177.836749 308.717014 
L 99.40401 323.522885 
L 100.392805 324.822977 
L 92.808352 324.024584 
L 99.579808 320.516204 
L 99.133012 322.087294 
L 177.565751 307.281423 
L 177.836749 308.717014 
" clip-path="url(#pfa1d037f41)"/>
    <path d="M 204.60241 308.720235 
L 156.305922 316.568066 
L 157.261257 317.892938 
L 149.699618 316.901489 
L 156.558298 313.566842 
L 156.071602 315.126034 
L 204.36809 307.278203 
L 204.60241 308.720235 
" clip-path="url(#pfa1d037f41)"/>
    <path d="M 231.372383 308.722374 
L 200.555255 313.117372 
L 201.484676 314.46055 
L 193.943721 313.322415 
L 200.865878 310.121617 
L 200.348988 311.671061 
L 231.166117 307.276063 
L 231.372383 308.722374 
" clip-path="url(#pfa1d037f41)"/>
    <path d="M 258.145323 308.723866 
L 238.131242 311.266843 
L 239.040035 312.624064 
L 231.517347 311.370855 
L 238.487595 308.276183 
L 237.947095 309.81755 
L 257.961177 307.274572 
L 258.145323 308.723866 
" clip-path="url(#pfa1d037f41)"/>
    <path d="M 284.920387 308.724945 
L 271.929685 310.213113 
L 272.821684 311.581429 
L 265.315011 310.235616 
L 272.322865 307.227071 
L 271.763412 308.76166 
L 284.754113 307.273492 
L 284.920387 308.724945 
" clip-path="url(#pfa1d037f41)"/>
    <path d="M 311.696034 308.725853 
L 303.267505 309.593303 
L 304.143708 310.971788 
L 296.653011 309.539725 
L 303.695004 306.611981 
L 303.117937 308.140034 
L 311.546466 307.272584 
L 311.696034 308.725853 
" clip-path="url(#pfa1d037f41)"/>
    <path d="M 44.427373 281.555977 
L -664.282943 1625.366383 
L -662.64994 1625.401776 
L -667.995886 1630.840729 
L -666.526676 1623.357229 
L -665.575188 1624.684867 
L 43.135127 280.874461 
L 44.427373 281.555977 
" clip-path="url(#pfa1d037f41)"/>
    <path d="M 71.081772 281.731741 
L -473.401363 826.214876 
L -471.851797 826.731399 
L -478.566585 830.347054 
L -474.95093 823.632265 
L -474.434408 825.181832 
L 70.048728 280.698697 
L 71.081772 281.731741 
" clip-path="url(#pfa1d037f41)"/>
    <path d="M 97.759118 281.819866 
L -218.736774 496.360542 
L -217.312391 497.159969 
L -224.58847 499.444706 
L -219.771598 493.532084 
L -219.55651 495.151247 
L 96.939382 280.610571 
L 97.759118 281.819866 
" clip-path="url(#pfa1d037f41)"/>
    <path d="M 124.466645 281.865171 
L -56.040224 374.456795 
L -54.723482 375.423304 
L -62.22319 376.8074 
L -56.723853 371.52359 
L -56.707015 373.15689 
L 123.799855 280.565266 
L 124.466645 281.865171 
" clip-path="url(#pfa1d037f41)"/>
    <path d="M 151.195895 281.890458 
L 44.266128 326.016187 
L 45.498656 327.08802 
L 37.910333 327.84875 
L 43.826788 323.036587 
L 43.708838 324.66571 
L 150.638605 280.53998 
L 151.195895 281.890458 
" clip-path="url(#pfa1d037f41)"/>
    <path d="M 177.939604 281.90571 
L 111.852037 304.718779 
L 113.019235 305.861407 
L 105.399264 306.173472 
L 111.589113 301.718461 
L 111.375329 303.337797 
L 177.462896 280.524728 
L 177.939604 281.90571 
" clip-path="url(#pfa1d037f41)"/>
    <path d="M 204.693025 281.915519 
L 162.441731 294.451233 
L 163.55758 295.644058 
L 155.931256 295.620907 
L 162.310931 291.442258 
L 162.026181 293.050633 
L 204.277475 280.514919 
L 204.693025 281.915519 
" clip-path="url(#pfa1d037f41)"/>
    <path d="M 231.453157 281.922162 
L 203.837141 289.10632 
L 204.911899 290.336298 
L 197.290746 290.054543 
L 203.808454 286.09464 
L 203.469326 287.692433 
L 231.085343 280.508276 
L 231.453157 281.922162 
" clip-path="url(#pfa1d037f41)"/>
    <path d="M 258.218073 281.926853 
L 240.006568 286.14486 
L 241.047849 287.403305 
L 233.437034 286.916634 
L 240.05891 283.133498 
L 239.676922 284.721591 
L 257.888427 280.503584 
L 258.218073 281.926853 
" clip-path="url(#pfa1d037f41)"/>
    <path d="M 284.986498 281.930282 
L 273.061528 284.419256 
L 274.075086 285.700135 
L 266.47671 285.047421 
L 273.1796 281.409755 
L 272.763032 282.989129 
L 284.688002 280.500155 
L 284.986498 281.930282 
" clip-path="url(#pfa1d037f41)"/>
    <path d="M 311.755889 281.933176 
L 304.000354 283.387577 
L 304.98759 284.688853 
L 297.404099 283.881372 
L 304.179755 280.381109 
L 303.731076 281.951663 
L 311.486611 280.497261 
L 311.755889 281.933176 
" clip-path="url(#pfa1d037f41)"/>
    <path d="M 44.46746 254.681631 
L -150.550913 789.094925 
L -148.928081 788.909539 
L -153.490832 795.020403 
L -153.045341 787.407066 
L -151.923333 788.594101 
L 43.09504 254.180807 
L 44.46746 254.681631 
" clip-path="url(#pfa1d037f41)"/>
    <path d="M 71.169898 254.841087 
L -143.370778 571.336979 
L -141.751615 571.552067 
L -147.664237 576.368939 
L -145.379501 569.092859 
L -144.580073 570.517243 
L 69.960602 254.021351 
L 71.169898 254.841087 
" clip-path="url(#pfa1d037f41)"/>
    <path d="M 97.865772 254.947741 
L -69.064381 421.877895 
L -67.514815 422.394417 
L -74.229604 426.010072 
L -70.613948 419.295284 
L -70.097426 420.84485 
L 96.832728 253.914697 
L 97.865772 254.947741 
" clip-path="url(#pfa1d037f41)"/>
    <path d="M 124.573934 255.013789 
L 9.535143 342.034582 
L 10.999081 342.759038 
L 3.851326 345.418166 
L 8.354978 339.263616 
L 8.653775 340.869441 
L 123.692566 253.848648 
L 124.573934 255.013789 
" clip-path="url(#pfa1d037f41)"/>
    <path d="M 151.296915 255.055274 
L 74.486087 301.785705 
L 75.869472 302.654151 
L 68.489924 304.578633 
L 73.591482 298.909819 
L 73.726757 300.537594 
L 150.537585 253.807163 
L 151.296915 255.055274 
" clip-path="url(#pfa1d037f41)"/>
    <path d="M 178.032521 255.082256 
L 126.764074 281.169498 
L 128.077655 282.140301 
L 120.573467 283.499903 
L 126.090026 278.234077 
L 126.101532 279.867423 
L 177.369979 253.780181 
L 178.032521 255.082256 
" clip-path="url(#pfa1d037f41)"/>
    <path d="M 204.777927 255.100495 
L 170.303175 270.176404 
L 171.557804 271.22228 
L 163.987011 272.141216 
L 169.801745 267.206622 
L 169.717822 268.837851 
L 204.192573 253.761942 
L 204.777927 255.100495 
" clip-path="url(#pfa1d037f41)"/>
    <path d="M 231.530758 255.113277 
L 208.23201 264.046263 
L 209.437085 265.148871 
L 201.831975 265.71778 
L 207.868035 261.05652 
L 207.708993 262.682146 
L 231.007742 253.74916 
L 231.530758 255.113277 
" clip-path="url(#pfa1d037f41)"/>
    <path d="M 258.289226 255.122526 
L 242.59115 260.481015 
L 243.754408 261.627654 
L 236.133408 261.913488 
L 242.338555 257.47981 
L 242.119199 259.0984 
L 257.817274 253.739911 
L 258.289226 255.122526 
" clip-path="url(#pfa1d037f41)"/>
    <path d="M 285.052014 255.129407 
L 274.649106 258.329356 
L 275.776822 259.510969 
L 268.150647 259.564041 
L 274.48824 255.321839 
L 274.219579 256.932979 
L 284.622486 253.73303 
L 285.052014 255.129407 
" clip-path="url(#pfa1d037f41)"/>
    <path d="M 311.815958 255.135264 
L 305.037719 257.00983 
L 306.13118 258.223212 
L 298.506608 258.05816 
L 304.962931 253.998943 
L 304.648303 255.601741 
L 311.426542 253.727174 
L 311.815958 255.135264 
" clip-path="url(#pfa1d037f41)"/>
    <path d="M 44.484925 227.84326 
L -25.785941 480.075278 
L -24.182551 479.763685 
L -28.253986 486.21231 
L -28.4046 478.587438 
L -27.193291 479.683195 
L 43.077575 227.451178 
L 44.484925 227.84326 
" clip-path="url(#pfa1d037f41)"/>
    <path d="M 71.215202 227.980614 
L -21.376421 408.487484 
L -19.743121 408.504322 
L -25.026931 414.003659 
L -23.642835 406.50395 
L -22.676326 407.820693 
L 69.915298 227.313823 
L 71.215202 227.980614 
" clip-path="url(#pfa1d037f41)"/>
    <path d="M 97.93182 228.087903 
L 10.911028 343.126693 
L 12.516852 343.425491 
L 6.362303 347.929143 
L 9.02143 340.781388 
L 9.745887 342.245326 
L 96.76668 227.206535 
L 97.93182 228.087903 
" clip-path="url(#pfa1d037f41)"/>
    <path d="M 124.649772 228.163741 
L 54.939606 297.873908 
L 56.489172 298.39043 
L 49.774383 302.006085 
L 53.390039 295.291297 
L 53.906561 296.840863 
L 123.616728 227.130697 
L 124.649772 228.163741 
" clip-path="url(#pfa1d037f41)"/>
    <path d="M 151.375025 228.216457 
L 99.430064 269.989948 
L 100.914852 270.670651 
L 93.849141 273.540682 
L 98.168204 267.255218 
L 98.514515 268.851471 
L 150.459475 227.07798 
L 151.375025 228.216457 
" clip-path="url(#pfa1d037f41)"/>
    <path d="M 178.108905 228.253361 
L 140.640113 253.452635 
L 142.061564 254.257264 
L 134.777181 256.515387 
L 139.615635 250.620413 
L 139.824803 252.240351 
L 177.293595 227.041077 
L 178.108905 228.253361 
" clip-path="url(#pfa1d037f41)"/>
    <path d="M 204.850773 228.279661 
L 178.253217 243.651825 
L 179.616705 244.551187 
L 172.195711 246.309087 
L 177.423569 240.756532 
L 177.522172 242.38694 
L 204.119727 227.014776 
L 204.850773 228.279661 
" clip-path="url(#pfa1d037f41)"/>
    <path d="M 231.599418 228.298817 
L 212.94537 237.750904 
L 214.257303 238.723933 
L 206.750821 240.070814 
L 212.276298 234.814345 
L 212.285035 236.447709 
L 230.939082 226.995621 
L 231.599418 228.298817 
" clip-path="url(#pfa1d037f41)"/>
    <path d="M 258.353619 228.313078 
L 245.481639 234.119629 
L 246.748236 235.150978 
L 239.188535 236.157092 
L 244.946021 231.155822 
L 244.8809 232.78791 
L 257.752881 226.981359 
L 258.353619 228.313078 
" clip-path="url(#pfa1d037f41)"/>
    <path d="M 285.112326 228.323919 
L 276.478253 231.833632 
L 277.705106 232.911957 
L 270.112872 233.632614 
L 276.054651 228.851754 
L 275.928102 230.480231 
L 284.562174 226.970518 
L 285.112326 228.323919 
" clip-path="url(#pfa1d037f41)"/>
    <path d="M 311.872179 228.33324 
L 306.2569 230.387168 
L 307.444779 231.508281 
L 299.831781 231.959511 
L 305.939204 227.392155 
L 305.755041 229.015126 
L 311.370321 226.961198 
L 311.872179 228.33324 
" clip-path="url(#pfa1d037f41)"/>
    <path d="M 44.493889 201.023642 
L 14.146724 335.832799 
L 15.732426 335.441008 
L 11.990272 342.086129 
L 11.456591 334.478466 
L 12.721446 335.511952 
L 43.068611 200.702795 
L 44.493889 201.023642 
" clip-path="url(#pfa1d037f41)"/>
    <path d="M 71.240489 201.141863 
L 27.114759 308.07163 
L 28.743882 307.953681 
L 23.931718 313.870136 
L 24.692448 306.281813 
L 25.764281 307.514341 
L 69.890011 200.584574 
L 71.240489 201.141863 
" clip-path="url(#pfa1d037f41)"/>
    <path d="M 97.973305 201.242884 
L 51.242874 278.053712 
L 52.87065 278.188986 
L 47.201835 283.290545 
L 49.126318 275.910997 
L 49.994764 277.294382 
L 96.725195 200.483554 
L 97.973305 201.242884 
" clip-path="url(#pfa1d037f41)"/>
    <path d="M 124.702489 201.320993 
L 82.928998 253.265954 
L 84.52525 253.612264 
L 78.239787 257.931328 
L 81.109818 250.865616 
L 81.790521 252.350404 
L 123.564011 200.405444 
L 124.702489 201.320993 
" clip-path="url(#pfa1d037f41)"/>
    <path d="M 151.433772 201.379741 
L 117.386616 235.426897 
L 118.936183 235.943419 
L 112.221394 239.559075 
L 115.837049 232.844286 
L 116.353572 234.393853 
L 150.400728 200.346697 
L 151.433772 201.379741 
" clip-path="url(#pfa1d037f41)"/>
    <path d="M 178.169858 201.423573 
L 151.859288 223.426325 
L 153.356858 224.078426 
L 146.34749 227.083442 
L 150.545211 220.7163 
L 150.922072 222.305617 
L 177.232642 200.302864 
L 178.169858 201.423573 
" clip-path="url(#pfa1d037f41)"/>
    <path d="M 204.911533 201.456407 
L 185.261101 215.577808 
L 186.706857 216.337901 
L 179.49612 218.82117 
L 184.149156 212.778769 
L 184.408535 214.39143 
L 204.058967 200.27003 
L 204.911533 201.456407 
" clip-path="url(#pfa1d037f41)"/>
    <path d="M 231.658628 201.48126 
L 217.376866 210.479037 
L 218.773663 211.325742 
L 211.425114 213.365395 
L 216.437396 207.617493 
L 216.59811 209.242954 
L 230.879872 200.245177 
L 231.658628 201.48126 
" clip-path="url(#pfa1d037f41)"/>
    <path d="M 258.410583 201.500325 
L 248.33392 207.152007 
L 249.685691 208.068886 
L 242.242635 209.730894 
L 247.541695 204.246251 
L 247.619255 205.877795 
L 257.695917 200.226113 
L 258.410583 201.500325 
" clip-path="url(#pfa1d037f41)"/>
    <path d="M 285.166741 201.515159 
L 278.349993 204.960351 
L 279.660916 205.93474 
L 272.153041 207.273832 
L 277.683968 202.023099 
L 277.691011 203.656471 
L 284.507759 200.211279 
L 285.166741 201.515159 
" clip-path="url(#pfa1d037f41)"/>
    <path d="M 311.923886 201.528051 
L 307.537069 203.524956 
L 308.807172 204.551985 
L 301.250941 205.583844 
L 306.991359 200.562991 
L 306.931797 202.195291 
L 311.318614 200.198386 
L 311.923886 201.528051 
" clip-path="url(#pfa1d037f41)"/>
    <path d="M 44.499045 174.214718 
L 29.693174 252.647457 
L 31.264265 252.20066 
L 27.755885 258.972117 
L 26.957492 251.387664 
L 28.257584 252.376458 
L 43.063455 173.943719 
L 44.499045 174.214718 
" clip-path="url(#pfa1d037f41)"/>
    <path d="M 71.255741 174.317573 
L 48.442672 240.405139 
L 50.062008 240.191356 
L 45.606997 246.381205 
L 45.919061 238.761233 
L 47.06169 239.928432 
L 69.874759 173.840865 
L 71.255741 174.317573 
" clip-path="url(#pfa1d037f41)"/>
    <path d="M 98.000287 174.41049 
L 71.913046 225.678937 
L 73.546392 225.690442 
L 68.280566 231.207002 
L 69.640168 223.702814 
L 70.610971 225.016394 
L 96.698213 173.747947 
L 98.000287 174.41049 
" clip-path="url(#pfa1d037f41)"/>
    <path d="M 124.739392 174.486874 
L 99.540117 211.955666 
L 101.160056 212.164834 
L 95.265082 217.003287 
L 97.523205 209.718905 
L 98.327834 211.140356 
L 123.527108 173.671564 
L 124.739392 174.486874 
" clip-path="url(#pfa1d037f41)"/>
    <path d="M 151.477604 174.547827 
L 129.474852 200.858397 
L 131.064169 201.235258 
L 124.697027 205.432979 
L 127.702042 198.423611 
L 128.354143 199.921181 
L 150.356896 173.610611 
L 151.477604 174.547827 
" clip-path="url(#pfa1d037f41)"/>
    <path d="M 178.217772 174.595741 
L 160.227855 192.585658 
L 161.777422 193.10218 
L 155.062633 196.717836 
L 158.678288 190.003047 
L 159.194811 191.552614 
L 177.184728 173.562697 
L 178.217772 174.595741 
" clip-path="url(#pfa1d037f41)"/>
    <path d="M 204.961329 174.63324 
L 190.931882 186.68897 
L 192.438061 187.320933 
L 185.469616 190.419661 
L 189.581587 183.996808 
L 189.979724 185.580929 
L 204.009171 173.525198 
L 204.961329 174.63324 
" clip-path="url(#pfa1d037f41)"/>
    <path d="M 231.708781 174.662659 
L 221.199785 182.57955 
L 222.662288 183.306899 
L 215.50929 185.951891 
L 220.0251 179.806257 
L 220.320722 181.412669 
L 230.829719 173.495778 
L 231.708781 174.662659 
" clip-path="url(#pfa1d037f41)"/>
    <path d="M 258.460114 174.685892 
L 250.9209 179.742044 
L 252.3413 180.548527 
L 245.053977 182.797144 
L 249.900118 176.908488 
L 250.107173 178.528698 
L 257.646386 173.472546 
L 258.460114 174.685892 
" clip-path="url(#pfa1d037f41)"/>
    <path d="M 285.215057 174.704401 
L 280.115384 177.78621 
L 281.49618 178.658767 
L 274.110941 180.561289 
L 279.229339 174.907675 
L 279.359771 176.535846 
L 284.459443 173.454037 
L 285.215057 174.704401 
" clip-path="url(#pfa1d037f41)"/>
    <path d="M 311.970739 174.720661 
L 308.779755 176.459266 
L 310.120175 177.392661 
L 302.657288 178.963226 
L 308.02324 173.544009 
L 308.080777 175.176382 
L 311.271761 173.437777 
L 311.970739 174.720661 
" clip-path="url(#pfa1d037f41)"/>
    <path d="M 44.502266 147.412379 
L 36.654435 195.708867 
L 38.213626 195.222171 
L 34.87898 202.08085 
L 33.887531 194.519211 
L 35.212403 195.474547 
L 43.060234 147.178059 
L 44.502266 147.412379 
" clip-path="url(#pfa1d037f41)"/>
    <path d="M 71.26555 147.502994 
L 58.729836 189.754288 
L 60.338211 189.469538 
L 56.159562 195.849212 
L 56.136411 188.222888 
L 57.329236 189.338738 
L 69.86495 147.087444 
L 71.26555 147.502994 
" clip-path="url(#pfa1d037f41)"/>
    <path d="M 98.018526 147.587895 
L 82.942617 182.062647 
L 84.573847 181.978724 
L 79.639252 187.793458 
L 80.558188 180.222665 
L 81.604065 181.477294 
L 96.679974 147.002542 
L 98.018526 147.587895 
" clip-path="url(#pfa1d037f41)"/>
    <path d="M 124.765693 147.660741 
L 109.393529 174.258297 
L 111.023937 174.3569 
L 105.471382 179.584757 
L 107.229281 172.163764 
L 108.128644 173.527252 
L 123.500807 146.929696 
L 124.765693 147.660741 
" clip-path="url(#pfa1d037f41)"/>
    <path d="M 151.510439 147.721502 
L 137.389038 167.371934 
L 139.001699 167.631313 
L 132.959298 172.284349 
L 135.442567 165.073612 
L 136.202661 166.519367 
L 150.324061 146.868935 
L 151.510439 147.721502 
" clip-path="url(#pfa1d037f41)"/>
    <path d="M 178.255271 147.771298 
L 166.19954 161.800745 
L 167.783661 162.198882 
L 161.360807 166.310853 
L 164.459536 159.342407 
L 165.091498 160.848586 
L 177.147229 146.81914 
L 178.255271 147.771298 
" clip-path="url(#pfa1d037f41)"/>
    <path d="M 205.001772 147.811741 
L 195.282415 157.531098 
L 196.831982 158.04762 
L 190.117193 161.663276 
L 193.732848 154.948487 
L 194.249371 156.498054 
L 203.968728 146.778697 
L 205.001772 147.811741 
" clip-path="url(#pfa1d037f41)"/>
    <path d="M 231.75079 147.8445 
L 224.312974 154.365032 
L 225.825335 154.982054 
L 218.887904 158.149609 
L 222.936095 151.686367 
L 223.349894 153.266469 
L 230.78771 146.745938 
L 231.75079 147.8445 
" clip-path="url(#pfa1d037f41)"/>
    <path d="M 258.502668 147.871078 
L 253.132469 152.062148 
L 254.607164 152.764448 
L 247.500319 155.531053 
L 251.910655 149.309294 
L 252.233632 150.91043 
L 257.603832 146.71936 
L 258.502668 147.871078 
" clip-path="url(#pfa1d037f41)"/>
    <path d="M 285.257445 147.892736 
L 281.685002 150.405001 
L 283.122908 151.179841 
L 275.887152 153.589236 
L 280.60174 147.594737 
L 280.844612 149.209967 
L 284.417055 146.697702 
L 285.257445 147.892736 
" clip-path="url(#pfa1d037f41)"/>
    <path d="M 312.012688 147.911958 
L 309.917877 149.241513 
L 311.317492 150.083553 
L 303.97579 152.147715 
L 308.968864 146.38312 
L 309.135001 148.008035 
L 311.229812 146.67848 
L 312.012688 147.911958 
" clip-path="url(#pfa1d037f41)"/>
    <path d="M 44.504406 120.614352 
L 40.109408 151.43148 
L 41.658852 150.914591 
L 38.458054 157.836747 
L 37.319919 150.295792 
L 38.663097 151.225214 
L 43.058094 120.408086 
L 44.504406 120.614352 
" clip-path="url(#pfa1d037f41)"/>
    <path d="M 71.272193 120.695126 
L 64.088035 148.311143 
L 65.685829 147.972015 
L 61.725926 154.489723 
L 61.444171 146.86857 
L 62.674149 147.943328 
L 69.858307 120.327311 
L 71.272193 120.695126 
" clip-path="url(#pfa1d037f41)"/>
    <path d="M 98.031308 120.772727 
L 89.098323 144.071476 
L 90.723948 143.912434 
L 86.062689 149.948494 
L 86.631598 142.343384 
L 87.734206 143.548459 
L 96.667192 120.24971 
L 98.031308 120.772727 
" clip-path="url(#pfa1d037f41)"/>
    <path d="M 124.784848 120.841386 
L 115.33276 139.495434 
L 116.966123 139.504171 
L 111.709655 145.029648 
L 113.056536 137.523166 
L 114.029564 138.835099 
L 123.481652 120.181051 
L 124.784848 120.841386 
" clip-path="url(#pfa1d037f41)"/>
    <path d="M 151.535292 120.900596 
L 142.537515 135.182358 
L 144.162976 135.343072 
L 138.415074 140.355355 
L 140.454727 133.006806 
L 141.301432 134.403603 
L 150.299208 120.121841 
L 151.535292 120.900596 
" clip-path="url(#pfa1d037f41)"/>
    <path d="M 178.28469 120.95075 
L 170.3678 131.459747 
L 171.974212 131.755369 
L 165.828578 136.271179 
L 168.47357 129.118181 
L 169.200919 130.580684 
L 177.11781 120.071687 
L 178.28469 120.95075 
" clip-path="url(#pfa1d037f41)"/>
    <path d="M 205.034531 120.992759 
L 198.513999 128.430575 
L 200.094101 128.844373 
L 193.630859 132.892565 
L 196.798415 125.955134 
L 197.415437 127.467495 
L 203.935969 120.029679 
L 205.034531 120.992759 
" clip-path="url(#pfa1d037f41)"/>
    <path d="M 231.785772 121.027741 
L 226.752376 126.061137 
L 228.301943 126.577659 
L 221.587154 130.193315 
L 225.202809 123.478526 
L 225.719332 125.028093 
L 230.752728 119.994697 
L 231.785772 121.027741 
" clip-path="url(#pfa1d037f41)"/>
    <path d="M 258.538954 121.056821 
L 254.945277 124.25597 
L 256.462288 124.861471 
L 249.549152 128.081705 
L 253.548064 121.587857 
L 253.973869 123.164766 
L 257.567546 119.965616 
L 258.538954 121.056821 
" clip-path="url(#pfa1d037f41)"/>
    <path d="M 285.294322 121.081022 
L 283.020805 122.904738 
L 284.504751 123.587274 
L 277.435502 126.448578 
L 281.762322 120.168453 
L 282.106662 121.765131 
L 284.380178 119.941415 
L 285.294322 121.081022 
" clip-path="url(#pfa1d037f41)"/>
    <path d="M 312.049899 121.1027 
L 310.914932 121.925216 
L 312.363712 122.67953 
L 305.16295 125.191578 
L 309.791816 119.130641 
L 310.057633 120.742253 
L 311.192601 119.919737 
L 312.049899 121.1027 
" clip-path="url(#pfa1d037f41)"/>
    <path d="M 44.505897 93.819292 
L 41.962919 113.833374 
L 43.504286 113.292873 
L 40.409613 120.263121 
L 39.156405 112.740434 
L 40.513625 113.649227 
L 43.056603 93.635146 
L 44.505897 93.819292 
" clip-path="url(#pfa1d037f41)"/>
    <path d="M 71.276885 93.892042 
L 67.058878 112.103547 
L 68.646971 111.721559 
L 64.863835 118.343435 
L 64.377163 110.73262 
L 65.635609 111.773901 
L 69.853615 93.562396 
L 71.276885 93.892042 
" clip-path="url(#pfa1d037f41)"/>
    <path d="M 98.040557 93.963194 
L 92.682069 109.66127 
L 94.300659 109.441914 
L 89.866981 115.647061 
L 90.152815 108.02606 
L 91.299454 109.189319 
L 96.657943 93.491243 
L 98.040557 93.963194 
" clip-path="url(#pfa1d037f41)"/>
    <path d="M 124.799109 94.027588 
L 118.992559 106.899569 
L 120.624647 106.834448 
L 115.623377 112.591934 
L 116.62949 105.032232 
L 117.66084 106.29883 
L 123.467391 93.42685 
L 124.799109 94.027588 
" clip-path="url(#pfa1d037f41)"/>
    <path d="M 151.554356 94.084551 
L 145.902674 104.161214 
L 147.534218 104.238773 
L 142.049575 109.537834 
L 143.711583 102.094778 
L 144.628462 103.446549 
L 150.280144 93.369886 
L 151.554356 94.084551 
" clip-path="url(#pfa1d037f41)"/>
    <path d="M 178.307923 94.134082 
L 173.251771 101.673296 
L 174.871981 101.88035 
L 168.983325 106.726491 
L 171.231942 99.439168 
L 172.038425 100.859569 
L 177.094577 93.320355 
L 178.307923 94.134082 
" clip-path="url(#pfa1d037f41)"/>
    <path d="M 205.061109 94.176637 
L 200.870039 99.546836 
L 202.471175 99.869814 
L 196.249415 104.280149 
L 199.016021 97.173304 
L 199.718321 98.648 
L 203.909391 93.2778 
L 205.061109 94.176637 
" clip-path="url(#pfa1d037f41)"/>
    <path d="M 231.814852 94.212923 
L 228.615703 97.806599 
L 230.192612 98.232405 
L 223.698764 102.231317 
L 226.918998 95.318181 
L 227.524498 96.835191 
L 230.723648 93.241515 
L 231.814852 94.212923 
" clip-path="url(#pfa1d037f41)"/>
    <path d="M 258.569772 94.243741 
L 256.387281 96.426232 
L 257.936848 96.942754 
L 251.222059 100.55841 
L 254.837715 93.843621 
L 255.354237 95.393187 
L 257.536728 93.210697 
L 258.569772 94.243741 
" clip-path="url(#pfa1d037f41)"/>
    <path d="M 285.326234 94.269884 
L 284.12085 95.356029 
L 285.641483 95.952375 
L 278.747882 99.214219 
L 282.70758 92.696386 
L 283.142883 94.270699 
L 284.348266 93.184554 
L 285.326234 94.269884 
" clip-path="url(#pfa1d037f41)"/>
    <path d="M 312.062946 94.269266 
L 311.520898 94.710962 
L 312.946337 95.353361 
L 306.200776 98.144177 
L 310.296163 92.101076 
L 310.637507 93.626867 
L 311.179554 93.185171 
L 312.062946 94.269266 
" clip-path="url(#pfa1d037f41)"/>
    <path d="M 44.506976 67.026355 
L 43.018808 80.017057 
L 44.553398 79.457604 
L 41.544853 86.465458 
L 40.19904 78.958784 
L 41.567356 79.850784 
L 43.055524 66.860082 
L 44.506976 67.026355 
" clip-path="url(#pfa1d037f41)"/>
    <path d="M 71.280313 67.092466 
L 68.79134 79.017436 
L 70.370714 78.600868 
L 66.733048 85.303758 
L 66.080334 77.705382 
L 67.361213 78.718941 
L 69.850187 66.793971 
L 71.280313 67.092466 
" clip-path="url(#pfa1d037f41)"/>
    <path d="M 98.047438 67.157982 
L 94.84749 77.56089 
L 96.45863 77.292229 
L 92.216428 83.629822 
L 92.2695 76.003647 
L 93.451113 77.131363 
L 96.651062 66.728455 
L 98.047438 67.157982 
" clip-path="url(#pfa1d037f41)"/>
    <path d="M 124.809951 67.218295 
L 121.300238 75.852367 
L 122.928715 75.725818 
L 118.147855 81.667596 
L 118.868511 74.075363 
L 119.946837 75.302215 
L 123.456549 66.668143 
L 124.809951 67.218295 
" clip-path="url(#pfa1d037f41)"/>
    <path d="M 151.56919 67.27271 
L 148.123998 74.089458 
L 149.75737 74.0965 
L 144.506637 79.627428 
L 145.845729 72.119553 
L 146.820118 73.430476 
L 150.26531 66.613727 
L 151.56919 67.27271 
" clip-path="url(#pfa1d037f41)"/>
    <path d="M 178.326432 67.321026 
L 175.244623 72.420698 
L 176.872793 72.55113 
L 171.219179 77.669528 
L 173.121702 70.284289 
L 173.994259 71.665084 
L 177.076068 66.565412 
L 178.326432 67.321026 
" clip-path="url(#pfa1d037f41)"/>
    <path d="M 205.082767 67.363413 
L 202.570502 70.935857 
L 204.185731 71.178729 
L 198.191233 75.893317 
L 200.600628 68.657561 
L 201.375468 70.095467 
L 203.887733 66.523024 
L 205.082767 67.363413 
" clip-path="url(#pfa1d037f41)"/>
    <path d="M 231.839054 67.40029 
L 230.015337 69.673807 
L 231.612016 70.018147 
L 225.33189 74.344967 
L 228.193195 67.275718 
L 228.87573 68.759664 
L 230.699446 66.486147 
L 231.839054 67.40029 
" clip-path="url(#pfa1d037f41)"/>
    <path d="M 258.595915 67.432203 
L 257.509769 68.637586 
L 259.084083 69.072889 
L 252.56625 73.032587 
L 255.828094 66.138986 
L 256.42444 67.659619 
L 257.510585 66.454235 
L 258.595915 67.432203 
" clip-path="url(#pfa1d037f41)"/>
    <path d="M 285.33707 67.443039 
L 284.83725 67.942859 
L 286.336711 68.442679 
L 279.839048 71.941421 
L 283.337789 65.443758 
L 283.83761 66.943219 
L 284.33743 66.443399 
L 285.33707 67.443039 
" clip-path="url(#pfa1d037f41)"/>
    <path d="M 312.031488 67.396447 
L 311.578259 67.806685 
L 312.851964 68.302904 
L 307.088964 71.045598 
L 310.390536 65.583533 
L 310.757783 66.900228 
L 311.211012 66.48999 
L 312.031488 67.396447 
" clip-path="url(#pfa1d037f41)"/>
    <path d="M 44.507885 40.234003 
L 43.640434 48.662531 
L 45.168488 48.085465 
L 42.240744 55.127458 
L 40.80868 47.636761 
L 42.187165 48.512963 
L 43.054615 40.084435 
L 44.507885 40.234003 
" clip-path="url(#pfa1d037f41)"/>
    <path d="M 71.283207 40.293858 
L 69.828806 48.049393 
L 71.39936 47.600713 
L 67.899097 54.376369 
L 67.091616 46.792879 
L 68.392891 47.780114 
L 69.847293 40.02458 
L 71.283207 40.293858 
" clip-path="url(#pfa1d037f41)"/>
    <path d="M 98.053295 40.353927 
L 96.178728 47.132166 
L 97.781526 46.817538 
L 93.722309 53.273861 
L 93.557257 45.649288 
L 94.770638 46.74275 
L 96.645205 39.964511 
L 98.053295 40.353927 
" clip-path="url(#pfa1d037f41)"/>
    <path d="M 124.819271 40.410148 
L 122.765343 46.025428 
L 124.388314 45.841265 
L 119.820958 51.948688 
L 120.272188 44.335689 
L 121.3933 45.523569 
L 123.447229 39.908289 
L 124.819271 40.410148 
" clip-path="url(#pfa1d037f41)"/>
    <path d="M 151.582082 40.461854 
L 149.585178 44.848671 
L 151.217478 44.78911 
L 146.196625 50.529527 
L 147.228484 42.973297 
L 148.255513 44.2434 
L 150.252418 39.856583 
L 151.582082 40.461854 
" clip-path="url(#pfa1d037f41)"/>
    <path d="M 178.342692 40.508708 
L 176.604087 43.699692 
L 178.23646 43.757228 
L 172.817243 49.123181 
L 174.387808 41.660294 
L 175.321203 43.000714 
L 177.059808 39.80973 
L 178.342692 40.508708 
" clip-path="url(#pfa1d037f41)"/>
    <path d="M 205.101989 40.550657 
L 203.772433 42.645468 
L 205.397349 42.811605 
L 199.632753 47.804679 
L 201.696916 40.462977 
L 202.538956 41.862592 
L 203.868511 39.767781 
L 205.101989 40.550657 
" clip-path="url(#pfa1d037f41)"/>
    <path d="M 231.860731 40.587868 
L 231.038215 41.722836 
L 232.649827 41.988653 
L 226.588891 46.617519 
L 229.100939 39.416757 
L 229.855253 40.865537 
L 230.677769 39.73057 
L 231.860731 40.587868 
" clip-path="url(#pfa1d037f41)"/>
    <path d="M 258.595297 40.600915 
L 258.153602 41.142962 
L 259.679392 41.484306 
L 253.636292 45.579693 
L 256.427108 38.834131 
L 257.069507 40.25957 
L 257.511203 39.717523 
L 258.595297 40.600915 
" clip-path="url(#pfa1d037f41)"/>
    <path d="M 285.290479 40.569457 
L 284.880241 41.022685 
L 286.196936 41.389933 
L 280.73487 44.691504 
L 283.477564 38.928505 
L 283.973783 40.202209 
L 284.384021 39.748981 
L 285.290479 40.569457 
" clip-path="url(#pfa1d037f41)"/>
    <path d="M 311.999595 40.537564 
L 311.62125 40.915908 
L 312.756285 41.294253 
L 307.837801 43.942667 
L 310.486215 39.024184 
L 310.86456 40.159219 
L 311.242905 39.780874 
L 311.999595 40.537564 
" clip-path="url(#pfa1d037f41)"/>
   </g>
   <g id="matplotlib.axis_1">
    <g id="xtick_1">
     <g id="line2d_1">
      <defs>
       <path id="m3a1fe49472" d="M 0 0 
L 0 3.5 
" style="stroke: #000000; stroke-width: 0.8"/>
      </defs>
      <g>
       <use xlink:href="#m3a1fe49472" x="51.22125" y="307.999219" style="stroke: #000000; stroke-width: 0.8"/>
      </g>
     </g>
     <g id="text_1">
      <!-- 0.25 -->
      <g transform="translate(40.088438 322.597656)scale(0.1 -0.1)">
       <defs>
        <path id="DejaVuSans-30" d="M 2034 4250 
Q 1547 4250 1301 3770 
Q 1056 3291 1056 2328 
Q 1056 1369 1301 889 
Q 1547 409 2034 409 
Q 2525 409 2770 889 
Q 3016 1369 3016 2328 
Q 3016 3291 2770 3770 
Q 2525 4250 2034 4250 
z
M 2034 4750 
Q 2819 4750 3233 4129 
Q 3647 3509 3647 2328 
Q 3647 1150 3233 529 
Q 2819 -91 2034 -91 
Q 1250 -91 836 529 
Q 422 1150 422 2328 
Q 422 3509 836 4129 
Q 1250 4750 2034 4750 
z
" transform="scale(0.015625)"/>
        <path id="DejaVuSans-2e" d="M 684 794 
L 1344 794 
L 1344 0 
L 684 0 
L 684 794 
z
" transform="scale(0.015625)"/>
        <path id="DejaVuSans-32" d="M 1228 531 
L 3431 531 
L 3431 0 
L 469 0 
L 469 531 
Q 828 903 1448 1529 
Q 2069 2156 2228 2338 
Q 2531 2678 2651 2914 
Q 2772 3150 2772 3378 
Q 2772 3750 2511 3984 
Q 2250 4219 1831 4219 
Q 1534 4219 1204 4116 
Q 875 4013 500 3803 
L 500 4441 
Q 881 4594 1212 4672 
Q 1544 4750 1819 4750 
Q 2544 4750 2975 4387 
Q 3406 4025 3406 3419 
Q 3406 3131 3298 2873 
Q 3191 2616 2906 2266 
Q 2828 2175 2409 1742 
Q 1991 1309 1228 531 
z
" transform="scale(0.015625)"/>
        <path id="DejaVuSans-35" d="M 691 4666 
L 3169 4666 
L 3169 4134 
L 1269 4134 
L 1269 2991 
Q 1406 3038 1543 3061 
Q 1681 3084 1819 3084 
Q 2600 3084 3056 2656 
Q 3513 2228 3513 1497 
Q 3513 744 3044 326 
Q 2575 -91 1722 -91 
Q 1428 -91 1123 -41 
Q 819 9 494 109 
L 494 744 
Q 775 591 1075 516 
Q 1375 441 1709 441 
Q 2250 441 2565 725 
Q 2881 1009 2881 1497 
Q 2881 1984 2565 2268 
Q 2250 2553 1709 2553 
Q 1456 2553 1204 2497 
Q 953 2441 691 2322 
L 691 4666 
z
" transform="scale(0.015625)"/>
       </defs>
       <use xlink:href="#DejaVuSans-30"/>
       <use xlink:href="#DejaVuSans-2e" x="63.623047"/>
       <use xlink:href="#DejaVuSans-32" x="95.410156"/>
       <use xlink:href="#DejaVuSans-35" x="159.033203"/>
      </g>
     </g>
    </g>
    <g id="xtick_2">
     <g id="line2d_2">
      <g>
       <use xlink:href="#m3a1fe49472" x="88.42125" y="307.999219" style="stroke: #000000; stroke-width: 0.8"/>
      </g>
     </g>
     <g id="text_2">
      <!-- 0.50 -->
      <g transform="translate(77.288438 322.597656)scale(0.1 -0.1)">
       <use xlink:href="#DejaVuSans-30"/>
       <use xlink:href="#DejaVuSans-2e" x="63.623047"/>
       <use xlink:href="#DejaVuSans-35" x="95.410156"/>
       <use xlink:href="#DejaVuSans-30" x="159.033203"/>
      </g>
     </g>
    </g>
    <g id="xtick_3">
     <g id="line2d_3">
      <g>
       <use xlink:href="#m3a1fe49472" x="125.62125" y="307.999219" style="stroke: #000000; stroke-width: 0.8"/>
      </g>
     </g>
     <g id="text_3">
      <!-- 0.75 -->
      <g transform="translate(114.488438 322.597656)scale(0.1 -0.1)">
       <defs>
        <path id="DejaVuSans-37" d="M 525 4666 
L 3525 4666 
L 3525 4397 
L 1831 0 
L 1172 0 
L 2766 4134 
L 525 4134 
L 525 4666 
z
" transform="scale(0.015625)"/>
       </defs>
       <use xlink:href="#DejaVuSans-30"/>
       <use xlink:href="#DejaVuSans-2e" x="63.623047"/>
       <use xlink:href="#DejaVuSans-37" x="95.410156"/>
       <use xlink:href="#DejaVuSans-35" x="159.033203"/>
      </g>
     </g>
    </g>
    <g id="xtick_4">
     <g id="line2d_4">
      <g>
       <use xlink:href="#m3a1fe49472" x="162.82125" y="307.999219" style="stroke: #000000; stroke-width: 0.8"/>
      </g>
     </g>
     <g id="text_4">
      <!-- 1.00 -->
      <g transform="translate(151.688438 322.597656)scale(0.1 -0.1)">
       <defs>
        <path id="DejaVuSans-31" d="M 794 531 
L 1825 531 
L 1825 4091 
L 703 3866 
L 703 4441 
L 1819 4666 
L 2450 4666 
L 2450 531 
L 3481 531 
L 3481 0 
L 794 0 
L 794 531 
z
" transform="scale(0.015625)"/>
       </defs>
       <use xlink:href="#DejaVuSans-31"/>
       <use xlink:href="#DejaVuSans-2e" x="63.623047"/>
       <use xlink:href="#DejaVuSans-30" x="95.410156"/>
       <use xlink:href="#DejaVuSans-30" x="159.033203"/>
      </g>
     </g>
    </g>
    <g id="xtick_5">
     <g id="line2d_5">
      <g>
       <use xlink:href="#m3a1fe49472" x="200.02125" y="307.999219" style="stroke: #000000; stroke-width: 0.8"/>
      </g>
     </g>
     <g id="text_5">
      <!-- 1.25 -->
      <g transform="translate(188.888438 322.597656)scale(0.1 -0.1)">
       <use xlink:href="#DejaVuSans-31"/>
       <use xlink:href="#DejaVuSans-2e" x="63.623047"/>
       <use xlink:href="#DejaVuSans-32" x="95.410156"/>
       <use xlink:href="#DejaVuSans-35" x="159.033203"/>
      </g>
     </g>
    </g>
    <g id="xtick_6">
     <g id="line2d_6">
      <g>
       <use xlink:href="#m3a1fe49472" x="237.22125" y="307.999219" style="stroke: #000000; stroke-width: 0.8"/>
      </g>
     </g>
     <g id="text_6">
      <!-- 1.50 -->
      <g transform="translate(226.088438 322.597656)scale(0.1 -0.1)">
       <use xlink:href="#DejaVuSans-31"/>
       <use xlink:href="#DejaVuSans-2e" x="63.623047"/>
       <use xlink:href="#DejaVuSans-35" x="95.410156"/>
       <use xlink:href="#DejaVuSans-30" x="159.033203"/>
      </g>
     </g>
    </g>
    <g id="xtick_7">
     <g id="line2d_7">
      <g>
       <use xlink:href="#m3a1fe49472" x="274.42125" y="307.999219" style="stroke: #000000; stroke-width: 0.8"/>
      </g>
     </g>
     <g id="text_7">
      <!-- 1.75 -->
      <g transform="translate(263.288438 322.597656)scale(0.1 -0.1)">
       <use xlink:href="#DejaVuSans-31"/>
       <use xlink:href="#DejaVuSans-2e" x="63.623047"/>
       <use xlink:href="#DejaVuSans-37" x="95.410156"/>
       <use xlink:href="#DejaVuSans-35" x="159.033203"/>
      </g>
     </g>
    </g>
    <g id="xtick_8">
     <g id="line2d_8">
      <g>
       <use xlink:href="#m3a1fe49472" x="311.62125" y="307.999219" style="stroke: #000000; stroke-width: 0.8"/>
      </g>
     </g>
     <g id="text_8">
      <!-- 2.00 -->
      <g transform="translate(300.488438 322.597656)scale(0.1 -0.1)">
       <use xlink:href="#DejaVuSans-32"/>
       <use xlink:href="#DejaVuSans-2e" x="63.623047"/>
       <use xlink:href="#DejaVuSans-30" x="95.410156"/>
       <use xlink:href="#DejaVuSans-30" x="159.033203"/>
      </g>
     </g>
    </g>
    <g id="text_9">
     <!-- x -->
     <g transform="translate(174.741875 336.275781)scale(0.1 -0.1)">
      <defs>
       <path id="DejaVuSans-78" d="M 3513 3500 
L 2247 1797 
L 3578 0 
L 2900 0 
L 1881 1375 
L 863 0 
L 184 0 
L 1544 1831 
L 300 3500 
L 978 3500 
L 1906 2253 
L 2834 3500 
L 3513 3500 
z
" transform="scale(0.015625)"/>
      </defs>
      <use xlink:href="#DejaVuSans-78"/>
     </g>
    </g>
   </g>
   <g id="matplotlib.axis_2">
    <g id="ytick_1">
     <g id="line2d_9">
      <defs>
       <path id="m2b8ae78c31" d="M 0 0 
L -3.5 0 
" style="stroke: #000000; stroke-width: 0.8"/>
      </defs>
      <g>
       <use xlink:href="#m2b8ae78c31" x="43.78125" y="307.999219" style="stroke: #000000; stroke-width: 0.8"/>
      </g>
     </g>
     <g id="text_10">
      <!-- 0.2 -->
      <g transform="translate(20.878125 311.798438)scale(0.1 -0.1)">
       <use xlink:href="#DejaVuSans-30"/>
       <use xlink:href="#DejaVuSans-2e" x="63.623047"/>
       <use xlink:href="#DejaVuSans-32" x="95.410156"/>
      </g>
     </g>
    </g>
    <g id="ytick_2">
     <g id="line2d_10">
      <g>
       <use xlink:href="#m2b8ae78c31" x="43.78125" y="278.239219" style="stroke: #000000; stroke-width: 0.8"/>
      </g>
     </g>
     <g id="text_11">
      <!-- 0.4 -->
      <g transform="translate(20.878125 282.038438)scale(0.1 -0.1)">
       <defs>
        <path id="DejaVuSans-34" d="M 2419 4116 
L 825 1625 
L 2419 1625 
L 2419 4116 
z
M 2253 4666 
L 3047 4666 
L 3047 1625 
L 3713 1625 
L 3713 1100 
L 3047 1100 
L 3047 0 
L 2419 0 
L 2419 1100 
L 313 1100 
L 313 1709 
L 2253 4666 
z
" transform="scale(0.015625)"/>
       </defs>
       <use xlink:href="#DejaVuSans-30"/>
       <use xlink:href="#DejaVuSans-2e" x="63.623047"/>
       <use xlink:href="#DejaVuSans-34" x="95.410156"/>
      </g>
     </g>
    </g>
    <g id="ytick_3">
     <g id="line2d_11">
      <g>
       <use xlink:href="#m2b8ae78c31" x="43.78125" y="248.479219" style="stroke: #000000; stroke-width: 0.8"/>
      </g>
     </g>
     <g id="text_12">
      <!-- 0.6 -->
      <g transform="translate(20.878125 252.278438)scale(0.1 -0.1)">
       <defs>
        <path id="DejaVuSans-36" d="M 2113 2584 
Q 1688 2584 1439 2293 
Q 1191 2003 1191 1497 
Q 1191 994 1439 701 
Q 1688 409 2113 409 
Q 2538 409 2786 701 
Q 3034 994 3034 1497 
Q 3034 2003 2786 2293 
Q 2538 2584 2113 2584 
z
M 3366 4563 
L 3366 3988 
Q 3128 4100 2886 4159 
Q 2644 4219 2406 4219 
Q 1781 4219 1451 3797 
Q 1122 3375 1075 2522 
Q 1259 2794 1537 2939 
Q 1816 3084 2150 3084 
Q 2853 3084 3261 2657 
Q 3669 2231 3669 1497 
Q 3669 778 3244 343 
Q 2819 -91 2113 -91 
Q 1303 -91 875 529 
Q 447 1150 447 2328 
Q 447 3434 972 4092 
Q 1497 4750 2381 4750 
Q 2619 4750 2861 4703 
Q 3103 4656 3366 4563 
z
" transform="scale(0.015625)"/>
       </defs>
       <use xlink:href="#DejaVuSans-30"/>
       <use xlink:href="#DejaVuSans-2e" x="63.623047"/>
       <use xlink:href="#DejaVuSans-36" x="95.410156"/>
      </g>
     </g>
    </g>
    <g id="ytick_4">
     <g id="line2d_12">
      <g>
       <use xlink:href="#m2b8ae78c31" x="43.78125" y="218.719219" style="stroke: #000000; stroke-width: 0.8"/>
      </g>
     </g>
     <g id="text_13">
      <!-- 0.8 -->
      <g transform="translate(20.878125 222.518438)scale(0.1 -0.1)">
       <defs>
        <path id="DejaVuSans-38" d="M 2034 2216 
Q 1584 2216 1326 1975 
Q 1069 1734 1069 1313 
Q 1069 891 1326 650 
Q 1584 409 2034 409 
Q 2484 409 2743 651 
Q 3003 894 3003 1313 
Q 3003 1734 2745 1975 
Q 2488 2216 2034 2216 
z
M 1403 2484 
Q 997 2584 770 2862 
Q 544 3141 544 3541 
Q 544 4100 942 4425 
Q 1341 4750 2034 4750 
Q 2731 4750 3128 4425 
Q 3525 4100 3525 3541 
Q 3525 3141 3298 2862 
Q 3072 2584 2669 2484 
Q 3125 2378 3379 2068 
Q 3634 1759 3634 1313 
Q 3634 634 3220 271 
Q 2806 -91 2034 -91 
Q 1263 -91 848 271 
Q 434 634 434 1313 
Q 434 1759 690 2068 
Q 947 2378 1403 2484 
z
M 1172 3481 
Q 1172 3119 1398 2916 
Q 1625 2713 2034 2713 
Q 2441 2713 2670 2916 
Q 2900 3119 2900 3481 
Q 2900 3844 2670 4047 
Q 2441 4250 2034 4250 
Q 1625 4250 1398 4047 
Q 1172 3844 1172 3481 
z
" transform="scale(0.015625)"/>
       </defs>
       <use xlink:href="#DejaVuSans-30"/>
       <use xlink:href="#DejaVuSans-2e" x="63.623047"/>
       <use xlink:href="#DejaVuSans-38" x="95.410156"/>
      </g>
     </g>
    </g>
    <g id="ytick_5">
     <g id="line2d_13">
      <g>
       <use xlink:href="#m2b8ae78c31" x="43.78125" y="188.959219" style="stroke: #000000; stroke-width: 0.8"/>
      </g>
     </g>
     <g id="text_14">
      <!-- 1.0 -->
      <g transform="translate(20.878125 192.758438)scale(0.1 -0.1)">
       <use xlink:href="#DejaVuSans-31"/>
       <use xlink:href="#DejaVuSans-2e" x="63.623047"/>
       <use xlink:href="#DejaVuSans-30" x="95.410156"/>
      </g>
     </g>
    </g>
    <g id="ytick_6">
     <g id="line2d_14">
      <g>
       <use xlink:href="#m2b8ae78c31" x="43.78125" y="159.199219" style="stroke: #000000; stroke-width: 0.8"/>
      </g>
     </g>
     <g id="text_15">
      <!-- 1.2 -->
      <g transform="translate(20.878125 162.998438)scale(0.1 -0.1)">
       <use xlink:href="#DejaVuSans-31"/>
       <use xlink:href="#DejaVuSans-2e" x="63.623047"/>
       <use xlink:href="#DejaVuSans-32" x="95.410156"/>
      </g>
     </g>
    </g>
    <g id="ytick_7">
     <g id="line2d_15">
      <g>
       <use xlink:href="#m2b8ae78c31" x="43.78125" y="129.439219" style="stroke: #000000; stroke-width: 0.8"/>
      </g>
     </g>
     <g id="text_16">
      <!-- 1.4 -->
      <g transform="translate(20.878125 133.238438)scale(0.1 -0.1)">
       <use xlink:href="#DejaVuSans-31"/>
       <use xlink:href="#DejaVuSans-2e" x="63.623047"/>
       <use xlink:href="#DejaVuSans-34" x="95.410156"/>
      </g>
     </g>
    </g>
    <g id="ytick_8">
     <g id="line2d_16">
      <g>
       <use xlink:href="#m2b8ae78c31" x="43.78125" y="99.679219" style="stroke: #000000; stroke-width: 0.8"/>
      </g>
     </g>
     <g id="text_17">
      <!-- 1.6 -->
      <g transform="translate(20.878125 103.478438)scale(0.1 -0.1)">
       <use xlink:href="#DejaVuSans-31"/>
       <use xlink:href="#DejaVuSans-2e" x="63.623047"/>
       <use xlink:href="#DejaVuSans-36" x="95.410156"/>
      </g>
     </g>
    </g>
    <g id="ytick_9">
     <g id="line2d_17">
      <g>
       <use xlink:href="#m2b8ae78c31" x="43.78125" y="69.919219" style="stroke: #000000; stroke-width: 0.8"/>
      </g>
     </g>
     <g id="text_18">
      <!-- 1.8 -->
      <g transform="translate(20.878125 73.718438)scale(0.1 -0.1)">
       <use xlink:href="#DejaVuSans-31"/>
       <use xlink:href="#DejaVuSans-2e" x="63.623047"/>
       <use xlink:href="#DejaVuSans-38" x="95.410156"/>
      </g>
     </g>
    </g>
    <g id="ytick_10">
     <g id="line2d_18">
      <g>
       <use xlink:href="#m2b8ae78c31" x="43.78125" y="40.159219" style="stroke: #000000; stroke-width: 0.8"/>
      </g>
     </g>
     <g id="text_19">
      <!-- 2.0 -->
      <g transform="translate(20.878125 43.958438)scale(0.1 -0.1)">
       <use xlink:href="#DejaVuSans-32"/>
       <use xlink:href="#DejaVuSans-2e" x="63.623047"/>
       <use xlink:href="#DejaVuSans-30" x="95.410156"/>
      </g>
     </g>
    </g>
    <g id="text_20">
     <!-- y -->
     <g transform="translate(14.798438 177.038594)rotate(-90)scale(0.1 -0.1)">
      <defs>
       <path id="DejaVuSans-79" d="M 2059 -325 
Q 1816 -950 1584 -1140 
Q 1353 -1331 966 -1331 
L 506 -1331 
L 506 -850 
L 844 -850 
Q 1081 -850 1212 -737 
Q 1344 -625 1503 -206 
L 1606 56 
L 191 3500 
L 800 3500 
L 1894 763 
L 2988 3500 
L 3597 3500 
L 2059 -325 
z
" transform="scale(0.015625)"/>
      </defs>
      <use xlink:href="#DejaVuSans-79"/>
     </g>
    </g>
   </g>
   <g id="PathCollection_22"/>
   <g id="PathCollection_23">
    <path d="M 131.824327 307.999219 
L 131.125341 305.320819 
L 130.34792 302.642419 
L 129.49005 299.97161 
L 129.487694 299.964019 
L 128.594212 297.285619 
L 127.610752 294.607219 
L 126.81165 292.607672 
L 126.547318 291.928819 
L 125.43079 289.250419 
L 124.208685 286.572019 
L 124.13325 286.415253 
L 122.940435 283.893619 
L 121.558665 281.215219 
L 121.45485 281.023603 
L 120.121878 278.536819 
L 118.77645 276.218042 
L 118.569189 275.858419 
L 116.945345 273.180019 
L 116.09805 271.868371 
L 115.215138 270.501619 
L 113.41965 267.89524 
L 113.36982 267.823219 
L 111.439253 265.144819 
L 110.74125 264.227185 
L 109.386751 262.466419 
L 108.06285 260.829627 
L 107.206917 259.788019 
L 105.38445 257.668059 
L 104.894426 257.109619 
L 102.70605 254.713738 
L 102.441387 254.431219 
L 100.02765 251.943537 
L 99.836932 251.752819 
L 97.34925 249.339082 
L 97.066731 249.074419 
L 94.67085 246.886043 
L 94.11241 246.396019 
L 91.99245 244.573552 
L 90.950841 243.717619 
L 89.31405 242.393718 
L 87.553284 241.039219 
L 86.63565 240.341216 
L 83.95725 238.410649 
L 83.885229 238.360819 
L 81.27885 236.56533 
L 79.912097 235.682419 
L 78.60045 234.835123 
L 75.92205 233.21128 
L 75.562427 233.004019 
L 73.24365 231.658591 
L 70.756865 230.325619 
L 70.56525 230.221804 
L 67.88685 228.840033 
L 65.365216 227.647219 
L 65.20845 227.571784 
L 62.53005 226.349679 
L 59.85165 225.233151 
L 59.172797 224.968819 
L 57.17325 224.169716 
L 54.49485 223.186257 
L 51.81645 222.292774 
L 51.808858 222.290419 
L 49.13805 221.432549 
L 46.45965 220.655127 
L 43.78125 219.956141 
" clip-path="url(#pfa1d037f41)" style="fill: none; stroke: #000000; stroke-width: 1.5"/>
   </g>
   <g id="PathCollection_24">
    <path d="M 94.614117 307.999219 
L 93.597899 305.320819 
L 92.440447 302.642419 
L 91.99245 301.696712 
L 91.192418 299.964019 
L 89.814579 297.285619 
L 89.31405 296.390449 
L 88.329581 294.607219 
L 86.686918 291.928819 
L 86.63565 291.849923 
L 84.945438 289.250419 
L 83.95725 287.858724 
L 83.035189 286.572019 
L 81.27885 284.304618 
L 80.954638 283.893619 
L 78.701882 281.215219 
L 78.60045 281.10035 
L 76.263203 278.536819 
L 75.92205 278.181244 
L 73.599225 275.858419 
L 73.24365 275.517266 
L 70.680118 273.180019 
L 70.56525 273.078587 
L 67.88685 270.82583 
L 67.475851 270.501619 
L 65.20845 268.74528 
L 63.921745 267.823219 
L 62.53005 266.83503 
L 59.930545 265.144819 
L 59.85165 265.09355 
L 57.17325 263.450887 
L 55.39002 262.466419 
L 54.49485 261.965889 
L 51.81645 260.588051 
L 50.083756 259.788019 
L 49.13805 259.340022 
L 46.45965 258.182569 
L 43.78125 257.166351 
" clip-path="url(#pfa1d037f41)" style="fill: none; stroke: #000000; stroke-width: 1.5"/>
   </g>
   <g id="PathCollection_25">
    <path d="M 77.570969 307.999219 
L 76.227204 305.320819 
L 75.92205 304.766759 
L 74.772028 302.642419 
L 73.24365 300.168171 
L 73.118184 299.964019 
L 71.332929 297.285619 
L 70.56525 296.240669 
L 69.34641 294.607219 
L 67.88685 292.816736 
L 67.141557 291.928819 
L 65.20845 289.788529 
L 64.700801 289.250419 
L 62.53005 287.079668 
L 61.99194 286.572019 
L 59.85165 284.638912 
L 58.963732 283.893619 
L 57.17325 282.434059 
L 55.5398 281.215219 
L 54.49485 280.44754 
L 51.81645 278.662284 
L 51.612298 278.536819 
L 49.13805 277.008441 
L 47.01371 275.858419 
L 46.45965 275.553264 
L 43.78125 274.2095 
" clip-path="url(#pfa1d037f41)" style="fill: none; stroke: #000000; stroke-width: 1.5"/>
   </g>
   <g id="PathCollection_26">
    <path d="M 67.010377 307.999219 
L 65.390608 305.320819 
L 65.20845 305.044747 
L 63.618763 302.642419 
L 62.53005 301.181485 
L 61.604163 299.964019 
L 59.85165 297.875717 
L 59.336821 297.285619 
L 57.17325 294.992291 
L 56.788178 294.607219 
L 54.49485 292.443648 
L 53.904752 291.928819 
L 51.81645 290.176305 
L 50.598983 289.250419 
L 49.13805 288.161706 
L 46.735721 286.572019 
L 46.45965 286.389861 
L 43.78125 284.770092 
" clip-path="url(#pfa1d037f41)" style="fill: none; stroke: #000000; stroke-width: 1.5"/>
   </g>
   <g id="PathCollection_27">
    <path d="M 59.497151 307.999219 
L 57.627467 305.320819 
L 57.17325 304.733424 
L 55.509023 302.642419 
L 54.49485 301.490008 
L 53.080404 299.964019 
L 51.81645 298.700065 
L 50.29046 297.285619 
L 49.13805 296.271446 
L 47.047044 294.607219 
L 46.45965 294.153002 
L 43.78125 292.283318 
" clip-path="url(#pfa1d037f41)" style="fill: none; stroke: #000000; stroke-width: 1.5"/>
   </g>
   <g id="PathCollection_28">
    <path d="M 53.730378 307.999219 
L 51.81645 305.631858 
L 51.554404 305.320819 
L 49.13805 302.727943 
L 49.052526 302.642419 
L 46.45965 300.226064 
L 46.14861 299.964019 
L 43.78125 298.05009 
" clip-path="url(#pfa1d037f41)" style="fill: none; stroke: #000000; stroke-width: 1.5"/>
   </g>
   <g id="PathCollection_29">
    <path d="M 49.000126 307.999219 
L 46.527176 305.320819 
L 46.45965 305.253293 
L 43.78125 302.780342 
" clip-path="url(#pfa1d037f41)" style="fill: none; stroke: #000000; stroke-width: 1.5"/>
   </g>
   <g id="PathCollection_30">
    <path d="M 45.027525 307.999219 
L 43.78125 306.752944 
" clip-path="url(#pfa1d037f41)" style="fill: none; stroke: #000000; stroke-width: 1.5"/>
   </g>
   <g id="PathCollection_31"/>
   <g id="patch_3">
    <path d="M 43.78125 307.999219 
L 43.78125 40.159219 
" style="fill: none; stroke: #000000; stroke-width: 0.8; stroke-linejoin: miter; stroke-linecap: square"/>
   </g>
   <g id="patch_4">
    <path d="M 311.62125 307.999219 
L 311.62125 40.159219 
" style="fill: none; stroke: #000000; stroke-width: 0.8; stroke-linejoin: miter; stroke-linecap: square"/>
   </g>
   <g id="patch_5">
    <path d="M 43.78125 307.999219 
L 311.62125 307.999219 
" style="fill: none; stroke: #000000; stroke-width: 0.8; stroke-linejoin: miter; stroke-linecap: square"/>
   </g>
   <g id="patch_6">
    <path d="M 43.78125 40.159219 
L 311.62125 40.159219 
" style="fill: none; stroke: #000000; stroke-width: 0.8; stroke-linejoin: miter; stroke-linecap: square"/>
   </g>
  </g>
  <g id="axes_2">
   <g id="patch_7">
    <path d="M 328.36125 337.159219 
L 344.66925 337.159219 
L 344.66925 10.999219 
L 328.36125 10.999219 
z
" style="fill: #ffffff"/>
   </g>
   <g id="patch_8">
    <path clip-path="url(#p410c300de4)" style="fill: #ffffff; stroke: #ffffff; stroke-width: 0.01; stroke-linejoin: miter"/>
   </g>
   <g id="QuadMesh_1">
    <path d="M 328.36125 337.159219 
L 344.66925 337.159219 
L 344.66925 321.62779 
L 328.36125 321.62779 
L 328.36125 337.159219 
" clip-path="url(#p410c300de4)" style="fill: #4257c9"/>
    <path d="M 328.36125 321.62779 
L 344.66925 321.62779 
L 344.66925 306.096362 
L 328.36125 306.096362 
L 328.36125 321.62779 
" clip-path="url(#p410c300de4)" style="fill: #506bda"/>
    <path d="M 328.36125 306.096362 
L 344.66925 306.096362 
L 344.66925 290.564933 
L 328.36125 290.564933 
L 328.36125 306.096362 
" clip-path="url(#p410c300de4)" style="fill: #5f7fe8"/>
    <path d="M 328.36125 290.564933 
L 344.66925 290.564933 
L 344.66925 275.033504 
L 328.36125 275.033504 
L 328.36125 290.564933 
" clip-path="url(#p410c300de4)" style="fill: #6f92f3"/>
    <path d="M 328.36125 275.033504 
L 344.66925 275.033504 
L 344.66925 259.502076 
L 328.36125 259.502076 
L 328.36125 275.033504 
" clip-path="url(#p410c300de4)" style="fill: #80a3fa"/>
    <path d="M 328.36125 259.502076 
L 344.66925 259.502076 
L 344.66925 243.970647 
L 328.36125 243.970647 
L 328.36125 259.502076 
" clip-path="url(#p410c300de4)" style="fill: #92b4fe"/>
    <path d="M 328.36125 243.970647 
L 344.66925 243.970647 
L 344.66925 228.439219 
L 328.36125 228.439219 
L 328.36125 243.970647 
" clip-path="url(#p410c300de4)" style="fill: #a2c1ff"/>
    <path d="M 328.36125 228.439219 
L 344.66925 228.439219 
L 344.66925 212.90779 
L 328.36125 212.90779 
L 328.36125 228.439219 
" clip-path="url(#p410c300de4)" style="fill: #b2ccfb"/>
    <path d="M 328.36125 212.90779 
L 344.66925 212.90779 
L 344.66925 197.376362 
L 328.36125 197.376362 
L 328.36125 212.90779 
" clip-path="url(#p410c300de4)" style="fill: #c1d4f4"/>
    <path d="M 328.36125 197.376362 
L 344.66925 197.376362 
L 344.66925 181.844933 
L 328.36125 181.844933 
L 328.36125 197.376362 
" clip-path="url(#p410c300de4)" style="fill: #cfdaea"/>
    <path d="M 328.36125 181.844933 
L 344.66925 181.844933 
L 344.66925 166.313504 
L 328.36125 166.313504 
L 328.36125 181.844933 
" clip-path="url(#p410c300de4)" style="fill: #dddcdc"/>
    <path d="M 328.36125 166.313504 
L 344.66925 166.313504 
L 344.66925 150.782076 
L 328.36125 150.782076 
L 328.36125 166.313504 
" clip-path="url(#p410c300de4)" style="fill: #e9d5cb"/>
    <path d="M 328.36125 150.782076 
L 344.66925 150.782076 
L 344.66925 135.250647 
L 328.36125 135.250647 
L 328.36125 150.782076 
" clip-path="url(#p410c300de4)" style="fill: #f1ccb8"/>
    <path d="M 328.36125 135.250647 
L 344.66925 135.250647 
L 344.66925 119.719219 
L 328.36125 119.719219 
L 328.36125 135.250647 
" clip-path="url(#p410c300de4)" style="fill: #f6bfa6"/>
    <path d="M 328.36125 119.719219 
L 344.66925 119.719219 
L 344.66925 104.18779 
L 328.36125 104.18779 
L 328.36125 119.719219 
" clip-path="url(#p410c300de4)" style="fill: #f7b093"/>
    <path d="M 328.36125 104.18779 
L 344.66925 104.18779 
L 344.66925 88.656362 
L 328.36125 88.656362 
L 328.36125 104.18779 
" clip-path="url(#p410c300de4)" style="fill: #f59f80"/>
    <path d="M 328.36125 88.656362 
L 344.66925 88.656362 
L 344.66925 73.124933 
L 328.36125 73.124933 
L 328.36125 88.656362 
" clip-path="url(#p410c300de4)" style="fill: #f08a6c"/>
    <path d="M 328.36125 73.124933 
L 344.66925 73.124933 
L 344.66925 57.593504 
L 328.36125 57.593504 
L 328.36125 73.124933 
" clip-path="url(#p410c300de4)" style="fill: #e7745b"/>
    <path d="M 328.36125 57.593504 
L 344.66925 57.593504 
L 344.66925 42.062076 
L 328.36125 42.062076 
L 328.36125 57.593504 
" clip-path="url(#p410c300de4)" style="fill: #dc5d4a"/>
    <path d="M 328.36125 42.062076 
L 344.66925 42.062076 
L 344.66925 26.530647 
L 328.36125 26.530647 
L 328.36125 42.062076 
" clip-path="url(#p410c300de4)" style="fill: #cd423b"/>
    <path d="M 328.36125 26.530647 
L 344.66925 26.530647 
L 344.66925 10.999219 
L 328.36125 10.999219 
L 328.36125 26.530647 
" clip-path="url(#p410c300de4)" style="fill: #bd1f2d"/>
   </g>
   <g id="matplotlib.axis_3">
    <g id="ytick_11">
     <g id="line2d_19">
      <defs>
       <path id="m3ff026c428" d="M 0 0 
L 3.5 0 
" style="stroke: #000000; stroke-width: 0.8"/>
      </defs>
      <g>
       <use xlink:href="#m3ff026c428" x="344.66925" y="337.159219" style="stroke: #000000; stroke-width: 0.8"/>
      </g>
     </g>
     <g id="text_21">
      <!-- 0 -->
      <g transform="translate(351.66925 340.958437)scale(0.1 -0.1)">
       <use xlink:href="#DejaVuSans-30"/>
      </g>
     </g>
    </g>
    <g id="ytick_12">
     <g id="line2d_20">
      <g>
       <use xlink:href="#m3ff026c428" x="344.66925" y="290.564933" style="stroke: #000000; stroke-width: 0.8"/>
      </g>
     </g>
     <g id="text_22">
      <!-- 18 -->
      <g transform="translate(351.66925 294.364152)scale(0.1 -0.1)">
       <use xlink:href="#DejaVuSans-31"/>
       <use xlink:href="#DejaVuSans-38" x="63.623047"/>
      </g>
     </g>
    </g>
    <g id="ytick_13">
     <g id="line2d_21">
      <g>
       <use xlink:href="#m3ff026c428" x="344.66925" y="243.970647" style="stroke: #000000; stroke-width: 0.8"/>
      </g>
     </g>
     <g id="text_23">
      <!-- 36 -->
      <g transform="translate(351.66925 247.769866)scale(0.1 -0.1)">
       <defs>
        <path id="DejaVuSans-33" d="M 2597 2516 
Q 3050 2419 3304 2112 
Q 3559 1806 3559 1356 
Q 3559 666 3084 287 
Q 2609 -91 1734 -91 
Q 1441 -91 1130 -33 
Q 819 25 488 141 
L 488 750 
Q 750 597 1062 519 
Q 1375 441 1716 441 
Q 2309 441 2620 675 
Q 2931 909 2931 1356 
Q 2931 1769 2642 2001 
Q 2353 2234 1838 2234 
L 1294 2234 
L 1294 2753 
L 1863 2753 
Q 2328 2753 2575 2939 
Q 2822 3125 2822 3475 
Q 2822 3834 2567 4026 
Q 2313 4219 1838 4219 
Q 1578 4219 1281 4162 
Q 984 4106 628 3988 
L 628 4550 
Q 988 4650 1302 4700 
Q 1616 4750 1894 4750 
Q 2613 4750 3031 4423 
Q 3450 4097 3450 3541 
Q 3450 3153 3228 2886 
Q 3006 2619 2597 2516 
z
" transform="scale(0.015625)"/>
       </defs>
       <use xlink:href="#DejaVuSans-33"/>
       <use xlink:href="#DejaVuSans-36" x="63.623047"/>
      </g>
     </g>
    </g>
    <g id="ytick_14">
     <g id="line2d_22">
      <g>
       <use xlink:href="#m3ff026c428" x="344.66925" y="197.376362" style="stroke: #000000; stroke-width: 0.8"/>
      </g>
     </g>
     <g id="text_24">
      <!-- 54 -->
      <g transform="translate(351.66925 201.17558)scale(0.1 -0.1)">
       <use xlink:href="#DejaVuSans-35"/>
       <use xlink:href="#DejaVuSans-34" x="63.623047"/>
      </g>
     </g>
    </g>
    <g id="ytick_15">
     <g id="line2d_23">
      <g>
       <use xlink:href="#m3ff026c428" x="344.66925" y="150.782076" style="stroke: #000000; stroke-width: 0.8"/>
      </g>
     </g>
     <g id="text_25">
      <!-- 72 -->
      <g transform="translate(351.66925 154.581295)scale(0.1 -0.1)">
       <use xlink:href="#DejaVuSans-37"/>
       <use xlink:href="#DejaVuSans-32" x="63.623047"/>
      </g>
     </g>
    </g>
    <g id="ytick_16">
     <g id="line2d_24">
      <g>
       <use xlink:href="#m3ff026c428" x="344.66925" y="104.18779" style="stroke: #000000; stroke-width: 0.8"/>
      </g>
     </g>
     <g id="text_26">
      <!-- 90 -->
      <g transform="translate(351.66925 107.987009)scale(0.1 -0.1)">
       <defs>
        <path id="DejaVuSans-39" d="M 703 97 
L 703 672 
Q 941 559 1184 500 
Q 1428 441 1663 441 
Q 2288 441 2617 861 
Q 2947 1281 2994 2138 
Q 2813 1869 2534 1725 
Q 2256 1581 1919 1581 
Q 1219 1581 811 2004 
Q 403 2428 403 3163 
Q 403 3881 828 4315 
Q 1253 4750 1959 4750 
Q 2769 4750 3195 4129 
Q 3622 3509 3622 2328 
Q 3622 1225 3098 567 
Q 2575 -91 1691 -91 
Q 1453 -91 1209 -44 
Q 966 3 703 97 
z
M 1959 2075 
Q 2384 2075 2632 2365 
Q 2881 2656 2881 3163 
Q 2881 3666 2632 3958 
Q 2384 4250 1959 4250 
Q 1534 4250 1286 3958 
Q 1038 3666 1038 3163 
Q 1038 2656 1286 2365 
Q 1534 2075 1959 2075 
z
" transform="scale(0.015625)"/>
       </defs>
       <use xlink:href="#DejaVuSans-39"/>
       <use xlink:href="#DejaVuSans-30" x="63.623047"/>
      </g>
     </g>
    </g>
    <g id="ytick_17">
     <g id="line2d_25">
      <g>
       <use xlink:href="#m3ff026c428" x="344.66925" y="57.593504" style="stroke: #000000; stroke-width: 0.8"/>
      </g>
     </g>
     <g id="text_27">
      <!-- 108 -->
      <g transform="translate(351.66925 61.392723)scale(0.1 -0.1)">
       <use xlink:href="#DejaVuSans-31"/>
       <use xlink:href="#DejaVuSans-30" x="63.623047"/>
       <use xlink:href="#DejaVuSans-38" x="127.246094"/>
      </g>
     </g>
    </g>
    <g id="ytick_18">
     <g id="line2d_26">
      <g>
       <use xlink:href="#m3ff026c428" x="344.66925" y="10.999219" style="stroke: #000000; stroke-width: 0.8"/>
      </g>
     </g>
     <g id="text_28">
      <!-- 126 -->
      <g transform="translate(351.66925 14.798438)scale(0.1 -0.1)">
       <use xlink:href="#DejaVuSans-31"/>
       <use xlink:href="#DejaVuSans-32" x="63.623047"/>
       <use xlink:href="#DejaVuSans-36" x="127.246094"/>
      </g>
     </g>
    </g>
   </g>
   <g id="LineCollection_1"/>
   <g id="patch_9">
    <path d="M 328.36125 337.159219 
L 336.51525 337.159219 
L 344.66925 337.159219 
L 344.66925 10.999219 
L 336.51525 10.999219 
L 328.36125 10.999219 
L 328.36125 337.159219 
z
" style="fill: none; stroke: #000000; stroke-width: 0.8; stroke-linejoin: miter; stroke-linecap: square"/>
   </g>
  </g>
 </g>
 <defs>
  <clipPath id="pfa1d037f41">
   <rect x="43.78125" y="40.159219" width="267.84" height="267.84"/>
  </clipPath>
  <clipPath id="p410c300de4">
   <rect x="328.36125" y="10.999219" width="16.308" height="326.16"/>
  </clipPath>
 </defs>
</svg>
